<?xml version="1.0" standalone="no"?>
<!DOCTYPE svg PUBLIC "-//W3C//DTD SVG 1.1//EN" "http://www.w3.org/Graphics/SVG/1.1/DTD/svg11.dtd" >
<svg xmlns="http://www.w3.org/2000/svg" xmlns:xlink="http://www.w3.org/1999/xlink" version="1.1">
<metadata>
Created by FontForge 20170812 at Fri Sep 13 17:48:38 2019
 By www-data
Copyright 2015 Google LLC. All Rights Reserved.
</metadata>
<defs>
<font id="GoogleSans-BoldItalic" horiz-adv-x="0" >
  <font-face 
    font-family="Google Sans"
    font-weight="700"
    font-style="italic"
    font-stretch="normal"
    units-per-em="1000"
    panose-1="2 11 8 3 3 5 2 4 2 4"
    ascent="800"
    descent="-200"
    x-height="510"
    cap-height="716"
    bbox="-452 -271 3284 1056"
    underline-thickness="84"
    underline-position="-244"
    slope="-10"
    unicode-range="U+0002-FFFD"
  />
<missing-glyph horiz-adv-x="570" 
d="M517 716v-716h-426v716h426zM453 60v596h-298v-596h298z" />
    <glyph glyph-name="G_l_o_g_o_l_i_g_a_t_u_r_e.liga" unicode="Glogoligature" horiz-adv-x="861" 
d="M253 39.5q-96 55.5 -152.5 149.5t-56.5 205t56.5 205t152.5 149.5t207 55.5q163 0 281 -113l-79 -79q-85 80 -202 80q-81 0 -148.5 -40t-106.5 -108.5t-39 -149.5t39 -149.5t106.5 -108.5t148.5 -40q72 0 121.5 23t85.5 59q49 49 61 141h-268v112h377q6 -30 6 -70
q0 -71 -23 -141t-74 -121q-110 -115 -286 -115q-111 0 -207 55.5z" />
    <glyph glyph-name="e_l_o_g_o_l_i_g_a_t_u_r_e.liga" unicode="elogoligature" horiz-adv-x="514" 
d="M155 19q-60 35 -94 95.5t-34 133.5q0 77 33.5 137t90.5 93.5t125 33.5q91 0 147 -53t79 -115l12 -30l-353 -146q41 -80 128 -80q80 0 130 73l90 -60q-30 -45 -85 -81t-135 -36q-74 0 -134 35zM341 394.5q-27 15.5 -61 15.5q-31 0 -64 -18t-54 -53t-20 -83l236 98
q-10 25 -37 40.5z" />
    <glyph glyph-name="g_l_o_g_o_l_i_g_a_t_u_r_e.liga" unicode="glogoligature" horiz-adv-x="566" 
d="M129 -206q-60 47 -86 109l101 42q16 -38 50 -66t83 -28q66 0 103.5 40t37.5 115v38h-4q-21 -26 -57.5 -43t-81.5 -17q-66 0 -124 35t-93.5 95.5t-35.5 132.5q0 73 35.5 133.5t94 96t123.5 35.5q45 0 81.5 -17t57.5 -42h4v43h110v-474q0 -138 -70.5 -206.5t-180.5 -68.5
q-88 0 -148 47zM356.5 108.5q32.5 20.5 51 57t18.5 81.5q0 46 -18.5 82.5t-51 57.5t-71.5 21q-40 0 -73.5 -21t-53.5 -58t-20 -82t20 -81.5t53.5 -57t73.5 -20.5q39 0 71.5 20.5z" />
    <glyph glyph-name="l_l_o_g_o_l_i_g_a_t_u_r_e.liga" unicode="llogoligature" horiz-adv-x="187" 
d="M42 0v776h116v-776h-116z" />
    <glyph glyph-name="o_l_o_g_o_l_i_g_a_t_u_r_e.liga" unicode="ologoligature" horiz-adv-x="578" 
d="M154 18.5q-61 34.5 -96.5 95t-35.5 134.5q0 75 35.5 135.5t96.5 94.5t133 34t133 -34t96.5 -94.5t35.5 -135.5q0 -74 -35.5 -134.5t-96.5 -95t-133 -34.5t-133 34.5zM361 108.5q34 20.5 54.5 57t20.5 82.5t-20.5 82.5t-54.5 57t-74 20.5t-74 -20.5t-54.5 -57t-20.5 -82.5
t20.5 -82.5t54.5 -57t74 -20.5t74 20.5z" />
    <glyph glyph-name="f_b.liga" unicode="fb" horiz-adv-x="1006" 
d="M601 6q-42 22 -64 55h-8l-10 -61h-123l106 600h-121q-34 0 -55.5 -19t-27.5 -56l-3 -15h121l-20 -112h-121l-70 -398h-130l69 398h-90l19 112h91l3 16q17 98 73.5 146t160.5 48h253l-36 -200l-21 -72h8q20 31 60.5 54.5t94.5 23.5q60 0 108.5 -30t76.5 -84.5t28 -123.5
q0 -87 -36.5 -156.5t-99 -108.5t-138.5 -39q-56 0 -98 22zM761.5 126.5q37.5 21.5 59 59.5t21.5 87q0 36 -17 66t-46 47.5t-63 17.5q-47 0 -82.5 -23.5t-54.5 -63t-19 -86.5q0 -36 16.5 -65t44 -45t59.5 -16q44 0 81.5 21.5z" />
    <glyph glyph-name="f_f.liga" unicode="ff" horiz-adv-x="735" 
d="M144 398h-90l19 112h91l5 28q14 90 71.5 138t147.5 48q32 0 56 -6l-22 -126q-7 3 -18 6t-26 3q-30 0 -52 -19t-28 -52l-3 -20h191l5 28q14 91 72 138.5t150 47.5q24 0 46 -4t33 -10l-22 -125q-30 16 -64 16q-33 0 -56.5 -19t-29.5 -52l-3 -20h124l-20 -112h-124l-71 -398
h-130l70 398h-191l-70 -398h-131z" />
    <glyph glyph-name="f_f_b.liga" unicode="ffb" horiz-adv-x="1327" 
d="M922 6q-42 22 -64 55h-8l-11 -61h-122l106 600h-122q-33 0 -54.5 -19t-28.5 -56l-3 -15h121l-19 -112h-121l-70 -398h-131l70 398h-190l-70 -398h-131l70 398h-90l19 112h91l5 28q14 90 71.5 138t147.5 48q32 0 56 -6l-22 -126q-7 3 -18 6t-26 3q-30 0 -52 -19t-28 -52
l-3 -20h190l2 16q16 98 73 146t162 48h253l-37 -200l-20 -72h8q20 32 60.5 55t94.5 23q59 0 108 -30t77 -84.5t28 -123.5q0 -87 -36.5 -156.5t-99 -108.5t-138.5 -39q-56 0 -98 22zM1082 126.5q37 21.5 58.5 59.5t21.5 87q0 55 -36.5 93t-89.5 38q-46 0 -81.5 -23.5t-55 -63
t-19.5 -86.5q0 -36 16.5 -65t44 -45t59.5 -16q45 0 82 21.5z" />
    <glyph glyph-name="f_f_h.liga" unicode="ffh" horiz-adv-x="1297" 
d="M144 398h-90l19 112h91l5 28q14 90 71.5 138t147.5 48q32 0 56 -6l-22 -126q-7 3 -18 6t-26 3q-30 0 -52 -19t-28 -52l-3 -20h190l2 16q16 98 73 146t162 48h253l-33 -185l-24 -89h8q54 80 162 80q75 0 119 -44.5t44 -113.5q0 -40 -6 -65l-53 -303h-131l52 293q4 16 4 39
q0 30 -22.5 51t-58.5 21q-57 0 -92.5 -38.5t-49.5 -111.5l-46 -254h-130l105 600h-122q-33 0 -54.5 -19t-28.5 -56l-3 -15h121l-19 -112h-121l-70 -398h-131l70 398h-190l-70 -398h-131z" />
    <glyph glyph-name="f_f_i.liga" unicode="ffi" horiz-adv-x="961" 
d="M833 590.5q-25 24.5 -25 59.5t25 59.5t60 24.5t59.5 -24.5t24.5 -59.5t-24.5 -59.5t-59.5 -24.5t-60 24.5zM144 398h-90l19 112h91l5 28q14 90 71.5 138t147.5 48q32 0 56 -6l-22 -126q-7 3 -18 6t-26 3q-30 0 -52 -19t-28 -52l-3 -20h190l4 28q14 91 71.5 138.5
t148.5 47.5q30 0 56 -6l-22 -126q-24 9 -44 9q-31 0 -52.5 -19t-27.5 -52l-4 -20h321l-89 -510h-131l69 398h-189l-70 -398h-131l70 398h-190l-70 -398h-131z" />
    <glyph glyph-name="f_f_j.liga" unicode="ffj" horiz-adv-x="961" 
d="M833 590.5q-25 24.5 -25 59.5t25 59.5t60 24.5t59.5 -24.5t24.5 -59.5t-24.5 -59.5t-59.5 -24.5t-60 24.5zM611.5 -223.5q-20.5 2.5 -32.5 6.5l21 122q22 -11 51 -11q26 0 38.5 13.5t18.5 42.5l77 448h-189l-70 -398h-131l70 398h-190l-70 -398h-131l70 398h-90l19 112
h91l5 28q14 90 71.5 138t147.5 48q32 0 56 -6l-22 -126q-7 3 -18 6t-26 3q-30 0 -52 -19t-28 -52l-3 -20h190l4 28q14 91 71.5 138.5t148.5 47.5q30 0 56 -6l-22 -126q-24 9 -44 9q-31 0 -52.5 -19t-27.5 -52l-4 -20h321l-98 -564q-18 -99 -64 -135.5t-124 -36.5
q-18 0 -38.5 2.5z" />
    <glyph glyph-name="f_f_k.liga" unicode="ffk" horiz-adv-x="1257" 
d="M144 398h-90l19 112h91l5 28q14 90 71.5 138t147.5 48q32 0 56 -6l-22 -126q-7 3 -18 6t-26 3q-30 0 -52 -19t-28 -52l-3 -20h190l2 16q16 98 73 146t162 48h253l-68 -387h6l205 177h170l-2 -8l-231 -194l151 -300l-2 -8h-149l-104 222l-75 -63l-28 -159h-131l106 600
h-122q-33 0 -54.5 -19t-28.5 -56l-3 -15h121l-19 -112h-121l-70 -398h-131l70 398h-190l-70 -398h-131z" />
    <glyph glyph-name="f_f_l.liga" unicode="ffl" horiz-adv-x="957" 
d="M144 398h-90l19 112h91l5 28q14 90 71.5 138t147.5 48q32 0 56 -6l-22 -126q-7 3 -18 6t-26 3q-30 0 -52 -19t-28 -52l-3 -20h190l2 16q16 98 73 146t162 48h253l-127 -720h-131l106 600h-122q-33 0 -54.5 -19t-28.5 -56l-3 -15h121l-19 -112h-121l-70 -398h-131l70 398
h-190l-70 -398h-131z" />
    <glyph glyph-name="f_f_t.liga" unicode="fft" horiz-adv-x="1078" 
d="M783 27.5q-39 35.5 -39 103.5q0 27 5 52l37 215h-190l-70 -398h-131l70 398h-190l-70 -398h-131l70 398h-90l19 112h91l5 28q14 90 71.5 138t147.5 48q32 0 56 -6l-22 -126q-7 3 -18 6t-26 3q-30 0 -52 -19t-28 -52l-3 -20h190l4 28q14 91 71.5 138.5t148.5 47.5
q30 0 56 -6l-22 -126q-24 9 -44 9q-31 0 -52.5 -19t-27.5 -52l-4 -20h191l26 144h130l-26 -144h125l-19 -112h-125l-37 -209q-2 -11 -2 -24q0 -23 13 -36.5t37 -13.5q30 0 56 18l9 -122q-36 -19 -102 -19q-69 0 -108 35.5z" />
    <glyph glyph-name="f_h.liga" unicode="fh" horiz-adv-x="977" 
d="M144 398h-90l19 112h91l3 16q15 98 72 146t162 48h253l-33 -185l-23 -89h8q25 38 66 59t95 21q75 0 119 -44.5t44 -113.5q0 -39 -5 -65l-54 -303h-131l52 293q4 16 4 39q0 30 -22.5 51t-58.5 21q-57 0 -92.5 -38.5t-48.5 -111.5l-46 -254h-131l105 600h-121
q-34 0 -55.5 -19t-27.5 -56l-3 -15h121l-20 -112h-121l-70 -398h-130z" />
    <glyph glyph-name="f_i.liga" unicode="fi" horiz-adv-x="641" 
d="M513 590.5q-25 24.5 -25 59.5t25 59.5t60 24.5t59.5 -24.5t24.5 -59.5t-24.5 -59.5t-59.5 -24.5t-60 24.5zM144 398h-90l19 112h91l5 28q14 90 71.5 138t147.5 48q32 0 56 -6l-22 -126q-7 3 -18 6t-26 3q-30 0 -52 -19t-28 -52l-3 -20h320l-88 -510h-131l69 398h-190
l-70 -398h-131z" />
    <glyph glyph-name="f_j.liga" unicode="fj" horiz-adv-x="643" 
d="M514.5 585.5q-24.5 24.5 -24.5 59.5t24.5 59.5t59.5 24.5t59.5 -24.5t24.5 -59.5t-24.5 -59.5t-59.5 -24.5t-59.5 24.5zM258 -217l22 122q20 -11 51 -11q25 0 38 14t18 42l78 448h-190l-70 -398h-131l70 398h-90l19 112h91l5 28q14 90 71.5 138t147.5 48q32 0 56 -6
l-22 -126q-7 3 -18 6t-26 3q-30 0 -52 -19t-28 -52l-3 -20h320l-98 -564q-17 -99 -62.5 -135.5t-124.5 -36.5q-41 0 -72 9z" />
    <glyph glyph-name="f_k.liga" unicode="fk" horiz-adv-x="936" 
d="M144 398h-90l19 112h91l3 16q15 98 72 146t162 48h253l-69 -391h7l211 181h164l-1 -8l-231 -194l150 -300l-2 -8h-148l-105 222l-75 -63l-28 -159h-131l106 600h-121q-34 0 -55.5 -19t-27.5 -56l-3 -15h121l-20 -112h-121l-70 -398h-130z" />
    <glyph glyph-name="f_l.liga" unicode="fl" horiz-adv-x="636" 
d="M502 600h-121q-34 0 -55.5 -19t-27.5 -56l-3 -15h121l-20 -112h-121l-70 -398h-130l69 398h-90l19 112h91l3 16q16 98 72.5 146t161.5 48h253l-127 -720h-131z" />
    <glyph glyph-name="f_t.liga" unicode="ft" horiz-adv-x="742" 
d="M462 27.5q-39 35.5 -39 103.5q0 19 5 52l38 215h-191l-70 -398h-131l70 398h-90l19 112h91l5 28q14 90 71.5 138t147.5 48q32 0 56 -6l-22 -126q-7 3 -18 6t-26 3q-30 0 -52 -19t-28 -52l-3 -20h190l26 144h131l-26 -144h125l-20 -112h-125l-36 -209q-3 -16 -3 -24
q0 -23 14 -36.5t37 -13.5q21 0 36.5 5.5t34.5 16.5l-22 -128q-42 -17 -90 -17q-66 0 -105 35.5z" />
    <glyph glyph-name="r_f.liga" unicode="rf" horiz-adv-x="829" 
d="M110 510h122l-12 -68h8q28 39 69 60.5t95 21.5q25 0 47 -6l-23 -128q-20 10 -57 10q-63 0 -107.5 -39.5t-55.5 -104.5l-46 -256h-130zM571 398h-90l19 112h92l4 28q13 90 71.5 138t151.5 48q24 0 46 -4t33 -10l-23 -125q-30 16 -63 16t-57 -19t-29 -52l-3 -20h124
l-20 -112h-125l-70 -398h-131z" />
    <glyph glyph-name="r_f_f.liga" unicode="rff" horiz-adv-x="1146" 
d="M110 510h122l-12 -68h8q28 39 69 60.5t95 21.5q25 0 47 -6l-23 -128q-20 10 -57 10q-63 0 -107.5 -39.5t-55.5 -104.5l-46 -256h-130zM555 398h-90l19 112h91l5 28q14 90 71.5 138t147.5 48q32 0 56 -6l-22 -126q-7 3 -18 6t-26 3q-30 0 -52 -19t-28 -52l-3 -20h191l5 28
q14 91 72 138.5t150 47.5q24 0 46 -4t33 -10l-22 -125q-30 16 -64 16q-33 0 -56.5 -19t-29.5 -52l-3 -20h124l-20 -112h-124l-71 -398h-130l70 398h-191l-70 -398h-131z" />
    <glyph glyph-name="r_t.liga" unicode="rt" horiz-adv-x="850" 
d="M569.5 27.5q-38.5 35.5 -38.5 103.5q0 19 5 52l37 215h-88l20 112h89l25 144h131l-25 -144h124l-20 -112h-125l-37 -209q-2 -11 -2 -24q0 -23 14 -36.5t37 -13.5q20 0 35.5 5.5t35.5 16.5l-22 -128q-42 -17 -91 -17q-66 0 -104.5 35.5zM110 510h122l-12 -68h8
q28 39 69 60.5t95 21.5q25 0 47 -6l-23 -128q-20 10 -57 10q-63 0 -107.5 -39.5t-55.5 -104.5l-46 -256h-130z" />
    <glyph glyph-name="t_f.liga" unicode="tf" horiz-adv-x="736" 
d="M139 27.5q-39 35.5 -39 103.5q0 19 5 52l37 215h-88l19 112h89l26 144h131l-26 -144h193l5 28q14 91 72 138.5t151 47.5q24 0 46 -4t33 -10l-23 -125q-30 16 -63 16t-56.5 -19t-29.5 -52l-4 -20h124l-19 -112h-125l-70 -398h-131l70 398h-193l-37 -209q-2 -22 -2 -24
q0 -23 13.5 -36.5t37.5 -13.5q26 0 56 16l-23 -126q-32 -13 -71 -13q-69 0 -108 35.5z" />
    <glyph glyph-name="t_t.liga" unicode="tt" horiz-adv-x="753" 
d="M139 27.5q-39 35.5 -39 103.5q0 19 5 52l37 215h-88l19 112h89l26 144h131l-26 -144h188l26 144h130l-25 -144h124l-19 -112h-125l-37 -209q-2 -11 -2 -24q0 -23 13.5 -36.5t36.5 -13.5q30 0 56 18l9 -122q-36 -19 -102 -19q-69 0 -108 35.5t-39 103.5q0 27 5 52l37 215
h-188l-37 -209q-2 -22 -2 -24q0 -23 13.5 -36.5t37.5 -13.5q26 0 56 16l-23 -126q-32 -13 -71 -13q-69 0 -108 35.5z" />
    <glyph glyph-name="G_o_o_g_l_e_l_o_g_o_l_i_g_a_t_u_r_e.liga" unicode="Googlelogoligature" horiz-adv-x="3284" 
d="M253 39.5q-96 55.5 -152.5 149.5t-56.5 205t56.5 205t152.5 149.5t207 55.5q163 0 281 -113l-79 -79q-85 80 -202 80q-81 0 -148.5 -40t-106.5 -108.5t-39 -149.5t39 -149.5t106.5 -108.5t148.5 -40q72 0 121.5 23t85.5 59q49 49 61 141h-268v112h377q6 -30 6 -70
q0 -71 -23 -141t-74 -121q-110 -115 -286 -115q-111 0 -207 55.5zM2625 0v776h116v-776h-116zM1015 18.5q-61 34.5 -96.5 95t-35.5 134.5q0 75 35.5 135.5t96.5 94.5t133 34t133 -34t96.5 -94.5t35.5 -135.5q0 -74 -35.5 -134.5t-96.5 -95t-133 -34.5t-133 34.5zM1593 18.5
q-61 34.5 -96.5 95t-35.5 134.5q0 75 35.5 135.5t96.5 94.5t133 34t133 -34t96.5 -94.5t35.5 -135.5q0 -74 -35.5 -134.5t-96.5 -95t-133 -34.5t-133 34.5zM2146 -206q-60 47 -86 109l101 42q16 -38 50 -66t83 -28q66 0 103.5 40t37.5 115v38h-4q-21 -26 -57.5 -43
t-81.5 -17q-66 0 -124 35t-93.5 95.5t-35.5 132.5q0 73 35.5 133.5t94 96t123.5 35.5q45 0 81.5 -17t57.5 -42h4v43h110v-474q0 -138 -70.5 -206.5t-180.5 -68.5q-88 0 -148 47zM2925 19q-60 35 -94 95.5t-34 133.5q0 77 33.5 137t90.5 93.5t125 33.5q91 0 147 -53t79 -115
l12 -30l-353 -146q41 -80 128 -80q80 0 130 73l90 -60q-30 -45 -85 -81t-135 -36q-74 0 -134 35zM3111 394.5q-27 15.5 -61 15.5q-31 0 -64 -18t-54 -53t-20 -83l236 98q-10 25 -37 40.5zM1222 108.5q34 20.5 54.5 57t20.5 82.5t-20.5 82.5t-54.5 57t-74 20.5t-74 -20.5
t-54.5 -57t-20.5 -82.5t20.5 -82.5t54.5 -57t74 -20.5t74 20.5zM1800 108.5q34 20.5 54.5 57t20.5 82.5t-20.5 82.5t-54.5 57t-74 20.5t-74 -20.5t-54.5 -57t-20.5 -82.5t20.5 -82.5t54.5 -57t74 -20.5t74 20.5zM2373.5 108.5q32.5 20.5 51 57t18.5 81.5q0 46 -18.5 82.5
t-51 57.5t-71.5 21q-40 0 -73.5 -21t-53.5 -58t-20 -82t20 -81.5t53.5 -57t73.5 -20.5q39 0 71.5 20.5z" />
    <glyph glyph-name=".notdef" horiz-adv-x="570" 
d="M517 716v-716h-426v716h426zM453 60v596h-298v-596h298z" />
    <glyph glyph-name=".null" 
 />
    <glyph glyph-name="uni000D" unicode="&#xd;" 
 />
    <glyph glyph-name="uni0002" 
 />
    <glyph glyph-name="uni0009" unicode="&#x9;" 
 />
    <glyph glyph-name="space" unicode=" " horiz-adv-x="220" 
 />
    <glyph glyph-name="exclam" unicode="!" horiz-adv-x="286" 
d="M120 510l36 206h134l-36 -206l-59 -264h-110zM50.5 19.5q-25.5 25.5 -25.5 61.5t25.5 61t61.5 25t61 -25t25 -61t-25 -61.5t-61 -25.5t-61.5 25.5z" />
    <glyph glyph-name="quotedbl" unicode="&#x22;" horiz-adv-x="396" 
d="M134 716h119l-40 -226h-119zM306 716h119l-40 -226h-119z" />
    <glyph glyph-name="numbersign" unicode="#" horiz-adv-x="657" 
d="M151 192h-115l19 102h114l18 105h-116l18 102h116l32 183h111l-33 -183h112l33 183h111l-33 -183h116l-19 -102h-115l-18 -105h118l-19 -102h-116l-34 -192h-111l34 192h-112l-34 -192h-110zM393 292l19 109h-116l-19 -109h116z" />
    <glyph glyph-name="dollar" unicode="$" horiz-adv-x="559" 
d="M181 -11q-69 14 -119.5 64.5t-62.5 126.5l117 47q7 -40 29.5 -70.5t57.5 -42.5l33 190q-154 67 -154 195q0 54 28 97t78.5 70t117.5 32l15 86h89l-16 -90q62 -14 99.5 -53t52.5 -88l-118 -45q-9 24 -22 40t-33 24l-32 -180q80 -36 119 -80.5t39 -109.5q0 -93 -63 -149.5
t-166 -65.5l-15 -87h-89zM285 579q-36 -6 -57.5 -24.5t-21.5 -50.5q0 -22 12.5 -39.5t40.5 -33.5zM346.5 138q20.5 21 20.5 55q0 25 -11.5 41.5t-36.5 31.5l-27 -157q34 8 54.5 29z" />
    <glyph glyph-name="percent" unicode="%" horiz-adv-x="858" 
d="M129 39l561 662l67 -58l-561 -662zM129 400.5q-45 42.5 -45 107.5q0 51 25.5 95t71.5 70.5t105 26.5q68 0 112 -42.5t44 -108.5q0 -53 -26 -96.5t-71.5 -69t-99.5 -25.5q-71 0 -116 42.5zM310.5 480.5q22.5 24.5 22.5 59.5q0 27 -16.5 44.5t-41.5 17.5q-36 0 -59 -23.5
t-23 -59.5q0 -28 17.5 -45.5t43.5 -17.5q34 0 56.5 24.5zM489 26.5q-45 42.5 -45 107.5q0 51 26 95t72 70.5t105 26.5q68 0 112 -42.5t44 -108.5q0 -53 -26.5 -96.5t-71.5 -69t-99 -25.5q-72 0 -117 42.5zM671 106.5q23 24.5 23 59.5q0 27 -17 44.5t-42 17.5
q-36 0 -59 -23.5t-23 -59.5q0 -28 17.5 -45.5t43.5 -17.5q34 0 57 24.5z" />
    <glyph glyph-name="ampersand" unicode="&#x26;" horiz-adv-x="663" 
d="M151.5 11.5q-51.5 27.5 -82 77.5t-30.5 115q0 78 39 139t114 102q-25 52 -25 94q0 52 25 96.5t72 70.5t109 26q69 0 111 -33.5t61 -89.5l-117 -51q-6 25 -24.5 42t-46.5 17t-47.5 -18.5t-19.5 -45.5q0 -16 5.5 -30t16.5 -32l162 -262l79 106l82 -62l-104 -135l55 -89
l-107 -65l-36 57q-37 -30 -80 -43.5t-98 -13.5q-62 0 -113.5 27.5zM385 133l-137 219q-81 -49 -81 -129q0 -54 36 -87.5t87 -33.5q53 0 95 31z" />
    <glyph glyph-name="quotesingle" unicode="'" horiz-adv-x="224" 
d="M134 716h119l-40 -226h-119z" />
    <glyph glyph-name="parenleft" unicode="(" horiz-adv-x="359" 
d="M98.5 35.5q-32.5 97.5 -32.5 209.5q0 153 69 290t197 245l83 -74q-108 -108 -163 -218t-55 -240q0 -95 20.5 -169.5t60.5 -145.5l-97 -69q-50 74 -82.5 171.5z" />
    <glyph glyph-name="parenright" unicode=")" horiz-adv-x="359" 
d="M-31 -62q108 108 163 218t55 240q0 95 -20.5 169.5t-60.5 145.5l97 69q50 -74 82.5 -171t32.5 -210q0 -153 -69 -290t-197 -245z" />
    <glyph glyph-name="asterisk" unicode="*" horiz-adv-x="464" 
d="M100 406l90 99l-2 9l-94 36l36 88l101 -39l9 3l20 114h95l-20 -114l7 -3l104 35l27 -86l-117 -43l-5 -9l57 -97l-86 -52l-55 100h-9l-87 -100z" />
    <glyph glyph-name="plus" unicode="+" horiz-adv-x="583" 
d="M226 213h-170l20 116h170l30 170h116l-30 -170h171l-21 -116h-170l-30 -170h-116z" />
    <glyph glyph-name="comma" unicode="," horiz-adv-x="271" 
d="M62 4q-42 27 -42 77q0 36 25.5 61t60.5 25q36 0 61.5 -25t25.5 -61q0 -33 -33 -72l-118 -142l-56 45z" />
    <glyph glyph-name="hyphen" unicode="-" horiz-adv-x="451" 
d="M414 368l-20 -116h-339l20 116h339z" />
    <glyph glyph-name="period" unicode="." horiz-adv-x="269" 
d="M42 19.5q-25 25.5 -25 61.5t25 61t61 25t61.5 -25t25.5 -61t-25.5 -61.5t-61.5 -25.5t-61 25.5z" />
    <glyph glyph-name="slash" unicode="/" horiz-adv-x="346" 
d="M298 716h129l-343 -716h-129z" />
    <glyph glyph-name="zero" unicode="0" horiz-adv-x="675" 
d="M174.5 19q-55.5 35 -86.5 103t-31 163q0 110 44 205t122.5 152.5t177.5 57.5q73 0 128.5 -35t86.5 -102.5t31 -163.5q0 -115 -45 -210t-123.5 -150t-176.5 -55q-72 0 -127.5 35zM415.5 144.5q45.5 37.5 72 102.5t26.5 143q0 89 -33.5 138t-92.5 49q-56 0 -101.5 -40.5
t-71 -106t-25.5 -136.5q0 -88 34 -137.5t90 -49.5t101.5 37.5z" />
    <glyph glyph-name="one" unicode="1" horiz-adv-x="434" 
d="M259 504l-105 -66l-57 101l223 145h102l-120 -684h-131z" />
    <glyph glyph-name="two" unicode="2" horiz-adv-x="556" 
d="M31 119q244 206 293 251q47 41 66 66t19 61q0 35 -25 57.5t-64 22.5q-41 0 -69 -24.5t-41 -61.5l-117 51q28 69 87.5 113.5t154.5 44.5q60 0 108 -23t75 -64.5t27 -94.5q0 -67 -35.5 -119.5t-109.5 -115.5l-191 -162l2 -6h273l-20 -115h-453z" />
    <glyph glyph-name="three" unicode="3" horiz-adv-x="571" 
d="M100.5 31.5q-62.5 47.5 -76.5 132.5l128 48q6 -48 35.5 -74.5t76.5 -26.5q51 0 85 28t34 74q0 41 -28 62.5t-80 21.5h-59l21 119h54q53 0 87 24t34 69q0 31 -23.5 51t-59.5 20q-40 0 -66 -23t-40 -57l-114 52q26 65 85 106.5t152 41.5q58 0 104 -22.5t72 -61t26 -85.5
q0 -60 -32 -102t-84 -63v-8q37 -20 60.5 -56t23.5 -84q0 -70 -34.5 -123t-95 -82t-136.5 -29q-87 0 -149.5 47.5z" />
    <glyph glyph-name="four" unicode="4" horiz-adv-x="625" 
d="M338 126h-315l19 109l378 449h147l-77 -436h86l-22 -122h-85l-23 -126h-131zM359 248l42 241h-8l-200 -241h166z" />
    <glyph glyph-name="five" unicode="5" horiz-adv-x="586" 
d="M153.5 5q-48.5 21 -82 63t-41.5 101l125 46q6 -50 35 -80t75 -30q55 0 93.5 34.5t38.5 91.5q0 43 -26.5 71.5t-70.5 28.5q-30 0 -56.5 -12.5t-46.5 -33.5l-119 51l101 348h386l-20 -115h-277l-54 -160l7 -3q51 42 115 42q54 0 98 -24.5t69 -70.5t25 -108
q0 -72 -33.5 -131.5t-95.5 -94.5t-143 -35q-54 0 -102.5 21z" />
    <glyph glyph-name="six" unicode="6" horiz-adv-x="580" 
d="M143.5 13q-50.5 29 -78.5 78t-28 107q0 50 16 92t42.5 78.5t73.5 89.5l219 246l89 -70l-173 -197l5 -5q26 8 48 8q44 0 84.5 -25.5t65 -71.5t24.5 -104q0 -71 -34 -129.5t-96 -92t-143 -33.5q-64 0 -114.5 29zM364 139.5q37 35.5 37 90.5q0 44 -30 72.5t-77 28.5
q-55 0 -91.5 -37t-36.5 -92q0 -43 30.5 -70.5t74.5 -27.5q56 0 93 35.5z" />
    <glyph glyph-name="seven" unicode="7" horiz-adv-x="557" 
d="M44 54l368 501l-2 6h-311l24 123h463l-22 -129l-423 -571z" />
    <glyph glyph-name="eight" unicode="8" horiz-adv-x="588" 
d="M137.5 10q-51.5 26 -79 69t-27.5 94q0 62 37.5 111.5t101.5 74.5l1 8q-27 20 -43.5 50t-16.5 69q0 61 34.5 109.5t93 76.5t127.5 28q58 0 103 -22t70.5 -61t25.5 -87q0 -57 -29.5 -99.5t-79.5 -67.5l-1 -8q35 -21 56.5 -57t21.5 -85q0 -68 -36.5 -120t-99 -80.5
t-140.5 -28.5q-68 0 -119.5 26zM408 440q31 26 31 66q0 34 -24.5 55.5t-64.5 21.5q-49 0 -81 -25t-32 -69q0 -34 26 -54.5t66 -20.5q48 0 79 26zM362 135q39 30 39 82q0 36 -28 59t-73 23q-53 0 -93.5 -30.5t-40.5 -79.5q0 -39 28 -61.5t73 -22.5q56 0 95 30z" />
    <glyph glyph-name="nine" unicode="9" horiz-adv-x="579" 
d="M134 50l172 197l-4 5q-26 -8 -44 -8q-43 0 -84 25.5t-67.5 71.5t-26.5 104q0 71 34 129.5t96 92t143 33.5q64 0 114.5 -28.5t78.5 -78t28 -111.5q0 -48 -16 -89.5t-42.5 -77.5t-73.5 -89l-219 -246zM408.5 389.5q36.5 36.5 36.5 89.5q0 44 -30.5 72.5t-74.5 28.5
q-56 0 -93 -35.5t-37 -90.5q0 -44 30 -72.5t77 -28.5q55 0 91.5 36.5z" />
    <glyph glyph-name="colon" unicode=":" horiz-adv-x="286" 
d="M113.5 374.5q-25.5 25.5 -25.5 61.5t25.5 61t61.5 25t61.5 -25t25.5 -61t-25.5 -61.5t-61.5 -25.5t-61.5 25.5zM51.5 19.5q-25.5 25.5 -25.5 61.5t25.5 61t61.5 25t61 -25t25 -61t-25 -61.5t-61 -25.5t-61.5 25.5z" />
    <glyph glyph-name="semicolon" unicode=";" horiz-adv-x="288" 
d="M114.5 374.5q-25.5 25.5 -25.5 61.5t25.5 61t61.5 25t61 -25t25 -61t-25 -61.5t-61 -25.5t-61.5 25.5zM0 -82l75 92q-19 14 -30.5 31.5t-11.5 45.5q0 36 26 61.5t61 25.5q36 0 61.5 -25.5t25.5 -61.5q0 -18 -8 -34.5t-26 -37.5l-118 -141z" />
    <glyph glyph-name="less" unicode="&#x3c;" horiz-adv-x="531" 
d="M53 222l18 104l449 188l-23 -133l-277 -109l-2 -8l239 -110l-22 -126z" />
    <glyph glyph-name="equal" unicode="=" horiz-adv-x="595" 
d="M102 477h469l-20 -116h-469zM67 277h468l-20 -116h-469z" />
    <glyph glyph-name="greater" unicode="&#x3e;" horiz-adv-x="531" 
d="M44 161l276 109l2 8l-238 110l22 126l381 -194l-18 -104l-449 -188z" />
    <glyph glyph-name="question" unicode="?" horiz-adv-x="531" 
d="M201 279q10 52 33.5 85.5t87.5 77.5q34 24 54 47t20 51q0 31 -22 50t-58 19q-40 0 -67.5 -22.5t-40.5 -59.5l-107 48q22 66 83.5 111.5t146.5 45.5q57 0 102 -22t70 -61t25 -88q0 -55 -30.5 -97t-89.5 -89q-41 -33 -56 -54.5t-22 -57.5l-3 -17h-132zM168.5 19.5
q-25.5 25.5 -25.5 61.5t25.5 61t61.5 25t61.5 -25t25.5 -61t-25.5 -61.5t-61.5 -25.5t-61.5 25.5z" />
    <glyph glyph-name="at" unicode="@" horiz-adv-x="897" 
d="M223.5 -35q-79.5 47 -122.5 125.5t-43 171.5q0 126 59 223t162 151t232 54q94 0 173.5 -40t127.5 -114t48 -172q0 -72 -24 -133.5t-68 -98t-103 -36.5q-42 0 -70.5 19t-38.5 53q-24 -35 -61.5 -53.5t-80.5 -18.5q-47 0 -87 23t-64 64t-24 92q0 57 25.5 109.5t75.5 86
t119 33.5q38 0 65.5 -14t42.5 -38h8l7 38h98l-44 -246q-2 -12 -2 -18q0 -20 11 -31.5t30 -11.5q40 0 65 51.5t25 119.5q0 70 -32 125.5t-93.5 87.5t-144.5 32q-96 0 -172.5 -43t-120 -118.5t-43.5 -170.5q0 -73 34.5 -132t92.5 -92.5t125 -33.5q77 0 140 33l31 -87
q-78 -37 -176 -37q-103 0 -182.5 47zM514.5 227.5q32.5 34.5 32.5 88.5q0 41 -25 66t-64 25q-52 0 -84.5 -36.5t-32.5 -87.5q0 -42 27 -66t65 -24q49 0 81.5 34.5z" />
    <glyph glyph-name="A" unicode="A" horiz-adv-x="722" 
d="M360 716h158l143 -716h-144l-31 171h-273l-90 -171h-153zM463 295l-33 180l-11 86h-8l-40 -86l-94 -180h186z" />
    <glyph glyph-name="B" unicode="B" horiz-adv-x="646" 
d="M163 716h254q67 0 115.5 -24t73.5 -64t25 -88q0 -66 -36 -107t-90 -58l-1 -8q42 -19 68.5 -56t26.5 -89q0 -66 -36 -116.5t-98 -78t-139 -27.5h-290zM381 424q52 0 83.5 24t31.5 68q0 35 -23 57t-61 22h-137l-29 -171h135zM343 123q51 0 85.5 26.5t34.5 72.5
q0 39 -25 62.5t-71 23.5h-142l-33 -185h151z" />
    <glyph glyph-name="C" unicode="C" horiz-adv-x="750" 
d="M216.5 24.5q-74.5 40.5 -117 115.5t-42.5 176q0 112 55.5 207.5t154 152t221.5 56.5q87 0 153.5 -32.5t105.5 -90.5l-107 -88q-31 41 -71.5 62t-98.5 21q-75 0 -138.5 -37.5t-101.5 -102t-38 -141.5q0 -63 26 -111t72.5 -74t105.5 -26q62 0 111 25t98 74l86 -97
q-68 -69 -139.5 -99.5t-167.5 -30.5q-93 0 -167.5 40.5z" />
    <glyph glyph-name="D" unicode="D" horiz-adv-x="738" 
d="M163 716h227q104 0 177.5 -40t111 -110.5t37.5 -163.5q0 -109 -52 -201t-149.5 -146.5t-225.5 -54.5h-253zM295 128q84 0 149 33.5t100.5 92.5t35.5 133q0 98 -51 149.5t-153 51.5h-101l-82 -460h102z" />
    <glyph glyph-name="E" unicode="E" horiz-adv-x="593" 
d="M163 716h454l-23 -128h-319l-30 -166h288l-23 -128h-288l-29 -166h319l-22 -128h-454z" />
    <glyph glyph-name="F" unicode="F" horiz-adv-x="573" 
d="M163 716h454l-23 -128h-319l-31 -174h287l-22 -128h-288l-51 -286h-134z" />
    <glyph glyph-name="G" unicode="G" horiz-adv-x="826" 
d="M224.5 27q-78.5 43 -122.5 120.5t-44 176.5q0 108 54.5 202t153.5 150t225 56q88 0 157 -31t111 -86l-107 -91q-26 36 -71.5 58t-103.5 22q-78 0 -142.5 -34.5t-102.5 -97t-38 -142.5q0 -66 28.5 -115.5t77.5 -76t111 -26.5q101 0 167 57q46 40 69 109h-222l21 115h350
q1 -8 1 -21q0 -88 -32.5 -161.5t-89.5 -126.5q-54 -49 -123 -74.5t-148 -25.5q-101 0 -179.5 43z" />
    <glyph glyph-name="H" unicode="H" horiz-adv-x="734" 
d="M163 716h134l-51 -286h302l51 286h135l-127 -716h-135l54 302h-302l-54 -302h-134z" />
    <glyph glyph-name="I" unicode="I" horiz-adv-x="298" 
d="M163 716h134l-127 -716h-134z" />
    <glyph glyph-name="J" unicode="J" horiz-adv-x="569" 
d="M130 6q-47 22 -78 61.5t-37 89.5l129 50q5 -46 33 -70.5t70 -24.5q45 0 75.5 30t40.5 84l86 490h135l-87 -489q-22 -124 -92 -183.5t-173 -59.5q-55 0 -102 22z" />
    <glyph glyph-name="K" unicode="K" horiz-adv-x="683" 
d="M163 716h134l-53 -303h8l311 303h168l-2 -8l-312 -298l212 -402l-1 -8h-158l-161 307l-101 -97l-38 -210h-134z" />
    <glyph glyph-name="L" unicode="L" horiz-adv-x="550" 
d="M163 716h134l-104 -588h303l-22 -128h-438z" />
    <glyph glyph-name="M" unicode="M" horiz-adv-x="900" 
d="M163 716h170l102 -503h8l278 503h178l-127 -716h-133l63 353l29 119h-8l-263 -472h-107l-100 472h-8l-13 -119l-63 -353h-133z" />
    <glyph glyph-name="N" unicode="N" horiz-adv-x="742" 
d="M163 716h149l211 -480h8l16 138l61 342h133l-127 -716h-133l-222 507h-8l-16 -138l-66 -369h-133z" />
    <glyph glyph-name="O" unicode="O" horiz-adv-x="840" 
d="M222.5 25.5q-77.5 41.5 -121.5 117.5t-44 174q0 112 53.5 207t150.5 151.5t220 56.5q98 0 175 -43t120 -119t43 -171q0 -112 -53.5 -207t-150 -151.5t-219.5 -56.5q-96 0 -173.5 41.5zM547 150q63 38 99.5 103.5t36.5 143.5q0 60 -28 107t-77 73.5t-109 26.5
q-77 0 -140 -38t-99.5 -102.5t-36.5 -141.5q0 -61 28 -109t77 -74.5t109 -26.5q77 0 140 38z" />
    <glyph glyph-name="P" unicode="P" horiz-adv-x="614" 
d="M163 716h240q63 0 113 -26t78 -72.5t28 -107.5q0 -77 -35.5 -133t-98.5 -85t-144 -29h-127l-47 -263h-134zM361 391q57 0 91.5 28t34.5 81q0 40 -24 64t-67 24h-121l-35 -197h121z" />
    <glyph glyph-name="Q" unicode="Q" horiz-adv-x="840" 
d="M538 7q-71 -23 -142 -23q-96 0 -173.5 41.5t-121.5 117.5t-44 174q0 112 53.5 207t150.5 151.5t220 56.5q98 0 175 -43t120 -119t43 -171q0 -99 -42.5 -185.5t-119.5 -144.5l38 -76l-119 -61zM481 124l-58 119l119 62l56 -114q40 39 62.5 92.5t22.5 113.5t-28 107
t-77 73.5t-109 26.5q-77 0 -140 -38t-99.5 -102.5t-36.5 -141.5q0 -61 28 -109t77 -74.5t109 -26.5q38 0 74 12z" />
    <glyph glyph-name="R" unicode="R" horiz-adv-x="634" 
d="M163 716h235q67 0 119 -26.5t80.5 -72t28.5 -100.5q0 -59 -25 -107.5t-68 -80.5t-95 -44l-3 -7l140 -270l-1 -8h-147l-138 269h-71l-48 -269h-134zM365 393q56 0 90.5 28.5t34.5 82.5q0 39 -26.5 63t-70.5 24h-118l-35 -198h125z" />
    <glyph glyph-name="S" unicode="S" horiz-adv-x="590" 
d="M104 36.5q-66 52.5 -83 150.5l129 52q5 -56 38 -91.5t89 -35.5q52 0 87.5 26t35.5 69q0 37 -26 62t-89 50l-35 14q-65 25 -106 71.5t-41 118.5q0 59 33.5 107t91.5 75t129 27q68 0 115 -23.5t71.5 -58.5t31.5 -71l-124 -47q-8 35 -34.5 55.5t-72.5 20.5q-44 0 -75 -21.5
t-31 -58.5q0 -32 23.5 -54t76.5 -41l41 -15q76 -29 116.5 -76t40.5 -120q0 -69 -34.5 -123t-96.5 -84.5t-143 -30.5q-92 0 -158 52.5z" />
    <glyph glyph-name="T" unicode="T" horiz-adv-x="588" 
d="M285 588h-200l23 128h534l-22 -128h-200l-105 -588h-134z" />
    <glyph glyph-name="U" unicode="U" horiz-adv-x="694" 
d="M183.5 13.5q-54.5 29.5 -84.5 83t-30 123.5q0 36 9 84l72 412h135l-77 -435q-4 -25 -4 -47q0 -57 30.5 -89.5t91.5 -32.5q67 0 111 44.5t58 120.5l77 439h135l-79 -447q-25 -142 -107.5 -213.5t-212.5 -71.5q-70 0 -124.5 29.5z" />
    <glyph glyph-name="V" unicode="V" horiz-adv-x="684" 
d="M96 716h144l71 -432l10 -91h8l44 91l229 432h150l-387 -716h-142z" />
    <glyph glyph-name="W" unicode="W" horiz-adv-x="984" 
d="M99 716h150l26 -402l-1 -75h8l29 75l195 402h135l51 -402l3 -73h8l26 73l168 402h151l-308 -716h-146l-49 432l-2 77h-8l-30 -77l-201 -432h-139z" />
    <glyph glyph-name="X" unicode="X" horiz-adv-x="694" 
d="M278 377l-171 339h170l104 -231h8l182 231h174l-292 -351l184 -365h-165l-122 251h-8l-201 -251h-174z" />
    <glyph glyph-name="Y" unicode="Y" horiz-adv-x="642" 
d="M269 333l-173 383h156l102 -237h8l180 237h167l-305 -383l-59 -333h-135z" />
    <glyph glyph-name="Z" unicode="Z" horiz-adv-x="609" 
d="M18 136l436 452h-341l23 128h504l-24 -136l-433 -452h357l-23 -128h-523z" />
    <glyph glyph-name="bracketleft" unicode="[" horiz-adv-x="367" 
d="M176 792h248l-19 -108h-120l-122 -700h120l-20 -108h-247z" />
    <glyph glyph-name="backslash" unicode="\" horiz-adv-x="340" 
d="M81 716h123l91 -716h-123z" />
    <glyph glyph-name="bracketright" unicode="]" horiz-adv-x="366" 
d="M-10 -16h119l123 700h-120l19 108h248l-161 -916h-248z" />
    <glyph glyph-name="asciicircum" unicode="^" horiz-adv-x="515" 
d="M324 592h-8l-134 -182h-142l245 306h109l137 -306h-133z" />
    <glyph glyph-name="underscore" unicode="_" horiz-adv-x="499" 
d="M436 -100l-21 -116h-497l20 116h498z" />
    <glyph glyph-name="grave" unicode="`" horiz-adv-x="443" 
d="M161 724h148l19 -136h-102z" />
    <glyph glyph-name="a" unicode="a" horiz-adv-x="555" 
d="M97.5 5.5q-37.5 21.5 -59.5 58t-22 79.5q0 86 58.5 135t168.5 49q73 0 135 -25l5 22l2 22q0 32 -29.5 53t-72.5 21q-38 0 -69.5 -14.5t-53.5 -41.5l-87 64q39 48 98 73t128 25q99 0 156.5 -48t57.5 -126q0 -20 -5 -52l-54 -300h-129l9 52h-8q-51 -68 -145 -68
q-46 0 -83.5 21.5zM317 120.5q37 34.5 45 87.5q-28 12 -53 18t-60 6q-49 0 -74.5 -20.5t-25.5 -58.5q0 -31 21.5 -49t55.5 -18q54 0 91 34.5z" />
    <glyph glyph-name="b" unicode="b" horiz-adv-x="630" 
d="M225 6q-42 22 -64 55h-8l-11 -61h-122l126 716h131l-35 -196l-21 -72h8q20 31 61 54.5t95 23.5q59 0 107.5 -30t76.5 -84.5t28 -123.5q0 -87 -36.5 -156.5t-99 -108.5t-138.5 -39q-56 0 -98 22zM385.5 126.5q37.5 21.5 59 59.5t21.5 87q0 36 -17 66t-46 47.5t-63 17.5
q-47 0 -82.5 -23.5t-55 -63t-19.5 -86.5q0 -36 17 -65t44.5 -45t59.5 -16q44 0 81.5 21.5z" />
    <glyph glyph-name="c" unicode="c" horiz-adv-x="572" 
d="M148.5 15.5q-55.5 31.5 -86.5 86.5t-31 122q0 79 37.5 148.5t107.5 111.5t163 42q82 0 139.5 -39.5t78.5 -104.5l-122 -48q-13 33 -43.5 51.5t-70.5 18.5q-44 0 -80.5 -21.5t-57 -59.5t-20.5 -85q0 -59 35 -96t87 -37q46 0 79 19.5t51 54.5l111 -54q-38 -69 -104 -105
t-148 -36q-70 0 -125.5 31.5z" />
    <glyph glyph-name="d" unicode="d" horiz-adv-x="630" 
d="M130.5 14.5q-47.5 30.5 -74 84.5t-26.5 120q0 86 36.5 156t102 110.5t149.5 40.5q53 0 95.5 -23.5t57.5 -54.5h8l3 72l35 196h130l-126 -716h-123l11 61h-8q-24 -35 -65 -56t-99 -21q-59 0 -106.5 30.5zM364.5 126q36.5 21 59 61t22.5 94t-35.5 88.5t-88.5 34.5
q-47 0 -83.5 -22.5t-57 -62t-20.5 -88.5q0 -56 36 -91t89 -35q42 0 78.5 21z" />
    <glyph glyph-name="e" unicode="e" horiz-adv-x="588" 
d="M146 16.5q-54 32.5 -83.5 88t-29.5 121.5q0 80 38 148.5t106.5 110t154.5 41.5q69 0 120 -30t78 -79t27 -106q0 -45 -13 -87h-383l-1 -11q1 -53 36.5 -83t85.5 -30q55 0 89 18.5t57 57.5l99 -52q-44 -70 -104 -105t-152 -35q-71 0 -125 32.5zM436 317v4q0 40 -32 69
t-84 29q-51 0 -89.5 -30t-53.5 -72h259z" />
    <glyph glyph-name="f" unicode="f" horiz-adv-x="414" 
d="M144 398h-90l19 112h92l4 28q13 90 71.5 138t151.5 48q24 0 46 -4t33 -10l-23 -125q-30 16 -63 16t-57 -19t-29 -52l-3 -20h124l-20 -112h-125l-70 -398h-131z" />
    <glyph glyph-name="g" unicode="g" horiz-adv-x="624" 
d="M71 -189.5q-59 42.5 -73 105.5l128 48q10 -38 38.5 -59t71.5 -21q136 0 160 139l8 47h-8q-25 -36 -62 -53t-92 -17q-59 0 -106 29t-74 80t-27 115q0 81 34 150t98 110.5t148 41.5q51 0 90.5 -18t58.5 -52h8l10 54h125l-86 -486q-23 -128 -95.5 -192t-203.5 -64
q-92 0 -151 42.5zM361.5 140.5q36.5 21.5 58 59.5t21.5 84q0 56 -34 89.5t-83 33.5q-44 0 -80 -21.5t-57 -60.5t-21 -88q0 -56 33 -87t82 -31q44 0 80.5 21.5z" />
    <glyph glyph-name="h" unicode="h" horiz-adv-x="600" 
d="M146 716h131l-33 -181l-23 -89h8q25 38 66 59t95 21q76 0 120 -44.5t44 -113.5q0 -33 -6 -65l-54 -303h-131l53 293q4 24 4 39q0 30 -22.5 51t-59.5 21q-57 0 -92.5 -38.5t-48.5 -111.5l-46 -254h-131z" />
    <glyph glyph-name="i" unicode="i" horiz-adv-x="276" 
d="M148 591q-25 25 -25 60t25 59.5t60 24.5t59.5 -24.5t24.5 -59.5t-24.5 -60t-59.5 -25t-60 25zM117 510h131l-89 -510h-131z" />
    <glyph glyph-name="j" unicode="j" horiz-adv-x="276" 
d="M148 591q-25 25 -25 60t25 59.5t60 24.5t59.5 -24.5t24.5 -59.5t-24.5 -60t-59.5 -25t-60 25zM-77.5 -223.5q-20.5 2.5 -32.5 6.5l22 122q20 -11 50 -11q26 0 39 14t18 42l99 560h130l-99 -564q-18 -99 -64 -135.5t-124 -36.5q-18 0 -38.5 2.5z" />
    <glyph glyph-name="k" unicode="k" horiz-adv-x="561" 
d="M147 716h131l-67 -385h7l206 179h169l-2 -8l-231 -194l150 -300l-1 -8h-149l-105 222l-75 -63l-28 -159h-131z" />
    <glyph glyph-name="l" unicode="l" horiz-adv-x="260" 
d="M146 716h131l-126 -716h-131z" />
    <glyph glyph-name="m" unicode="m" horiz-adv-x="912" 
d="M232 510l-11 -64h8q29 40 67 60t92 20t89.5 -24.5t49.5 -65.5q28 41 73 65.5t109 24.5q74 0 116.5 -42t42.5 -109q0 -23 -6 -53l-57 -322h-130l53 304q3 18 3 32q0 32 -19 50t-54 18q-51 0 -87 -41.5t-49 -113.5l-44 -249h-131l54 304q3 15 3 32q0 32 -21 50t-56 18
q-50 0 -84.5 -41.5t-47.5 -113.5l-44 -249h-131l90 510h122z" />
    <glyph glyph-name="n" unicode="n" horiz-adv-x="600" 
d="M229 446q26 38 67.5 59t95.5 21q78 0 120 -44t42 -112q0 -34 -5 -62l-55 -308h-131l52 293q4 22 4 38q0 31 -22 52t-58 21q-58 0 -94 -38.5t-48 -105.5l-46 -260h-131l90 510h122l-11 -64h8z" />
    <glyph glyph-name="o" unicode="o" horiz-adv-x="609" 
d="M146.5 15.5q-54.5 31.5 -84.5 85.5t-30 121q0 85 38 154.5t107 109.5t159 40q71 0 125.5 -31.5t84.5 -85.5t30 -121q0 -85 -38 -154.5t-107 -109.5t-159 -40q-71 0 -125.5 31.5zM366 127q36 22 57 61t21 86q0 57 -33 93.5t-90 36.5q-43 0 -79 -22t-57 -60.5t-21 -85.5
q0 -58 33 -94.5t90 -36.5q43 0 79 22z" />
    <glyph glyph-name="p" unicode="p" horiz-adv-x="630" 
d="M109 510h123l-11 -62h8q24 36 64.5 57t99.5 21t106 -30.5t74 -84.5t27 -120q0 -86 -36.5 -156t-102 -110.5t-149.5 -40.5q-53 0 -95.5 23t-57.5 54h-8l-3 -72l-36 -205h-131zM391.5 127.5q36.5 22.5 56.5 62.5t20 89q0 56 -35.5 90.5t-88.5 34.5q-42 0 -79 -21t-59 -60.5
t-22 -93.5t35.5 -89t88.5 -35q47 0 83.5 22.5z" />
    <glyph glyph-name="q" unicode="q" horiz-adv-x="630" 
d="M387 -11l21 72h-8q-21 -32 -61 -54.5t-96 -22.5q-59 0 -107.5 30t-77 84.5t-28.5 122.5q0 87 37 156.5t100 109t139 39.5q56 0 98 -22t64 -56h8l10 62h123l-127 -726h-131zM371.5 128.5q35.5 23.5 54.5 63.5t19 87q0 55 -36 90t-86 35q-44 0 -80.5 -21t-58.5 -59t-22 -87
q0 -55 36.5 -93.5t90.5 -38.5q47 0 82.5 23.5z" />
    <glyph glyph-name="r" unicode="r" horiz-adv-x="427" 
d="M110 510h122l-11 -62h8q23 36 66 56.5t95 20.5q37 0 61 -11l-23 -134q-15 10 -36.5 16t-42.5 6q-59 0 -100.5 -42t-53.5 -106l-44 -254h-131z" />
    <glyph glyph-name="s" unicode="s" horiz-adv-x="498" 
d="M81.5 23.5q-58.5 39.5 -75.5 100.5l121 49q8 -36 38.5 -55t71.5 -19q34 0 57.5 14.5t23.5 39.5q0 44 -70 60l-50 12q-57 13 -97 50t-40 92q0 72 59.5 115.5t158.5 43.5q75 0 125.5 -30t73.5 -88l-120 -44q-9 27 -33.5 41.5t-55.5 14.5q-37 0 -57.5 -13.5t-20.5 -32.5
q0 -16 16.5 -29.5t41.5 -19.5l73 -18q60 -15 94.5 -54t34.5 -89q0 -54 -27.5 -94.5t-78 -63t-118.5 -22.5q-87 0 -145.5 39.5z" />
    <glyph glyph-name="t" unicode="t" horiz-adv-x="418" 
d="M137.5 27.5q-38.5 35.5 -38.5 103.5q0 19 5 52l37 215h-88l20 112h89l25 144h131l-25 -144h124l-20 -112h-125l-37 -209q-2 -11 -2 -24q0 -23 14 -36.5t37 -13.5q20 0 35.5 5.5t35.5 16.5l-22 -128q-42 -17 -91 -17q-66 0 -104.5 35.5z" />
    <glyph glyph-name="u" unicode="u" horiz-adv-x="600" 
d="M371 64q-26 -39 -67.5 -59.5t-95.5 -20.5q-78 0 -120 44t-42 112q0 32 5 61l55 309h131l-52 -293q-4 -16 -4 -38q0 -32 22 -53t58 -21q58 0 94 38.5t48 106.5l46 260h131l-90 -510h-122l11 64h-8z" />
    <glyph glyph-name="v" unicode="v" horiz-adv-x="578" 
d="M53 510h148l66 -332h8l189 332h151l-308 -510h-131z" />
    <glyph glyph-name="w" unicode="w" horiz-adv-x="834" 
d="M53 510h140l33 -331h7l160 331h138l46 -331h7l142 331h146l-248 -510h-144l-45 330h-7l-161 -330h-140z" />
    <glyph glyph-name="x" unicode="x" horiz-adv-x="536" 
d="M189 266l-130 244h154l69 -147h7l116 147h161l-220 -253l131 -257h-152l-70 152h-7l-120 -152h-161z" />
    <glyph glyph-name="y" unicode="y" horiz-adv-x="579" 
d="M180 29l-127 481h146l77 -317h7l185 317h148l-444 -726h-143z" />
    <glyph glyph-name="z" unicode="z" horiz-adv-x="505" 
d="M325 399h-254l19 111h419l-19 -107l-314 -292h266l-20 -111h-429l19 107z" />
    <glyph glyph-name="braceleft" unicode="{" horiz-adv-x="337" 
d="M92.5 -85q-42.5 39 -42.5 104q0 16 3 40l27 154q1 7 1 17q0 49 -53 49l19 110q28 0 49 16.5t27 49.5l29 163q14 82 66.5 128t139.5 46h41l-19 -108h-16q-36 0 -58 -21t-29 -59l-26 -146q-9 -52 -30 -80.5t-61 -39.5l-2 -8q54 -16 54 -77q0 -22 -4 -43l-26 -146
q-2 -18 -2 -23q0 -28 16.5 -42.5t44.5 -14.5h16l-19 -108h-34q-69 0 -111.5 39z" />
    <glyph glyph-name="bar" unicode="|" horiz-adv-x="284" 
d="M176 792h120l-160 -912h-120z" />
    <glyph glyph-name="braceright" unicode="}" horiz-adv-x="337" 
d="M-15 -16h17q36 0 58 21t29 59l25 146q9 52 30.5 80.5t61.5 39.5l2 8q-55 16 -55 77q0 16 5 43l26 146q2 18 2 23q0 28 -16.5 42.5t-44.5 14.5h-17l19 108h35q68 0 111 -39t43 -104q0 -19 -4 -40l-26 -154q-2 -14 -2 -17q0 -24 14 -36.5t40 -12.5l-20 -110
q-27 0 -48 -16.5t-27 -49.5l-29 -163q-14 -81 -66.5 -127.5t-139.5 -46.5h-42z" />
    <glyph glyph-name="asciitilde" unicode="~" horiz-adv-x="565" 
d="M324.5 231.5q-24.5 8.5 -56.5 25.5q-25 13 -41 19t-34 6q-22 0 -36.5 -12t-20.5 -31h-106q11 73 53.5 113.5t118.5 40.5q33 0 57 -8.5t57 -25.5q25 -13 40.5 -19t33.5 -6q22 0 36.5 12t20.5 31h107q-13 -73 -55 -113.5t-118 -40.5q-32 0 -56.5 8.5z" />
    <glyph glyph-name="uni00A0" unicode="&#xa0;" horiz-adv-x="220" 
 />
    <glyph glyph-name="exclamdown" unicode="&#xa1;" horiz-adv-x="286" 
d="M115.5 377.5q-25.5 25.5 -25.5 61.5t25.5 61.5t61.5 25.5t61 -25.5t25 -61.5t-25 -61.5t-61 -25.5t-61.5 25.5zM30 -10l63 279h109l-37 -279l-36 -206h-135z" />
    <glyph glyph-name="cent" unicode="&#xa2;" horiz-adv-x="553" 
d="M219 88q-74 18 -121 77.5t-47 142.5q0 75 32.5 138t91 103t134.5 49l15 86h90l-16 -87q59 -10 98.5 -45.5t58.5 -87.5l-114 -46q-6 23 -22.5 41.5t-40.5 25.5l-51 -289q57 8 97 74l95 -45q-39 -65 -89.5 -99.5t-121.5 -40.5l-15 -85h-90zM289 486q-55 -15 -86 -60.5
t-31 -103.5q0 -43 17.5 -74.5t49.5 -45.5z" />
    <glyph glyph-name="sterling" unicode="&#xa3;" horiz-adv-x="549" 
d="M17 106q45 18 78.5 54t38.5 81v1h-90l17 100h54q-3 8 -12.5 35.5t-14.5 54t-5 52.5q0 61 30 110t84.5 77.5t126.5 28.5q85 0 133 -42.5t62 -105.5l-123 -47q-13 79 -88 79q-43 0 -72 -30t-29 -75q0 -26 6.5 -50t19.5 -59l10 -28h135l-17 -100h-106q-10 -67 -73 -119l4 -7
h148q32 0 51 14.5t32 44.5l94 -44q-26 -66 -71 -98.5t-120 -32.5h-321z" />
    <glyph glyph-name="currency" unicode="&#xa4;" horiz-adv-x="609" 
d="M73 150l58 57q-34 55 -34 118q0 65 34 118l-58 58l63 64l59 -57q55 36 122 36t122 -36l59 57l63 -64l-57 -58q33 -52 33 -118q0 -65 -33 -118l57 -57l-63 -65l-59 57q-55 -36 -122 -36t-122 36l-59 -57zM396.5 242.5q32.5 33.5 32.5 82.5t-32.5 82.5t-79.5 33.5
t-79.5 -33.5t-32.5 -82.5t32.5 -82.5t79.5 -33.5t79.5 33.5z" />
    <glyph glyph-name="yen" unicode="&#xa5;" horiz-adv-x="639" 
d="M232 133h-165l20 116h166l11 63h-166l21 116h91l-119 256h157l80 -189l18 -67h8l40 67l142 189h163l-206 -256h88l-20 -116h-162l-11 -63h162l-21 -116h-162l-23 -133h-135z" />
    <glyph glyph-name="brokenbar" unicode="&#xa6;" horiz-adv-x="284" 
d="M170 756h120l-67 -380h-120zM88 292h120l-72 -412h-120z" />
    <glyph glyph-name="section" unicode="&#xa7;" horiz-adv-x="576" 
d="M109 -206.5q-51 25.5 -81 70.5t-33 100l117 43q7 -54 38.5 -86.5t83.5 -32.5q45 0 76.5 23t31.5 62q0 38 -26 59.5t-89 43.5l-30 11q-60 21 -97.5 65t-37.5 99q0 51 28 93t76 69q-52 52 -52 119q0 58 32.5 103.5t88 71t121.5 25.5q87 0 137 -42.5t68 -109.5l-128 -47
q-7 34 -29.5 56.5t-64.5 22.5q-37 0 -64.5 -18.5t-27.5 -48.5t23 -50t79 -40l29 -10q150 -54 150 -178q0 -54 -26 -95.5t-68 -70.5q40 -45 40 -113q0 -59 -34 -110t-91.5 -80.5t-124.5 -29.5q-64 0 -115 25.5zM395 242q0 38 -25.5 63.5t-83.5 44.5l-26 9q-31 -13 -51 -35
t-20 -49q0 -31 24 -53.5t71 -39.5q38 -13 61 -23q50 35 50 83z" />
    <glyph glyph-name="dieresis" unicode="&#xa8;" horiz-adv-x="452" 
d="M131 608.5q-21 21.5 -21 50.5q0 30 21 51t51 21t50.5 -21t20.5 -51t-20.5 -51t-50.5 -21t-51 21.5zM322 608.5q-21 21.5 -21 50.5q0 30 21 51t50 21q31 0 51.5 -21t20.5 -51t-21 -51t-51 -21q-29 0 -50 21.5z" />
    <glyph glyph-name="copyright" unicode="&#xa9;" horiz-adv-x="532" 
d="M194 303q-53 31 -84 84t-31 115t31 115t84 84t115 31t115 -31t84 -84t31 -115t-31 -115t-84 -84t-115 -31t-115 31zM400.5 344.5q41.5 24.5 66 66.5t24.5 91q0 50 -24.5 91.5t-66 66t-91.5 24.5q-49 0 -91 -24.5t-66.5 -66t-24.5 -91.5q0 -49 25 -90.5t66.5 -66.5
t90.5 -25q50 0 91.5 24.5zM228.5 418q-34.5 35 -34.5 84q0 50 34 84.5t85 34.5q28 0 48 -10t39 -29l-32 -29q-12 13 -23.5 18.5t-31.5 5.5q-29 0 -51 -21.5t-22 -53.5q0 -31 22 -53t51 -22q36 0 60 31l34 -27q-36 -48 -94 -48q-50 0 -84.5 35z" />
    <glyph glyph-name="ordfeminine" unicode="&#xaa;" horiz-adv-x="495" 
d="M109.5 309.5q-41.5 37.5 -41.5 94.5q0 74 56.5 118t143.5 44q72 0 122 -25l2 13l1 14q0 32 -23.5 51t-62.5 19q-31 0 -59 -13t-46 -37l-78 54q30 43 82 66.5t114 23.5q88 0 139 -41t51 -112q0 -17 -3 -35l-46 -258h-117l9 46h-8q-25 -27 -58 -43.5t-72 -16.5
q-64 0 -105.5 37.5zM333.5 392.5q34.5 29.5 41.5 67.5q-41 22 -96 22q-38 0 -64.5 -16.5t-26.5 -50.5q0 -25 19.5 -38.5t49.5 -13.5q42 0 76.5 29.5z" />
    <glyph glyph-name="guillemotleft" unicode="&#xab;" horiz-adv-x="610" 
d="M215 41l-172 230l253 230l66 -74l-180 -163l116 -157zM438 41l-172 230l253 230l66 -74l-180 -163l116 -157z" />
    <glyph glyph-name="logicalnot" unicode="&#xac;" horiz-adv-x="612" 
d="M414 290h-351l20 114h466l-53 -299h-114z" />
    <glyph glyph-name="uni00AD" unicode="&#xad;" horiz-adv-x="451" 
d="M414 368l-20 -116h-339l20 116h339z" />
    <glyph glyph-name="registered" unicode="&#xae;" horiz-adv-x="532" 
d="M194 303q-53 31 -84 84t-31 115t31 115t84 84t115 31t115 -31t84 -84t31 -115t-31 -115t-84 -84t-115 -31t-115 31zM400.5 344.5q41.5 24.5 66 66.5t24.5 91q0 50 -24.5 91.5t-66 66t-91.5 24.5q-49 0 -91 -24.5t-66.5 -66t-24.5 -91.5q0 -49 25 -90.5t66.5 -66.5
t90.5 -25q50 0 91.5 24.5zM232 615h96q29 0 51 -21t22 -51q0 -23 -14.5 -41.5t-35.5 -24.5l-2 -2l60 -84v-2h-52l-55 84h-24v-84h-46v226zM324 515q13 0 22 8t9 20q0 11 -8.5 19.5t-21.5 8.5h-47v-56h46z" />
    <glyph glyph-name="macron" unicode="&#xaf;" horiz-adv-x="416" 
d="M122 709h296l-18 -100h-296z" />
    <glyph glyph-name="degree" unicode="&#xb0;" horiz-adv-x="325" 
d="M121 474q-35 32 -35 82q0 63 41.5 103.5t104.5 40.5q49 0 84 -32t35 -82q0 -63 -41.5 -103.5t-104.5 -40.5q-49 0 -84 32zM253.5 536q16.5 17 16.5 41q0 20 -12.5 33t-33.5 13q-24 0 -40.5 -16.5t-16.5 -41.5q0 -21 13 -33.5t33 -12.5q24 0 40.5 17z" />
    <glyph glyph-name="plusminus" unicode="&#xb1;" horiz-adv-x="569" 
d="M237 316h-170l19 108h170l25 141h116l-25 -141h171l-19 -108h-171l-25 -141h-116zM31 116h457l-21 -116h-455z" />
    <glyph glyph-name="uni00B2" unicode="&#xb2;" horiz-adv-x="317" 
d="M57 413l151 129q22 18 35.5 33.5t13.5 33.5q0 16 -11 26t-28 10q-39 0 -54 -48l-75 29q14 46 51.5 72t90.5 26q55 0 87 -28.5t32 -72.5q0 -35 -17.5 -60.5t-58.5 -59.5l-87 -74h134l-14 -79h-261z" />
    <glyph glyph-name="uni00B3" unicode="&#xb3;" horiz-adv-x="334" 
d="M102.5 368.5q-36.5 26.5 -45.5 74.5l78 28q14 -52 60 -52q22 0 39 13t17 34q0 19 -14.5 29t-39.5 10h-35l13 70h34q24 0 40.5 10.5t16.5 29.5q0 14 -11.5 23t-26.5 9q-21 0 -34.5 -10.5t-20.5 -25.5l-73 32q18 37 54 59t87 22q50 0 82.5 -26.5t32.5 -66.5
q0 -30 -16.5 -52t-44.5 -36q21 -11 33 -30t12 -43q0 -56 -43 -92t-109 -36q-49 0 -85.5 26.5z" />
    <glyph glyph-name="acute" unicode="&#xb4;" horiz-adv-x="443" 
d="M256 724h154l-114 -136h-106z" />
    <glyph glyph-name="mu" unicode="&#xb5;" horiz-adv-x="600" 
d="M106 510h131l-54 -301q-2 -9 -2 -30q0 -33 22 -53.5t58 -20.5q58 0 94 39t48 106l46 260h131l-90 -510h-122l11 64h-8q-27 -40 -62.5 -60t-87.5 -20q-20 0 -41.5 7t-33.5 17h-8l-2 -65l-28 -159h-130z" />
    <glyph glyph-name="paragraph" unicode="&#xb6;" horiz-adv-x="643" 
d="M273 296h-25q-60 0 -111.5 25.5t-82 73.5t-30.5 111t30.5 111t82 73.5t111.5 25.5h315v-932h-110v825h-70v-825h-110v512z" />
    <glyph glyph-name="periodcentered" unicode="&#xb7;" horiz-adv-x="213" 
d="M56.5 262.5q-25.5 25.5 -25.5 61.5t25.5 61.5t61.5 25.5t61.5 -25.5t25.5 -61.5t-25.5 -61.5t-61.5 -25.5t-61.5 25.5z" />
    <glyph glyph-name="cedilla" unicode="&#xb8;" horiz-adv-x="411" 
d="M32 -218q-28 19 -35 47l68 27q2 -12 11.5 -20t22.5 -8q15 0 25.5 9.5t10.5 25.5q0 14 -8.5 22.5t-21.5 8.5q-14 0 -28 -14l-55 28l51 92h68l-29 -47q7 1 18 1q35 0 57 -24.5t22 -61.5q0 -48 -32.5 -76.5t-82.5 -28.5q-34 0 -62 19z" />
    <glyph glyph-name="uni00B9" unicode="&#xb9;" horiz-adv-x="272" 
d="M191 601l-53 -38l-41 65l122 88h81l-65 -366h-89z" />
    <glyph glyph-name="ordmasculine" unicode="&#xba;" horiz-adv-x="535" 
d="M132.5 326q-56.5 54 -56.5 146q0 68 34 127.5t95 96t138 36.5q91 0 147 -53.5t56 -145.5q0 -70 -35 -130t-95.5 -95.5t-135.5 -35.5q-91 0 -147.5 54zM357.5 399.5q31.5 18.5 50.5 51t19 71.5q0 45 -27 73t-69 28q-36 0 -67.5 -19t-50 -51.5t-18.5 -70.5q0 -45 26.5 -73
t68.5 -28q36 0 67.5 18.5z" />
    <glyph glyph-name="guillemotright" unicode="&#xbb;" horiz-adv-x="610" 
d="M179 501l172 -230l-253 -230l-66 74l180 163l-116 157zM402 501l172 -230l-253 -230l-66 74l180 163l-116 157z" />
    <glyph glyph-name="onequarter" unicode="&#xbc;" horiz-adv-x="759" 
d="M215 601l-53 -38l-41 65l122 88h81l-65 -366h-89zM672 731l71 -54l-587 -693l-72 55zM547 65h-173l12 64l212 237h88l-40 -227h47l-13 -74h-47l-12 -65h-86zM560 139l18 104h-8l-90 -104h80z" />
    <glyph glyph-name="onehalf" unicode="&#xbd;" horiz-adv-x="808" 
d="M215 601l-53 -38l-41 65l122 88h81l-65 -366h-89zM667 731l71 -54l-587 -693l-72 55zM468 63q137 117 150 129q22 17 36 33t14 34q0 16 -11 26t-29 10q-39 0 -53 -48l-76 29q13 46 51.5 72t91.5 26q55 0 87 -28.5t32 -72.5q0 -35 -17.5 -60t-58.5 -60l-87 -74h134
l-15 -79h-261z" />
    <glyph glyph-name="threequarters" unicode="&#xbe;" horiz-adv-x="842" 
d="M133.5 368.5q-36.5 26.5 -45.5 74.5l78 28q14 -52 60 -52q22 0 39 13t17 34q0 19 -14.5 29t-39.5 10h-35l13 70h34q24 0 40.5 10.5t16.5 29.5q0 14 -11.5 23t-26.5 9q-21 0 -34.5 -10.5t-20.5 -25.5l-73 32q18 37 54 59t87 22q50 0 82.5 -26.5t32.5 -66.5
q0 -30 -16.5 -52t-44.5 -36q21 -11 33 -30t12 -43q0 -56 -43 -92t-109 -36q-49 0 -85.5 26.5zM735 731l71 -54l-587 -693l-72 55zM625 65h-173l12 64l212 237h88l-40 -227h47l-13 -74h-47l-12 -65h-86zM638 139l18 104h-8l-90 -104h80z" />
    <glyph glyph-name="questiondown" unicode="&#xbf;" horiz-adv-x="531" 
d="M241 377.5q-25 25.5 -25 61.5t25 61.5t61 25.5t61.5 -25.5t25.5 -61.5t-25.5 -61.5t-61.5 -25.5t-61 25.5zM96 -210q-45 22 -70 61t-25 88q0 55 30.5 97t89.5 89q40 32 55.5 53.5t22.5 58.5l7 32h131l-9 -48q-9 -51 -33 -85.5t-88 -77.5q-34 -24 -54 -47t-20 -51
q0 -31 22 -50t58 -19q40 0 67.5 22.5t40.5 59.5l107 -48q-22 -66 -83.5 -111.5t-146.5 -45.5q-57 0 -102 22z" />
    <glyph glyph-name="Agrave" unicode="&#xc0;" horiz-adv-x="722" 
d="M360 716h158l143 -716h-144l-31 171h-273l-90 -171h-153zM463 295l-33 180l-11 86h-8l-40 -86l-94 -180h186zM323 908h148l19 -136h-102z" />
    <glyph glyph-name="Aacute" unicode="&#xc1;" horiz-adv-x="722" 
d="M360 716h158l143 -716h-144l-31 171h-273l-90 -171h-153zM463 295l-33 180l-11 86h-8l-40 -86l-94 -180h186zM455 908h154l-114 -136h-106z" />
    <glyph glyph-name="Acircumflex" unicode="&#xc2;" horiz-adv-x="722" 
d="M360 716h158l143 -716h-144l-31 171h-273l-90 -171h-153zM463 295l-33 180l-11 86h-8l-40 -86l-94 -180h186zM272 786l132 126h119l91 -126l-1 -8h-121l-31 59h-12l-49 -59h-129z" />
    <glyph glyph-name="Atilde" unicode="&#xc3;" horiz-adv-x="722" 
d="M360 716h158l143 -716h-144l-31 171h-273l-90 -171h-153zM463 295l-33 180l-11 86h-8l-40 -86l-94 -180h186zM477.5 777.5q-16.5 6.5 -40.5 19.5q-30 17 -45 17q-26 0 -33 -29h-92q8 63 42 95.5t86 32.5q20 0 36.5 -6.5t40.5 -19.5q30 -17 45 -17q26 0 33 29h92
q-8 -63 -42 -95.5t-86 -32.5q-20 0 -36.5 6.5z" />
    <glyph glyph-name="Adieresis" unicode="&#xc4;" horiz-adv-x="722" 
d="M360 716h158l143 -716h-144l-31 171h-273l-90 -171h-153zM463 295l-33 180l-11 86h-8l-40 -86l-94 -180h186zM308 792.5q-21 21.5 -21 50.5q0 30 21 51t51 21t50.5 -21t20.5 -51t-20.5 -51t-50.5 -21t-51 21.5zM499 792.5q-21 21.5 -21 50.5q0 30 21 51t50 21
q31 0 51.5 -21t20.5 -51t-21 -51t-51 -21q-29 0 -50 21.5z" />
    <glyph glyph-name="Aring" unicode="&#xc5;" horiz-adv-x="722" 
d="M340 680q-25 33 -25 76q0 36 17.5 65.5t47 47t65.5 17.5q35 0 65 -17.5t47.5 -47.5t17.5 -65q0 -29 -12 -54.5t-34 -44.5l132 -657h-144l-31 171h-273l-90 -171h-153zM473.5 728q11.5 12 11.5 28q0 17 -11.5 28.5t-28.5 11.5q-16 0 -28 -11.5t-12 -28.5q0 -16 12 -28
t28 -12q17 0 28.5 12zM463 295l-33 180l-11 86h-8l-40 -86l-94 -180h186z" />
    <glyph glyph-name="AE" unicode="&#xc6;" horiz-adv-x="1012" 
d="M459 716h536l-23 -128h-319l-29 -166h287l-23 -128h-287l-30 -166h320l-23 -128h-454l31 173h-233l-128 -173h-167zM467 301l51 287h-10l-43 -70l-161 -217h163z" />
    <glyph glyph-name="Ccedilla" unicode="&#xc7;" horiz-adv-x="750" 
d="M507 137q49 25 98 74l86 -97q-68 -69 -139.5 -99.5t-167.5 -30.5h-4l-19 -31q7 1 18 1q35 0 57 -24.5t22 -61.5q0 -48 -32.5 -76.5t-82.5 -28.5q-34 0 -62 19t-35 47l68 27q2 -12 11.5 -20t22.5 -8q15 0 25.5 9.5t10.5 25.5q0 14 -8.5 22.5t-21.5 8.5q-14 0 -28 -14
l-55 28l45 82q-76 14 -134.5 57t-91.5 112t-33 157q0 112 55.5 207.5t154 152t221.5 56.5q87 0 153.5 -32.5t105.5 -90.5l-107 -88q-31 41 -71.5 62t-98.5 21q-75 0 -138.5 -37.5t-101.5 -102t-38 -141.5q0 -63 26 -111t72.5 -74t105.5 -26q62 0 111 25z" />
    <glyph glyph-name="Egrave" unicode="&#xc8;" horiz-adv-x="593" 
d="M163 716h454l-23 -128h-319l-30 -166h288l-23 -128h-288l-29 -166h319l-22 -128h-454zM264 908h148l19 -136h-102z" />
    <glyph glyph-name="Eacute" unicode="&#xc9;" horiz-adv-x="593" 
d="M163 716h454l-23 -128h-319l-30 -166h288l-23 -128h-288l-29 -166h319l-22 -128h-454zM396 908h154l-114 -136h-106z" />
    <glyph glyph-name="Ecircumflex" unicode="&#xca;" horiz-adv-x="593" 
d="M163 716h454l-23 -128h-319l-30 -166h288l-23 -128h-288l-29 -166h319l-22 -128h-454zM213 786l132 126h119l91 -126l-1 -8h-121l-31 59h-12l-49 -59h-129z" />
    <glyph glyph-name="Edieresis" unicode="&#xcb;" horiz-adv-x="593" 
d="M163 716h454l-23 -128h-319l-30 -166h288l-23 -128h-288l-29 -166h319l-22 -128h-454zM249 792.5q-21 21.5 -21 50.5q0 30 21 51t51 21t50.5 -21t20.5 -51t-20.5 -51t-50.5 -21t-51 21.5zM440 792.5q-21 21.5 -21 50.5q0 30 21 51t50 21q31 0 51.5 -21t20.5 -51t-21 -51
t-51 -21q-29 0 -50 21.5z" />
    <glyph glyph-name="Igrave" unicode="&#xcc;" horiz-adv-x="298" 
d="M163 716h134l-127 -716h-134zM122 908h148l19 -136h-102z" />
    <glyph glyph-name="Iacute" unicode="&#xcd;" horiz-adv-x="298" 
d="M163 716h134l-127 -716h-134zM254 908h154l-114 -136h-106z" />
    <glyph glyph-name="Icircumflex" unicode="&#xce;" horiz-adv-x="298" 
d="M163 716h134l-127 -716h-134zM71 786l132 126h119l91 -126l-1 -8h-121l-31 59h-12l-49 -59h-129z" />
    <glyph glyph-name="Idieresis" unicode="&#xcf;" horiz-adv-x="299" 
d="M114.5 794.5q-20.5 20.5 -20.5 48.5q0 29 20.5 49t48.5 20q29 0 49 -20t20 -49q0 -28 -20 -48.5t-49 -20.5q-28 0 -48.5 20.5zM288.5 794.5q-20.5 20.5 -20.5 48.5q0 29 20 49t49 20t49 -20t20 -49q0 -28 -20.5 -48.5t-48.5 -20.5t-48.5 20.5zM163 716h134l-127 -716
h-134z" />
    <glyph glyph-name="Eth" unicode="&#xd0;" horiz-adv-x="769" 
d="M120 302h-76l20 110h75l55 304h227q104 0 177.5 -40t111 -110.5t37.5 -163.5q0 -109 -52 -201t-149.5 -146.5t-225.5 -54.5h-253zM326 128q84 0 149 33.5t100.5 92.5t35.5 133q0 98 -51 149.5t-153 51.5h-101l-31 -176h184l-20 -110h-184l-31 -174h102z" />
    <glyph glyph-name="Ntilde" unicode="&#xd1;" horiz-adv-x="742" 
d="M163 716h149l211 -480h8l16 138l61 342h133l-127 -716h-133l-222 507h-8l-16 -138l-66 -369h-133zM495.5 777.5q-16.5 6.5 -40.5 19.5q-30 17 -45 17q-26 0 -33 -29h-92q8 63 42 95.5t86 32.5q20 0 36.5 -6.5t40.5 -19.5q30 -17 45 -17q26 0 33 29h92q-8 -63 -42 -95.5
t-86 -32.5q-20 0 -36.5 6.5z" />
    <glyph glyph-name="Ograve" unicode="&#xd2;" horiz-adv-x="840" 
d="M222.5 25.5q-77.5 41.5 -121.5 117.5t-44 174q0 112 53.5 207t150.5 151.5t220 56.5q98 0 175 -43t120 -119t43 -171q0 -112 -53.5 -207t-150 -151.5t-219.5 -56.5q-96 0 -173.5 41.5zM547 150q63 38 99.5 103.5t36.5 143.5q0 60 -28 107t-77 73.5t-109 26.5
q-77 0 -140 -38t-99.5 -102.5t-36.5 -141.5q0 -61 28 -109t77 -74.5t109 -26.5q77 0 140 38zM377 908h148l19 -136h-102z" />
    <glyph glyph-name="Oacute" unicode="&#xd3;" horiz-adv-x="840" 
d="M222.5 25.5q-77.5 41.5 -121.5 117.5t-44 174q0 112 53.5 207t150.5 151.5t220 56.5q98 0 175 -43t120 -119t43 -171q0 -112 -53.5 -207t-150 -151.5t-219.5 -56.5q-96 0 -173.5 41.5zM547 150q63 38 99.5 103.5t36.5 143.5q0 60 -28 107t-77 73.5t-109 26.5
q-77 0 -140 -38t-99.5 -102.5t-36.5 -141.5q0 -61 28 -109t77 -74.5t109 -26.5q77 0 140 38zM509 908h154l-114 -136h-106z" />
    <glyph glyph-name="Ocircumflex" unicode="&#xd4;" horiz-adv-x="840" 
d="M222.5 25.5q-77.5 41.5 -121.5 117.5t-44 174q0 112 53.5 207t150.5 151.5t220 56.5q98 0 175 -43t120 -119t43 -171q0 -112 -53.5 -207t-150 -151.5t-219.5 -56.5q-96 0 -173.5 41.5zM547 150q63 38 99.5 103.5t36.5 143.5q0 60 -28 107t-77 73.5t-109 26.5
q-77 0 -140 -38t-99.5 -102.5t-36.5 -141.5q0 -61 28 -109t77 -74.5t109 -26.5q77 0 140 38zM326 786l132 126h119l91 -126l-1 -8h-121l-31 59h-12l-49 -59h-129z" />
    <glyph glyph-name="Otilde" unicode="&#xd5;" horiz-adv-x="840" 
d="M222.5 25.5q-77.5 41.5 -121.5 117.5t-44 174q0 112 53.5 207t150.5 151.5t220 56.5q98 0 175 -43t120 -119t43 -171q0 -112 -53.5 -207t-150 -151.5t-219.5 -56.5q-96 0 -173.5 41.5zM547 150q63 38 99.5 103.5t36.5 143.5q0 60 -28 107t-77 73.5t-109 26.5
q-77 0 -140 -38t-99.5 -102.5t-36.5 -141.5q0 -61 28 -109t77 -74.5t109 -26.5q77 0 140 38zM531.5 777.5q-16.5 6.5 -40.5 19.5q-30 17 -45 17q-26 0 -33 -29h-92q8 63 42 95.5t86 32.5q20 0 36.5 -6.5t40.5 -19.5q30 -17 45 -17q26 0 33 29h92q-8 -63 -42 -95.5t-86 -32.5
q-20 0 -36.5 6.5z" />
    <glyph glyph-name="Odieresis" unicode="&#xd6;" horiz-adv-x="840" 
d="M222.5 25.5q-77.5 41.5 -121.5 117.5t-44 174q0 112 53.5 207t150.5 151.5t220 56.5q98 0 175 -43t120 -119t43 -171q0 -112 -53.5 -207t-150 -151.5t-219.5 -56.5q-96 0 -173.5 41.5zM547 150q63 38 99.5 103.5t36.5 143.5q0 60 -28 107t-77 73.5t-109 26.5
q-77 0 -140 -38t-99.5 -102.5t-36.5 -141.5q0 -61 28 -109t77 -74.5t109 -26.5q77 0 140 38zM362 792.5q-21 21.5 -21 50.5q0 30 21 51t51 21t50.5 -21t20.5 -51t-20.5 -51t-50.5 -21t-51 21.5zM553 792.5q-21 21.5 -21 50.5q0 30 21 51t50 21q31 0 51.5 -21t20.5 -51
t-21 -51t-51 -21q-29 0 -50 21.5z" />
    <glyph glyph-name="multiply" unicode="&#xd7;" horiz-adv-x="625" 
d="M40 117l193 158l-134 154l92 78l135 -156l194 159l70 -85l-192 -158l134 -154l-91 -78l-135 156l-194 -159z" />
    <glyph glyph-name="Oslash" unicode="&#xd8;" horiz-adv-x="840" 
d="M94 15l53 67q-43 45 -66.5 104.5t-23.5 130.5q0 112 53.5 207t150.5 151.5t220 56.5q84 0 159 -35l56 70l84 -68l-52 -65q44 -45 67.5 -105t23.5 -130q0 -112 -53.5 -207t-150 -151.5t-219.5 -56.5q-88 0 -160 35l-57 -71zM553 588q-42 16 -84 16q-77 0 -140 -38
t-99.5 -102.5t-36.5 -141.5q0 -78 43 -130zM547 150q63 38 99.5 103.5t36.5 143.5q0 74 -43 127l-317 -396q40 -16 84 -16q77 0 140 38z" />
    <glyph glyph-name="Ugrave" unicode="&#xd9;" horiz-adv-x="694" 
d="M183.5 13.5q-54.5 29.5 -84.5 83t-30 123.5q0 36 9 84l72 412h135l-77 -435q-4 -25 -4 -47q0 -57 30.5 -89.5t91.5 -32.5q67 0 111 44.5t58 120.5l77 439h135l-79 -447q-25 -142 -107.5 -213.5t-212.5 -71.5q-70 0 -124.5 29.5zM313 908h148l19 -136h-102z" />
    <glyph glyph-name="Uacute" unicode="&#xda;" horiz-adv-x="694" 
d="M183.5 13.5q-54.5 29.5 -84.5 83t-30 123.5q0 36 9 84l72 412h135l-77 -435q-4 -25 -4 -47q0 -57 30.5 -89.5t91.5 -32.5q67 0 111 44.5t58 120.5l77 439h135l-79 -447q-25 -142 -107.5 -213.5t-212.5 -71.5q-70 0 -124.5 29.5zM445 908h154l-114 -136h-106z" />
    <glyph glyph-name="Ucircumflex" unicode="&#xdb;" horiz-adv-x="694" 
d="M183.5 13.5q-54.5 29.5 -84.5 83t-30 123.5q0 36 9 84l72 412h135l-77 -435q-4 -25 -4 -47q0 -57 30.5 -89.5t91.5 -32.5q67 0 111 44.5t58 120.5l77 439h135l-79 -447q-25 -142 -107.5 -213.5t-212.5 -71.5q-70 0 -124.5 29.5zM262 786l132 126h119l91 -126l-1 -8h-121
l-31 59h-12l-49 -59h-129z" />
    <glyph glyph-name="Udieresis" unicode="&#xdc;" horiz-adv-x="694" 
d="M183.5 13.5q-54.5 29.5 -84.5 83t-30 123.5q0 36 9 84l72 412h135l-77 -435q-4 -25 -4 -47q0 -57 30.5 -89.5t91.5 -32.5q67 0 111 44.5t58 120.5l77 439h135l-79 -447q-25 -142 -107.5 -213.5t-212.5 -71.5q-70 0 -124.5 29.5zM298 792.5q-21 21.5 -21 50.5q0 30 21 51
t51 21t50.5 -21t20.5 -51t-20.5 -51t-50.5 -21t-51 21.5zM489 792.5q-21 21.5 -21 50.5q0 30 21 51t50 21q31 0 51.5 -21t20.5 -51t-21 -51t-51 -21q-29 0 -50 21.5z" />
    <glyph glyph-name="Yacute" unicode="&#xdd;" horiz-adv-x="642" 
d="M269 333l-173 383h156l102 -237h8l180 237h167l-305 -383l-59 -333h-135zM412 908h154l-114 -136h-106z" />
    <glyph glyph-name="Thorn" unicode="&#xde;" horiz-adv-x="605" 
d="M153 716h135l-20 -109h106q63 0 113 -26t78.5 -73t28.5 -107q0 -77 -35.5 -132.5t-98.5 -84.5t-145 -29h-127l-27 -155h-135zM333 283q56 0 91 27.5t35 80.5q0 40 -24 64t-68 24h-121l-35 -196h122z" />
    <glyph glyph-name="germandbls" unicode="&#xdf;" horiz-adv-x="585" 
d="M523.5 324.5q23.5 -39.5 23.5 -95.5q0 -69 -34 -123t-94 -84t-136 -30q-42 0 -67 4l21 119q21 -4 51 -4q54 0 91 31.5t37 85.5q0 44 -27.5 70t-78.5 26h-25l20 115h20q49 0 82.5 25.5t33.5 69.5q0 35 -23 56t-62 21q-44 0 -72.5 -29.5t-37.5 -76.5l-89 -505h-131l89 507
q18 102 83 163.5t176 61.5q59 0 104 -24t69 -64.5t24 -87.5q0 -62 -31 -103.5t-79 -61.5l-1 -8q40 -19 63.5 -58.5z" />
    <glyph glyph-name="agrave" unicode="&#xe0;" horiz-adv-x="555" 
d="M97.5 5.5q-37.5 21.5 -59.5 58t-22 79.5q0 86 58.5 135t168.5 49q73 0 135 -25l5 22l2 22q0 32 -29.5 53t-72.5 21q-38 0 -69.5 -14.5t-53.5 -41.5l-87 64q39 48 98 73t128 25q99 0 156.5 -48t57.5 -126q0 -20 -5 -52l-54 -300h-129l9 52h-8q-51 -68 -145 -68
q-46 0 -83.5 21.5zM317 120.5q37 34.5 45 87.5q-28 12 -53 18t-60 6q-49 0 -74.5 -20.5t-25.5 -58.5q0 -31 21.5 -49t55.5 -18q54 0 91 34.5zM204 744h148l18 -136h-102z" />
    <glyph glyph-name="aacute" unicode="&#xe1;" horiz-adv-x="555" 
d="M97.5 5.5q-37.5 21.5 -59.5 58t-22 79.5q0 86 58.5 135t168.5 49q73 0 135 -25l5 22l2 22q0 32 -29.5 53t-72.5 21q-38 0 -69.5 -14.5t-53.5 -41.5l-87 64q39 48 98 73t128 25q99 0 156.5 -48t57.5 -126q0 -20 -5 -52l-54 -300h-129l9 52h-8q-51 -68 -145 -68
q-46 0 -83.5 21.5zM317 120.5q37 34.5 45 87.5q-28 12 -53 18t-60 6q-49 0 -74.5 -20.5t-25.5 -58.5q0 -31 21.5 -49t55.5 -18q54 0 91 34.5zM331 744h153l-113 -136h-106z" />
    <glyph glyph-name="acircumflex" unicode="&#xe2;" horiz-adv-x="555" 
d="M97.5 5.5q-37.5 21.5 -59.5 58t-22 79.5q0 86 58.5 135t168.5 49q73 0 135 -25l5 22l2 22q0 32 -29.5 53t-72.5 21q-38 0 -69.5 -14.5t-53.5 -41.5l-87 64q39 48 98 73t128 25q99 0 156.5 -48t57.5 -126q0 -20 -5 -52l-54 -300h-129l9 52h-8q-51 -68 -145 -68
q-46 0 -83.5 21.5zM317 120.5q37 34.5 45 87.5q-28 12 -53 18t-60 6q-49 0 -74.5 -20.5t-25.5 -58.5q0 -31 21.5 -49t55.5 -18q54 0 91 34.5zM146 610l132 126h119l91 -126l-2 -8h-120l-32 58h-12l-48 -58h-130z" />
    <glyph glyph-name="atilde" unicode="&#xe3;" horiz-adv-x="555" 
d="M97.5 5.5q-37.5 21.5 -59.5 58t-22 79.5q0 86 58.5 135t168.5 49q73 0 135 -25l5 22l2 22q0 32 -29.5 53t-72.5 21q-38 0 -69.5 -14.5t-53.5 -41.5l-87 64q39 48 98 73t128 25q99 0 156.5 -48t57.5 -126q0 -20 -5 -52l-54 -300h-129l9 52h-8q-51 -68 -145 -68
q-46 0 -83.5 21.5zM317 120.5q37 34.5 45 87.5q-28 12 -53 18t-60 6q-49 0 -74.5 -20.5t-25.5 -58.5q0 -31 21.5 -49t55.5 -18q54 0 91 34.5zM353 613.5q-17 6.5 -38 18.5q-31 18 -47 18q-25 0 -32 -29h-92q8 62 41.5 94.5t85.5 32.5q21 0 38 -7t39 -19q12 -7 24.5 -12
t21.5 -5q26 0 32 29h92q-8 -62 -41.5 -94.5t-85.5 -32.5q-21 0 -38 6.5z" />
    <glyph glyph-name="adieresis" unicode="&#xe4;" horiz-adv-x="555" 
d="M97.5 5.5q-37.5 21.5 -59.5 58t-22 79.5q0 86 58.5 135t168.5 49q73 0 135 -25l5 22l2 22q0 32 -29.5 53t-72.5 21q-38 0 -69.5 -14.5t-53.5 -41.5l-87 64q39 48 98 73t128 25q99 0 156.5 -48t57.5 -126q0 -20 -5 -52l-54 -300h-129l9 52h-8q-51 -68 -145 -68
q-46 0 -83.5 21.5zM317 120.5q37 34.5 45 87.5q-28 12 -53 18t-60 6q-49 0 -74.5 -20.5t-25.5 -58.5q0 -31 21.5 -49t55.5 -18q54 0 91 34.5zM185 628q-21 21 -21 51t21 50.5t50 20.5q31 0 51.5 -20.5t20.5 -50.5t-20.5 -51t-51.5 -21q-29 0 -50 21zM375.5 628
q-21.5 21 -21.5 51t21 50.5t51 20.5t51 -20.5t21 -50.5t-21 -51t-51 -21q-29 0 -50.5 21z" />
    <glyph glyph-name="aring" unicode="&#xe5;" horiz-adv-x="555" 
d="M97.5 5.5q-37.5 21.5 -59.5 58t-22 79.5q0 86 58.5 135t168.5 49q73 0 135 -25l5 22l2 22q0 32 -29.5 53t-72.5 21q-38 0 -69.5 -14.5t-53.5 -41.5l-87 64q39 48 98 73t128 25q99 0 156.5 -48t57.5 -126q0 -20 -5 -52l-54 -300h-129l9 52h-8q-51 -68 -145 -68
q-46 0 -83.5 21.5zM317 120.5q37 34.5 45 87.5q-28 12 -53 18t-60 6q-49 0 -74.5 -20.5t-25.5 -58.5q0 -31 21.5 -49t55.5 -18q54 0 91 34.5zM256.5 615.5q-31.5 31.5 -31.5 76.5t31.5 76.5t76.5 31.5t76.5 -31.5t31.5 -76.5t-31.5 -76.5t-76.5 -31.5t-76.5 31.5zM357 667.5
q10 10.5 10 24.5t-10.5 24t-23.5 10q-14 0 -24.5 -10t-10.5 -24t10.5 -24.5t24.5 -10.5t24 10.5z" />
    <glyph glyph-name="ae" unicode="&#xe6;" horiz-adv-x="919" 
d="M97.5 5.5q-37.5 21.5 -59.5 58t-22 79.5q0 91 63.5 137.5t170.5 46.5q40 0 75 -7.5t54 -15.5l5 22q2 14 2 17q0 36 -27.5 56.5t-73.5 20.5q-77 0 -111 -52l-94 51q34 55 90 81t128 26q63 0 108.5 -21.5t69.5 -57.5q73 79 190 79q68 0 118.5 -30t77 -79.5t26.5 -105.5
q0 -46 -13 -87h-383q-1 -3 -1 -11q2 -53 37 -83t86 -30q54 0 88 18.5t57 57.5l99 -52q-44 -70 -104 -105t-150 -35q-67 0 -116 29.5t-79 77.5q-45 -57 -102 -82t-127 -25q-45 0 -82.5 21.5zM767 317v4q0 41 -33.5 69.5t-82.5 28.5q-52 0 -90.5 -30t-53.5 -72h260zM317 120.5
q37 34.5 45 87.5q-48 24 -113 24q-49 0 -74.5 -20.5t-25.5 -58.5q0 -31 21.5 -49t55.5 -18q54 0 91 34.5z" />
    <glyph glyph-name="ccedilla" unicode="&#xe7;" horiz-adv-x="572" 
d="M364 124.5q33 19.5 51 54.5l111 -54q-38 -69 -104 -105t-148 -36h-5l-19 -31q7 1 18 1q35 0 57 -24.5t22 -61.5q0 -48 -32.5 -76.5t-82.5 -28.5q-34 0 -62 19t-35 47l68 27q2 -12 11.5 -20t22.5 -8q15 0 25.5 9.5t10.5 25.5q0 14 -8.5 22.5t-21.5 8.5q-14 0 -28 -14
l-55 28l47 84q-80 20 -128 83.5t-48 148.5q0 79 37.5 148.5t107.5 111.5t163 42q82 0 139.5 -39.5t78.5 -104.5l-122 -48q-13 33 -43.5 51.5t-70.5 18.5q-44 0 -80.5 -21.5t-57 -59.5t-20.5 -85q0 -59 35 -96t87 -37q46 0 79 19.5z" />
    <glyph glyph-name="egrave" unicode="&#xe8;" horiz-adv-x="588" 
d="M146 16.5q-54 32.5 -83.5 88t-29.5 121.5q0 80 38 148.5t106.5 110t154.5 41.5q69 0 120 -30t78 -79t27 -106q0 -45 -13 -87h-383l-1 -11q1 -53 36.5 -83t85.5 -30q55 0 89 18.5t57 57.5l99 -52q-44 -70 -104 -105t-152 -35q-71 0 -125 32.5zM436 317v4q0 40 -32 69
t-84 29q-51 0 -89.5 -30t-53.5 -72h259zM232 744h148l18 -136h-102z" />
    <glyph glyph-name="eacute" unicode="&#xe9;" horiz-adv-x="588" 
d="M146 16.5q-54 32.5 -83.5 88t-29.5 121.5q0 80 38 148.5t106.5 110t154.5 41.5q69 0 120 -30t78 -79t27 -106q0 -45 -13 -87h-383l-1 -11q1 -53 36.5 -83t85.5 -30q55 0 89 18.5t57 57.5l99 -52q-44 -70 -104 -105t-152 -35q-71 0 -125 32.5zM436 317v4q0 40 -32 69
t-84 29q-51 0 -89.5 -30t-53.5 -72h259zM359 744h153l-113 -136h-106z" />
    <glyph glyph-name="ecircumflex" unicode="&#xea;" horiz-adv-x="588" 
d="M146 16.5q-54 32.5 -83.5 88t-29.5 121.5q0 80 38 148.5t106.5 110t154.5 41.5q69 0 120 -30t78 -79t27 -106q0 -45 -13 -87h-383l-1 -11q1 -53 36.5 -83t85.5 -30q55 0 89 18.5t57 57.5l99 -52q-44 -70 -104 -105t-152 -35q-71 0 -125 32.5zM436 317v4q0 40 -32 69
t-84 29q-51 0 -89.5 -30t-53.5 -72h259zM174 610l132 126h119l91 -126l-2 -8h-120l-32 58h-12l-48 -58h-130z" />
    <glyph glyph-name="edieresis" unicode="&#xeb;" horiz-adv-x="588" 
d="M146 16.5q-54 32.5 -83.5 88t-29.5 121.5q0 80 38 148.5t106.5 110t154.5 41.5q69 0 120 -30t78 -79t27 -106q0 -45 -13 -87h-383l-1 -11q1 -53 36.5 -83t85.5 -30q55 0 89 18.5t57 57.5l99 -52q-44 -70 -104 -105t-152 -35q-71 0 -125 32.5zM436 317v4q0 40 -32 69
t-84 29q-51 0 -89.5 -30t-53.5 -72h259zM213 628q-21 21 -21 51t21 50.5t50 20.5q31 0 51.5 -20.5t20.5 -50.5t-20.5 -51t-51.5 -21q-29 0 -50 21zM403.5 628q-21.5 21 -21.5 51t21 50.5t51 20.5t51 -20.5t21 -50.5t-21 -51t-51 -21q-29 0 -50.5 21z" />
    <glyph glyph-name="igrave" unicode="&#xec;" horiz-adv-x="276" 
d="M118 510h130l-89 -510h-130zM86 744h148l18 -136h-102z" />
    <glyph glyph-name="iacute" unicode="&#xed;" horiz-adv-x="276" 
d="M118 510h130l-89 -510h-130zM213 744h153l-113 -136h-106z" />
    <glyph glyph-name="icircumflex" unicode="&#xee;" horiz-adv-x="276" 
d="M118 510h130l-89 -510h-130zM28 610l132 126h119l91 -126l-2 -8h-120l-32 58h-12l-48 -58h-130z" />
    <glyph glyph-name="idieresis" unicode="&#xef;" horiz-adv-x="276" 
d="M76.5 630.5q-20.5 20.5 -20.5 48.5q0 29 20.5 49t48.5 20q29 0 49 -20t20 -49q0 -28 -20 -48.5t-49 -20.5q-28 0 -48.5 20.5zM244.5 630.5q-20.5 20.5 -20.5 48.5q0 29 20.5 49t48.5 20q29 0 49 -20t20 -49q0 -28 -20 -48.5t-49 -20.5q-28 0 -48.5 20.5zM118 510h130
l-89 -510h-130z" />
    <glyph glyph-name="eth" unicode="&#xf0;" horiz-adv-x="588" 
d="M144 14q-51 30 -80 81t-29 112q0 80 34 145t96.5 102t145.5 37q34 0 64 -10.5t48 -27.5l7 6q-9 26 -24.5 44.5t-47.5 48.5l-123 -51l-31 75l71 29q-40 18 -84 26l36 99q99 -21 172 -74l116 48l30 -74l-79 -34q43 -53 68 -126t25 -155q0 -90 -33.5 -165.5t-101.5 -120.5
t-166 -45q-63 0 -114 30zM350 122.5q32 21.5 50 57t18 76.5q0 51 -30 84.5t-78 33.5q-43 0 -76.5 -22t-52 -57.5t-18.5 -75.5q0 -51 32.5 -84.5t81.5 -33.5q41 0 73 21.5z" />
    <glyph glyph-name="ntilde" unicode="&#xf1;" horiz-adv-x="600" 
d="M229 446q26 38 67.5 59t95.5 21q78 0 120 -44t42 -112q0 -34 -5 -62l-55 -308h-131l52 293q4 22 4 38q0 31 -22 52t-58 21q-58 0 -94 -38.5t-48 -105.5l-46 -260h-131l90 510h122l-11 -64h8zM411 613.5q-17 6.5 -38 18.5q-31 18 -47 18q-25 0 -32 -29h-92q8 62 41.5 94.5
t85.5 32.5q21 0 38 -7t39 -19q12 -7 24.5 -12t21.5 -5q26 0 32 29h92q-8 -62 -41.5 -94.5t-85.5 -32.5q-21 0 -38 6.5z" />
    <glyph glyph-name="ograve" unicode="&#xf2;" horiz-adv-x="609" 
d="M146.5 15.5q-54.5 31.5 -84.5 85.5t-30 121q0 85 38 154.5t107 109.5t159 40q71 0 125.5 -31.5t84.5 -85.5t30 -121q0 -85 -38 -154.5t-107 -109.5t-159 -40q-71 0 -125.5 31.5zM366 127q36 22 57 61t21 86q0 57 -33 93.5t-90 36.5q-43 0 -79 -22t-57 -60.5t-21 -85.5
q0 -58 33 -94.5t90 -36.5q43 0 79 22zM241 744h148l18 -136h-102z" />
    <glyph glyph-name="oacute" unicode="&#xf3;" horiz-adv-x="609" 
d="M146.5 15.5q-54.5 31.5 -84.5 85.5t-30 121q0 85 38 154.5t107 109.5t159 40q71 0 125.5 -31.5t84.5 -85.5t30 -121q0 -85 -38 -154.5t-107 -109.5t-159 -40q-71 0 -125.5 31.5zM366 127q36 22 57 61t21 86q0 57 -33 93.5t-90 36.5q-43 0 -79 -22t-57 -60.5t-21 -85.5
q0 -58 33 -94.5t90 -36.5q43 0 79 22zM368 744h153l-113 -136h-106z" />
    <glyph glyph-name="ocircumflex" unicode="&#xf4;" horiz-adv-x="609" 
d="M146.5 15.5q-54.5 31.5 -84.5 85.5t-30 121q0 85 38 154.5t107 109.5t159 40q71 0 125.5 -31.5t84.5 -85.5t30 -121q0 -85 -38 -154.5t-107 -109.5t-159 -40q-71 0 -125.5 31.5zM366 127q36 22 57 61t21 86q0 57 -33 93.5t-90 36.5q-43 0 -79 -22t-57 -60.5t-21 -85.5
q0 -58 33 -94.5t90 -36.5q43 0 79 22zM183 610l132 126h119l91 -126l-2 -8h-120l-32 58h-12l-48 -58h-130z" />
    <glyph glyph-name="otilde" unicode="&#xf5;" horiz-adv-x="609" 
d="M146.5 15.5q-54.5 31.5 -84.5 85.5t-30 121q0 85 38 154.5t107 109.5t159 40q71 0 125.5 -31.5t84.5 -85.5t30 -121q0 -85 -38 -154.5t-107 -109.5t-159 -40q-71 0 -125.5 31.5zM366 127q36 22 57 61t21 86q0 57 -33 93.5t-90 36.5q-43 0 -79 -22t-57 -60.5t-21 -85.5
q0 -58 33 -94.5t90 -36.5q43 0 79 22zM390 613.5q-17 6.5 -38 18.5q-31 18 -47 18q-25 0 -32 -29h-92q8 62 41.5 94.5t85.5 32.5q21 0 38 -7t39 -19q12 -7 24.5 -12t21.5 -5q26 0 32 29h92q-8 -62 -41.5 -94.5t-85.5 -32.5q-21 0 -38 6.5z" />
    <glyph glyph-name="odieresis" unicode="&#xf6;" horiz-adv-x="609" 
d="M146.5 15.5q-54.5 31.5 -84.5 85.5t-30 121q0 85 38 154.5t107 109.5t159 40q71 0 125.5 -31.5t84.5 -85.5t30 -121q0 -85 -38 -154.5t-107 -109.5t-159 -40q-71 0 -125.5 31.5zM366 127q36 22 57 61t21 86q0 57 -33 93.5t-90 36.5q-43 0 -79 -22t-57 -60.5t-21 -85.5
q0 -58 33 -94.5t90 -36.5q43 0 79 22zM222 628q-21 21 -21 51t21 50.5t50 20.5q31 0 51.5 -20.5t20.5 -50.5t-20.5 -51t-51.5 -21q-29 0 -50 21zM412.5 628q-21.5 21 -21.5 51t21 50.5t51 20.5t51 -20.5t21 -50.5t-21 -51t-51 -21q-29 0 -50.5 21z" />
    <glyph glyph-name="divide" unicode="&#xf7;" horiz-adv-x="569" 
d="M264 410q-24 24 -24 58t24 58t58 24t58 -24t24 -58t-24 -58t-58 -24t-58 24zM69 325h457l-20 -108h-456zM195 16q-24 24 -24 58t24 58t58 24t58 -24t24 -58t-24 -58t-58 -24t-58 24z" />
    <glyph glyph-name="oslash" unicode="&#xf8;" horiz-adv-x="602" 
d="M56 13l33 43q-29 32 -45 75t-16 91q0 85 38 154.5t107.5 109.5t158.5 40q59 0 108 -23l40 52l74 -62l-38 -46q58 -66 58 -159q0 -85 -38.5 -154.5t-107.5 -109.5t-159 -40q-53 0 -99 19l-37 -48zM361 404q-16 8 -43 8q-43 0 -80.5 -24t-60 -64.5t-22.5 -87.5
q0 -40 18 -73zM363.5 119.5q37.5 23.5 60 64.5t22.5 90q0 37 -14 64l-184 -236q17 -6 35 -6q43 0 80.5 23.5z" />
    <glyph glyph-name="ugrave" unicode="&#xf9;" horiz-adv-x="600" 
d="M371 64q-26 -39 -67.5 -59.5t-95.5 -20.5q-78 0 -120 44t-42 112q0 32 5 61l55 309h131l-52 -293q-4 -16 -4 -38q0 -32 22 -53t58 -21q58 0 94 38.5t48 106.5l46 260h131l-90 -510h-122l11 64h-8zM246 744h148l18 -136h-102z" />
    <glyph glyph-name="uacute" unicode="&#xfa;" horiz-adv-x="600" 
d="M371 64q-26 -39 -67.5 -59.5t-95.5 -20.5q-78 0 -120 44t-42 112q0 32 5 61l55 309h131l-52 -293q-4 -16 -4 -38q0 -32 22 -53t58 -21q58 0 94 38.5t48 106.5l46 260h131l-90 -510h-122l11 64h-8zM373 744h153l-113 -136h-106z" />
    <glyph glyph-name="ucircumflex" unicode="&#xfb;" horiz-adv-x="600" 
d="M371 64q-26 -39 -67.5 -59.5t-95.5 -20.5q-78 0 -120 44t-42 112q0 32 5 61l55 309h131l-52 -293q-4 -16 -4 -38q0 -32 22 -53t58 -21q58 0 94 38.5t48 106.5l46 260h131l-90 -510h-122l11 64h-8zM188 610l132 126h119l91 -126l-2 -8h-120l-32 58h-12l-48 -58h-130z" />
    <glyph glyph-name="udieresis" unicode="&#xfc;" horiz-adv-x="600" 
d="M371 64q-26 -39 -67.5 -59.5t-95.5 -20.5q-78 0 -120 44t-42 112q0 32 5 61l55 309h131l-52 -293q-4 -16 -4 -38q0 -32 22 -53t58 -21q58 0 94 38.5t48 106.5l46 260h131l-90 -510h-122l11 64h-8zM227 628q-21 21 -21 51t21 50.5t50 20.5q31 0 51.5 -20.5t20.5 -50.5
t-20.5 -51t-51.5 -21q-29 0 -50 21zM417.5 628q-21.5 21 -21.5 51t21 50.5t51 20.5t51 -20.5t21 -50.5t-21 -51t-51 -21q-29 0 -50.5 21z" />
    <glyph glyph-name="yacute" unicode="&#xfd;" horiz-adv-x="579" 
d="M180 29l-127 481h146l77 -317h7l185 317h148l-444 -726h-143zM356 744h153l-113 -136h-106z" />
    <glyph glyph-name="thorn" unicode="&#xfe;" horiz-adv-x="630" 
d="M145 716h131l-35 -196l-20 -72h8q24 36 64.5 57t99.5 21t106 -30.5t74 -84.5t27 -120q0 -86 -36.5 -156t-102 -110.5t-149.5 -40.5q-53 0 -95.5 23t-57.5 54h-8l-3 -72l-36 -205h-131zM391.5 127.5q36.5 22.5 56.5 62.5t20 89q0 56 -35.5 90.5t-88.5 34.5q-42 0 -79 -21
t-59 -60.5t-22 -93.5t35.5 -89t88.5 -35q47 0 83.5 22.5z" />
    <glyph glyph-name="ydieresis" unicode="&#xff;" horiz-adv-x="579" 
d="M180 29l-127 481h146l77 -317h7l185 317h148l-444 -726h-143zM210 628q-21 21 -21 51t21 50.5t50 20.5q31 0 51.5 -20.5t20.5 -50.5t-20.5 -51t-51.5 -21q-29 0 -50 21zM400.5 628q-21.5 21 -21.5 51t21 50.5t51 20.5t51 -20.5t21 -50.5t-21 -51t-51 -21q-29 0 -50.5 21z
" />
    <glyph glyph-name="Amacron" unicode="&#x100;" horiz-adv-x="722" 
d="M360 716h158l143 -716h-144l-31 171h-273l-90 -171h-153zM463 295l-33 180l-11 86h-8l-40 -86l-94 -180h186zM316 893h296l-18 -100h-296z" />
    <glyph glyph-name="amacron" unicode="&#x101;" horiz-adv-x="555" 
d="M97.5 5.5q-37.5 21.5 -59.5 58t-22 79.5q0 86 58.5 135t168.5 49q73 0 135 -25l5 22l2 22q0 32 -29.5 53t-72.5 21q-38 0 -69.5 -14.5t-53.5 -41.5l-87 64q39 48 98 73t128 25q99 0 156.5 -48t57.5 -126q0 -20 -5 -52l-54 -300h-129l9 52h-8q-51 -68 -145 -68
q-46 0 -83.5 21.5zM317 120.5q37 34.5 45 87.5q-28 12 -53 18t-60 6q-49 0 -74.5 -20.5t-25.5 -58.5q0 -31 21.5 -49t55.5 -18q54 0 91 34.5zM191 729h296l-17 -100h-297z" />
    <glyph glyph-name="Abreve" unicode="&#x102;" horiz-adv-x="722" 
d="M360 716h158l143 -716h-144l-31 171h-273l-90 -171h-153zM463 295l-33 180l-11 86h-8l-40 -86l-94 -180h186zM360.5 795q-34.5 32 -34.5 81q0 13 2 23h92q-1 -4 -1 -9q0 -16 10 -26.5t28 -10.5q19 0 33 13t18 33h92q-10 -66 -51 -101t-104 -35q-50 0 -84.5 32z" />
    <glyph glyph-name="abreve" unicode="&#x103;" horiz-adv-x="555" 
d="M97.5 5.5q-37.5 21.5 -59.5 58t-22 79.5q0 86 58.5 135t168.5 49q73 0 135 -25l5 22l2 22q0 32 -29.5 53t-72.5 21q-38 0 -69.5 -14.5t-53.5 -41.5l-87 64q39 48 98 73t128 25q99 0 156.5 -48t57.5 -126q0 -20 -5 -52l-54 -300h-129l9 52h-8q-51 -68 -145 -68
q-46 0 -83.5 21.5zM317 120.5q37 34.5 45 87.5q-28 12 -53 18t-60 6q-49 0 -74.5 -20.5t-25.5 -58.5q0 -31 21.5 -49t55.5 -18q54 0 91 34.5zM234.5 630.5q-34.5 31.5 -34.5 80.5q0 5 2 23h93q-1 -4 -1 -9q0 -15 9.5 -25.5t27.5 -10.5q20 0 34 12.5t17 32.5h92
q-10 -66 -51 -100.5t-104 -34.5q-50 0 -84.5 31.5z" />
    <glyph glyph-name="Aogonek" unicode="&#x104;" horiz-adv-x="722" 
d="M490 -197q-30 27 -30 70q0 37 20 68.5t54 53.5l-1 5h-16l-31 171h-273l-90 -171h-153l390 716h158l143 -716q-34 -19 -60 -45t-26 -52q0 -15 9 -23.5t24 -8.5q19 0 43 11l-17 -96q-30 -10 -60 -10q-54 0 -84 27zM463 295l-33 180l-11 86h-8l-40 -86l-94 -180h186z" />
    <glyph glyph-name="aogonek" unicode="&#x105;" horiz-adv-x="555" 
d="M283.5 -197q-30.5 27 -30.5 70q0 37 21 68t56 53l-5 6l9 52h-8q-51 -68 -145 -68q-46 0 -83.5 21.5t-59.5 58t-22 79.5q0 86 58.5 135t168.5 49q73 0 135 -25l5 22l2 22q0 32 -29.5 53t-72.5 21q-38 0 -69.5 -14.5t-53.5 -41.5l-87 64q39 48 98 73t128 25q99 0 156.5 -48
t57.5 -126q0 -20 -5 -52l-54 -300q-34 -19 -59.5 -45t-25.5 -52q0 -15 9 -23.5t24 -8.5q18 0 42 11l-17 -96q-29 -10 -59 -10q-54 0 -84.5 27zM317 120.5q37 34.5 45 87.5q-28 12 -53 18t-60 6q-49 0 -74.5 -20.5t-25.5 -58.5q0 -31 21.5 -49t55.5 -18q54 0 91 34.5z" />
    <glyph glyph-name="Cacute" unicode="&#x106;" horiz-adv-x="750" 
d="M216.5 24.5q-74.5 40.5 -117 115.5t-42.5 176q0 112 55.5 207.5t154 152t221.5 56.5q87 0 153.5 -32.5t105.5 -90.5l-107 -88q-31 41 -71.5 62t-98.5 21q-75 0 -138.5 -37.5t-101.5 -102t-38 -141.5q0 -63 26 -111t72.5 -74t105.5 -26q62 0 111 25t98 74l86 -97
q-68 -69 -139.5 -99.5t-167.5 -30.5q-93 0 -167.5 40.5zM498 908h154l-114 -136h-106z" />
    <glyph glyph-name="cacute" unicode="&#x107;" horiz-adv-x="572" 
d="M148.5 15.5q-55.5 31.5 -86.5 86.5t-31 122q0 79 37.5 148.5t107.5 111.5t163 42q82 0 139.5 -39.5t78.5 -104.5l-122 -48q-13 33 -43.5 51.5t-70.5 18.5q-44 0 -80.5 -21.5t-57 -59.5t-20.5 -85q0 -59 35 -96t87 -37q46 0 79 19.5t51 54.5l111 -54q-38 -69 -104 -105
t-148 -36q-70 0 -125.5 31.5zM355 744h153l-113 -136h-106z" />
    <glyph glyph-name="Ccircumflex" unicode="&#x108;" horiz-adv-x="750" 
d="M216.5 24.5q-74.5 40.5 -117 115.5t-42.5 176q0 112 55.5 207.5t154 152t221.5 56.5q87 0 153.5 -32.5t105.5 -90.5l-107 -88q-31 41 -71.5 62t-98.5 21q-75 0 -138.5 -37.5t-101.5 -102t-38 -141.5q0 -63 26 -111t72.5 -74t105.5 -26q62 0 111 25t98 74l86 -97
q-68 -69 -139.5 -99.5t-167.5 -30.5q-93 0 -167.5 40.5zM315 786l132 126h119l91 -126l-1 -8h-121l-31 59h-12l-49 -59h-129z" />
    <glyph glyph-name="ccircumflex" unicode="&#x109;" horiz-adv-x="572" 
d="M148.5 15.5q-55.5 31.5 -86.5 86.5t-31 122q0 79 37.5 148.5t107.5 111.5t163 42q82 0 139.5 -39.5t78.5 -104.5l-122 -48q-13 33 -43.5 51.5t-70.5 18.5q-44 0 -80.5 -21.5t-57 -59.5t-20.5 -85q0 -59 35 -96t87 -37q46 0 79 19.5t51 54.5l111 -54q-38 -69 -104 -105
t-148 -36q-70 0 -125.5 31.5zM170 610l132 126h119l91 -126l-2 -8h-120l-32 58h-12l-48 -58h-130z" />
    <glyph glyph-name="Cdotaccent" unicode="&#x10a;" horiz-adv-x="750" 
d="M216.5 24.5q-74.5 40.5 -117 115.5t-42.5 176q0 112 55.5 207.5t154 152t221.5 56.5q87 0 153.5 -32.5t105.5 -90.5l-107 -88q-31 41 -71.5 62t-98.5 21q-75 0 -138.5 -37.5t-101.5 -102t-38 -141.5q0 -63 26 -111t72.5 -74t105.5 -26q62 0 111 25t98 74l86 -97
q-68 -69 -139.5 -99.5t-167.5 -30.5q-93 0 -167.5 40.5zM451 806q-21 21 -21 50t20.5 50t49.5 21q30 0 50.5 -21t20.5 -50t-20.5 -50t-50.5 -21q-28 0 -49 21z" />
    <glyph glyph-name="cdotaccent" unicode="&#x10b;" horiz-adv-x="572" 
d="M148.5 15.5q-55.5 31.5 -86.5 86.5t-31 122q0 79 37.5 148.5t107.5 111.5t163 42q82 0 139.5 -39.5t78.5 -104.5l-122 -48q-13 33 -43.5 51.5t-70.5 18.5q-44 0 -80.5 -21.5t-57 -59.5t-20.5 -85q0 -59 35 -96t87 -37q46 0 79 19.5t51 54.5l111 -54q-38 -69 -104 -105
t-148 -36q-70 0 -125.5 31.5zM300 617.5q-22 22.5 -22 53.5t22 53t54 22q31 0 53 -21.5t22 -53.5t-22 -54t-53 -22q-32 0 -54 22.5z" />
    <glyph glyph-name="Ccaron" unicode="&#x10c;" horiz-adv-x="750" 
d="M216.5 24.5q-74.5 40.5 -117 115.5t-42.5 176q0 112 55.5 207.5t154 152t221.5 56.5q87 0 153.5 -32.5t105.5 -90.5l-107 -88q-31 41 -71.5 62t-98.5 21q-75 0 -138.5 -37.5t-101.5 -102t-38 -141.5q0 -63 26 -111t72.5 -74t105.5 -26q62 0 111 25t98 74l86 -97
q-68 -69 -139.5 -99.5t-167.5 -30.5q-93 0 -167.5 40.5zM340 904l1 8h121l31 -59h12l49 59h129l-1 -8l-132 -126h-119z" />
    <glyph glyph-name="ccaron" unicode="&#x10d;" horiz-adv-x="572" 
d="M148.5 15.5q-55.5 31.5 -86.5 86.5t-31 122q0 79 37.5 148.5t107.5 111.5t163 42q82 0 139.5 -39.5t78.5 -104.5l-122 -48q-13 33 -43.5 51.5t-70.5 18.5q-44 0 -80.5 -21.5t-57 -59.5t-20.5 -85q0 -59 35 -96t87 -37q46 0 79 19.5t51 54.5l111 -54q-38 -69 -104 -105
t-148 -36q-70 0 -125.5 31.5zM195 727l2 9h120l32 -59h12l48 59h130l-2 -9l-132 -125h-118z" />
    <glyph glyph-name="Dcaron" unicode="&#x10e;" horiz-adv-x="738" 
d="M163 716h227q104 0 177.5 -40t111 -110.5t37.5 -163.5q0 -109 -52 -201t-149.5 -146.5t-225.5 -54.5h-253zM295 128q84 0 149 33.5t100.5 92.5t35.5 133q0 98 -51 149.5t-153 51.5h-101l-82 -460h102zM254 904l1 8h121l31 -59h12l49 59h129l-1 -8l-132 -126h-119z" />
    <glyph glyph-name="dcaron" unicode="&#x10f;" horiz-adv-x="744" 
d="M130.5 14.5q-47.5 30.5 -74 84.5t-26.5 120q0 86 36.5 156t102 110.5t149.5 40.5q53 0 95.5 -23.5t57.5 -54.5h8l3 72l35 196h130l-126 -716h-123l11 61h-8q-24 -35 -65 -56t-99 -21q-59 0 -106.5 30.5zM364.5 126q36.5 21 59 61t22.5 94t-35.5 88.5t-88.5 34.5
q-47 0 -83.5 -22.5t-57 -62t-20.5 -88.5q0 -56 36 -91t89 -35q42 0 78.5 21zM703 716h138l-77 -201h-97z" />
    <glyph glyph-name="Dcroat" unicode="&#x110;" horiz-adv-x="730" 
d="M12 317l18 110h73l52 289h227q104 0 177.5 -40t111 -110.5t37.5 -163.5q0 -109 -52 -201t-149.5 -146.5t-225.5 -54.5h-253l55 317h-71zM436 161.5q65 33.5 100.5 92.5t35.5 133q0 98 -51 149.5t-153 51.5h-101l-29 -161h184l-19 -110h-185l-33 -189h102q84 0 149 33.5z
" />
    <glyph glyph-name="dcroat" unicode="&#x111;" horiz-adv-x="630" 
d="M130.5 14.5q-47.5 30.5 -74 84.5t-26.5 120q0 86 36.5 156t102 110.5t149.5 40.5q53 0 95.5 -23.5t57.5 -54.5h8l3 72l9 51h-139l17 91h137l11 54h130l-10 -54h61l-17 -91h-59l-101 -571h-123l11 61h-8q-24 -35 -65 -56t-99 -21q-59 0 -106.5 30.5zM364.5 126
q36.5 21 59 61t22.5 94t-35.5 88.5t-88.5 34.5q-47 0 -83.5 -22.5t-57 -62t-20.5 -88.5q0 -56 36 -91t89 -35q42 0 78.5 21z" />
    <glyph glyph-name="Emacron" unicode="&#x112;" horiz-adv-x="593" 
d="M163 716h454l-23 -128h-319l-30 -166h288l-23 -128h-288l-29 -166h319l-22 -128h-454zM257 893h296l-18 -100h-296z" />
    <glyph glyph-name="emacron" unicode="&#x113;" horiz-adv-x="588" 
d="M146 16.5q-54 32.5 -83.5 88t-29.5 121.5q0 80 38 148.5t106.5 110t154.5 41.5q69 0 120 -30t78 -79t27 -106q0 -45 -13 -87h-383l-1 -11q1 -53 36.5 -83t85.5 -30q55 0 89 18.5t57 57.5l99 -52q-44 -70 -104 -105t-152 -35q-71 0 -125 32.5zM436 317v4q0 40 -32 69
t-84 29q-51 0 -89.5 -30t-53.5 -72h259zM219 729h296l-17 -100h-297z" />
    <glyph glyph-name="Ebreve" unicode="&#x114;" horiz-adv-x="593" 
d="M163 716h454l-23 -128h-319l-30 -166h288l-23 -128h-288l-29 -166h319l-22 -128h-454zM301.5 795q-34.5 32 -34.5 81q0 13 2 23h92q-1 -4 -1 -9q0 -16 10 -26.5t28 -10.5q19 0 33 13t18 33h92q-10 -66 -51 -101t-104 -35q-50 0 -84.5 32z" />
    <glyph glyph-name="ebreve" unicode="&#x115;" horiz-adv-x="588" 
d="M146 16.5q-54 32.5 -83.5 88t-29.5 121.5q0 80 38 148.5t106.5 110t154.5 41.5q69 0 120 -30t78 -79t27 -106q0 -45 -13 -87h-383l-1 -11q1 -53 36.5 -83t85.5 -30q55 0 89 18.5t57 57.5l99 -52q-44 -70 -104 -105t-152 -35q-71 0 -125 32.5zM436 317v4q0 40 -32 69
t-84 29q-51 0 -89.5 -30t-53.5 -72h259zM262.5 630.5q-34.5 31.5 -34.5 80.5q0 5 2 23h93q-1 -4 -1 -9q0 -15 9.5 -25.5t27.5 -10.5q20 0 34 12.5t17 32.5h92q-10 -66 -51 -100.5t-104 -34.5q-50 0 -84.5 31.5z" />
    <glyph glyph-name="Edotaccent" unicode="&#x116;" horiz-adv-x="593" 
d="M163 716h454l-23 -128h-319l-30 -166h288l-23 -128h-288l-29 -166h319l-22 -128h-454zM349 806q-21 21 -21 50t20.5 50t49.5 21q30 0 50.5 -21t20.5 -50t-20.5 -50t-50.5 -21q-28 0 -49 21z" />
    <glyph glyph-name="edotaccent" unicode="&#x117;" horiz-adv-x="588" 
d="M146 16.5q-54 32.5 -83.5 88t-29.5 121.5q0 80 38 148.5t106.5 110t154.5 41.5q69 0 120 -30t78 -79t27 -106q0 -45 -13 -87h-383l-1 -11q1 -53 36.5 -83t85.5 -30q55 0 89 18.5t57 57.5l99 -52q-44 -70 -104 -105t-152 -35q-71 0 -125 32.5zM436 317v4q0 40 -32 69
t-84 29q-51 0 -89.5 -30t-53.5 -72h259zM304 617.5q-22 22.5 -22 53.5t22 53t54 22q31 0 53 -21.5t22 -53.5t-22 -54t-53 -22q-32 0 -54 22.5z" />
    <glyph glyph-name="Eogonek" unicode="&#x118;" horiz-adv-x="593" 
d="M275 588l-30 -166h288l-23 -128h-288l-29 -166h319l-22 -128q-34 -19 -59.5 -45t-25.5 -52q0 -15 9 -23.5t24 -8.5q18 0 42 11l-17 -96q-30 -10 -60 -10q-53 0 -83.5 27t-30.5 70q0 40 22.5 72.5t61.5 54.5h-337l127 716h454l-23 -128h-319z" />
    <glyph glyph-name="eogonek" unicode="&#x119;" horiz-adv-x="588" 
d="M217.5 -196.5q-31.5 27.5 -31.5 69.5q0 34 16 62.5t45 49.5q-64 5 -113 39t-75 87t-26 115q0 80 38 148.5t106.5 110t154.5 41.5q69 0 120 -30t78 -79t27 -106q0 -45 -13 -87h-383l-1 -11q1 -53 36.5 -83t85.5 -30q55 0 89 18.5t57 57.5l99 -52q-26 -42 -58 -71.5
t-74 -48.5q-40 -17 -67 -45t-27 -56q0 -15 9 -23.5t24 -8.5t30 7l11 -88q-31 -14 -72 -14q-54 0 -85.5 27.5zM436 317v4q0 40 -32 69t-84 29q-51 0 -89.5 -30t-53.5 -72h259z" />
    <glyph glyph-name="Ecaron" unicode="&#x11a;" horiz-adv-x="593" 
d="M163 716h454l-23 -128h-319l-30 -166h288l-23 -128h-288l-29 -166h319l-22 -128h-454zM238 904l1 8h121l31 -59h12l49 59h129l-1 -8l-132 -126h-119z" />
    <glyph glyph-name="ecaron" unicode="&#x11b;" horiz-adv-x="588" 
d="M146 16.5q-54 32.5 -83.5 88t-29.5 121.5q0 80 38 148.5t106.5 110t154.5 41.5q69 0 120 -30t78 -79t27 -106q0 -45 -13 -87h-383l-1 -11q1 -53 36.5 -83t85.5 -30q55 0 89 18.5t57 57.5l99 -52q-44 -70 -104 -105t-152 -35q-71 0 -125 32.5zM436 317v4q0 40 -32 69
t-84 29q-51 0 -89.5 -30t-53.5 -72h259zM199 727l2 9h120l32 -59h12l48 59h130l-2 -9l-132 -125h-118z" />
    <glyph glyph-name="Gcircumflex" unicode="&#x11c;" horiz-adv-x="826" 
d="M224.5 27q-78.5 43 -122.5 120.5t-44 176.5q0 108 54.5 202t153.5 150t225 56q88 0 157 -31t111 -86l-107 -91q-26 36 -71.5 58t-103.5 22q-78 0 -142.5 -34.5t-102.5 -97t-38 -142.5q0 -66 28.5 -115.5t77.5 -76t111 -26.5q101 0 167 57q46 40 69 109h-222l21 115h350
q1 -8 1 -21q0 -88 -32.5 -161.5t-89.5 -126.5q-54 -49 -123 -74.5t-148 -25.5q-101 0 -179.5 43zM326 786l132 126h119l91 -126l-1 -8h-121l-31 59h-12l-49 -59h-129z" />
    <glyph glyph-name="gcircumflex" unicode="&#x11d;" horiz-adv-x="624" 
d="M71 -189.5q-59 42.5 -73 105.5l128 48q10 -38 38.5 -59t71.5 -21q136 0 160 139l8 47h-8q-25 -36 -62 -53t-92 -17q-59 0 -106 29t-74 80t-27 115q0 81 34 150t98 110.5t148 41.5q51 0 90.5 -18t58.5 -52h8l10 54h125l-86 -486q-23 -128 -95.5 -192t-203.5 -64
q-92 0 -151 42.5zM361.5 140.5q36.5 21.5 58 59.5t21.5 84q0 56 -34 89.5t-83 33.5q-44 0 -80 -21.5t-57 -60.5t-21 -88q0 -56 33 -87t82 -31q44 0 80.5 21.5zM171 610l132 126h119l91 -126l-2 -8h-120l-32 58h-12l-48 -58h-130z" />
    <glyph glyph-name="Gbreve" unicode="&#x11e;" horiz-adv-x="826" 
d="M224.5 27q-78.5 43 -122.5 120.5t-44 176.5q0 108 54.5 202t153.5 150t225 56q88 0 157 -31t111 -86l-107 -91q-26 36 -71.5 58t-103.5 22q-78 0 -142.5 -34.5t-102.5 -97t-38 -142.5q0 -66 28.5 -115.5t77.5 -76t111 -26.5q101 0 167 57q46 40 69 109h-222l21 115h350
q1 -8 1 -21q0 -88 -32.5 -161.5t-89.5 -126.5q-54 -49 -123 -74.5t-148 -25.5q-101 0 -179.5 43zM414.5 795q-34.5 32 -34.5 81q0 13 2 23h92q-1 -4 -1 -9q0 -16 10 -26.5t28 -10.5q19 0 33 13t18 33h92q-10 -66 -51 -101t-104 -35q-50 0 -84.5 32z" />
    <glyph glyph-name="gbreve" unicode="&#x11f;" horiz-adv-x="624" 
d="M71 -189.5q-59 42.5 -73 105.5l128 48q10 -38 38.5 -59t71.5 -21q136 0 160 139l8 47h-8q-25 -36 -62 -53t-92 -17q-59 0 -106 29t-74 80t-27 115q0 81 34 150t98 110.5t148 41.5q51 0 90.5 -18t58.5 -52h8l10 54h125l-86 -486q-23 -128 -95.5 -192t-203.5 -64
q-92 0 -151 42.5zM361.5 140.5q36.5 21.5 58 59.5t21.5 84q0 56 -34 89.5t-83 33.5q-44 0 -80 -21.5t-57 -60.5t-21 -88q0 -56 33 -87t82 -31q44 0 80.5 21.5zM259.5 630.5q-34.5 31.5 -34.5 80.5q0 5 2 23h93q-1 -4 -1 -9q0 -15 9.5 -25.5t27.5 -10.5q20 0 34 12.5t17 32.5
h92q-10 -66 -51 -100.5t-104 -34.5q-50 0 -84.5 31.5z" />
    <glyph glyph-name="Gdotaccent" unicode="&#x120;" horiz-adv-x="826" 
d="M224.5 27q-78.5 43 -122.5 120.5t-44 176.5q0 108 54.5 202t153.5 150t225 56q88 0 157 -31t111 -86l-107 -91q-26 36 -71.5 58t-103.5 22q-78 0 -142.5 -34.5t-102.5 -97t-38 -142.5q0 -66 28.5 -115.5t77.5 -76t111 -26.5q101 0 167 57q46 40 69 109h-222l21 115h350
q1 -8 1 -21q0 -88 -32.5 -161.5t-89.5 -126.5q-54 -49 -123 -74.5t-148 -25.5q-101 0 -179.5 43zM462 806q-21 21 -21 50t20.5 50t49.5 21q30 0 50.5 -21t20.5 -50t-20.5 -50t-50.5 -21q-28 0 -49 21z" />
    <glyph glyph-name="gdotaccent" unicode="&#x121;" horiz-adv-x="624" 
d="M71 -189.5q-59 42.5 -73 105.5l128 48q10 -38 38.5 -59t71.5 -21q136 0 160 139l8 47h-8q-25 -36 -62 -53t-92 -17q-59 0 -106 29t-74 80t-27 115q0 81 34 150t98 110.5t148 41.5q51 0 90.5 -18t58.5 -52h8l10 54h125l-86 -486q-23 -128 -95.5 -192t-203.5 -64
q-92 0 -151 42.5zM361.5 140.5q36.5 21.5 58 59.5t21.5 84q0 56 -34 89.5t-83 33.5q-44 0 -80 -21.5t-57 -60.5t-21 -88q0 -56 33 -87t82 -31q44 0 80.5 21.5zM301 617.5q-22 22.5 -22 53.5t22 53t54 22q31 0 53 -21.5t22 -53.5t-22 -54t-53 -22q-32 0 -54 22.5z" />
    <glyph glyph-name="uni0122" unicode="&#x122;" horiz-adv-x="826" 
d="M224.5 27q-78.5 43 -122.5 120.5t-44 176.5q0 108 54.5 202t153.5 150t225 56q88 0 157 -31t111 -86l-107 -91q-26 36 -71.5 58t-103.5 22q-78 0 -142.5 -34.5t-102.5 -97t-38 -142.5q0 -66 28.5 -115.5t77.5 -76t111 -26.5q101 0 167 57q46 40 69 109h-222l21 115h350
q1 -8 1 -21q0 -88 -32.5 -161.5t-89.5 -126.5q-54 -49 -123 -74.5t-148 -25.5q-101 0 -179.5 43zM356 -177q-19 7 -30.5 23.5t-11.5 37.5q0 27 20 47.5t48 20.5t48 -20t20 -49q0 -33 -19 -55l-82 -99l-43 37z" />
    <glyph glyph-name="uni0123" unicode="&#x123;" horiz-adv-x="624" 
d="M71 -189.5q-59 42.5 -73 105.5l128 48q10 -38 38.5 -59t71.5 -21q136 0 160 139l8 47h-8q-25 -36 -62 -53t-92 -17q-59 0 -106 29t-74 80t-27 115q0 81 34 150t98 110.5t148 41.5q51 0 90.5 -18t58.5 -52h8l10 54h125l-86 -486q-23 -128 -95.5 -192t-203.5 -64
q-92 0 -151 42.5zM361.5 140.5q36.5 21.5 58 59.5t21.5 84q0 56 -34 89.5t-83 33.5q-44 0 -80 -21.5t-57 -60.5t-21 -88q0 -56 33 -87t82 -31q44 0 80.5 21.5zM377 721q19 -7 30.5 -23.5t11.5 -37.5q0 -27 -20 -47.5t-48 -20.5t-48 20t-20 49q0 33 19 55l82 99l43 -37z" />
    <glyph glyph-name="Hcircumflex" unicode="&#x124;" horiz-adv-x="734" 
d="M163 716h134l-51 -286h302l51 286h135l-127 -716h-135l54 302h-302l-54 -302h-134zM287 786l132 126h119l91 -126l-1 -8h-121l-31 59h-12l-49 -59h-129z" />
    <glyph glyph-name="hcircumflex" unicode="&#x125;" horiz-adv-x="600" 
d="M146 716h131l-33 -181l-23 -89h8q25 38 66 59t95 21q76 0 120 -44.5t44 -113.5q0 -33 -6 -65l-54 -303h-131l53 293q4 24 4 39q0 30 -22.5 51t-59.5 21q-57 0 -92.5 -38.5t-48.5 -111.5l-46 -254h-131zM50 774l132 126h119l91 -126l-2 -8h-120l-32 58h-12l-48 -58h-130z
" />
    <glyph glyph-name="Hbar" unicode="&#x126;" horiz-adv-x="734" 
d="M60 493l18 98h62l23 125h134l-22 -125h302l22 125h135l-22 -125h62l-17 -98h-63l-87 -493h-135l54 302h-302l-54 -302h-134l87 493h-63zM559 493h-302l-11 -63h302z" />
    <glyph glyph-name="hbar" unicode="&#x127;" horiz-adv-x="600" 
d="M121 571h-58l15 91h58l10 54h131l-11 -54h136l-16 -91h-135l-7 -36l-23 -89h8q25 38 66 59t95 21q76 0 120 -44.5t44 -113.5q0 -33 -6 -65l-54 -303h-131l53 293q4 24 4 39q0 30 -22.5 51t-59.5 21q-57 0 -92.5 -38.5t-48.5 -111.5l-46 -254h-131z" />
    <glyph glyph-name="Itilde" unicode="&#x128;" horiz-adv-x="298" 
d="M163 716h134l-127 -716h-134zM276.5 777.5q-16.5 6.5 -40.5 19.5q-30 17 -45 17q-26 0 -33 -29h-92q8 63 42 95.5t86 32.5q20 0 36.5 -6.5t40.5 -19.5q30 -17 45 -17q26 0 33 29h92q-8 -63 -42 -95.5t-86 -32.5q-20 0 -36.5 6.5z" />
    <glyph glyph-name="itilde" unicode="&#x129;" horiz-adv-x="276" 
d="M118 510h130l-89 -510h-130zM235 613.5q-17 6.5 -38 18.5q-31 18 -47 18q-25 0 -32 -29h-92q8 62 41.5 94.5t85.5 32.5q21 0 38 -7t39 -19q12 -7 24.5 -12t21.5 -5q26 0 32 29h92q-8 -62 -41.5 -94.5t-85.5 -32.5q-21 0 -38 6.5z" />
    <glyph glyph-name="Imacron" unicode="&#x12a;" horiz-adv-x="298" 
d="M124 893h274l-17 -100h-275zM163 716h134l-127 -716h-134z" />
    <glyph glyph-name="imacron" unicode="&#x12b;" horiz-adv-x="276" 
d="M118 510h130l-89 -510h-130zM73 729h296l-17 -100h-297z" />
    <glyph glyph-name="Ibreve" unicode="&#x12c;" horiz-adv-x="298" 
d="M163 716h134l-127 -716h-134zM159.5 795q-34.5 32 -34.5 81q0 13 2 23h92q-1 -4 -1 -9q0 -16 10 -26.5t28 -10.5q19 0 33 13t18 33h92q-10 -66 -51 -101t-104 -35q-50 0 -84.5 32z" />
    <glyph glyph-name="ibreve" unicode="&#x12d;" horiz-adv-x="276" 
d="M118 510h130l-89 -510h-130zM116.5 630.5q-34.5 31.5 -34.5 80.5q0 5 2 23h93q-1 -4 -1 -9q0 -15 9.5 -25.5t27.5 -10.5q20 0 34 12.5t17 32.5h92q-10 -66 -51 -100.5t-104 -34.5q-50 0 -84.5 31.5z" />
    <glyph glyph-name="Iogonek" unicode="&#x12e;" horiz-adv-x="298" 
d="M-0.5 -197q-30.5 27 -30.5 70q0 37 21 68.5t56 53.5l-1 5h-9l127 716h134l-127 -716q-34 -19 -59.5 -45t-25.5 -52q0 -15 9 -23.5t24 -8.5q18 0 42 11l-17 -96q-29 -10 -59 -10q-54 0 -84.5 27z" />
    <glyph glyph-name="iogonek" unicode="&#x12f;" horiz-adv-x="276" 
d="M148 591q-25 25 -25 60t25 59.5t60 24.5t59.5 -24.5t24.5 -59.5t-24.5 -60t-59.5 -25t-60 25zM-12 -197q-30 27 -30 70q0 37 19 67.5t54 52.5l-3 7l89 510h131l-89 -510q-34 -19 -60 -45t-26 -52q0 -15 9 -23.5t24 -8.5q19 0 43 11l-17 -96q-30 -10 -60 -10q-54 0 -84 27
z" />
    <glyph glyph-name="Idotaccent" unicode="&#x130;" horiz-adv-x="298" 
d="M163 716h134l-127 -716h-134zM207 806q-21 21 -21 50t20.5 50t49.5 21q30 0 50.5 -21t20.5 -50t-20.5 -50t-50.5 -21q-28 0 -49 21z" />
    <glyph glyph-name="dotlessi" unicode="&#x131;" horiz-adv-x="276" 
d="M118 510h130l-89 -510h-130z" />
    <glyph glyph-name="Jcircumflex" unicode="&#x134;" horiz-adv-x="569" 
d="M130 6q-47 22 -78 61.5t-37 89.5l129 50q5 -46 33 -70.5t70 -24.5q45 0 75.5 30t40.5 84l86 490h135l-87 -489q-22 -124 -92 -183.5t-173 -59.5q-55 0 -102 22zM356 786l132 126h119l91 -126l-1 -8h-121l-31 59h-12l-49 -59h-129z" />
    <glyph glyph-name="jcircumflex" unicode="&#x135;" horiz-adv-x="277" 
d="M-77.5 -223.5q-20.5 2.5 -32.5 6.5l22 122q20 -11 50 -11q26 0 39 14t18 42l99 560h130l-99 -564q-18 -99 -64 -135.5t-124 -36.5q-18 0 -38.5 2.5zM28 610l132 126h119l91 -126l-2 -8h-120l-32 58h-12l-48 -58h-130z" />
    <glyph glyph-name="uni0136" unicode="&#x136;" horiz-adv-x="683" 
d="M163 716h134l-53 -303h8l311 303h168l-2 -8l-312 -298l212 -402l-1 -8h-158l-161 307l-101 -97l-38 -210h-134zM280 -177q-19 7 -30.5 23.5t-11.5 37.5q0 27 20 47.5t48 20.5t48 -20t20 -49q0 -33 -19 -55l-82 -99l-43 37z" />
    <glyph glyph-name="uni0137" unicode="&#x137;" horiz-adv-x="561" 
d="M147 716h131l-67 -385h7l206 179h169l-2 -8l-231 -194l150 -300l-1 -8h-149l-105 222l-75 -63l-28 -159h-131zM219 -177q-19 7 -30.5 23.5t-11.5 37.5q0 27 20 47.5t48 20.5t48 -20t20 -49q0 -33 -19 -55l-82 -99l-43 37z" />
    <glyph glyph-name="kgreenlandic" unicode="&#x138;" horiz-adv-x="541" 
d="M111 510h131l-39 -219h8l203 219h157l-2 -8l-228 -240l149 -254l-1 -8h-148l-138 244h-8l-44 -244h-130z" />
    <glyph glyph-name="Lacute" unicode="&#x139;" horiz-adv-x="550" 
d="M163 716h134l-104 -588h303l-22 -128h-438zM253 908h154l-114 -136h-106z" />
    <glyph glyph-name="lacute" unicode="&#x13a;" horiz-adv-x="260" 
d="M146 716h131l-126 -716h-131zM235 908h153l-113 -136h-106z" />
    <glyph glyph-name="uni013B" unicode="&#x13b;" horiz-adv-x="550" 
d="M163 716h134l-104 -588h303l-22 -128h-438zM234 -177q-19 7 -30.5 23.5t-11.5 37.5q0 27 20 47.5t48 20.5t48 -20t20 -49q0 -33 -19 -55l-82 -99l-43 37z" />
    <glyph glyph-name="uni013C" unicode="&#x13c;" horiz-adv-x="260" 
d="M146 716h131l-126 -716h-131zM44 -177q-19 7 -30.5 23.5t-11.5 37.5q0 27 20 47.5t48 20.5t48 -20t20 -49q0 -33 -19 -55l-82 -99l-43 37z" />
    <glyph glyph-name="Lcaron" unicode="&#x13d;" horiz-adv-x="550" 
d="M163 716h134l-104 -588h303l-22 -128h-438zM432 716h138l-77 -201h-97z" />
    <glyph glyph-name="lcaron" unicode="&#x13e;" horiz-adv-x="402" 
d="M146 716h131l-126 -716h-131zM341 716h138l-77 -201h-97z" />
    <glyph glyph-name="Ldot" unicode="&#x13f;" horiz-adv-x="550" 
d="M163 716h134l-104 -588h303l-22 -128h-438zM348.5 282.5q-25.5 25.5 -25.5 61.5t25.5 61.5t61.5 25.5t61.5 -25.5t25.5 -61.5t-25.5 -61.5t-61.5 -25.5t-61.5 25.5z" />
    <glyph glyph-name="Lslash" unicode="&#x141;" horiz-adv-x="623" 
d="M93 214l-49 91l132 74l60 337h134l-44 -250l121 68l49 -88l-193 -109l-37 -209h303l-22 -128h-438l43 247z" />
    <glyph glyph-name="lslash" unicode="&#x142;" horiz-adv-x="419" 
d="M144 272l-52 -33l-54 85l130 84l55 308h131l-39 -216l67 44l56 -86l-147 -95l-64 -363h-131z" />
    <glyph glyph-name="Nacute" unicode="&#x143;" horiz-adv-x="742" 
d="M163 716h149l211 -480h8l16 138l61 342h133l-127 -716h-133l-222 507h-8l-16 -138l-66 -369h-133zM473 908h154l-114 -136h-106z" />
    <glyph glyph-name="nacute" unicode="&#x144;" horiz-adv-x="600" 
d="M229 446q26 38 67.5 59t95.5 21q78 0 120 -44t42 -112q0 -34 -5 -62l-55 -308h-131l52 293q4 22 4 38q0 31 -22 52t-58 21q-58 0 -94 -38.5t-48 -105.5l-46 -260h-131l90 510h122l-11 -64h8zM389 744h153l-113 -136h-106z" />
    <glyph glyph-name="uni0145" unicode="&#x145;" horiz-adv-x="742" 
d="M163 716h149l211 -480h8l16 138l61 342h133l-127 -716h-133l-222 507h-8l-16 -138l-66 -369h-133zM286 -177q-19 7 -30.5 23.5t-11.5 37.5q0 27 20 47.5t48 20.5t48 -20t20 -49q0 -33 -19 -55l-82 -99l-43 37z" />
    <glyph glyph-name="uni0146" unicode="&#x146;" horiz-adv-x="600" 
d="M229 446q26 38 67.5 59t95.5 21q78 0 120 -44t42 -112q0 -34 -5 -62l-55 -308h-131l52 293q4 22 4 38q0 31 -22 52t-58 21q-58 0 -94 -38.5t-48 -105.5l-46 -260h-131l90 510h122l-11 -64h8zM217 -177q-19 7 -30.5 23.5t-11.5 37.5q0 27 20 47.5t48 20.5t48 -20t20 -49
q0 -33 -19 -55l-82 -99l-43 37z" />
    <glyph glyph-name="Ncaron" unicode="&#x147;" horiz-adv-x="742" 
d="M163 716h149l211 -480h8l16 138l61 342h133l-127 -716h-133l-222 507h-8l-16 -138l-66 -369h-133zM315 904l1 8h121l31 -59h12l49 59h129l-1 -8l-132 -126h-119z" />
    <glyph glyph-name="ncaron" unicode="&#x148;" horiz-adv-x="600" 
d="M229 446q26 38 67.5 59t95.5 21q78 0 120 -44t42 -112q0 -34 -5 -62l-55 -308h-131l52 293q4 22 4 38q0 31 -22 52t-58 21q-58 0 -94 -38.5t-48 -105.5l-46 -260h-131l90 510h122l-11 -64h8zM229 727l2 9h120l32 -59h12l48 59h130l-2 -9l-132 -125h-118z" />
    <glyph glyph-name="Eng" unicode="&#x14a;" horiz-adv-x="742" 
d="M347 -219l22 126q23 -13 48 -13q24 0 37.5 14.5t18.5 44.5l9 48l-223 506h-8l-16 -138l-66 -369h-133l127 716h151l210 -470h8l17 138l59 332h133l-135 -766q-16 -90 -69.5 -133t-124.5 -43q-37 0 -65 7z" />
    <glyph glyph-name="eng" unicode="&#x14b;" horiz-adv-x="600" 
d="M226 -217l22 122q20 -11 51 -11q25 0 38 14t18 42l60 343q4 22 4 38q0 31 -22 52t-58 21q-58 0 -94 -38.5t-48 -105.5l-46 -260h-131l90 510h122l-11 -64h8q26 38 67.5 59t95.5 21q78 0 120 -44t42 -112q0 -34 -5 -62l-64 -362q-18 -99 -64 -135.5t-124 -36.5
q-40 0 -71 9z" />
    <glyph glyph-name="Omacron" unicode="&#x14c;" horiz-adv-x="840" 
d="M222.5 25.5q-77.5 41.5 -121.5 117.5t-44 174q0 112 53.5 207t150.5 151.5t220 56.5q98 0 175 -43t120 -119t43 -171q0 -112 -53.5 -207t-150 -151.5t-219.5 -56.5q-96 0 -173.5 41.5zM547 150q63 38 99.5 103.5t36.5 143.5q0 60 -28 107t-77 73.5t-109 26.5
q-77 0 -140 -38t-99.5 -102.5t-36.5 -141.5q0 -61 28 -109t77 -74.5t109 -26.5q77 0 140 38zM370 893h296l-18 -100h-296z" />
    <glyph glyph-name="omacron" unicode="&#x14d;" horiz-adv-x="609" 
d="M146.5 15.5q-54.5 31.5 -84.5 85.5t-30 121q0 85 38 154.5t107 109.5t159 40q71 0 125.5 -31.5t84.5 -85.5t30 -121q0 -85 -38 -154.5t-107 -109.5t-159 -40q-71 0 -125.5 31.5zM366 127q36 22 57 61t21 86q0 57 -33 93.5t-90 36.5q-43 0 -79 -22t-57 -60.5t-21 -85.5
q0 -58 33 -94.5t90 -36.5q43 0 79 22zM228 729h296l-17 -100h-297z" />
    <glyph glyph-name="Obreve" unicode="&#x14e;" horiz-adv-x="840" 
d="M222.5 25.5q-77.5 41.5 -121.5 117.5t-44 174q0 112 53.5 207t150.5 151.5t220 56.5q98 0 175 -43t120 -119t43 -171q0 -112 -53.5 -207t-150 -151.5t-219.5 -56.5q-96 0 -173.5 41.5zM547 150q63 38 99.5 103.5t36.5 143.5q0 60 -28 107t-77 73.5t-109 26.5
q-77 0 -140 -38t-99.5 -102.5t-36.5 -141.5q0 -61 28 -109t77 -74.5t109 -26.5q77 0 140 38zM414.5 795q-34.5 32 -34.5 81q0 13 2 23h92q-1 -4 -1 -9q0 -16 10 -26.5t28 -10.5q19 0 33 13t18 33h92q-10 -66 -51 -101t-104 -35q-50 0 -84.5 32z" />
    <glyph glyph-name="obreve" unicode="&#x14f;" horiz-adv-x="609" 
d="M146.5 15.5q-54.5 31.5 -84.5 85.5t-30 121q0 85 38 154.5t107 109.5t159 40q71 0 125.5 -31.5t84.5 -85.5t30 -121q0 -85 -38 -154.5t-107 -109.5t-159 -40q-71 0 -125.5 31.5zM366 127q36 22 57 61t21 86q0 57 -33 93.5t-90 36.5q-43 0 -79 -22t-57 -60.5t-21 -85.5
q0 -58 33 -94.5t90 -36.5q43 0 79 22zM271.5 630.5q-34.5 31.5 -34.5 80.5q0 5 2 23h93q-1 -4 -1 -9q0 -15 9.5 -25.5t27.5 -10.5q20 0 34 12.5t17 32.5h92q-10 -66 -51 -100.5t-104 -34.5q-50 0 -84.5 31.5z" />
    <glyph glyph-name="Ohungarumlaut" unicode="&#x150;" horiz-adv-x="840" 
d="M222.5 25.5q-77.5 41.5 -121.5 117.5t-44 174q0 112 53.5 207t150.5 151.5t220 56.5q98 0 175 -43t120 -119t43 -171q0 -112 -53.5 -207t-150 -151.5t-219.5 -56.5q-96 0 -173.5 41.5zM547 150q63 38 99.5 103.5t36.5 143.5q0 60 -28 107t-77 73.5t-109 26.5
q-77 0 -140 -38t-99.5 -102.5t-36.5 -141.5q0 -61 28 -109t77 -74.5t109 -26.5q77 0 140 38zM410 908h154l-114 -136h-106zM608 908h154l-114 -136h-106z" />
    <glyph glyph-name="ohungarumlaut" unicode="&#x151;" horiz-adv-x="609" 
d="M146.5 15.5q-54.5 31.5 -84.5 85.5t-30 121q0 85 38 154.5t107 109.5t159 40q71 0 125.5 -31.5t84.5 -85.5t30 -121q0 -85 -38 -154.5t-107 -109.5t-159 -40q-71 0 -125.5 31.5zM366 127q36 22 57 61t21 86q0 57 -33 93.5t-90 36.5q-43 0 -79 -22t-57 -60.5t-21 -85.5
q0 -58 33 -94.5t90 -36.5q43 0 79 22zM268 744h154l-114 -136h-106zM467 744h154l-114 -136h-106z" />
    <glyph glyph-name="OE" unicode="&#x152;" horiz-adv-x="1160" 
d="M217.5 26q-74.5 42 -118 118t-43.5 173q0 111 54 206.5t150.5 152t217.5 56.5q76 0 134.5 -25t95.5 -70h7l15 79h454l-23 -128h-319l-30 -166h288l-23 -128h-288l-29 -166h319l-22 -128h-454l12 69h-6q-41 -41 -98.5 -63t-127.5 -22q-91 0 -165.5 42zM544 149
q62 37 97 100.5t35 139.5q0 64 -27 113t-75 75.5t-109 26.5q-76 0 -138.5 -37.5t-98.5 -102.5t-36 -144q0 -60 28.5 -107.5t77 -74t106.5 -26.5q78 0 140 37z" />
    <glyph glyph-name="oe" unicode="&#x153;" horiz-adv-x="1000" 
d="M147 15.5q-55 31.5 -85 85.5t-30 121q0 85 38.5 154.5t108 109.5t158.5 40q59 0 108 -25t80 -68q41 44 96.5 68.5t120.5 24.5q70 0 121.5 -30t78.5 -79.5t27 -105.5q0 -50 -14 -87h-383v-11q1 -53 36 -83t86 -30q55 0 89 18.5t57 57.5l98 -52q-43 -70 -103.5 -105
t-150.5 -35q-61 0 -109.5 24t-80.5 67q-40 -43 -96 -67t-124 -24q-72 0 -127 31.5zM847 317v4q0 41 -33 69.5t-82 28.5q-52 0 -90.5 -30t-53.5 -72h259zM367.5 127q36.5 22 58 61t21.5 86q0 57 -33.5 93.5t-90.5 36.5q-43 0 -79.5 -22t-58 -60.5t-21.5 -85.5q0 -57 33.5 -94
t90.5 -37q43 0 79.5 22z" />
    <glyph glyph-name="Racute" unicode="&#x154;" horiz-adv-x="634" 
d="M163 716h235q67 0 119 -26.5t80.5 -72t28.5 -100.5q0 -59 -25 -107.5t-68 -80.5t-95 -44l-3 -7l140 -270l-1 -8h-147l-138 269h-71l-48 -269h-134zM365 393q56 0 90.5 28.5t34.5 82.5q0 39 -26.5 63t-70.5 24h-118l-35 -198h125zM387 908h154l-114 -136h-106z" />
    <glyph glyph-name="racute" unicode="&#x155;" horiz-adv-x="427" 
d="M110 510h122l-11 -62h8q23 36 66 56.5t95 20.5q37 0 61 -11l-23 -134q-15 10 -36.5 16t-42.5 6q-59 0 -100.5 -42t-53.5 -106l-44 -254h-131zM307 744h153l-113 -136h-106z" />
    <glyph glyph-name="uni0156" unicode="&#x156;" horiz-adv-x="634" 
d="M163 716h235q67 0 119 -26.5t80.5 -72t28.5 -100.5q0 -59 -25 -107.5t-68 -80.5t-95 -44l-3 -7l140 -270l-1 -8h-147l-138 269h-71l-48 -269h-134zM365 393q56 0 90.5 28.5t34.5 82.5q0 39 -26.5 63t-70.5 24h-118l-35 -198h125zM255 -177q-19 7 -30.5 23.5t-11.5 37.5
q0 27 20 47.5t48 20.5t48 -20t20 -49q0 -33 -19 -55l-82 -99l-43 37z" />
    <glyph glyph-name="uni0157" unicode="&#x157;" horiz-adv-x="427" 
d="M110 510h122l-11 -62h8q23 36 66 56.5t95 20.5q37 0 61 -11l-23 -134q-15 10 -36.5 16t-42.5 6q-59 0 -100.5 -42t-53.5 -106l-44 -254h-131zM44 -177q-19 7 -30.5 23.5t-11.5 37.5q0 27 20 47.5t48 20.5t48 -20t20 -49q0 -33 -19 -55l-82 -99l-43 37z" />
    <glyph glyph-name="Rcaron" unicode="&#x158;" horiz-adv-x="634" 
d="M163 716h235q67 0 119 -26.5t80.5 -72t28.5 -100.5q0 -59 -25 -107.5t-68 -80.5t-95 -44l-3 -7l140 -270l-1 -8h-147l-138 269h-71l-48 -269h-134zM365 393q56 0 90.5 28.5t34.5 82.5q0 39 -26.5 63t-70.5 24h-118l-35 -198h125zM229 904l1 8h121l31 -59h12l49 59h129
l-1 -8l-132 -126h-119z" />
    <glyph glyph-name="rcaron" unicode="&#x159;" horiz-adv-x="427" 
d="M110 510h122l-11 -62h8q23 36 66 56.5t95 20.5q37 0 61 -11l-23 -134q-15 10 -36.5 16t-42.5 6q-59 0 -100.5 -42t-53.5 -106l-44 -254h-131zM147 727l2 9h120l32 -59h12l48 59h130l-2 -9l-132 -125h-118z" />
    <glyph glyph-name="Sacute" unicode="&#x15a;" horiz-adv-x="590" 
d="M104 36.5q-66 52.5 -83 150.5l129 52q5 -56 38 -91.5t89 -35.5q52 0 87.5 26t35.5 69q0 37 -26 62t-89 50l-35 14q-65 25 -106 71.5t-41 118.5q0 59 33.5 107t91.5 75t129 27q68 0 115 -23.5t71.5 -58.5t31.5 -71l-124 -47q-8 35 -34.5 55.5t-72.5 20.5q-44 0 -75 -21.5
t-31 -58.5q0 -32 23.5 -54t76.5 -41l41 -15q76 -29 116.5 -76t40.5 -120q0 -69 -34.5 -123t-96.5 -84.5t-143 -30.5q-92 0 -158 52.5zM382 908h154l-114 -136h-106z" />
    <glyph glyph-name="sacute" unicode="&#x15b;" horiz-adv-x="498" 
d="M81.5 23.5q-58.5 39.5 -75.5 100.5l121 49q8 -36 38.5 -55t71.5 -19q34 0 57.5 14.5t23.5 39.5q0 44 -70 60l-50 12q-57 13 -97 50t-40 92q0 72 59.5 115.5t158.5 43.5q75 0 125.5 -30t73.5 -88l-120 -44q-9 27 -33.5 41.5t-55.5 14.5q-37 0 -57.5 -13.5t-20.5 -32.5
q0 -16 16.5 -29.5t41.5 -19.5l73 -18q60 -15 94.5 -54t34.5 -89q0 -54 -27.5 -94.5t-78 -63t-118.5 -22.5q-87 0 -145.5 39.5zM311 744h153l-113 -136h-106z" />
    <glyph glyph-name="Scircumflex" unicode="&#x15c;" horiz-adv-x="590" 
d="M104 36.5q-66 52.5 -83 150.5l129 52q5 -56 38 -91.5t89 -35.5q52 0 87.5 26t35.5 69q0 37 -26 62t-89 50l-35 14q-65 25 -106 71.5t-41 118.5q0 59 33.5 107t91.5 75t129 27q68 0 115 -23.5t71.5 -58.5t31.5 -71l-124 -47q-8 35 -34.5 55.5t-72.5 20.5q-44 0 -75 -21.5
t-31 -58.5q0 -32 23.5 -54t76.5 -41l41 -15q76 -29 116.5 -76t40.5 -120q0 -69 -34.5 -123t-96.5 -84.5t-143 -30.5q-92 0 -158 52.5zM199 786l132 126h119l91 -126l-1 -8h-121l-31 59h-12l-49 -59h-129z" />
    <glyph glyph-name="scircumflex" unicode="&#x15d;" horiz-adv-x="498" 
d="M81.5 23.5q-58.5 39.5 -75.5 100.5l121 49q8 -36 38.5 -55t71.5 -19q34 0 57.5 14.5t23.5 39.5q0 44 -70 60l-50 12q-57 13 -97 50t-40 92q0 72 59.5 115.5t158.5 43.5q75 0 125.5 -30t73.5 -88l-120 -44q-9 27 -33.5 41.5t-55.5 14.5q-37 0 -57.5 -13.5t-20.5 -32.5
q0 -16 16.5 -29.5t41.5 -19.5l73 -18q60 -15 94.5 -54t34.5 -89q0 -54 -27.5 -94.5t-78 -63t-118.5 -22.5q-87 0 -145.5 39.5zM126 610l132 126h119l91 -126l-2 -8h-120l-32 58h-12l-48 -58h-130z" />
    <glyph glyph-name="Scedilla" unicode="&#x15e;" horiz-adv-x="590" 
d="M495.5 342q40.5 -47 40.5 -120q0 -69 -34.5 -123t-96.5 -84.5t-143 -30.5l-19 -31q7 1 18 1q35 0 57 -24.5t22 -61.5q0 -48 -32.5 -76.5t-82.5 -28.5q-34 0 -62 19t-35 47l68 27q2 -12 11.5 -20t22.5 -8q15 0 25.5 9.5t10.5 25.5q0 14 -8.5 22.5t-21.5 8.5q-14 0 -28 -14
l-55 28l46 83q-69 16 -116.5 66t-61.5 130l129 52q5 -56 38 -91.5t89 -35.5q52 0 87.5 26t35.5 69q0 37 -26 62t-89 50l-35 14q-65 25 -106 71.5t-41 118.5q0 59 33.5 107t91.5 75t129 27q68 0 115 -23.5t71.5 -58.5t31.5 -71l-124 -47q-8 35 -34.5 55.5t-72.5 20.5
q-44 0 -75 -21.5t-31 -58.5q0 -32 23.5 -54t76.5 -41l41 -15q76 -29 116.5 -76z" />
    <glyph glyph-name="scedilla" unicode="&#x15f;" horiz-adv-x="498" 
d="M416.5 253q34.5 -39 34.5 -89q0 -81 -59.5 -130t-160.5 -50l-19 -31q7 1 18 1q35 0 57 -24.5t22 -61.5q0 -48 -32.5 -76.5t-82.5 -28.5q-34 0 -62 19t-35 47l68 27q2 -12 11.5 -20t22.5 -8q15 0 25.5 9.5t10.5 25.5q0 14 -8.5 22.5t-21.5 8.5q-14 0 -28 -14l-55 28l45 82
q-63 12 -105 48t-56 86l121 49q8 -36 38.5 -55t71.5 -19q34 0 57.5 14.5t23.5 39.5q0 44 -70 60l-50 12q-57 13 -97 50t-40 92q0 72 59.5 115.5t158.5 43.5q75 0 125.5 -30t73.5 -88l-120 -44q-9 27 -33.5 41.5t-55.5 14.5q-37 0 -57.5 -13.5t-20.5 -32.5q0 -16 16.5 -29.5
t41.5 -19.5l73 -18q60 -15 94.5 -54z" />
    <glyph glyph-name="Scaron" unicode="&#x160;" horiz-adv-x="590" 
d="M104 36.5q-66 52.5 -83 150.5l129 52q5 -56 38 -91.5t89 -35.5q52 0 87.5 26t35.5 69q0 37 -26 62t-89 50l-35 14q-65 25 -106 71.5t-41 118.5q0 59 33.5 107t91.5 75t129 27q68 0 115 -23.5t71.5 -58.5t31.5 -71l-124 -47q-8 35 -34.5 55.5t-72.5 20.5q-44 0 -75 -21.5
t-31 -58.5q0 -32 23.5 -54t76.5 -41l41 -15q76 -29 116.5 -76t40.5 -120q0 -69 -34.5 -123t-96.5 -84.5t-143 -30.5q-92 0 -158 52.5zM224 904l1 8h121l31 -59h12l49 59h129l-1 -8l-132 -126h-119z" />
    <glyph glyph-name="scaron" unicode="&#x161;" horiz-adv-x="498" 
d="M81.5 23.5q-58.5 39.5 -75.5 100.5l121 49q8 -36 38.5 -55t71.5 -19q34 0 57.5 14.5t23.5 39.5q0 44 -70 60l-50 12q-57 13 -97 50t-40 92q0 72 59.5 115.5t158.5 43.5q75 0 125.5 -30t73.5 -88l-120 -44q-9 27 -33.5 41.5t-55.5 14.5q-37 0 -57.5 -13.5t-20.5 -32.5
q0 -16 16.5 -29.5t41.5 -19.5l73 -18q60 -15 94.5 -54t34.5 -89q0 -54 -27.5 -94.5t-78 -63t-118.5 -22.5q-87 0 -145.5 39.5zM151 727l2 9h120l32 -59h12l48 59h130l-2 -9l-132 -125h-118z" />
    <glyph glyph-name="uni0162" unicode="&#x162;" horiz-adv-x="588" 
d="M171 -218q-28 19 -35 47l68 27q2 -12 11.5 -20t22.5 -8q15 0 25.5 9.5t10.5 25.5q0 14 -8 22.5t-22 8.5q-15 0 -27 -14l-56 28l52 92h-32l104 588h-200l23 128h534l-22 -128h-200l-105 -588h-34l-29 -47q7 1 18 1q34 0 56 -24.5t22 -61.5q0 -48 -32 -76.5t-83 -28.5
q-34 0 -62 19z" />
    <glyph glyph-name="uni0163" unicode="&#x163;" horiz-adv-x="418" 
d="M116 -218q-28 19 -34 47l68 27q2 -12 11 -20t22 -8q15 0 25.5 9.5t10.5 25.5q0 14 -8 22.5t-22 8.5q-15 0 -27 -14l-56 28l58 102q-64 34 -64 121q0 24 5 52l37 215h-88l19 112h89l26 144h130l-25 -144h125l-20 -112h-125l-37 -209q-3 -18 -3 -26q0 -21 14 -34.5
t37 -13.5q29 0 52 17l19 -117q-36 -23 -108 -23q-9 0 -25 2l-25 -41q7 1 18 1q35 0 57 -24.5t22 -61.5q0 -48 -32.5 -76.5t-82.5 -28.5q-35 0 -63 19z" />
    <glyph glyph-name="Tcaron" unicode="&#x164;" horiz-adv-x="588" 
d="M285 588h-200l23 128h534l-22 -128h-200l-105 -588h-134zM228 904l1 8h121l31 -59h12l49 59h129l-1 -8l-132 -126h-119z" />
    <glyph glyph-name="tcaron" unicode="&#x165;" horiz-adv-x="411" 
d="M386 716h118l-54 -152h-91zM137.5 27.5q-38.5 35.5 -38.5 103.5q0 19 5 52l37 215h-88l20 112h89l25 144h131l-25 -144h124l-20 -112h-125l-37 -209q-2 -11 -2 -24q0 -23 14 -36.5t37 -13.5q20 0 35.5 5.5t35.5 16.5l-22 -128q-42 -17 -91 -17q-66 0 -104.5 35.5z" />
    <glyph glyph-name="Tbar" unicode="&#x166;" horiz-adv-x="588" 
d="M237 321h-126l19 106h126l29 161h-200l23 128h534l-22 -128h-200l-29 -161h127l-19 -106h-127l-57 -321h-134z" />
    <glyph glyph-name="tbar" unicode="&#x167;" horiz-adv-x="418" 
d="M138 27.5q-39 35.5 -39 103.5q0 19 5 52l7 39h-86l17 100h87l13 76h-89l20 112h89l25 144h131l-25 -144h125l-21 -112h-124l-13 -76h106l-18 -100h-106l-6 -33q-3 -16 -3 -24q0 -23 14 -36.5t37 -13.5q21 0 36.5 5.5t34.5 16.5l-22 -128q-42 -17 -90 -17q-66 0 -105 35.5
z" />
    <glyph glyph-name="Utilde" unicode="&#x168;" horiz-adv-x="694" 
d="M183.5 13.5q-54.5 29.5 -84.5 83t-30 123.5q0 36 9 84l72 412h135l-77 -435q-4 -25 -4 -47q0 -57 30.5 -89.5t91.5 -32.5q67 0 111 44.5t58 120.5l77 439h135l-79 -447q-25 -142 -107.5 -213.5t-212.5 -71.5q-70 0 -124.5 29.5zM467.5 777.5q-16.5 6.5 -40.5 19.5
q-30 17 -45 17q-26 0 -33 -29h-92q8 63 42 95.5t86 32.5q20 0 36.5 -6.5t40.5 -19.5q30 -17 45 -17q26 0 33 29h92q-8 -63 -42 -95.5t-86 -32.5q-20 0 -36.5 6.5z" />
    <glyph glyph-name="utilde" unicode="&#x169;" horiz-adv-x="600" 
d="M371 64q-26 -39 -67.5 -59.5t-95.5 -20.5q-78 0 -120 44t-42 112q0 32 5 61l55 309h131l-52 -293q-4 -16 -4 -38q0 -32 22 -53t58 -21q58 0 94 38.5t48 106.5l46 260h131l-90 -510h-122l11 64h-8zM395 613.5q-17 6.5 -38 18.5q-31 18 -47 18q-25 0 -32 -29h-92
q8 62 41.5 94.5t85.5 32.5q21 0 38 -7t39 -19q12 -7 24.5 -12t21.5 -5q26 0 32 29h92q-8 -62 -41.5 -94.5t-85.5 -32.5q-21 0 -38 6.5z" />
    <glyph glyph-name="Umacron" unicode="&#x16a;" horiz-adv-x="694" 
d="M183.5 13.5q-54.5 29.5 -84.5 83t-30 123.5q0 36 9 84l72 412h135l-77 -435q-4 -25 -4 -47q0 -57 30.5 -89.5t91.5 -32.5q67 0 111 44.5t58 120.5l77 439h135l-79 -447q-25 -142 -107.5 -213.5t-212.5 -71.5q-70 0 -124.5 29.5zM306 893h296l-18 -100h-296z" />
    <glyph glyph-name="umacron" unicode="&#x16b;" horiz-adv-x="600" 
d="M371 64q-26 -39 -67.5 -59.5t-95.5 -20.5q-78 0 -120 44t-42 112q0 32 5 61l55 309h131l-52 -293q-4 -16 -4 -38q0 -32 22 -53t58 -21q58 0 94 38.5t48 106.5l46 260h131l-90 -510h-122l11 64h-8zM233 729h296l-17 -100h-297z" />
    <glyph glyph-name="Ubreve" unicode="&#x16c;" horiz-adv-x="694" 
d="M183.5 13.5q-54.5 29.5 -84.5 83t-30 123.5q0 36 9 84l72 412h135l-77 -435q-4 -25 -4 -47q0 -57 30.5 -89.5t91.5 -32.5q67 0 111 44.5t58 120.5l77 439h135l-79 -447q-25 -142 -107.5 -213.5t-212.5 -71.5q-70 0 -124.5 29.5zM350.5 795q-34.5 32 -34.5 81q0 13 2 23
h92q-1 -4 -1 -9q0 -16 10 -26.5t28 -10.5q19 0 33 13t18 33h92q-10 -66 -51 -101t-104 -35q-50 0 -84.5 32z" />
    <glyph glyph-name="ubreve" unicode="&#x16d;" horiz-adv-x="600" 
d="M371 64q-26 -39 -67.5 -59.5t-95.5 -20.5q-78 0 -120 44t-42 112q0 32 5 61l55 309h131l-52 -293q-4 -16 -4 -38q0 -32 22 -53t58 -21q58 0 94 38.5t48 106.5l46 260h131l-90 -510h-122l11 64h-8zM276.5 630.5q-34.5 31.5 -34.5 80.5q0 5 2 23h93q-1 -4 -1 -9
q0 -15 9.5 -25.5t27.5 -10.5q20 0 34 12.5t17 32.5h92q-10 -66 -51 -100.5t-104 -34.5q-50 0 -84.5 31.5z" />
    <glyph glyph-name="Uring" unicode="&#x16e;" horiz-adv-x="694" 
d="M183.5 13.5q-54.5 29.5 -84.5 83t-30 123.5q0 36 9 84l72 412h135l-77 -435q-4 -25 -4 -47q0 -57 30.5 -89.5t91.5 -32.5q67 0 111 44.5t58 120.5l77 439h135l-79 -447q-25 -142 -107.5 -213.5t-212.5 -71.5q-70 0 -124.5 29.5zM370.5 779.5q-31.5 31.5 -31.5 76.5
t31.5 76.5t76.5 31.5t76.5 -31.5t31.5 -76.5t-31.5 -76.5t-76.5 -31.5t-76.5 31.5zM471.5 831.5q10.5 10.5 10.5 24.5t-10.5 24.5t-24.5 10.5t-24 -10.5t-10 -24.5t10 -24.5t24 -10.5t24.5 10.5z" />
    <glyph glyph-name="uring" unicode="&#x16f;" horiz-adv-x="600" 
d="M371 64q-26 -39 -67.5 -59.5t-95.5 -20.5q-78 0 -120 44t-42 112q0 32 5 61l55 309h131l-52 -293q-4 -16 -4 -38q0 -32 22 -53t58 -21q58 0 94 38.5t48 106.5l46 260h131l-90 -510h-122l11 64h-8zM298.5 615.5q-31.5 31.5 -31.5 76.5t31.5 76.5t76.5 31.5t76.5 -31.5
t31.5 -76.5t-31.5 -76.5t-76.5 -31.5t-76.5 31.5zM399 667.5q10 10.5 10 24.5t-10.5 24t-23.5 10q-14 0 -24.5 -10t-10.5 -24t10.5 -24.5t24.5 -10.5t24 10.5z" />
    <glyph glyph-name="Uhungarumlaut" unicode="&#x170;" horiz-adv-x="694" 
d="M183.5 13.5q-54.5 29.5 -84.5 83t-30 123.5q0 36 9 84l72 412h135l-77 -435q-4 -25 -4 -47q0 -57 30.5 -89.5t91.5 -32.5q67 0 111 44.5t58 120.5l77 439h135l-79 -447q-25 -142 -107.5 -213.5t-212.5 -71.5q-70 0 -124.5 29.5zM346 908h154l-114 -136h-106zM544 908h154
l-114 -136h-106z" />
    <glyph glyph-name="uhungarumlaut" unicode="&#x171;" horiz-adv-x="600" 
d="M371 64q-26 -39 -67.5 -59.5t-95.5 -20.5q-78 0 -120 44t-42 112q0 32 5 61l55 309h131l-52 -293q-4 -16 -4 -38q0 -32 22 -53t58 -21q58 0 94 38.5t48 106.5l46 260h131l-90 -510h-122l11 64h-8zM273 744h154l-114 -136h-106zM472 744h154l-114 -136h-106z" />
    <glyph glyph-name="Uogonek" unicode="&#x172;" horiz-adv-x="694" 
d="M249.5 -197q-30.5 27 -30.5 70q0 33 17 62t45 50q-62 6 -110 36.5t-75 82t-27 116.5q0 29 9 84l72 412h135l-77 -435q-4 -20 -4 -47q0 -57 30.5 -89.5t91.5 -32.5q67 0 111.5 44.5t57.5 120.5l77 439h135l-79 -447q-19 -106 -68 -170.5t-118 -89.5q-51 -18 -79 -47
t-28 -59q0 -15 9 -23.5t24 -8.5q18 0 42 11l-17 -96q-29 -10 -59 -10q-54 0 -84.5 27z" />
    <glyph glyph-name="uogonek" unicode="&#x173;" horiz-adv-x="600" 
d="M319.5 -197q-30.5 27 -30.5 70q0 38 21.5 68.5t59.5 51.5l-2 7l11 64h-8q-26 -39 -67.5 -59.5t-95.5 -20.5q-78 0 -120 44t-42 112q0 32 5 61l55 309h131l-52 -293q-4 -24 -4 -38q0 -32 22 -53t58 -21q58 0 94 39t48 106l46 260h131l-90 -510q-34 -19 -59.5 -45
t-25.5 -52q0 -15 9 -23.5t24 -8.5q18 0 42 11l-17 -96q-29 -10 -59 -10q-54 0 -84.5 27z" />
    <glyph glyph-name="Wcircumflex" unicode="&#x174;" horiz-adv-x="984" 
d="M99 716h150l26 -402l-1 -75h8l29 75l195 402h135l51 -402l3 -73h8l26 73l168 402h151l-308 -716h-146l-49 432l-2 77h-8l-30 -77l-201 -432h-139zM411 786l132 126h119l91 -126l-1 -8h-121l-31 59h-12l-49 -59h-129z" />
    <glyph glyph-name="wcircumflex" unicode="&#x175;" horiz-adv-x="834" 
d="M53 510h140l33 -331h7l160 331h138l46 -331h7l142 331h146l-248 -510h-144l-45 330h-7l-161 -330h-140zM299 610l132 126h119l91 -126l-2 -8h-120l-32 58h-12l-48 -58h-130z" />
    <glyph glyph-name="Ycircumflex" unicode="&#x176;" horiz-adv-x="642" 
d="M269 333l-173 383h156l102 -237h8l180 237h167l-305 -383l-59 -333h-135zM229 786l132 126h119l91 -126l-1 -8h-121l-31 59h-12l-49 -59h-129z" />
    <glyph glyph-name="ycircumflex" unicode="&#x177;" horiz-adv-x="579" 
d="M180 29l-127 481h146l77 -317h7l185 317h148l-444 -726h-143zM171 610l132 126h119l91 -126l-2 -8h-120l-32 58h-12l-48 -58h-130z" />
    <glyph glyph-name="Ydieresis" unicode="&#x178;" horiz-adv-x="642" 
d="M269 333l-173 383h156l102 -237h8l180 237h167l-305 -383l-59 -333h-135zM265 792.5q-21 21.5 -21 50.5q0 30 21 51t51 21t50.5 -21t20.5 -51t-20.5 -51t-50.5 -21t-51 21.5zM456 792.5q-21 21.5 -21 50.5q0 30 21 51t50 21q31 0 51.5 -21t20.5 -51t-21 -51t-51 -21
q-29 0 -50 21.5z" />
    <glyph glyph-name="Zacute" unicode="&#x179;" horiz-adv-x="609" 
d="M18 136l436 452h-341l23 128h504l-24 -136l-433 -452h357l-23 -128h-523zM397 908h154l-114 -136h-106z" />
    <glyph glyph-name="zacute" unicode="&#x17a;" horiz-adv-x="505" 
d="M325 399h-254l19 111h419l-19 -107l-314 -292h266l-20 -111h-429l19 107zM319 744h153l-113 -136h-106z" />
    <glyph glyph-name="Zdotaccent" unicode="&#x17b;" horiz-adv-x="609" 
d="M18 136l436 452h-341l23 128h504l-24 -136l-433 -452h357l-23 -128h-523zM350 806q-21 21 -21 50t20.5 50t49.5 21q30 0 50.5 -21t20.5 -50t-20.5 -50t-50.5 -21q-28 0 -49 21z" />
    <glyph glyph-name="zdotaccent" unicode="&#x17c;" horiz-adv-x="505" 
d="M325 399h-254l19 111h419l-19 -107l-314 -292h266l-20 -111h-429l19 107zM264 617.5q-22 22.5 -22 53.5t22 53t54 22q31 0 53 -21.5t22 -53.5t-22 -54t-53 -22q-32 0 -54 22.5z" />
    <glyph glyph-name="Zcaron" unicode="&#x17d;" horiz-adv-x="609" 
d="M18 136l436 452h-341l23 128h504l-24 -136l-433 -452h357l-23 -128h-523zM239 904l1 8h121l31 -59h12l49 59h129l-1 -8l-132 -126h-119z" />
    <glyph glyph-name="zcaron" unicode="&#x17e;" horiz-adv-x="505" 
d="M325 399h-254l19 111h419l-19 -107l-314 -292h266l-20 -111h-429l19 107zM159 727l2 9h120l32 -59h12l48 59h130l-2 -9l-132 -125h-118z" />
    <glyph glyph-name="florin" unicode="&#x192;" horiz-adv-x="614" 
d="M467.5 578q-22.5 -19 -29.5 -54l-21 -104h113v-112h-135l-72 -365q-14 -74 -60.5 -118.5t-123.5 -44.5q-45 0 -79 11v128q32 -16 66 -16q60 0 75 74l65 331h-93v112h115l22 109q17 92 71 141.5t139 49.5q36 0 65 -10v-127q-31 14 -64 14q-31 0 -53.5 -19z" />
    <glyph glyph-name="Ohorn" unicode="&#x1a0;" horiz-adv-x="840" 
d="M222.5 25.5q-77.5 41.5 -121.5 117.5t-44 174q0 112 53.5 207t150.5 151.5t220 56.5q43 0 111 -8q70 -8 114 -8q37 0 55 5t26 17t13 38l11 58h98l-19 -109q-9 -49 -33.5 -76t-64.5 -27q-31 0 -65 10l-2 -4q48 -42 71 -102t23 -127q0 -112 -53.5 -207t-150 -151.5
t-219.5 -56.5q-96 0 -173.5 41.5zM547 150q63 38 99.5 103.5t36.5 143.5q0 60 -28 107t-77 73.5t-109 26.5q-77 0 -140 -38t-99.5 -102.5t-36.5 -141.5q0 -61 28 -109t77 -74.5t109 -26.5q77 0 140 38z" />
    <glyph glyph-name="ohorn" unicode="&#x1a1;" horiz-adv-x="609" 
d="M146.5 15.5q-54.5 31.5 -84.5 85.5t-30 121q0 85 38 154.5t107 109.5t159 40q25 0 69 -8q42 -8 68 -8q36 0 50 8.5t18 28.5l15 81h98l-21 -118q-6 -36 -28.5 -56t-56.5 -20q-11 0 -21 2l-1 -5q50 -71 50 -143q0 -85 -38 -154.5t-107 -109.5t-159 -40q-71 0 -125.5 31.5z
M366 127q36 22 57 61t21 86q0 57 -33 93.5t-90 36.5q-43 0 -79 -22t-57 -60.5t-21 -85.5q0 -58 33 -94.5t90 -36.5q43 0 79 22z" />
    <glyph glyph-name="Uhorn" unicode="&#x1af;" horiz-adv-x="734" 
d="M183.5 13.5q-54.5 29.5 -84.5 83t-30 123.5q0 36 9 84l72 412h135l-77 -435q-4 -25 -4 -47q0 -57 30.5 -89.5t91.5 -32.5q67 0 111 44.5t58 120.5l77 439h146q19 0 29 9t14 28l15 81h98l-14 -78q-13 -73 -48 -103.5t-111 -30.5h-11l-62 -353q-25 -142 -107.5 -213.5
t-212.5 -71.5q-70 0 -124.5 29.5z" />
    <glyph glyph-name="uhorn" unicode="&#x1b0;" horiz-adv-x="655" 
d="M88 28q-42 44 -42 112q0 32 5 61l55 309h131l-52 -293q-4 -16 -4 -38q0 -32 22 -53t58 -21q58 0 94 38.5t48 106.5l46 260h142q19 0 29 9t14 28l15 81h98l-14 -78q-13 -72 -48 -103t-111 -31h-11l-73 -416h-122l11 64h-8q-26 -39 -67.5 -59.5t-95.5 -20.5q-78 0 -120 44z
" />
    <glyph glyph-name="uni01CD" unicode="&#x1cd;" horiz-adv-x="722" 
d="M360 716h158l143 -716h-144l-31 171h-273l-90 -171h-153zM463 295l-33 180l-11 86h-8l-40 -86l-94 -180h186zM297 904l1 8h121l31 -59h12l49 59h129l-1 -8l-132 -126h-119z" />
    <glyph glyph-name="Aringacute" unicode="&#x1fa;" horiz-adv-x="722" 
d="M340 680q-25 33 -25 76q0 52 35.5 89.5t88.5 40.5l40 67h116l-71 -94q24 -18 37.5 -45t13.5 -58q0 -29 -12 -54.5t-34 -44.5l132 -657h-144l-31 171h-273l-90 -171h-153zM473.5 728q11.5 12 11.5 28q0 17 -11.5 28.5t-28.5 11.5q-16 0 -28 -11.5t-12 -28.5q0 -16 12 -28
t28 -12q17 0 28.5 12zM463 295l-33 180l-11 86h-8l-40 -86l-94 -180h186z" />
    <glyph glyph-name="aringacute" unicode="&#x1fb;" horiz-adv-x="557" 
d="M353 941h138l-91 -115h-99zM252.5 615.5q-31.5 31.5 -31.5 76.5t31.5 76.5t76.5 31.5t76.5 -31.5t31.5 -76.5t-31.5 -76.5t-76.5 -31.5t-76.5 31.5zM353.5 667.5q10.5 10.5 10.5 24.5t-10.5 24.5t-24.5 10.5t-24 -10.5t-10 -24.5t10 -24.5t24 -10.5t24.5 10.5zM97.5 5.5
q-37.5 21.5 -59.5 58t-22 79.5q0 86 58.5 135t168.5 49q73 0 135 -25l5 22l2 22q0 32 -29.5 53t-72.5 21q-38 0 -69.5 -14.5t-53.5 -41.5l-87 64q39 48 98 73t128 25q99 0 156.5 -48t57.5 -126q0 -20 -5 -52l-54 -300h-129l9 52h-8q-51 -68 -145 -68q-46 0 -83.5 21.5z
M317 120.5q37 34.5 45 87.5q-28 12 -53 18t-60 6q-49 0 -74.5 -20.5t-25.5 -58.5q0 -31 21.5 -49t55.5 -18q54 0 91 34.5z" />
    <glyph glyph-name="AEacute" unicode="&#x1fc;" horiz-adv-x="1012" 
d="M459 716h536l-23 -128h-319l-29 -166h287l-23 -128h-287l-30 -166h320l-23 -128h-454l31 173h-233l-128 -173h-167zM467 301l51 287h-10l-43 -70l-161 -217h163zM750 908h154l-114 -136h-106z" />
    <glyph glyph-name="aeacute" unicode="&#x1fd;" horiz-adv-x="919" 
d="M97.5 5.5q-37.5 21.5 -59.5 58t-22 79.5q0 91 63.5 137.5t170.5 46.5q40 0 75 -7.5t54 -15.5l5 22q2 14 2 17q0 36 -27.5 56.5t-73.5 20.5q-77 0 -111 -52l-94 51q34 55 90 81t128 26q63 0 108.5 -21.5t69.5 -57.5q73 79 190 79q68 0 118.5 -30t77 -79.5t26.5 -105.5
q0 -46 -13 -87h-383q-1 -3 -1 -11q2 -53 37 -83t86 -30q54 0 88 18.5t57 57.5l99 -52q-44 -70 -104 -105t-150 -35q-67 0 -116 29.5t-79 77.5q-45 -57 -102 -82t-127 -25q-45 0 -82.5 21.5zM767 317v4q0 41 -33.5 69.5t-82.5 28.5q-52 0 -90.5 -30t-53.5 -72h260zM317 120.5
q37 34.5 45 87.5q-48 24 -113 24q-49 0 -74.5 -20.5t-25.5 -58.5q0 -31 21.5 -49t55.5 -18q54 0 91 34.5zM511 744h153l-113 -136h-106z" />
    <glyph glyph-name="Oslashacute" unicode="&#x1fe;" horiz-adv-x="840" 
d="M94 15l53 67q-43 45 -66.5 104.5t-23.5 130.5q0 112 53.5 207t150.5 151.5t220 56.5q84 0 159 -35l56 70l84 -68l-52 -65q44 -45 67.5 -105t23.5 -130q0 -112 -53.5 -207t-150 -151.5t-219.5 -56.5q-88 0 -160 35l-57 -71zM553 588q-42 16 -84 16q-77 0 -140 -38
t-99.5 -102.5t-36.5 -141.5q0 -78 43 -130zM547 150q63 38 99.5 103.5t36.5 143.5q0 74 -43 127l-317 -396q40 -16 84 -16q77 0 140 38zM509 908h154l-114 -136h-106z" />
    <glyph glyph-name="oslashacute" unicode="&#x1ff;" horiz-adv-x="602" 
d="M56 13l33 43q-29 32 -45 75t-16 91q0 85 38 154.5t107.5 109.5t158.5 40q59 0 108 -23l40 52l74 -62l-38 -46q58 -66 58 -159q0 -85 -38.5 -154.5t-107.5 -109.5t-159 -40q-53 0 -99 19l-37 -48zM361 404q-16 8 -43 8q-43 0 -80.5 -24t-60 -64.5t-22.5 -87.5
q0 -40 18 -73zM363.5 119.5q37.5 23.5 60 64.5t22.5 90q0 37 -14 64l-184 -236q17 -6 35 -6q43 0 80.5 23.5zM364 744h153l-113 -136h-106z" />
    <glyph glyph-name="uni0218" unicode="&#x218;" horiz-adv-x="590" 
d="M104 36.5q-66 52.5 -83 150.5l129 52q5 -56 38 -91.5t89 -35.5q52 0 87.5 26t35.5 69q0 37 -26 62t-89 50l-35 14q-65 25 -106 71.5t-41 118.5q0 59 33.5 107t91.5 75t129 27q68 0 115 -23.5t71.5 -58.5t31.5 -71l-124 -47q-8 35 -34.5 55.5t-72.5 20.5q-44 0 -75 -21.5
t-31 -58.5q0 -32 23.5 -54t76.5 -41l41 -15q76 -29 116.5 -76t40.5 -120q0 -69 -34.5 -123t-96.5 -84.5t-143 -30.5q-92 0 -158 52.5zM197 -177q-19 7 -30.5 23.5t-11.5 37.5q0 27 20 47.5t48 20.5t48 -20t20 -49q0 -33 -19 -55l-82 -99l-43 37z" />
    <glyph glyph-name="uni0219" unicode="&#x219;" horiz-adv-x="498" 
d="M81.5 23.5q-58.5 39.5 -75.5 100.5l121 49q8 -36 38.5 -55t71.5 -19q34 0 57.5 14.5t23.5 39.5q0 44 -70 60l-50 12q-57 13 -97 50t-40 92q0 72 59.5 115.5t158.5 43.5q75 0 125.5 -30t73.5 -88l-120 -44q-9 27 -33.5 41.5t-55.5 14.5q-37 0 -57.5 -13.5t-20.5 -32.5
q0 -16 16.5 -29.5t41.5 -19.5l73 -18q60 -15 94.5 -54t34.5 -89q0 -54 -27.5 -94.5t-78 -63t-118.5 -22.5q-87 0 -145.5 39.5zM166 -177q-19 7 -30.5 23.5t-11.5 37.5q0 27 20 47.5t48 20.5t48 -20t20 -49q0 -33 -19 -55l-82 -99l-43 37z" />
    <glyph glyph-name="uni021A" unicode="&#x21a;" horiz-adv-x="588" 
d="M285 588h-200l23 128h534l-22 -128h-200l-105 -588h-134zM204 -177q-19 7 -30.5 23.5t-11.5 37.5q0 27 20 47.5t48 20.5t48 -20t20 -49q0 -33 -19 -55l-82 -99l-43 37z" />
    <glyph glyph-name="uni021B" unicode="&#x21b;" horiz-adv-x="418" 
d="M137.5 27.5q-38.5 35.5 -38.5 103.5q0 19 5 52l37 215h-88l20 112h89l25 144h131l-25 -144h124l-20 -112h-125l-37 -209q-2 -11 -2 -24q0 -23 14 -36.5t37 -13.5q20 0 35.5 5.5t35.5 16.5l-22 -128q-42 -17 -91 -17q-66 0 -104.5 35.5zM180 -177q-19 7 -30.5 23.5
t-11.5 37.5q0 27 20 47.5t48 20.5t48 -20t20 -49q0 -33 -19 -55l-82 -99l-43 37z" />
    <glyph glyph-name="uni0237" unicode="&#x237;" horiz-adv-x="277" 
d="M-77.5 -223.5q-20.5 2.5 -32.5 6.5l22 122q20 -11 50 -11q26 0 39 14t18 42l99 560h130l-99 -564q-18 -99 -64 -135.5t-124 -36.5q-18 0 -38.5 2.5z" />
    <glyph glyph-name="uni0259" unicode="&#x259;" horiz-adv-x="588" 
d="M136.5 14q-51.5 30 -78.5 79t-27 105q0 48 14 88h383v11q-1 52 -36 82.5t-86 30.5q-54 0 -88.5 -18.5t-57.5 -57.5l-98 52q44 70 104 105t150 35q71 0 125.5 -32.5t84 -88t29.5 -121.5q0 -80 -37 -149t-104.5 -110t-155.5 -41q-70 0 -121.5 30zM358.5 121
q38.5 30 54.5 72h-260v-3q0 -42 33 -70.5t82 -28.5q52 0 90.5 30z" />
    <glyph glyph-name="circumflex" unicode="&#x2c6;" horiz-adv-x="456" 
d="M97 590l132 126h119l91 -126l-1 -8h-121l-31 59h-12l-49 -59h-129z" />
    <glyph glyph-name="caron" unicode="&#x2c7;" horiz-adv-x="456" 
d="M118 708l1 8h121l31 -59h12l49 59h129l-1 -8l-132 -126h-119z" />
    <glyph glyph-name="breve" unicode="&#x2d8;" horiz-adv-x="416" 
d="M167.5 611q-34.5 32 -34.5 81q0 13 2 23h92q-1 -4 -1 -9q0 -16 10 -26.5t28 -10.5q19 0 33 13t18 33h92q-10 -66 -51 -101t-104 -35q-50 0 -84.5 32z" />
    <glyph glyph-name="dotaccent" unicode="&#x2d9;" horiz-adv-x="269" 
d="M131.5 597.5q-22.5 22.5 -22.5 53.5t22.5 53.5t53.5 22.5q32 0 54 -22t22 -54q0 -31 -22.5 -53.5t-53.5 -22.5t-53.5 22.5z" />
    <glyph glyph-name="ring" unicode="&#x2da;" horiz-adv-x="408" 
d="M176.5 595.5q-31.5 31.5 -31.5 76.5t31.5 76.5t76.5 31.5t76.5 -31.5t31.5 -76.5t-31.5 -76.5t-76.5 -31.5t-76.5 31.5zM277.5 647.5q10.5 10.5 10.5 24.5t-10.5 24.5t-24.5 10.5t-24 -10.5t-10 -24.5t10 -24.5t24 -10.5t24.5 10.5z" />
    <glyph glyph-name="ogonek" unicode="&#x2db;" horiz-adv-x="426" 
d="M53.5 -197q-30.5 27 -30.5 70q0 40 22.5 72.5t61.5 54.5h117q-34 -19 -59.5 -45t-25.5 -52q0 -15 9 -23.5t24 -8.5q18 0 42 11l-17 -96q-30 -10 -60 -10q-53 0 -83.5 27z" />
    <glyph glyph-name="tilde" unicode="&#x2dc;" horiz-adv-x="419" 
d="M283.5 593.5q-16.5 6.5 -40.5 19.5q-30 17 -45 17q-26 0 -33 -29h-92q8 63 42 95.5t86 32.5q20 0 36.5 -6.5t40.5 -19.5q30 -17 45 -17q26 0 33 29h92q-8 -63 -42 -95.5t-86 -32.5q-20 0 -36.5 6.5z" />
    <glyph glyph-name="hungarumlaut" unicode="&#x2dd;" horiz-adv-x="476" 
d="M176 724h154l-114 -136h-106zM374 724h154l-114 -136h-106z" />
    <glyph glyph-name="gravecomb" unicode="&#x300;" 
d="M-278 744h148l18 -136h-102z" />
    <glyph glyph-name="acutecomb" unicode="&#x301;" 
d="M-183 744h153l-113 -136h-106z" />
    <glyph glyph-name="uni0302" unicode="&#x302;" 
d="M-355 610l132 126h119l91 -126l-2 -8h-120l-32 58h-12l-48 -58h-130z" />
    <glyph glyph-name="tildecomb" unicode="&#x303;" 
d="M-133 613.5q-17 6.5 -38 18.5q-31 18 -47 18q-25 0 -32 -29h-92q8 62 41.5 94.5t85.5 32.5q21 0 38 -7t39 -19q12 -7 24.5 -12t21.5 -5q26 0 32 29h92q-8 -62 -41.5 -94.5t-85.5 -32.5q-21 0 -38 6.5z" />
    <glyph glyph-name="uni0304" unicode="&#x304;" 
d="M-291 729h296l-17 -100h-297z" />
    <glyph glyph-name="uni0306" unicode="&#x306;" 
d="M-245.5 630.5q-34.5 31.5 -34.5 80.5q0 5 2 23h93q-1 -4 -1 -9q0 -15 9.5 -25.5t27.5 -10.5q20 0 34 12.5t17 32.5h92q-10 -66 -51 -100.5t-104 -34.5q-50 0 -84.5 31.5z" />
    <glyph glyph-name="uni0307" unicode="&#x307;" 
d="M-134 617.5q-22 22.5 -22 53.5t22 53t54 22q31 0 53 -21.5t22 -53.5t-22 -54t-53 -22q-32 0 -54 22.5z" />
    <glyph glyph-name="uni0308" unicode="&#x308;" 
d="M-317 628q-21 21 -21 51t21 50.5t50 20.5q31 0 51.5 -20.5t20.5 -50.5t-20.5 -51t-51.5 -21q-29 0 -50 21zM-126.5 628q-21.5 21 -21.5 51t21 50.5t51 20.5t51 -20.5t21 -50.5t-21 -51t-51 -21q-29 0 -50.5 21z" />
    <glyph glyph-name="hookabovecomb" unicode="&#x309;" 
d="M-72 632q57 15 57 48q0 22 -34 22q-26 0 -48 -10l-13 65q34 17 85 17q45 0 72.5 -22.5t27.5 -61.5q0 -51 -36 -81t-99 -39z" />
    <glyph glyph-name="uni030A" unicode="&#x30a;" 
d="M-227.5 615.5q-31.5 31.5 -31.5 76.5t31.5 76.5t76.5 31.5t76.5 -31.5t31.5 -76.5t-31.5 -76.5t-76.5 -31.5t-76.5 31.5zM-127 667.5q10 10.5 10 24.5t-10.5 24t-23.5 10q-14 0 -24.5 -10t-10.5 -24t10.5 -24.5t24.5 -10.5t24 10.5z" />
    <glyph glyph-name="uni030B" unicode="&#x30b;" 
d="M-297 744h154l-114 -136h-106zM-98 744h154l-114 -136h-106z" />
    <glyph glyph-name="uni030C" unicode="&#x30c;" 
d="M-335 727l2 9h120l32 -59h12l48 59h130l-2 -9l-132 -125h-118z" />
    <glyph glyph-name="uni0312" unicode="&#x312;" 
d="M-134 721q19 -7 30.5 -23.5t11.5 -37.5q0 -27 -20 -47.5t-48 -20.5t-48 20t-20 49q0 33 19 55l82 99l43 -37z" />
    <glyph glyph-name="uni031B" unicode="&#x31b;" 
d="M-111 510h21q19 0 29 9t14 28l15 81h98l-14 -78q-13 -72 -48 -103t-111 -31h-21z" />
    <glyph glyph-name="dotbelowcomb" unicode="&#x323;" 
d="M-278 -200q-22 22 -22 54q0 31 22 53t54 22q31 0 53 -22t22 -53q0 -32 -22 -54t-53 -22q-32 0 -54 22z" />
    <glyph glyph-name="uni0324" unicode="&#x324;" 
d="M-385 -195q-21 21 -21 51t21 50.5t51 20.5t50.5 -20.5t20.5 -50.5t-20.5 -51t-50.5 -21t-51 21zM-194 -195q-21 21 -21 51t21 50.5t50 20.5q31 0 51.5 -20.5t20.5 -50.5t-20.5 -51t-51.5 -21q-29 0 -50 21z" />
    <glyph glyph-name="uni0326" unicode="&#x326;" 
d="M-298 -177q-19 7 -30.5 23.5t-11.5 37.5q0 27 20 47.5t48 20.5t48 -20t20 -49q0 -33 -19 -55l-82 -99l-43 37z" />
    <glyph glyph-name="uni0327" unicode="&#x327;" 
d="M-379 -218q-28 19 -35 47l68 27q2 -12 11.5 -20t22.5 -8q15 0 25.5 9.5t10.5 25.5q0 14 -8.5 22.5t-21.5 8.5q-14 0 -28 -14l-55 28l51 92h68l-29 -47q7 1 18 1q35 0 57 -24.5t22 -61.5q0 -48 -32.5 -76.5t-82.5 -28.5q-34 0 -62 19z" />
    <glyph glyph-name="uni0328" unicode="&#x328;" 
d="M-372.5 -197q-30.5 27 -30.5 70q0 40 22.5 72.5t61.5 54.5h117q-34 -19 -59.5 -45t-25.5 -52q0 -15 9 -23.5t24 -8.5q18 0 42 11l-17 -96q-30 -10 -60 -10q-53 0 -83.5 27z" />
    <glyph glyph-name="uni032E" unicode="&#x32e;" 
d="M-391.5 -202q-34.5 32 -34.5 81q0 13 2 23h92q-1 -4 -1 -9q0 -16 10 -26.5t28 -10.5q19 0 33 13t18 33h92q-10 -66 -51 -101t-104 -35q-50 0 -84.5 32z" />
    <glyph glyph-name="uni0331" unicode="&#x331;" 
d="M-434 -87h296l-18 -100h-296z" />
    <glyph glyph-name="uni0374" unicode="&#x374;" horiz-adv-x="314" 
d="M356 716l-169 -221h-105l117 221h157z" />
    <glyph glyph-name="uni0375" unicode="&#x375;" horiz-adv-x="314" 
d="M-16 -99l151 221h109l-104 -221h-156z" />
    <glyph glyph-name="uni037E" unicode="&#x37e;" horiz-adv-x="288" 
d="M114.5 374.5q-25.5 25.5 -25.5 61.5t25.5 61t61.5 25t61 -25t25 -61t-25 -61.5t-61 -25.5t-61.5 25.5zM0 -82l75 92q-19 14 -30.5 31.5t-11.5 45.5q0 36 26 61.5t61 25.5q36 0 61.5 -25.5t25.5 -61.5q0 -18 -8 -34.5t-26 -37.5l-118 -141z" />
    <glyph glyph-name="tonos" unicode="&#x384;" horiz-adv-x="442" 
d="M236 736h153l-111 -136h-107z" />
    <glyph glyph-name="dieresistonos" unicode="&#x385;" horiz-adv-x="464" 
d="M259 732h74l-25 -144h-74zM102.5 612.5q-19.5 19.5 -19.5 46.5q0 28 19.5 47t46.5 19q28 0 47 -19t19 -47q0 -27 -19 -46.5t-47 -19.5q-27 0 -46.5 19.5zM370.5 612.5q-19.5 19.5 -19.5 46.5q0 28 19.5 47t46.5 19q28 0 47 -19t19 -47q0 -27 -19 -46.5t-47 -19.5
q-27 0 -46.5 19.5z" />
    <glyph glyph-name="Alphatonos" unicode="&#x386;" horiz-adv-x="722" 
d="M360 716h158l143 -716h-144l-31 171h-273l-90 -171h-153zM463 295l-33 180l-11 86h-8l-40 -86l-94 -180h186zM132 724h154l-114 -136h-106z" />
    <glyph glyph-name="anoteleia" unicode="&#x387;" horiz-adv-x="213" 
d="M56.5 262.5q-25.5 25.5 -25.5 61.5t25.5 61.5t61.5 25.5t61.5 -25.5t25.5 -61.5t-25.5 -61.5t-61.5 -25.5t-61.5 25.5z" />
    <glyph glyph-name="Epsilontonos" unicode="&#x388;" horiz-adv-x="673" 
d="M243 716h454l-23 -128h-319l-30 -166h288l-23 -128h-288l-29 -166h319l-22 -128h-454zM34 724h154l-114 -136h-106z" />
    <glyph glyph-name="Etatonos" unicode="&#x389;" horiz-adv-x="812" 
d="M241 716h134l-51 -286h302l51 286h135l-127 -716h-135l54 302h-302l-54 -302h-134zM23 724h154l-114 -136h-106z" />
    <glyph glyph-name="Iotatonos" unicode="&#x38a;" horiz-adv-x="376" 
d="M241 716h134l-127 -716h-134zM23 724h154l-114 -136h-106z" />
    <glyph glyph-name="Omicrontonos" unicode="&#x38c;" horiz-adv-x="840" 
d="M222.5 25.5q-77.5 41.5 -121.5 117.5t-44 174q0 112 53.5 207t150.5 151.5t220 56.5q98 0 175 -43t120 -119t43 -171q0 -112 -53.5 -207t-150 -151.5t-219.5 -56.5q-96 0 -173.5 41.5zM547 150q63 38 99.5 103.5t36.5 143.5q0 60 -28 107t-77 73.5t-109 26.5
q-77 0 -140 -38t-99.5 -102.5t-36.5 -141.5q0 -61 28 -109t77 -74.5t109 -26.5q77 0 140 38zM12 724h154l-114 -136h-106z" />
    <glyph glyph-name="Upsilontonos" unicode="&#x38e;" horiz-adv-x="758" 
d="M385 333l-173 383h156l102 -237h8l180 237h167l-305 -383l-59 -333h-135zM23 724h154l-114 -136h-106z" />
    <glyph glyph-name="Omegatonos" unicode="&#x38f;" horiz-adv-x="785" 
d="M12 724h154l-114 -136h-106zM23 117h141l2 8q-46 40 -78.5 99t-32.5 139q0 97 51 182t143.5 136t210.5 51q96 0 168.5 -38t112 -104t39.5 -149q0 -200 -200 -316l-2 -8h135l-20 -117h-299l29 164q62 16 111.5 52.5t78.5 88t29 111.5q0 57 -25 99.5t-70 65.5t-101 23
q-74 0 -132.5 -33t-91 -87.5t-32.5 -118.5q0 -76 39.5 -128t100.5 -73l-29 -164h-298z" />
    <glyph glyph-name="iotadieresistonos" unicode="&#x390;" horiz-adv-x="276" 
d="M118 510h130l-89 -510h-130zM185 732h74l-25 -144h-74zM28.5 612.5q-19.5 19.5 -19.5 46.5q0 28 19.5 47t46.5 19q28 0 47 -19t19 -47q0 -27 -19 -46.5t-47 -19.5q-27 0 -46.5 19.5zM296.5 612.5q-19.5 19.5 -19.5 46.5q0 28 19.5 47t46.5 19q28 0 47 -19t19 -47
q0 -27 -19 -46.5t-47 -19.5q-27 0 -46.5 19.5z" />
    <glyph glyph-name="Alpha" unicode="&#x391;" horiz-adv-x="722" 
d="M360 716h158l143 -716h-144l-31 171h-273l-90 -171h-153zM463 295l-33 180l-11 86h-8l-40 -86l-94 -180h186z" />
    <glyph glyph-name="Beta" unicode="&#x392;" horiz-adv-x="646" 
d="M163 716h254q67 0 115.5 -24t73.5 -64t25 -88q0 -66 -36 -107t-90 -58l-1 -8q42 -19 68.5 -56t26.5 -89q0 -66 -36 -116.5t-98 -78t-139 -27.5h-290zM381 424q52 0 83.5 24t31.5 68q0 35 -23 57t-61 22h-137l-29 -171h135zM343 123q51 0 85.5 26.5t34.5 72.5
q0 39 -25 62.5t-71 23.5h-142l-33 -185h151z" />
    <glyph glyph-name="Gamma" unicode="&#x393;" horiz-adv-x="546" 
d="M163 716h438l-23 -128h-303l-105 -588h-134z" />
    <glyph glyph-name="uni0394" unicode="&#x394;" horiz-adv-x="714" 
d="M360 716h155l138 -716h-683zM488 124l-73 425h-8l-219 -425h300z" />
    <glyph glyph-name="Epsilon" unicode="&#x395;" horiz-adv-x="593" 
d="M163 716h454l-23 -128h-319l-30 -166h288l-23 -128h-288l-29 -166h319l-22 -128h-454z" />
    <glyph glyph-name="Zeta" unicode="&#x396;" horiz-adv-x="609" 
d="M18 136l436 452h-341l23 128h504l-24 -136l-433 -452h357l-23 -128h-523z" />
    <glyph glyph-name="Eta" unicode="&#x397;" horiz-adv-x="734" 
d="M163 716h134l-51 -286h302l51 286h135l-127 -716h-135l54 302h-302l-54 -302h-134z" />
    <glyph glyph-name="Theta" unicode="&#x398;" horiz-adv-x="840" 
d="M222.5 25.5q-77.5 41.5 -121.5 117.5t-44 174q0 112 53.5 207t150.5 151.5t220 56.5q98 0 175 -43t120 -119t43 -171q0 -112 -53.5 -207t-150 -151.5t-219.5 -56.5q-96 0 -173.5 41.5zM547 150q63 38 99.5 103.5t36.5 143.5q0 60 -28 107t-77 73.5t-109 26.5
q-77 0 -140 -38t-99.5 -102.5t-36.5 -141.5q0 -61 28 -109t77 -74.5t109 -26.5q77 0 140 38zM294 417h309l-21 -118h-308z" />
    <glyph glyph-name="Iota" unicode="&#x399;" horiz-adv-x="298" 
d="M163 716h134l-127 -716h-134z" />
    <glyph glyph-name="Kappa" unicode="&#x39a;" horiz-adv-x="672" 
d="M163 716h134l-59 -336h8l310 336h172l-2 -8l-341 -360l230 -340l-1 -8h-164l-215 319h-8l-57 -319h-134z" />
    <glyph glyph-name="Lambda" unicode="&#x39b;" horiz-adv-x="706" 
d="M356 716h156l133 -716h-146l-77 477l-8 84h-8l-39 -84l-243 -477h-154z" />
    <glyph glyph-name="Mu" unicode="&#x39c;" horiz-adv-x="900" 
d="M163 716h170l102 -503h8l278 503h178l-127 -716h-133l63 353l29 119h-8l-263 -472h-107l-100 472h-8l-13 -119l-63 -353h-133z" />
    <glyph glyph-name="Nu" unicode="&#x39d;" horiz-adv-x="742" 
d="M163 716h149l211 -480h8l16 138l61 342h133l-127 -716h-133l-222 507h-8l-16 -138l-66 -369h-133z" />
    <glyph glyph-name="Xi" unicode="&#x39e;" horiz-adv-x="554" 
d="M114 716h488l-23 -128h-487zM94 421h423l-21 -126h-424zM11 128h487l-23 -128h-487z" />
    <glyph glyph-name="Omicron" unicode="&#x39f;" horiz-adv-x="840" 
d="M222.5 25.5q-77.5 41.5 -121.5 117.5t-44 174q0 112 53.5 207t150.5 151.5t220 56.5q98 0 175 -43t120 -119t43 -171q0 -112 -53.5 -207t-150 -151.5t-219.5 -56.5q-96 0 -173.5 41.5zM547 150q63 38 99.5 103.5t36.5 143.5q0 60 -28 107t-77 73.5t-109 26.5
q-77 0 -140 -38t-99.5 -102.5t-36.5 -141.5q0 -61 28 -109t77 -74.5t109 -26.5q77 0 140 38z" />
    <glyph glyph-name="Pi" unicode="&#x3a0;" horiz-adv-x="713" 
d="M163 716h550l-127 -716h-135l104 588h-280l-105 -588h-134z" />
    <glyph glyph-name="Rho" unicode="&#x3a1;" horiz-adv-x="614" 
d="M163 716h240q63 0 113 -26t78 -72.5t28 -107.5q0 -77 -35.5 -133t-98.5 -85t-144 -29h-127l-47 -263h-134zM361 391q57 0 91.5 28t34.5 81q0 40 -24 64t-67 24h-121l-35 -197h121z" />
    <glyph glyph-name="Sigma" unicode="&#x3a3;" horiz-adv-x="540" 
d="M418 366l-228 -241h295l-23 -125h-457l23 133l231 235l-151 215l23 133h458l-22 -125h-299z" />
    <glyph glyph-name="Tau" unicode="&#x3a4;" horiz-adv-x="588" 
d="M285 588h-200l23 128h534l-22 -128h-200l-105 -588h-134z" />
    <glyph glyph-name="Upsilon" unicode="&#x3a5;" horiz-adv-x="642" 
d="M269 333l-173 383h156l102 -237h8l180 237h167l-305 -383l-59 -333h-135z" />
    <glyph glyph-name="Phi" unicode="&#x3a6;" horiz-adv-x="830" 
d="M313 60q-75 10 -132.5 47.5t-89 94t-31.5 123.5q0 93 48 165t129.5 115t180.5 51l16 92h135l-16 -92q76 -12 133.5 -49.5t88.5 -94t31 -123.5q0 -93 -47.5 -165t-129.5 -114.5t-182 -49.5l-16 -92h-134zM396 532q-88 -12 -144.5 -61.5t-56.5 -133.5q0 -62 37 -102
t102 -51zM614.5 244q56.5 49 56.5 134q0 63 -37.5 103t-102.5 51l-62 -348q89 11 145.5 60z" />
    <glyph glyph-name="Chi" unicode="&#x3a7;" horiz-adv-x="694" 
d="M278 377l-171 339h170l104 -231h8l182 231h174l-292 -351l184 -365h-165l-122 251h-8l-201 -251h-174z" />
    <glyph glyph-name="Psi" unicode="&#x3a8;" horiz-adv-x="794" 
d="M204 184.5q-50 28.5 -79.5 82t-29.5 125.5q0 26 6 62l46 262h135l-49 -272q-4 -23 -4 -44q0 -53 27.5 -84.5t77.5 -31.5l77 432h135l-77 -432q62 0 103 43t54 115l49 274h134l-51 -289q-15 -85 -61.5 -146.5t-112 -93t-138.5 -31.5l-27 -156h-135l28 156q-58 0 -108 28.5
z" />
    <glyph glyph-name="uni03A9" unicode="&#x3a9;" horiz-adv-x="816" 
d="M39 117h141l2 8q-46 40 -78.5 99t-32.5 139q0 97 51 182t143.5 136t210.5 51q96 0 168.5 -38t112 -104t39.5 -149q0 -200 -200 -316l-2 -8h135l-20 -117h-299l29 164q62 16 111.5 52.5t78.5 88t29 111.5q0 57 -25 99.5t-70 65.5t-101 23q-74 0 -132.5 -33t-91 -87.5
t-32.5 -118.5q0 -76 39.5 -128t100.5 -73l-29 -164h-298z" />
    <glyph glyph-name="Iotadieresis" unicode="&#x3aa;" horiz-adv-x="298" 
d="M102 809q-20 20 -20 47q0 28 20 47.5t47 19.5q28 0 48 -19.5t20 -47.5q0 -27 -20 -47t-48 -20q-27 0 -47 20zM281 809q-20 20 -20 47q0 28 20 47.5t47 19.5q28 0 47.5 -19.5t19.5 -47.5q0 -27 -19.5 -47t-47.5 -20q-27 0 -47 20zM163 716h134l-127 -716h-134z" />
    <glyph glyph-name="Upsilondieresis" unicode="&#x3ab;" horiz-adv-x="642" 
d="M269 333l-173 383h156l102 -237h8l180 237h167l-305 -383l-59 -333h-135zM265 792.5q-21 21.5 -21 50.5q0 30 21 51t51 21t50.5 -21t20.5 -51t-20.5 -51t-50.5 -21t-51 21.5zM456 792.5q-21 21.5 -21 50.5q0 30 21 51t50 21q31 0 51.5 -21t20.5 -51t-21 -51t-51 -21
q-29 0 -50 21.5z" />
    <glyph glyph-name="alphatonos" unicode="&#x3ac;" horiz-adv-x="631" 
d="M136.5 12.5q-47.5 28.5 -76.5 81t-29 120.5q0 88 37 159.5t103 112t150 40.5q59 0 95.5 -22.5t53.5 -55.5h8l10 62h123l-90 -510h-122l10 61h-8q-23 -37 -62 -57t-100 -20q-55 0 -102.5 28.5zM364 127q37 22 59.5 62.5t22.5 92.5q0 53 -34.5 87.5t-84.5 34.5
q-47 0 -85 -22t-59 -61.5t-21 -89.5q0 -56 35.5 -91t85.5 -35q44 0 81 22zM340 736h153l-111 -136h-107z" />
    <glyph glyph-name="epsilontonos" unicode="&#x3ad;" horiz-adv-x="522" 
d="M111 3q-44 19 -67 52t-23 73q0 97 103 135l1 8q-45 39 -45 97q0 47 29 83t79 55.5t112 19.5q117 0 180 -87l-86 -68q-17 24 -44.5 37.5t-62.5 13.5q-37 0 -63.5 -15.5t-26.5 -45.5q0 -21 20 -38t50 -17h72l-17 -94h-84q-37 0 -62.5 -16t-25.5 -46q0 -25 22.5 -41
t58.5 -16q42 0 75.5 15t67.5 47l76 -73q-47 -50 -103 -74t-132 -24q-60 0 -104 19zM330 736h153l-111 -136h-107z" />
    <glyph glyph-name="etatonos" unicode="&#x3ae;" horiz-adv-x="600" 
d="M415 293q4 22 4 38q0 31 -22 52t-58 21q-58 0 -94 -38.5t-48 -105.5l-46 -260h-131l90 510h122l-11 -64h8q26 38 67.5 59t95.5 21q78 0 120 -44t42 -112q0 -34 -5 -62l-93 -524h-131zM387 736h153l-111 -136h-107z" />
    <glyph glyph-name="iotatonos" unicode="&#x3af;" horiz-adv-x="276" 
d="M118 510h130l-89 -510h-130zM211 736h153l-111 -136h-107z" />
    <glyph glyph-name="upsilondieresistonos" unicode="&#x3b0;" horiz-adv-x="596" 
d="M156 7.5q-49 23.5 -76 66t-27 98.5q0 38 6 67l47 271h131l-48 -272q-4 -17 -4 -36q0 -46 26.5 -71.5t67.5 -25.5q51 0 85.5 27t51.5 69t17 89q0 101 -54 220h140q45 -110 45 -221q0 -92 -37.5 -161t-104.5 -106.5t-152 -37.5q-65 0 -114 23.5zM318 732h74l-25 -144h-74z
M161.5 612.5q-19.5 19.5 -19.5 46.5q0 28 19.5 47t46.5 19q28 0 47 -19t19 -47q0 -27 -19 -46.5t-47 -19.5q-27 0 -46.5 19.5zM429.5 612.5q-19.5 19.5 -19.5 46.5q0 28 19.5 47t46.5 19q28 0 47 -19t19 -47q0 -27 -19 -46.5t-47 -19.5q-27 0 -46.5 19.5z" />
    <glyph glyph-name="alpha" unicode="&#x3b1;" horiz-adv-x="631" 
d="M136.5 12.5q-47.5 28.5 -76.5 81t-29 120.5q0 88 37 159.5t103 112t150 40.5q59 0 95.5 -22.5t53.5 -55.5h8l10 62h123l-90 -510h-122l10 61h-8q-23 -37 -62 -57t-100 -20q-55 0 -102.5 28.5zM364 127q37 22 59.5 62.5t22.5 92.5q0 53 -34.5 87.5t-84.5 34.5
q-47 0 -85 -22t-59 -61.5t-21 -89.5q0 -56 35.5 -91t85.5 -35q44 0 81 22z" />
    <glyph glyph-name="beta" unicode="&#x3b2;" horiz-adv-x="601" 
d="M124 507q18 102 82 163.5t171 61.5q57 0 103.5 -23t73 -62.5t26.5 -87.5q0 -63 -31 -105t-79 -63l-2 -8q40 -22 63.5 -62t23.5 -99q0 -61 -32 -116t-88.5 -88.5t-126.5 -33.5q-84 0 -135 59h-8l-5 -76l-33 -183h-130zM388 137q36 34 36 87q0 46 -31 73t-80 27h-21l20 115
h22q48 0 82 24.5t34 66.5q0 38 -24 59.5t-62 21.5q-44 0 -72.5 -29t-36.5 -75l-49 -278q-3 -16 -3 -36q0 -41 26.5 -65.5t72.5 -24.5q50 0 86 34z" />
    <glyph glyph-name="gamma" unicode="&#x3b3;" horiz-adv-x="603" 
d="M191 4l-138 506h144l83 -336h8l199 336h153l-318 -505l-39 -221h-131z" />
    <glyph glyph-name="delta" unicode="&#x3b4;" horiz-adv-x="611" 
d="M147.5 15.5q-54.5 31.5 -85.5 85t-31 117.5q0 69 27.5 131t81.5 106.5t130 59.5l-132 101l17 100h443l-20 -111h-248l129 -98q62 -47 88.5 -102.5t26.5 -121.5q0 -80 -38 -148.5t-107.5 -109.5t-159.5 -41q-67 0 -121.5 31.5zM361 127.5q37 22.5 59.5 61t22.5 84.5
q0 54 -34 93.5t-89 39.5q-42 0 -78 -23t-57 -63.5t-21 -91.5q0 -35 17 -63t44 -44t58 -16q41 0 78 22.5z" />
    <glyph glyph-name="epsilon" unicode="&#x3b5;" horiz-adv-x="522" 
d="M111 3q-44 19 -67 52t-23 73q0 97 103 135l1 8q-45 39 -45 97q0 47 29 83t79 55.5t112 19.5q117 0 180 -87l-86 -68q-17 24 -44.5 37.5t-62.5 13.5q-37 0 -63.5 -15.5t-26.5 -45.5q0 -21 20 -38t50 -17h72l-17 -94h-84q-37 0 -62.5 -16t-25.5 -46q0 -25 22.5 -41
t58.5 -16q42 0 75.5 15t67.5 47l76 -73q-47 -50 -103 -74t-132 -24q-60 0 -104 19z" />
    <glyph glyph-name="zeta" unicode="&#x3b6;" horiz-adv-x="522" 
d="M272 -64q19 0 31.5 9t12.5 26q0 14 -9.5 21.5t-26.5 7.5h-123q-67 0 -107 36t-40 92q0 43 21 76t67 62q46 28 201 133h-226l20 111h417l-19 -106l-304 -196q-21 -12 -30 -24.5t-9 -29.5q0 -21 15.5 -32t37.5 -11h98q65 0 104 -34t39 -90q0 -74 -50.5 -114.5t-137.5 -40.5
z" />
    <glyph glyph-name="eta" unicode="&#x3b7;" horiz-adv-x="600" 
d="M415 293q4 22 4 38q0 31 -22 52t-58 21q-58 0 -94 -38.5t-48 -105.5l-46 -260h-131l90 510h122l-11 -64h8q26 38 67.5 59t95.5 21q78 0 120 -44t42 -112q0 -34 -5 -62l-93 -524h-131z" />
    <glyph glyph-name="theta" unicode="&#x3b8;" horiz-adv-x="695" 
d="M178.5 20.5q-55.5 36.5 -86.5 103t-31 154.5q0 110 43.5 207t122 156t178.5 59q73 0 128.5 -36.5t86.5 -103t31 -154.5q0 -110 -43.5 -207t-122 -156t-178.5 -59q-73 0 -128.5 36.5zM517 416q-6 74 -39.5 117.5t-86.5 43.5q-60 0 -107.5 -44.5t-70.5 -116.5h304z
M438.5 162.5q50.5 55.5 69.5 141.5h-314v-9q0 -85 34 -136.5t93 -51.5q67 0 117.5 55.5z" />
    <glyph glyph-name="iota" unicode="&#x3b9;" horiz-adv-x="276" 
d="M118 510h130l-89 -510h-130z" />
    <glyph glyph-name="kappa" unicode="&#x3ba;" horiz-adv-x="541" 
d="M111 510h131l-39 -219h8l203 219h157l-2 -8l-228 -240l149 -254l-1 -8h-148l-138 244h-8l-44 -244h-130z" />
    <glyph glyph-name="lambda" unicode="&#x3bb;" horiz-adv-x="562" 
d="M249 468l-63 238h143l179 -706h-145l-68 295h-7l-173 -295h-152z" />
    <glyph glyph-name="uni03BC" unicode="&#x3bc;" horiz-adv-x="600" 
d="M106 510h131l-54 -301q-2 -9 -2 -30q0 -33 22 -53.5t58 -20.5q58 0 94 39t48 106l46 260h131l-90 -510h-122l11 64h-8q-27 -40 -62.5 -60t-87.5 -20q-20 0 -41.5 7t-33.5 17h-8l-2 -65l-28 -159h-130z" />
    <glyph glyph-name="nu" unicode="&#x3bd;" horiz-adv-x="578" 
d="M53 510h148l66 -332h8l189 332h151l-308 -510h-131z" />
    <glyph glyph-name="xi" unicode="&#x3be;" horiz-adv-x="552" 
d="M303 -64q19 0 31.5 10t12.5 26q0 13 -9 20.5t-25 7.5h-76q-67 0 -116 24t-75 65.5t-26 91.5q0 68 36.5 118.5t108.5 82.5l2 8q-64 51 -64 130q0 58 33 106.5t92.5 77t133.5 28.5q73 0 124.5 -30.5t79.5 -79.5l-112 -74q-32 67 -105 67q-47 0 -82 -27t-35 -73
q0 -38 28.5 -61.5t69.5 -23.5h99l-21 -113h-110q-61 0 -101.5 -27t-40.5 -79q0 -40 33 -64t84 -24h41q74 0 117 -33.5t43 -96.5q0 -77 -51 -118.5t-138 -42.5z" />
    <glyph glyph-name="omicron" unicode="&#x3bf;" horiz-adv-x="609" 
d="M146.5 15.5q-54.5 31.5 -84.5 85.5t-30 121q0 85 38 154.5t107 109.5t159 40q71 0 125.5 -31.5t84.5 -85.5t30 -121q0 -85 -38 -154.5t-107 -109.5t-159 -40q-71 0 -125.5 31.5zM366 127q36 22 57 61t21 86q0 57 -33 93.5t-90 36.5q-43 0 -79 -22t-57 -60.5t-21 -85.5
q0 -58 33 -94.5t90 -36.5q43 0 79 22z" />
    <glyph glyph-name="pi" unicode="&#x3c0;" horiz-adv-x="751" 
d="M478 29.5q-39 37.5 -39 100.5q0 27 5 53l37 215h-186l-69 -398h-131l70 398h-116l20 112h684l-20 -112h-121l-37 -209q-2 -13 -2 -29q0 -21 12 -35t34 -14q19 0 33 4.5t33 14.5l-22 -125q-43 -13 -80 -13q-66 0 -105 37.5z" />
    <glyph glyph-name="rho" unicode="&#x3c1;" horiz-adv-x="634" 
d="M43 253q22 124 97.5 198.5t197.5 74.5q76 0 131 -30t83 -83t28 -120q0 -82 -36 -153t-101.5 -113.5t-149.5 -42.5q-54 0 -93 22t-61 55h-8l-3 -72l-37 -205h-130zM365 126.5q38 21.5 60 61.5t22 92q0 57 -35.5 91t-86.5 34q-44 0 -81 -23t-58.5 -63.5t-21.5 -90.5
q0 -54 34 -88.5t82 -34.5q47 0 85 21.5z" />
    <glyph glyph-name="sigma1" unicode="&#x3c2;" horiz-adv-x="562" 
d="M150 16q-56 32 -87 88t-31 126q0 78 37 145.5t105.5 108.5t159.5 41q86 0 144 -38t79 -105l-125 -49q-12 35 -42 52.5t-73 17.5t-78 -22.5t-55 -59.5t-20 -79q0 -63 36 -100t100 -37h26q70 0 110.5 -35.5t40.5 -93.5q0 -78 -49.5 -118.5t-138.5 -41.5l18 104q19 0 31.5 9
t12.5 26q0 13 -9.5 21t-29.5 8h-34q-72 0 -128 32z" />
    <glyph glyph-name="sigma" unicode="&#x3c3;" horiz-adv-x="630" 
d="M147 15.5q-55 31.5 -85.5 85.5t-30.5 119q0 80 38 146.5t105.5 105t152.5 38.5h328l-19 -111h-32l-78 8l-2 -8q43 -50 43 -131q0 -78 -36.5 -143t-103.5 -103t-153 -38q-72 0 -127 31.5zM361.5 127q34.5 22 54 59t19.5 80q0 52 -33.5 87t-88.5 35q-42 0 -76 -20
t-53.5 -56t-19.5 -80q0 -53 33 -90t86 -37q44 0 78.5 22z" />
    <glyph glyph-name="tau" unicode="&#x3c4;" horiz-adv-x="507" 
d="M211 388h-159l21 122h450l-21 -122h-160l-69 -388h-130z" />
    <glyph glyph-name="upsilon" unicode="&#x3c5;" horiz-adv-x="596" 
d="M156 7.5q-49 23.5 -76 66t-27 98.5q0 38 6 67l47 271h131l-48 -272q-4 -17 -4 -36q0 -46 26.5 -71.5t67.5 -25.5q51 0 85.5 27t51.5 69t17 89q0 101 -54 220h140q45 -110 45 -221q0 -92 -37.5 -161t-104.5 -106.5t-152 -37.5q-65 0 -114 23.5z" />
    <glyph glyph-name="phi" unicode="&#x3c6;" horiz-adv-x="765" 
d="M267 -11q-100 14 -159.5 76t-59.5 157q0 196 214 304l42 -109q-124 -69 -124 -179q0 -49 29 -83.5t78 -45.5l45 255q9 51 39.5 87.5t72 55.5t84.5 19q92 0 142 -56t50 -152q0 -91 -41 -163.5t-114.5 -116t-166.5 -49.5l-36 -205h-132zM543 177.5q47 54.5 47 128.5
q0 50 -16.5 76t-47.5 26q-25 0 -42.5 -16.5t-22.5 -45.5l-42 -237q77 14 124 68.5z" />
    <glyph glyph-name="chi" unicode="&#x3c7;" horiz-adv-x="536" 
d="M189 266l-130 244h154l69 -147h7l116 147h161l-220 -253l131 -257h-152l-70 152h-7l-120 -152h-161z" />
    <glyph glyph-name="psi" unicode="&#x3c8;" horiz-adv-x="747" 
d="M265 -16q-58 0 -107.5 24.5t-79.5 72t-30 111.5q0 30 5 55l46 263h131l-49 -277q-3 -16 -3 -33q0 -49 32 -72t76 -23l71 405h132l-71 -404q83 1 123 57.5t40 135.5q0 61 -8.5 109.5t-26.5 101.5h132q34 -86 34 -201q0 -92 -38 -165.5t-109.5 -116.5t-167.5 -43l-36 -200
h-132z" />
    <glyph glyph-name="omega" unicode="&#x3c9;" horiz-adv-x="830" 
d="M121 9q-43 25 -68.5 71.5t-25.5 108.5q0 82 34 161t98 160h148q-67 -87 -104 -159t-37 -144q0 -44 21 -69.5t55 -25.5q38 0 67.5 32t40.5 96l26 145h123l-26 -145q-4 -27 -4 -47q0 -39 18.5 -60t51.5 -21q37 0 65 26t42.5 67t14.5 86q0 56 -11.5 105t-38.5 114h144
q22 -54 32 -105.5t10 -111.5q0 -79 -30.5 -150t-90.5 -115t-144 -44q-56 0 -94 26t-54 66q-59 -92 -169 -92q-51 0 -94 25z" />
    <glyph glyph-name="iotadieresis" unicode="&#x3ca;" horiz-adv-x="276" 
d="M76.5 630.5q-20.5 20.5 -20.5 48.5q0 29 20.5 49t48.5 20q29 0 49 -20t20 -49q0 -28 -20 -48.5t-49 -20.5q-28 0 -48.5 20.5zM244.5 630.5q-20.5 20.5 -20.5 48.5q0 29 20.5 49t48.5 20q29 0 49 -20t20 -49q0 -28 -20 -48.5t-49 -20.5q-28 0 -48.5 20.5zM118 510h130
l-89 -510h-130z" />
    <glyph glyph-name="upsilondieresis" unicode="&#x3cb;" horiz-adv-x="596" 
d="M156 7.5q-49 23.5 -76 66t-27 98.5q0 38 6 67l47 271h131l-48 -272q-4 -17 -4 -36q0 -46 26.5 -71.5t67.5 -25.5q51 0 85.5 27t51.5 69t17 89q0 101 -54 220h140q45 -110 45 -221q0 -92 -37.5 -161t-104.5 -106.5t-152 -37.5q-65 0 -114 23.5zM200 628q-21 21 -21 51
t21 50.5t50 20.5q31 0 51.5 -20.5t20.5 -50.5t-20.5 -51t-51.5 -21q-29 0 -50 21zM390.5 628q-21.5 21 -21.5 51t21 50.5t51 20.5t51 -20.5t21 -50.5t-21 -51t-51 -21q-29 0 -50.5 21z" />
    <glyph glyph-name="omicrontonos" unicode="&#x3cc;" horiz-adv-x="609" 
d="M146.5 15.5q-54.5 31.5 -84.5 85.5t-30 121q0 85 38 154.5t107 109.5t159 40q71 0 125.5 -31.5t84.5 -85.5t30 -121q0 -85 -38 -154.5t-107 -109.5t-159 -40q-71 0 -125.5 31.5zM366 127q36 22 57 61t21 86q0 57 -33 93.5t-90 36.5q-43 0 -79 -22t-57 -60.5t-21 -85.5
q0 -58 33 -94.5t90 -36.5q43 0 79 22zM366 736h153l-111 -136h-107z" />
    <glyph glyph-name="upsilontonos" unicode="&#x3cd;" horiz-adv-x="596" 
d="M156 7.5q-49 23.5 -76 66t-27 98.5q0 38 6 67l47 271h131l-48 -272q-4 -17 -4 -36q0 -46 26.5 -71.5t67.5 -25.5q51 0 85.5 27t51.5 69t17 89q0 101 -54 220h140q45 -110 45 -221q0 -92 -37.5 -161t-104.5 -106.5t-152 -37.5q-65 0 -114 23.5zM344 736h153l-111 -136
h-107z" />
    <glyph glyph-name="omegatonos" unicode="&#x3ce;" horiz-adv-x="830" 
d="M121 9q-43 25 -68.5 71.5t-25.5 108.5q0 82 34 161t98 160h148q-67 -87 -104 -159t-37 -144q0 -44 21 -69.5t55 -25.5q38 0 67.5 32t40.5 96l26 145h123l-26 -145q-4 -27 -4 -47q0 -39 18.5 -60t51.5 -21q37 0 65 26t42.5 67t14.5 86q0 56 -11.5 105t-38.5 114h144
q22 -54 32 -105.5t10 -111.5q0 -79 -30.5 -150t-90.5 -115t-144 -44q-56 0 -94 26t-54 66q-59 -92 -169 -92q-51 0 -94 25zM487 736h153l-111 -136h-107z" />
    <glyph glyph-name="theta1" unicode="&#x3d1;" horiz-adv-x="673" 
d="M153.5 8q-46.5 24 -73 69.5t-26.5 107.5q0 24 5 56l47 269h124l-48 -274q-3 -21 -3 -35q0 -49 27.5 -74.5t72.5 -25.5q57 0 93.5 34t46.5 99l6 40q-72 22 -117 85.5t-45 152.5q0 61 22 111t65.5 79.5t105.5 29.5q70 0 108 -39t38 -105q0 -14 -5 -44l-30 -169h89l-19 -107
h-89l-7 -42q-19 -116 -93 -179t-189 -63q-59 0 -105.5 24zM478 568q1 8 1 17q0 18 -9.5 29t-26.5 11q-29 0 -45 -32t-16 -75t16.5 -77.5t47.5 -51.5z" />
    <glyph glyph-name="Upsilon1" unicode="&#x3d2;" horiz-adv-x="664" 
d="M279 312l-82 247q-8 25 -20 35.5t-31 10.5t-33 -8l-34 99q20 12 48 20t58 8q93 0 127 -100l54 -168h8l114 170q38 57 76.5 77.5t84.5 20.5q57 0 92 -29l-57 -101q-15 11 -34 11q-18 0 -34 -10.5t-33 -35.5l-169 -247l-54 -312h-135z" />
    <glyph glyph-name="uni03D3" unicode="&#x3d3;" horiz-adv-x="783" 
d="M398 312l-82 247q-8 25 -20 35.5t-31 10.5t-33 -8l-34 99q20 12 48 20t58 8q93 0 127 -100l54 -168h8l114 170q38 57 76.5 77.5t84.5 20.5q57 0 92 -29l-57 -101q-15 11 -34 11q-18 0 -34 -10.5t-33 -35.5l-169 -247l-54 -312h-135zM16 724h154l-114 -136h-106z" />
    <glyph glyph-name="uni03D4" unicode="&#x3d4;" horiz-adv-x="664" 
d="M279 312l-82 247q-8 25 -20 35.5t-31 10.5t-33 -8l-34 99q20 12 48 20t58 8q93 0 127 -100l54 -168h8l114 170q38 57 76.5 77.5t84.5 20.5q57 0 92 -29l-57 -101q-15 11 -34 11q-18 0 -34 -10.5t-33 -35.5l-169 -247l-54 -312h-135zM276 792.5q-21 21.5 -21 50.5
q0 30 21 51t51 21t50.5 -21t20.5 -51t-20.5 -51t-50.5 -21t-51 21.5zM467 792.5q-21 21.5 -21 50.5q0 30 21 51t50 21q31 0 51.5 -21t20.5 -51t-21 -51t-51 -21q-29 0 -50 21.5z" />
    <glyph glyph-name="omega1" unicode="&#x3d6;" horiz-adv-x="915" 
d="M162 8q-41 24 -65 69.5t-24 107.5q0 65 18.5 118t48.5 107h-73l18 100h835l-18 -100h-78q12 -56 12 -120q0 -84 -30 -153.5t-89 -111t-142 -41.5q-56 0 -94 25.5t-54 66.5q-28 -43 -73.5 -67.5t-99.5 -24.5q-51 0 -92 24zM350.5 144.5q31.5 32.5 42.5 95.5l18 99h122
l-17 -99q-4 -24 -4 -45q0 -40 19 -61.5t50 -21.5q57 0 88 51t31 125q0 34 -4.5 61.5t-11.5 60.5h-399q-30 -48 -51.5 -103.5t-21.5 -104.5q0 -42 18.5 -66t50.5 -24q38 0 69.5 32.5z" />
    <glyph glyph-name="uni0400" unicode="&#x400;" horiz-adv-x="593" 
d="M163 716h454l-23 -128h-319l-30 -166h288l-23 -128h-288l-29 -166h319l-22 -128h-454zM264 908h148l19 -136h-102z" />
    <glyph glyph-name="uni0401" unicode="&#x401;" horiz-adv-x="593" 
d="M163 716h454l-23 -128h-319l-30 -166h288l-23 -128h-288l-29 -166h319l-22 -128h-454zM249 792.5q-21 21.5 -21 50.5q0 30 21 51t51 21t50.5 -21t20.5 -51t-20.5 -51t-50.5 -21t-51 21.5zM440 792.5q-21 21.5 -21 50.5q0 30 21 51t50 21q31 0 51.5 -21t20.5 -51t-21 -51
t-51 -21q-29 0 -50 21.5z" />
    <glyph glyph-name="uni0402" unicode="&#x402;" horiz-adv-x="795" 
d="M279 588h-193l22 128h525l-23 -128h-197l-26 -147l-21 -75h8q38 35 81 53.5t103 18.5q54 0 99.5 -23.5t72 -68t26.5 -104.5q0 -71 -35 -126t-97 -85.5t-141 -30.5h-33l21 120h21q54 0 90 28.5t36 78.5q0 41 -28 64t-76 23q-45 0 -90 -21.5t-73 -54.5l-42 -238h-135z" />
    <glyph glyph-name="uni0403" unicode="&#x403;" horiz-adv-x="546" 
d="M163 716h438l-23 -128h-303l-105 -588h-134zM405 908h154l-114 -136h-106z" />
    <glyph glyph-name="uni0404" unicode="&#x404;" horiz-adv-x="749" 
d="M210.5 26.5q-72.5 42.5 -113 118.5t-40.5 173q0 107 54.5 202t154 153.5t226.5 58.5q86 0 148.5 -30.5t109.5 -92.5l-111 -88q-62 83 -170 83q-94 0 -167 -51t-99 -136h321l-21 -118h-312q7 -86 61.5 -136.5t137.5 -50.5q64 0 112.5 23.5t96.5 71.5l83 -91
q-66 -67 -140 -99.5t-166 -32.5q-93 0 -165.5 42.5z" />
    <glyph glyph-name="uni0405" unicode="&#x405;" horiz-adv-x="590" 
d="M104 36.5q-66 52.5 -83 150.5l129 52q5 -56 38 -91.5t89 -35.5q52 0 87.5 26t35.5 69q0 37 -26 62t-89 50l-35 14q-65 25 -106 71.5t-41 118.5q0 59 33.5 107t91.5 75t129 27q68 0 115 -23.5t71.5 -58.5t31.5 -71l-124 -47q-8 35 -34.5 55.5t-72.5 20.5q-44 0 -75 -21.5
t-31 -58.5q0 -32 23.5 -54t76.5 -41l41 -15q76 -29 116.5 -76t40.5 -120q0 -69 -34.5 -123t-96.5 -84.5t-143 -30.5q-92 0 -158 52.5z" />
    <glyph glyph-name="uni0406" unicode="&#x406;" horiz-adv-x="298" 
d="M163 716h134l-127 -716h-134z" />
    <glyph glyph-name="uni0407" unicode="&#x407;" horiz-adv-x="298" 
d="M111 800q-20 20 -20 47q0 28 20 48t48 20t47.5 -20t19.5 -48q0 -27 -19.5 -47t-47.5 -20t-48 20zM290 800q-20 20 -20 47q0 28 20 48t47 20q29 0 48.5 -19.5t19.5 -48.5q0 -27 -20 -47t-48 -20q-27 0 -47 20zM163 716h134l-127 -716h-134z" />
    <glyph glyph-name="uni0408" unicode="&#x408;" horiz-adv-x="569" 
d="M130 6q-47 22 -78 61.5t-37 89.5l129 50q5 -46 33 -70.5t70 -24.5q45 0 75.5 30t40.5 84l86 490h135l-87 -489q-22 -124 -92 -183.5t-173 -59.5q-55 0 -102 22z" />
    <glyph glyph-name="uni0409" unicode="&#x409;" horiz-adv-x="1106" 
d="M-19 -3l22 127q10 -5 32 -5q40 0 67 25q21 20 33.5 58.5t24.5 106.5l72 407h507l-50 -285h146q64 0 115.5 -22.5t81 -67t29.5 -106.5q0 -70 -35.5 -123t-99.5 -82.5t-148 -29.5h-300l104 588h-238l-57 -325q-14 -82 -39 -136t-63 -87q-29 -25 -66 -36.5t-86 -11.5
q-37 0 -52 5zM799 125q53 0 86.5 27t33.5 72q0 38 -25 60t-68 22h-159l-32 -181h164z" />
    <glyph glyph-name="uni040A" unicode="&#x40a;" horiz-adv-x="1087" 
d="M163 716h134l-50 -285h288l51 285h135l-51 -285h146q64 0 115.5 -22.5t81.5 -67t30 -106.5q0 -70 -35.5 -123t-100 -82.5t-148.5 -29.5h-300l55 306h-289l-55 -306h-134zM780 125q53 0 86.5 27t33.5 72q0 38 -25 60t-68 22h-159l-32 -181h164z" />
    <glyph glyph-name="uni040B" unicode="&#x40b;" horiz-adv-x="793" 
d="M281 588h-193l23 128h524l-22 -128h-197l-27 -147l-20 -75h8q38 34 81.5 53t100.5 19q80 0 127.5 -47.5t47.5 -127.5q0 -24 -4 -47l-39 -216h-128l35 198q3 15 3 34q0 37 -26.5 59.5t-73.5 22.5q-83 0 -147 -76l-43 -238h-134z" />
    <glyph glyph-name="uni040C" unicode="&#x40c;" horiz-adv-x="672" 
d="M163 716h134l-59 -336h8l310 336h172l-2 -8l-341 -360l230 -340l-1 -8h-164l-215 319h-8l-57 -319h-134zM440 908h154l-114 -136h-106z" />
    <glyph glyph-name="uni040D" unicode="&#x40d;" horiz-adv-x="714" 
d="M153 716h133l-64 -360l-32 -138h8l374 498h152l-127 -716h-134l63 351l32 138h-8l-367 -489h-157zM328 908h148l19 -136h-102z" />
    <glyph glyph-name="uni040E" unicode="&#x40e;" horiz-adv-x="636" 
d="M35 4l55 115q21 -14 46 -14q40 0 68 43l35 53l-143 515h141l90 -361h8l218 361h149l-382 -608q-43 -68 -88.5 -96t-104.5 -28q-48 0 -92 20zM315.5 795q-34.5 32 -34.5 81q0 13 2 23h92q-1 -4 -1 -9q0 -16 10 -26.5t28 -10.5q19 0 33 13t18 33h92q-10 -66 -51 -101
t-104 -35q-50 0 -84.5 32z" />
    <glyph glyph-name="uni040F" unicode="&#x40f;" horiz-adv-x="713" 
d="M246 0h-210l126 716h135l-104 -588h281l103 588h135l-126 -716h-211l-28 -163h-129z" />
    <glyph glyph-name="uni0410" unicode="&#x410;" horiz-adv-x="722" 
d="M360 716h158l143 -716h-144l-31 171h-273l-90 -171h-153zM463 295l-33 180l-11 86h-8l-40 -86l-94 -180h186z" />
    <glyph glyph-name="uni0411" unicode="&#x411;" horiz-adv-x="645" 
d="M163 716h450l-22 -124h-316l-28 -158h143q58 0 106 -24t76 -67.5t28 -100.5q0 -74 -35.5 -129t-98 -84t-140.5 -29h-290zM343 125q53 0 87.5 28t34.5 75q0 39 -24.5 61t-67.5 22h-147l-33 -186h150z" />
    <glyph glyph-name="uni0412" unicode="&#x412;" horiz-adv-x="646" 
d="M163 716h254q67 0 115.5 -24t73.5 -64t25 -88q0 -66 -36 -107t-90 -58l-1 -8q42 -19 68.5 -56t26.5 -89q0 -66 -36 -116.5t-98 -78t-139 -27.5h-290zM381 424q52 0 83.5 24t31.5 68q0 35 -23 57t-61 22h-137l-29 -171h135zM343 123q51 0 85.5 26.5t34.5 72.5
q0 39 -25 62.5t-71 23.5h-142l-33 -185h151z" />
    <glyph glyph-name="uni0413" unicode="&#x413;" horiz-adv-x="546" 
d="M163 716h438l-23 -128h-303l-105 -588h-134z" />
    <glyph glyph-name="uni0414" unicode="&#x414;" horiz-adv-x="813" 
d="M25 128h86q46 58 81 158t54 212l38 218h485l-104 -588h79l-49 -280h-130l27 152h-460l-27 -152h-128zM531 128l81 460h-217l-20 -113q-22 -120 -49 -200t-70 -147h275z" />
    <glyph glyph-name="uni0415" unicode="&#x415;" horiz-adv-x="593" 
d="M163 716h454l-23 -128h-319l-30 -166h288l-23 -128h-288l-29 -166h319l-22 -128h-454z" />
    <glyph glyph-name="uni0416" unicode="&#x416;" horiz-adv-x="960" 
d="M-40 8l325 353l-184 347l2 8h159l166 -327h8l58 327h135l-58 -327h8l276 327h169l-2 -8l-311 -361l201 -339l-1 -8h-163l-183 313h-8l-55 -313h-135l55 313h-8l-281 -313h-175z" />
    <glyph glyph-name="uni0417" unicode="&#x417;" horiz-adv-x="571" 
d="M151.5 5.5q-50.5 21.5 -84.5 63t-43 99.5l124 48q8 -53 38.5 -81t79.5 -28q56 0 93.5 30.5t37.5 84.5q0 41 -31 67.5t-82 26.5h-57l19 113h47q58 0 98.5 27.5t40.5 78.5q0 36 -24 58t-64 22q-44 0 -75.5 -23.5t-45.5 -57.5l-107 47q26 65 87.5 108t154.5 43
q61 0 108 -22.5t72.5 -62t25.5 -89.5q0 -118 -113 -175l-2 -8q35 -21 58 -58.5t23 -91.5q0 -71 -36 -126t-98 -85t-137 -30q-57 0 -107.5 21.5z" />
    <glyph glyph-name="uni0418" unicode="&#x418;" horiz-adv-x="714" 
d="M153 716h133l-64 -360l-32 -138h8l374 498h152l-127 -716h-134l63 351l32 138h-8l-367 -489h-157z" />
    <glyph glyph-name="uni0419" unicode="&#x419;" horiz-adv-x="714" 
d="M153 716h133l-64 -360l-32 -138h8l374 498h152l-127 -716h-134l63 351l32 138h-8l-367 -489h-157zM365.5 795q-34.5 32 -34.5 81q0 13 2 23h92q-1 -4 -1 -9q0 -16 10 -26.5t28 -10.5q19 0 33 13t18 33h92q-10 -66 -51 -101t-104 -35q-50 0 -84.5 32z" />
    <glyph glyph-name="uni041A" unicode="&#x41a;" horiz-adv-x="672" 
d="M163 716h134l-59 -336h8l310 336h172l-2 -8l-341 -360l230 -340l-1 -8h-164l-215 319h-8l-57 -319h-134z" />
    <glyph glyph-name="uni041B" unicode="&#x41b;" horiz-adv-x="729" 
d="M-20 -3l22 127q10 -5 31 -5q41 0 68 25q21 20 33.5 58.5t24.5 106.5l71 407h508l-126 -716h-135l104 588h-238l-58 -325q-14 -83 -38.5 -137t-62.5 -86q-60 -48 -152 -48q-37 0 -52 5z" />
    <glyph glyph-name="uni041C" unicode="&#x41c;" horiz-adv-x="900" 
d="M163 716h170l102 -503h8l278 503h178l-127 -716h-133l63 353l29 119h-8l-263 -472h-107l-100 472h-8l-13 -119l-63 -353h-133z" />
    <glyph glyph-name="uni041D" unicode="&#x41d;" horiz-adv-x="734" 
d="M163 716h134l-51 -286h302l51 286h135l-127 -716h-135l54 302h-302l-54 -302h-134z" />
    <glyph glyph-name="uni041E" unicode="&#x41e;" horiz-adv-x="840" 
d="M222.5 25.5q-77.5 41.5 -121.5 117.5t-44 174q0 112 53.5 207t150.5 151.5t220 56.5q98 0 175 -43t120 -119t43 -171q0 -112 -53.5 -207t-150 -151.5t-219.5 -56.5q-96 0 -173.5 41.5zM547 150q63 38 99.5 103.5t36.5 143.5q0 60 -28 107t-77 73.5t-109 26.5
q-77 0 -140 -38t-99.5 -102.5t-36.5 -141.5q0 -61 28 -109t77 -74.5t109 -26.5q77 0 140 38z" />
    <glyph glyph-name="uni041F" unicode="&#x41f;" horiz-adv-x="713" 
d="M163 716h550l-127 -716h-135l104 588h-280l-105 -588h-134z" />
    <glyph glyph-name="uni0420" unicode="&#x420;" horiz-adv-x="614" 
d="M163 716h240q63 0 113 -26t78 -72.5t28 -107.5q0 -77 -35.5 -133t-98.5 -85t-144 -29h-127l-47 -263h-134zM361 391q57 0 91.5 28t34.5 81q0 40 -24 64t-67 24h-121l-35 -197h121z" />
    <glyph glyph-name="uni0421" unicode="&#x421;" horiz-adv-x="750" 
d="M216.5 24.5q-74.5 40.5 -117 115.5t-42.5 176q0 112 55.5 207.5t154 152t221.5 56.5q87 0 153.5 -32.5t105.5 -90.5l-107 -88q-31 41 -71.5 62t-98.5 21q-75 0 -138.5 -37.5t-101.5 -102t-38 -141.5q0 -63 26 -111t72.5 -74t105.5 -26q62 0 111 25t98 74l86 -97
q-68 -69 -139.5 -99.5t-167.5 -30.5q-93 0 -167.5 40.5z" />
    <glyph glyph-name="uni0422" unicode="&#x422;" horiz-adv-x="588" 
d="M285 588h-200l23 128h534l-22 -128h-200l-105 -588h-134z" />
    <glyph glyph-name="uni0423" unicode="&#x423;" horiz-adv-x="636" 
d="M35 4l55 115q21 -14 46 -14q40 0 68 43l35 53l-143 515h141l90 -361h8l218 361h149l-382 -608q-43 -68 -88.5 -96t-104.5 -28q-48 0 -92 20z" />
    <glyph glyph-name="uni0424" unicode="&#x424;" horiz-adv-x="827" 
d="M312 61q-81 11 -140 48t-90 94t-31 127q0 93 48.5 163.5t131.5 111.5t186 51l19 108h135l-20 -109q122 -17 191.5 -90t69.5 -179q0 -94 -48 -164.5t-131 -111.5t-187 -51l-18 -107h-135zM395 534q-93 -13 -150.5 -63t-57.5 -131q0 -62 38.5 -103t108.5 -54zM619.5 244
q57.5 50 57.5 130q0 63 -38 104t-109 55l-62 -352q94 13 151.5 63z" />
    <glyph glyph-name="uni0425" unicode="&#x425;" horiz-adv-x="694" 
d="M278 377l-171 339h170l104 -231h8l182 231h174l-292 -351l184 -365h-165l-122 251h-8l-201 -251h-174z" />
    <glyph glyph-name="uni0426" unicode="&#x426;" horiz-adv-x="771" 
d="M548 0h-512l126 716h135l-103 -588h283l103 588h135l-103 -588h89l-51 -296h-131z" />
    <glyph glyph-name="uni0427" unicode="&#x427;" horiz-adv-x="627" 
d="M433 309q-33 -25 -69 -37t-85 -12q-55 0 -100.5 22.5t-72 67t-26.5 105.5q0 28 6 59l36 202h135l-37 -205q-2 -13 -2 -29q0 -45 28.5 -69.5t75.5 -24.5q39 0 71 13t63 40l49 275h135l-127 -716h-135z" />
    <glyph glyph-name="uni0428" unicode="&#x428;" horiz-adv-x="952" 
d="M163 716h134l-104 -588h192l105 588h135l-105 -588h193l104 588h135l-127 -716h-789z" />
    <glyph glyph-name="uni0429" unicode="&#x429;" horiz-adv-x="998" 
d="M775 0h-739l127 716h134l-104 -588h192l105 588h135l-105 -588h193l104 588h135l-105 -588h81l-51 -296h-131z" />
    <glyph glyph-name="uni042A" unicode="&#x42a;" horiz-adv-x="788" 
d="M277 593h-191l22 123h325l-43 -245h115q68 0 122.5 -25t86.5 -72t32 -111q0 -80 -38 -139.5t-105.5 -91.5t-155.5 -32h-275zM472 125q61 0 99.5 33t38.5 91q0 46 -30.5 73t-81.5 27h-130l-39 -224h143z" />
    <glyph glyph-name="uni042B" unicode="&#x42b;" horiz-adv-x="897" 
d="M163 716h134l-43 -245h115q68 0 122.5 -25t86.5 -72t32 -111q0 -80 -38 -139.5t-105.5 -91.5t-155.5 -32h-275zM762 716h135l-127 -716h-135zM336 125q61 0 99.5 33t38.5 91q0 46 -30.5 73t-81.5 27h-130l-39 -224h143z" />
    <glyph glyph-name="uni042C" unicode="&#x42c;" horiz-adv-x="652" 
d="M163 716h134l-43 -245h115q68 0 122.5 -25t86.5 -72t32 -111q0 -80 -38 -139.5t-105.5 -91.5t-155.5 -32h-275zM336 125q61 0 99.5 33t38.5 91q0 46 -30.5 73t-81.5 27h-130l-39 -224h143z" />
    <glyph glyph-name="uni042D" unicode="&#x42d;" horiz-adv-x="750" 
d="M139 20.5q-74 36.5 -117 100.5l105 86q30 -45 78 -70t112 -25q94 0 164.5 52t97.5 135h-319l20 118h312q-8 88 -61.5 137.5t-136.5 49.5q-103 0 -182 -79l-89 90q117 117 283 117q95 0 168 -42.5t113.5 -118t40.5 -172.5q0 -112 -54 -207.5t-150 -151.5t-215 -56
q-96 0 -170 36.5z" />
    <glyph glyph-name="uni042E" unicode="&#x42e;" horiz-adv-x="1111" 
d="M497.5 23q-75.5 39 -120 110.5t-48.5 163.5v5h-105l-54 -302h-134l127 716h134l-51 -286h97q23 86 80.5 154.5t142.5 108t186 39.5q98 0 175 -43t119.5 -119t42.5 -171q0 -112 -53.5 -207t-150 -151.5t-219.5 -56.5q-93 0 -168.5 39zM817.5 150q63.5 38 100 103.5
t36.5 143.5q0 60 -28 107t-77 73.5t-110 26.5q-76 0 -139 -38t-99.5 -102.5t-36.5 -141.5q0 -61 28 -109t77 -74.5t109 -26.5q76 0 139.5 38z" />
    <glyph glyph-name="uni042F" unicode="&#x42f;" horiz-adv-x="649" 
d="M-13 8l239 275l1 7q-53 24 -87 71.5t-34 113.5q0 69 35.5 124t98.5 86t142 31h267l-127 -716h-135l48 269h-58l-230 -269h-162zM457 393l35 198h-126q-56 0 -90 -31t-34 -74q0 -42 27.5 -67.5t70.5 -25.5h117z" />
    <glyph glyph-name="uni0430" unicode="&#x430;" horiz-adv-x="555" 
d="M97.5 5.5q-37.5 21.5 -59.5 58t-22 79.5q0 86 58.5 135t168.5 49q73 0 135 -25l5 22l2 22q0 32 -29.5 53t-72.5 21q-38 0 -69.5 -14.5t-53.5 -41.5l-87 64q39 48 98 73t128 25q99 0 156.5 -48t57.5 -126q0 -20 -5 -52l-54 -300h-129l9 52h-8q-51 -68 -145 -68
q-46 0 -83.5 21.5zM317 120.5q37 34.5 45 87.5q-28 12 -53 18t-60 6q-49 0 -74.5 -20.5t-25.5 -58.5q0 -31 21.5 -49t55.5 -18q54 0 91 34.5z" />
    <glyph glyph-name="uni0431" unicode="&#x431;" horiz-adv-x="630" 
d="M157.5 18.5q-55.5 34.5 -87 99t-31.5 153.5q0 111 40 201.5t117 153.5q44 36 101 56.5t120 20.5q52 0 72 6.5t28 23.5h113q-19 -77 -71 -107t-151 -30q-73 0 -124 -34q-70 -47 -90 -117h8q61 81 178 81q59 0 106.5 -32.5t73.5 -85t26 -110.5q0 -91 -39.5 -162.5
t-108.5 -111.5t-154 -40q-71 0 -126.5 34.5zM410.5 154q44.5 49 44.5 125q0 55 -35 90t-88 35q-52 0 -88.5 -23.5t-55 -61.5t-18.5 -81q0 -42 18 -72t47 -45.5t60 -15.5q71 0 115.5 49z" />
    <glyph glyph-name="uni0432" unicode="&#x432;" horiz-adv-x="536" 
d="M109 510h246q71 0 111 -35.5t40 -90.5q0 -41 -24 -72t-57 -45l-1 -8q63 -31 63 -105q0 -69 -54 -111.5t-141 -42.5h-273zM325 309q26 0 43 15.5t17 39.5q0 22 -13 34.5t-36 12.5h-120l-18 -102h127zM298 103q30 0 50.5 17.5t20.5 45.5q0 22 -14.5 36.5t-41.5 14.5h-132
l-20 -114h137z" />
    <glyph glyph-name="uni0433" unicode="&#x433;" horiz-adv-x="451" 
d="M101 510h371l-19 -112h-241l-70 -398h-131z" />
    <glyph glyph-name="uni0434" unicode="&#x434;" horiz-adv-x="679" 
d="M8 115h61q25 31 46.5 87.5t34.5 125.5l32 182h434l-69 -395h74l-47 -267h-117l27 152h-379l-27 -152h-116zM421 115l49 280h-184l-17 -98q-12 -60 -26.5 -100.5t-38.5 -81.5h217z" />
    <glyph glyph-name="uni0435" unicode="&#x435;" horiz-adv-x="588" 
d="M146 16.5q-54 32.5 -83.5 88t-29.5 121.5q0 80 38 148.5t106.5 110t154.5 41.5q69 0 120 -30t78 -79t27 -106q0 -45 -13 -87h-383l-1 -11q1 -53 36.5 -83t85.5 -30q55 0 89 18.5t57 57.5l99 -52q-44 -70 -104 -105t-152 -35q-71 0 -125 32.5zM436 317v4q0 40 -32 69
t-84 29q-51 0 -89.5 -30t-53.5 -72h259z" />
    <glyph glyph-name="uni0436" unicode="&#x436;" horiz-adv-x="795" 
d="M-36 8l240 268l-139 226l1 8h145l122 -215h8l39 215h130l-38 -215h8l198 215h151l-2 -8l-223 -238l141 -256l-1 -8h-144l-130 239h-8l-42 -239h-131l42 239h-8l-208 -239h-153z" />
    <glyph glyph-name="uni0437" unicode="&#x437;" horiz-adv-x="520" 
d="M98.5 9.5q-50.5 25.5 -82.5 68.5l96 75q19 -29 49 -44.5t68 -15.5q45 0 74.5 16.5t29.5 44.5q0 27 -24.5 42.5t-65.5 15.5h-61l16 94h67q41 0 66 16.5t25 40.5q0 27 -20.5 43t-55.5 16t-61 -12t-48 -35l-78 68q43 44 91.5 63.5t107.5 19.5q53 0 95.5 -19.5t66 -53.5
t23.5 -77q0 -40 -23.5 -68t-56.5 -40l-2 -8q26 -13 44 -40.5t18 -66.5q0 -82 -67 -125.5t-173 -43.5q-68 0 -118.5 25.5z" />
    <glyph glyph-name="uni0438" unicode="&#x438;" horiz-adv-x="600" 
d="M109 510h131l-39 -219l-25 -96h8l261 315h136l-91 -510h-130l38 218l25 96h-8l-261 -314h-135z" />
    <glyph glyph-name="uni0439" unicode="&#x439;" horiz-adv-x="600" 
d="M109 510h131l-39 -219l-25 -96h8l261 315h136l-91 -510h-130l38 218l25 96h-8l-261 -314h-135zM278.5 630.5q-34.5 31.5 -34.5 80.5q0 5 2 23h93q-1 -4 -1 -9q0 -15 9.5 -25.5t27.5 -10.5q20 0 34 12.5t17 32.5h92q-10 -66 -51 -100.5t-104 -34.5q-50 0 -84.5 31.5z" />
    <glyph glyph-name="uni043A" unicode="&#x43a;" horiz-adv-x="541" 
d="M111 510h131l-39 -219h8l203 219h157l-2 -8l-228 -240l149 -254l-1 -8h-148l-138 244h-8l-44 -244h-130z" />
    <glyph glyph-name="uni043B" unicode="&#x43b;" horiz-adv-x="657" 
d="M5 0l22 115q15 -5 33 -5q21 0 35 14.5t25.5 50t22.5 99.5l41 236h453l-90 -510h-125l69 392h-203l-29 -161q-24 -132 -73 -185.5t-121 -53.5q-38 0 -60 8z" />
    <glyph glyph-name="uni043C" unicode="&#x43c;" horiz-adv-x="702" 
d="M96 510h152l92 -277h8l188 277h160l-91 -510h-125l38 214l25 96h-8l-170 -246h-92l-86 246h-8l-9 -96l-39 -214h-124z" />
    <glyph glyph-name="uni043D" unicode="&#x43d;" horiz-adv-x="595" 
d="M102 510h131l-34 -190h221l33 190h131l-91 -510h-130l34 198h-220l-35 -198h-131z" />
    <glyph glyph-name="uni043E" unicode="&#x43e;" horiz-adv-x="609" 
d="M146.5 15.5q-54.5 31.5 -84.5 85.5t-30 121q0 85 38 154.5t107 109.5t159 40q71 0 125.5 -31.5t84.5 -85.5t30 -121q0 -85 -38 -154.5t-107 -109.5t-159 -40q-71 0 -125.5 31.5zM366 127q36 22 57 61t21 86q0 57 -33 93.5t-90 36.5q-43 0 -79 -22t-57 -60.5t-21 -85.5
q0 -58 33 -94.5t90 -36.5q43 0 79 22z" />
    <glyph glyph-name="uni043F" unicode="&#x43f;" horiz-adv-x="584" 
d="M101 510h472l-90 -510h-131l69 388h-211l-69 -388h-130z" />
    <glyph glyph-name="uni0440" unicode="&#x440;" horiz-adv-x="630" 
d="M109 510h123l-11 -62h8q24 36 64.5 57t99.5 21t106 -30.5t74 -84.5t27 -120q0 -86 -36.5 -156t-102 -110.5t-149.5 -40.5q-53 0 -95.5 23t-57.5 54h-8l-3 -72l-36 -205h-131zM391.5 127.5q36.5 22.5 56.5 62.5t20 89q0 56 -35.5 90.5t-88.5 34.5q-42 0 -79 -21t-59 -60.5
t-22 -93.5t35.5 -89t88.5 -35q47 0 83.5 22.5z" />
    <glyph glyph-name="uni0441" unicode="&#x441;" horiz-adv-x="572" 
d="M148.5 15.5q-55.5 31.5 -86.5 86.5t-31 122q0 79 37.5 148.5t107.5 111.5t163 42q82 0 139.5 -39.5t78.5 -104.5l-122 -48q-13 33 -43.5 51.5t-70.5 18.5q-44 0 -80.5 -21.5t-57 -59.5t-20.5 -85q0 -59 35 -96t87 -37q46 0 79 19.5t51 54.5l111 -54q-38 -69 -104 -105
t-148 -36q-70 0 -125.5 31.5z" />
    <glyph glyph-name="uni0442" unicode="&#x442;" horiz-adv-x="507" 
d="M211 388h-159l21 122h450l-21 -122h-160l-69 -388h-130z" />
    <glyph glyph-name="uni0443" unicode="&#x443;" horiz-adv-x="579" 
d="M180 29l-127 481h146l77 -317h7l185 317h148l-444 -726h-143z" />
    <glyph glyph-name="uni0444" unicode="&#x444;" horiz-adv-x="777" 
d="M276 -10q-71 10 -126.5 45t-86 86.5t-30.5 109.5q0 84 42 147.5t118 100.5t178 44l34 193h131l-35 -195q70 -11 125 -47.5t85.5 -89.5t30.5 -113q0 -82 -44 -144.5t-120 -98t-171 -41.5l-36 -203h-131zM351 407q-85 -6 -137.5 -50t-52.5 -113q0 -53 37 -91.5t99 -49.5z
M562.5 149.5q51.5 40.5 51.5 111.5q0 55 -35.5 94.5t-97.5 50.5l-54 -304q84 7 135.5 47.5z" />
    <glyph glyph-name="uni0445" unicode="&#x445;" horiz-adv-x="536" 
d="M189 266l-130 244h154l69 -147h7l116 147h161l-220 -253l131 -257h-152l-70 152h-7l-120 -152h-161z" />
    <glyph glyph-name="uni0446" unicode="&#x446;" horiz-adv-x="642" 
d="M447 0h-427l90 510h130l-69 -393h211l69 393h131l-69 -393h72l-48 -269h-117z" />
    <glyph glyph-name="uni0447" unicode="&#x447;" horiz-adv-x="553" 
d="M344 180q-50 -22 -117 -22q-77 0 -125 42.5t-48 118.5q0 16 5 48l25 143h133l-25 -136q-3 -21 -3 -29q0 -33 21 -50.5t60 -17.5q59 0 97 28l35 205h131l-90 -510h-131z" />
    <glyph glyph-name="uni0448" unicode="&#x448;" horiz-adv-x="841" 
d="M109 510h128l-69 -393h154l70 393h128l-70 -393h155l69 393h128l-90 -510h-693z" />
    <glyph glyph-name="uni0449" unicode="&#x449;" horiz-adv-x="886" 
d="M668 0h-648l89 510h128l-69 -393h155l69 393h128l-69 -393h154l69 393h128l-68 -393h71l-47 -269h-118z" />
    <glyph glyph-name="uni044A" unicode="&#x44a;" horiz-adv-x="624" 
d="M184 407h-128l18 103h253l-31 -170h107q81 0 131.5 -42.5t50.5 -109.5q0 -85 -56.5 -136.5t-163.5 -51.5h-253zM379 103q37 0 60.5 19.5t23.5 55.5q0 28 -19.5 43.5t-51.5 15.5h-113l-24 -134h124z" />
    <glyph glyph-name="uni044B" unicode="&#x44b;" horiz-adv-x="758" 
d="M110 510h124l-31 -170h108q81 0 131 -42.5t50 -109.5q0 -85 -56.5 -136.5t-163.5 -51.5h-253zM614 510h124l-90 -510h-124zM286 103q37 0 60.5 19.5t23.5 55.5q0 28 -19.5 43.5t-51.5 15.5h-113l-24 -134h124z" />
    <glyph glyph-name="uni044C" unicode="&#x44c;" horiz-adv-x="531" 
d="M110 510h124l-31 -170h108q81 0 131 -42.5t50 -109.5q0 -85 -56.5 -136.5t-163.5 -51.5h-253zM286 103q37 0 60.5 19.5t23.5 55.5q0 28 -19.5 43.5t-51.5 15.5h-113l-24 -134h124z" />
    <glyph glyph-name="uni044D" unicode="&#x44d;" horiz-adv-x="555" 
d="M79.5 23q-56.5 39 -76.5 103l110 41q13 -35 42 -55t74 -20q58 0 103 32t62 83h-205l16 94h198q-6 56 -39.5 86.5t-82.5 30.5q-45 0 -81 -21.5t-56 -57.5l-98 49q36 65 99 101.5t144 36.5q68 0 121.5 -29t83.5 -83t30 -125q0 -81 -38 -151t-107.5 -112t-157.5 -42
q-85 0 -141.5 39z" />
    <glyph glyph-name="uni044E" unicode="&#x44e;" horiz-adv-x="842" 
d="M385 11.5q-53 27.5 -84 76t-37 110.5h-78l-35 -198h-131l91 510h130l-34 -190h72q29 93 105.5 149.5t183.5 56.5q72 0 126.5 -31t84.5 -85.5t30 -121.5q0 -85 -38 -154.5t-107 -109.5t-159 -40q-67 0 -120 27.5zM598.5 127q36.5 22 58 61t21.5 86q0 57 -33.5 93.5
t-90.5 36.5q-43 0 -79.5 -22t-58 -60.5t-21.5 -85.5q0 -57 33.5 -94t90.5 -37q43 0 79.5 22z" />
    <glyph glyph-name="uni044F" unicode="&#x44f;" horiz-adv-x="522" 
d="M-39 8l152 172l-1 7q-34 15 -58 51t-24 84q0 50 26 93t75 69t113 26h259l-91 -510h-124l31 171h-69l-147 -171h-144zM337 272l24 135h-119q-38 0 -61.5 -22t-23.5 -52q0 -29 19.5 -45t48.5 -16h112z" />
    <glyph glyph-name="uni0450" unicode="&#x450;" horiz-adv-x="588" 
d="M146 16.5q-54 32.5 -83.5 88t-29.5 121.5q0 80 38 148.5t106.5 110t154.5 41.5q69 0 120 -30t78 -79t27 -106q0 -45 -13 -87h-383l-1 -11q1 -53 36.5 -83t85.5 -30q55 0 89 18.5t57 57.5l99 -52q-44 -70 -104 -105t-152 -35q-71 0 -125 32.5zM436 317v4q0 40 -32 69
t-84 29q-51 0 -89.5 -30t-53.5 -72h259zM232 744h148l18 -136h-102z" />
    <glyph glyph-name="uni0451" unicode="&#x451;" horiz-adv-x="588" 
d="M146 16.5q-54 32.5 -83.5 88t-29.5 121.5q0 80 38 148.5t106.5 110t154.5 41.5q69 0 120 -30t78 -79t27 -106q0 -45 -13 -87h-383l-1 -11q1 -53 36.5 -83t85.5 -30q55 0 89 18.5t57 57.5l99 -52q-44 -70 -104 -105t-152 -35q-71 0 -125 32.5zM436 317v4q0 40 -32 69
t-84 29q-51 0 -89.5 -30t-53.5 -72h259zM213 628q-21 21 -21 51t21 50.5t50 20.5q31 0 51.5 -20.5t20.5 -50.5t-20.5 -51t-51.5 -21q-29 0 -50 21zM403.5 628q-21.5 21 -21.5 51t21 50.5t51 20.5t51 -20.5t21 -50.5t-21 -51t-51 -21q-29 0 -50.5 21z" />
    <glyph glyph-name="uni0452" unicode="&#x452;" horiz-adv-x="600" 
d="M254.5 -222.5q-23.5 3.5 -39.5 10.5l47 115q15 -9 34 -9q48 0 58 55l62 344q4 24 4 39q0 30 -22.5 51t-59.5 21q-57 0 -92.5 -38.5t-48.5 -111.5l-46 -254h-131l101 571h-58l15 91h58l10 54h131l-11 -54h136l-16 -91h-135l-7 -36l-23 -89h8q25 38 66 59t95 21
q76 0 120 -44.5t44 -113.5q0 -33 -6 -65l-64 -357q-17 -94 -62 -133t-123 -39q-21 0 -44.5 3.5z" />
    <glyph glyph-name="uni0453" unicode="&#x453;" horiz-adv-x="451" 
d="M101 510h371l-19 -112h-241l-70 -398h-131zM317 744h153l-113 -136h-106z" />
    <glyph glyph-name="uni0454" unicode="&#x454;" horiz-adv-x="551" 
d="M139.5 15.5q-52.5 31.5 -80.5 84.5t-28 116q0 87 39 158t109.5 111.5t159.5 40.5q155 0 203 -141l-111 -44q-10 34 -38 55.5t-67 21.5q-54 0 -97.5 -32t-61.5 -85h209l-16 -94h-205q6 -51 37.5 -83t85.5 -32q91 0 131 81l96 -47q-40 -71 -98.5 -106.5t-146.5 -35.5
q-68 0 -120.5 31.5z" />
    <glyph glyph-name="uni0455" unicode="&#x455;" horiz-adv-x="498" 
d="M81.5 23.5q-58.5 39.5 -75.5 100.5l121 49q8 -36 38.5 -55t71.5 -19q34 0 57.5 14.5t23.5 39.5q0 44 -70 60l-50 12q-57 13 -97 50t-40 92q0 72 59.5 115.5t158.5 43.5q75 0 125.5 -30t73.5 -88l-120 -44q-9 27 -33.5 41.5t-55.5 14.5q-37 0 -57.5 -13.5t-20.5 -32.5
q0 -16 16.5 -29.5t41.5 -19.5l73 -18q60 -15 94.5 -54t34.5 -89q0 -54 -27.5 -94.5t-78 -63t-118.5 -22.5q-87 0 -145.5 39.5z" />
    <glyph glyph-name="uni0456" unicode="&#x456;" horiz-adv-x="276" 
d="M148 591q-25 25 -25 60t25 59.5t60 24.5t59.5 -24.5t24.5 -59.5t-24.5 -60t-59.5 -25t-60 25zM117 510h131l-89 -510h-131z" />
    <glyph glyph-name="uni0457" unicode="&#x457;" horiz-adv-x="276" 
d="M76.5 630.5q-20.5 20.5 -20.5 48.5q0 29 20.5 49t48.5 20q29 0 49 -20t20 -49q0 -28 -20 -48.5t-49 -20.5q-28 0 -48.5 20.5zM244.5 630.5q-20.5 20.5 -20.5 48.5q0 29 20.5 49t48.5 20q29 0 49 -20t20 -49q0 -28 -20 -48.5t-49 -20.5q-28 0 -48.5 20.5zM118 510h130
l-89 -510h-130z" />
    <glyph glyph-name="uni0458" unicode="&#x458;" horiz-adv-x="276" 
d="M148 591q-25 25 -25 60t25 59.5t60 24.5t59.5 -24.5t24.5 -59.5t-24.5 -60t-59.5 -25t-60 25zM-77.5 -223.5q-20.5 2.5 -32.5 6.5l22 122q20 -11 50 -11q26 0 39 14t18 42l99 560h130l-99 -564q-18 -99 -64 -135.5t-124 -36.5q-18 0 -38.5 2.5z" />
    <glyph glyph-name="uni0459" unicode="&#x459;" horiz-adv-x="936" 
d="M8 0l22 115q15 -5 31 -5q31 0 49 31t31 107l46 262h453l-31 -179h111q49 0 88.5 -18.5t63 -52t23.5 -77.5q0 -87 -55.5 -135t-155.5 -48h-259l69 392h-204l-29 -165q-23 -128 -71.5 -181.5t-121.5 -53.5q-39 0 -60 8zM695 103q32 0 55.5 18.5t23.5 49.5q0 26 -17 41.5
t-45 15.5h-122l-22 -125h127z" />
    <glyph glyph-name="uni045A" unicode="&#x45a;" horiz-adv-x="892" 
d="M110 510h131l-32 -179h197l32 179h131l-32 -179h135q76 0 126.5 -42t50.5 -111q0 -82 -57 -130t-154 -48h-291l41 228h-198l-40 -228h-131zM649 103q32 0 55.5 18t23.5 51q0 25 -17.5 40.5t-46.5 15.5h-146l-22 -125h153z" />
    <glyph glyph-name="uni045B" unicode="&#x45b;" horiz-adv-x="600" 
d="M121 571h-58l15 91h58l10 54h131l-11 -54h136l-16 -91h-135l-7 -36l-23 -89h8q25 38 66 59t95 21q76 0 120 -44.5t44 -113.5q0 -33 -6 -65l-54 -303h-131l53 293q4 24 4 39q0 30 -22.5 51t-59.5 21q-57 0 -92.5 -38.5t-48.5 -111.5l-46 -254h-131z" />
    <glyph glyph-name="uni045C" unicode="&#x45c;" horiz-adv-x="541" 
d="M111 510h131l-39 -219h8l203 219h157l-2 -8l-228 -240l149 -254l-1 -8h-148l-138 244h-8l-44 -244h-130zM344 744h153l-113 -136h-106z" />
    <glyph glyph-name="uni045D" unicode="&#x45d;" horiz-adv-x="600" 
d="M109 510h131l-39 -219l-25 -96h8l261 315h136l-91 -510h-130l38 218l25 96h-8l-261 -314h-135zM248 744h148l18 -136h-102z" />
    <glyph glyph-name="uni045E" unicode="&#x45e;" horiz-adv-x="579" 
d="M180 29l-127 481h146l77 -317h7l185 317h148l-444 -726h-143zM259.5 630.5q-34.5 31.5 -34.5 80.5q0 5 2 23h93q-1 -4 -1 -9q0 -15 9.5 -25.5t27.5 -10.5q20 0 34 12.5t17 32.5h92q-10 -66 -51 -100.5t-104 -34.5q-50 0 -84.5 31.5z" />
    <glyph glyph-name="uni045F" unicode="&#x45f;" horiz-adv-x="608" 
d="M201 0h-181l89 510h131l-68 -389h217l68 389h131l-89 -510h-181l-27 -152h-118z" />
    <glyph glyph-name="uni0490" unicode="&#x490;" horiz-adv-x="556" 
d="M162 716h319l22 123h133l-44 -251h-318l-104 -588h-134z" />
    <glyph glyph-name="uni0491" unicode="&#x491;" horiz-adv-x="447" 
d="M101 510h254l19 107h113l-38 -219h-237l-69 -398h-131z" />
    <glyph glyph-name="uni04AE" unicode="&#x4ae;" horiz-adv-x="642" 
d="M269 333l-173 383h156l102 -237h8l180 237h167l-305 -383l-59 -333h-135z" />
    <glyph glyph-name="uni04AF" unicode="&#x4af;" horiz-adv-x="562" 
d="M170 1l-118 509h142l70 -345l188 345h149l-300 -509l-38 -217h-131z" />
    <glyph glyph-name="uni04B0" unicode="&#x4b0;" horiz-adv-x="642" 
d="M257 263h-172l17 98h154l-160 355h160l100 -237h8l179 237h166l-283 -355h155l-17 -98h-172l-47 -263h-135z" />
    <glyph glyph-name="uni04B1" unicode="&#x4b1;" horiz-adv-x="561" 
d="M169 0h-142l17 90h105l-8 36l-89 384h142l69 -345l190 345h146l-246 -420h105l-16 -90h-142l-38 -216h-131z" />
    <glyph glyph-name="uni0E3F" unicode="&#xe3f;" horiz-adv-x="597" 
d="M191 0h-192l121 684h191l18 100h89l-17 -100q76 -4 127.5 -47t51.5 -117q0 -60 -35 -103t-86 -58l-2 -8q43 -17 67.5 -52.5t24.5 -83.5q0 -65 -34.5 -113.5t-95 -74.5t-135.5 -27h-4l-17 -100h-89zM262 406l28 159h-61l-28 -159h61zM421 431q27 23 27 64q0 34 -18 51.5
t-50 18.5l-28 -159q42 2 69 25zM212 120l31 174h-62l-30 -174h61zM307 120q49 1 81.5 27t32.5 69q0 37 -21.5 57.5t-63.5 20.5h-4l-31 -174h6z" />
    <glyph glyph-name="Wgrave" unicode="&#x1e80;" horiz-adv-x="984" 
d="M99 716h150l26 -402l-1 -75h8l29 75l195 402h135l51 -402l3 -73h8l26 73l168 402h151l-308 -716h-146l-49 432l-2 77h-8l-30 -77l-201 -432h-139zM462 908h148l19 -136h-102z" />
    <glyph glyph-name="wgrave" unicode="&#x1e81;" horiz-adv-x="834" 
d="M53 510h140l33 -331h7l160 331h138l46 -331h7l142 331h146l-248 -510h-144l-45 330h-7l-161 -330h-140zM357 744h148l18 -136h-102z" />
    <glyph glyph-name="Wacute" unicode="&#x1e82;" horiz-adv-x="984" 
d="M99 716h150l26 -402l-1 -75h8l29 75l195 402h135l51 -402l3 -73h8l26 73l168 402h151l-308 -716h-146l-49 432l-2 77h-8l-30 -77l-201 -432h-139zM594 908h154l-114 -136h-106z" />
    <glyph glyph-name="wacute" unicode="&#x1e83;" horiz-adv-x="834" 
d="M53 510h140l33 -331h7l160 331h138l46 -331h7l142 331h146l-248 -510h-144l-45 330h-7l-161 -330h-140zM484 744h153l-113 -136h-106z" />
    <glyph glyph-name="Wdieresis" unicode="&#x1e84;" horiz-adv-x="984" 
d="M99 716h150l26 -402l-1 -75h8l29 75l195 402h135l51 -402l3 -73h8l26 73l168 402h151l-308 -716h-146l-49 432l-2 77h-8l-30 -77l-201 -432h-139zM447 792.5q-21 21.5 -21 50.5q0 30 21 51t51 21t50.5 -21t20.5 -51t-20.5 -51t-50.5 -21t-51 21.5zM638 792.5
q-21 21.5 -21 50.5q0 30 21 51t50 21q31 0 51.5 -21t20.5 -51t-21 -51t-51 -21q-29 0 -50 21.5z" />
    <glyph glyph-name="wdieresis" unicode="&#x1e85;" horiz-adv-x="834" 
d="M53 510h140l33 -331h7l160 331h138l46 -331h7l142 331h146l-248 -510h-144l-45 330h-7l-161 -330h-140zM338 628q-21 21 -21 51t21 50.5t50 20.5q31 0 51.5 -20.5t20.5 -50.5t-20.5 -51t-51.5 -21q-29 0 -50 21zM528.5 628q-21.5 21 -21.5 51t21 50.5t51 20.5t51 -20.5
t21 -50.5t-21 -51t-51 -21q-29 0 -50.5 21z" />
    <glyph glyph-name="uni1EA0" unicode="&#x1ea0;" horiz-adv-x="722" 
d="M360 716h158l143 -716h-144l-31 171h-273l-90 -171h-153zM463 295l-33 180l-11 86h-8l-40 -86l-94 -180h186zM242 -200q-22 22 -22 54q0 31 22 53t54 22q31 0 53 -22t22 -53q0 -32 -22 -54t-53 -22q-32 0 -54 22z" />
    <glyph glyph-name="uni1EA1" unicode="&#x1ea1;" horiz-adv-x="555" 
d="M97.5 5.5q-37.5 21.5 -59.5 58t-22 79.5q0 86 58.5 135t168.5 49q73 0 135 -25l5 22l2 22q0 32 -29.5 53t-72.5 21q-38 0 -69.5 -14.5t-53.5 -41.5l-87 64q39 48 98 73t128 25q99 0 156.5 -48t57.5 -126q0 -20 -5 -52l-54 -300h-129l9 52h-8q-51 -68 -145 -68
q-46 0 -83.5 21.5zM317 120.5q37 34.5 45 87.5q-28 12 -53 18t-60 6q-49 0 -74.5 -20.5t-25.5 -58.5q0 -31 21.5 -49t55.5 -18q54 0 91 34.5zM117 -200q-22 22 -22 54q0 31 22 53t54 22q31 0 53 -22t22 -53q0 -32 -22 -54t-53 -22q-32 0 -54 22z" />
    <glyph glyph-name="uni1EA2" unicode="&#x1ea2;" horiz-adv-x="722" 
d="M360 716h158l143 -716h-144l-31 171h-273l-90 -171h-153zM463 295l-33 180l-11 86h-8l-40 -86l-94 -180h186zM408 823q25 8 37 18.5t12 25.5q0 14 -8 20.5t-22 6.5q-13 0 -27.5 -3t-24.5 -7l-12 66q35 16 82 16q48 0 75.5 -22t27.5 -64q0 -99 -137 -126z" />
    <glyph glyph-name="uni1EA3" unicode="&#x1ea3;" horiz-adv-x="555" 
d="M97.5 5.5q-37.5 21.5 -59.5 58t-22 79.5q0 86 58.5 135t168.5 49q73 0 135 -25l5 22l2 22q0 32 -29.5 53t-72.5 21q-38 0 -69.5 -14.5t-53.5 -41.5l-87 64q39 48 98 73t128 25q99 0 156.5 -48t57.5 -126q0 -20 -5 -52l-54 -300h-129l9 52h-8q-51 -68 -145 -68
q-46 0 -83.5 21.5zM317 120.5q37 34.5 45 87.5q-28 12 -53 18t-60 6q-49 0 -74.5 -20.5t-25.5 -58.5q0 -31 21.5 -49t55.5 -18q54 0 91 34.5zM273 632q57 15 57 48q0 22 -34 22q-26 0 -48 -10l-13 65q34 17 85 17q45 0 72.5 -22.5t27.5 -61.5q0 -51 -36 -81t-99 -39z" />
    <glyph glyph-name="uni1EA4" unicode="&#x1ea4;" horiz-adv-x="722" 
d="M360 716h158l143 -716h-144l-31 171h-273l-90 -171h-153zM463 295l-33 180l-11 86h-8l-40 -86l-94 -180h186zM636 1000h150l-116 -126h-99zM269 760l136 126h114l92 -126l-2 -8h-119l-34 58h-12l-50 -58h-127z" />
    <glyph glyph-name="uni1EA5" unicode="&#x1ea5;" horiz-adv-x="555" 
d="M97.5 5.5q-37.5 21.5 -59.5 58t-22 79.5q0 86 58.5 135t168.5 49q73 0 135 -25l5 22l2 22q0 32 -29.5 53t-72.5 21q-38 0 -69.5 -14.5t-53.5 -41.5l-87 64q39 48 98 73t128 25q99 0 156.5 -48t57.5 -126q0 -20 -5 -52l-54 -300h-129l9 52h-8q-51 -68 -145 -68
q-46 0 -83.5 21.5zM317 120.5q37 34.5 45 87.5q-28 12 -53 18t-60 6q-49 0 -74.5 -20.5t-25.5 -58.5q0 -31 21.5 -49t55.5 -18q54 0 91 34.5zM517 858h150l-118 -126h-98zM148 610l136 126h114l92 -126l-2 -8h-119l-32 58h-12l-51 -58h-128z" />
    <glyph glyph-name="uni1EA6" unicode="&#x1ea6;" horiz-adv-x="722" 
d="M360 716h158l143 -716h-144l-31 171h-273l-90 -171h-153zM463 295l-33 180l-11 86h-8l-40 -86l-94 -180h186zM500 1000h150l21 -126h-90zM269 760l136 126h114l92 -126l-2 -8h-119l-34 58h-12l-50 -58h-127z" />
    <glyph glyph-name="uni1EA7" unicode="&#x1ea7;" horiz-adv-x="555" 
d="M97.5 5.5q-37.5 21.5 -59.5 58t-22 79.5q0 86 58.5 135t168.5 49q73 0 135 -25l5 22l2 22q0 32 -29.5 53t-72.5 21q-38 0 -69.5 -14.5t-53.5 -41.5l-87 64q39 48 98 73t128 25q99 0 156.5 -48t57.5 -126q0 -20 -5 -52l-54 -300h-129l9 52h-8q-51 -68 -145 -68
q-46 0 -83.5 21.5zM317 120.5q37 34.5 45 87.5q-28 12 -53 18t-60 6q-49 0 -74.5 -20.5t-25.5 -58.5q0 -31 21.5 -49t55.5 -18q54 0 91 34.5zM377 854h150l21 -126h-91zM145 610l136 126h114l92 -126l-2 -8h-119l-32 58h-12l-51 -58h-128z" />
    <glyph glyph-name="uni1EA8" unicode="&#x1ea8;" horiz-adv-x="722" 
d="M360 716h158l143 -716h-144l-31 171h-273l-90 -171h-153zM463 295l-33 180l-11 86h-8l-40 -86l-94 -180h186zM592 848q19 10 32 24t13 30q0 14 -7.5 20t-23.5 6q-24 0 -48 -10l13 73q32 9 65 9q44 0 68 -23.5t24 -61.5q0 -45 -24 -73t-71 -50zM269 760l136 126h114
l92 -126l-2 -8h-119l-34 58h-12l-50 -58h-127z" />
    <glyph glyph-name="uni1EA9" unicode="&#x1ea9;" horiz-adv-x="555" 
d="M97.5 5.5q-37.5 21.5 -59.5 58t-22 79.5q0 86 58.5 135t168.5 49q73 0 135 -25l5 22l2 22q0 32 -29.5 53t-72.5 21q-38 0 -69.5 -14.5t-53.5 -41.5l-87 64q39 48 98 73t128 25q99 0 156.5 -48t57.5 -126q0 -20 -5 -52l-54 -300h-129l9 52h-8q-51 -68 -145 -68
q-46 0 -83.5 21.5zM317 120.5q37 34.5 45 87.5q-28 12 -53 18t-60 6q-49 0 -74.5 -20.5t-25.5 -58.5q0 -31 21.5 -49t55.5 -18q54 0 91 34.5zM471 698q45 22 45 51q0 13 -8.5 21t-22.5 8q-24 0 -48 -10l13 73q25 9 65 9q43 0 67.5 -23t24.5 -61q0 -46 -24 -75.5t-71 -48.5z
M148 610l136 126h114l92 -126l-2 -8h-119l-32 58h-12l-51 -58h-128z" />
    <glyph glyph-name="uni1EAA" unicode="&#x1eaa;" horiz-adv-x="722" 
d="M360 716h158l143 -716h-144l-31 171h-273l-90 -171h-153zM463 295l-33 180l-11 86h-8l-40 -86l-94 -180h186zM343.5 976.5q27.5 23.5 71.5 23.5q32 0 64 -14q3 -1 15 -5.5t26 -4.5q24 0 34 24h85q-7 -47 -35 -70.5t-72 -23.5q-20 0 -33.5 3.5t-32.5 10.5q-9 4 -18.5 7
t-19.5 3q-12 0 -21 -6.5t-14 -17.5h-85q8 47 35.5 70.5zM269 760l136 126h114l92 -126l-2 -8h-119l-34 58h-12l-50 -58h-127z" />
    <glyph glyph-name="uni1EAB" unicode="&#x1eab;" horiz-adv-x="555" 
d="M97.5 5.5q-37.5 21.5 -59.5 58t-22 79.5q0 86 58.5 135t168.5 49q73 0 135 -25l5 22l2 22q0 32 -29.5 53t-72.5 21q-38 0 -69.5 -14.5t-53.5 -41.5l-87 64q39 48 98 73t128 25q99 0 156.5 -48t57.5 -126q0 -20 -5 -52l-54 -300h-129l9 52h-8q-51 -68 -145 -68
q-46 0 -83.5 21.5zM317 120.5q37 34.5 45 87.5q-28 12 -53 18t-60 6q-49 0 -74.5 -20.5t-25.5 -58.5q0 -31 21.5 -49t55.5 -18q54 0 91 34.5zM224.5 829.5q28.5 24.5 75.5 24.5q19 0 32 -3.5t28 -10.5q9 -4 18.5 -7t20.5 -3q12 0 21 6.5t13 17.5h85q-8 -45 -36.5 -69.5
t-75.5 -24.5q-32 0 -62 14q-22 10 -37 10q-12 0 -21 -6.5t-13 -17.5h-85q8 45 36.5 69.5zM147 610l136 126h114l92 -126l-2 -8h-119l-32 58h-12l-51 -58h-128z" />
    <glyph glyph-name="uni1EAC" unicode="&#x1eac;" horiz-adv-x="722" 
d="M360 716h158l143 -716h-144l-31 171h-273l-90 -171h-153zM463 295l-33 180l-11 86h-8l-40 -86l-94 -180h186zM242 -200q-22 22 -22 54q0 31 22 53t54 22q31 0 53 -22t22 -53q0 -32 -22 -54t-53 -22q-32 0 -54 22zM272 786l132 126h119l91 -126l-1 -8h-121l-31 59h-12
l-49 -59h-129z" />
    <glyph glyph-name="uni1EAD" unicode="&#x1ead;" horiz-adv-x="555" 
d="M97.5 5.5q-37.5 21.5 -59.5 58t-22 79.5q0 86 58.5 135t168.5 49q73 0 135 -25l5 22l2 22q0 32 -29.5 53t-72.5 21q-38 0 -69.5 -14.5t-53.5 -41.5l-87 64q39 48 98 73t128 25q99 0 156.5 -48t57.5 -126q0 -20 -5 -52l-54 -300h-129l9 52h-8q-51 -68 -145 -68
q-46 0 -83.5 21.5zM317 120.5q37 34.5 45 87.5q-28 12 -53 18t-60 6q-49 0 -74.5 -20.5t-25.5 -58.5q0 -31 21.5 -49t55.5 -18q54 0 91 34.5zM117 -200q-22 22 -22 54q0 31 22 53t54 22q31 0 53 -22t22 -53q0 -32 -22 -54t-53 -22q-32 0 -54 22zM146 610l132 126h119
l91 -126l-2 -8h-120l-32 58h-12l-48 -58h-130z" />
    <glyph glyph-name="uni1EAE" unicode="&#x1eae;" horiz-adv-x="722" 
d="M360 716h158l143 -716h-144l-31 171h-273l-90 -171h-153zM463 295l-33 180l-11 86h-8l-40 -86l-94 -180h186zM474 1000h141l-100 -90h-90zM340.5 779q-38.5 34 -38.5 83q0 10 1 15h96q0 -20 15 -33t43 -13t47 12.5t27 33.5h96q-30 -132 -185 -132q-63 0 -101.5 34z" />
    <glyph glyph-name="uni1EAF" unicode="&#x1eaf;" horiz-adv-x="555" 
d="M97.5 5.5q-37.5 21.5 -59.5 58t-22 79.5q0 86 58.5 135t168.5 49q73 0 135 -25l5 22l2 22q0 32 -29.5 53t-72.5 21q-38 0 -69.5 -14.5t-53.5 -41.5l-87 64q39 48 98 73t128 25q99 0 156.5 -48t57.5 -126q0 -20 -5 -52l-54 -300h-129l9 52h-8q-51 -68 -145 -68
q-46 0 -83.5 21.5zM317 120.5q37 34.5 45 87.5q-28 12 -53 18t-60 6q-49 0 -74.5 -20.5t-25.5 -58.5q0 -31 21.5 -49t55.5 -18q54 0 91 34.5zM356 858h140l-103 -112h-92zM245.5 594q-31.5 18 -48 47t-16.5 62q0 9 1 14h96q0 -23 13 -39t39 -16q28 0 45 14t27 41h96
q-13 -66 -57 -103.5t-121 -37.5q-43 0 -74.5 18z" />
    <glyph glyph-name="uni1EB0" unicode="&#x1eb0;" horiz-adv-x="722" 
d="M360 716h158l143 -716h-144l-31 171h-273l-90 -171h-153zM463 295l-33 180l-11 86h-8l-40 -86l-94 -180h186zM356 1000h137l23 -90h-86zM339.5 779q-38.5 34 -38.5 83q0 10 1 15h96q0 -20 15 -33t43 -13t47 12.5t27 33.5h96q-30 -132 -185 -132q-63 0 -101.5 34z" />
    <glyph glyph-name="uni1EB1" unicode="&#x1eb1;" horiz-adv-x="555" 
d="M97.5 5.5q-37.5 21.5 -59.5 58t-22 79.5q0 86 58.5 135t168.5 49q73 0 135 -25l5 22l2 22q0 32 -29.5 53t-72.5 21q-38 0 -69.5 -14.5t-53.5 -41.5l-87 64q39 48 98 73t128 25q99 0 156.5 -48t57.5 -126q0 -20 -5 -52l-54 -300h-129l9 52h-8q-51 -68 -145 -68
q-46 0 -83.5 21.5zM317 120.5q37 34.5 45 87.5q-28 12 -53 18t-60 6q-49 0 -74.5 -20.5t-25.5 -58.5q0 -31 21.5 -49t55.5 -18q54 0 91 34.5zM236 858h137l18 -112h-90zM245.5 594q-31.5 18 -48 47t-16.5 62q0 9 1 14h96q0 -23 13 -39t39 -16q28 0 45 14t27 41h96
q-13 -66 -57 -103.5t-121 -37.5q-43 0 -74.5 18z" />
    <glyph glyph-name="uni1EB2" unicode="&#x1eb2;" horiz-adv-x="722" 
d="M360 716h158l143 -716h-144l-31 171h-273l-90 -171h-153zM463 295l-33 180l-11 86h-8l-40 -86l-94 -180h186zM421 882q17 9 17 23q0 23 -26 23q-17 0 -39 -9l13 73q29 8 56 8q39 0 62 -18t23 -50q0 -31 -20 -55t-51 -29zM336.5 779q-38.5 34 -38.5 83q0 10 1 15h96
q0 -20 15 -33t43 -13t47 12.5t27 33.5h96q-30 -132 -185 -132q-63 0 -101.5 34z" />
    <glyph glyph-name="uni1EB3" unicode="&#x1eb3;" horiz-adv-x="555" 
d="M97.5 5.5q-37.5 21.5 -59.5 58t-22 79.5q0 86 58.5 135t168.5 49q73 0 135 -25l5 22l2 22q0 32 -29.5 53t-72.5 21q-38 0 -69.5 -14.5t-53.5 -41.5l-87 64q39 48 98 73t128 25q99 0 156.5 -48t57.5 -126q0 -20 -5 -52l-54 -300h-129l9 52h-8q-51 -68 -145 -68
q-46 0 -83.5 21.5zM317 120.5q37 34.5 45 87.5q-28 12 -53 18t-60 6q-49 0 -74.5 -20.5t-25.5 -58.5q0 -31 21.5 -49t55.5 -18q54 0 91 34.5zM295 730q12 7 17.5 15t5.5 21q0 8 -7 13t-20 5q-16 0 -38 -9l-11 67q36 14 75 14q41 0 65 -19.5t24 -52.5q0 -36 -22.5 -62
t-53.5 -26zM216 628q-40 33 -40 82q0 11 1 17h96q1 -21 15.5 -33.5t42.5 -12.5t47.5 13t26.5 33h96q-13 -59 -56.5 -95.5t-125.5 -36.5q-63 0 -103 33z" />
    <glyph glyph-name="uni1EB4" unicode="&#x1eb4;" horiz-adv-x="722" 
d="M360 716h158l143 -716h-144l-31 171h-273l-90 -171h-153zM463 295l-33 180l-11 86h-8l-40 -86l-94 -180h186zM345 975q28 25 70 25q32 0 64 -14q3 -1 15 -5.5t26 -4.5q12 0 21 6.5t13 17.5h85q-8 -44 -36 -69t-70 -25q-20 0 -33.5 3.5t-32.5 10.5q-2 1 -14 5.5t-25 4.5
q-24 0 -34 -24h-85q8 44 36 69zM362 764q-33 19 -49.5 49.5t-13.5 63.5h96q0 -20 15 -33t43 -13t47 12.5t27 33.5h96q-14 -61 -58.5 -96.5t-126.5 -35.5q-43 0 -76 19z" />
    <glyph glyph-name="uni1EB5" unicode="&#x1eb5;" horiz-adv-x="555" 
d="M97.5 5.5q-37.5 21.5 -59.5 58t-22 79.5q0 86 58.5 135t168.5 49q73 0 135 -25l5 22l2 22q0 32 -29.5 53t-72.5 21q-38 0 -69.5 -14.5t-53.5 -41.5l-87 64q39 48 98 73t128 25q99 0 156.5 -48t57.5 -126q0 -20 -5 -52l-54 -300h-129l9 52h-8q-51 -68 -145 -68
q-46 0 -83.5 21.5zM317 120.5q37 34.5 45 87.5q-28 12 -53 18t-60 6q-49 0 -74.5 -20.5t-25.5 -58.5q0 -31 21.5 -49t55.5 -18q54 0 91 34.5zM218.5 829.5q26.5 28.5 76.5 28.5q21 0 35.5 -4.5t29.5 -12.5q22 -11 37 -11q12 0 22 8t15 20h85q-8 -56 -33 -82t-76 -26
q-22 0 -36.5 4.5t-30.5 12.5q-20 11 -35 11q-12 0 -22.5 -8.5t-14.5 -19.5h-85q6 51 32.5 79.5zM245 593.5q-33 17.5 -50.5 46.5t-17.5 63q0 9 1 14h97q0 -25 13 -40t39 -15t44 15t28 40h96q-14 -66 -54.5 -103.5t-118.5 -37.5q-44 0 -77 17.5z" />
    <glyph glyph-name="uni1EB6" unicode="&#x1eb6;" horiz-adv-x="722" 
d="M360 716h158l143 -716h-144l-31 171h-273l-90 -171h-153zM463 295l-33 180l-11 86h-8l-40 -86l-94 -180h186zM242 -200q-22 22 -22 54q0 31 22 53t54 22q31 0 53 -22t22 -53q0 -32 -22 -54t-53 -22q-32 0 -54 22zM360.5 795q-34.5 32 -34.5 81q0 13 2 23h92q-1 -4 -1 -9
q0 -16 10 -26.5t28 -10.5q19 0 33 13t18 33h92q-10 -66 -51 -101t-104 -35q-50 0 -84.5 32z" />
    <glyph glyph-name="uni1EB7" unicode="&#x1eb7;" horiz-adv-x="555" 
d="M97.5 5.5q-37.5 21.5 -59.5 58t-22 79.5q0 86 58.5 135t168.5 49q73 0 135 -25l5 22l2 22q0 32 -29.5 53t-72.5 21q-38 0 -69.5 -14.5t-53.5 -41.5l-87 64q39 48 98 73t128 25q99 0 156.5 -48t57.5 -126q0 -20 -5 -52l-54 -300h-129l9 52h-8q-51 -68 -145 -68
q-46 0 -83.5 21.5zM317 120.5q37 34.5 45 87.5q-28 12 -53 18t-60 6q-49 0 -74.5 -20.5t-25.5 -58.5q0 -31 21.5 -49t55.5 -18q54 0 91 34.5zM117 -200q-22 22 -22 54q0 31 22 53t54 22q31 0 53 -22t22 -53q0 -32 -22 -54t-53 -22q-32 0 -54 22zM234.5 630.5
q-34.5 31.5 -34.5 80.5q0 5 2 23h93q-1 -4 -1 -9q0 -15 9.5 -25.5t27.5 -10.5q20 0 34 12.5t17 32.5h92q-10 -66 -51 -100.5t-104 -34.5q-50 0 -84.5 31.5z" />
    <glyph glyph-name="uni1EB8" unicode="&#x1eb8;" horiz-adv-x="593" 
d="M163 716h454l-23 -128h-319l-30 -166h288l-23 -128h-288l-29 -166h319l-22 -128h-454zM176 -200q-22 22 -22 54q0 31 22 53t54 22q31 0 53 -22t22 -53q0 -32 -22 -54t-53 -22q-32 0 -54 22z" />
    <glyph glyph-name="uni1EB9" unicode="&#x1eb9;" horiz-adv-x="588" 
d="M146 16.5q-54 32.5 -83.5 88t-29.5 121.5q0 80 38 148.5t106.5 110t154.5 41.5q69 0 120 -30t78 -79t27 -106q0 -45 -13 -87h-383l-1 -11q1 -53 36.5 -83t85.5 -30q55 0 89 18.5t57 57.5l99 -52q-44 -70 -104 -105t-152 -35q-71 0 -125 32.5zM436 317v4q0 40 -32 69
t-84 29q-51 0 -89.5 -30t-53.5 -72h259zM188 -200q-22 22 -22 54q0 31 22 53t54 22q31 0 53 -22t22 -53q0 -32 -22 -54t-53 -22q-32 0 -54 22z" />
    <glyph glyph-name="uni1EBA" unicode="&#x1eba;" horiz-adv-x="593" 
d="M163 716h454l-23 -128h-319l-30 -166h288l-23 -128h-288l-29 -166h319l-22 -128h-454zM349 823q25 8 37 18.5t12 25.5q0 14 -8 20.5t-22 6.5q-13 0 -27.5 -3t-24.5 -7l-12 66q35 16 82 16q48 0 75.5 -22t27.5 -64q0 -99 -137 -126z" />
    <glyph glyph-name="uni1EBB" unicode="&#x1ebb;" horiz-adv-x="588" 
d="M146 16.5q-54 32.5 -83.5 88t-29.5 121.5q0 80 38 148.5t106.5 110t154.5 41.5q69 0 120 -30t78 -79t27 -106q0 -45 -13 -87h-383l-1 -11q1 -53 36.5 -83t85.5 -30q55 0 89 18.5t57 57.5l99 -52q-44 -70 -104 -105t-152 -35q-71 0 -125 32.5zM436 317v4q0 40 -32 69
t-84 29q-51 0 -89.5 -30t-53.5 -72h259zM301 632q57 15 57 48q0 22 -34 22q-26 0 -48 -10l-13 65q34 17 85 17q45 0 72.5 -22.5t27.5 -61.5q0 -51 -36 -81t-99 -39z" />
    <glyph glyph-name="uni1EBC" unicode="&#x1ebc;" horiz-adv-x="593" 
d="M163 716h454l-23 -128h-319l-30 -166h288l-23 -128h-288l-29 -166h319l-22 -128h-454zM418.5 777.5q-16.5 6.5 -40.5 19.5q-30 17 -45 17q-26 0 -33 -29h-92q8 63 42 95.5t86 32.5q20 0 36.5 -6.5t40.5 -19.5q30 -17 45 -17q26 0 33 29h92q-8 -63 -42 -95.5t-86 -32.5
q-20 0 -36.5 6.5z" />
    <glyph glyph-name="uni1EBD" unicode="&#x1ebd;" horiz-adv-x="588" 
d="M146 16.5q-54 32.5 -83.5 88t-29.5 121.5q0 80 38 148.5t106.5 110t154.5 41.5q69 0 120 -30t78 -79t27 -106q0 -45 -13 -87h-383l-1 -11q1 -53 36.5 -83t85.5 -30q55 0 89 18.5t57 57.5l99 -52q-44 -70 -104 -105t-152 -35q-71 0 -125 32.5zM436 317v4q0 40 -32 69
t-84 29q-51 0 -89.5 -30t-53.5 -72h259zM381 613.5q-17 6.5 -38 18.5q-31 18 -47 18q-25 0 -32 -29h-92q8 62 41.5 94.5t85.5 32.5q21 0 38 -7t39 -19q12 -7 24.5 -12t21.5 -5q26 0 32 29h92q-8 -62 -41.5 -94.5t-85.5 -32.5q-21 0 -38 6.5z" />
    <glyph glyph-name="uni1EBE" unicode="&#x1ebe;" horiz-adv-x="593" 
d="M163 716h454l-23 -128h-319l-30 -166h288l-23 -128h-288l-29 -166h319l-22 -128h-454zM577 1000h150l-116 -126h-99zM210 760l136 126h114l92 -126l-2 -8h-119l-34 58h-12l-50 -58h-127z" />
    <glyph glyph-name="uni1EBF" unicode="&#x1ebf;" horiz-adv-x="588" 
d="M146 16.5q-54 32.5 -83.5 88t-29.5 121.5q0 80 38 148.5t106.5 110t154.5 41.5q69 0 120 -30t78 -79t27 -106q0 -45 -13 -87h-383l-1 -11q1 -53 36.5 -83t85.5 -30q55 0 89 18.5t57 57.5l99 -52q-44 -70 -104 -105t-152 -35q-71 0 -125 32.5zM436 317v4q0 40 -32 69
t-84 29q-51 0 -89.5 -30t-53.5 -72h259zM545 858h150l-118 -126h-98zM176 610l136 126h114l92 -126l-2 -8h-119l-32 58h-12l-51 -58h-128z" />
    <glyph glyph-name="uni1EC0" unicode="&#x1ec0;" horiz-adv-x="593" 
d="M163 716h454l-23 -128h-319l-30 -166h288l-23 -128h-288l-29 -166h319l-22 -128h-454zM441 1000h150l21 -126h-90zM210 760l136 126h114l92 -126l-2 -8h-119l-34 58h-12l-50 -58h-127z" />
    <glyph glyph-name="uni1EC1" unicode="&#x1ec1;" horiz-adv-x="588" 
d="M146 16.5q-54 32.5 -83.5 88t-29.5 121.5q0 80 38 148.5t106.5 110t154.5 41.5q69 0 120 -30t78 -79t27 -106q0 -45 -13 -87h-383l-1 -11q1 -53 36.5 -83t85.5 -30q55 0 89 18.5t57 57.5l99 -52q-44 -70 -104 -105t-152 -35q-71 0 -125 32.5zM436 317v4q0 40 -32 69
t-84 29q-51 0 -89.5 -30t-53.5 -72h259zM405 854h150l21 -126h-91zM173 610l136 126h114l92 -126l-2 -8h-119l-32 58h-12l-51 -58h-128z" />
    <glyph glyph-name="uni1EC2" unicode="&#x1ec2;" horiz-adv-x="593" 
d="M163 716h454l-23 -128h-319l-30 -166h288l-23 -128h-288l-29 -166h319l-22 -128h-454zM533 848q19 10 32 24t13 30q0 14 -7.5 20t-23.5 6q-24 0 -48 -10l13 73q32 9 65 9q44 0 68 -23.5t24 -61.5q0 -45 -24 -73t-71 -50zM210 760l136 126h114l92 -126l-2 -8h-119l-34 58
h-12l-50 -58h-127z" />
    <glyph glyph-name="uni1EC3" unicode="&#x1ec3;" horiz-adv-x="588" 
d="M146 16.5q-54 32.5 -83.5 88t-29.5 121.5q0 80 38 148.5t106.5 110t154.5 41.5q69 0 120 -30t78 -79t27 -106q0 -45 -13 -87h-383l-1 -11q1 -53 36.5 -83t85.5 -30q55 0 89 18.5t57 57.5l99 -52q-44 -70 -104 -105t-152 -35q-71 0 -125 32.5zM436 317v4q0 40 -32 69
t-84 29q-51 0 -89.5 -30t-53.5 -72h259zM499 698q45 22 45 51q0 13 -8.5 21t-22.5 8q-24 0 -48 -10l13 73q25 9 65 9q43 0 67.5 -23t24.5 -61q0 -46 -24 -75.5t-71 -48.5zM176 610l136 126h114l92 -126l-2 -8h-119l-32 58h-12l-51 -58h-128z" />
    <glyph glyph-name="uni1EC4" unicode="&#x1ec4;" horiz-adv-x="593" 
d="M163 716h454l-23 -128h-319l-30 -166h288l-23 -128h-288l-29 -166h319l-22 -128h-454zM284.5 976.5q27.5 23.5 71.5 23.5q32 0 64 -14q3 -1 15 -5.5t26 -4.5q24 0 34 24h85q-7 -47 -35 -70.5t-72 -23.5q-20 0 -33.5 3.5t-32.5 10.5q-9 4 -18.5 7t-19.5 3q-12 0 -21 -6.5
t-14 -17.5h-85q8 47 35.5 70.5zM210 760l136 126h114l92 -126l-2 -8h-119l-34 58h-12l-50 -58h-127z" />
    <glyph glyph-name="uni1EC5" unicode="&#x1ec5;" horiz-adv-x="588" 
d="M146 16.5q-54 32.5 -83.5 88t-29.5 121.5q0 80 38 148.5t106.5 110t154.5 41.5q69 0 120 -30t78 -79t27 -106q0 -45 -13 -87h-383l-1 -11q1 -53 36.5 -83t85.5 -30q55 0 89 18.5t57 57.5l99 -52q-44 -70 -104 -105t-152 -35q-71 0 -125 32.5zM436 317v4q0 40 -32 69
t-84 29q-51 0 -89.5 -30t-53.5 -72h259zM252.5 829.5q28.5 24.5 75.5 24.5q19 0 32 -3.5t28 -10.5q9 -4 18.5 -7t20.5 -3q12 0 21 6.5t13 17.5h85q-8 -45 -36.5 -69.5t-75.5 -24.5q-32 0 -62 14q-22 10 -37 10q-12 0 -21 -6.5t-13 -17.5h-85q8 45 36.5 69.5zM175 610
l136 126h114l92 -126l-2 -8h-119l-32 58h-12l-51 -58h-128z" />
    <glyph glyph-name="uni1EC6" unicode="&#x1ec6;" horiz-adv-x="593" 
d="M163 716h454l-23 -128h-319l-30 -166h288l-23 -128h-288l-29 -166h319l-22 -128h-454zM176 -200q-22 22 -22 54q0 31 22 53t54 22q31 0 53 -22t22 -53q0 -32 -22 -54t-53 -22q-32 0 -54 22zM213 786l132 126h119l91 -126l-1 -8h-121l-31 59h-12l-49 -59h-129z" />
    <glyph glyph-name="uni1EC7" unicode="&#x1ec7;" horiz-adv-x="588" 
d="M146 16.5q-54 32.5 -83.5 88t-29.5 121.5q0 80 38 148.5t106.5 110t154.5 41.5q69 0 120 -30t78 -79t27 -106q0 -45 -13 -87h-383l-1 -11q1 -53 36.5 -83t85.5 -30q55 0 89 18.5t57 57.5l99 -52q-44 -70 -104 -105t-152 -35q-71 0 -125 32.5zM436 317v4q0 40 -32 69
t-84 29q-51 0 -89.5 -30t-53.5 -72h259zM188 -200q-22 22 -22 54q0 31 22 53t54 22q31 0 53 -22t22 -53q0 -32 -22 -54t-53 -22q-32 0 -54 22zM174 610l132 126h119l91 -126l-2 -8h-120l-32 58h-12l-48 -58h-130z" />
    <glyph glyph-name="uni1EC8" unicode="&#x1ec8;" horiz-adv-x="298" 
d="M163 716h134l-127 -716h-134zM207 823q25 8 37 18.5t12 25.5q0 14 -8 20.5t-22 6.5q-13 0 -27.5 -3t-24.5 -7l-12 66q35 16 82 16q48 0 75.5 -22t27.5 -64q0 -99 -137 -126z" />
    <glyph glyph-name="uni1EC9" unicode="&#x1ec9;" horiz-adv-x="276" 
d="M118 510h130l-89 -510h-130zM155 632q57 15 57 48q0 22 -34 22q-26 0 -48 -10l-13 65q34 17 85 17q45 0 72.5 -22.5t27.5 -61.5q0 -51 -36 -81t-99 -39z" />
    <glyph glyph-name="uni1ECA" unicode="&#x1eca;" horiz-adv-x="298" 
d="M163 716h134l-127 -716h-134zM23 -200q-22 22 -22 54q0 31 22 53t54 22q31 0 53 -22t22 -53q0 -32 -22 -54t-53 -22q-32 0 -54 22z" />
    <glyph glyph-name="uni1ECB" unicode="&#x1ecb;" horiz-adv-x="276" 
d="M148 591q-25 25 -25 60t25 59.5t60 24.5t59.5 -24.5t24.5 -59.5t-24.5 -60t-59.5 -25t-60 25zM117 510h131l-89 -510h-131zM13 -200q-22 22 -22 54q0 31 22 53t54 22q31 0 53 -22t22 -53q0 -32 -22 -54t-53 -22q-32 0 -54 22z" />
    <glyph glyph-name="uni1ECC" unicode="&#x1ecc;" horiz-adv-x="840" 
d="M222.5 25.5q-77.5 41.5 -121.5 117.5t-44 174q0 112 53.5 207t150.5 151.5t220 56.5q98 0 175 -43t120 -119t43 -171q0 -112 -53.5 -207t-150 -151.5t-219.5 -56.5q-96 0 -173.5 41.5zM547 150q63 38 99.5 103.5t36.5 143.5q0 60 -28 107t-77 73.5t-109 26.5
q-77 0 -140 -38t-99.5 -102.5t-36.5 -141.5q0 -61 28 -109t77 -74.5t109 -26.5q77 0 140 38zM313 -200q-22 22 -22 54q0 31 22 53t54 22q31 0 53 -22t22 -53q0 -32 -22 -54t-53 -22q-32 0 -54 22z" />
    <glyph glyph-name="uni1ECD" unicode="&#x1ecd;" horiz-adv-x="609" 
d="M146.5 15.5q-54.5 31.5 -84.5 85.5t-30 121q0 85 38 154.5t107 109.5t159 40q71 0 125.5 -31.5t84.5 -85.5t30 -121q0 -85 -38 -154.5t-107 -109.5t-159 -40q-71 0 -125.5 31.5zM366 127q36 22 57 61t21 86q0 57 -33 93.5t-90 36.5q-43 0 -79 -22t-57 -60.5t-21 -85.5
q0 -58 33 -94.5t90 -36.5q43 0 79 22zM190 -200q-22 22 -22 54q0 31 22 53t54 22q31 0 53 -22t22 -53q0 -32 -22 -54t-53 -22q-32 0 -54 22z" />
    <glyph glyph-name="uni1ECE" unicode="&#x1ece;" horiz-adv-x="840" 
d="M222.5 25.5q-77.5 41.5 -121.5 117.5t-44 174q0 112 53.5 207t150.5 151.5t220 56.5q98 0 175 -43t120 -119t43 -171q0 -112 -53.5 -207t-150 -151.5t-219.5 -56.5q-96 0 -173.5 41.5zM547 150q63 38 99.5 103.5t36.5 143.5q0 60 -28 107t-77 73.5t-109 26.5
q-77 0 -140 -38t-99.5 -102.5t-36.5 -141.5q0 -61 28 -109t77 -74.5t109 -26.5q77 0 140 38zM462 823q25 8 37 18.5t12 25.5q0 14 -8 20.5t-22 6.5q-13 0 -27.5 -3t-24.5 -7l-12 66q35 16 82 16q48 0 75.5 -22t27.5 -64q0 -99 -137 -126z" />
    <glyph glyph-name="uni1ECF" unicode="&#x1ecf;" horiz-adv-x="609" 
d="M146.5 15.5q-54.5 31.5 -84.5 85.5t-30 121q0 85 38 154.5t107 109.5t159 40q71 0 125.5 -31.5t84.5 -85.5t30 -121q0 -85 -38 -154.5t-107 -109.5t-159 -40q-71 0 -125.5 31.5zM366 127q36 22 57 61t21 86q0 57 -33 93.5t-90 36.5q-43 0 -79 -22t-57 -60.5t-21 -85.5
q0 -58 33 -94.5t90 -36.5q43 0 79 22zM310 632q57 15 57 48q0 22 -34 22q-26 0 -48 -10l-13 65q34 17 85 17q45 0 72.5 -22.5t27.5 -61.5q0 -51 -36 -81t-99 -39z" />
    <glyph glyph-name="uni1ED0" unicode="&#x1ed0;" horiz-adv-x="840" 
d="M222.5 25.5q-77.5 41.5 -121.5 117.5t-44 174q0 112 53.5 207t150.5 151.5t220 56.5q98 0 175 -43t120 -119t43 -171q0 -112 -53.5 -207t-150 -151.5t-219.5 -56.5q-96 0 -173.5 41.5zM547 150q63 38 99.5 103.5t36.5 143.5q0 60 -28 107t-77 73.5t-109 26.5
q-77 0 -140 -38t-99.5 -102.5t-36.5 -141.5q0 -61 28 -109t77 -74.5t109 -26.5q77 0 140 38zM690 1000h150l-116 -126h-99zM323 760l136 126h114l92 -126l-2 -8h-119l-34 58h-12l-50 -58h-127z" />
    <glyph glyph-name="uni1ED1" unicode="&#x1ed1;" horiz-adv-x="609" 
d="M146.5 15.5q-54.5 31.5 -84.5 85.5t-30 121q0 85 38 154.5t107 109.5t159 40q71 0 125.5 -31.5t84.5 -85.5t30 -121q0 -85 -38 -154.5t-107 -109.5t-159 -40q-71 0 -125.5 31.5zM366 127q36 22 57 61t21 86q0 57 -33 93.5t-90 36.5q-43 0 -79 -22t-57 -60.5t-21 -85.5
q0 -58 33 -94.5t90 -36.5q43 0 79 22zM554 858h150l-118 -126h-98zM185 610l136 126h114l92 -126l-2 -8h-119l-32 58h-12l-51 -58h-128z" />
    <glyph glyph-name="uni1ED2" unicode="&#x1ed2;" horiz-adv-x="840" 
d="M222.5 25.5q-77.5 41.5 -121.5 117.5t-44 174q0 112 53.5 207t150.5 151.5t220 56.5q98 0 175 -43t120 -119t43 -171q0 -112 -53.5 -207t-150 -151.5t-219.5 -56.5q-96 0 -173.5 41.5zM547 150q63 38 99.5 103.5t36.5 143.5q0 60 -28 107t-77 73.5t-109 26.5
q-77 0 -140 -38t-99.5 -102.5t-36.5 -141.5q0 -61 28 -109t77 -74.5t109 -26.5q77 0 140 38zM554 1000h150l21 -126h-90zM323 760l136 126h114l92 -126l-2 -8h-119l-34 58h-12l-50 -58h-127z" />
    <glyph glyph-name="uni1ED3" unicode="&#x1ed3;" horiz-adv-x="609" 
d="M146.5 15.5q-54.5 31.5 -84.5 85.5t-30 121q0 85 38 154.5t107 109.5t159 40q71 0 125.5 -31.5t84.5 -85.5t30 -121q0 -85 -38 -154.5t-107 -109.5t-159 -40q-71 0 -125.5 31.5zM366 127q36 22 57 61t21 86q0 57 -33 93.5t-90 36.5q-43 0 -79 -22t-57 -60.5t-21 -85.5
q0 -58 33 -94.5t90 -36.5q43 0 79 22zM414 854h150l21 -126h-91zM182 610l136 126h114l92 -126l-2 -8h-119l-32 58h-12l-51 -58h-128z" />
    </font>
</defs>
</svg>
