<?xml version="1.0" standalone="no"?>
<!DOCTYPE svg PUBLIC "-//W3C//DTD SVG 1.1//EN" "http://www.w3.org/Graphics/SVG/1.1/DTD/svg11.dtd" >
<svg xmlns="http://www.w3.org/2000/svg" xmlns:xlink="http://www.w3.org/1999/xlink" version="1.1">
<metadata>
Created by FontForge 20170812 at Fri Jan 24 16:32:08 2020
 By www-data
Copyright 2015 Google LLC. All Rights Reserved.
</metadata>
<defs>
<font id="GoogleSans-Medium" horiz-adv-x="0" >
  <font-face 
    font-family="Google Sans Medium"
    font-weight="500"
    font-stretch="normal"
    units-per-em="1000"
    panose-1="2 11 6 3 3 5 2 4 2 3"
    ascent="800"
    descent="-200"
    x-height="510"
    cap-height="716"
    bbox="-417 -271 3284 1056"
    underline-thickness="84"
    underline-position="-244"
    unicode-range="U+0002-FFFD"
  />
<missing-glyph horiz-adv-x="585" 
d="M504 0h-424v716h424v-716zM442 58v600h-300v-600h300z" />
    <glyph glyph-name="G_l_o_g_o_l_i_g_a_t_u_r_e.liga" unicode="Glogoligature" horiz-adv-x="861" 
d="M253 39.5q-96 55.5 -152.5 149.5t-56.5 205t56.5 205t152.5 149.5t207 55.5q163 0 281 -113l-79 -79q-85 80 -202 80q-81 0 -148.5 -40t-106.5 -108.5t-39 -149.5t39 -149.5t106.5 -108.5t148.5 -40q72 0 121.5 23t85.5 59q49 49 61 141h-268v112h377q6 -30 6 -70
q0 -71 -23 -141t-74 -121q-110 -115 -286 -115q-111 0 -207 55.5z" />
    <glyph glyph-name="e_l_o_g_o_l_i_g_a_t_u_r_e.liga" unicode="elogoligature" horiz-adv-x="514" 
d="M155 19q-60 35 -94 95.5t-34 133.5q0 77 33.5 137t90.5 93.5t125 33.5q91 0 147 -53t79 -115l12 -30l-353 -146q41 -80 128 -80q80 0 130 73l90 -60q-30 -45 -85 -81t-135 -36q-74 0 -134 35zM378 354q-10 25 -37 40.5t-61 15.5q-31 0 -64 -18t-54 -53t-20 -83z" />
    <glyph glyph-name="g_l_o_g_o_l_i_g_a_t_u_r_e.liga" unicode="glogoligature" horiz-adv-x="566" 
d="M129 -206q-60 47 -86 109l101 42q16 -38 50 -66t83 -28q66 0 103.5 40t37.5 115v38h-4q-21 -26 -57.5 -43t-81.5 -17q-66 0 -124 35t-93.5 95.5t-35.5 132.5q0 73 35.5 133.5t94 96t123.5 35.5q45 0 81.5 -17t57.5 -42h4v43h110v-474q0 -138 -70.5 -206.5t-180.5 -68.5
q-88 0 -148 47zM356.5 108.5q32.5 20.5 51 57t18.5 81.5q0 46 -18.5 82.5t-51 57.5t-71.5 21q-40 0 -73.5 -21t-53.5 -58t-20 -82t20 -81.5t53.5 -57t73.5 -20.5q39 0 71.5 20.5z" />
    <glyph glyph-name="l_l_o_g_o_l_i_g_a_t_u_r_e.liga" unicode="llogoligature" horiz-adv-x="187" 
d="M42 776h116v-776h-116v776z" />
    <glyph glyph-name="o_l_o_g_o_l_i_g_a_t_u_r_e.liga" unicode="ologoligature" horiz-adv-x="578" 
d="M154 18.5q-61 34.5 -96.5 95t-35.5 134.5q0 75 35.5 135.5t96.5 94.5t133 34t133 -34t96.5 -94.5t35.5 -135.5q0 -74 -35.5 -134.5t-96.5 -95t-133 -34.5t-133 34.5zM361 108.5q34 20.5 54.5 57t20.5 82.5t-20.5 82.5t-54.5 57t-74 20.5t-74 -20.5t-54.5 -57t-20.5 -82.5
t20.5 -82.5t54.5 -57t74 -20.5t74 20.5z" />
    <glyph glyph-name="f_b.liga" unicode="fb" horiz-adv-x="998" 
d="M618.5 8.5q-43.5 24.5 -65.5 59.5h-6v-68h-102v622h-140q-35 0 -56 -21.5t-21 -60.5v-30h124v-94h-124v-416h-107v416h-93v94h93v30q0 85 49 132.5t135 47.5h248v-211l-6 -68h6q22 36 65.5 60.5t98.5 24.5q69 0 125 -35t88 -96.5t32 -139.5t-32 -140t-88 -96.5
t-125 -34.5q-55 0 -98.5 24.5zM776.5 104.5q35.5 21.5 57 60.5t21.5 90t-21.5 90t-57 60.5t-75.5 21.5t-75.5 -21.5t-57 -60.5t-21.5 -90t21.5 -90t57 -60.5t75.5 -21.5t75.5 21.5z" />
    <glyph glyph-name="f_f.liga" unicode="ff" horiz-adv-x="721" 
d="M121 416h-93v94h93v42q0 80 49.5 126t125.5 46q36 0 65 -9v-104l-19.5 6.5t-40.5 5.5q-31 0 -52 -21.5t-21 -58.5v-33h217v42q0 80 49.5 126t126.5 46q43 0 79 -12v-105q-21 8 -35.5 12t-34.5 4q-33 0 -55 -21t-22 -59v-33h128v-94h-128v-416h-108v416h-217v-416h-107
v416z" />
    <glyph glyph-name="f_f_b.liga" unicode="ffb" horiz-adv-x="1323" 
d="M943 8.5q-43 24.5 -65 59.5h-6v-68h-102v622h-140q-35 0 -56 -21.5t-21 -60.5v-30h124v-94h-124v-416h-108v416h-217v-416h-107v416h-93v94h93v42q0 80 49.5 126t125.5 46q36 0 65 -9v-104l-19.5 6.5t-40.5 5.5q-31 0 -52 -21.5t-21 -58.5v-33h217v30q0 85 49.5 132.5
t134.5 47.5h249v-211l-6 -68h6q22 36 65 60.5t98 24.5q69 0 125.5 -35t88.5 -96.5t32 -139.5t-32 -140t-88.5 -96.5t-125.5 -34.5q-55 0 -98 24.5zM1101.5 104.5q35.5 21.5 56.5 60.5t21 90t-21 90t-56.5 60.5t-75.5 21.5t-75.5 -21.5t-57 -60.5t-21.5 -90t21.5 -90
t57 -60.5t75.5 -21.5t75.5 21.5z" />
    <glyph glyph-name="f_f_h.liga" unicode="ffh" horiz-adv-x="1289" 
d="M121 416h-93v94h93v42q0 80 49.5 126t125.5 46q36 0 65 -9v-104l-19.5 6.5t-40.5 5.5q-31 0 -52 -21.5t-21 -58.5v-33h217v30q0 85 49.5 132.5t134.5 47.5h248v-218l-6 -69h6q20 41 64.5 67t97.5 26q93 0 141.5 -55.5t48.5 -148.5v-322h-108v308q0 59 -31 89t-80 30
q-37 0 -67.5 -21.5t-48 -57.5t-17.5 -76v-272h-107v622h-140q-35 0 -56 -21.5t-21 -60.5v-30h124v-94h-124v-416h-108v416h-217v-416h-107v416z" />
    <glyph glyph-name="f_f_i.liga" unicode="ffi" horiz-adv-x="948" 
d="M121 416h-93v94h93v42q0 80 49.5 126t125.5 46q36 0 65 -9v-104l-19.5 6.5t-40.5 5.5q-31 0 -52 -21.5t-21 -58.5v-33h217v42q0 80 49.5 126t126.5 46q34 0 65 -9v-104l-19.5 6.5t-40.5 5.5q-31 0 -52 -21t-21 -59v-33h324v-510h-107v416h-217v-416h-108v416h-217v-416
h-107v416zM772 601q-21 21 -21 51q0 31 21 51.5t51 20.5q31 0 52 -20.5t21 -51.5q0 -30 -21 -51t-52 -21q-30 0 -51 21z" />
    <glyph glyph-name="f_f_j.liga" unicode="ffj" horiz-adv-x="948" 
d="M670 -219v104q24 -13 48 -13q27 0 39.5 17t12.5 51v476h-217v-416h-108v416h-217v-416h-107v416h-93v94h93v42q0 80 49.5 126t125.5 46q36 0 65 -9v-104l-19.5 6.5t-40.5 5.5q-31 0 -52 -21.5t-21 -58.5v-33h217v42q0 80 49.5 126t126.5 46q34 0 65 -9v-104l-19.5 6.5
t-40.5 5.5q-31 0 -52 -21t-21 -59v-33h324v-571q0 -84 -41 -124.5t-110 -40.5q-31 0 -56 7zM772 601q-21 21 -21 51q0 31 21 51.5t51 20.5q31 0 52 -20.5t21 -51.5q0 -30 -21 -51t-52 -21q-30 0 -51 21z" />
    <glyph glyph-name="f_f_k.liga" unicode="ffk" horiz-adv-x="1238" 
d="M121 416h-93v94h93v42q0 80 49.5 126t125.5 46q36 0 65 -9v-104l-19.5 6.5t-40.5 5.5q-31 0 -52 -21.5t-21 -58.5v-33h217v30q0 85 49.5 132.5t134.5 47.5h248v-424h4l211 214h135v-6l-197 -196l204 -302v-6h-128l-152 234l-77 -77v-157h-107v622h-140q-35 0 -56 -21.5
t-21 -60.5v-30h124v-94h-124v-416h-108v416h-217v-416h-107v416z" />
    <glyph glyph-name="f_f_l.liga" unicode="ffl" horiz-adv-x="941" 
d="M121 416h-93v94h93v42q0 80 49.5 126t125.5 46q36 0 65 -9v-104l-19.5 6.5t-40.5 5.5q-31 0 -52 -21.5t-21 -58.5v-33h217v30q0 85 49.5 132.5t134.5 47.5h248v-720h-107v622h-140q-35 0 -56 -21.5t-21 -60.5v-30h124v-94h-124v-416h-108v416h-217v-416h-107v416z" />
    <glyph glyph-name="f_f_t.liga" unicode="fft" horiz-adv-x="1044" 
d="M861 2.5q-29 10.5 -48 29.5q-43 40 -43 116v268h-217v-416h-108v416h-217v-416h-107v416h-93v94h93v42q0 80 49.5 126t125.5 46q36 0 65 -9v-104l-19.5 6.5t-40.5 5.5q-31 0 -52 -21.5t-21 -58.5v-33h217v42q0 80 49.5 126t126.5 46q34 0 65 -9v-104l-19.5 6.5t-40.5 5.5
q-31 0 -52 -21t-21 -59v-33h217v144h107v-144h125v-94h-125v-245q0 -41 17 -59q17 -19 52 -19q18 0 30.5 4.5t28.5 14.5v-105q-34 -15 -80 -15q-35 0 -64 10.5z" />
    <glyph glyph-name="f_h.liga" unicode="fh" horiz-adv-x="964" 
d="M121 416h-93v94h93v30q0 85 49 132.5t135 47.5h248v-218l-6 -69h6q20 41 64.5 67t97.5 26q93 0 141.5 -55.5t48.5 -148.5v-322h-108v308q0 59 -31 89t-80 30q-38 0 -68.5 -21.5t-47.5 -57t-17 -76.5v-272h-108v622h-140q-35 0 -56 -21.5t-21 -60.5v-30h124v-94h-124v-416
h-107v416z" />
    <glyph glyph-name="f_i.liga" unicode="fi" horiz-adv-x="624" 
d="M447.5 606.5q-21.5 21.5 -21.5 51.5t21.5 51t51.5 21t51.5 -21t21.5 -51t-21.5 -51.5t-51.5 -21.5t-51.5 21.5zM121 416h-93v94h93v42q0 80 49.5 126t125.5 46q36 0 65 -9v-104l-19.5 6.5t-40.5 5.5q-31 0 -52 -21.5t-21 -58.5v-33h325v-510h-108v416h-217v-416h-107v416
z" />
    <glyph glyph-name="f_j.liga" unicode="fj" horiz-adv-x="624" 
d="M447.5 606.5q-21.5 21.5 -21.5 51.5t21.5 51t51.5 21t51.5 -21t21.5 -51t-21.5 -51.5t-51.5 -21.5t-51.5 21.5zM346 -219v104q24 -13 47 -13q28 0 40 17t12 51v476h-217v-416h-107v416h-93v94h93v42q0 80 49.5 126t125.5 46q36 0 65 -9v-104l-19.5 6.5t-40.5 5.5
q-31 0 -52 -21.5t-21 -58.5v-33h325v-571q0 -84 -41 -124.5t-110 -40.5q-31 0 -56 7z" />
    <glyph glyph-name="f_k.liga" unicode="fk" horiz-adv-x="913" 
d="M121 416h-93v94h93v30q0 85 49 132.5t135 47.5h248v-424h3l212 214h135v-6l-196 -196l203 -302v-6h-128l-152 234l-77 -77v-157h-108v622h-140q-35 0 -56 -21.5t-21 -60.5v-30h124v-94h-124v-416h-107v416z" />
    <glyph glyph-name="f_l.liga" unicode="fl" horiz-adv-x="617" 
d="M121 416h-93v94h93v30q0 85 49 132.5t135 47.5h248v-720h-108v622h-140q-35 0 -56 -21.5t-21 -60.5v-30h124v-94h-124v-416h-107v416z" />
    <glyph glyph-name="f_t.liga" unicode="ft" horiz-adv-x="720" 
d="M537 2.5q-29 10.5 -49 29.5q-43 41 -43 116v268h-217v-416h-107v416h-93v94h93v42q0 80 49.5 126t125.5 46q36 0 65 -9v-104l-19.5 6.5t-40.5 5.5q-31 0 -52 -21.5t-21 -58.5v-33h217v144h108v-144h125v-94h-125v-245q0 -39 17 -59q16 -19 51 -19q18 0 31 4.5t29 14.5
v-105q-34 -15 -80 -15q-35 0 -64 10.5z" />
    <glyph glyph-name="r_f.liga" unicode="rf" horiz-adv-x="795" 
d="M519 416h-93v94h93v42q0 80 49.5 126t126.5 46q43 0 79 -12v-105q-18 7 -33.5 11.5t-35.5 4.5q-34 0 -56 -21t-22 -59v-33h128v-94h-128v-416h-108v416zM63 510h102v-75h6q19 41 61.5 65t91.5 24q27 0 42 -4v-108q-20 7 -54 7q-64 0 -102.5 -41t-38.5 -111v-267h-108v510
z" />
    <glyph glyph-name="r_f_f.liga" unicode="rff" horiz-adv-x="1116" 
d="M63 510h102v-75h6q19 41 61.5 65t91.5 24q27 0 42 -4v-108q-20 7 -54 7q-64 0 -102.5 -41t-38.5 -111v-267h-108v510zM516 416h-93v94h93v42q0 80 49.5 126t125.5 46q36 0 65 -9v-104l-19.5 6.5t-40.5 5.5q-31 0 -52 -21.5t-21 -58.5v-33h217v42q0 80 49.5 126t126.5 46
q43 0 79 -12v-105q-21 8 -35.5 12t-34.5 4q-33 0 -55 -21t-22 -59v-33h128v-94h-128v-416h-108v416h-217v-416h-107v416z" />
    <glyph glyph-name="r_t.liga" unicode="rt" horiz-adv-x="797" 
d="M614 2.5q-29 10.5 -48 29.5q-44 41 -44 116v268h-89v94h89v144h108v-144h125v-94h-125v-245q0 -42 16 -59q17 -19 52 -19q18 0 31 4.5t29 14.5v-105q-34 -15 -80 -15q-35 0 -64 10.5zM63 510h102v-75h6q19 41 61.5 65t91.5 24q27 0 42 -4v-108q-20 7 -54 7
q-64 0 -102.5 -41t-38.5 -111v-267h-108v510z" />
    <glyph glyph-name="t_f.liga" unicode="tf" horiz-adv-x="724" 
d="M208.5 2.5q-29.5 10.5 -48.5 29.5q-43 41 -43 116v268h-89v94h89v144h108v-144h217v42q0 80 49.5 126t125.5 46q46 0 86 -14l-15 -101q-35 14 -66 14t-52 -21.5t-21 -58.5v-33h128v-94h-128v-416h-107v416h-217v-245q0 -42 16 -59q17 -19 51 -19q15 0 27 4t26 12v-104
q-32 -13 -73 -13q-34 0 -63.5 10.5z" />
    <glyph glyph-name="t_t.liga" unicode="tt" horiz-adv-x="711" 
d="M208.5 2.5q-29.5 10.5 -48.5 29.5q-43 41 -43 116v268h-89v94h89v144h108v-144h211v144h108v-144h125v-94h-125v-245q0 -41 17 -59q17 -19 52 -19q17 0 30 4.5t29 14.5v-105q-34 -15 -80 -15q-35 0 -64 10.5t-49 29.5q-43 41 -43 116v268h-211v-245q0 -42 16 -59
q17 -19 51 -19q15 0 27 4t26 12v-104q-32 -13 -73 -13q-34 0 -63.5 10.5z" />
    <glyph glyph-name="G_o_o_g_l_e_l_o_g_o_l_i_g_a_t_u_r_e.liga" unicode="Googlelogoligature" horiz-adv-x="3284" 
d="M253 39.5q-96 55.5 -152.5 149.5t-56.5 205t56.5 205t152.5 149.5t207 55.5q163 0 281 -113l-79 -79q-85 80 -202 80q-81 0 -148.5 -40t-106.5 -108.5t-39 -149.5t39 -149.5t106.5 -108.5t148.5 -40q72 0 121.5 23t85.5 59q49 49 61 141h-268v112h377q6 -30 6 -70
q0 -71 -23 -141t-74 -121q-110 -115 -286 -115q-111 0 -207 55.5zM2625 776h116v-776h-116v776zM1015 18.5q-61 34.5 -96.5 95t-35.5 134.5q0 75 35.5 135.5t96.5 94.5t133 34t133 -34t96.5 -94.5t35.5 -135.5q0 -74 -35.5 -134.5t-96.5 -95t-133 -34.5t-133 34.5z
M1593 18.5q-61 34.5 -96.5 95t-35.5 134.5q0 75 35.5 135.5t96.5 94.5t133 34t133 -34t96.5 -94.5t35.5 -135.5q0 -74 -35.5 -134.5t-96.5 -95t-133 -34.5t-133 34.5zM2146 -206q-60 47 -86 109l101 42q16 -38 50 -66t83 -28q66 0 103.5 40t37.5 115v38h-4
q-21 -26 -57.5 -43t-81.5 -17q-66 0 -124 35t-93.5 95.5t-35.5 132.5q0 73 35.5 133.5t94 96t123.5 35.5q45 0 81.5 -17t57.5 -42h4v43h110v-474q0 -138 -70.5 -206.5t-180.5 -68.5q-88 0 -148 47zM2925 19q-60 35 -94 95.5t-34 133.5q0 77 33.5 137t90.5 93.5t125 33.5
q91 0 147 -53t79 -115l12 -30l-353 -146q41 -80 128 -80q80 0 130 73l90 -60q-30 -45 -85 -81t-135 -36q-74 0 -134 35zM3148 354q-10 25 -37 40.5t-61 15.5q-31 0 -64 -18t-54 -53t-20 -83zM1222 108.5q34 20.5 54.5 57t20.5 82.5t-20.5 82.5t-54.5 57t-74 20.5t-74 -20.5
t-54.5 -57t-20.5 -82.5t20.5 -82.5t54.5 -57t74 -20.5t74 20.5zM1800 108.5q34 20.5 54.5 57t20.5 82.5t-20.5 82.5t-54.5 57t-74 20.5t-74 -20.5t-54.5 -57t-20.5 -82.5t20.5 -82.5t54.5 -57t74 -20.5t74 20.5zM2373.5 108.5q32.5 20.5 51 57t18.5 81.5q0 46 -18.5 82.5
t-51 57.5t-71.5 21q-40 0 -73.5 -21t-53.5 -58t-20 -82t20 -81.5t53.5 -57t73.5 -20.5q39 0 71.5 20.5z" />
    <glyph glyph-name=".notdef" horiz-adv-x="585" 
d="M504 0h-424v716h424v-716zM442 58v600h-300v-600h300z" />
    <glyph glyph-name=".notdef" horiz-adv-x="585" 
d="M504 0h-424v716h424v-716zM442 58v600h-300v-600h300z" />
    <glyph glyph-name="glyph1" 
 />
    <glyph glyph-name="nonmarkingreturn" horiz-adv-x="333" 
 />
    <glyph glyph-name="uni0002" 
 />
    <glyph glyph-name="space" unicode=" " horiz-adv-x="233" 
 />
    <glyph glyph-name="exclam" unicode="!" horiz-adv-x="262" 
d="M77 491v225h108v-225l-11 -263h-87zM77 16q-22 22 -22 53t22 53t54 22t53.5 -21.5t21.5 -53.5q0 -31 -21.5 -53t-53.5 -22t-54 22z" />
    <glyph glyph-name="quotedbl" unicode="&#x22;" horiz-adv-x="359" 
d="M51 716h98v-223h-98v223zM209 716h98v-223h-98v223z" />
    <glyph glyph-name="numbersign" unicode="#" horiz-adv-x="657" 
d="M150 199h-120l15 86h119l18 123h-121l13 86h120l29 190h92l-29 -190h127l28 190h93l-29 -190h120l-13 -86h-119l-18 -123h121l-14 -86h-120l-30 -199h-93l31 199h-128l-29 -199h-92zM383 284l19 125h-129l-19 -125h129z" />
    <glyph glyph-name="dollar" unicode="$" horiz-adv-x="557" 
d="M457.5 49.5q-53.5 -50.5 -133.5 -62.5v-87h-80v86q-74 10 -133 58.5t-81 129.5l96 38q12 -46 43.5 -79.5t74.5 -43.5v222q-2 0 -6 2q-86 33 -133.5 82t-47.5 120q0 46 22.5 85.5t65 65.5t99.5 32v86h80v-88q71 -11 114 -50.5t58 -86.5l-93 -41q-7 25 -27 46t-52 30v-208
q92 -38 139.5 -83t47.5 -119q0 -84 -53.5 -134.5zM181 462.5q20 -21.5 63 -42.5v178q-38 -7 -60.5 -29.5t-22.5 -53.5t20 -52.5zM383 123q22 24 22 60q0 32 -19 53t-62 42v-188q37 9 59 33z" />
    <glyph glyph-name="percent" unicode="%" horiz-adv-x="842" 
d="M125.5 381q-39.5 23 -62.5 62.5t-23 85.5t23 85.5t62.5 62.5t87.5 23t87.5 -23t62.5 -62.5t23 -85.5t-23 -85.5t-62.5 -62.5t-87.5 -23t-87.5 23zM165 32l445 663l66 -44l-444 -662zM274.5 463.5q24.5 25.5 24.5 65.5t-24.5 65.5t-61.5 25.5q-36 0 -60.5 -25.5
t-24.5 -65.5q0 -39 24.5 -65t60.5 -26q37 0 61.5 25.5zM541.5 7q-39.5 23 -62.5 62.5t-23 85.5t23 85.5t62.5 62.5t87.5 23t87.5 -23t62.5 -62.5t23 -85.5t-23 -85.5t-62.5 -62.5t-87.5 -23t-87.5 23zM690 90q25 26 25 65q0 40 -24.5 65.5t-61.5 25.5q-36 0 -60.5 -25.5
t-24.5 -65.5q0 -39 24.5 -65t60.5 -26t61 26z" />
    <glyph glyph-name="ampersand" unicode="&#x26;" horiz-adv-x="645" 
d="M535 134l71 -90l-79 -60l-52 65q-70 -65 -169 -65q-73 0 -133 32.5t-94.5 90t-34.5 128.5q0 61 31.5 116.5t87.5 92.5q-23 31 -35.5 59.5t-12.5 58.5q0 47 23.5 86t64 61.5t89.5 22.5q65 0 107.5 -33.5t61.5 -86.5l-89 -47q-24 69 -79 69q-32 0 -52.5 -19.5t-20.5 -51.5
q0 -33 25 -63l228 -288l62 103l81 -50zM416 124l-195 246q-35 -23 -55.5 -58t-20.5 -74q0 -45 22 -81t60 -56t82 -20q64 0 107 43z" />
    <glyph glyph-name="quotesingle" unicode="'" horiz-adv-x="202" 
d="M51 716h98v-223h-98v223z" />
    <glyph glyph-name="parenleft" unicode="(" horiz-adv-x="341" 
d="M116 66q-53 120 -53 256t53 256t125 202l80 -56q-68 -82 -109 -186t-41 -216t41 -216t109 -186l-80 -56q-72 82 -125 202z" />
    <glyph glyph-name="parenright" unicode=")" horiz-adv-x="341" 
d="M20 -80q68 82 109 186t41 216t-41 216t-109 186l80 56q72 -82 124.5 -202t52.5 -256t-52.5 -256t-124.5 -202z" />
    <glyph glyph-name="asterisk" unicode="*" horiz-adv-x="445" 
d="M77 410l75 101l-3 8l-110 38l27 78l108 -38l7 2v117h83v-117l6 -2l109 38l27 -78l-110 -38l-3 -8l75 -101l-67 -48l-75 101h-7l-75 -101z" />
    <glyph glyph-name="plus" unicode="+" horiz-adv-x="570" 
d="M508 225h-177v-176h-92v176h-177v92h177v176h92v-176h177v-92z" />
    <glyph glyph-name="comma" unicode="," horiz-adv-x="264" 
d="M51 -86l57 87q-20 6 -35 24.5t-15 43.5q0 32 22 53.5t53 21.5q32 0 54 -22t22 -53q0 -17 -6.5 -32t-20.5 -35l-81 -121z" />
    <glyph glyph-name="hyphen" unicode="-" horiz-adv-x="453" 
d="M62 356h328v-92h-328v92z" />
    <glyph glyph-name="period" unicode="." horiz-adv-x="262" 
d="M77 16q-22 22 -22 53t22 53t54 22t53.5 -21.5t21.5 -53.5q0 -31 -21.5 -53t-53.5 -22t-54 22z" />
    <glyph glyph-name="slash" unicode="/" horiz-adv-x="323" 
d="M219 716h103l-218 -716h-103z" />
    <glyph glyph-name="zero" unicode="0" horiz-adv-x="660" 
d="M181.5 31q-63.5 47 -98 128.5t-34.5 182.5t34.5 182.5t98 128.5t147.5 47t148 -47t98.5 -128.5t34.5 -182.5t-34.5 -182.5t-98.5 -128.5t-148 -47t-147.5 47zM421 119.5q39 33.5 59.5 91.5t20.5 131t-20.5 131.5t-59.5 91.5t-92 33q-52 0 -90.5 -33t-59 -91.5
t-20.5 -131.5t20.5 -131t59 -91.5t90.5 -33.5q53 0 92 33.5z" />
    <glyph glyph-name="one" unicode="1" horiz-adv-x="407" 
d="M212 539l-112 -80l-55 83l198 142h77v-684h-108v539z" />
    <glyph glyph-name="two" unicode="2" horiz-adv-x="541" 
d="M48 102q203 202 250 254q44 46 60 75t16 68q0 40 -30.5 69.5t-82.5 29.5q-48 0 -77.5 -27.5t-40.5 -64.5l-97 40q10 36 37.5 71t73.5 59t106 24q65 0 115 -27t77.5 -72t27.5 -99q0 -108 -109 -217q-44 -44 -99.5 -99t-84.5 -85l1 -3h300v-98h-443v102z" />
    <glyph glyph-name="three" unicode="3" horiz-adv-x="552" 
d="M129.5 28.5q-65.5 44.5 -90.5 130.5l101 41q14 -54 48.5 -83t84.5 -29q51 0 88 31t37 79t-38.5 79t-97.5 31h-59v99h54q50 0 83.5 26.5t33.5 74.5q0 41 -30.5 66.5t-76.5 25.5t-73.5 -24.5t-39.5 -60.5l-98 41q20 57 73.5 100.5t137.5 43.5q62 0 111.5 -24t77 -66.5
t27.5 -94.5q0 -54 -26 -92t-64 -58v-5q50 -21 82 -64t32 -103t-30.5 -107.5t-83.5 -74.5t-120 -27q-78 0 -143.5 44.5z" />
    <glyph glyph-name="four" unicode="4" horiz-adv-x="609" 
d="M367 137h-322v84l313 463h116v-447h87v-100h-87v-137h-107v137zM367 237v288h-6l-195 -288h201z" />
    <glyph glyph-name="five" unicode="5" horiz-adv-x="574" 
d="M181.5 4.5q-48.5 20.5 -85 62t-51.5 102.5l97 38q14 -56 49.5 -89t88.5 -33q57 0 94.5 36.5t37.5 93.5t-36.5 94.5t-94.5 37.5q-33 0 -61.5 -14.5t-46.5 -39.5l-106 47l41 344h370v-98h-281l-26 -184l6 -1q54 43 125 43q58 0 108 -29t80 -81t30 -118t-31 -119t-85.5 -83
t-122.5 -30q-51 0 -99.5 20.5z" />
    <glyph glyph-name="six" unicode="6" horiz-adv-x="568" 
d="M160 16.5q-55 32.5 -85 86.5t-30 115q0 59 23.5 112.5t68.5 118.5l173 253l84 -58l-156 -220l4 -4q31 17 70 17q52 0 101 -29t79 -79.5t30 -113.5t-32.5 -116t-87 -84t-117.5 -31q-70 0 -125 32.5zM349.5 101q30.5 17 48.5 46.5t18 66.5t-18 67t-48.5 47t-65.5 17
t-65.5 -17t-48.5 -47t-18 -67t18 -66.5t48.5 -46.5t65.5 -17t65.5 17z" />
    <glyph glyph-name="seven" unicode="7" horiz-adv-x="543" 
d="M78 34l302 545l-2 3h-333v102h453v-108l-327 -592z" />
    <glyph glyph-name="eight" unicode="8" horiz-adv-x="569" 
d="M161.5 11q-54.5 27 -85.5 74t-31 104t30.5 100.5t79.5 68.5v5q-38 24 -62.5 62.5t-24.5 82.5q0 54 28 98t77.5 69t111.5 25q61 0 110.5 -25t77.5 -69t28 -98q0 -44 -24 -82.5t-62 -62.5v-5q48 -25 78.5 -68.5t30.5 -100.5t-31 -104t-85.5 -74t-122.5 -27q-69 0 -123.5 27
zM363.5 433.5q31.5 27.5 31.5 71.5t-31.5 70t-78.5 26q-48 0 -79.5 -26t-31.5 -70t31.5 -71.5t79.5 -27.5q47 0 78.5 27.5zM378 116.5q37 31.5 37 81.5q0 49 -37 80t-93 31t-93.5 -31t-37.5 -80q0 -50 37.5 -81.5t93.5 -31.5t93 31.5z" />
    <glyph glyph-name="nine" unicode="9" horiz-adv-x="568" 
d="M174 40l156 220l-4 4q-31 -17 -70 -17q-52 0 -101 29t-79.5 79.5t-30.5 113.5t32.5 116t87 84t117.5 31q71 0 125.5 -32.5t84.5 -86.5t30 -115q0 -59 -23.5 -112.5t-68.5 -118.5l-172 -253zM349.5 356q30.5 17 48.5 47t18 67t-18 66.5t-48.5 46.5t-65.5 17t-65.5 -17
t-48.5 -46.5t-18 -66.5t18 -67t48.5 -47t65.5 -17t65.5 17z" />
    <glyph glyph-name="colon" unicode=":" horiz-adv-x="262" 
d="M77 391q-22 22 -22 53t22 53t54 22t53.5 -21.5t21.5 -53.5q0 -31 -21.5 -53t-53.5 -22t-54 22zM77 16q-22 22 -22 53t22 53t54 22t53.5 -21.5t21.5 -53.5q0 -31 -21.5 -53t-53.5 -22t-54 22z" />
    <glyph glyph-name="semicolon" unicode=";" horiz-adv-x="267" 
d="M82 391q-22 22 -22 53q0 32 22 53.5t53 21.5q32 0 53.5 -21.5t21.5 -53.5q0 -31 -21.5 -53t-53.5 -22q-31 0 -53 22zM54 -75l57 87q-21 6 -35.5 24.5t-14.5 43.5q0 32 22 53.5t53 21.5q32 0 53.5 -21.5t21.5 -53.5q0 -17 -6.5 -32t-20.5 -35l-80 -121z" />
    <glyph glyph-name="less" unicode="&#x3c;" horiz-adv-x="514" 
d="M55 230v82l399 188v-103l-276 -123v-6l276 -123v-103z" />
    <glyph glyph-name="equal" unicode="=" horiz-adv-x="581" 
d="M62 463h457v-93h-457v93zM62 268h457v-93h-457v93z" />
    <glyph glyph-name="greater" unicode="&#x3e;" horiz-adv-x="514" 
d="M59 145l276 123v6l-276 123v103l399 -188v-82l-399 -188v103z" />
    <glyph glyph-name="question" unicode="?" horiz-adv-x="517" 
d="M199 269q0 49 19.5 83t69.5 79q35 31 50.5 54t15.5 55q0 39 -27 64.5t-74 25.5q-45 0 -72.5 -25.5t-40.5 -64.5l-96 40q20 60 73 106t135 46q61 0 108.5 -25t74 -68t26.5 -96t-25 -91.5t-67 -77.5q-34 -31 -47.5 -56t-13.5 -61v-29h-109v41zM200 16q-22 22 -22 53
q0 32 22 53.5t53 21.5t52.5 -22t21.5 -53t-21.5 -53t-52.5 -22t-53 22z" />
    <glyph glyph-name="at" unicode="@" horiz-adv-x="890" 
d="M246 -30.5q-90 51.5 -141.5 140t-51.5 194.5q0 105 51.5 193.5t141.5 140.5t201 52t200 -51.5t139.5 -139.5t50.5 -193q0 -92 -41 -151t-113 -59q-38 0 -68.5 20t-46.5 54q-23 -36 -58.5 -55t-81.5 -19q-54 0 -98 26t-70 72.5t-26 105.5q0 58 26 105t69.5 73t94.5 26
q37 0 68 -15.5t52 -41.5h6v43h82v-254q0 -28 14.5 -47.5t41.5 -19.5q36 0 52 40t16 97q0 82 -40.5 152t-111.5 111.5t-157 41.5t-156.5 -39.5t-111.5 -110t-41 -157.5t42 -157t113 -110t154 -40q73 0 130 30l30 -75q-73 -34 -160 -34q-111 0 -201 51.5zM515 212q33 33 33 88
t-33 88t-80 33t-80.5 -33t-33.5 -88q0 -54 33.5 -87.5t80.5 -33.5t80 33z" />
    <glyph glyph-name="A" unicode="A" horiz-adv-x="696" 
d="M285 716h125l271 -716h-121l-66 184h-292l-66 -184h-121zM458 286l-80 219l-27 82h-6l-27 -82l-80 -219h220z" />
    <glyph glyph-name="B" unicode="B" horiz-adv-x="626" 
d="M81 716h268q57 0 106 -25t77.5 -68.5t28.5 -96.5t-26.5 -92.5t-70.5 -60.5v-5q56 -19 89 -63t33 -104q0 -59 -30.5 -104.5t-82 -71t-112.5 -25.5h-280v716zM344 415q50 0 80 30.5t30 70.5t-29.5 69.5t-76.5 29.5h-157v-200h153zM361 102q52 0 83.5 31.5t31.5 75.5
t-32.5 76t-86.5 32h-166v-215h170z" />
    <glyph glyph-name="C" unicode="C" horiz-adv-x="745" 
d="M228.5 33q-85.5 49 -134.5 135t-49 190t49 190t134.5 135t189.5 49q161 0 265 -117l-77 -75q-37 44 -82.5 66t-104.5 22q-73 0 -133 -33.5t-95 -95t-35 -141.5t35 -141.5t95 -95t133 -33.5q122 0 205 101l79 -76q-52 -61 -125 -95t-160 -34q-104 0 -189.5 49z" />
    <glyph glyph-name="D" unicode="D" horiz-adv-x="720" 
d="M81 716h229q111 0 193.5 -45t127 -126.5t44.5 -186.5t-44.5 -186.5t-127 -126.5t-193.5 -45h-229v716zM307 104q122 0 189.5 67.5t67.5 186.5t-67.5 186.5t-189.5 67.5h-116v-508h116z" />
    <glyph glyph-name="E" unicode="E" horiz-adv-x="572" 
d="M81 716h434v-104h-324v-202h292v-104h-292v-202h324v-104h-434v716z" />
    <glyph glyph-name="F" unicode="F" horiz-adv-x="552" 
d="M81 716h434v-104h-324v-210h292v-104h-292v-298h-110v716z" />
    <glyph glyph-name="G" unicode="G" horiz-adv-x="819" 
d="M232 33q-86 49 -136.5 134.5t-50.5 190.5t50.5 190.5t136.5 134.5t188 49q82 0 151 -29t117 -81l-76 -76q-73 82 -192 82q-70 0 -131 -33.5t-97 -95.5t-36 -141q0 -80 36.5 -141.5t97 -95t131.5 -33.5q113 0 184 71q23 22 38.5 56t21.5 75h-246v97h348q6 -34 6 -58
q0 -68 -21.5 -129.5t-66.5 -108.5q-48 -52 -115 -79.5t-150 -27.5q-102 0 -188 49z" />
    <glyph glyph-name="H" unicode="H" horiz-adv-x="716" 
d="M81 716h110v-298h335v298h109v-716h-109v314h-335v-314h-110v716z" />
    <glyph glyph-name="I" unicode="I" horiz-adv-x="271" 
d="M81 716h110v-716h-110v716z" />
    <glyph glyph-name="J" unicode="J" horiz-adv-x="549" 
d="M112 28.5q-61 44.5 -86 124.5l102 42q16 -55 49 -81t78 -26q53 0 84 36t31 96v496h110v-492q0 -76 -29 -130t-80 -82t-116 -28q-82 0 -143 44.5z" />
    <glyph glyph-name="K" unicode="K" horiz-adv-x="654" 
d="M81 716h110v-342h6l292 342h136v-6l-262 -301l285 -403v-6h-134l-226 323l-97 -113v-210h-110v716z" />
    <glyph glyph-name="L" unicode="L" horiz-adv-x="530" 
d="M81 716h110v-612h308v-104h-418v716z" />
    <glyph glyph-name="M" unicode="M" horiz-adv-x="883" 
d="M81 716h148l209 -545h6l210 545h148v-716h-108v405l6 127h-6l-209 -532h-87l-209 532h-6l6 -127v-405h-108v716z" />
    <glyph glyph-name="N" unicode="N" horiz-adv-x="725" 
d="M81 716h130l324 -526h6l-6 138v388h109v-716h-114l-340 553h-6l6 -138v-415h-109v716z" />
    <glyph glyph-name="O" unicode="O" horiz-adv-x="832" 
d="M227 34q-85 50 -133.5 135.5t-48.5 188.5t48.5 188.5t133.5 135.5t189 50t188.5 -50t133 -135.5t48.5 -188.5t-48.5 -188.5t-133 -135.5t-188.5 -50t-189 50zM547.5 122.5q59.5 34.5 94 96t34.5 139.5t-34.5 139.5t-94 96t-131.5 34.5t-131.5 -34.5t-94 -96t-34.5 -139.5
t34.5 -139.5t94 -96t131.5 -34.5t131.5 34.5z" />
    <glyph glyph-name="P" unicode="P" horiz-adv-x="593" 
d="M81 716h246q64 0 117.5 -28t85 -78t31.5 -113t-31.5 -113t-85 -78t-117.5 -28h-136v-278h-110v716zM330 382q55 0 88.5 34.5t33.5 80.5t-33.5 80.5t-88.5 34.5h-139v-230h139z" />
    <glyph glyph-name="Q" unicode="Q" horiz-adv-x="832" 
d="M581 22q-78 -38 -165 -38q-104 0 -189 50t-133.5 135.5t-48.5 188.5t48.5 188.5t133.5 135.5t189 50t188.5 -50t133 -135.5t48.5 -188.5q0 -84 -32 -157t-90 -124l52 -78l-82 -55zM521 111l-82 124l82 56l83 -123q34 35 53 83.5t19 106.5q0 78 -34.5 139.5t-94 96
t-131.5 34.5t-131.5 -34.5t-94 -96t-34.5 -139.5t34.5 -139.5t94 -96t131.5 -34.5q54 0 105 23z" />
    <glyph glyph-name="R" unicode="R" horiz-adv-x="610" 
d="M81 716h251q65 0 117.5 -28t83 -78t30.5 -113q0 -72 -46.5 -127.5t-116.5 -74.5l-1 -5l197 -284v-6h-127l-191 281h-87v-281h-110v716zM329 382q52 0 87.5 33t35.5 83q0 46 -32.5 80.5t-86.5 34.5h-142v-231h138z" />
    <glyph glyph-name="S" unicode="S" horiz-adv-x="575" 
d="M129 36q-71 52 -99 146l104 42q16 -60 57 -98t99 -38q54 0 91.5 28t37.5 77q0 45 -33 74.5t-114 57.5l-45 16q-73 26 -121.5 72.5t-48.5 123.5q0 53 28.5 98t80 71t116.5 26q93 0 149 -45.5t76 -102.5l-99 -42q-10 36 -42 62t-83 26q-49 0 -83 -26t-34 -66
q0 -37 30.5 -61.5t94.5 -46.5l46 -16q92 -32 142 -83t50 -136q0 -70 -35.5 -117.5t-91 -70.5t-113.5 -23q-89 0 -160 52z" />
    <glyph glyph-name="T" unicode="T" horiz-adv-x="563" 
d="M227 612h-201v104h511v-104h-200v-612h-110v612z" />
    <glyph glyph-name="U" unicode="U" horiz-adv-x="673" 
d="M194.5 20q-61.5 36 -95 102t-33.5 153v441h109v-447q0 -81 42 -131t119 -50q78 0 120 50t42 131v447h109v-441q0 -86 -33 -152t-94 -102.5t-144 -36.5q-80 0 -141.5 36z" />
    <glyph glyph-name="V" unicode="V" horiz-adv-x="657" 
d="M14 716h120l162 -476l25 -81h6l27 81l169 476h120l-261 -716h-114z" />
    <glyph glyph-name="W" unicode="W" horiz-adv-x="964" 
d="M17 716h122l114 -465l12 -62h6l15 62l144 465h110l138 -465l15 -61h6l12 61l114 465h121l-189 -716h-116l-137 475l-16 67h-6l-17 -67l-143 -475h-113z" />
    <glyph glyph-name="X" unicode="X" horiz-adv-x="662" 
d="M257 372l-223 344h135l159 -257h6l160 257h134l-223 -344l239 -372h-134l-176 279h-6l-176 -279h-134z" />
    <glyph glyph-name="Y" unicode="Y" horiz-adv-x="618" 
d="M257 332l-242 384h130l163 -269h6l159 269h131l-238 -384v-332h-109v332z" />
    <glyph glyph-name="Z" unicode="Z" horiz-adv-x="591" 
d="M38 112l375 500h-359v104h486v-112l-372 -500h376v-104h-506v112z" />
    <glyph glyph-name="bracketleft" unicode="[" horiz-adv-x="342" 
d="M81 792h224v-89h-122v-738h122v-89h-224v916z" />
    <glyph glyph-name="backslash" unicode="\" horiz-adv-x="323" 
d="M1 716h103l218 -716h-103z" />
    <glyph glyph-name="bracketright" unicode="]" horiz-adv-x="342" 
d="M37 -35h123v738h-123v89h225v-916h-225v89z" />
    <glyph glyph-name="asciicircum" unicode="^" horiz-adv-x="490" 
d="M201 716h88l189 -306h-113l-117 203h-6l-118 -203h-112z" />
    <glyph glyph-name="underscore" unicode="_" horiz-adv-x="487" 
d="M0 -123h487v-93h-487v93z" />
    <glyph glyph-name="grave" unicode="`" horiz-adv-x="420" 
d="M97 720h123l47 -131h-91z" />
    <glyph glyph-name="a" unicode="a" horiz-adv-x="546" 
d="M125 5.5q-43 21.5 -67 60.5t-24 89q0 53 28 91.5t76 59t107 20.5q45 0 81.5 -8.5t58.5 -19.5v27q0 49 -36 79.5t-93 30.5q-39 0 -74 -17.5t-56 -47.5l-74 57q33 47 87.5 73t119.5 26q110 0 170.5 -54.5t60.5 -152.5v-319h-105v63h-6q-22 -34 -63 -56.5t-93 -22.5
q-55 0 -98 21.5zM315 91.5q33 19.5 51.5 52.5t18.5 71q-24 14 -55 22t-65 8q-63 0 -92.5 -25t-29.5 -66q0 -36 27 -59t72 -23q40 0 73 19.5z" />
    <glyph glyph-name="b" unicode="b" horiz-adv-x="616" 
d="M236.5 8.5q-43.5 24.5 -65.5 59.5h-6v-68h-102v716h108v-204l-6 -71h6q22 36 65.5 60.5t98.5 24.5q69 0 125 -35t88 -96.5t32 -139.5t-32 -140t-88 -96.5t-125 -34.5q-55 0 -98.5 24.5zM395.5 104.5q35.5 21.5 56.5 60.5t21 90t-21 90t-56.5 60.5t-76.5 21.5
q-40 0 -75.5 -21.5t-57 -60.5t-21.5 -90t21.5 -90t57 -60.5t75.5 -21.5q41 0 76.5 21.5z" />
    <glyph glyph-name="c" unicode="c" horiz-adv-x="559" 
d="M163 19q-60 35 -93.5 96.5t-33.5 139.5t33.5 139.5t93.5 96.5t136 35q84 0 142.5 -37.5t84.5 -103.5l-98 -40q-36 82 -131 82q-42 0 -77.5 -21.5t-56 -60.5t-20.5 -90t20.5 -90t56 -60.5t77.5 -21.5q48 0 82.5 21.5t53.5 62.5l97 -42q-30 -65 -89 -103t-142 -38
q-76 0 -136 35z" />
    <glyph glyph-name="d" unicode="d" horiz-adv-x="616" 
d="M156 18.5q-56 34.5 -88 96.5t-32 140t32 139.5t88 96.5t125 35q56 0 99 -24.5t65 -60.5h6l-6 71v204h107v-716h-101v68h-6q-22 -35 -65 -59.5t-99 -24.5q-69 0 -125 34.5zM372.5 104.5q35.5 21.5 57 60.5t21.5 90t-21.5 90t-57 60.5t-75.5 21.5t-75.5 -21.5t-57 -60.5
t-21.5 -90t21.5 -90t57 -60.5t75.5 -21.5t75.5 21.5z" />
    <glyph glyph-name="e" unicode="e" horiz-adv-x="575" 
d="M162.5 19q-59.5 35 -93 96.5t-33.5 138.5q0 73 32.5 135.5t90.5 99.5t131 37q77 0 133 -33.5t85.5 -92.5t29.5 -134q0 -20 -2 -34h-394q7 -73 52 -112.5t105 -39.5q49 0 84 22.5t56 59.5l89 -43q-35 -63 -93 -99t-139 -36q-74 0 -133.5 35zM431 313q-2 28 -18 56
t-46.5 46.5t-75.5 18.5q-54 0 -91.5 -33t-51.5 -88h283z" />
    <glyph glyph-name="f" unicode="f" horiz-adv-x="396" 
d="M121 416h-93v94h93v42q0 80 49.5 126t125.5 46q43 0 79 -12v-105q-18 7 -34 11.5t-36 4.5q-33 0 -55 -21t-22 -59v-33h128v-94h-128v-416h-107v416z" />
    <glyph glyph-name="g" unicode="g" horiz-adv-x="610" 
d="M138.5 -189.5q-61.5 42.5 -82.5 102.5l100 42q16 -41 52.5 -66t84.5 -25q71 0 111 42t40 119v49h-6q-25 -37 -67 -58t-96 -21q-65 0 -119.5 33t-87 93.5t-32.5 138.5t32.5 138.5t87 94t119.5 33.5q53 0 95.5 -21.5t67.5 -58.5h6v64h103v-483q0 -82 -32 -140.5
t-89.5 -88.5t-132.5 -30q-93 0 -154.5 42.5zM369 113q34 20 54.5 57.5t20.5 89.5q0 53 -20.5 91t-54.5 57.5t-75 19.5t-75.5 -19.5t-55 -57.5t-20.5 -91q0 -52 20.5 -90t55 -57.5t75.5 -19.5t75 20z" />
    <glyph glyph-name="h" unicode="h" horiz-adv-x="583" 
d="M63 716h108v-196l-6 -80h6q22 38 65.5 62t95.5 24q93 0 142 -55.5t49 -148.5v-322h-107v308q0 59 -31.5 89t-80.5 30q-37 0 -67.5 -21.5t-48 -57.5t-17.5 -76v-272h-108v716z" />
    <glyph glyph-name="i" unicode="i" horiz-adv-x="250" 
d="M73.5 606.5q-21.5 21.5 -21.5 51.5t21.5 51t51.5 21t51.5 -21t21.5 -51t-21.5 -51.5t-51.5 -21.5t-51.5 21.5zM71 510h108v-510h-108v510z" />
    <glyph glyph-name="j" unicode="j" horiz-adv-x="250" 
d="M73.5 606.5q-21.5 21.5 -21.5 51.5t21.5 51t51.5 21t51.5 -21t21.5 -51t-21.5 -51.5t-51.5 -21.5t-51.5 21.5zM-28 -219v104q24 -13 47 -13q28 0 40 17t12 51v570h108v-571q0 -84 -41 -124.5t-110 -40.5q-31 0 -56 7z" />
    <glyph glyph-name="k" unicode="k" horiz-adv-x="532" 
d="M63 716h108v-420h4l212 214h134v-6l-197 -196l204 -302v-6h-128l-152 234l-77 -77v-157h-108v716z" />
    <glyph glyph-name="l" unicode="l" horiz-adv-x="235" 
d="M63 716h108v-716h-108v716z" />
    <glyph glyph-name="m" unicode="m" horiz-adv-x="893" 
d="M63 510h102v-70h6q23 38 65 62t92 24q55 0 95.5 -26t58.5 -69q27 43 70.5 69t102.5 26q88 0 133 -53.5t45 -145.5v-327h-107v309q0 118 -100 118q-55 0 -89.5 -44t-34.5 -110v-273h-107v309q0 118 -103 118q-53 0 -87 -44.5t-34 -110.5v-272h-108v510z" />
    <glyph glyph-name="n" unicode="n" horiz-adv-x="580" 
d="M63 510h102v-70h6q22 38 66 62t95 24q92 0 140 -54.5t48 -149.5v-322h-107v308q0 60 -30 89.5t-82 29.5q-38 0 -67.5 -21t-46 -56t-16.5 -76v-274h-108v510z" />
    <glyph glyph-name="o" unicode="o" horiz-adv-x="605" 
d="M165 19.5q-61 35.5 -95 97.5t-34 138t34 138t95 97.5t138 35.5q76 0 137 -36t95 -98t34 -137q0 -76 -34 -138t-94.5 -97.5t-137.5 -35.5t-138 35.5zM382 104q36 21 58 60t22 91t-22 91t-58 60t-79 21t-79.5 -21t-58.5 -60t-22 -91t22 -91t58.5 -60t79.5 -21t79 21z" />
    <glyph glyph-name="p" unicode="p" horiz-adv-x="612" 
d="M59 510h102v-69h6q22 36 65.5 60.5t98.5 24.5q69 0 125 -35t88 -96.5t32 -139.5t-32 -140t-88 -96.5t-125 -34.5q-55 0 -98.5 24.5t-65.5 59.5h-6l6 -71v-213h-108v726zM391.5 104.5q35.5 21.5 56.5 60.5t21 90t-21 90t-56.5 60.5t-76.5 21.5q-40 0 -75.5 -21.5
t-57 -60.5t-21.5 -90t21.5 -90t57 -60.5t75.5 -21.5q41 0 76.5 21.5z" />
    <glyph glyph-name="q" unicode="q" horiz-adv-x="612" 
d="M445 -3l6 71h-6q-22 -35 -65 -59.5t-99 -24.5q-69 0 -125 34.5t-88 96.5t-32 140t32 139.5t88 96.5t125 35q56 0 99 -24.5t65 -60.5h6v69h101v-726h-107v213zM372.5 104.5q35.5 21.5 57 60.5t21.5 90t-21.5 90t-57 60.5t-75.5 21.5t-75.5 -21.5t-57 -60.5t-21.5 -90
t21.5 -90t57 -60.5t75.5 -21.5t75.5 21.5z" />
    <glyph glyph-name="r" unicode="r" horiz-adv-x="401" 
d="M63 510h102v-75h6q17 39 58.5 64.5t89.5 25.5q35 0 62 -10v-112q-41 18 -79 18q-57 0 -94 -44t-37 -107v-270h-108v510z" />
    <glyph glyph-name="s" unicode="s" horiz-adv-x="489" 
d="M105.5 22q-56.5 38 -79.5 99l97 42q18 -41 51 -62.5t75 -21.5q43 0 72 15.5t29 46.5q0 28 -24.5 44.5t-76.5 28.5l-61 14q-61 15 -101 53t-40 96q0 44 26.5 78t71 52.5t97.5 18.5q72 0 125.5 -28t77.5 -82l-93 -42q-31 61 -109 61q-38 0 -63.5 -16t-25.5 -40
q0 -45 78 -65l74 -18q75 -19 113.5 -57t38.5 -94q0 -48 -27.5 -84.5t-75.5 -56.5t-106 -20q-87 0 -143.5 38z" />
    <glyph glyph-name="t" unicode="t" horiz-adv-x="392" 
d="M208.5 2.5q-29.5 10.5 -48.5 29.5q-43 41 -43 116v268h-89v94h89v144h108v-144h125v-94h-125v-245q0 -42 16 -59q17 -19 52 -19q18 0 31 4.5t29 14.5v-105q-34 -15 -81 -15q-34 0 -63.5 10.5z" />
    <glyph glyph-name="u" unicode="u" horiz-adv-x="580" 
d="M107.5 39.5q-48.5 55.5 -48.5 154.5v316h108v-301q0 -62 29 -94t78 -32q40 0 71 21t47.5 56t16.5 76v274h107v-510h-101v69h-6q-22 -37 -66 -61t-95 -24q-92 0 -140.5 55.5z" />
    <glyph glyph-name="v" unicode="v" horiz-adv-x="546" 
d="M7 510h120l143 -371h5l146 371h118l-213 -510h-108z" />
    <glyph glyph-name="w" unicode="w" horiz-adv-x="805" 
d="M7 510h117l105 -367h4l115 367h111l115 -367h4l105 367h115l-164 -510h-113l-118 369h-4l-117 -369h-112z" />
    <glyph glyph-name="x" unicode="x" horiz-adv-x="511" 
d="M192 259l-176 251h125l114 -168h3l109 168h130l-179 -251l180 -259h-126l-116 173h-3l-113 -173h-127z" />
    <glyph glyph-name="y" unicode="y" horiz-adv-x="547" 
d="M221 28l-213 482h120l146 -348h5l141 348h119l-315 -726h-115z" />
    <glyph glyph-name="z" unicode="z" horiz-adv-x="499" 
d="M37 90l284 326h-275v94h407v-90l-283 -326h291v-94h-424v90z" />
    <glyph glyph-name="braceleft" unicode="{" horiz-adv-x="325" 
d="M139 -77q-46 47 -46 126v165q0 36 -20 55.5t-50 19.5v90q30 0 50 19.5t20 55.5v165q0 79 46 126t126 47h28v-89h-18q-35 0 -57.5 -24t-22.5 -64v-161q0 -49 -16.5 -77.5t-52.5 -39.5v-6q36 -11 52.5 -39t16.5 -78v-161q0 -40 22.5 -64t57.5 -24h18v-89h-28q-80 0 -126 47
z" />
    <glyph glyph-name="bar" unicode="|" horiz-adv-x="260" 
d="M81 792h98v-912h-98v912z" />
    <glyph glyph-name="braceright" unicode="}" horiz-adv-x="325" 
d="M31 -35h20q35 0 57 24t22 64v161q0 50 16.5 78t52.5 39v6q-36 11 -52.5 39.5t-16.5 77.5v161q0 40 -22 64t-57 24h-20v89h29q80 0 126 -47t46 -126v-165q0 -36 19.5 -55.5t49.5 -19.5v-90q-30 0 -49.5 -19.5t-19.5 -55.5v-165q0 -79 -46 -126t-126 -47h-29v89z" />
    <glyph glyph-name="asciitilde" unicode="~" horiz-adv-x="550" 
d="M331 239q-29 9 -68 26q-31 14 -52.5 21t-37.5 7q-23 0 -35.5 -14t-14.5 -35h-86q0 64 36 103t90 39q28 0 57 -9.5t70 -26.5q32 -14 52 -20.5t36 -6.5q23 0 35.5 14t14.5 35h85q0 -64 -36 -103t-91 -39q-26 0 -55 9z" />
    <glyph glyph-name="uni00A0" unicode="&#xa0;" horiz-adv-x="233" 
 />
    <glyph glyph-name="exclamdown" unicode="&#xa1;" horiz-adv-x="262" 
d="M77.5 397.5q-22.5 22.5 -22.5 53.5t22 53t54 22t53.5 -21.5t21.5 -53.5t-22 -54t-53 -22t-53.5 22.5zM77 9l10 278h87l11 -278v-225h-108v225z" />
    <glyph glyph-name="cent" unicode="&#xa2;" horiz-adv-x="542" 
d="M439.5 131q-46.5 -37 -112.5 -46v-85h-79v86q-62 9 -110 44.5t-75 90.5t-27 121q0 67 27 121.5t75 90t110 44.5v86h79v-85q65 -9 111 -45.5t71 -91.5l-93 -38q-29 65 -89 80v-324q66 15 97 82l88 -39q-26 -55 -72.5 -92zM169 237.5q31 -43.5 79 -57.5v324
q-48 -14 -79 -57.5t-31 -104.5t31 -104.5z" />
    <glyph glyph-name="sterling" unicode="&#xa3;" horiz-adv-x="537" 
d="M517 121q-41 -121 -165 -121h-314v89q48 20 73 58.5t25 81.5q0 11 -1 17h-95v85h62q-5 8 -24 39.5t-29 64.5t-10 67q0 53 26.5 98.5t74 72.5t108.5 27q83 0 133.5 -42.5t69.5 -101.5l-96 -40q-10 37 -36.5 61.5t-70.5 24.5q-48 0 -76.5 -30.5t-28.5 -72.5
q0 -33 11.5 -59.5t34.5 -65.5q12 -19 25 -43h135v-85h-113v-2q0 -42 -15 -78t-42 -63l5 -5h167q33 0 52 15t28 44z" />
    <glyph glyph-name="currency" unicode="&#xa4;" horiz-adv-x="619" 
d="M69 146l59 58q-36 57 -36 121q0 65 36 121l-59 59l56 56l59 -57q56 40 126 40q69 0 125 -40l59 57l56 -56l-58 -58q35 -56 35 -122q0 -65 -35 -121l58 -58l-56 -57l-59 57q-56 -40 -125 -40q-70 0 -126 40l-59 -57zM398.5 232q36.5 38 36.5 93t-36.5 93t-88.5 38
t-88.5 -38t-36.5 -93t36.5 -93t88.5 -38t88.5 38z" />
    <glyph glyph-name="yen" unicode="&#xa5;" horiz-adv-x="605" 
d="M250 151h-168v93h168v74h-168v93h109l-176 273h129l126 -211l32 -62h6l30 62l123 211h129l-172 -273h106v-93h-165v-74h165v-93h-165v-151h-109v151z" />
    <glyph glyph-name="brokenbar" unicode="&#xa6;" horiz-adv-x="260" 
d="M81 756h98v-380h-98v380zM81 292h98v-412h-98v412z" />
    <glyph glyph-name="section" unicode="&#xa7;" horiz-adv-x="561" 
d="M511 -38q0 -59 -31.5 -103t-83.5 -67.5t-111 -23.5q-86 0 -151 52.5t-86 140.5l99 39q16 -60 52 -96t88 -36q49 0 82.5 26.5t33.5 67.5q0 44 -35 71t-117 53l-12 4q-169 55 -169 182q0 42 21 77.5t59 60.5q-81 55 -81 142q0 47 26.5 88.5t74.5 66.5t111 25
q57 0 101 -22.5t71.5 -57t37.5 -68.5l-98 -40q-9 35 -38.5 61.5t-73.5 26.5t-74 -24t-30 -55q0 -33 27 -54t92 -43q6 -2 14 -4q99 -32 151 -80t52 -131q0 -44 -17.5 -80t-47.5 -60q63 -55 63 -139zM312 172q27 -8 55 -21q17 15 28 37.5t11 43.5q0 48 -35 77.5t-116 54.5
q-14 5 -16 5q-29 -13 -47 -37.5t-18 -51.5q0 -35 28 -58.5t88 -42.5q8 -4 22 -7z" />
    <glyph glyph-name="dieresis" unicode="&#xa8;" horiz-adv-x="422" 
d="M78.5 615q-18.5 19 -18.5 44q0 26 18 44.5t44 18.5q27 0 44.5 -18t17.5 -45q0 -25 -18 -44t-44 -19q-25 0 -43.5 19zM255.5 615q-18.5 19 -18.5 44q0 26 18.5 44.5t43.5 18.5q27 0 45 -18.5t18 -44.5q0 -25 -18.5 -44t-44.5 -19q-25 0 -43.5 19z" />
    <glyph glyph-name="copyright" unicode="&#xa9;" horiz-adv-x="531" 
d="M150 303q-53 31 -84 84t-31 115t31 115t84 84t115 31t115 -31t84 -84t31 -115t-31 -115t-84 -84t-115 -31t-115 31zM357.5 344q42.5 25 67 67t24.5 91q0 50 -24.5 92t-67 66.5t-92.5 24.5q-49 0 -91 -24.5t-67 -66.5t-25 -92q0 -49 25 -91t67 -67t91 -25q50 0 92.5 25z
M185 418q-34 35 -34 84q0 50 34 84.5t84 34.5q28 0 48 -10t39 -29l-31 -28q-12 13 -24 18.5t-32 5.5q-29 0 -51 -22t-22 -54t22 -54t51 -22q37 0 61 31l33 -26q-36 -48 -94 -48q-50 0 -84 35z" />
    <glyph glyph-name="ordfeminine" unicode="&#xaa;" horiz-adv-x="484" 
d="M123 290.5q-38 18.5 -60 52t-22 76.5q0 45 25 78.5t67 51t91 17.5q69 0 123 -28v15q0 44 -30 70t-76 26q-72 0 -101 -54l-83 42q21 42 68.5 68.5t113.5 26.5q92 0 148.5 -48.5t56.5 -137.5v-260h-97v56h-6q-21 -32 -56 -51t-79 -19q-45 0 -83 18.5zM284 367.5
q28 15.5 45.5 41.5t17.5 57q-24 12 -45.5 19.5t-55.5 7.5q-52 0 -78 -21t-26 -55q0 -30 24 -47.5t58 -17.5q32 0 60 15.5z" />
    <glyph glyph-name="guillemotleft" unicode="&#xab;" horiz-adv-x="579" 
d="M38 271l206 223l63 -57l-156 -166l156 -166l-63 -57zM249 271l206 223l63 -57l-156 -166l156 -166l-63 -57z" />
    <glyph glyph-name="logicalnot" unicode="&#xac;" horiz-adv-x="592" 
d="M413 301h-358v92h449v-288h-91v196z" />
    <glyph glyph-name="uni00AD" unicode="&#xad;" horiz-adv-x="453" 
d="M62 356h328v-92h-328v92z" />
    <glyph glyph-name="registered" unicode="&#xae;" horiz-adv-x="531" 
d="M150 303q-53 31 -84 84t-31 115t31 115t84 84t115 31t115 -31t84 -84t31 -115t-31 -115t-84 -84t-115 -31t-115 31zM357.5 344q42.5 25 67 67t24.5 91q0 50 -24.5 92t-67 66.5t-92.5 24.5q-49 0 -91 -24.5t-67 -66.5t-25 -92q0 -49 25 -91t67 -67t91 -25q50 0 92.5 25z
M189 615h95q29 0 51 -21t22 -51q0 -23 -14.5 -41t-35.5 -24l-2 -2l60 -85v-2h-50l-56 85h-25v-85h-45v226zM280 514q13 0 23 8t10 21q0 11 -9 20t-23 9h-47v-58h46z" />
    <glyph glyph-name="macron" unicode="&#xaf;" horiz-adv-x="407" 
d="M61 700h286v-82h-286v82z" />
    <glyph glyph-name="degree" unicode="&#xb0;" horiz-adv-x="324" 
d="M96.5 459.5q-30.5 17.5 -48 47t-17.5 64.5t17.5 65t48 47t65.5 17t65 -17t47.5 -47t17.5 -65t-17.5 -64.5t-47.5 -47t-65 -17.5t-65.5 17.5zM204 528q17 18 17 43q0 26 -17 43.5t-42 17.5t-42 -17.5t-17 -43.5q0 -25 17 -43t42 -18t42 18z" />
    <glyph glyph-name="plusminus" unicode="&#xb1;" horiz-adv-x="556" 
d="M232 307h-177v89h177v149h92v-149h177v-89h-177v-149h-92v149zM55 93h446v-93h-446v93z" />
    <glyph glyph-name="uni00B2" unicode="&#xb2;" horiz-adv-x="309" 
d="M25 409q122 123 132 132q21 21 32 37t11 35q0 17 -14 29.5t-35 12.5q-22 0 -37.5 -13.5t-21.5 -41.5l-70 28q10 44 45.5 70t82.5 26q53 0 90 -29.5t37 -77.5q0 -31 -18 -58.5t-44 -53.5q-20 -21 -86 -86h150v-69h-254v59z" />
    <glyph glyph-name="uni00B3" unicode="&#xb3;" horiz-adv-x="328" 
d="M72.5 367q-37.5 25 -50.5 75l72 26q7 -30 25 -44t41 -14t40 14t17 37q0 22 -17 35t-43 13h-40v62h35q24 0 38.5 12t14.5 33q0 18 -13.5 29t-32.5 11q-43 0 -57 -41l-67 27q13 38 45 60t80 22q54 0 88 -29.5t34 -74.5q0 -48 -45 -77q57 -31 57 -84t-39.5 -85t-94.5 -32
q-50 0 -87.5 25z" />
    <glyph glyph-name="acute" unicode="&#xb4;" horiz-adv-x="420" 
d="M201 720h122l-80 -131h-89z" />
    <glyph glyph-name="mu" unicode="&#xb5;" horiz-adv-x="580" 
d="M59 510h108v-301q0 -62 29.5 -94t77.5 -32q40 0 71 21t47.5 56t16.5 76v274h107v-510h-101v64h-6q-22 -36 -62 -58t-89 -22q-26 0 -50.5 9.5t-40.5 25.5h-6l6 -63v-172h-108v726z" />
    <glyph glyph-name="paragraph" unicode="&#xb6;" horiz-adv-x="628" 
d="M283 296h-35q-61 0 -112.5 25.5t-82 73.5t-30.5 111t30.5 111t82 73.5t112.5 25.5h301v-932h-93v838h-80v-838h-93v512z" />
    <glyph glyph-name="periodcentered" unicode="&#xb7;" horiz-adv-x="206" 
d="M50 271q-22 22 -22 53q0 32 22 53.5t53 21.5q32 0 53.5 -21.5t21.5 -53.5q0 -31 -21.5 -53t-53.5 -22q-31 0 -53 22z" />
    <glyph glyph-name="cedilla" unicode="&#xb8;" horiz-adv-x="407" 
d="M109 -218q-26 19 -37 48l56 24q5 -14 15.5 -23t24.5 -9q18 0 28.5 10.5t10.5 26.5t-11 28t-28 12q-19 0 -31 -15l-52 23l35 93h60l-21 -48q12 2 20 2q39 0 66 -26.5t27 -68.5q0 -40 -29.5 -68t-74.5 -28q-33 0 -59 19z" />
    <glyph glyph-name="uni00B9" unicode="&#xb9;" horiz-adv-x="255" 
d="M117 619l-50 -43l-44 57l103 83h68v-366h-77v269z" />
    <glyph glyph-name="ordmasculine" unicode="&#xba;" horiz-adv-x="525" 
d="M146 302q-51 30 -80 82.5t-29 117.5t29 117.5t80 82.5t116 30t116.5 -30t81 -82.5t29.5 -117.5t-29.5 -117.5t-81 -82.5t-116.5 -30t-116 30zM324.5 380.5q29.5 17.5 47 49.5t17.5 72t-17.5 72t-47 49.5t-62.5 17.5t-62.5 -17.5t-47 -49.5t-17.5 -72t17.5 -72t47 -49.5
t62.5 -17.5t62.5 17.5z" />
    <glyph glyph-name="guillemotright" unicode="&#xbb;" horiz-adv-x="579" 
d="M58 105l156 166l-156 166l63 57l206 -223l-206 -223zM269 105l156 166l-156 166l63 57l206 -223l-206 -223z" />
    <glyph glyph-name="onequarter" unicode="&#xbc;" horiz-adv-x="751" 
d="M142 619l-50 -43l-44 57l103 83h68v-366h-77v269zM110 32l465 695l66 -44l-466 -694zM570 70h-172v53l174 243h74v-232h48v-64h-48v-70h-76v70zM570 134v123h-5l-88 -123h93z" />
    <glyph glyph-name="onehalf" unicode="&#xbd;" horiz-adv-x="791" 
d="M142 619l-50 -43l-44 57l103 83h68v-366h-77v269zM102 32l465 695l66 -44l-466 -694zM479 59q122 123 132 132q21 21 32 37t11 35q0 17 -14 29.5t-35 12.5q-22 0 -37.5 -13.5t-21.5 -41.5l-70 28q10 44 45.5 70t82.5 26q53 0 90 -29.5t37 -77.5q0 -31 -18 -58.5
t-44 -53.5q-20 -21 -86 -86h150v-69h-254v59z" />
    <glyph glyph-name="threequarters" unicode="&#xbe;" horiz-adv-x="833" 
d="M98.5 367q-37.5 25 -50.5 75l72 26q7 -30 25 -44t41 -14t40 14t17 37q0 22 -17 35t-43 13h-40v62h35q24 0 38.5 12t14.5 33q0 18 -13.5 29t-32.5 11q-43 0 -57 -41l-67 27q13 38 45 60t80 22q54 0 88 -29.5t34 -74.5q0 -48 -45 -77q57 -31 57 -84t-39.5 -85t-94.5 -32
q-50 0 -87.5 25zM180 32l465 695l66 -44l-466 -694zM652 70h-172v53l174 243h74v-232h48v-64h-48v-70h-76v70zM652 134v123h-5l-88 -123h93z" />
    <glyph glyph-name="questiondown" unicode="&#xbf;" horiz-adv-x="507" 
d="M202 397q-22 22 -22 54t22 53.5t53 21.5q32 0 53.5 -21.5t21.5 -53.5t-22 -54t-53 -22t-53 22zM147 -207q-48 25 -74.5 68t-26.5 96t25 91.5t68 77.5q34 31 47.5 56.5t13.5 60.5v44h108v-56q0 -49 -19 -83.5t-70 -78.5q-35 -31 -50.5 -54t-15.5 -55q0 -39 27.5 -64.5
t73.5 -25.5q45 0 73 26t40 64l96 -40q-20 -60 -73 -106t-134 -46q-61 0 -109 25z" />
    <glyph glyph-name="Agrave" unicode="&#xc0;" horiz-adv-x="696" 
d="M285 716h125l271 -716h-121l-66 184h-292l-66 -184h-121zM458 286l-80 219l-27 82h-6l-27 -82l-80 -219h220zM223 904h123l47 -131h-91z" />
    <glyph glyph-name="Aacute" unicode="&#xc1;" horiz-adv-x="696" 
d="M285 716h125l271 -716h-121l-66 184h-292l-66 -184h-121zM458 286l-80 219l-27 82h-6l-27 -82l-80 -219h220zM350 904h122l-80 -131h-89z" />
    <glyph glyph-name="Acircumflex" unicode="&#xc2;" horiz-adv-x="696" 
d="M285 716h125l271 -716h-121l-66 184h-292l-66 -184h-121zM458 286l-80 219l-27 82h-6l-27 -82l-80 -219h220zM194 785l107 121h95l108 -121v-6h-104l-47 61h-10l-46 -61h-103v6z" />
    <glyph glyph-name="Atilde" unicode="&#xc3;" horiz-adv-x="696" 
d="M285 716h125l271 -716h-121l-66 184h-292l-66 -184h-121zM458 286l-80 219l-27 82h-6l-27 -82l-80 -219h220zM369 783.5q-18 7.5 -43 21.5q-27 16 -38 16q-28 0 -31 -33h-80q0 58 33.5 89t77.5 31q21 0 39 -7.5t44 -22.5q2 -1 15 -8t21 -7q29 0 32 33h81q0 -58 -34 -89
t-79 -31q-20 0 -38 7.5z" />
    <glyph glyph-name="Adieresis" unicode="&#xc4;" horiz-adv-x="696" 
d="M285 716h125l271 -716h-121l-66 184h-292l-66 -184h-121zM458 286l-80 219l-27 82h-6l-27 -82l-80 -219h220zM215.5 799q-18.5 19 -18.5 44q0 26 18 44.5t44 18.5q27 0 44.5 -18t17.5 -45q0 -25 -18 -44t-44 -19q-25 0 -43.5 19zM392.5 799q-18.5 19 -18.5 44
q0 26 18.5 44.5t43.5 18.5q27 0 45 -18.5t18 -44.5q0 -25 -18.5 -44t-44.5 -19q-25 0 -43.5 19z" />
    <glyph glyph-name="Aring" unicode="&#xc5;" horiz-adv-x="695" 
d="M680 0h-120l-67 184h-291l-66 -184h-121l253 671q-18 16 -27.5 38t-9.5 47q0 49 33.5 82.5t82.5 33.5q48 0 82.5 -34t34.5 -82q0 -50 -37 -85zM318 785.5q-12 -12.5 -12 -29.5t12 -29.5t29 -12.5t29.5 12.5t12.5 29.5t-12.5 29.5t-29.5 12.5t-29 -12.5zM457 286l-79 219
l-28 82h-6l-27 -82l-79 -219h219z" />
    <glyph glyph-name="AE" unicode="&#xc6;" horiz-adv-x="986" 
d="M432 716h497v-104h-324v-202h292v-104h-292v-202h324v-104h-434v185h-251l-108 -185h-129zM495 289v323h-7l-31 -60l-154 -263h192z" />
    <glyph glyph-name="Ccedilla" unicode="&#xc7;" horiz-adv-x="745" 
d="M582 19.5q-71 -34.5 -155 -35.5l-15 -32q14 2 21 2q38 0 65 -26.5t27 -68.5q0 -40 -29.5 -68t-74.5 -28q-33 0 -59 19t-37 48l57 24q4 -14 14.5 -23t24.5 -9q18 0 28.5 10.5t10.5 26.5q0 17 -10.5 28.5t-28.5 11.5t-31 -15l-52 23l31 80q-93 11 -166.5 62.5t-115.5 132
t-42 176.5q0 104 49 190t134.5 135t189.5 49q161 0 265 -117l-77 -75q-37 44 -82.5 66t-104.5 22q-73 0 -133 -33.5t-95 -95t-35 -141.5t35 -141.5t95 -95t133 -33.5q122 0 205 101l79 -76q-50 -59 -121 -93.5z" />
    <glyph glyph-name="Egrave" unicode="&#xc8;" horiz-adv-x="572" 
d="M81 716h434v-104h-324v-202h292v-104h-292v-202h324v-104h-434v716zM173 904h123l47 -131h-91z" />
    <glyph glyph-name="Eacute" unicode="&#xc9;" horiz-adv-x="572" 
d="M81 716h434v-104h-324v-202h292v-104h-292v-202h324v-104h-434v716zM300 904h122l-80 -131h-89z" />
    <glyph glyph-name="Ecircumflex" unicode="&#xca;" horiz-adv-x="572" 
d="M81 716h434v-104h-324v-202h292v-104h-292v-202h324v-104h-434v716zM144 785l107 121h95l108 -121v-6h-104l-47 61h-10l-46 -61h-103v6z" />
    <glyph glyph-name="Edieresis" unicode="&#xcb;" horiz-adv-x="572" 
d="M81 716h434v-104h-324v-202h292v-104h-292v-202h324v-104h-434v716zM165.5 799q-18.5 19 -18.5 44q0 26 18 44.5t44 18.5q27 0 44.5 -18t17.5 -45q0 -25 -18 -44t-44 -19q-25 0 -43.5 19zM342.5 799q-18.5 19 -18.5 44q0 26 18.5 44.5t43.5 18.5q27 0 45 -18.5t18 -44.5
q0 -25 -18.5 -44t-44.5 -19q-25 0 -43.5 19z" />
    <glyph glyph-name="Igrave" unicode="&#xcc;" horiz-adv-x="271" 
d="M81 716h110v-716h-110v716zM11 904h123l47 -131h-91z" />
    <glyph glyph-name="Iacute" unicode="&#xcd;" horiz-adv-x="271" 
d="M81 716h110v-716h-110v716zM138 904h122l-80 -131h-89z" />
    <glyph glyph-name="Icircumflex" unicode="&#xce;" horiz-adv-x="271" 
d="M81 716h110v-716h-110v716zM-19 785l107 121h95l108 -121v-6h-104l-47 61h-10l-46 -61h-103v6z" />
    <glyph glyph-name="Idieresis" unicode="&#xcf;" horiz-adv-x="271" 
d="M16 800.5q-18 18.5 -18 43.5t18 43t43 18q26 0 43.5 -17.5t17.5 -43.5q0 -25 -17.5 -43.5t-43.5 -18.5q-25 0 -43 18.5zM169 800.5q-18 18.5 -18 43.5t18 43t43 18q26 0 43.5 -17.5t17.5 -43.5q0 -25 -17.5 -43.5t-43.5 -18.5q-25 0 -43 18.5zM81 716h110v-716h-110v716z
" />
    <glyph glyph-name="Eth" unicode="&#xd0;" horiz-adv-x="750" 
d="M110 312h-76v90h76v314h229q111 0 193.5 -45t127 -126.5t44.5 -186.5t-44.5 -186.5t-127 -126.5t-193.5 -45h-229v312zM337 104q122 0 189.5 67.5t67.5 186.5t-67.5 186.5t-189.5 67.5h-117v-210h194v-90h-194v-208h117z" />
    <glyph glyph-name="Ntilde" unicode="&#xd1;" horiz-adv-x="725" 
d="M81 716h130l324 -526h6l-6 138v388h109v-716h-114l-340 553h-6l6 -138v-415h-109v716zM384 783.5q-18 7.5 -43 21.5q-27 16 -38 16q-28 0 -31 -33h-80q0 58 33.5 89t77.5 31q21 0 39 -7.5t44 -22.5q2 -1 15 -8t21 -7q29 0 32 33h81q0 -58 -34 -89t-79 -31q-20 0 -38 7.5z
" />
    <glyph glyph-name="Ograve" unicode="&#xd2;" horiz-adv-x="832" 
d="M227 34q-85 50 -133.5 135.5t-48.5 188.5t48.5 188.5t133.5 135.5t189 50t188.5 -50t133 -135.5t48.5 -188.5t-48.5 -188.5t-133 -135.5t-188.5 -50t-189 50zM547.5 122.5q59.5 34.5 94 96t34.5 139.5t-34.5 139.5t-94 96t-131.5 34.5t-131.5 -34.5t-94 -96t-34.5 -139.5
t34.5 -139.5t94 -96t131.5 -34.5t131.5 34.5zM291 904h123l47 -131h-91z" />
    <glyph glyph-name="Oacute" unicode="&#xd3;" horiz-adv-x="832" 
d="M227 34q-85 50 -133.5 135.5t-48.5 188.5t48.5 188.5t133.5 135.5t189 50t188.5 -50t133 -135.5t48.5 -188.5t-48.5 -188.5t-133 -135.5t-188.5 -50t-189 50zM547.5 122.5q59.5 34.5 94 96t34.5 139.5t-34.5 139.5t-94 96t-131.5 34.5t-131.5 -34.5t-94 -96t-34.5 -139.5
t34.5 -139.5t94 -96t131.5 -34.5t131.5 34.5zM418 904h122l-80 -131h-89z" />
    <glyph glyph-name="Ocircumflex" unicode="&#xd4;" horiz-adv-x="832" 
d="M227 34q-85 50 -133.5 135.5t-48.5 188.5t48.5 188.5t133.5 135.5t189 50t188.5 -50t133 -135.5t48.5 -188.5t-48.5 -188.5t-133 -135.5t-188.5 -50t-189 50zM547.5 122.5q59.5 34.5 94 96t34.5 139.5t-34.5 139.5t-94 96t-131.5 34.5t-131.5 -34.5t-94 -96t-34.5 -139.5
t34.5 -139.5t94 -96t131.5 -34.5t131.5 34.5zM262 785l107 121h95l108 -121v-6h-104l-47 61h-10l-46 -61h-103v6z" />
    <glyph glyph-name="Otilde" unicode="&#xd5;" horiz-adv-x="832" 
d="M227 34q-85 50 -133.5 135.5t-48.5 188.5t48.5 188.5t133.5 135.5t189 50t188.5 -50t133 -135.5t48.5 -188.5t-48.5 -188.5t-133 -135.5t-188.5 -50t-189 50zM547.5 122.5q59.5 34.5 94 96t34.5 139.5t-34.5 139.5t-94 96t-131.5 34.5t-131.5 -34.5t-94 -96t-34.5 -139.5
t34.5 -139.5t94 -96t131.5 -34.5t131.5 34.5zM437 783.5q-18 7.5 -43 21.5q-27 16 -38 16q-28 0 -31 -33h-80q0 58 33.5 89t77.5 31q21 0 39 -7.5t44 -22.5q2 -1 15 -8t21 -7q29 0 32 33h81q0 -58 -34 -89t-79 -31q-20 0 -38 7.5z" />
    <glyph glyph-name="Odieresis" unicode="&#xd6;" horiz-adv-x="832" 
d="M227 34q-85 50 -133.5 135.5t-48.5 188.5t48.5 188.5t133.5 135.5t189 50t188.5 -50t133 -135.5t48.5 -188.5t-48.5 -188.5t-133 -135.5t-188.5 -50t-189 50zM547.5 122.5q59.5 34.5 94 96t34.5 139.5t-34.5 139.5t-94 96t-131.5 34.5t-131.5 -34.5t-94 -96t-34.5 -139.5
t34.5 -139.5t94 -96t131.5 -34.5t131.5 34.5zM283.5 799q-18.5 19 -18.5 44q0 26 18 44.5t44 18.5q27 0 44.5 -18t17.5 -45q0 -25 -18 -44t-44 -19q-25 0 -43.5 19zM460.5 799q-18.5 19 -18.5 44q0 26 18.5 44.5t43.5 18.5q27 0 45 -18.5t18 -44.5q0 -25 -18.5 -44
t-44.5 -19q-25 0 -43.5 19z" />
    <glyph glyph-name="multiply" unicode="&#xd7;" horiz-adv-x="585" 
d="M66 116l161 155l-161 155l64 64l163 -157l162 157l64 -64l-162 -155l162 -155l-64 -64l-162 157l-163 -157z" />
    <glyph glyph-name="Oslash" unicode="&#xd8;" horiz-adv-x="832" 
d="M751 522q36 -76 36 -164q0 -103 -49 -188.5t-133.5 -135.5t-188.5 -50q-87 0 -160 35l-37 -60l-74 47l37 59q-64 52 -100.5 128.5t-36.5 164.5q0 103 48.5 188.5t133.5 135.5t189 50q84 0 160 -35l38 61l74 -48l-37 -60q64 -52 100 -128zM178 244.5q22 -51.5 61 -88.5
l281 451q-48 21 -104 21q-72 0 -131.5 -34.5t-94 -96t-34.5 -139.5q0 -62 22 -113.5zM547.5 122.5q59.5 34.5 94 96t34.5 139.5q0 61 -21.5 112.5t-60.5 88.5l-282 -450q48 -21 104 -21q72 0 131.5 34.5z" />
    <glyph glyph-name="Ugrave" unicode="&#xd9;" horiz-adv-x="673" 
d="M194.5 20q-61.5 36 -95 102t-33.5 153v441h109v-447q0 -81 42 -131t119 -50q78 0 120 50t42 131v447h109v-441q0 -86 -33 -152t-94 -102.5t-144 -36.5q-80 0 -141.5 36zM212 904h123l47 -131h-91z" />
    <glyph glyph-name="Uacute" unicode="&#xda;" horiz-adv-x="673" 
d="M194.5 20q-61.5 36 -95 102t-33.5 153v441h109v-447q0 -81 42 -131t119 -50q78 0 120 50t42 131v447h109v-441q0 -86 -33 -152t-94 -102.5t-144 -36.5q-80 0 -141.5 36zM339 904h122l-80 -131h-89z" />
    <glyph glyph-name="Ucircumflex" unicode="&#xdb;" horiz-adv-x="673" 
d="M194.5 20q-61.5 36 -95 102t-33.5 153v441h109v-447q0 -81 42 -131t119 -50q78 0 120 50t42 131v447h109v-441q0 -86 -33 -152t-94 -102.5t-144 -36.5q-80 0 -141.5 36zM182 785l107 121h95l108 -121v-6h-104l-47 61h-10l-46 -61h-103v6z" />
    <glyph glyph-name="Udieresis" unicode="&#xdc;" horiz-adv-x="673" 
d="M194.5 20q-61.5 36 -95 102t-33.5 153v441h109v-447q0 -81 42 -131t119 -50q78 0 120 50t42 131v447h109v-441q0 -86 -33 -152t-94 -102.5t-144 -36.5q-80 0 -141.5 36zM203.5 799q-18.5 19 -18.5 44q0 26 18 44.5t44 18.5q27 0 44.5 -18t17.5 -45q0 -25 -18 -44t-44 -19
q-25 0 -43.5 19zM380.5 799q-18.5 19 -18.5 44q0 26 18.5 44.5t43.5 18.5q27 0 45 -18.5t18 -44.5q0 -25 -18.5 -44t-44.5 -19q-25 0 -43.5 19z" />
    <glyph glyph-name="Yacute" unicode="&#xdd;" horiz-adv-x="618" 
d="M257 332l-242 384h130l163 -269h6l159 269h131l-238 -384v-332h-109v332zM311 904h122l-80 -131h-89z" />
    <glyph glyph-name="Thorn" unicode="&#xde;" horiz-adv-x="593" 
d="M81 716h110v-116h136q64 0 117.5 -28t85 -78t31.5 -113t-31.5 -113t-85 -78t-117.5 -28h-136v-162h-110v716zM330 266q55 0 88.5 34.5t33.5 80.5t-33.5 80.5t-88.5 34.5h-139v-230h139z" />
    <glyph glyph-name="germandbls" unicode="&#xdf;" horiz-adv-x="586" 
d="M260 -3v99q25 -4 53 -4q54 0 89.5 34t35.5 87q0 51 -40 86t-95 35h-34v96h24q53 0 84 29t31 76q0 42 -31.5 69t-76.5 27q-52 0 -82 -33t-30 -87v-511h-109v512q0 63 26.5 113t76.5 78.5t118 28.5q61 0 109.5 -24.5t76 -68.5t27.5 -99q0 -53 -23 -91t-62 -59v-6
q54 -22 86 -66.5t32 -109.5q0 -62 -29.5 -111.5t-81.5 -77t-118 -27.5q-32 0 -57 5z" />
    <glyph glyph-name="agrave" unicode="&#xe0;" horiz-adv-x="546" 
d="M125 5.5q-43 21.5 -67 60.5t-24 89q0 53 28 91.5t76 59t107 20.5q45 0 81.5 -8.5t58.5 -19.5v27q0 49 -36 79.5t-93 30.5q-39 0 -74 -17.5t-56 -47.5l-74 57q33 47 87.5 73t119.5 26q110 0 170.5 -54.5t60.5 -152.5v-319h-105v63h-6q-22 -34 -63 -56.5t-93 -22.5
q-55 0 -98 21.5zM315 91.5q33 19.5 51.5 52.5t18.5 71q-24 14 -55 22t-65 8q-63 0 -92.5 -25t-29.5 -66q0 -36 27 -59t72 -23q40 0 73 19.5zM139 740h123l47 -131h-91z" />
    <glyph glyph-name="aacute" unicode="&#xe1;" horiz-adv-x="546" 
d="M125 5.5q-43 21.5 -67 60.5t-24 89q0 53 28 91.5t76 59t107 20.5q45 0 81.5 -8.5t58.5 -19.5v27q0 49 -36 79.5t-93 30.5q-39 0 -74 -17.5t-56 -47.5l-74 57q33 47 87.5 73t119.5 26q110 0 170.5 -54.5t60.5 -152.5v-319h-105v63h-6q-22 -34 -63 -56.5t-93 -22.5
q-55 0 -98 21.5zM315 91.5q33 19.5 51.5 52.5t18.5 71q-24 14 -55 22t-65 8q-63 0 -92.5 -25t-29.5 -66q0 -36 27 -59t72 -23q40 0 73 19.5zM266 740h122l-80 -131h-89z" />
    <glyph glyph-name="acircumflex" unicode="&#xe2;" horiz-adv-x="546" 
d="M125 5.5q-43 21.5 -67 60.5t-24 89q0 53 28 91.5t76 59t107 20.5q45 0 81.5 -8.5t58.5 -19.5v27q0 49 -36 79.5t-93 30.5q-39 0 -74 -17.5t-56 -47.5l-74 57q33 47 87.5 73t119.5 26q110 0 170.5 -54.5t60.5 -152.5v-319h-105v63h-6q-22 -34 -63 -56.5t-93 -22.5
q-55 0 -98 21.5zM315 91.5q33 19.5 51.5 52.5t18.5 71q-24 14 -55 22t-65 8q-63 0 -92.5 -25t-29.5 -66q0 -36 27 -59t72 -23q40 0 73 19.5zM109 615l107 121h95l108 -121v-7h-104l-47 61h-10l-46 -61h-103v7z" />
    <glyph glyph-name="atilde" unicode="&#xe3;" horiz-adv-x="546" 
d="M125 5.5q-43 21.5 -67 60.5t-24 89q0 53 28 91.5t76 59t107 20.5q45 0 81.5 -8.5t58.5 -19.5v27q0 49 -36 79.5t-93 30.5q-39 0 -74 -17.5t-56 -47.5l-74 57q33 47 87.5 73t119.5 26q110 0 170.5 -54.5t60.5 -152.5v-319h-105v63h-6q-22 -34 -63 -56.5t-93 -22.5
q-55 0 -98 21.5zM315 91.5q33 19.5 51.5 52.5t18.5 71q-24 14 -55 22t-65 8q-63 0 -92.5 -25t-29.5 -66q0 -36 27 -59t72 -23q40 0 73 19.5zM285 619.5q-18 7.5 -43 21.5q-27 16 -38 16q-28 0 -31 -33h-80q0 58 33.5 88.5t77.5 30.5q21 0 39 -7.5t44 -22.5q2 -1 15 -8t21 -7
q29 0 32 33h81q0 -57 -34 -88t-79 -31q-20 0 -38 7.5z" />
    <glyph glyph-name="adieresis" unicode="&#xe4;" horiz-adv-x="546" 
d="M125 5.5q-43 21.5 -67 60.5t-24 89q0 53 28 91.5t76 59t107 20.5q45 0 81.5 -8.5t58.5 -19.5v27q0 49 -36 79.5t-93 30.5q-39 0 -74 -17.5t-56 -47.5l-74 57q33 47 87.5 73t119.5 26q110 0 170.5 -54.5t60.5 -152.5v-319h-105v63h-6q-22 -34 -63 -56.5t-93 -22.5
q-55 0 -98 21.5zM315 91.5q33 19.5 51.5 52.5t18.5 71q-24 14 -55 22t-65 8q-63 0 -92.5 -25t-29.5 -66q0 -36 27 -59t72 -23q40 0 73 19.5zM130.5 634.5q-18.5 18.5 -18.5 44.5t18 44t44 18q27 0 44.5 -18t17.5 -44t-17.5 -44.5t-44.5 -18.5q-25 0 -43.5 18.5zM307.5 635
q-18.5 19 -18.5 44q0 26 18.5 44t43.5 18q27 0 45 -18t18 -44t-18 -44.5t-45 -18.5q-25 0 -43.5 19z" />
    <glyph glyph-name="aring" unicode="&#xe5;" horiz-adv-x="546" 
d="M125 5.5q-43 21.5 -67 60.5t-24 89q0 53 28 91.5t76 59t107 20.5q45 0 81.5 -8.5t58.5 -19.5v27q0 49 -36 79.5t-93 30.5q-39 0 -74 -17.5t-56 -47.5l-74 57q33 47 87.5 73t119.5 26q110 0 170.5 -54.5t60.5 -152.5v-319h-105v63h-6q-22 -34 -63 -56.5t-93 -22.5
q-55 0 -98 21.5zM315 91.5q33 19.5 51.5 52.5t18.5 71q-24 14 -55 22t-65 8q-63 0 -92.5 -25t-29.5 -66q0 -36 27 -59t72 -23q40 0 73 19.5zM188.5 617q-30.5 31 -30.5 75t30.5 74.5t74.5 30.5t75 -30.5t31 -74.5t-31 -75t-75 -31t-74.5 31zM292.5 662.5
q12.5 12.5 12.5 29.5t-12.5 29t-29.5 12t-29 -12t-12 -29t12 -29.5t29 -12.5t29.5 12.5z" />
    <glyph glyph-name="ae" unicode="&#xe6;" horiz-adv-x="919" 
d="M127 5.5q-44 21.5 -68.5 60.5t-24.5 89q0 53 28 91.5t76 59t107 20.5q45 0 80.5 -8.5t58.5 -20.5v25q0 52 -33.5 82.5t-90.5 30.5q-39 0 -66.5 -17.5t-42.5 -47.5l-85 40q25 55 78 85.5t117 30.5q67 0 115.5 -23t76.5 -67q31 43 77.5 66t104.5 23q77 0 133 -33.5
t85.5 -92t29.5 -133.5q0 -20 -2 -34h-393q6 -73 51 -112.5t106 -39.5q48 0 83 22.5t56 59.5l89 -43q-35 -63 -92.5 -99t-138.5 -36q-69 0 -123.5 32t-87.5 86q-40 -62 -89.5 -90t-113.5 -28q-57 0 -101 21.5zM775 313q-2 28 -17.5 55.5t-46 46t-75.5 18.5q-54 0 -91.5 -32.5
t-51.5 -87.5h282zM314.5 91.5q32.5 19.5 51 52.5t18.5 71q-52 30 -119 30q-63 0 -92.5 -25t-29.5 -66q0 -36 27 -59t72 -23q40 0 72.5 19.5z" />
    <glyph glyph-name="ccedilla" unicode="&#xe7;" horiz-adv-x="559" 
d="M444 24q-57 -38 -136 -40l-15 -32q14 2 21 2q38 0 65 -26.5t27 -68.5q0 -40 -29.5 -68t-74.5 -28q-33 0 -59 19t-37 48l57 24q4 -14 14.5 -23t24.5 -9q18 0 28.5 10.5t10.5 26.5t-11 28t-28 12q-18 0 -31 -15l-52 23l31 81q-64 11 -112.5 47.5t-75 93.5t-26.5 126
q0 78 33.5 139.5t93.5 96.5t136 35q84 0 142.5 -37.5t84.5 -103.5l-98 -40q-36 82 -131 82q-42 0 -77.5 -21.5t-56 -60.5t-20.5 -90t20.5 -90t56 -60.5t77.5 -21.5q48 0 82.5 21.5t53.5 62.5l97 -42q-29 -63 -86 -101z" />
    <glyph glyph-name="egrave" unicode="&#xe8;" horiz-adv-x="575" 
d="M162.5 19q-59.5 35 -93 96.5t-33.5 138.5q0 73 32.5 135.5t90.5 99.5t131 37q77 0 133 -33.5t85.5 -92.5t29.5 -134q0 -20 -2 -34h-394q7 -73 52 -112.5t105 -39.5q49 0 84 22.5t56 59.5l89 -43q-35 -63 -93 -99t-139 -36q-74 0 -133.5 35zM431 313q-2 28 -18 56
t-46.5 46.5t-75.5 18.5q-54 0 -91.5 -33t-51.5 -88h283zM166 740h123l47 -131h-91z" />
    <glyph glyph-name="eacute" unicode="&#xe9;" horiz-adv-x="575" 
d="M162.5 19q-59.5 35 -93 96.5t-33.5 138.5q0 73 32.5 135.5t90.5 99.5t131 37q77 0 133 -33.5t85.5 -92.5t29.5 -134q0 -20 -2 -34h-394q7 -73 52 -112.5t105 -39.5q49 0 84 22.5t56 59.5l89 -43q-35 -63 -93 -99t-139 -36q-74 0 -133.5 35zM431 313q-2 28 -18 56
t-46.5 46.5t-75.5 18.5q-54 0 -91.5 -33t-51.5 -88h283zM293 740h122l-80 -131h-89z" />
    <glyph glyph-name="ecircumflex" unicode="&#xea;" horiz-adv-x="575" 
d="M162.5 19q-59.5 35 -93 96.5t-33.5 138.5q0 73 32.5 135.5t90.5 99.5t131 37q77 0 133 -33.5t85.5 -92.5t29.5 -134q0 -20 -2 -34h-394q7 -73 52 -112.5t105 -39.5q49 0 84 22.5t56 59.5l89 -43q-35 -63 -93 -99t-139 -36q-74 0 -133.5 35zM431 313q-2 28 -18 56
t-46.5 46.5t-75.5 18.5q-54 0 -91.5 -33t-51.5 -88h283zM136 615l107 121h95l108 -121v-7h-104l-47 61h-10l-46 -61h-103v7z" />
    <glyph glyph-name="edieresis" unicode="&#xeb;" horiz-adv-x="575" 
d="M162.5 19q-59.5 35 -93 96.5t-33.5 138.5q0 73 32.5 135.5t90.5 99.5t131 37q77 0 133 -33.5t85.5 -92.5t29.5 -134q0 -20 -2 -34h-394q7 -73 52 -112.5t105 -39.5q49 0 84 22.5t56 59.5l89 -43q-35 -63 -93 -99t-139 -36q-74 0 -133.5 35zM431 313q-2 28 -18 56
t-46.5 46.5t-75.5 18.5q-54 0 -91.5 -33t-51.5 -88h283zM157.5 634.5q-18.5 18.5 -18.5 44.5t18 44t44 18q27 0 44.5 -18t17.5 -44t-17.5 -44.5t-44.5 -18.5q-25 0 -43.5 18.5zM334.5 635q-18.5 19 -18.5 44q0 26 18.5 44t43.5 18q27 0 45 -18t18 -44t-18 -44.5t-45 -18.5
q-25 0 -43.5 19z" />
    <glyph glyph-name="igrave" unicode="&#xec;" horiz-adv-x="251" 
d="M71 510h108v-510h-108v510zM1 740h123l47 -131h-91z" />
    <glyph glyph-name="iacute" unicode="&#xed;" horiz-adv-x="251" 
d="M71 510h108v-510h-108v510zM128 740h122l-80 -131h-89z" />
    <glyph glyph-name="icircumflex" unicode="&#xee;" horiz-adv-x="251" 
d="M71 510h108v-510h-108v510zM-28 615l107 121h95l108 -121v-7h-104l-47 61h-10l-46 -61h-103v7z" />
    <glyph glyph-name="idieresis" unicode="&#xef;" horiz-adv-x="251" 
d="M7 636q-18 18 -18 43t18 43t43 18q26 0 43.5 -17.5t17.5 -43.5q0 -25 -17.5 -43t-43.5 -18q-25 0 -43 18zM157.5 636q-18.5 18 -18.5 43t18 43t44 18t43.5 -17.5t17.5 -43.5q0 -25 -18 -43t-43 -18t-43.5 18zM71 510h108v-510h-108v510z" />
    <glyph glyph-name="eth" unicode="&#xf0;" horiz-adv-x="593" 
d="M169 18.5q-57 34.5 -90 93t-33 127.5q0 71 33 128.5t88 90.5t117 33q40 0 72.5 -14t51.5 -33l6 4q-14 36 -36.5 62.5t-54.5 49.5l-123 -54l-30 71l72 32q-50 24 -103 36l34 85q100 -27 174 -75l101 45l30 -70l-64 -28q67 -64 100 -151.5t33 -191.5q0 -81 -32.5 -143.5
t-90 -97t-130.5 -34.5q-68 0 -125 34.5zM368 102.5q33 19.5 52 55t19 81.5q0 45 -19 80t-52 55t-72 20q-40 0 -73 -19.5t-52 -55t-19 -80.5t19 -81t52 -55.5t72 -19.5q40 0 73 19.5z" />
    <glyph glyph-name="ntilde" unicode="&#xf1;" horiz-adv-x="580" 
d="M63 510h102v-70h6q22 38 66 62t95 24q92 0 140 -54.5t48 -149.5v-322h-107v308q0 60 -30 89.5t-82 29.5q-38 0 -67.5 -21t-46 -56t-16.5 -76v-274h-108v510zM324 619.5q-18 7.5 -43 21.5q-27 16 -38 16q-28 0 -31 -33h-80q0 58 33.5 88.5t77.5 30.5q21 0 39 -7.5
t44 -22.5q2 -1 15 -8t21 -7q29 0 32 33h81q0 -57 -34 -88t-79 -31q-20 0 -38 7.5z" />
    <glyph glyph-name="ograve" unicode="&#xf2;" horiz-adv-x="605" 
d="M165 19.5q-61 35.5 -95 97.5t-34 138t34 138t95 97.5t138 35.5q76 0 137 -36t95 -98t34 -137q0 -76 -34 -138t-94.5 -97.5t-137.5 -35.5t-138 35.5zM382 104q36 21 58 60t22 91t-22 91t-58 60t-79 21t-79.5 -21t-58.5 -60t-22 -91t22 -91t58.5 -60t79.5 -21t79 21z
M178 740h123l47 -131h-91z" />
    <glyph glyph-name="oacute" unicode="&#xf3;" horiz-adv-x="605" 
d="M165 19.5q-61 35.5 -95 97.5t-34 138t34 138t95 97.5t138 35.5q76 0 137 -36t95 -98t34 -137q0 -76 -34 -138t-94.5 -97.5t-137.5 -35.5t-138 35.5zM382 104q36 21 58 60t22 91t-22 91t-58 60t-79 21t-79.5 -21t-58.5 -60t-22 -91t22 -91t58.5 -60t79.5 -21t79 21z
M305 740h122l-80 -131h-89z" />
    <glyph glyph-name="ocircumflex" unicode="&#xf4;" horiz-adv-x="605" 
d="M165 19.5q-61 35.5 -95 97.5t-34 138t34 138t95 97.5t138 35.5q76 0 137 -36t95 -98t34 -137q0 -76 -34 -138t-94.5 -97.5t-137.5 -35.5t-138 35.5zM382 104q36 21 58 60t22 91t-22 91t-58 60t-79 21t-79.5 -21t-58.5 -60t-22 -91t22 -91t58.5 -60t79.5 -21t79 21z
M149 615l107 121h95l108 -121v-7h-104l-47 61h-10l-46 -61h-103v7z" />
    <glyph glyph-name="otilde" unicode="&#xf5;" horiz-adv-x="605" 
d="M165 19.5q-61 35.5 -95 97.5t-34 138t34 138t95 97.5t138 35.5q76 0 137 -36t95 -98t34 -137q0 -76 -34 -138t-94.5 -97.5t-137.5 -35.5t-138 35.5zM382 104q36 21 58 60t22 91t-22 91t-58 60t-79 21t-79.5 -21t-58.5 -60t-22 -91t22 -91t58.5 -60t79.5 -21t79 21z
M324 619.5q-18 7.5 -43 21.5q-27 16 -38 16q-28 0 -31 -33h-80q0 58 33.5 88.5t77.5 30.5q21 0 39 -7.5t44 -22.5q2 -1 15 -8t21 -7q29 0 32 33h81q0 -57 -34 -88t-79 -31q-20 0 -38 7.5z" />
    <glyph glyph-name="odieresis" unicode="&#xf6;" horiz-adv-x="605" 
d="M165 19.5q-61 35.5 -95 97.5t-34 138t34 138t95 97.5t138 35.5q76 0 137 -36t95 -98t34 -137q0 -76 -34 -138t-94.5 -97.5t-137.5 -35.5t-138 35.5zM382 104q36 21 58 60t22 91t-22 91t-58 60t-79 21t-79.5 -21t-58.5 -60t-22 -91t22 -91t58.5 -60t79.5 -21t79 21z
M170.5 634.5q-18.5 18.5 -18.5 44.5t18 44t44 18q27 0 44.5 -18t17.5 -44t-17.5 -44.5t-44.5 -18.5q-25 0 -43.5 18.5zM347.5 635q-18.5 19 -18.5 44q0 26 18.5 44t43.5 18q27 0 45 -18t18 -44t-18 -44.5t-45 -18.5q-25 0 -43.5 19z" />
    <glyph glyph-name="divide" unicode="&#xf7;" horiz-adv-x="556" 
d="M226 412q-21 21 -21 51t21 51.5t52 21.5t52 -21.5t21 -51.5t-21 -51t-52 -21t-52 21zM55 315h446v-88h-446v88zM226 27.5q-21 21.5 -21 51.5t21 51t52 21t52 -21t21 -51t-21 -51.5t-52 -21.5t-52 21.5z" />
    <glyph glyph-name="oslash" unicode="&#xf8;" horiz-adv-x="605" 
d="M545.5 370q23.5 -53 23.5 -115q0 -76 -34 -138t-94.5 -97.5t-137.5 -35.5q-58 0 -107 20l-26 -41l-72 41l27 44q-42 37 -65.5 91t-23.5 116q0 76 34 138t95 97.5t138 35.5q55 0 108 -21l26 42l72 -40l-29 -46q42 -38 65.5 -91zM179 134l180 288q-26 10 -56 10
q-44 0 -82 -21.5t-60.5 -61.5t-22.5 -94q0 -72 41 -121zM384.5 99.5q37.5 21.5 60 61.5t22.5 94q0 70 -40 120l-179 -288q26 -9 55 -9q44 0 81.5 21.5z" />
    <glyph glyph-name="ugrave" unicode="&#xf9;" horiz-adv-x="580" 
d="M107.5 39.5q-48.5 55.5 -48.5 154.5v316h108v-301q0 -62 29 -94t78 -32q40 0 71 21t47.5 56t16.5 76v274h107v-510h-101v69h-6q-22 -37 -66 -61t-95 -24q-92 0 -140.5 55.5zM163 740h123l47 -131h-91z" />
    <glyph glyph-name="uacute" unicode="&#xfa;" horiz-adv-x="580" 
d="M107.5 39.5q-48.5 55.5 -48.5 154.5v316h108v-301q0 -62 29 -94t78 -32q40 0 71 21t47.5 56t16.5 76v274h107v-510h-101v69h-6q-22 -37 -66 -61t-95 -24q-92 0 -140.5 55.5zM290 740h122l-80 -131h-89z" />
    <glyph glyph-name="ucircumflex" unicode="&#xfb;" horiz-adv-x="580" 
d="M107.5 39.5q-48.5 55.5 -48.5 154.5v316h108v-301q0 -62 29 -94t78 -32q40 0 71 21t47.5 56t16.5 76v274h107v-510h-101v69h-6q-22 -37 -66 -61t-95 -24q-92 0 -140.5 55.5zM134 615l107 121h95l108 -121v-7h-104l-47 61h-10l-46 -61h-103v7z" />
    <glyph glyph-name="udieresis" unicode="&#xfc;" horiz-adv-x="580" 
d="M107.5 39.5q-48.5 55.5 -48.5 154.5v316h108v-301q0 -62 29 -94t78 -32q40 0 71 21t47.5 56t16.5 76v274h107v-510h-101v69h-6q-22 -37 -66 -61t-95 -24q-92 0 -140.5 55.5zM155.5 634.5q-18.5 18.5 -18.5 44.5t18 44t44 18q27 0 44.5 -18t17.5 -44t-17.5 -44.5
t-44.5 -18.5q-25 0 -43.5 18.5zM332.5 635q-18.5 19 -18.5 44q0 26 18.5 44t43.5 18q27 0 45 -18t18 -44t-18 -44.5t-45 -18.5q-25 0 -43.5 19z" />
    <glyph glyph-name="yacute" unicode="&#xfd;" horiz-adv-x="547" 
d="M221 28l-213 482h120l146 -348h5l141 348h119l-315 -726h-115zM276 740h122l-80 -131h-89z" />
    <glyph glyph-name="thorn" unicode="&#xfe;" horiz-adv-x="613" 
d="M61 716h107v-207l-6 -68h6q22 36 65.5 60.5t98.5 24.5q69 0 125 -35t88 -96.5t32 -139.5t-32 -140t-88 -96.5t-125 -34.5q-55 0 -98.5 24.5t-65.5 59.5h-6l6 -68v-216h-107v932zM392.5 104.5q35.5 21.5 56.5 60.5t21 90t-21 90t-56.5 60.5t-76.5 21.5q-40 0 -75.5 -21.5
t-57 -60.5t-21.5 -90t21.5 -90t57 -60.5t75.5 -21.5q41 0 76.5 21.5z" />
    <glyph glyph-name="ydieresis" unicode="&#xff;" horiz-adv-x="547" 
d="M221 28l-213 482h120l146 -348h5l141 348h119l-315 -726h-115zM141.5 634.5q-18.5 18.5 -18.5 44.5t18 44t44 18q27 0 44.5 -18t17.5 -44t-17.5 -44.5t-44.5 -18.5q-25 0 -43.5 18.5zM318.5 635q-18.5 19 -18.5 44q0 26 18.5 44t43.5 18q27 0 45 -18t18 -44t-18 -44.5
t-45 -18.5q-25 0 -43.5 19z" />
    <glyph glyph-name="Amacron" unicode="&#x100;" horiz-adv-x="696" 
d="M285 716h125l271 -716h-121l-66 184h-292l-66 -184h-121zM458 286l-80 219l-27 82h-6l-27 -82l-80 -219h220zM206 884h286v-82h-286v82z" />
    <glyph glyph-name="amacron" unicode="&#x101;" horiz-adv-x="546" 
d="M125 5.5q-43 21.5 -67 60.5t-24 89q0 53 28 91.5t76 59t107 20.5q45 0 81.5 -8.5t58.5 -19.5v27q0 49 -36 79.5t-93 30.5q-39 0 -74 -17.5t-56 -47.5l-74 57q33 47 87.5 73t119.5 26q110 0 170.5 -54.5t60.5 -152.5v-319h-105v63h-6q-22 -34 -63 -56.5t-93 -22.5
q-55 0 -98 21.5zM315 91.5q33 19.5 51.5 52.5t18.5 71q-24 14 -55 22t-65 8q-63 0 -92.5 -25t-29.5 -66q0 -36 27 -59t72 -23q40 0 73 19.5zM121 720h286v-83h-286v83z" />
    <glyph glyph-name="Abreve" unicode="&#x102;" horiz-adv-x="696" 
d="M285 716h125l271 -716h-121l-66 184h-292l-66 -184h-121zM458 286l-80 219l-27 82h-6l-27 -82l-80 -219h220zM284.5 785q-30.5 17 -49 46.5t-18.5 65.5h80q0 -22 14 -37.5t38 -15.5q22 0 36 15.5t14 37.5h80q0 -36 -18 -65.5t-48 -46.5t-64 -17t-64.5 17z" />
    <glyph glyph-name="abreve" unicode="&#x103;" horiz-adv-x="546" 
d="M125 5.5q-43 21.5 -67 60.5t-24 89q0 53 28 91.5t76 59t107 20.5q45 0 81.5 -8.5t58.5 -19.5v27q0 49 -36 79.5t-93 30.5q-39 0 -74 -17.5t-56 -47.5l-74 57q33 47 87.5 73t119.5 26q110 0 170.5 -54.5t60.5 -152.5v-319h-105v63h-6q-22 -34 -63 -56.5t-93 -22.5
q-55 0 -98 21.5zM315 91.5q33 19.5 51.5 52.5t18.5 71q-24 14 -55 22t-65 8q-63 0 -92.5 -25t-29.5 -66q0 -36 27 -59t72 -23q40 0 73 19.5zM200.5 620q-30.5 17 -49 47t-18.5 66h80q0 -22 14 -37.5t38 -15.5q22 0 36 15.5t14 37.5h80q0 -36 -18 -66t-48 -47t-64 -17
t-64.5 17z" />
    <glyph glyph-name="Aogonek" unicode="&#x104;" horiz-adv-x="696" 
d="M550.5 -191.5q-33.5 32.5 -33.5 83.5q0 59 54 106l-1 2h-10l-66 184h-292l-66 -184h-121l270 716h125l271 -716q-35 -26 -53 -47t-18 -47q0 -21 12 -34.5t33 -13.5q19 0 40 11v-84q-19 -9 -54 -9q-57 0 -90.5 32.5zM458 286l-80 219l-27 82h-6l-27 -82l-80 -219h220z" />
    <glyph glyph-name="aogonek" unicode="&#x105;" horiz-adv-x="546" 
d="M359.5 -192q-33.5 32 -33.5 81q0 36 18.5 63t43.5 45l-3 3v63h-6q-22 -34 -63 -56.5t-93 -22.5q-55 0 -98 21.5t-67 60.5t-24 89q0 53 28 91.5t76 59t107 20.5q45 0 81.5 -8.5t58.5 -19.5v27q0 49 -36 79.5t-93 30.5q-39 0 -74 -17.5t-56 -47.5l-74 57q33 47 87.5 73
t119.5 26q110 0 170.5 -54.5t60.5 -152.5v-319q-35 -26 -53 -47t-18 -47q0 -21 12.5 -34.5t32.5 -13.5q19 0 41 11v-84q-20 -9 -55 -9q-57 0 -90.5 32zM315 91.5q33 19.5 51.5 52.5t18.5 71q-24 14 -55 22t-65 8q-63 0 -92.5 -25t-29.5 -66q0 -36 27 -59t72 -23
q40 0 73 19.5z" />
    <glyph glyph-name="Cacute" unicode="&#x106;" horiz-adv-x="745" 
d="M228.5 33q-85.5 49 -134.5 135t-49 190t49 190t134.5 135t189.5 49q161 0 265 -117l-77 -75q-37 44 -82.5 66t-104.5 22q-73 0 -133 -33.5t-95 -95t-35 -141.5t35 -141.5t95 -95t133 -33.5q122 0 205 101l79 -76q-52 -61 -125 -95t-160 -34q-104 0 -189.5 49zM413 904
h122l-80 -131h-89z" />
    <glyph glyph-name="cacute" unicode="&#x107;" horiz-adv-x="559" 
d="M163 19q-60 35 -93.5 96.5t-33.5 139.5t33.5 139.5t93.5 96.5t136 35q84 0 142.5 -37.5t84.5 -103.5l-98 -40q-36 82 -131 82q-42 0 -77.5 -21.5t-56 -60.5t-20.5 -90t20.5 -90t56 -60.5t77.5 -21.5q48 0 82.5 21.5t53.5 62.5l97 -42q-30 -65 -89 -103t-142 -38
q-76 0 -136 35zM301 740h122l-80 -131h-89z" />
    <glyph glyph-name="Ccircumflex" unicode="&#x108;" horiz-adv-x="745" 
d="M228.5 33q-85.5 49 -134.5 135t-49 190t49 190t134.5 135t189.5 49q161 0 265 -117l-77 -75q-37 44 -82.5 66t-104.5 22q-73 0 -133 -33.5t-95 -95t-35 -141.5t35 -141.5t95 -95t133 -33.5q122 0 205 101l79 -76q-52 -61 -125 -95t-160 -34q-104 0 -189.5 49zM257 785
l107 121h95l108 -121v-6h-104l-47 61h-10l-46 -61h-103v6z" />
    <glyph glyph-name="ccircumflex" unicode="&#x109;" horiz-adv-x="559" 
d="M163 19q-60 35 -93.5 96.5t-33.5 139.5t33.5 139.5t93.5 96.5t136 35q84 0 142.5 -37.5t84.5 -103.5l-98 -40q-36 82 -131 82q-42 0 -77.5 -21.5t-56 -60.5t-20.5 -90t20.5 -90t56 -60.5t77.5 -21.5q48 0 82.5 21.5t53.5 62.5l97 -42q-30 -65 -89 -103t-142 -38
q-76 0 -136 35zM145 615l107 121h95l108 -121v-7h-104l-47 61h-10l-46 -61h-103v7z" />
    <glyph glyph-name="Cdotaccent" unicode="&#x10a;" horiz-adv-x="745" 
d="M228.5 33q-85.5 49 -134.5 135t-49 190t49 190t134.5 135t189.5 49q161 0 265 -117l-77 -75q-37 44 -82.5 66t-104.5 22q-73 0 -133 -33.5t-95 -95t-35 -141.5t35 -141.5t95 -95t133 -33.5q122 0 205 101l79 -76q-52 -61 -125 -95t-160 -34q-104 0 -189.5 49zM368.5 814
q-17.5 18 -17.5 42q0 25 17.5 42.5t41.5 17.5q25 0 42.5 -17.5t17.5 -42.5q0 -24 -17.5 -42t-42.5 -18q-24 0 -41.5 18z" />
    <glyph glyph-name="cdotaccent" unicode="&#x10b;" horiz-adv-x="559" 
d="M163 19q-60 35 -93.5 96.5t-33.5 139.5t33.5 139.5t93.5 96.5t136 35q84 0 142.5 -37.5t84.5 -103.5l-98 -40q-36 82 -131 82q-42 0 -77.5 -21.5t-56 -60.5t-20.5 -90t20.5 -90t56 -60.5t77.5 -21.5q48 0 82.5 21.5t53.5 62.5l97 -42q-30 -65 -89 -103t-142 -38
q-76 0 -136 35zM253 629.5q-19 19.5 -19 45.5q0 27 19 45.5t45 18.5q28 0 46 -18.5t18 -45.5t-18.5 -46t-45.5 -19q-26 0 -45 19.5z" />
    <glyph glyph-name="Ccaron" unicode="&#x10c;" horiz-adv-x="745" 
d="M228.5 33q-85.5 49 -134.5 135t-49 190t49 190t134.5 135t189.5 49q161 0 265 -117l-77 -75q-37 44 -82.5 66t-104.5 22q-73 0 -133 -33.5t-95 -95t-35 -141.5t35 -141.5t95 -95t133 -33.5q122 0 205 101l79 -76q-52 -61 -125 -95t-160 -34q-104 0 -189.5 49zM257 900v6
h103l46 -61h10l47 61h104v-6l-108 -121h-95z" />
    <glyph glyph-name="ccaron" unicode="&#x10d;" horiz-adv-x="559" 
d="M163 19q-60 35 -93.5 96.5t-33.5 139.5t33.5 139.5t93.5 96.5t136 35q84 0 142.5 -37.5t84.5 -103.5l-98 -40q-36 82 -131 82q-42 0 -77.5 -21.5t-56 -60.5t-20.5 -90t20.5 -90t56 -60.5t77.5 -21.5q48 0 82.5 21.5t53.5 62.5l97 -42q-30 -65 -89 -103t-142 -38
q-76 0 -136 35zM145 729v7h103l46 -62h10l47 62h104v-7l-108 -121h-95z" />
    <glyph glyph-name="Dcaron" unicode="&#x10e;" horiz-adv-x="720" 
d="M81 716h229q111 0 193.5 -45t127 -126.5t44.5 -186.5t-44.5 -186.5t-127 -126.5t-193.5 -45h-229v716zM307 104q122 0 189.5 67.5t67.5 186.5t-67.5 186.5t-189.5 67.5h-116v-508h116zM180 900v6h103l46 -61h10l47 61h104v-6l-108 -121h-95z" />
    <glyph glyph-name="dcaron" unicode="&#x10f;" horiz-adv-x="712" 
d="M156 18.5q-56 34.5 -88 96.5t-32 140t32 139.5t88 96.5t125 35q56 0 99 -24.5t65 -60.5h6l-6 71v204h107v-716h-101v68h-6q-22 -35 -65 -59.5t-99 -24.5q-69 0 -125 34.5zM372.5 104.5q35.5 21.5 57 60.5t21.5 90t-21.5 90t-57 60.5t-75.5 21.5t-75.5 -21.5t-57 -60.5
t-21.5 -90t21.5 -90t57 -60.5t75.5 -21.5t75.5 21.5zM614 716h114l-35 -195h-79v195z" />
    <glyph glyph-name="Dcroat" unicode="&#x110;" horiz-adv-x="717" 
d="M78 328h-77v88h77v300h228q111 0 194 -45t127.5 -126.5t44.5 -186.5t-44.5 -186.5t-127.5 -126.5t-194 -45h-228v328zM304 104q122 0 189.5 67.5t67.5 186.5t-67.5 186.5t-189.5 67.5h-117v-196h184v-88h-184v-224h117z" />
    <glyph glyph-name="dcroat" unicode="&#x111;" horiz-adv-x="614" 
d="M614 577h-62v-577h-101v68h-6q-22 -35 -65 -59.5t-99 -24.5q-69 0 -125 34.5t-88 96.5t-32 140t32 139.5t88 96.5t125 35q56 0 99 -24.5t65 -60.5h6l-6 68v68h-146v79h146v60h107v-60h62v-79zM372.5 104.5q35.5 21.5 57 60.5t21.5 90t-21.5 90t-57 60.5t-75.5 21.5
t-75.5 -21.5t-57 -60.5t-21.5 -90t21.5 -90t57 -60.5t75.5 -21.5t75.5 21.5z" />
    <glyph glyph-name="Emacron" unicode="&#x112;" horiz-adv-x="572" 
d="M81 716h434v-104h-324v-202h292v-104h-292v-202h324v-104h-434v716zM156 884h286v-82h-286v82z" />
    <glyph glyph-name="emacron" unicode="&#x113;" horiz-adv-x="575" 
d="M162.5 19q-59.5 35 -93 96.5t-33.5 138.5q0 73 32.5 135.5t90.5 99.5t131 37q77 0 133 -33.5t85.5 -92.5t29.5 -134q0 -20 -2 -34h-394q7 -73 52 -112.5t105 -39.5q49 0 84 22.5t56 59.5l89 -43q-35 -63 -93 -99t-139 -36q-74 0 -133.5 35zM431 313q-2 28 -18 56
t-46.5 46.5t-75.5 18.5q-54 0 -91.5 -33t-51.5 -88h283zM148 720h286v-83h-286v83z" />
    <glyph glyph-name="Ebreve" unicode="&#x114;" horiz-adv-x="572" 
d="M81 716h434v-104h-324v-202h292v-104h-292v-202h324v-104h-434v716zM234.5 785q-30.5 17 -49 46.5t-18.5 65.5h80q0 -22 14 -37.5t38 -15.5q22 0 36 15.5t14 37.5h80q0 -36 -18 -65.5t-48 -46.5t-64 -17t-64.5 17z" />
    <glyph glyph-name="ebreve" unicode="&#x115;" horiz-adv-x="575" 
d="M162.5 19q-59.5 35 -93 96.5t-33.5 138.5q0 73 32.5 135.5t90.5 99.5t131 37q77 0 133 -33.5t85.5 -92.5t29.5 -134q0 -20 -2 -34h-394q7 -73 52 -112.5t105 -39.5q49 0 84 22.5t56 59.5l89 -43q-35 -63 -93 -99t-139 -36q-74 0 -133.5 35zM431 313q-2 28 -18 56
t-46.5 46.5t-75.5 18.5q-54 0 -91.5 -33t-51.5 -88h283zM227.5 620q-30.5 17 -49 47t-18.5 66h80q0 -22 14 -37.5t38 -15.5q22 0 36 15.5t14 37.5h80q0 -36 -18 -66t-48 -47t-64 -17t-64.5 17z" />
    <glyph glyph-name="Edotaccent" unicode="&#x116;" horiz-adv-x="572" 
d="M81 716h434v-104h-324v-202h292v-104h-292v-202h324v-104h-434v716zM255.5 814q-17.5 18 -17.5 42q0 25 17.5 42.5t41.5 17.5q25 0 42.5 -17.5t17.5 -42.5q0 -24 -17.5 -42t-42.5 -18q-24 0 -41.5 18z" />
    <glyph glyph-name="edotaccent" unicode="&#x117;" horiz-adv-x="575" 
d="M162.5 19q-59.5 35 -93 96.5t-33.5 138.5q0 73 32.5 135.5t90.5 99.5t131 37q77 0 133 -33.5t85.5 -92.5t29.5 -134q0 -20 -2 -34h-394q7 -73 52 -112.5t105 -39.5q49 0 84 22.5t56 59.5l89 -43q-35 -63 -93 -99t-139 -36q-74 0 -133.5 35zM431 313q-2 28 -18 56
t-46.5 46.5t-75.5 18.5q-54 0 -91.5 -33t-51.5 -88h283zM245 629.5q-19 19.5 -19 45.5q0 27 19 45.5t45 18.5q28 0 46 -18.5t18 -45.5t-18.5 -46t-45.5 -19q-26 0 -45 19.5z" />
    <glyph glyph-name="Eogonek" unicode="&#x118;" horiz-adv-x="572" 
d="M384.5 -192q-33.5 32 -33.5 81q0 63 63 111h-333v716h434v-104h-324v-202h292v-104h-292v-202h324v-104q-35 -26 -53 -47t-18 -47q0 -21 12 -34.5t33 -13.5q19 0 40 11v-84q-19 -9 -54 -9q-57 0 -90.5 32z" />
    <glyph glyph-name="eogonek" unicode="&#x119;" horiz-adv-x="575" 
d="M281.5 -192q-33.5 32 -33.5 78q0 58 47 98h-3q-73 0 -131.5 35.5t-91.5 96.5t-33 138q0 73 32.5 135.5t90.5 99.5t131 37q77 0 133 -33.5t85.5 -92.5t29.5 -134q0 -20 -2 -34h-394q7 -73 52 -112.5t105 -39.5q49 0 84 22.5t56 59.5l89 -43q-29 -53 -95 -101
q-55 -39 -74 -61.5t-19 -51.5q0 -20 12.5 -33.5t33.5 -13.5q18 0 40 11v-84q-20 -9 -55 -9q-56 0 -89.5 32zM431 313q-2 28 -18 56t-46.5 46.5t-75.5 18.5q-54 0 -91.5 -33t-51.5 -88h283z" />
    <glyph glyph-name="Ecaron" unicode="&#x11a;" horiz-adv-x="572" 
d="M81 716h434v-104h-324v-202h292v-104h-292v-202h324v-104h-434v716zM144 900v6h103l46 -61h10l47 61h104v-6l-108 -121h-95z" />
    <glyph glyph-name="ecaron" unicode="&#x11b;" horiz-adv-x="575" 
d="M162.5 19q-59.5 35 -93 96.5t-33.5 138.5q0 73 32.5 135.5t90.5 99.5t131 37q77 0 133 -33.5t85.5 -92.5t29.5 -134q0 -20 -2 -34h-394q7 -73 52 -112.5t105 -39.5q49 0 84 22.5t56 59.5l89 -43q-35 -63 -93 -99t-139 -36q-74 0 -133.5 35zM431 313q-2 28 -18 56
t-46.5 46.5t-75.5 18.5q-54 0 -91.5 -33t-51.5 -88h283zM136 729v7h103l46 -62h10l47 62h104v-7l-108 -121h-95z" />
    <glyph glyph-name="Gcircumflex" unicode="&#x11c;" horiz-adv-x="819" 
d="M232 33q-86 49 -136.5 134.5t-50.5 190.5t50.5 190.5t136.5 134.5t188 49q82 0 151 -29t117 -81l-76 -76q-73 82 -192 82q-70 0 -131 -33.5t-97 -95.5t-36 -141q0 -80 36.5 -141.5t97 -95t131.5 -33.5q113 0 184 71q23 22 38.5 56t21.5 75h-246v97h348q6 -34 6 -58
q0 -68 -21.5 -129.5t-66.5 -108.5q-48 -52 -115 -79.5t-150 -27.5q-102 0 -188 49zM266 785l107 121h95l108 -121v-6h-104l-47 61h-10l-46 -61h-103v6z" />
    <glyph glyph-name="gcircumflex" unicode="&#x11d;" horiz-adv-x="610" 
d="M138.5 -189.5q-61.5 42.5 -82.5 102.5l100 42q16 -41 52.5 -66t84.5 -25q71 0 111 42t40 119v49h-6q-25 -37 -67 -58t-96 -21q-65 0 -119.5 33t-87 93.5t-32.5 138.5t32.5 138.5t87 94t119.5 33.5q53 0 95.5 -21.5t67.5 -58.5h6v64h103v-483q0 -82 -32 -140.5
t-89.5 -88.5t-132.5 -30q-93 0 -154.5 42.5zM369 113q34 20 54.5 57.5t20.5 89.5q0 53 -20.5 91t-54.5 57.5t-75 19.5t-75.5 -19.5t-55 -57.5t-20.5 -91q0 -52 20.5 -90t55 -57.5t75.5 -19.5t75 20zM146 615l107 121h95l108 -121v-7h-104l-47 61h-10l-46 -61h-103v7z" />
    <glyph glyph-name="Gbreve" unicode="&#x11e;" horiz-adv-x="819" 
d="M232 33q-86 49 -136.5 134.5t-50.5 190.5t50.5 190.5t136.5 134.5t188 49q82 0 151 -29t117 -81l-76 -76q-73 82 -192 82q-70 0 -131 -33.5t-97 -95.5t-36 -141q0 -80 36.5 -141.5t97 -95t131.5 -33.5q113 0 184 71q23 22 38.5 56t21.5 75h-246v97h348q6 -34 6 -58
q0 -68 -21.5 -129.5t-66.5 -108.5q-48 -52 -115 -79.5t-150 -27.5q-102 0 -188 49zM356.5 785q-30.5 17 -49 46.5t-18.5 65.5h80q0 -22 14 -37.5t38 -15.5q22 0 36 15.5t14 37.5h80q0 -36 -18 -65.5t-48 -46.5t-64 -17t-64.5 17z" />
    <glyph glyph-name="gbreve" unicode="&#x11f;" horiz-adv-x="610" 
d="M138.5 -189.5q-61.5 42.5 -82.5 102.5l100 42q16 -41 52.5 -66t84.5 -25q71 0 111 42t40 119v49h-6q-25 -37 -67 -58t-96 -21q-65 0 -119.5 33t-87 93.5t-32.5 138.5t32.5 138.5t87 94t119.5 33.5q53 0 95.5 -21.5t67.5 -58.5h6v64h103v-483q0 -82 -32 -140.5
t-89.5 -88.5t-132.5 -30q-93 0 -154.5 42.5zM369 113q34 20 54.5 57.5t20.5 89.5q0 53 -20.5 91t-54.5 57.5t-75 19.5t-75.5 -19.5t-55 -57.5t-20.5 -91q0 -52 20.5 -90t55 -57.5t75.5 -19.5t75 20zM237.5 620q-30.5 17 -49 47t-18.5 66h80q0 -22 14 -37.5t38 -15.5
q22 0 36 15.5t14 37.5h80q0 -36 -18 -66t-48 -47t-64 -17t-64.5 17z" />
    <glyph glyph-name="Gdotaccent" unicode="&#x120;" horiz-adv-x="819" 
d="M232 33q-86 49 -136.5 134.5t-50.5 190.5t50.5 190.5t136.5 134.5t188 49q82 0 151 -29t117 -81l-76 -76q-73 82 -192 82q-70 0 -131 -33.5t-97 -95.5t-36 -141q0 -80 36.5 -141.5t97 -95t131.5 -33.5q113 0 184 71q23 22 38.5 56t21.5 75h-246v97h348q6 -34 6 -58
q0 -68 -21.5 -129.5t-66.5 -108.5q-48 -52 -115 -79.5t-150 -27.5q-102 0 -188 49zM377.5 814q-17.5 18 -17.5 42q0 25 17.5 42.5t41.5 17.5q25 0 42.5 -17.5t17.5 -42.5q0 -24 -17.5 -42t-42.5 -18q-24 0 -41.5 18z" />
    <glyph glyph-name="gdotaccent" unicode="&#x121;" horiz-adv-x="610" 
d="M138.5 -189.5q-61.5 42.5 -82.5 102.5l100 42q16 -41 52.5 -66t84.5 -25q71 0 111 42t40 119v49h-6q-25 -37 -67 -58t-96 -21q-65 0 -119.5 33t-87 93.5t-32.5 138.5t32.5 138.5t87 94t119.5 33.5q53 0 95.5 -21.5t67.5 -58.5h6v64h103v-483q0 -82 -32 -140.5
t-89.5 -88.5t-132.5 -30q-93 0 -154.5 42.5zM369 113q34 20 54.5 57.5t20.5 89.5q0 53 -20.5 91t-54.5 57.5t-75 19.5t-75.5 -19.5t-55 -57.5t-20.5 -91q0 -52 20.5 -90t55 -57.5t75.5 -19.5t75 20zM255 629.5q-19 19.5 -19 45.5q0 27 19 45.5t45 18.5q28 0 46 -18.5
t18 -45.5t-18.5 -46t-45.5 -19q-26 0 -45 19.5z" />
    <glyph glyph-name="uni0122" unicode="&#x122;" horiz-adv-x="819" 
d="M232 33q-86 49 -136.5 134.5t-50.5 190.5t50.5 190.5t136.5 134.5t188 49q82 0 151 -29t117 -81l-76 -76q-73 82 -192 82q-70 0 -131 -33.5t-97 -95.5t-36 -141q0 -80 36.5 -141.5t97 -95t131.5 -33.5q113 0 184 71q23 22 38.5 56t21.5 75h-246v97h348q6 -34 6 -58
q0 -68 -21.5 -129.5t-66.5 -108.5q-48 -52 -115 -79.5t-150 -27.5q-102 0 -188 49zM351 -227l40 59q-19 5 -30 21t-11 36q0 24 18 42.5t44 18.5q27 0 44.5 -18t17.5 -45q0 -22 -13 -45l-67 -98z" />
    <glyph glyph-name="uni0123" unicode="&#x123;" horiz-adv-x="610" 
d="M138.5 -189.5q-61.5 42.5 -82.5 102.5l100 42q16 -41 52.5 -66t84.5 -25q71 0 111 42t40 119v49h-6q-25 -37 -67 -58t-96 -21q-65 0 -119.5 33t-87 93.5t-32.5 138.5t32.5 138.5t87 94t119.5 33.5q53 0 95.5 -21.5t67.5 -58.5h6v64h103v-483q0 -82 -32 -140.5
t-89.5 -88.5t-132.5 -30q-93 0 -154.5 42.5zM369 113q34 20 54.5 57.5t20.5 89.5q0 53 -20.5 91t-54.5 57.5t-75 19.5t-75.5 -19.5t-55 -57.5t-20.5 -91q0 -52 20.5 -90t55 -57.5t75.5 -19.5t75 20zM351 769l-40 -59q19 -5 30 -21t11 -36q0 -24 -18 -42.5t-44 -18.5
q-27 0 -44.5 18t-17.5 45q0 22 13 45l66 98z" />
    <glyph glyph-name="Hcircumflex" unicode="&#x124;" horiz-adv-x="716" 
d="M81 716h110v-298h335v298h109v-716h-109v314h-335v-314h-110v716zM204 785l107 121h95l108 -121v-6h-104l-47 61h-10l-46 -61h-103v6z" />
    <glyph glyph-name="hcircumflex" unicode="&#x125;" horiz-adv-x="583" 
d="M63 716h108v-196l-6 -80h6q22 38 65.5 62t95.5 24q93 0 142 -55.5t49 -148.5v-322h-107v308q0 59 -31.5 89t-80.5 30q-37 0 -67.5 -21.5t-48 -57.5t-17.5 -76v-272h-108v716zM-37 779l107 121h95l108 -121v-7h-104l-47 61h-10l-46 -61h-103v7z" />
    <glyph glyph-name="Hbar" unicode="&#x126;" horiz-adv-x="716" 
d="M699 501h-64v-501h-109v314h-335v-314h-110v501h-64v82h64v133h110v-133h335v133h109v-133h64v-82zM526 501h-335v-83h335v83z" />
    <glyph glyph-name="hbar" unicode="&#x127;" horiz-adv-x="583" 
d="M474 470.5q49 -55.5 49 -148.5v-322h-107v308q0 59 -31.5 89t-80.5 30q-37 0 -67.5 -21.5t-48 -57.5t-17.5 -76v-272h-108v577h-61v79h61v60h108v-60h147v-79h-147v-57l-6 -80h6q22 38 65.5 62t95.5 24q93 0 142 -55.5z" />
    <glyph glyph-name="Itilde" unicode="&#x128;" horiz-adv-x="271" 
d="M81 716h110v-716h-110v716zM157 783.5q-18 7.5 -43 21.5q-27 16 -38 16q-28 0 -31 -33h-80q0 58 33.5 89t77.5 31q21 0 39 -7.5t44 -22.5q2 -1 15 -8t21 -7q29 0 32 33h81q0 -58 -34 -89t-79 -31q-20 0 -38 7.5z" />
    <glyph glyph-name="itilde" unicode="&#x129;" horiz-adv-x="251" 
d="M71 510h108v-510h-108v510zM147 619.5q-18 7.5 -43 21.5q-27 16 -38 16q-28 0 -31 -33h-80q0 58 33.5 88.5t77.5 30.5q21 0 39 -7.5t44 -22.5q2 -1 15 -8t21 -7q29 0 32 33h81q0 -57 -34 -88t-79 -31q-20 0 -38 7.5z" />
    <glyph glyph-name="Imacron" unicode="&#x12a;" horiz-adv-x="271" 
d="M5 884h261v-82h-261v82zM81 716h110v-716h-110v716z" />
    <glyph glyph-name="imacron" unicode="&#x12b;" horiz-adv-x="251" 
d="M71 510h108v-510h-108v510zM-16 720h286v-83h-286v83z" />
    <glyph glyph-name="Ibreve" unicode="&#x12c;" horiz-adv-x="271" 
d="M81 716h110v-716h-110v716zM72.5 785q-30.5 17 -49 46.5t-18.5 65.5h80q0 -22 14 -37.5t38 -15.5q22 0 36 15.5t14 37.5h80q0 -36 -18 -65.5t-48 -46.5t-64 -17t-64.5 17z" />
    <glyph glyph-name="ibreve" unicode="&#x12d;" horiz-adv-x="251" 
d="M71 510h108v-510h-108v510zM62.5 620q-30.5 17 -49 47t-18.5 66h80q0 -22 14 -37.5t38 -15.5q22 0 36 15.5t14 37.5h80q0 -36 -18 -66t-48 -47t-64 -17t-64.5 17z" />
    <glyph glyph-name="Iogonek" unicode="&#x12e;" horiz-adv-x="270" 
d="M59.5 -192q-33.5 32 -33.5 81q0 63 60 109l-1 2h-5v716h110v-716q-35 -26 -53 -47t-18 -47q0 -21 12 -34.5t33 -13.5q19 0 40 11v-84q-20 -9 -54 -9q-57 0 -90.5 32z" />
    <glyph glyph-name="iogonek" unicode="&#x12f;" horiz-adv-x="251" 
d="M73.5 606.5q-21.5 21.5 -21.5 51.5t21.5 51t51.5 21t51.5 -21t21.5 -51t-21.5 -51.5t-51.5 -21.5t-51.5 21.5zM48.5 -192q-33.5 32 -33.5 81q0 61 59 108l-3 3v510h108v-510q-35 -26 -53 -47t-18 -47q0 -21 12.5 -34.5t32.5 -13.5q19 0 40 11v-84q-19 -9 -54 -9
q-57 0 -90.5 32z" />
    <glyph glyph-name="Idotaccent" unicode="&#x130;" horiz-adv-x="271" 
d="M81 716h110v-716h-110v716zM93.5 814q-17.5 18 -17.5 42q0 25 17.5 42.5t41.5 17.5q25 0 42.5 -17.5t17.5 -42.5q0 -24 -17.5 -42t-42.5 -18q-24 0 -41.5 18z" />
    <glyph glyph-name="dotlessi" unicode="&#x131;" horiz-adv-x="251" 
d="M71 510h108v-510h-108v510z" />
    <glyph glyph-name="Jcircumflex" unicode="&#x134;" horiz-adv-x="549" 
d="M112 28.5q-61 44.5 -86 124.5l102 42q16 -55 49 -81t78 -26q53 0 84 36t31 96v496h110v-492q0 -76 -29 -130t-80 -82t-116 -28q-82 0 -143 44.5zM271 785l107 121h95l108 -121v-6h-104l-47 61h-10l-46 -61h-103v6z" />
    <glyph glyph-name="jcircumflex" unicode="&#x135;" horiz-adv-x="251" 
d="M-28 -219v104q24 -13 47 -13q28 0 40 17t12 51v570h108v-571q0 -84 -41 -124.5t-110 -40.5q-31 0 -56 7zM-29 615l107 121h95l108 -121v-7h-104l-47 61h-10l-46 -61h-103v7z" />
    <glyph glyph-name="uni0136" unicode="&#x136;" horiz-adv-x="654" 
d="M81 716h110v-342h6l292 342h136v-6l-262 -301l285 -403v-6h-134l-226 323l-97 -113v-210h-110v716zM271 -225l40 59q-19 5 -30 21t-11 36q0 24 18 42.5t44 18.5q27 0 44.5 -18t17.5 -45q0 -22 -13 -45l-67 -98z" />
    <glyph glyph-name="uni0137" unicode="&#x137;" horiz-adv-x="532" 
d="M63 716h108v-420h4l212 214h134v-6l-197 -196l204 -302v-6h-128l-152 234l-77 -77v-157h-108v716zM216 -225l40 59q-19 5 -30 21t-11 36q0 24 18 42.5t44 18.5q27 0 44.5 -18t17.5 -45q0 -22 -13 -45l-67 -98z" />
    <glyph glyph-name="kgreenlandic" unicode="&#x138;" horiz-adv-x="514" 
d="M63 510h108v-226h6l191 226h132v-6l-208 -236l218 -262v-6h-130l-203 251h-6v-251h-108v510z" />
    <glyph glyph-name="Lacute" unicode="&#x139;" horiz-adv-x="530" 
d="M81 716h110v-612h308v-104h-418v716zM138 904h122l-80 -131h-89z" />
    <glyph glyph-name="lacute" unicode="&#x13a;" horiz-adv-x="235" 
d="M63 716h108v-716h-108v716zM120 904h122l-80 -131h-89z" />
    <glyph glyph-name="uni013B" unicode="&#x13b;" horiz-adv-x="530" 
d="M81 716h110v-612h308v-104h-418v716zM231 -225l40 59q-19 5 -30 21t-11 36q0 24 18 42.5t44 18.5q27 0 44.5 -18t17.5 -45q0 -22 -13 -45l-67 -98z" />
    <glyph glyph-name="uni013C" unicode="&#x13c;" horiz-adv-x="235" 
d="M63 716h108v-716h-108v716zM58 -225l40 59q-19 5 -30 21t-11 36q0 24 18 42.5t44 18.5q27 0 44.5 -18t17.5 -45q0 -22 -13 -45l-67 -98z" />
    <glyph glyph-name="Lcaron" unicode="&#x13d;" horiz-adv-x="530" 
d="M81 716h110v-612h308v-104h-418v716zM338 716h114l-35 -195h-79v195z" />
    <glyph glyph-name="lcaron" unicode="&#x13e;" horiz-adv-x="347" 
d="M63 716h108v-716h-108v716zM233 716h114l-35 -195h-79v195z" />
    <glyph glyph-name="Ldot" unicode="&#x13f;" horiz-adv-x="530" 
d="M81 716h110v-612h308v-104h-418v716zM309 291q-22 22 -22 53q0 32 22 53.5t53 21.5q32 0 53.5 -21.5t21.5 -53.5q0 -31 -21.5 -53t-53.5 -22q-31 0 -53 22z" />
    <glyph glyph-name="Lslash" unicode="&#x141;" horiz-adv-x="607" 
d="M158 264l-60 -36l-48 77l108 68v343h110v-270l121 75l47 -77l-168 -105v-235h308v-104h-418v264z" />
    <glyph glyph-name="lslash" unicode="&#x142;" horiz-adv-x="401" 
d="M143 295l-52 -38l-55 72l107 78v309h108v-235l67 50l55 -73l-122 -89v-369h-108v295z" />
    <glyph glyph-name="Nacute" unicode="&#x143;" horiz-adv-x="725" 
d="M81 716h130l324 -526h6l-6 138v388h109v-716h-114l-340 553h-6l6 -138v-415h-109v716zM365 904h122l-80 -131h-89z" />
    <glyph glyph-name="nacute" unicode="&#x144;" horiz-adv-x="580" 
d="M63 510h102v-70h6q22 38 66 62t95 24q92 0 140 -54.5t48 -149.5v-322h-107v308q0 60 -30 89.5t-82 29.5q-38 0 -67.5 -21t-46 -56t-16.5 -76v-274h-108v510zM305 740h122l-80 -131h-89z" />
    <glyph glyph-name="uni0145" unicode="&#x145;" horiz-adv-x="725" 
d="M81 716h130l324 -526h6l-6 138v388h109v-716h-114l-340 553h-6l6 -138v-415h-109v716zM303 -225l40 59q-19 5 -30 21t-11 36q0 24 18 42.5t44 18.5q27 0 44.5 -18t17.5 -45q0 -22 -13 -45l-67 -98z" />
    <glyph glyph-name="uni0146" unicode="&#x146;" horiz-adv-x="580" 
d="M63 510h102v-70h6q22 38 66 62t95 24q92 0 140 -54.5t48 -149.5v-322h-107v308q0 60 -30 89.5t-82 29.5q-38 0 -67.5 -21t-46 -56t-16.5 -76v-274h-108v510zM234 -225l40 59q-19 5 -30 21t-11 36q0 24 18 42.5t44 18.5q27 0 44.5 -18t17.5 -45q0 -22 -13 -45l-67 -98z
" />
    <glyph glyph-name="Ncaron" unicode="&#x147;" horiz-adv-x="725" 
d="M81 716h130l324 -526h6l-6 138v388h109v-716h-114l-340 553h-6l6 -138v-415h-109v716zM209 900v6h103l46 -61h10l47 61h104v-6l-108 -121h-95z" />
    <glyph glyph-name="ncaron" unicode="&#x148;" horiz-adv-x="580" 
d="M63 510h102v-70h6q22 38 66 62t95 24q92 0 140 -54.5t48 -149.5v-322h-107v308q0 60 -30 89.5t-82 29.5q-38 0 -67.5 -21t-46 -56t-16.5 -76v-274h-108v510zM149 729v7h103l46 -62h10l47 62h104v-7l-108 -121h-95z" />
    <glyph glyph-name="Eng" unicode="&#x14a;" horiz-adv-x="725" 
d="M437 -220v104q24 -12 47 -12q51 0 51 68v62l-345 551h-6l6 -138v-415h-109v716h130l324 -521h6l-6 138v383h109v-777q0 -84 -41.5 -124.5t-110.5 -40.5q-26 0 -55 6z" />
    <glyph glyph-name="eng" unicode="&#x14b;" horiz-adv-x="580" 
d="M313 -219v104q24 -13 48 -13q27 0 39.5 17t12.5 51v368q0 60 -30 89.5t-82 29.5q-38 0 -67.5 -21t-46 -56t-16.5 -76v-274h-108v510h102v-70h6q22 38 66 62t95 24q92 0 140 -54.5t48 -149.5v-383q0 -84 -41 -124.5t-110 -40.5q-31 0 -56 7z" />
    <glyph glyph-name="Omacron" unicode="&#x14c;" horiz-adv-x="832" 
d="M227 34q-85 50 -133.5 135.5t-48.5 188.5t48.5 188.5t133.5 135.5t189 50t188.5 -50t133 -135.5t48.5 -188.5t-48.5 -188.5t-133 -135.5t-188.5 -50t-189 50zM547.5 122.5q59.5 34.5 94 96t34.5 139.5t-34.5 139.5t-94 96t-131.5 34.5t-131.5 -34.5t-94 -96t-34.5 -139.5
t34.5 -139.5t94 -96t131.5 -34.5t131.5 34.5zM274 884h286v-82h-286v82z" />
    <glyph glyph-name="omacron" unicode="&#x14d;" horiz-adv-x="605" 
d="M165 19.5q-61 35.5 -95 97.5t-34 138t34 138t95 97.5t138 35.5q76 0 137 -36t95 -98t34 -137q0 -76 -34 -138t-94.5 -97.5t-137.5 -35.5t-138 35.5zM382 104q36 21 58 60t22 91t-22 91t-58 60t-79 21t-79.5 -21t-58.5 -60t-22 -91t22 -91t58.5 -60t79.5 -21t79 21z
M161 720h286v-83h-286v83z" />
    <glyph glyph-name="Obreve" unicode="&#x14e;" horiz-adv-x="832" 
d="M227 34q-85 50 -133.5 135.5t-48.5 188.5t48.5 188.5t133.5 135.5t189 50t188.5 -50t133 -135.5t48.5 -188.5t-48.5 -188.5t-133 -135.5t-188.5 -50t-189 50zM547.5 122.5q59.5 34.5 94 96t34.5 139.5t-34.5 139.5t-94 96t-131.5 34.5t-131.5 -34.5t-94 -96t-34.5 -139.5
t34.5 -139.5t94 -96t131.5 -34.5t131.5 34.5zM352.5 785q-30.5 17 -49 46.5t-18.5 65.5h80q0 -22 14 -37.5t38 -15.5q22 0 36 15.5t14 37.5h80q0 -36 -18 -65.5t-48 -46.5t-64 -17t-64.5 17z" />
    <glyph glyph-name="obreve" unicode="&#x14f;" horiz-adv-x="605" 
d="M165 19.5q-61 35.5 -95 97.5t-34 138t34 138t95 97.5t138 35.5q76 0 137 -36t95 -98t34 -137q0 -76 -34 -138t-94.5 -97.5t-137.5 -35.5t-138 35.5zM382 104q36 21 58 60t22 91t-22 91t-58 60t-79 21t-79.5 -21t-58.5 -60t-22 -91t22 -91t58.5 -60t79.5 -21t79 21z
M239.5 620q-30.5 17 -49 47t-18.5 66h80q0 -22 14 -37.5t38 -15.5q22 0 36 15.5t14 37.5h80q0 -36 -18 -66t-48 -47t-64 -17t-64.5 17z" />
    <glyph glyph-name="Ohungarumlaut" unicode="&#x150;" horiz-adv-x="832" 
d="M227 34q-85 50 -133.5 135.5t-48.5 188.5t48.5 188.5t133.5 135.5t189 50t188.5 -50t133 -135.5t48.5 -188.5t-48.5 -188.5t-133 -135.5t-188.5 -50t-189 50zM547.5 122.5q59.5 34.5 94 96t34.5 139.5t-34.5 139.5t-94 96t-131.5 34.5t-131.5 -34.5t-94 -96t-34.5 -139.5
t34.5 -139.5t94 -96t131.5 -34.5t131.5 34.5zM339 904h122l-80 -131h-89zM501 904h122l-80 -131h-89z" />
    <glyph glyph-name="ohungarumlaut" unicode="&#x151;" horiz-adv-x="605" 
d="M165 19.5q-61 35.5 -95 97.5t-34 138t34 138t95 97.5t138 35.5q76 0 137 -36t95 -98t34 -137q0 -76 -34 -138t-94.5 -97.5t-137.5 -35.5t-138 35.5zM382 104q36 21 58 60t22 91t-22 91t-58 60t-79 21t-79.5 -21t-58.5 -60t-22 -91t22 -91t58.5 -60t79.5 -21t79 21z
M217 740h122l-80 -131h-89zM396 740h122l-80 -131h-89z" />
    <glyph glyph-name="OE" unicode="&#x152;" horiz-adv-x="1163" 
d="M225.5 34q-83.5 50 -132 135.5t-48.5 188.5t48.5 188.5t132 135.5t184.5 50q84 0 150 -30.5t108 -84.5h3v99h435v-104h-326v-202h294v-104h-294v-202h326v-104h-435v98h-3q-42 -53 -108 -83.5t-150 -30.5q-101 0 -184.5 50zM547.5 122.5q59.5 34.5 94 96t34.5 139.5
t-34.5 139.5t-94 96t-131.5 34.5t-131.5 -34.5t-94 -96t-34.5 -139.5t34.5 -139.5t94 -96t131.5 -34.5t131.5 34.5z" />
    <glyph glyph-name="oe" unicode="&#x153;" horiz-adv-x="1001" 
d="M165 19.5q-61 35.5 -95 97.5t-34 138t34 138t95 97.5t138 35.5q67 0 121 -29.5t91 -84.5q33 53 85.5 83.5t116.5 30.5q77 0 133 -33.5t85.5 -92.5t29.5 -134q0 -13 -3 -34h-393q6 -73 51.5 -112.5t105.5 -39.5q48 0 83 22.5t56 59.5l90 -43q-36 -63 -93.5 -99t-138.5 -36
q-67 0 -121 30.5t-87 84.5q-36 -55 -90 -85t-122 -30q-77 0 -138 35.5zM856 313q-2 28 -17.5 56t-46 46.5t-75.5 18.5q-54 0 -91.5 -33t-51.5 -88h282zM382 104q36 21 58 60t22 91t-22 91t-58 60t-79 21t-79.5 -21t-58.5 -60t-22 -91t22 -91t58.5 -60t79.5 -21t79 21z" />
    <glyph glyph-name="Racute" unicode="&#x154;" horiz-adv-x="610" 
d="M81 716h251q65 0 117.5 -28t83 -78t30.5 -113q0 -72 -46.5 -127.5t-116.5 -74.5l-1 -5l197 -284v-6h-127l-191 281h-87v-281h-110v716zM329 382q52 0 87.5 33t35.5 83q0 46 -32.5 80.5t-86.5 34.5h-142v-231h138zM296 904h122l-80 -131h-89z" />
    <glyph glyph-name="racute" unicode="&#x155;" horiz-adv-x="401" 
d="M63 510h102v-75h6q17 39 58.5 64.5t89.5 25.5q35 0 62 -10v-112q-41 18 -79 18q-57 0 -94 -44t-37 -107v-270h-108v510zM220 740h122l-80 -131h-89z" />
    <glyph glyph-name="uni0156" unicode="&#x156;" horiz-adv-x="610" 
d="M81 716h251q65 0 117.5 -28t83 -78t30.5 -113q0 -72 -46.5 -127.5t-116.5 -74.5l-1 -5l197 -284v-6h-127l-191 281h-87v-281h-110v716zM329 382q52 0 87.5 33t35.5 83q0 46 -32.5 80.5t-86.5 34.5h-142v-231h138zM246 -225l40 59q-19 5 -30 21t-11 36q0 24 18 42.5
t44 18.5q27 0 44.5 -18t17.5 -45q0 -22 -13 -45l-67 -98z" />
    <glyph glyph-name="uni0157" unicode="&#x157;" horiz-adv-x="401" 
d="M63 510h102v-75h6q17 39 58.5 64.5t89.5 25.5q35 0 62 -10v-112q-41 18 -79 18q-57 0 -94 -44t-37 -107v-270h-108v510zM58 -225l40 59q-19 5 -30 21t-11 36q0 24 18 42.5t44 18.5q27 0 44.5 -18t17.5 -45q0 -22 -13 -45l-67 -98z" />
    <glyph glyph-name="Rcaron" unicode="&#x158;" horiz-adv-x="610" 
d="M81 716h251q65 0 117.5 -28t83 -78t30.5 -113q0 -72 -46.5 -127.5t-116.5 -74.5l-1 -5l197 -284v-6h-127l-191 281h-87v-281h-110v716zM329 382q52 0 87.5 33t35.5 83q0 46 -32.5 80.5t-86.5 34.5h-142v-231h138zM139 900v6h103l46 -61h10l47 61h104v-6l-108 -121h-95z
" />
    <glyph glyph-name="rcaron" unicode="&#x159;" horiz-adv-x="401" 
d="M63 510h102v-75h6q17 39 58.5 64.5t89.5 25.5q35 0 62 -10v-112q-41 18 -79 18q-57 0 -94 -44t-37 -107v-270h-108v510zM64 729v7h103l46 -62h10l47 62h104v-7l-108 -121h-95z" />
    <glyph glyph-name="Sacute" unicode="&#x15a;" horiz-adv-x="575" 
d="M129 36q-71 52 -99 146l104 42q16 -60 57 -98t99 -38q54 0 91.5 28t37.5 77q0 45 -33 74.5t-114 57.5l-45 16q-73 26 -121.5 72.5t-48.5 123.5q0 53 28.5 98t80 71t116.5 26q93 0 149 -45.5t76 -102.5l-99 -42q-10 36 -42 62t-83 26q-49 0 -83 -26t-34 -66
q0 -37 30.5 -61.5t94.5 -46.5l46 -16q92 -32 142 -83t50 -136q0 -70 -35.5 -117.5t-91 -70.5t-113.5 -23q-89 0 -160 52zM285 904h122l-80 -131h-89z" />
    <glyph glyph-name="sacute" unicode="&#x15b;" horiz-adv-x="489" 
d="M105.5 22q-56.5 38 -79.5 99l97 42q18 -41 51 -62.5t75 -21.5q43 0 72 15.5t29 46.5q0 28 -24.5 44.5t-76.5 28.5l-61 14q-61 15 -101 53t-40 96q0 44 26.5 78t71 52.5t97.5 18.5q72 0 125.5 -28t77.5 -82l-93 -42q-31 61 -109 61q-38 0 -63.5 -16t-25.5 -40
q0 -45 78 -65l74 -18q75 -19 113.5 -57t38.5 -94q0 -48 -27.5 -84.5t-75.5 -56.5t-106 -20q-87 0 -143.5 38zM245 740h122l-80 -131h-89z" />
    <glyph glyph-name="Scircumflex" unicode="&#x15c;" horiz-adv-x="575" 
d="M129 36q-71 52 -99 146l104 42q16 -60 57 -98t99 -38q54 0 91.5 28t37.5 77q0 45 -33 74.5t-114 57.5l-45 16q-73 26 -121.5 72.5t-48.5 123.5q0 53 28.5 98t80 71t116.5 26q93 0 149 -45.5t76 -102.5l-99 -42q-10 36 -42 62t-83 26q-49 0 -83 -26t-34 -66
q0 -37 30.5 -61.5t94.5 -46.5l46 -16q92 -32 142 -83t50 -136q0 -70 -35.5 -117.5t-91 -70.5t-113.5 -23q-89 0 -160 52zM129 785l107 121h95l108 -121v-6h-104l-47 61h-10l-46 -61h-103v6z" />
    <glyph glyph-name="scircumflex" unicode="&#x15d;" horiz-adv-x="489" 
d="M105.5 22q-56.5 38 -79.5 99l97 42q18 -41 51 -62.5t75 -21.5q43 0 72 15.5t29 46.5q0 28 -24.5 44.5t-76.5 28.5l-61 14q-61 15 -101 53t-40 96q0 44 26.5 78t71 52.5t97.5 18.5q72 0 125.5 -28t77.5 -82l-93 -42q-31 61 -109 61q-38 0 -63.5 -16t-25.5 -40
q0 -45 78 -65l74 -18q75 -19 113.5 -57t38.5 -94q0 -48 -27.5 -84.5t-75.5 -56.5t-106 -20q-87 0 -143.5 38zM89 615l107 121h95l108 -121v-7h-104l-47 61h-10l-46 -61h-103v7z" />
    <glyph glyph-name="Scedilla" unicode="&#x15e;" horiz-adv-x="575" 
d="M497.5 84q-31.5 -46 -81 -70.5t-104.5 -28.5l-15 -33q14 2 21 2q38 0 65 -26.5t27 -68.5q0 -40 -29.5 -68t-74.5 -28q-33 0 -59 19t-37 48l57 24q4 -14 14.5 -23t24.5 -9q18 0 28.5 10.5t10.5 26.5t-11 28t-28 12q-18 0 -31 -15l-52 23l30 79q-78 10 -138 61t-85 135
l104 42q16 -60 57 -98t99 -38q54 0 91.5 28t37.5 77q0 45 -33 74.5t-114 57.5l-45 16q-73 26 -121.5 72.5t-48.5 123.5q0 53 28.5 98t80 71t116.5 26q93 0 149 -45.5t76 -102.5l-99 -42q-10 36 -42 62t-83 26q-49 0 -83 -26t-34 -66q0 -37 30.5 -61.5t94.5 -46.5l46 -16
q92 -32 142 -83t50 -136q0 -65 -31.5 -111z" />
    <glyph glyph-name="scedilla" unicode="&#x15f;" horiz-adv-x="489" 
d="M406 34.5q-52 -43.5 -133 -49.5l-15 -33q14 2 21 2q38 0 65 -26.5t27 -68.5q0 -40 -29.5 -68t-74.5 -28q-33 0 -59 19t-37 48l57 24q4 -14 14.5 -23t24.5 -9q18 0 28.5 10.5t10.5 26.5t-11 28t-28 12q-18 0 -31 -15l-52 23l30 79q-73 8 -120.5 44.5t-67.5 90.5l97 42
q18 -41 51 -62.5t75 -21.5q43 0 72 15.5t29 46.5q0 28 -24.5 44.5t-76.5 28.5l-61 14q-61 15 -101 53t-40 96q0 44 26.5 78t71 52.5t97.5 18.5q72 0 125.5 -28t77.5 -82l-93 -42q-31 61 -109 61q-38 0 -63.5 -16t-25.5 -40q0 -45 78 -65l74 -18q75 -19 113.5 -57t38.5 -94
q0 -67 -52 -110.5z" />
    <glyph glyph-name="Scaron" unicode="&#x160;" horiz-adv-x="575" 
d="M129 36q-71 52 -99 146l104 42q16 -60 57 -98t99 -38q54 0 91.5 28t37.5 77q0 45 -33 74.5t-114 57.5l-45 16q-73 26 -121.5 72.5t-48.5 123.5q0 53 28.5 98t80 71t116.5 26q93 0 149 -45.5t76 -102.5l-99 -42q-10 36 -42 62t-83 26q-49 0 -83 -26t-34 -66
q0 -37 30.5 -61.5t94.5 -46.5l46 -16q92 -32 142 -83t50 -136q0 -70 -35.5 -117.5t-91 -70.5t-113.5 -23q-89 0 -160 52zM129 900v6h103l46 -61h10l47 61h104v-6l-108 -121h-95z" />
    <glyph glyph-name="scaron" unicode="&#x161;" horiz-adv-x="489" 
d="M105.5 22q-56.5 38 -79.5 99l97 42q18 -41 51 -62.5t75 -21.5q43 0 72 15.5t29 46.5q0 28 -24.5 44.5t-76.5 28.5l-61 14q-61 15 -101 53t-40 96q0 44 26.5 78t71 52.5t97.5 18.5q72 0 125.5 -28t77.5 -82l-93 -42q-31 61 -109 61q-38 0 -63.5 -16t-25.5 -40
q0 -45 78 -65l74 -18q75 -19 113.5 -57t38.5 -94q0 -48 -27.5 -84.5t-75.5 -56.5t-106 -20q-87 0 -143.5 38zM89 729v7h103l46 -62h10l47 62h104v-7l-108 -121h-95z" />
    <glyph glyph-name="uni0162" unicode="&#x162;" horiz-adv-x="563" 
d="M236 -218q-26 19 -37 48l56 24q6 -14 16.5 -23t24.5 -9q17 0 27.5 11t10.5 26q0 16 -10.5 28t-27.5 12q-19 0 -32 -15l-52 23l35 93h-20v612h-201v104h511v-104h-200v-612h-29l-22 -48q12 2 21 2q38 0 65 -26.5t27 -68.5q0 -40 -29 -68t-74 -28q-34 0 -60 19z" />
    <glyph glyph-name="uni0163" unicode="&#x163;" horiz-adv-x="392" 
d="M250 -7l-20 -41q12 2 20 2q39 0 65.5 -26.5t26.5 -68.5q0 -40 -29 -68t-74 -28q-33 0 -59.5 19t-37.5 48l57 24q5 -14 15.5 -23.5t24.5 -9.5q17 0 27.5 11t10.5 27q0 17 -10.5 28.5t-27.5 11.5q-19 0 -31 -15l-53 23l42 100q-22 11 -37 25q-43 41 -43 116v268h-89v94h89
v144h108v-144h125v-94h-125v-245q0 -42 16 -59q17 -19 52 -19q18 0 31 4.5t29 14.5v-105q-34 -15 -81 -15q-15 0 -22 1z" />
    <glyph glyph-name="Tcaron" unicode="&#x164;" horiz-adv-x="563" 
d="M227 612h-201v104h511v-104h-200v-612h-110v612zM127 900v6h103l46 -61h10l47 61h104v-6l-108 -121h-95z" />
    <glyph glyph-name="tcaron" unicode="&#x165;" horiz-adv-x="384" 
d="M281 716h101l-25 -147h-76v147zM208.5 2.5q-29.5 10.5 -48.5 29.5q-43 41 -43 116v268h-89v94h89v144h108v-144h125v-94h-125v-245q0 -42 16 -59q17 -19 52 -19q18 0 31 4.5t29 14.5v-105q-34 -15 -81 -15q-34 0 -63.5 10.5z" />
    <glyph glyph-name="Tbar" unicode="&#x166;" horiz-adv-x="563" 
d="M337 612v-195h128v-86h-128v-331h-110v331h-129v86h129v195h-201v104h511v-104h-200z" />
    <glyph glyph-name="tbar" unicode="&#x167;" horiz-adv-x="392" 
d="M324 97.5q13 4.5 29 14.5v-105q-34 -15 -81 -15q-34 0 -63.5 10.5t-48.5 29.5q-43 41 -43 116v80h-89v88h89v100h-89v94h89v144h108v-144h125v-94h-125v-100h118v-88h-118v-57q0 -42 16 -59q17 -19 52 -19q18 0 31 4.5z" />
    <glyph glyph-name="Utilde" unicode="&#x168;" horiz-adv-x="673" 
d="M194.5 20q-61.5 36 -95 102t-33.5 153v441h109v-447q0 -81 42 -131t119 -50q78 0 120 50t42 131v447h109v-441q0 -86 -33 -152t-94 -102.5t-144 -36.5q-80 0 -141.5 36zM358 783.5q-18 7.5 -43 21.5q-27 16 -38 16q-28 0 -31 -33h-80q0 58 33.5 89t77.5 31q21 0 39 -7.5
t44 -22.5q2 -1 15 -8t21 -7q29 0 32 33h81q0 -58 -34 -89t-79 -31q-20 0 -38 7.5z" />
    <glyph glyph-name="utilde" unicode="&#x169;" horiz-adv-x="580" 
d="M107.5 39.5q-48.5 55.5 -48.5 154.5v316h108v-301q0 -62 29 -94t78 -32q40 0 71 21t47.5 56t16.5 76v274h107v-510h-101v69h-6q-22 -37 -66 -61t-95 -24q-92 0 -140.5 55.5zM309 619.5q-18 7.5 -43 21.5q-27 16 -38 16q-28 0 -31 -33h-80q0 58 33.5 88.5t77.5 30.5
q21 0 39 -7.5t44 -22.5q2 -1 15 -8t21 -7q29 0 32 33h81q0 -57 -34 -88t-79 -31q-20 0 -38 7.5z" />
    <glyph glyph-name="Umacron" unicode="&#x16a;" horiz-adv-x="673" 
d="M194.5 20q-61.5 36 -95 102t-33.5 153v441h109v-447q0 -81 42 -131t119 -50q78 0 120 50t42 131v447h109v-441q0 -86 -33 -152t-94 -102.5t-144 -36.5q-80 0 -141.5 36zM194 884h286v-82h-286v82z" />
    <glyph glyph-name="umacron" unicode="&#x16b;" horiz-adv-x="580" 
d="M107.5 39.5q-48.5 55.5 -48.5 154.5v316h108v-301q0 -62 29 -94t78 -32q40 0 71 21t47.5 56t16.5 76v274h107v-510h-101v69h-6q-22 -37 -66 -61t-95 -24q-92 0 -140.5 55.5zM146 720h286v-83h-286v83z" />
    <glyph glyph-name="Ubreve" unicode="&#x16c;" horiz-adv-x="673" 
d="M194.5 20q-61.5 36 -95 102t-33.5 153v441h109v-447q0 -81 42 -131t119 -50q78 0 120 50t42 131v447h109v-441q0 -86 -33 -152t-94 -102.5t-144 -36.5q-80 0 -141.5 36zM273.5 785q-30.5 17 -49 46.5t-18.5 65.5h80q0 -22 14 -37.5t38 -15.5q22 0 36 15.5t14 37.5h80
q0 -36 -18 -65.5t-48 -46.5t-64 -17t-64.5 17z" />
    <glyph glyph-name="ubreve" unicode="&#x16d;" horiz-adv-x="580" 
d="M107.5 39.5q-48.5 55.5 -48.5 154.5v316h108v-301q0 -62 29 -94t78 -32q40 0 71 21t47.5 56t16.5 76v274h107v-510h-101v69h-6q-22 -37 -66 -61t-95 -24q-92 0 -140.5 55.5zM224.5 620q-30.5 17 -49 47t-18.5 66h80q0 -22 14 -37.5t38 -15.5q22 0 36 15.5t14 37.5h80
q0 -36 -18 -66t-48 -47t-64 -17t-64.5 17z" />
    <glyph glyph-name="Uring" unicode="&#x16e;" horiz-adv-x="673" 
d="M194.5 20q-61.5 36 -95 102t-33.5 153v441h109v-447q0 -81 42 -131t119 -50q78 0 120 50t42 131v447h109v-441q0 -86 -33 -152t-94 -102.5t-144 -36.5q-80 0 -141.5 36zM261.5 781.5q-30.5 30.5 -30.5 74.5t30.5 74.5t74.5 30.5t75 -30.5t31 -74.5t-31 -74.5t-75 -30.5
t-74.5 30.5zM365.5 826.5q12.5 12.5 12.5 29.5t-12.5 29t-29.5 12t-29 -12t-12 -29t12 -29.5t29 -12.5t29.5 12.5z" />
    <glyph glyph-name="uring" unicode="&#x16f;" horiz-adv-x="580" 
d="M107.5 39.5q-48.5 55.5 -48.5 154.5v316h108v-301q0 -62 29 -94t78 -32q40 0 71 21t47.5 56t16.5 76v274h107v-510h-101v69h-6q-22 -37 -66 -61t-95 -24q-92 0 -140.5 55.5zM212.5 617q-30.5 31 -30.5 75t30.5 74.5t74.5 30.5t75 -30.5t31 -74.5t-31 -75t-75 -31
t-74.5 31zM316.5 662.5q12.5 12.5 12.5 29.5t-12.5 29t-29.5 12t-29 -12t-12 -29t12 -29.5t29 -12.5t29.5 12.5z" />
    <glyph glyph-name="Uhungarumlaut" unicode="&#x170;" horiz-adv-x="673" 
d="M194.5 20q-61.5 36 -95 102t-33.5 153v441h109v-447q0 -81 42 -131t119 -50q78 0 120 50t42 131v447h109v-441q0 -86 -33 -152t-94 -102.5t-144 -36.5q-80 0 -141.5 36zM259 904h122l-80 -131h-89zM421 904h122l-80 -131h-89z" />
    <glyph glyph-name="uhungarumlaut" unicode="&#x171;" horiz-adv-x="580" 
d="M107.5 39.5q-48.5 55.5 -48.5 154.5v316h108v-301q0 -62 29 -94t78 -32q40 0 71 21t47.5 56t16.5 76v274h107v-510h-101v69h-6q-22 -37 -66 -61t-95 -24q-92 0 -140.5 55.5zM202 740h122l-80 -131h-89zM381 740h122l-80 -131h-89z" />
    <glyph glyph-name="Uogonek" unicode="&#x172;" horiz-adv-x="677" 
d="M326 -192q-34 32 -34 81q0 29 14.5 53.5t35.5 42.5q-4 -1 -15 -1q-77 2 -136 38.5t-91 101.5t-32 151v441h109v-447q0 -81 42 -131t119 -50q78 0 120 50t42 131v447h109v-441q0 -82 -30 -146t-85 -100q-48 -33 -78.5 -62.5t-30.5 -60.5q0 -21 12.5 -34.5t32.5 -13.5
q19 0 41 11v-84q-20 -9 -54 -9q-57 0 -91 32z" />
    <glyph glyph-name="uogonek" unicode="&#x173;" horiz-adv-x="580" 
d="M385.5 -192q-33.5 32 -33.5 81q0 37 19.5 64t44.5 44l-1 3v69h-6q-22 -37 -66 -61t-95 -24q-92 0 -140.5 55.5t-48.5 154.5v316h108v-301q0 -62 29 -94t78 -32q40 0 71 21t47.5 56t16.5 76v274h107v-510q-35 -26 -53 -47t-18 -47q0 -21 12.5 -34.5t33.5 -13.5q18 0 40 11
v-84q-20 -9 -55 -9q-57 0 -90.5 32z" />
    <glyph glyph-name="Wcircumflex" unicode="&#x174;" horiz-adv-x="964" 
d="M17 716h122l114 -465l12 -62h6l15 62l144 465h110l138 -465l15 -61h6l12 61l114 465h121l-189 -716h-116l-137 475l-16 67h-6l-17 -67l-143 -475h-113zM331 785l107 121h95l108 -121v-6h-104l-47 61h-10l-46 -61h-103v6z" />
    <glyph glyph-name="wcircumflex" unicode="&#x175;" horiz-adv-x="805" 
d="M7 510h117l105 -367h4l115 367h111l115 -367h4l105 367h115l-164 -510h-113l-118 369h-4l-117 -369h-112zM249 615l107 121h95l108 -121v-7h-104l-47 61h-10l-46 -61h-103v7z" />
    <glyph glyph-name="Ycircumflex" unicode="&#x176;" horiz-adv-x="618" 
d="M257 332l-242 384h130l163 -269h6l159 269h131l-238 -384v-332h-109v332zM155 785l107 121h95l108 -121v-6h-104l-47 61h-10l-46 -61h-103v6z" />
    <glyph glyph-name="ycircumflex" unicode="&#x177;" horiz-adv-x="547" 
d="M221 28l-213 482h120l146 -348h5l141 348h119l-315 -726h-115zM120 615l107 121h95l108 -121v-7h-104l-47 61h-10l-46 -61h-103v7z" />
    <glyph glyph-name="Ydieresis" unicode="&#x178;" horiz-adv-x="618" 
d="M257 332l-242 384h130l163 -269h6l159 269h131l-238 -384v-332h-109v332zM176.5 799q-18.5 19 -18.5 44q0 26 18 44.5t44 18.5q27 0 44.5 -18t17.5 -45q0 -25 -18 -44t-44 -19q-25 0 -43.5 19zM353.5 799q-18.5 19 -18.5 44q0 26 18.5 44.5t43.5 18.5q27 0 45 -18.5
t18 -44.5q0 -25 -18.5 -44t-44.5 -19q-25 0 -43.5 19z" />
    <glyph glyph-name="Zacute" unicode="&#x179;" horiz-adv-x="591" 
d="M38 112l375 500h-359v104h486v-112l-372 -500h376v-104h-506v112zM300 904h122l-80 -131h-89z" />
    <glyph glyph-name="zacute" unicode="&#x17a;" horiz-adv-x="499" 
d="M37 90l284 326h-275v94h407v-90l-283 -326h291v-94h-424v90zM252 740h122l-80 -131h-89z" />
    <glyph glyph-name="Zdotaccent" unicode="&#x17b;" horiz-adv-x="591" 
d="M38 112l375 500h-359v104h486v-112l-372 -500h376v-104h-506v112zM255.5 814q-17.5 18 -17.5 42q0 25 17.5 42.5t41.5 17.5q25 0 42.5 -17.5t17.5 -42.5q0 -24 -17.5 -42t-42.5 -18q-24 0 -41.5 18z" />
    <glyph glyph-name="zdotaccent" unicode="&#x17c;" horiz-adv-x="499" 
d="M37 90l284 326h-275v94h407v-90l-283 -326h291v-94h-424v90zM204 629.5q-19 19.5 -19 45.5q0 27 19 45.5t45 18.5q28 0 46 -18.5t18 -45.5t-18.5 -46t-45.5 -19q-26 0 -45 19.5z" />
    <glyph glyph-name="Zcaron" unicode="&#x17d;" horiz-adv-x="591" 
d="M38 112l375 500h-359v104h486v-112l-372 -500h376v-104h-506v112zM143 900v6h103l46 -61h10l47 61h104v-6l-108 -121h-95z" />
    <glyph glyph-name="zcaron" unicode="&#x17e;" horiz-adv-x="499" 
d="M37 90l284 326h-275v94h407v-90l-283 -326h291v-94h-424v90zM96 729v7h103l46 -62h10l47 62h104v-7l-108 -121h-95z" />
    <glyph glyph-name="florin" unicode="&#x192;" horiz-adv-x="600" 
d="M447 602.5q-22 -17.5 -29 -51.5l-28 -140h121v-94h-140l-77 -389q-13 -66 -56.5 -107t-112.5 -41q-38 0 -69 10v105q31 -15 63 -15q29 0 48.5 18t26.5 53l72 366h-100v94h119l29 148q14 75 63 118t123 43q21 0 33.5 -2t28.5 -7v-105q-28 14 -61 14q-32 0 -54 -17.5z" />
    <glyph glyph-name="Ohorn" unicode="&#x1a0;" horiz-adv-x="832" 
d="M227 34q-85 50 -133.5 135.5t-48.5 188.5t48.5 188.5t133.5 135.5t189 50q45 0 115 -8q78 -8 133 -8q28 0 39.5 9.5t11.5 29.5v74h82v-83q0 -109 -101 -109q-23 0 -47 6v-4q66 -47 101.5 -120.5t35.5 -160.5q0 -103 -48.5 -188.5t-133 -135.5t-188.5 -50t-189 50z
M547.5 122.5q59.5 34.5 94 96t34.5 139.5t-34.5 139.5t-94 96t-131.5 34.5t-131.5 -34.5t-94 -96t-34.5 -139.5t34.5 -139.5t94 -96t131.5 -34.5t131.5 34.5z" />
    <glyph glyph-name="ohorn" unicode="&#x1a1;" horiz-adv-x="605" 
d="M165 19.5q-61 35.5 -95 97.5t-34 138t34 138t95 97.5t138 35.5q41 0 81 -9q6 -1 25 -4t38 -3q30 0 42 9.5t12 30.5v73h82v-94q0 -40 -18 -63t-50 -23q-11 0 -22 3v-4q76 -72 76 -187q0 -76 -34 -138t-94.5 -97.5t-137.5 -35.5t-138 35.5zM382 104q36 21 58 60t22 91
t-22 91t-58 60t-79 21t-79.5 -21t-58.5 -60t-22 -91t22 -91t58.5 -60t79.5 -21t79 21z" />
    <glyph glyph-name="Uhorn" unicode="&#x1af;" horiz-adv-x="703" 
d="M194.5 20q-61.5 36 -95 102t-33.5 153v441h109v-447q0 -81 42 -131t119 -50q78 0 120 50t42 131v447h120q37 0 37 39v74h83v-73q0 -60 -29.5 -89.5t-90.5 -29.5h-11v-362q0 -86 -33 -152t-94 -102.5t-144 -36.5q-80 0 -141.5 36z" />
    <glyph glyph-name="uhorn" unicode="&#x1b0;" horiz-adv-x="628" 
d="M107.5 39.5q-48.5 55.5 -48.5 154.5v316h108v-301q0 -62 29 -94t78 -32q40 0 71 21t47.5 56t16.5 76v274h118q37 0 37 39v74h83v-73q0 -60 -29.5 -89.5t-90.5 -29.5h-11v-431h-101v69h-6q-22 -37 -66 -61t-95 -24q-92 0 -140.5 55.5z" />
    <glyph glyph-name="uni01CD" unicode="&#x1cd;" horiz-adv-x="696" 
d="M285 716h125l271 -716h-121l-66 184h-292l-66 -184h-121zM458 286l-80 219l-27 82h-6l-27 -82l-80 -219h220zM194 900v6h103l46 -61h10l47 61h104v-6l-108 -121h-95z" />
    <glyph glyph-name="Aringacute" unicode="&#x1fa;" horiz-adv-x="695" 
d="M680 0h-120l-67 184h-291l-66 -184h-121l253 671q-18 16 -27.5 38t-9.5 47q0 40 23.5 71t61.5 41l31 74h100l-46 -83q28 -15 45.5 -42.5t17.5 -60.5q0 -50 -37 -85zM318 785.5q-12 -12.5 -12 -29.5t12 -29.5t29 -12.5t29.5 12.5t12.5 29.5t-12.5 29.5t-29.5 12.5
t-29 -12.5zM457 286l-79 219l-28 82h-6l-27 -82l-79 -219h219z" />
    <glyph glyph-name="aringacute" unicode="&#x1fb;" horiz-adv-x="546" 
d="M253 928h123l-65 -111h-96zM188.5 617q-30.5 31 -30.5 75t30.5 74.5t74.5 30.5t75 -30.5t31 -74.5t-31 -75t-75 -31t-74.5 31zM292.5 662.5q12.5 12.5 12.5 29.5t-12.5 29t-29.5 12q-16 0 -28.5 -12t-12.5 -29t12 -29.5t29 -12.5t29.5 12.5zM125 5.5q-43 21.5 -67 60.5
t-24 89q0 53 28 91.5t76 59t107 20.5q45 0 81.5 -8.5t58.5 -19.5v27q0 49 -36 79.5t-93 30.5q-39 0 -74 -17.5t-56 -47.5l-74 57q33 47 87.5 73t119.5 26q110 0 170.5 -54.5t60.5 -152.5v-319h-105v63h-6q-22 -34 -63 -56.5t-93 -22.5q-55 0 -98 21.5zM315 91.5
q33 19.5 51.5 52.5t18.5 71q-24 14 -55 22t-65 8q-63 0 -92.5 -25t-29.5 -66q0 -36 27 -59t72 -23q40 0 73 19.5z" />
    <glyph glyph-name="AEacute" unicode="&#x1fc;" horiz-adv-x="986" 
d="M432 716h497v-104h-324v-202h292v-104h-292v-202h324v-104h-434v185h-251l-108 -185h-129zM495 289v323h-7l-31 -60l-154 -263h192zM682 904h122l-80 -131h-89z" />
    <glyph glyph-name="aeacute" unicode="&#x1fd;" horiz-adv-x="919" 
d="M127 5.5q-44 21.5 -68.5 60.5t-24.5 89q0 53 28 91.5t76 59t107 20.5q45 0 80.5 -8.5t58.5 -20.5v25q0 52 -33.5 82.5t-90.5 30.5q-39 0 -66.5 -17.5t-42.5 -47.5l-85 40q25 55 78 85.5t117 30.5q67 0 115.5 -23t76.5 -67q31 43 77.5 66t104.5 23q77 0 133 -33.5
t85.5 -92t29.5 -133.5q0 -20 -2 -34h-393q6 -73 51 -112.5t106 -39.5q48 0 83 22.5t56 59.5l89 -43q-35 -63 -92.5 -99t-138.5 -36q-69 0 -123.5 32t-87.5 86q-40 -62 -89.5 -90t-113.5 -28q-57 0 -101 21.5zM775 313q-2 28 -17.5 55.5t-46 46t-75.5 18.5q-54 0 -91.5 -32.5
t-51.5 -87.5h282zM314.5 91.5q32.5 19.5 51 52.5t18.5 71q-52 30 -119 30q-63 0 -92.5 -25t-29.5 -66q0 -36 27 -59t72 -23q40 0 72.5 19.5zM455 740h122l-80 -131h-89z" />
    <glyph glyph-name="Oslashacute" unicode="&#x1fe;" horiz-adv-x="832" 
d="M751 522q36 -76 36 -164q0 -103 -49 -188.5t-133.5 -135.5t-188.5 -50q-87 0 -160 35l-37 -60l-74 47l37 59q-64 52 -100.5 128.5t-36.5 164.5q0 103 48.5 188.5t133.5 135.5t189 50q84 0 160 -35l38 61l74 -48l-37 -60q64 -52 100 -128zM178 244.5q22 -51.5 61 -88.5
l281 451q-48 21 -104 21q-72 0 -131.5 -34.5t-94 -96t-34.5 -139.5q0 -62 22 -113.5zM547.5 122.5q59.5 34.5 94 96t34.5 139.5q0 61 -21.5 112.5t-60.5 88.5l-282 -450q48 -21 104 -21q72 0 131.5 34.5zM418 904h122l-80 -131h-89z" />
    <glyph glyph-name="oslashacute" unicode="&#x1ff;" horiz-adv-x="605" 
d="M545.5 370q23.5 -53 23.5 -115q0 -76 -34 -138t-94.5 -97.5t-137.5 -35.5q-58 0 -107 20l-26 -41l-72 41l27 44q-42 37 -65.5 91t-23.5 116q0 76 34 138t95 97.5t138 35.5q55 0 108 -21l26 42l72 -40l-29 -46q42 -38 65.5 -91zM179 134l180 288q-26 10 -56 10
q-44 0 -82 -21.5t-60.5 -61.5t-22.5 -94q0 -72 41 -121zM384.5 99.5q37.5 21.5 60 61.5t22.5 94q0 70 -40 120l-179 -288q26 -9 55 -9q44 0 81.5 21.5zM305 740h122l-80 -131h-89z" />
    <glyph glyph-name="uni0218" unicode="&#x218;" horiz-adv-x="575" 
d="M129 36q-71 52 -99 146l104 42q16 -60 57 -98t99 -38q54 0 91.5 28t37.5 77q0 45 -33 74.5t-114 57.5l-45 16q-73 26 -121.5 72.5t-48.5 123.5q0 53 28.5 98t80 71t116.5 26q93 0 149 -45.5t76 -102.5l-99 -42q-10 36 -42 62t-83 26q-49 0 -83 -26t-34 -66
q0 -37 30.5 -61.5t94.5 -46.5l46 -16q92 -32 142 -83t50 -136q0 -70 -35.5 -117.5t-91 -70.5t-113.5 -23q-89 0 -160 52zM229 -225l40 59q-19 5 -30 21t-11 36q0 24 18 42.5t44 18.5q27 0 44.5 -18t17.5 -45q0 -22 -13 -45l-67 -98z" />
    <glyph glyph-name="uni0219" unicode="&#x219;" horiz-adv-x="489" 
d="M105.5 22q-56.5 38 -79.5 99l97 42q18 -41 51 -62.5t75 -21.5q43 0 72 15.5t29 46.5q0 28 -24.5 44.5t-76.5 28.5l-61 14q-61 15 -101 53t-40 96q0 44 26.5 78t71 52.5t97.5 18.5q72 0 125.5 -28t77.5 -82l-93 -42q-31 61 -109 61q-38 0 -63.5 -16t-25.5 -40
q0 -45 78 -65l74 -18q75 -19 113.5 -57t38.5 -94q0 -48 -27.5 -84.5t-75.5 -56.5t-106 -20q-87 0 -143.5 38zM190 -225l40 59q-19 5 -30 21t-11 36q0 24 18 42.5t44 18.5q27 0 44.5 -18t17.5 -45q0 -22 -13 -45l-67 -98z" />
    <glyph glyph-name="uni021A" unicode="&#x21a;" horiz-adv-x="563" 
d="M227 612h-201v104h511v-104h-200v-612h-110v612zM222 -225l40 59q-19 5 -30 21t-11 36q0 24 18 42.5t44 18.5q27 0 44.5 -18t17.5 -45q0 -22 -13 -45l-67 -98z" />
    <glyph glyph-name="uni021B" unicode="&#x21b;" horiz-adv-x="392" 
d="M208.5 2.5q-29.5 10.5 -48.5 29.5q-43 41 -43 116v268h-89v94h89v144h108v-144h125v-94h-125v-245q0 -42 16 -59q17 -19 52 -19q18 0 31 4.5t29 14.5v-105q-34 -15 -81 -15q-34 0 -63.5 10.5zM188 -225l40 59q-19 5 -30 21t-11 36q0 24 18 42.5t44 18.5q27 0 44.5 -18
t17.5 -45q0 -22 -13 -45l-67 -98z" />
    <glyph glyph-name="uni0237" unicode="&#x237;" horiz-adv-x="251" 
d="M-28 -219v104q24 -13 47 -13q28 0 40 17t12 51v570h108v-571q0 -84 -41 -124.5t-110 -40.5q-31 0 -56 7z" />
    <glyph glyph-name="uni0259" unicode="&#x259;" horiz-adv-x="575" 
d="M412.5 491q59.5 -35 93 -96.5t33.5 -138.5q0 -73 -32.5 -135.5t-90.5 -99.5t-132 -37q-77 0 -133 33.5t-85.5 93t-29.5 133.5q0 13 3 34h394q-7 73 -52 112.5t-105 39.5q-49 0 -84 -22.5t-56 -59.5l-89 43q35 63 92.5 99t138.5 36q75 0 134.5 -35zM144 197q2 -28 18 -56
t46.5 -46.5t75.5 -18.5q54 0 91.5 33t51.5 88h-283z" />
    <glyph glyph-name="circumflex" unicode="&#x2c6;" horiz-adv-x="425" 
d="M58 595l107 121h95l108 -121v-6h-104l-47 61h-10l-46 -61h-103v6z" />
    <glyph glyph-name="caron" unicode="&#x2c7;" horiz-adv-x="425" 
d="M58 710v6h103l46 -61h10l47 61h104v-6l-108 -121h-95z" />
    <glyph glyph-name="breve" unicode="&#x2d8;" horiz-adv-x="407" 
d="M140.5 601q-30.5 17 -49 46.5t-18.5 65.5h80q0 -22 14 -37.5t38 -15.5q22 0 36 15.5t14 37.5h80q0 -36 -18 -65.5t-48 -46.5t-64 -17t-64.5 17z" />
    <glyph glyph-name="dotaccent" unicode="&#x2d9;" horiz-adv-x="248" 
d="M79 609.5q-19 19.5 -19 45.5q0 27 19 46t45 19q27 0 45.5 -19t18.5 -46q0 -26 -18.5 -45.5t-45.5 -19.5q-26 0 -45 19.5z" />
    <glyph glyph-name="ring" unicode="&#x2da;" horiz-adv-x="405" 
d="M127.5 597.5q-30.5 30.5 -30.5 74.5t30.5 74.5t74.5 30.5t75 -30.5t31 -74.5t-31 -74.5t-75 -30.5t-74.5 30.5zM231.5 642.5q12.5 12.5 12.5 29.5t-12.5 29t-29.5 12t-29 -12t-12 -29t12 -29.5t29 -12.5t29.5 12.5z" />
    <glyph glyph-name="ogonek" unicode="&#x2db;" horiz-adv-x="413" 
d="M122.5 -192q-33.5 32 -33.5 81q0 63 63 111h101q-35 -25 -53 -46.5t-18 -47.5q0 -21 12 -34.5t33 -13.5q18 0 40 11v-84q-19 -9 -54 -9q-57 0 -90.5 32z" />
    <glyph glyph-name="tilde" unicode="&#x2dc;" horiz-adv-x="408" 
d="M225 599.5q-18 7.5 -43 21.5q-27 16 -38 16q-28 0 -31 -33h-80q0 58 33.5 89t77.5 31q21 0 39 -7.5t44 -22.5q2 -1 15 -8t21 -7q29 0 32 33h81q0 -58 -34 -89t-79 -31q-20 0 -38 7.5z" />
    <glyph glyph-name="hungarumlaut" unicode="&#x2dd;" horiz-adv-x="432" 
d="M120 720h122l-80 -131h-89zM299 720h122l-80 -131h-89z" />
    <glyph glyph-name="gravecomb" unicode="&#x300;" 
d="M-323 740h123l47 -131h-91z" />
    <glyph glyph-name="acutecomb" unicode="&#x301;" 
d="M-219 740h122l-80 -131h-89z" />
    <glyph glyph-name="uni0302" unicode="&#x302;" 
d="M-367 615l107 121h95l108 -121v-7h-104l-47 61h-10l-46 -61h-103v7z" />
    <glyph glyph-name="tildecomb" unicode="&#x303;" 
d="M-183 619.5q-18 7.5 -43 21.5q-27 16 -38 16q-28 0 -31 -33h-80q0 58 33.5 88.5t77.5 30.5q21 0 39 -7.5t44 -22.5q2 -1 15 -8t21 -7q29 0 32 33h81q0 -57 -34 -88t-79 -31q-20 0 -38 7.5z" />
    <glyph glyph-name="uni0304" unicode="&#x304;" 
d="M-346 720h286v-83h-286v83z" />
    <glyph glyph-name="uni0306" unicode="&#x306;" 
d="M-266.5 620q-30.5 17 -49 47t-18.5 66h80q0 -22 14 -37.5t38 -15.5q22 0 36 15.5t14 37.5h80q0 -36 -18 -66t-48 -47t-64 -17t-64.5 17z" />
    <glyph glyph-name="uni0307" unicode="&#x307;" 
d="M-169 629.5q-19 19.5 -19 45.5q0 27 19 45.5t45 18.5q28 0 46 -18.5t18 -45.5t-18.5 -46t-45.5 -19q-26 0 -45 19.5z" />
    <glyph glyph-name="uni0308" unicode="&#x308;" 
d="M-343.5 634.5q-18.5 18.5 -18.5 44.5t18 44t44 18q27 0 44.5 -18t17.5 -44t-17.5 -44.5t-44.5 -18.5q-25 0 -43.5 18.5zM-166.5 635q-18.5 19 -18.5 44q0 26 18.5 44t43.5 18q27 0 45 -18t18 -44t-18 -44.5t-45 -18.5q-25 0 -43.5 19z" />
    <glyph glyph-name="hookabovecomb" unicode="&#x309;" 
d="M-130 629q28 8 41 19.5t13 29.5q0 15 -11 23t-30 8q-28 0 -52 -11l-20 60q44 16 83 16q51 0 78.5 -23.5t27.5 -67.5q0 -48 -29 -75t-82 -36z" />
    <glyph glyph-name="uni030A" unicode="&#x30a;" 
d="M-277.5 617q-30.5 31 -30.5 75t30.5 74.5t74.5 30.5t75 -30.5t31 -74.5t-31 -75t-75 -31t-74.5 31zM-173.5 662.5q12.5 12.5 12.5 29.5t-12.5 29t-29.5 12t-29 -12t-12 -29t12 -29.5t29 -12.5t29.5 12.5z" />
    <glyph glyph-name="uni030B" unicode="&#x30b;" 
d="M-312 740h122l-80 -131h-89zM-133 740h122l-80 -131h-89z" />
    <glyph glyph-name="uni030C" unicode="&#x30c;" 
d="M-367 729v7h103l46 -62h10l47 62h104v-7l-108 -121h-95z" />
    <glyph glyph-name="uni0312" unicode="&#x312;" 
d="M-149 769l-40 -59q19 -5 30 -21t11 -36q0 -24 -18 -42.5t-44 -18.5q-27 0 -44.5 18t-17.5 45q0 22 13 45l66 98z" />
    <glyph glyph-name="uni031B" unicode="&#x31b;" 
d="M-141 510h21q37 0 37 39v74h83v-73q0 -60 -29.5 -89.5t-90.5 -29.5h-21v79z" />
    <glyph glyph-name="dotbelowcomb" unicode="&#x323;" 
d="M-169 -187.5q-19 19.5 -19 45.5q0 27 19 45.5t45 18.5q28 0 46 -18.5t18 -45.5t-18.5 -46t-45.5 -19q-26 0 -45 19.5z" />
    <glyph glyph-name="uni0324" unicode="&#x324;" 
d="M-284.5 -186.5q-18.5 18.5 -18.5 44.5t18.5 43.5t44.5 17.5t44 -17.5t18 -43.5t-18 -44.5t-44 -18.5t-44.5 18.5zM-107.5 -186.5q-18.5 18.5 -18.5 44.5t18.5 43.5t44.5 17.5q27 0 45 -17.5t18 -43.5t-18 -44.5t-45 -18.5q-26 0 -44.5 18.5z" />
    <glyph glyph-name="uni0326" unicode="&#x326;" 
d="M-269 -225l40 59q-19 5 -30 21t-11 36q0 24 18 42.5t44 18.5q27 0 44.5 -18t17.5 -45q0 -22 -13 -45l-67 -98z" />
    <glyph glyph-name="uni0327" unicode="&#x327;" 
d="M-298 -218q-26 19 -37 48l56 24q5 -14 15.5 -23t24.5 -9q17 0 28 10.5t11 26.5t-11 28t-28 12q-19 0 -31 -15l-52 23l35 93h60l-21 -48q12 2 20 2q39 0 66 -26.5t27 -68.5q0 -40 -29.5 -68t-74.5 -28q-33 0 -59 19z" />
    <glyph glyph-name="uni0328" unicode="&#x328;" 
d="M-290.5 -192q-33.5 32 -33.5 81q0 63 63 111h101q-35 -25 -53 -46.5t-18 -47.5q0 -21 12 -34.5t33 -13.5q18 0 40 11v-84q-19 -9 -54 -9q-57 0 -90.5 32z" />
    <glyph glyph-name="uni032E" unicode="&#x32e;" 
d="M-266.5 -216q-30.5 17 -49 46.5t-18.5 65.5h80q0 -22 14 -37.5t38 -15.5q22 0 36 15.5t14 37.5h80q0 -36 -18 -65.5t-48 -46.5t-64 -17t-64.5 17z" />
    <glyph glyph-name="uni0331" unicode="&#x331;" 
d="M-346 -98h286v-82h-286v82z" />
    <glyph glyph-name="uni0374" unicode="&#x374;" horiz-adv-x="292" 
d="M120 716h130l-125 -215h-86z" />
    <glyph glyph-name="uni0375" unicode="&#x375;" horiz-adv-x="292" 
d="M161 122h90l-79 -215h-131z" />
    <glyph glyph-name="uni037E" unicode="&#x37e;" horiz-adv-x="261" 
d="M77 391q-22 22 -22 53q0 32 22 53.5t53 21.5q32 0 53.5 -21.5t21.5 -53.5q0 -31 -21.5 -53t-53.5 -22q-31 0 -53 22zM49 -75l57 87q-21 6 -35.5 24.5t-14.5 43.5q0 32 22 53.5t53 21.5q32 0 54 -22t22 -53q0 -17 -6.5 -32t-20.5 -35l-81 -121z" />
    <glyph glyph-name="tonos" unicode="&#x384;" horiz-adv-x="419" 
d="M176 736h122l-79 -131h-89z" />
    <glyph glyph-name="dieresistonos" unicode="&#x385;" horiz-adv-x="428" 
d="M180 752h67v-144h-67v144zM50 638.5q-17 17.5 -17 40.5q0 24 17 40.5t40 16.5q24 0 40.5 -16.5t16.5 -40.5t-16.5 -41t-40.5 -17q-23 0 -40 17.5zM297.5 638.5q-17.5 17.5 -17.5 40.5q0 24 17 40.5t41 16.5q25 0 41.5 -16.5t16.5 -40.5t-17 -41t-41 -17q-23 0 -40.5 17.5
z" />
    <glyph glyph-name="Alphatonos" unicode="&#x386;" horiz-adv-x="695" 
d="M95 720h122l-80 -131h-89zM285 716h125l271 -716h-121l-66 184h-292l-66 -184h-121zM458 286l-80 219l-27 82h-6l-27 -82l-80 -219h220z" />
    <glyph glyph-name="anoteleia" unicode="&#x387;" horiz-adv-x="206" 
d="M50 271q-22 22 -22 53q0 32 22 53.5t53 21.5q32 0 53.5 -21.5t21.5 -53.5q0 -31 -21.5 -53t-53.5 -22q-31 0 -53 22z" />
    <glyph glyph-name="Epsilontonos" unicode="&#x388;" horiz-adv-x="627" 
d="M-26 720h122l-80 -131h-89zM136 716h434v-104h-324v-202h292v-104h-292v-202h324v-104h-434v716z" />
    <glyph glyph-name="Etatonos" unicode="&#x389;" horiz-adv-x="771" 
d="M-26 720h122l-80 -131h-89zM136 716h110v-298h335v298h109v-716h-109v314h-335v-314h-110v716z" />
    <glyph glyph-name="Iotatonos" unicode="&#x38a;" horiz-adv-x="326" 
d="M-26 720h122l-80 -131h-89zM136 716h110v-716h-110v716z" />
    <glyph glyph-name="Omicrontonos" unicode="&#x38c;" horiz-adv-x="799" 
d="M-25 720h122l-80 -131h-89zM194 34q-85 50 -133.5 135.5t-48.5 188.5t48.5 188.5t133.5 135.5t189 50t188.5 -50t133 -135.5t48.5 -188.5t-48.5 -188.5t-133 -135.5t-188.5 -50t-189 50zM514.5 122.5q59.5 34.5 94 96t34.5 139.5t-34.5 139.5t-94 96t-131.5 34.5
t-131.5 -34.5t-94 -96t-34.5 -139.5t34.5 -139.5t94 -96t131.5 -34.5t131.5 34.5z" />
    <glyph glyph-name="Upsilontonos" unicode="&#x38e;" horiz-adv-x="714" 
d="M-26 720h122l-80 -131h-89zM353 332l-242 384h130l163 -269h6l159 269h131l-238 -384v-332h-109v332z" />
    <glyph glyph-name="Omegatonos" unicode="&#x38f;" horiz-adv-x="779" 
d="M-25 720h122l-80 -131h-89zM35 99h150v6q-75 41 -119.5 115t-44.5 170q0 91 46 170t126.5 125.5t180.5 46.5t181 -46.5t127 -125.5t46 -170q0 -96 -44.5 -170t-119.5 -115v-6h150v-99h-287v142q83 22 137 87.5t54 156.5q0 68 -33 123t-89 87t-122 32t-122 -32t-88.5 -87
t-32.5 -123q0 -91 53.5 -156.5t136.5 -87.5v-142h-286v99z" />
    <glyph glyph-name="iotadieresistonos" unicode="&#x390;" horiz-adv-x="251" 
d="M71 510h108v-510h-108v510zM92 752h67v-144h-67v144zM-38 638.5q-17 17.5 -17 40.5q0 24 17 40.5t40 16.5q24 0 40.5 -16.5t16.5 -40.5t-16.5 -41t-40.5 -17q-23 0 -40 17.5zM209.5 638.5q-17.5 17.5 -17.5 40.5q0 24 17 40.5t41 16.5q25 0 41.5 -16.5t16.5 -40.5
t-17 -41t-41 -17q-23 0 -40.5 17.5z" />
    <glyph glyph-name="Alpha" unicode="&#x391;" horiz-adv-x="696" 
d="M285 716h125l271 -716h-121l-66 184h-292l-66 -184h-121zM458 286l-80 219l-27 82h-6l-27 -82l-80 -219h220z" />
    <glyph glyph-name="Beta" unicode="&#x392;" horiz-adv-x="626" 
d="M81 716h268q57 0 106 -25t77.5 -68.5t28.5 -96.5t-26.5 -92.5t-70.5 -60.5v-5q56 -19 89 -63t33 -104q0 -59 -30.5 -104.5t-82 -71t-112.5 -25.5h-280v716zM344 415q50 0 80 30.5t30 70.5t-29.5 69.5t-76.5 29.5h-157v-200h153zM361 102q52 0 83.5 31.5t31.5 75.5
t-32.5 76t-86.5 32h-166v-215h170z" />
    <glyph glyph-name="Gamma" unicode="&#x393;" horiz-adv-x="526" 
d="M81 716h418v-104h-308v-612h-110v716z" />
    <glyph glyph-name="uni0394" unicode="&#x394;" horiz-adv-x="686" 
d="M280 716h125l266 -716h-656zM515 102l-169 479h-6l-169 -479h344z" />
    <glyph glyph-name="Epsilon" unicode="&#x395;" horiz-adv-x="572" 
d="M81 716h434v-104h-324v-202h292v-104h-292v-202h324v-104h-434v716z" />
    <glyph glyph-name="Zeta" unicode="&#x396;" horiz-adv-x="591" 
d="M38 112l375 500h-359v104h486v-112l-372 -500h376v-104h-506v112z" />
    <glyph glyph-name="Eta" unicode="&#x397;" horiz-adv-x="716" 
d="M81 716h110v-298h335v298h109v-716h-109v314h-335v-314h-110v716z" />
    <glyph glyph-name="Theta" unicode="&#x398;" horiz-adv-x="846" 
d="M227 34q-85 50 -133.5 135.5t-48.5 188.5t48.5 188.5t133.5 135.5t189 50t188.5 -50t133.5 -135.5t49 -188.5t-49 -188.5t-133.5 -135.5t-188.5 -50t-189 50zM547.5 122.5q59.5 34.5 94.5 96t35 139.5t-35 139.5t-94.5 96t-131.5 34.5t-131.5 -34.5t-94 -96t-34.5 -139.5
t34.5 -139.5t94 -96t131.5 -34.5t131.5 34.5zM259 407h314v-98h-314v98z" />
    <glyph glyph-name="Iota" unicode="&#x399;" horiz-adv-x="271" 
d="M81 716h110v-716h-110v716z" />
    <glyph glyph-name="Kappa" unicode="&#x39a;" horiz-adv-x="643" 
d="M81 716h110v-347h6l285 347h138v-6l-302 -358l318 -346v-6h-144l-295 328h-6v-328h-110v716z" />
    <glyph glyph-name="Lambda" unicode="&#x39b;" horiz-adv-x="678" 
d="M276 716h125l262 -716h-122l-176 510l-23 77h-6l-24 -77l-176 -510h-121z" />
    <glyph glyph-name="Mu" unicode="&#x39c;" horiz-adv-x="883" 
d="M81 716h148l209 -545h6l210 545h148v-716h-108v405l6 127h-6l-209 -532h-87l-209 532h-6l6 -127v-405h-108v716z" />
    <glyph glyph-name="Nu" unicode="&#x39d;" horiz-adv-x="725" 
d="M81 716h130l324 -526h6l-6 138v388h109v-716h-114l-340 553h-6l6 -138v-415h-109v716z" />
    <glyph glyph-name="Xi" unicode="&#x39e;" horiz-adv-x="525" 
d="M33 716h459v-104h-459v104zM65 409h395v-102h-395v102zM33 104h459v-104h-459v104z" />
    <glyph glyph-name="Omicron" unicode="&#x39f;" horiz-adv-x="832" 
d="M227 34q-85 50 -133.5 135.5t-48.5 188.5t48.5 188.5t133.5 135.5t189 50t188.5 -50t133 -135.5t48.5 -188.5t-48.5 -188.5t-133 -135.5t-188.5 -50t-189 50zM547.5 122.5q59.5 34.5 94 96t34.5 139.5t-34.5 139.5t-94 96t-131.5 34.5t-131.5 -34.5t-94 -96t-34.5 -139.5
t34.5 -139.5t94 -96t131.5 -34.5t131.5 34.5z" />
    <glyph glyph-name="Pi" unicode="&#x3a0;" horiz-adv-x="694" 
d="M81 716h532v-716h-109v612h-313v-612h-110v716z" />
    <glyph glyph-name="Rho" unicode="&#x3a1;" horiz-adv-x="593" 
d="M81 716h246q64 0 117.5 -28t85 -78t31.5 -113t-31.5 -113t-85 -78t-117.5 -28h-136v-278h-110v716zM330 382q55 0 88.5 34.5t33.5 80.5t-33.5 80.5t-88.5 34.5h-139v-230h139z" />
    <glyph glyph-name="Sigma" unicode="&#x3a3;" horiz-adv-x="526" 
d="M49 110l204 256l-204 240v110h445v-103h-317l207 -247l-207 -263h317v-103h-445v110z" />
    <glyph glyph-name="Tau" unicode="&#x3a4;" horiz-adv-x="563" 
d="M227 612h-201v104h511v-104h-200v-612h-110v612z" />
    <glyph glyph-name="Upsilon" unicode="&#x3a5;" horiz-adv-x="618" 
d="M257 332l-242 384h130l163 -269h6l159 269h131l-238 -384v-332h-109v332z" />
    <glyph glyph-name="Phi" unicode="&#x3a6;" horiz-adv-x="814" 
d="M730.5 215.5q-37.5 -64.5 -107 -105.5t-161.5 -51v-75h-110v75q-92 10 -162 51t-107.5 105.5t-37.5 142.5t37.5 142.5t107 105.5t162.5 51v75h110v-75q92 -10 161.5 -51t107 -105.5t37.5 -142.5t-37.5 -142.5zM208.5 226q52.5 -53 143.5 -66v396q-91 -13 -143.5 -66
t-52.5 -132t52.5 -132zM605.5 226q52.5 53 52.5 132t-52.5 132t-143.5 66v-396q91 13 143.5 66z" />
    <glyph glyph-name="Chi" unicode="&#x3a7;" horiz-adv-x="662" 
d="M257 372l-223 344h135l159 -257h6l160 257h134l-223 -344l239 -372h-134l-176 279h-6l-176 -279h-134z" />
    <glyph glyph-name="Psi" unicode="&#x3a8;" horiz-adv-x="770" 
d="M330 156q-72 0 -132.5 35.5t-96.5 102t-36 153.5v269h110v-275q0 -80 40.5 -130.5t114.5 -50.5v456h110v-456q74 0 115 50.5t41 130.5v275h109v-269q0 -87 -36 -153.5t-96.5 -102t-132.5 -35.5v-156h-110v156z" />
    <glyph glyph-name="uni03A9" unicode="&#x3a9;" horiz-adv-x="809" 
d="M65 99h150v6q-75 41 -119.5 115t-44.5 170q0 91 46 170t126.5 125.5t180.5 46.5t181 -46.5t127 -125.5t46 -170q0 -96 -44.5 -170t-119.5 -115v-6h150v-99h-287v142q83 22 137 87.5t54 156.5q0 68 -33 123t-89 87t-122 32t-122 -32t-88.5 -87t-32.5 -123
q0 -91 53.5 -156.5t136.5 -87.5v-142h-286v99z" />
    <glyph glyph-name="Iotadieresis" unicode="&#x3aa;" horiz-adv-x="271" 
d="M13.5 814.5q-17.5 17.5 -17.5 40.5q0 24 17 41t41 17q25 0 41.5 -16.5t16.5 -41.5q0 -24 -17 -41t-41 -17q-23 0 -40.5 17.5zM176.5 814.5q-17.5 17.5 -17.5 40.5q0 24 17 41t41 17q25 0 41.5 -16.5t16.5 -41.5q0 -24 -17 -41t-41 -17q-23 0 -40.5 17.5zM81 716h110v-716
h-110v716z" />
    <glyph glyph-name="Upsilondieresis" unicode="&#x3ab;" horiz-adv-x="618" 
d="M257 332l-242 384h130l163 -269h6l159 269h131l-238 -384v-332h-109v332zM176.5 799q-18.5 19 -18.5 44q0 26 18 44.5t44 18.5q27 0 44.5 -18t17.5 -45q0 -25 -18 -44t-44 -19q-25 0 -43.5 19zM353.5 799q-18.5 19 -18.5 44q0 26 18.5 44.5t43.5 18.5q27 0 45 -18.5
t18 -44.5q0 -25 -18.5 -44t-44.5 -19q-25 0 -43.5 19z" />
    <glyph glyph-name="alphatonos" unicode="&#x3ac;" horiz-adv-x="613" 
d="M156 18.5q-56 34.5 -88 96.5t-32 140t32 139.5t88 96.5t125 35q56 0 99 -24.5t65 -60.5h6v69h101v-510h-101v68h-6q-22 -35 -65 -59.5t-99 -24.5q-69 0 -125 34.5zM372.5 104.5q35.5 21.5 57 60.5t21.5 90t-21.5 90t-57 60.5t-75.5 21.5t-75.5 -21.5t-57 -60.5t-21.5 -90
t21.5 -90t57 -60.5t75.5 -21.5t75.5 21.5zM294 736h122l-79 -131h-89z" />
    <glyph glyph-name="epsilontonos" unicode="&#x3ad;" horiz-adv-x="512" 
d="M101.5 26.5q-57.5 42.5 -57.5 115.5q0 39 22 70.5t62 48.5v5q-31 15 -48.5 43t-17.5 69t25 75t69 53.5t99 19.5q60 0 105.5 -19t84.5 -60l-67 -65q-26 28 -56 41t-67 13q-42 0 -66.5 -20t-24.5 -47q0 -33 24 -51.5t60 -18.5h74v-80h-79q-43 0 -68 -20.5t-25 -49.5
q0 -33 29 -52.5t78 -19.5q78 0 140 68l68 -69q-39 -44 -92 -68t-116 -24q-98 0 -155.5 42.5zM257 736h122l-79 -131h-89z" />
    <glyph glyph-name="etatonos" unicode="&#x3ae;" horiz-adv-x="580" 
d="M413 309q0 59 -30 88.5t-82 29.5q-38 0 -67.5 -21t-46 -56t-16.5 -76v-274h-108v510h102v-70h6q22 38 66 62t95 24q90 0 139 -54.5t49 -148.5v-539h-107v525zM304 736h122l-79 -131h-89z" />
    <glyph glyph-name="iotatonos" unicode="&#x3af;" horiz-adv-x="251" 
d="M71 510h108v-510h-108v510zM127 736h122l-79 -131h-89z" />
    <glyph glyph-name="upsilondieresistonos" unicode="&#x3b0;" horiz-adv-x="577" 
d="M172.5 13.5q-52.5 29.5 -83 81.5t-30.5 116v299h108v-276q0 -72 36 -111.5t92 -39.5q36 0 67.5 18.5t51.5 54.5t20 87q0 60 -25 128.5t-69 138.5h118q36 -57 59.5 -127.5t23.5 -141.5q0 -85 -35 -143t-93 -86t-125 -28q-63 0 -115.5 29.5zM246 752h67v-144h-67v144z
M116 638.5q-17 17.5 -17 40.5q0 24 17 40.5t40 16.5q24 0 40.5 -16.5t16.5 -40.5t-16.5 -41t-40.5 -17q-23 0 -40 17.5zM363.5 638.5q-17.5 17.5 -17.5 40.5q0 24 17 40.5t41 16.5q25 0 41.5 -16.5t16.5 -40.5t-17 -41t-41 -17q-23 0 -40.5 17.5z" />
    <glyph glyph-name="alpha" unicode="&#x3b1;" horiz-adv-x="613" 
d="M156 18.5q-56 34.5 -88 96.5t-32 140t32 139.5t88 96.5t125 35q56 0 99 -24.5t65 -60.5h6v69h101v-510h-101v68h-6q-22 -35 -65 -59.5t-99 -24.5q-69 0 -125 34.5zM372.5 104.5q35.5 21.5 57 60.5t21.5 90t-21.5 90t-57 60.5t-75.5 21.5t-75.5 -21.5t-57 -60.5t-21.5 -90
t21.5 -90t57 -60.5t75.5 -21.5t75.5 21.5z" />
    <glyph glyph-name="beta" unicode="&#x3b2;" horiz-adv-x="586" 
d="M79 512q0 63 26.5 113t76.5 78.5t118 28.5q61 0 109.5 -24.5t76 -68.5t27.5 -99q0 -54 -23.5 -91t-61.5 -59v-6q53 -22 85.5 -67.5t32.5 -111.5q0 -64 -29.5 -114t-80 -78.5t-111.5 -28.5q-87 0 -137 66h-6l6 -74v-192h-109v728zM401 121q37 37 37 89q0 34 -18.5 62.5
t-49.5 45t-67 16.5h-36v96h26q53 0 84 29t31 76q0 42 -31.5 69t-76.5 27q-52 0 -82 -33t-30 -86v-297q0 -61 32.5 -96t90.5 -35q53 0 90 37z" />
    <glyph glyph-name="gamma" unicode="&#x3b3;" horiz-adv-x="575" 
d="M233 6l-225 504h121l156 -375h5l158 375h119l-227 -504v-222h-107v222z" />
    <glyph glyph-name="delta" unicode="&#x3b4;" horiz-adv-x="605" 
d="M165 19.5q-61 35.5 -95 97.5t-34 138q0 101 56 170.5t151 90.5h2l-163 118v82h430v-94h-250l188 -137q119 -84 119 -230q0 -76 -34 -138t-94.5 -97.5t-137.5 -35.5t-138 35.5zM382 104q36 21 58 60t22 91t-22 91t-58 60t-79 21t-79.5 -21t-58.5 -60t-22 -91t22 -91
t58.5 -60t79.5 -21t79 21z" />
    <glyph glyph-name="epsilon" unicode="&#x3b5;" horiz-adv-x="512" 
d="M101.5 26.5q-57.5 42.5 -57.5 115.5q0 39 22 70.5t62 48.5v5q-31 15 -48.5 43t-17.5 69t25 75t69 53.5t99 19.5q60 0 105.5 -19t84.5 -60l-67 -65q-26 28 -56 41t-67 13q-42 0 -66.5 -20t-24.5 -47q0 -33 24 -51.5t60 -18.5h74v-80h-79q-43 0 -68 -20.5t-25 -49.5
q0 -33 29 -52.5t78 -19.5q78 0 140 68l68 -69q-39 -44 -92 -68t-116 -24q-98 0 -155.5 42.5z" />
    <glyph glyph-name="zeta" unicode="&#x3b6;" horiz-adv-x="509" 
d="M329 -78q22 0 34.5 11t12.5 28t-12 28t-35 11h-133q-78 0 -121 39.5t-43 102.5q0 77 68 125q39 27 209 149h-259v94h413v-90l-292 -213q-15 -12 -23 -25t-8 -31q0 -26 19 -41.5t50 -15.5h121q67 0 107 -34.5t40 -93.5q0 -62 -41.5 -98t-106.5 -36v90z" />
    <glyph glyph-name="eta" unicode="&#x3b7;" horiz-adv-x="580" 
d="M413 309q0 59 -30 88.5t-82 29.5q-38 0 -67.5 -21t-46 -56t-16.5 -76v-274h-108v510h102v-70h6q22 38 66 62t95 24q90 0 139 -54.5t49 -148.5v-539h-107v525z" />
    <glyph glyph-name="theta" unicode="&#x3b8;" horiz-adv-x="680" 
d="M183.5 31q-63.5 47 -98 128.5t-34.5 182.5t34.5 182.5t98 128.5t147.5 47t148 -47t98.5 -128.5t34.5 -182.5t-34.5 -182.5t-98.5 -128.5t-148 -47t-147.5 47zM499 404q-12 88 -56.5 141t-111.5 53q-66 0 -110 -53t-56 -141h334zM451 150q46 64 51 166h-340
q5 -101 50.5 -165.5t118.5 -64.5q74 0 120 64z" />
    <glyph glyph-name="iota" unicode="&#x3b9;" horiz-adv-x="251" 
d="M71 510h108v-510h-108v510z" />
    <glyph glyph-name="kappa" unicode="&#x3ba;" horiz-adv-x="514" 
d="M63 510h108v-226h6l191 226h132v-6l-208 -236l218 -262v-6h-130l-203 251h-6v-251h-108v510z" />
    <glyph glyph-name="lambda" unicode="&#x3bb;" horiz-adv-x="531" 
d="M212 462l-111 244h114l308 -706h-119l-134 328h-4l-138 -328h-120z" />
    <glyph glyph-name="uni03BC" unicode="&#x3bc;" horiz-adv-x="580" 
d="M59 510h108v-301q0 -62 29.5 -94t77.5 -32q40 0 71 21t47.5 56t16.5 76v274h107v-510h-101v64h-6q-22 -36 -62 -58t-89 -22q-26 0 -50.5 9.5t-40.5 25.5h-6l6 -63v-172h-108v726z" />
    <glyph glyph-name="nu" unicode="&#x3bd;" horiz-adv-x="546" 
d="M7 510h120l143 -371h5l146 371h118l-213 -510h-108z" />
    <glyph glyph-name="xi" unicode="&#x3be;" horiz-adv-x="540" 
d="M361 -78q22 0 34 11t12 28t-12 28t-35 11h-84q-77 0 -132 26t-83.5 73t-28.5 108q0 64 32.5 106t83.5 64v5q-42 24 -66.5 59t-24.5 94q0 55 28.5 100t78.5 71t112 26q69 0 120 -25.5t94 -73.5l-75 -73q-28 38 -60.5 55.5t-73.5 17.5q-53 0 -85 -29t-32 -74q0 -50 35 -79
t88 -29h100v-95h-109q-61 0 -99 -32t-38 -82q0 -52 37.5 -81.5t106.5 -29.5h66q74 0 115.5 -37.5t41.5 -96.5q0 -64 -41 -100t-106 -36v90z" />
    <glyph glyph-name="omicron" unicode="&#x3bf;" horiz-adv-x="605" 
d="M165 19.5q-61 35.5 -95 97.5t-34 138t34 138t95 97.5t138 35.5q76 0 137 -36t95 -98t34 -137q0 -76 -34 -138t-94.5 -97.5t-137.5 -35.5t-138 35.5zM382 104q36 21 58 60t22 91t-22 91t-58 60t-79 21t-79.5 -21t-58.5 -60t-22 -91t22 -91t58.5 -60t79.5 -21t79 21z" />
    <glyph glyph-name="pi" unicode="&#x3c0;" horiz-adv-x="728" 
d="M503 37.5q-43 45.5 -43 123.5v255h-211v-416h-107v416h-119v94h664v-94h-120v-249q0 -36 16.5 -56.5t45.5 -20.5q27 0 56 16v-103q-30 -11 -66 -11q-73 0 -116 45.5z" />
    <glyph glyph-name="rho" unicode="&#x3c1;" horiz-adv-x="614" 
d="M62 249q0 80 32.5 143t90.5 98.5t132 35.5q79 0 138.5 -35t91.5 -96.5t32 -139.5t-31 -140t-86 -96.5t-123 -34.5q-57 0 -101 24t-68 60h-6l6 -68v-217h-108v466zM393.5 104q35.5 21 56.5 60.5t21 90.5t-21 90t-56.5 60.5t-76.5 21.5q-40 0 -75.5 -21.5t-56.5 -60.5
t-21 -90t21 -90t56.5 -60.5t75.5 -21.5q41 0 76.5 21z" />
    <glyph glyph-name="sigma1" unicode="&#x3c2;" horiz-adv-x="555" 
d="M368 -94q24 0 36 11t12 28t-12 28t-34 11h-51q-91 0 -154.5 36t-96 97t-32.5 138q0 78 33.5 139.5t93.5 96.5t135 35q84 0 143 -37.5t85 -103.5l-98 -40q-16 41 -50 61.5t-81 20.5q-42 0 -77.5 -21.5t-56 -60.5t-20.5 -90q0 -49 21.5 -88t62 -61.5t95.5 -22.5h42
q70 0 112 -36.5t42 -96.5q0 -62 -41.5 -98t-108.5 -36v90z" />
    <glyph glyph-name="sigma" unicode="&#x3c3;" horiz-adv-x="621" 
d="M160 18q-59 34 -91.5 94t-32.5 135t32.5 135t91.5 94t136 34h308v-94h-45l-73 6v-6q70 -72 70 -169q0 -75 -32.5 -135t-91.5 -94t-136 -34t-136 34zM405 126q44 43 44 121q0 77 -44 120.5t-109 43.5q-41 0 -76 -19t-56 -56t-21 -89t21 -89t55.5 -56t76.5 -19q65 0 109 43
z" />
    <glyph glyph-name="tau" unicode="&#x3c4;" horiz-adv-x="489" 
d="M191 411h-163v99h433v-99h-163v-411h-107v411z" />
    <glyph glyph-name="upsilon" unicode="&#x3c5;" horiz-adv-x="577" 
d="M172.5 13.5q-52.5 29.5 -83 81.5t-30.5 116v299h108v-276q0 -72 36 -111.5t92 -39.5q36 0 67.5 18.5t51.5 54.5t20 87q0 60 -25 128.5t-69 138.5h118q36 -57 59.5 -127.5t23.5 -141.5q0 -85 -35 -143t-93 -86t-125 -28q-63 0 -115.5 29.5z" />
    <glyph glyph-name="phi" unicode="&#x3c6;" horiz-adv-x="753" 
d="M666.5 133.5q-34.5 -59.5 -96.5 -98t-142 -48.5v-203h-108v203q-78 10 -139 47.5t-95.5 96.5t-34.5 132q0 98 49 160t124 103l48 -91q-51 -28 -81.5 -69t-30.5 -103q0 -72 44 -118.5t116 -59.5v286q0 76 43 115.5t110 39.5t118.5 -34t80.5 -93.5t29 -132.5t-34.5 -132.5z
M548.5 146.5q45.5 47.5 45.5 124.5q0 46 -15 81.5t-40 55t-55 19.5q-27 0 -41.5 -17t-14.5 -49v-275q75 13 120.5 60.5z" />
    <glyph glyph-name="chi" unicode="&#x3c7;" horiz-adv-x="511" 
d="M192 259l-176 251h125l114 -168h3l109 168h130l-179 -251l180 -259h-126l-116 173h-3l-113 -173h-127z" />
    <glyph glyph-name="psi" unicode="&#x3c8;" horiz-adv-x="727" 
d="M319 -16h-2q-76 0 -134.5 32t-91 89.5t-32.5 131.5v273h108v-272q0 -75 43.5 -115t106.5 -40h2v427h108v-427h1q42 0 77.5 18.5t57 56t21.5 91.5q0 120 -76 261h115q31 -58 49.5 -127.5t18.5 -135.5q0 -85 -39 -144.5t-99.5 -89t-124.5 -29.5h-1v-200h-108v200z" />
    <glyph glyph-name="omega" unicode="&#x3c9;" horiz-adv-x="816" 
d="M144.5 13.5q-49.5 29.5 -79 87.5t-29.5 141q0 135 76 268h121q-87 -141 -87 -266q0 -72 29.5 -115t80.5 -43q45 0 73 38t28 111v150h102v-150q0 -73 27.5 -111t72.5 -38q52 0 81.5 43t29.5 115q0 125 -87 266h121q75 -135 75 -268q0 -83 -29.5 -141t-79 -87.5
t-109.5 -29.5q-51 0 -90.5 25t-62.5 72q-24 -47 -63.5 -72t-90.5 -25q-60 0 -109.5 29.5z" />
    <glyph glyph-name="iotadieresis" unicode="&#x3ca;" horiz-adv-x="251" 
d="M7 636q-18 18 -18 43t18 43t43 18q26 0 43.5 -17.5t17.5 -43.5q0 -25 -17.5 -43t-43.5 -18q-25 0 -43 18zM157.5 636q-18.5 18 -18.5 43t18 43t44 18t43.5 -17.5t17.5 -43.5q0 -25 -18 -43t-43 -18t-43.5 18zM71 510h108v-510h-108v510z" />
    <glyph glyph-name="upsilondieresis" unicode="&#x3cb;" horiz-adv-x="577" 
d="M172.5 13.5q-52.5 29.5 -83 81.5t-30.5 116v299h108v-276q0 -72 36 -111.5t92 -39.5q36 0 67.5 18.5t51.5 54.5t20 87q0 60 -25 128.5t-69 138.5h118q36 -57 59.5 -127.5t23.5 -141.5q0 -85 -35 -143t-93 -86t-125 -28q-63 0 -115.5 29.5zM146.5 634.5
q-18.5 18.5 -18.5 44.5t18 44t44 18q27 0 44.5 -18t17.5 -44t-17.5 -44.5t-44.5 -18.5q-25 0 -43.5 18.5zM323.5 635q-18.5 19 -18.5 44q0 26 18.5 44t43.5 18q27 0 45 -18t18 -44t-18 -44.5t-45 -18.5q-25 0 -43.5 19z" />
    <glyph glyph-name="omicrontonos" unicode="&#x3cc;" horiz-adv-x="605" 
d="M165 19.5q-61 35.5 -95 97.5t-34 138t34 138t95 97.5t138 35.5q76 0 137 -36t95 -98t34 -137q0 -76 -34 -138t-94.5 -97.5t-137.5 -35.5t-138 35.5zM382 104q36 21 58 60t22 91t-22 91t-58 60t-79 21t-79.5 -21t-58.5 -60t-22 -91t22 -91t58.5 -60t79.5 -21t79 21z
M304 736h122l-79 -131h-89z" />
    <glyph glyph-name="upsilontonos" unicode="&#x3cd;" horiz-adv-x="577" 
d="M172.5 13.5q-52.5 29.5 -83 81.5t-30.5 116v299h108v-276q0 -72 36 -111.5t92 -39.5q36 0 67.5 18.5t51.5 54.5t20 87q0 60 -25 128.5t-69 138.5h118q36 -57 59.5 -127.5t23.5 -141.5q0 -85 -35 -143t-93 -86t-125 -28q-63 0 -115.5 29.5zM280 736h122l-79 -131h-89z" />
    <glyph glyph-name="omegatonos" unicode="&#x3ce;" horiz-adv-x="816" 
d="M144.5 13.5q-49.5 29.5 -79 87.5t-29.5 141q0 135 76 268h121q-87 -141 -87 -266q0 -72 29.5 -115t80.5 -43q45 0 73 38t28 111v150h102v-150q0 -73 27.5 -111t72.5 -38q52 0 81.5 43t29.5 115q0 125 -87 266h121q75 -135 75 -268q0 -83 -29.5 -141t-79 -87.5
t-109.5 -29.5q-51 0 -90.5 25t-62.5 72q-24 -47 -63.5 -72t-90.5 -25q-60 0 -109.5 29.5zM409 736h122l-79 -131h-89z" />
    <glyph glyph-name="theta1" unicode="&#x3d1;" horiz-adv-x="649" 
d="M171.5 13.5q-53.5 29.5 -83 82.5t-29.5 122v292h105v-279q0 -72 36 -111t96 -39q59 0 94.5 39t35.5 111v47q-60 14 -110 55t-79 100.5t-29 125.5q0 80 45 126.5t113 46.5q76 0 119.5 -47.5t43.5 -122.5v-196h90v-91h-90v-56q0 -70 -28.5 -123t-81 -82.5t-123.5 -29.5
t-124.5 29.5zM426 568q0 31 -16 51t-43 20q-26 0 -42 -21.5t-16 -59.5q0 -61 32 -112.5t85 -71.5v194z" />
    <glyph glyph-name="Upsilon1" unicode="&#x3d2;" horiz-adv-x="633" 
d="M261 314l-128 255q-15 30 -29.5 42.5t-32.5 12.5q-22 0 -48 -18v106q12 5 29.5 8.5t33.5 3.5q43 0 75 -21.5t62 -83.5l90 -191h6l91 191q30 62 62 83.5t75 21.5q16 0 33.5 -3.5t28.5 -8.5v-106q-25 18 -47 18q-19 0 -33.5 -12.5t-29.5 -42.5l-128 -255v-314h-110v314z
" />
    <glyph glyph-name="uni03D3" unicode="&#x3d3;" horiz-adv-x="736" 
d="M-25 720h122l-80 -131h-89zM364 314l-128 255q-15 30 -29.5 42.5t-32.5 12.5q-22 0 -48 -18v106q12 5 29.5 8.5t33.5 3.5q43 0 75 -21.5t62 -83.5l90 -191h6l91 191q30 62 62 83.5t75 21.5q16 0 33.5 -3.5t28.5 -8.5v-106q-25 18 -47 18q-19 0 -33.5 -12.5t-29.5 -42.5
l-128 -255v-314h-110v314z" />
    <glyph glyph-name="uni03D4" unicode="&#x3d4;" horiz-adv-x="633" 
d="M261 314l-128 255q-15 30 -29.5 42.5t-32.5 12.5q-22 0 -48 -18v106q12 5 29.5 8.5t33.5 3.5q43 0 75 -21.5t62 -83.5l90 -191h6l91 191q30 62 62 83.5t75 21.5q16 0 33.5 -3.5t28.5 -8.5v-106q-25 18 -47 18q-19 0 -33.5 -12.5t-29.5 -42.5l-128 -255v-314h-110v314z
M184.5 799q-18.5 19 -18.5 44q0 26 18 44.5t44 18.5q27 0 44.5 -18t17.5 -45q0 -25 -18 -44t-44 -19q-25 0 -43.5 19zM361.5 799q-18.5 19 -18.5 44q0 26 18.5 44.5t43.5 18.5q27 0 45 -18.5t18 -44.5q0 -25 -18.5 -44t-44.5 -19q-25 0 -43.5 19z" />
    <glyph glyph-name="omega1" unicode="&#x3d6;" horiz-adv-x="912" 
d="M193.5 13.5q-49.5 29.5 -79.5 87.5t-30 141q0 88 39 180h-77v88h820v-88h-76q38 -93 38 -180q0 -83 -29.5 -141t-79.5 -87.5t-110 -29.5q-51 0 -90 25t-63 72q-23 -47 -62.5 -72t-90.5 -25q-60 0 -109.5 29.5zM377.5 124.5q28.5 38.5 28.5 111.5v98h101v-99
q0 -73 28 -111t73 -38q51 0 80.5 43t29.5 115q0 83 -42 178h-439q-42 -92 -42 -178q0 -72 29 -115t81 -43q44 0 72.5 38.5z" />
    <glyph glyph-name="uni0400" unicode="&#x400;" horiz-adv-x="572" 
d="M81 716h434v-104h-324v-202h292v-104h-292v-202h324v-104h-434v716zM173 904h123l47 -131h-91z" />
    <glyph glyph-name="uni0401" unicode="&#x401;" horiz-adv-x="572" 
d="M81 716h434v-104h-324v-202h292v-104h-292v-202h324v-104h-434v716zM165.5 799q-18.5 19 -18.5 44q0 26 18 44.5t44 18.5q27 0 44.5 -18t17.5 -45q0 -25 -18 -44t-44 -19q-25 0 -43.5 19zM342.5 799q-18.5 19 -18.5 44q0 26 18.5 44.5t43.5 18.5q27 0 45 -18.5t18 -44.5
q0 -25 -18.5 -44t-44.5 -19q-25 0 -43.5 19z" />
    <glyph glyph-name="uni0402" unicode="&#x402;" horiz-adv-x="773" 
d="M219 612h-193v104h498v-104h-196v-174l-6 -73h6q71 73 183 73q60 0 111.5 -27.5t83 -78t31.5 -116.5q0 -103 -62 -158.5t-160 -57.5h-28v100h24q53 0 84.5 32.5t31.5 82.5q0 53 -37.5 87t-99.5 34q-51 0 -94 -21.5t-68 -57.5v-257h-109v612z" />
    <glyph glyph-name="uni0403" unicode="&#x403;" horiz-adv-x="526" 
d="M81 716h418v-104h-308v-612h-110v716zM292 904h122l-80 -131h-89z" />
    <glyph glyph-name="uni0404" unicode="&#x404;" horiz-adv-x="743" 
d="M700 113q-51 -61 -125 -95t-161 -34q-104 0 -188.5 49t-132.5 134.5t-48 190.5t48 190.5t132.5 134.5t188.5 49q82 0 149.5 -30t117.5 -87l-77 -75q-72 88 -190 88q-65 0 -120 -27t-91 -77t-46 -117h325v-98h-325q10 -67 46 -117t91 -77t120 -27q64 0 117 26t92 74z" />
    <glyph glyph-name="uni0405" unicode="&#x405;" horiz-adv-x="575" 
d="M129 36q-71 52 -99 146l104 42q16 -60 57 -98t99 -38q54 0 91.5 28t37.5 77q0 45 -33 74.5t-114 57.5l-45 16q-73 26 -121.5 72.5t-48.5 123.5q0 53 28.5 98t80 71t116.5 26q93 0 149 -45.5t76 -102.5l-99 -42q-10 36 -42 62t-83 26q-49 0 -83 -26t-34 -66
q0 -37 30.5 -61.5t94.5 -46.5l46 -16q92 -32 142 -83t50 -136q0 -70 -35.5 -117.5t-91 -70.5t-113.5 -23q-89 0 -160 52z" />
    <glyph glyph-name="uni0406" unicode="&#x406;" horiz-adv-x="271" 
d="M81 716h110v-716h-110v716z" />
    <glyph glyph-name="uni0407" unicode="&#x407;" horiz-adv-x="271" 
d="M12.5 811.5q-17.5 17.5 -17.5 40.5q0 24 17.5 41t40.5 17q25 0 41.5 -17t16.5 -41t-17 -41t-41 -17q-23 0 -40.5 17.5zM177 811.5q-18 17.5 -18 40.5q0 24 17.5 41t41.5 17q25 0 41.5 -17t16.5 -41t-17 -41t-41 -17q-23 0 -41 17.5zM81 716h110v-716h-110v716z" />
    <glyph glyph-name="uni0408" unicode="&#x408;" horiz-adv-x="549" 
d="M112 28.5q-61 44.5 -86 124.5l102 42q16 -55 49 -81t78 -26q53 0 84 36t31 96v496h110v-492q0 -76 -29 -130t-80 -82t-116 -28q-82 0 -143 44.5z" />
    <glyph glyph-name="uni0409" unicode="&#x409;" horiz-adv-x="1089" 
d="M26 -4v105q13 -5 33 -5q41 0 63 24q19 20 26 65t7 133v398h491v-296h169q64 0 117.5 -25t84.5 -72.5t31 -111.5q0 -65 -31 -113t-84.5 -73t-117.5 -25h-278v612h-272v-339q0 -92 -16 -148t-49 -88q-48 -45 -135 -45q-26 0 -39 4zM820 103q52 0 83.5 31t31.5 76
t-31.5 76.5t-83.5 31.5h-174v-215h174z" />
    <glyph glyph-name="uni040A" unicode="&#x40a;" horiz-adv-x="1052" 
d="M81 716h110v-296h308v296h110v-296h169q64 0 117.5 -25t85 -72.5t31.5 -111.5q0 -65 -31.5 -113t-85 -73t-117.5 -25h-279v318h-308v-318h-110v716zM783 103q52 0 83.5 31t31.5 76t-31.5 76.5t-83.5 31.5h-174v-215h174z" />
    <glyph glyph-name="uni040B" unicode="&#x40b;" horiz-adv-x="771" 
d="M219 612h-193v104h498v-104h-196v-174l-6 -73h6q68 73 178 73q58 0 105 -25.5t74.5 -73.5t27.5 -114v-225h-108v204q0 63 -33.5 97.5t-95.5 34.5q-46 0 -84 -21t-64 -58v-257h-109v612z" />
    <glyph glyph-name="uni040C" unicode="&#x40c;" horiz-adv-x="643" 
d="M81 716h110v-347h6l285 347h138v-6l-302 -358l318 -346v-6h-144l-295 328h-6v-328h-110v716zM323 904h122l-80 -131h-89z" />
    <glyph glyph-name="uni040D" unicode="&#x40d;" horiz-adv-x="717" 
d="M81 716h109v-396l-6 -138h6l321 534h125v-716h-109v406l6 138h-6l-326 -544h-120v716zM234 904h123l47 -131h-91z" />
    <glyph glyph-name="uni040E" unicode="&#x40e;" horiz-adv-x="618" 
d="M94 -3v107q34 -19 61 -19t43.5 11t29.5 40l25 53l-238 527h122l169 -400h6l170 400h121l-273 -602q-31 -67 -72.5 -98.5t-98.5 -31.5q-39 0 -65 13zM245.5 785q-30.5 17 -49 46.5t-18.5 65.5h80q0 -22 14 -37.5t38 -15.5q22 0 36 15.5t14 37.5h80q0 -36 -18 -65.5
t-48 -46.5t-64 -17t-64.5 17z" />
    <glyph glyph-name="uni040F" unicode="&#x40f;" horiz-adv-x="694" 
d="M294 0h-213v716h110v-612h313v612h109v-716h-213v-157h-106v157z" />
    <glyph glyph-name="uni0410" unicode="&#x410;" horiz-adv-x="696" 
d="M285 716h125l271 -716h-121l-66 184h-292l-66 -184h-121zM458 286l-80 219l-27 82h-6l-27 -82l-80 -219h220z" />
    <glyph glyph-name="uni0411" unicode="&#x411;" horiz-adv-x="626" 
d="M81 716h432v-102h-322v-192h165q62 0 114.5 -25.5t83.5 -73.5t31 -111q0 -64 -31 -112t-83.5 -74t-114.5 -26h-275v716zM361 103q51 0 82.5 32t31.5 76q0 45 -31 77.5t-83 32.5h-170v-218h170z" />
    <glyph glyph-name="uni0412" unicode="&#x412;" horiz-adv-x="626" 
d="M81 716h268q57 0 106 -25t77.5 -68.5t28.5 -96.5t-26.5 -92.5t-70.5 -60.5v-5q56 -19 89 -63t33 -104q0 -59 -30.5 -104.5t-82 -71t-112.5 -25.5h-280v716zM344 415q50 0 80 30.5t30 70.5t-29.5 69.5t-76.5 29.5h-157v-200h153zM361 102q52 0 83.5 31.5t31.5 75.5
t-32.5 76t-86.5 32h-166v-215h170z" />
    <glyph glyph-name="uni0413" unicode="&#x413;" horiz-adv-x="526" 
d="M81 716h418v-104h-308v-612h-110v716z" />
    <glyph glyph-name="uni0414" unicode="&#x414;" horiz-adv-x="796" 
d="M750 104v-256h-105v152h-494v-152h-105v256h81q39 56 58.5 161.5t19.5 227.5v223h467v-612h78zM564 104v508h-251v-136q0 -114 -17.5 -209.5t-52.5 -162.5h321z" />
    <glyph glyph-name="uni0415" unicode="&#x415;" horiz-adv-x="572" 
d="M81 716h434v-104h-324v-202h292v-104h-292v-202h324v-104h-434v716z" />
    <glyph glyph-name="uni0416" unicode="&#x416;" horiz-adv-x="931" 
d="M6 6l287 345l-274 359v6h133l253 -339h6v339h109v-339h6l253 339h133v-6l-274 -359l287 -345v-6h-141l-258 322h-6v-322h-109v322h-6l-259 -322h-140v6z" />
    <glyph glyph-name="uni0417" unicode="&#x417;" horiz-adv-x="568" 
d="M134.5 30q-67.5 46 -92.5 136l101 40q13 -56 50.5 -88t88.5 -32q55 0 94 34.5t39 85.5q0 33 -19 60.5t-52 43.5t-72 16h-59v96h53q54 0 90 29.5t36 79.5q0 44 -33.5 73t-83.5 29q-45 0 -76 -27t-43 -64l-97 40q21 59 76.5 104.5t140.5 45.5q65 0 115.5 -25.5t79 -70
t28.5 -100.5q0 -104 -91 -154v-6q51 -23 83 -67t32 -107q0 -61 -31.5 -111t-86.5 -78.5t-123 -28.5q-80 0 -147.5 46z" />
    <glyph glyph-name="uni0418" unicode="&#x418;" horiz-adv-x="717" 
d="M81 716h109v-396l-6 -138h6l321 534h125v-716h-109v406l6 138h-6l-326 -544h-120v716z" />
    <glyph glyph-name="uni0419" unicode="&#x419;" horiz-adv-x="717" 
d="M81 716h109v-396l-6 -138h6l321 534h125v-716h-109v406l6 138h-6l-326 -544h-120v716zM295.5 785q-30.5 17 -49 46.5t-18.5 65.5h80q0 -22 14 -37.5t38 -15.5q22 0 36 15.5t14 37.5h80q0 -36 -18 -65.5t-48 -46.5t-64 -17t-64.5 17z" />
    <glyph glyph-name="uni041A" unicode="&#x41a;" horiz-adv-x="643" 
d="M81 716h110v-347h6l285 347h138v-6l-302 -358l318 -346v-6h-144l-295 328h-6v-328h-110v716z" />
    <glyph glyph-name="uni041B" unicode="&#x41b;" horiz-adv-x="727" 
d="M26 -4v105q13 -5 33 -5q41 0 63 24q19 20 26 65t7 133v398h491v-716h-109v612h-272v-339q0 -92 -16 -148t-49 -88q-48 -45 -135 -45q-26 0 -39 4z" />
    <glyph glyph-name="uni041C" unicode="&#x41c;" horiz-adv-x="883" 
d="M81 716h148l209 -545h6l210 545h148v-716h-108v405l6 127h-6l-209 -532h-87l-209 532h-6l6 -127v-405h-108v716z" />
    <glyph glyph-name="uni041D" unicode="&#x41d;" horiz-adv-x="716" 
d="M81 716h110v-298h335v298h109v-716h-109v314h-335v-314h-110v716z" />
    <glyph glyph-name="uni041E" unicode="&#x41e;" horiz-adv-x="832" 
d="M227 34q-85 50 -133.5 135.5t-48.5 188.5t48.5 188.5t133.5 135.5t189 50t188.5 -50t133 -135.5t48.5 -188.5t-48.5 -188.5t-133 -135.5t-188.5 -50t-189 50zM547.5 122.5q59.5 34.5 94 96t34.5 139.5t-34.5 139.5t-94 96t-131.5 34.5t-131.5 -34.5t-94 -96t-34.5 -139.5
t34.5 -139.5t94 -96t131.5 -34.5t131.5 34.5z" />
    <glyph glyph-name="uni041F" unicode="&#x41f;" horiz-adv-x="694" 
d="M81 716h532v-716h-109v612h-313v-612h-110v716z" />
    <glyph glyph-name="uni0420" unicode="&#x420;" horiz-adv-x="593" 
d="M81 716h246q64 0 117.5 -28t85 -78t31.5 -113t-31.5 -113t-85 -78t-117.5 -28h-136v-278h-110v716zM330 382q55 0 88.5 34.5t33.5 80.5t-33.5 80.5t-88.5 34.5h-139v-230h139z" />
    <glyph glyph-name="uni0421" unicode="&#x421;" horiz-adv-x="745" 
d="M228.5 33q-85.5 49 -134.5 135t-49 190t49 190t134.5 135t189.5 49q161 0 265 -117l-77 -75q-37 44 -82.5 66t-104.5 22q-73 0 -133 -33.5t-95 -95t-35 -141.5t35 -141.5t95 -95t133 -33.5q122 0 205 101l79 -76q-52 -61 -125 -95t-160 -34q-104 0 -189.5 49z" />
    <glyph glyph-name="uni0422" unicode="&#x422;" horiz-adv-x="563" 
d="M227 612h-201v104h511v-104h-200v-612h-110v612z" />
    <glyph glyph-name="uni0423" unicode="&#x423;" horiz-adv-x="618" 
d="M94 -3v107q34 -19 61 -19t43.5 11t29.5 40l25 53l-238 527h122l169 -400h6l170 400h121l-273 -602q-31 -67 -72.5 -98.5t-98.5 -31.5q-39 0 -65 13z" />
    <glyph glyph-name="uni0424" unicode="&#x424;" horiz-adv-x="830" 
d="M744.5 213.5q-39.5 -64.5 -110.5 -105t-164 -49.5v-107h-110v107q-93 9 -164.5 49.5t-111 105.5t-39.5 144t39.5 144t111 105.5t164.5 49.5v107h110v-107q93 -9 164 -49.5t110.5 -105t39.5 -144.5t-39.5 -144.5zM210.5 224.5q54.5 -52.5 149.5 -65.5v398
q-95 -13 -149.5 -65.5t-54.5 -133.5t54.5 -133.5zM619.5 225q54.5 53 54.5 133t-54.5 133t-149.5 66v-398q95 13 149.5 66z" />
    <glyph glyph-name="uni0425" unicode="&#x425;" horiz-adv-x="662" 
d="M257 372l-223 344h135l159 -257h6l160 257h134l-223 -344l239 -372h-134l-176 279h-6l-176 -279h-134z" />
    <glyph glyph-name="uni0426" unicode="&#x426;" horiz-adv-x="733" 
d="M579 0h-498v716h110v-612h302v612h109v-612h85v-272h-108v168z" />
    <glyph glyph-name="uni0427" unicode="&#x427;" horiz-adv-x="612" 
d="M443 319q-67 -59 -165 -59q-65 0 -117.5 26.5t-82.5 76.5t-30 118v235h111v-216q0 -65 38 -100.5t102 -35.5q87 0 144 68v284h109v-716h-109v319z" />
    <glyph glyph-name="uni0428" unicode="&#x428;" horiz-adv-x="930" 
d="M81 716h110v-612h220v612h109v-612h220v612h109v-716h-768v716z" />
    <glyph glyph-name="uni0429" unicode="&#x429;" horiz-adv-x="976" 
d="M822 0h-741v716h110v-612h220v612h109v-612h220v612h109v-612h80v-272h-107v168z" />
    <glyph glyph-name="uni042A" unicode="&#x42a;" horiz-adv-x="767" 
d="M216 614h-190v102h300v-255h152q67 0 124 -27.5t91 -80t34 -122.5t-34 -122.5t-91 -80.5t-124 -28h-262v614zM487 103q39 0 68.5 18t45.5 47.5t16 62.5t-16 62.5t-45.5 48t-68.5 18.5h-161v-257h161z" />
    <glyph glyph-name="uni042B" unicode="&#x42b;" horiz-adv-x="858" 
d="M81 716h110v-255h152q67 0 124 -27.5t91 -80t34 -122.5t-34 -122.5t-91 -80.5t-124 -28h-262v716zM668 716h109v-716h-109v716zM351 103q39 0 69 18t46 47.5t16 62.5t-16 62.5t-46 48t-69 18.5h-160v-257h160z" />
    <glyph glyph-name="uni042C" unicode="&#x42c;" horiz-adv-x="632" 
d="M81 716h110v-255h152q67 0 124 -27.5t91 -80t34 -122.5t-34 -122.5t-91 -80.5t-124 -28h-262v716zM351 103q39 0 69 18t46 47.5t16 62.5t-16 62.5t-46 48t-69 18.5h-160v-257h160z" />
    <glyph glyph-name="uni042D" unicode="&#x42d;" horiz-adv-x="743" 
d="M516.5 683q84.5 -49 132.5 -134.5t48 -190.5t-48 -190.5t-132.5 -134.5t-188.5 -49q-87 0 -161 34t-125 95l78 75q40 -48 92.5 -74t115.5 -26q65 0 120.5 27t92 77t46.5 117h-325v98h325q-10 67 -46.5 117t-92 77t-120.5 27q-58 0 -106 -22.5t-83 -65.5l-77 75
q50 57 117.5 87t148.5 30q104 0 188.5 -49z" />
    <glyph glyph-name="uni042E" unicode="&#x42e;" horiz-adv-x="1098" 
d="M870 682q85 -50 133.5 -135.5t48.5 -188.5t-48.5 -188.5t-133.5 -135.5t-189 -50q-97 0 -177.5 43t-131 118.5t-60.5 168.5h-121v-314h-110v716h110v-298h124q13 89 64 160.5t129.5 112.5t172.5 41q104 0 189 -50zM812.5 122.5q59.5 34.5 94 96t34.5 139.5t-34.5 139.5
t-94 96t-131.5 34.5q-71 0 -130.5 -34.5t-94.5 -96t-35 -139.5t35 -139.5t94.5 -96t130.5 -34.5q72 0 131.5 34.5z" />
    <glyph glyph-name="uni042F" unicode="&#x42f;" horiz-adv-x="615" 
d="M19 6l197 284l-1 5q-70 19 -116.5 74.5t-46.5 127.5q0 63 30 113t82.5 78t117.5 28h252v-716h-109v281h-88l-190 -281h-128v6zM425 382v231h-143q-54 0 -86.5 -34.5t-32.5 -80.5q0 -50 35.5 -83t87.5 -33h139z" />
    <glyph glyph-name="uni0430" unicode="&#x430;" horiz-adv-x="546" 
d="M125 5.5q-43 21.5 -67 60.5t-24 89q0 53 28 91.5t76 59t107 20.5q45 0 81.5 -8.5t58.5 -19.5v27q0 49 -36 79.5t-93 30.5q-39 0 -74 -17.5t-56 -47.5l-74 57q33 47 87.5 73t119.5 26q110 0 170.5 -54.5t60.5 -152.5v-319h-105v63h-6q-22 -34 -63 -56.5t-93 -22.5
q-55 0 -98 21.5zM315 91.5q33 19.5 51.5 52.5t18.5 71q-24 14 -55 22t-65 8q-63 0 -92.5 -25t-29.5 -66q0 -36 27 -59t72 -23q40 0 73 19.5z" />
    <glyph glyph-name="uni0431" unicode="&#x431;" horiz-adv-x="618" 
d="M186.5 19.5q-60.5 35.5 -95.5 110.5t-35 189q0 118 27.5 193t75.5 119q37 33 87.5 51t110.5 18q53 0 71.5 7t24.5 26h98q-11 -71 -54.5 -97.5t-132.5 -26.5q-49 0 -80.5 -11.5t-54.5 -31.5q-57 -50 -66 -132h6q27 40 73 66t110 26q67 0 121.5 -36.5t85.5 -98.5t31 -136
q0 -76 -34 -138t-94.5 -97.5t-137.5 -35.5t-137.5 35.5zM403 103.5q36 20.5 58 59.5t22 92q0 52 -22 91t-58 60t-79 21t-79 -21t-57.5 -60t-21.5 -91q0 -53 21.5 -92t57.5 -59.5t79 -20.5t79 20.5z" />
    <glyph glyph-name="uni0432" unicode="&#x432;" horiz-adv-x="523" 
d="M63 510h255q44 0 79.5 -17.5t56 -47.5t20.5 -67q0 -39 -17.5 -68.5t-46.5 -43.5v-6q37 -15 59.5 -45.5t22.5 -68.5q0 -43 -22.5 -76.5t-59 -51.5t-78.5 -18h-269v510zM305 302q28 0 46 17t18 43q0 27 -18.5 43.5t-45.5 16.5h-137v-120h137zM321 90q29 0 48.5 18.5
t19.5 47.5q0 28 -19.5 47t-48.5 19h-153v-132h153z" />
    <glyph glyph-name="uni0433" unicode="&#x433;" horiz-adv-x="447" 
d="M63 510h356v-94h-248v-416h-108v510z" />
    <glyph glyph-name="uni0434" unicode="&#x434;" horiz-adv-x="665" 
d="M32 96h56q22 29 37 92.5t15 131.5v190h417v-414h76v-248h-99v152h-403v-152h-99v248zM453 96v318h-210v-103q0 -59 -11.5 -115t-31.5 -100h253z" />
    <glyph glyph-name="uni0435" unicode="&#x435;" horiz-adv-x="575" 
d="M162.5 19q-59.5 35 -93 96.5t-33.5 138.5q0 73 32.5 135.5t90.5 99.5t131 37q77 0 133 -33.5t85.5 -92.5t29.5 -134q0 -20 -2 -34h-394q7 -73 52 -112.5t105 -39.5q49 0 84 22.5t56 59.5l89 -43q-35 -63 -93 -99t-139 -36q-74 0 -133.5 35zM431 313q-2 28 -18 56
t-46.5 46.5t-75.5 18.5q-54 0 -91.5 -33t-51.5 -88h283z" />
    <glyph glyph-name="uni0436" unicode="&#x436;" horiz-adv-x="767" 
d="M4 6l211 264l-200 234v6h127l181 -221h6v221h108v-221h6l182 221h128v-6l-201 -234l211 -264v-6h-128l-192 246h-6v-246h-108v246h-6l-191 -246h-128v6z" />
    <glyph glyph-name="uni0437" unicode="&#x437;" horiz-adv-x="513" 
d="M139 8q-53 24 -91 68l69 69q60 -68 139 -68q50 0 79 19.5t29 52.5q0 29 -25.5 49.5t-68.5 20.5h-78v80h74q36 0 60 18.5t24 51.5q0 27 -25 47t-68 20q-37 0 -66.5 -13t-55.5 -41l-66 65q38 41 83 60t105 19q55 0 99 -19.5t69 -53.5t25 -75q0 -80 -65 -112v-5
q40 -17 62 -48.5t22 -70.5q0 -73 -57.5 -115.5t-156.5 -42.5q-63 0 -116 24z" />
    <glyph glyph-name="uni0438" unicode="&#x438;" horiz-adv-x="586" 
d="M63 510h108v-253l-6 -96h6l244 349h106v-510h-106v253l6 96h-6l-244 -349h-108v510z" />
    <glyph glyph-name="uni0439" unicode="&#x439;" horiz-adv-x="586" 
d="M63 510h108v-253l-6 -96h6l244 349h106v-510h-106v253l6 96h-6l-244 -349h-108v510zM229.5 620q-30.5 17 -49 47t-18.5 66h80q0 -22 14 -37.5t38 -15.5q22 0 36 15.5t14 37.5h80q0 -36 -18 -66t-48 -47t-64 -17t-64.5 17z" />
    <glyph glyph-name="uni043A" unicode="&#x43a;" horiz-adv-x="514" 
d="M63 510h108v-226h6l191 226h132v-6l-208 -236l218 -262v-6h-130l-203 251h-6v-251h-108v510z" />
    <glyph glyph-name="uni043B" unicode="&#x43b;" horiz-adv-x="639" 
d="M49 0v95q16 -5 34 -5q22 0 34 14.5t17 48.5t5 95v262h437v-510h-105v413h-229v-195q0 -226 -141 -226q-33 0 -52 8z" />
    <glyph glyph-name="uni043C" unicode="&#x43c;" horiz-adv-x="707" 
d="M62 510h128l161 -310h5l161 310h128v-510h-105v248l6 96h-6l-148 -280h-76l-149 280h-6l6 -96v-248h-105v510z" />
    <glyph glyph-name="uni043D" unicode="&#x43d;" horiz-adv-x="592" 
d="M63 510h108v-202h251v202h106v-510h-106v208h-251v-208h-108v510z" />
    <glyph glyph-name="uni043E" unicode="&#x43e;" horiz-adv-x="605" 
d="M165 19.5q-61 35.5 -95 97.5t-34 138t34 138t95 97.5t138 35.5q76 0 137 -36t95 -98t34 -137q0 -76 -34 -138t-94.5 -97.5t-137.5 -35.5t-138 35.5zM382 104q36 21 58 60t22 91t-22 91t-58 60t-79 21t-79.5 -21t-58.5 -60t-22 -91t22 -91t58.5 -60t79.5 -21t79 21z" />
    <glyph glyph-name="uni043F" unicode="&#x43f;" horiz-adv-x="578" 
d="M63 510h452v-510h-108v411h-236v-411h-108v510z" />
    <glyph glyph-name="uni0440" unicode="&#x440;" horiz-adv-x="612" 
d="M59 510h102v-69h6q22 36 65.5 60.5t98.5 24.5q69 0 125 -35t88 -96.5t32 -139.5t-32 -140t-88 -96.5t-125 -34.5q-55 0 -98.5 24.5t-65.5 59.5h-6l6 -71v-213h-108v726zM391.5 104.5q35.5 21.5 56.5 60.5t21 90t-21 90t-56.5 60.5t-76.5 21.5q-40 0 -75.5 -21.5
t-57 -60.5t-21.5 -90t21.5 -90t57 -60.5t75.5 -21.5q41 0 76.5 21.5z" />
    <glyph glyph-name="uni0441" unicode="&#x441;" horiz-adv-x="559" 
d="M163 19q-60 35 -93.5 96.5t-33.5 139.5t33.5 139.5t93.5 96.5t136 35q84 0 142.5 -37.5t84.5 -103.5l-98 -40q-36 82 -131 82q-42 0 -77.5 -21.5t-56 -60.5t-20.5 -90t20.5 -90t56 -60.5t77.5 -21.5q48 0 82.5 21.5t53.5 62.5l97 -42q-30 -65 -89 -103t-142 -38
q-76 0 -136 35z" />
    <glyph glyph-name="uni0442" unicode="&#x442;" horiz-adv-x="489" 
d="M191 411h-163v99h433v-99h-163v-411h-107v411z" />
    <glyph glyph-name="uni0443" unicode="&#x443;" horiz-adv-x="547" 
d="M221 28l-213 482h120l146 -348h5l141 348h119l-315 -726h-115z" />
    <glyph glyph-name="uni0444" unicode="&#x444;" horiz-adv-x="783" 
d="M701 122q-37 -58 -103.5 -92.5t-152.5 -42.5v-203h-107v203q-86 8 -152.5 42.5t-103.5 92.5t-37 133t37 133t103.5 92.5t152.5 42.5v193h107v-193q86 -8 152.5 -42.5t103.5 -92.5t37 -133t-37 -133zM583.5 139q50.5 45 50.5 116q0 70 -50.5 115.5t-138.5 56.5v-344
q88 11 138.5 56zM199.5 139q50.5 -45 138.5 -56v344q-88 -11 -138.5 -56.5t-50.5 -115.5q0 -71 50.5 -116z" />
    <glyph glyph-name="uni0445" unicode="&#x445;" horiz-adv-x="511" 
d="M192 259l-176 251h125l114 -168h3l109 168h130l-179 -251l180 -259h-126l-116 173h-3l-113 -173h-127z" />
    <glyph glyph-name="uni0446" unicode="&#x446;" horiz-adv-x="621" 
d="M489 0h-426v510h108v-413h236v413h108v-413h74v-249h-100v152z" />
    <glyph glyph-name="uni0447" unicode="&#x447;" horiz-adv-x="535" 
d="M364 187q-47 -29 -125 -29q-60 0 -105.5 25t-70.5 69t-25 100v158h110v-152q0 -49 29 -75.5t81 -26.5q33 0 61 8.5t45 24.5v221h107v-510h-107v187z" />
    <glyph glyph-name="uni0448" unicode="&#x448;" horiz-adv-x="815" 
d="M63 510h107v-413h174v413h107v-413h174v413h107v-510h-669v510z" />
    <glyph glyph-name="uni0449" unicode="&#x449;" horiz-adv-x="861" 
d="M706 0h-643v510h107v-413h174v413h107v-413h174v413h107v-413h74v-249h-100v152z" />
    <glyph glyph-name="uni044A" unicode="&#x44a;" horiz-adv-x="610" 
d="M152 420h-124v90h228v-175h144q80 0 131 -46t51 -122t-51 -121.5t-131 -45.5h-248v420zM396 90q36 0 59.5 21t23.5 56q0 36 -23.5 57.5t-59.5 21.5h-140v-156h140z" />
    <glyph glyph-name="uni044B" unicode="&#x44b;" horiz-adv-x="734" 
d="M63 510h105v-175h143q81 0 132 -46t51 -122t-51 -121.5t-132 -45.5h-248v510zM565 510h105v-510h-105v510zM308 90q36 0 59.5 21t23.5 56q0 36 -23.5 57.5t-59.5 21.5h-140v-156h140z" />
    <glyph glyph-name="uni044C" unicode="&#x44c;" horiz-adv-x="522" 
d="M63 510h105v-175h143q81 0 132 -46t51 -122t-51 -121.5t-132 -45.5h-248v510zM308 90q36 0 59.5 21t23.5 56q0 36 -23.5 57.5t-59.5 21.5h-140v-156h140z" />
    <glyph glyph-name="uni044D" unicode="&#x44d;" horiz-adv-x="551" 
d="M114.5 22q-57.5 38 -85.5 103l90 39q18 -42 53 -65t85 -23q58 0 101.5 37.5t55.5 100.5h-220v81h220q-11 63 -55 101t-102 38q-47 0 -81.5 -22.5t-51.5 -63.5l-91 37q26 67 82.5 104t139.5 37q75 0 134.5 -35t92.5 -96.5t33 -139.5t-33 -139.5t-92.5 -96.5t-134.5 -35
q-83 0 -140.5 38z" />
    <glyph glyph-name="uni044E" unicode="&#x44e;" horiz-adv-x="829" 
d="M401 12.5q-56 28.5 -91.5 79.5t-45.5 115h-90v-207h-108v510h108v-203h91q11 63 46.5 113t91 78t123.5 28q77 0 137.5 -36t94.5 -98t34 -137q0 -76 -34 -138t-94.5 -97.5t-137.5 -35.5q-69 0 -125 28.5zM605 104q36 21 58 60t22 91t-22 91t-58 60t-79 21t-79 -21t-58 -60
t-22 -91t22 -91t58 -60t79 -21t79 21z" />
    <glyph glyph-name="uni044F" unicode="&#x44f;" horiz-adv-x="515" 
d="M3 6l139 179l-2 4q-51 15 -82 57.5t-31 96.5q0 47 24 85.5t64.5 60t89.5 21.5h246v-510h-104v178h-93l-133 -178h-118v6zM347 264v156h-133q-35 0 -58.5 -21.5t-23.5 -55.5q0 -35 23.5 -57t58.5 -22h133z" />
    <glyph glyph-name="uni0450" unicode="&#x450;" horiz-adv-x="575" 
d="M162.5 19q-59.5 35 -93 96.5t-33.5 138.5q0 73 32.5 135.5t90.5 99.5t131 37q77 0 133 -33.5t85.5 -92.5t29.5 -134q0 -20 -2 -34h-394q7 -73 52 -112.5t105 -39.5q49 0 84 22.5t56 59.5l89 -43q-35 -63 -93 -99t-139 -36q-74 0 -133.5 35zM431 313q-2 28 -18 56
t-46.5 46.5t-75.5 18.5q-54 0 -91.5 -33t-51.5 -88h283zM166 740h123l47 -131h-91z" />
    <glyph glyph-name="uni0451" unicode="&#x451;" horiz-adv-x="575" 
d="M162.5 19q-59.5 35 -93 96.5t-33.5 138.5q0 73 32.5 135.5t90.5 99.5t131 37q77 0 133 -33.5t85.5 -92.5t29.5 -134q0 -20 -2 -34h-394q7 -73 52 -112.5t105 -39.5q49 0 84 22.5t56 59.5l89 -43q-35 -63 -93 -99t-139 -36q-74 0 -133.5 35zM431 313q-2 28 -18 56
t-46.5 46.5t-75.5 18.5q-54 0 -91.5 -33t-51.5 -88h283zM157.5 634.5q-18.5 18.5 -18.5 44.5t18 44t44 18q27 0 44.5 -18t17.5 -44t-17.5 -44.5t-44.5 -18.5q-25 0 -43.5 18.5zM334.5 635q-18.5 19 -18.5 44q0 26 18.5 44t43.5 18q27 0 45 -18t18 -44t-18 -44.5t-45 -18.5
q-25 0 -43.5 19z" />
    <glyph glyph-name="uni0452" unicode="&#x452;" horiz-adv-x="583" 
d="M316 -219v104q24 -13 47 -13q28 0 40.5 17t12.5 51v368q0 59 -31.5 89t-80.5 30q-37 0 -67.5 -21.5t-48 -57.5t-17.5 -76v-272h-108v577h-61v79h61v60h108v-60h147v-79h-147v-57l-6 -80h6q22 38 65.5 62t95.5 24q93 0 142 -55.5t49 -148.5v-383q0 -84 -41 -124.5
t-110 -40.5q-31 0 -56 7z" />
    <glyph glyph-name="uni0453" unicode="&#x453;" horiz-adv-x="447" 
d="M63 510h356v-94h-248v-416h-108v510zM244 740h122l-80 -131h-89z" />
    <glyph glyph-name="uni0454" unicode="&#x454;" horiz-adv-x="549" 
d="M160.5 19q-59.5 35 -93 96.5t-33.5 139.5t34 139.5t93.5 96.5t134.5 35q83 0 138.5 -37t81.5 -104l-90 -37q-17 42 -51 64t-81 22q-58 0 -102.5 -38t-55.5 -101h219v-81h-219q12 -63 56 -100.5t102 -37.5q49 0 84 23t53 65l89 -39q-28 -65 -84.5 -103t-139.5 -38
q-76 0 -135.5 35z" />
    <glyph glyph-name="uni0455" unicode="&#x455;" horiz-adv-x="489" 
d="M105.5 22q-56.5 38 -79.5 99l97 42q18 -41 51 -62.5t75 -21.5q43 0 72 15.5t29 46.5q0 28 -24.5 44.5t-76.5 28.5l-61 14q-61 15 -101 53t-40 96q0 44 26.5 78t71 52.5t97.5 18.5q72 0 125.5 -28t77.5 -82l-93 -42q-31 61 -109 61q-38 0 -63.5 -16t-25.5 -40
q0 -45 78 -65l74 -18q75 -19 113.5 -57t38.5 -94q0 -48 -27.5 -84.5t-75.5 -56.5t-106 -20q-87 0 -143.5 38z" />
    <glyph glyph-name="uni0456" unicode="&#x456;" horiz-adv-x="250" 
d="M73.5 606.5q-21.5 21.5 -21.5 51.5t21.5 51t51.5 21t51.5 -21t21.5 -51t-21.5 -51.5t-51.5 -21.5t-51.5 21.5zM71 510h108v-510h-108v510z" />
    <glyph glyph-name="uni0457" unicode="&#x457;" horiz-adv-x="251" 
d="M7 636q-18 18 -18 43t18 43t43 18q26 0 43.5 -17.5t17.5 -43.5q0 -25 -17.5 -43t-43.5 -18q-25 0 -43 18zM157.5 636q-18.5 18 -18.5 43t18 43t44 18t43.5 -17.5t17.5 -43.5q0 -25 -18 -43t-43 -18t-43.5 18zM71 510h108v-510h-108v510z" />
    <glyph glyph-name="uni0458" unicode="&#x458;" horiz-adv-x="250" 
d="M73.5 606.5q-21.5 21.5 -21.5 51.5t21.5 51t51.5 21t51.5 -21t21.5 -51t-21.5 -51.5t-51.5 -21.5t-51.5 21.5zM-28 -219v104q24 -13 47 -13q28 0 40 17t12 51v570h108v-571q0 -84 -41 -124.5t-110 -40.5q-31 0 -56 7z" />
    <glyph glyph-name="uni0459" unicode="&#x459;" horiz-adv-x="927" 
d="M50 0v95q15 -5 33 -5q22 0 34 14.5t17 48.5t5 95v262h437v-184h145q49 0 89.5 -20t63.5 -57.5t23 -85.5t-23 -85.5t-63.5 -57.5t-89.5 -20h-250v413h-229v-195q0 -226 -141 -226q-34 0 -51 8zM716 90q36 0 57 19.5t21 53.5t-21 53.5t-57 19.5h-140v-146h140z" />
    <glyph glyph-name="uni045A" unicode="&#x45a;" horiz-adv-x="863" 
d="M63 510h108v-184h220v184h107v-184h158q49 0 89.5 -20t63.5 -57.5t23 -85.5t-23 -85.5t-63.5 -57.5t-89.5 -20h-265v236h-220v-236h-108v510zM649 90q37 0 58.5 19.5t21.5 53.5t-21.5 53.5t-58.5 19.5h-151v-146h151z" />
    <glyph glyph-name="uni045B" unicode="&#x45b;" horiz-adv-x="583" 
d="M474 470.5q49 -55.5 49 -148.5v-322h-107v308q0 59 -31.5 89t-80.5 30q-37 0 -67.5 -21.5t-48 -57.5t-17.5 -76v-272h-108v577h-61v79h61v60h108v-60h147v-79h-147v-57l-6 -80h6q22 38 65.5 62t95.5 24q93 0 142 -55.5z" />
    <glyph glyph-name="uni045C" unicode="&#x45c;" horiz-adv-x="514" 
d="M63 510h108v-226h6l191 226h132v-6l-208 -236l218 -262v-6h-130l-203 251h-6v-251h-108v510zM259 740h122l-80 -131h-89z" />
    <glyph glyph-name="uni045D" unicode="&#x45d;" horiz-adv-x="586" 
d="M63 510h108v-253l-6 -96h6l244 349h106v-510h-106v253l6 96h-6l-244 -349h-108v510zM168 740h123l47 -131h-91z" />
    <glyph glyph-name="uni045E" unicode="&#x45e;" horiz-adv-x="547" 
d="M221 28l-213 482h120l146 -348h5l141 348h119l-315 -726h-115zM210.5 620q-30.5 17 -49 47t-18.5 66h80q0 -22 14 -37.5t38 -15.5q22 0 36 15.5t14 37.5h80q0 -36 -18 -66t-48 -47t-64 -17t-64.5 17z" />
    <glyph glyph-name="uni045F" unicode="&#x45f;" horiz-adv-x="592" 
d="M247 0h-184v510h108v-411h250v411h107v-510h-182v-152h-99v152z" />
    <glyph glyph-name="uni0490" unicode="&#x490;" horiz-adv-x="526" 
d="M71 716h325v116h107v-220h-322v-612h-110v716z" />
    <glyph glyph-name="uni0491" unicode="&#x491;" horiz-adv-x="438" 
d="M63 510h255v101h97v-195h-244v-416h-108v510z" />
    <glyph glyph-name="uni04AE" unicode="&#x4ae;" horiz-adv-x="618" 
d="M257 332l-242 384h130l163 -269h6l159 269h131l-238 -384v-332h-109v332z" />
    <glyph glyph-name="uni04AF" unicode="&#x4af;" horiz-adv-x="537" 
d="M213 0l-206 510h119l142 -381l145 381h117l-209 -510v-216h-108v216z" />
    <glyph glyph-name="uni04B0" unicode="&#x4b0;" horiz-adv-x="618" 
d="M257 271h-176v82h162l-228 363h130l163 -269h6l159 269h131l-225 -363h162v-82h-175v-271h-109v271z" />
    <glyph glyph-name="uni04B1" unicode="&#x4b1;" horiz-adv-x="537" 
d="M213 0h-144v77h114l-15 34l-161 399h119l142 -381l145 381h117l-163 -398l-15 -35h113v-77h-144v-216h-108v216z" />
    <glyph glyph-name="uni0E3F" unicode="&#xe3f;" horiz-adv-x="596" 
d="M257 0h-186v684h186v100h80v-100h1q54 0 101 -24t75 -65.5t28 -92.5q0 -50 -25.5 -87.5t-68.5 -57.5v-5q53 -19 85 -60.5t32 -98.5t-29.5 -101t-80 -68t-109.5 -24h-9v-100h-80v100zM257 397v187h-78v-187h78zM338 397q45 1 72 29t27 65t-26.5 64.5t-69.5 28.5h-4v-187h1
zM257 100v202h-78v-202h78zM349 100q49 1 78.5 31t29.5 71t-29.5 70.5t-81.5 29.5h-9v-202h12z" />
    <glyph glyph-name="Wgrave" unicode="&#x1e80;" horiz-adv-x="964" 
d="M17 716h122l114 -465l12 -62h6l15 62l144 465h110l138 -465l15 -61h6l12 61l114 465h121l-189 -716h-116l-137 475l-16 67h-6l-17 -67l-143 -475h-113zM360 904h123l47 -131h-91z" />
    <glyph glyph-name="wgrave" unicode="&#x1e81;" horiz-adv-x="805" 
d="M7 510h117l105 -367h4l115 367h111l115 -367h4l105 367h115l-164 -510h-113l-118 369h-4l-117 -369h-112zM278 740h123l47 -131h-91z" />
    <glyph glyph-name="Wacute" unicode="&#x1e82;" horiz-adv-x="964" 
d="M17 716h122l114 -465l12 -62h6l15 62l144 465h110l138 -465l15 -61h6l12 61l114 465h121l-189 -716h-116l-137 475l-16 67h-6l-17 -67l-143 -475h-113zM487 904h122l-80 -131h-89z" />
    <glyph glyph-name="wacute" unicode="&#x1e83;" horiz-adv-x="805" 
d="M7 510h117l105 -367h4l115 367h111l115 -367h4l105 367h115l-164 -510h-113l-118 369h-4l-117 -369h-112zM405 740h122l-80 -131h-89z" />
    <glyph glyph-name="Wdieresis" unicode="&#x1e84;" horiz-adv-x="964" 
d="M17 716h122l114 -465l12 -62h6l15 62l144 465h110l138 -465l15 -61h6l12 61l114 465h121l-189 -716h-116l-137 475l-16 67h-6l-17 -67l-143 -475h-113zM352.5 799q-18.5 19 -18.5 44q0 26 18 44.5t44 18.5q27 0 44.5 -18t17.5 -45q0 -25 -18 -44t-44 -19q-25 0 -43.5 19z
M529.5 799q-18.5 19 -18.5 44q0 26 18.5 44.5t43.5 18.5q27 0 45 -18.5t18 -44.5q0 -25 -18.5 -44t-44.5 -19q-25 0 -43.5 19z" />
    <glyph glyph-name="wdieresis" unicode="&#x1e85;" horiz-adv-x="805" 
d="M7 510h117l105 -367h4l115 367h111l115 -367h4l105 367h115l-164 -510h-113l-118 369h-4l-117 -369h-112zM270.5 634.5q-18.5 18.5 -18.5 44.5t18 44t44 18q27 0 44.5 -18t17.5 -44t-17.5 -44.5t-44.5 -18.5q-25 0 -43.5 18.5zM447.5 635q-18.5 19 -18.5 44q0 26 18.5 44
t43.5 18q27 0 45 -18t18 -44t-18 -44.5t-45 -18.5q-25 0 -43.5 19z" />
    <glyph glyph-name="uni1EA0" unicode="&#x1ea0;" horiz-adv-x="696" 
d="M285 716h125l271 -716h-121l-66 184h-292l-66 -184h-121zM458 286l-80 219l-27 82h-6l-27 -82l-80 -219h220zM302 -187.5q-19 19.5 -19 45.5q0 27 19 45.5t45 18.5q28 0 46 -18.5t18 -45.5t-18.5 -46t-45.5 -19q-26 0 -45 19.5z" />
    <glyph glyph-name="uni1EA1" unicode="&#x1ea1;" horiz-adv-x="546" 
d="M125 5.5q-43 21.5 -67 60.5t-24 89q0 53 28 91.5t76 59t107 20.5q45 0 81.5 -8.5t58.5 -19.5v27q0 49 -36 79.5t-93 30.5q-39 0 -74 -17.5t-56 -47.5l-74 57q33 47 87.5 73t119.5 26q110 0 170.5 -54.5t60.5 -152.5v-319h-105v63h-6q-22 -34 -63 -56.5t-93 -22.5
q-55 0 -98 21.5zM315 91.5q33 19.5 51.5 52.5t18.5 71q-24 14 -55 22t-65 8q-63 0 -92.5 -25t-29.5 -66q0 -36 27 -59t72 -23q40 0 73 19.5zM218 -187.5q-19 19.5 -19 45.5q0 27 19 45.5t45 18.5q28 0 46 -18.5t18 -45.5t-18.5 -46t-45.5 -19q-26 0 -45 19.5z" />
    <glyph glyph-name="uni1EA2" unicode="&#x1ea2;" horiz-adv-x="696" 
d="M285 716h125l271 -716h-121l-66 184h-292l-66 -184h-121zM458 286l-80 219l-27 82h-6l-27 -82l-80 -219h220zM306 818q50 17 50 50q0 16 -10.5 24.5t-29.5 8.5q-29 0 -53 -11l-25 59q36 17 88 17q51 0 78.5 -23.5t27.5 -67.5q0 -48 -29.5 -77t-81.5 -41z" />
    <glyph glyph-name="uni1EA3" unicode="&#x1ea3;" horiz-adv-x="546" 
d="M125 5.5q-43 21.5 -67 60.5t-24 89q0 53 28 91.5t76 59t107 20.5q45 0 81.5 -8.5t58.5 -19.5v27q0 49 -36 79.5t-93 30.5q-39 0 -74 -17.5t-56 -47.5l-74 57q33 47 87.5 73t119.5 26q110 0 170.5 -54.5t60.5 -152.5v-319h-105v63h-6q-22 -34 -63 -56.5t-93 -22.5
q-55 0 -98 21.5zM315 91.5q33 19.5 51.5 52.5t18.5 71q-24 14 -55 22t-65 8q-63 0 -92.5 -25t-29.5 -66q0 -36 27 -59t72 -23q40 0 73 19.5zM218 629q28 8 41 19.5t13 29.5q0 15 -11 23t-30 8q-28 0 -52 -11l-20 60q44 16 83 16q51 0 78.5 -23.5t27.5 -67.5q0 -48 -29 -75
t-82 -36z" />
    <glyph glyph-name="uni1EA4" unicode="&#x1ea4;" horiz-adv-x="696" 
d="M285 716h125l271 -716h-121l-66 184h-292l-66 -184h-121zM458 286l-80 219l-27 82h-6l-27 -82l-80 -219h220zM489 1000h121l-83 -124h-82zM193 762l108 120h94l109 -120v-7h-104l-47 58h-10l-47 -58h-103v7z" />
    <glyph glyph-name="uni1EA5" unicode="&#x1ea5;" horiz-adv-x="546" 
d="M125 5.5q-43 21.5 -67 60.5t-24 89q0 53 28 91.5t76 59t107 20.5q45 0 81.5 -8.5t58.5 -19.5v27q0 49 -36 79.5t-93 30.5q-39 0 -74 -17.5t-56 -47.5l-74 57q33 47 87.5 73t119.5 26q110 0 170.5 -54.5t60.5 -152.5v-319h-105v63h-6q-22 -34 -63 -56.5t-93 -22.5
q-55 0 -98 21.5zM315 91.5q33 19.5 51.5 52.5t18.5 71q-24 14 -55 22t-65 8q-63 0 -92.5 -25t-29.5 -66q0 -36 27 -59t72 -23q40 0 73 19.5zM405 857h121l-83 -124h-82zM109 615l108 121h94l109 -121v-7h-104l-47 58h-10l-47 -58h-103v7z" />
    <glyph glyph-name="uni1EA6" unicode="&#x1ea6;" horiz-adv-x="696" 
d="M285 716h125l271 -716h-121l-66 184h-292l-66 -184h-121zM458 286l-80 219l-27 82h-6l-27 -82l-80 -219h220zM373 1000h122l44 -124h-82zM192 762l108 120h94l109 -120v-7h-104l-47 58h-10l-47 -58h-103v7z" />
    <glyph glyph-name="uni1EA7" unicode="&#x1ea7;" horiz-adv-x="546" 
d="M125 5.5q-43 21.5 -67 60.5t-24 89q0 53 28 91.5t76 59t107 20.5q45 0 81.5 -8.5t58.5 -19.5v27q0 49 -36 79.5t-93 30.5q-39 0 -74 -17.5t-56 -47.5l-74 57q33 47 87.5 73t119.5 26q110 0 170.5 -54.5t60.5 -152.5v-319h-105v63h-6q-22 -34 -63 -56.5t-93 -22.5
q-55 0 -98 21.5zM315 91.5q33 19.5 51.5 52.5t18.5 71q-24 14 -55 22t-65 8q-63 0 -92.5 -25t-29.5 -66q0 -36 27 -59t72 -23q40 0 73 19.5zM289 855h122l44 -124h-82zM108 615l108 120h94l109 -120v-7h-104l-47 58h-10l-47 -58h-103v7z" />
    <glyph glyph-name="uni1EA8" unicode="&#x1ea8;" horiz-adv-x="696" 
d="M285 716h125l271 -716h-121l-66 184h-292l-66 -184h-121zM458 286l-80 219l-27 82h-6l-27 -82l-80 -219h220zM467 857q32 21 32 46q0 16 -10 24t-27 8q-20 0 -40 -8v67q28 6 52 6q49 0 75 -22.5t26 -63.5q0 -37 -17.5 -64t-47.5 -42zM193 762l108 120h94l109 -120v-7
h-104l-47 58h-10l-47 -58h-103v7z" />
    <glyph glyph-name="uni1EA9" unicode="&#x1ea9;" horiz-adv-x="546" 
d="M125 5.5q-43 21.5 -67 60.5t-24 89q0 53 28 91.5t76 59t107 20.5q45 0 81.5 -8.5t58.5 -19.5v27q0 49 -36 79.5t-93 30.5q-39 0 -74 -17.5t-56 -47.5l-74 57q33 47 87.5 73t119.5 26q110 0 170.5 -54.5t60.5 -152.5v-319h-105v63h-6q-22 -34 -63 -56.5t-93 -22.5
q-55 0 -98 21.5zM315 91.5q33 19.5 51.5 52.5t18.5 71q-24 14 -55 22t-65 8q-63 0 -92.5 -25t-29.5 -66q0 -36 27 -59t72 -23q40 0 73 19.5zM387 703q33 30 33 53q0 16 -10 24t-27 8q-20 0 -40 -8v67q28 6 52 6q49 0 75 -22.5t26 -63.5q0 -66 -67 -111zM109 615l108 120h94
l109 -120v-7h-104l-47 58h-10l-47 -58h-103v7z" />
    <glyph glyph-name="uni1EAA" unicode="&#x1eaa;" horiz-adv-x="696" 
d="M285 716h125l271 -716h-121l-66 184h-292l-66 -184h-121zM458 286l-80 219l-27 82h-6l-27 -82l-80 -219h220zM224 975.5q26 24.5 66 24.5q18 0 31.5 -4t31.5 -12q10 -5 20 -8.5t20 -3.5q26 0 32 28h73q0 -42 -26 -66.5t-66 -24.5q-21 0 -35.5 4.5t-30.5 12.5
q-24 11 -38 11q-26 0 -31 -28h-73q0 42 26 66.5zM193 762l107 120h95l108 -120v-7h-103l-48 58h-10l-46 -58h-103v7z" />
    <glyph glyph-name="uni1EAB" unicode="&#x1eab;" horiz-adv-x="546" 
d="M125 5.5q-43 21.5 -67 60.5t-24 89q0 53 28 91.5t76 59t107 20.5q45 0 81.5 -8.5t58.5 -19.5v27q0 49 -36 79.5t-93 30.5q-39 0 -74 -17.5t-56 -47.5l-74 57q33 47 87.5 73t119.5 26q110 0 170.5 -54.5t60.5 -152.5v-319h-105v63h-6q-22 -34 -63 -56.5t-93 -22.5
q-55 0 -98 21.5zM315 91.5q33 19.5 51.5 52.5t18.5 71q-24 14 -55 22t-65 8q-63 0 -92.5 -25t-29.5 -66q0 -36 27 -59t72 -23q40 0 73 19.5zM139 830.5q26 24.5 66 24.5q18 0 31.5 -4t31.5 -12q10 -5 20 -8.5t20 -3.5q26 0 32 28h73q0 -42 -26 -66.5t-66 -24.5
q-21 0 -35.5 4.5t-30.5 12.5q-24 11 -38 11q-26 0 -31 -28h-73q0 42 26 66.5zM108 615l107 120h95l108 -120v-7h-103l-48 58h-10l-46 -58h-103v7z" />
    <glyph glyph-name="uni1EAC" unicode="&#x1eac;" horiz-adv-x="696" 
d="M285 716h125l271 -716h-121l-66 184h-292l-66 -184h-121zM458 286l-80 219l-27 82h-6l-27 -82l-80 -219h220zM302 -187.5q-19 19.5 -19 45.5q0 27 19 45.5t45 18.5q28 0 46 -18.5t18 -45.5t-18.5 -46t-45.5 -19q-26 0 -45 19.5zM194 785l107 121h95l108 -121v-6h-104
l-47 61h-10l-46 -61h-103v6z" />
    <glyph glyph-name="uni1EAD" unicode="&#x1ead;" horiz-adv-x="546" 
d="M125 5.5q-43 21.5 -67 60.5t-24 89q0 53 28 91.5t76 59t107 20.5q45 0 81.5 -8.5t58.5 -19.5v27q0 49 -36 79.5t-93 30.5q-39 0 -74 -17.5t-56 -47.5l-74 57q33 47 87.5 73t119.5 26q110 0 170.5 -54.5t60.5 -152.5v-319h-105v63h-6q-22 -34 -63 -56.5t-93 -22.5
q-55 0 -98 21.5zM315 91.5q33 19.5 51.5 52.5t18.5 71q-24 14 -55 22t-65 8q-63 0 -92.5 -25t-29.5 -66q0 -36 27 -59t72 -23q40 0 73 19.5zM218 -187.5q-19 19.5 -19 45.5q0 27 19 45.5t45 18.5q28 0 46 -18.5t18 -45.5t-18.5 -46t-45.5 -19q-26 0 -45 19.5zM109 615
l107 121h95l108 -121v-7h-104l-47 61h-10l-46 -61h-103v7z" />
    <glyph glyph-name="uni1EAE" unicode="&#x1eae;" horiz-adv-x="696" 
d="M285 716h125l271 -716h-121l-66 184h-292l-66 -184h-121zM458 286l-80 219l-27 82h-6l-27 -82l-80 -219h220zM351 1000h115l-78 -92h-77zM243.5 789q-42.5 37 -44.5 91h80q2 -23 21 -39.5t49 -16.5t49.5 16.5t21.5 39.5h80q-2 -54 -44.5 -91t-106.5 -37q-63 0 -105.5 37z
" />
    <glyph glyph-name="uni1EAF" unicode="&#x1eaf;" horiz-adv-x="546" 
d="M125 5.5q-43 21.5 -67 60.5t-24 89q0 53 28 91.5t76 59t107 20.5q45 0 81.5 -8.5t58.5 -19.5v27q0 49 -36 79.5t-93 30.5q-39 0 -74 -17.5t-56 -47.5l-74 57q33 47 87.5 73t119.5 26q110 0 170.5 -54.5t60.5 -152.5v-319h-105v63h-6q-22 -34 -63 -56.5t-93 -22.5
q-55 0 -98 21.5zM315 91.5q33 19.5 51.5 52.5t18.5 71q-24 14 -55 22t-65 8q-63 0 -92.5 -25t-29.5 -66q0 -36 27 -59t72 -23q40 0 73 19.5zM269 857h115l-77 -107h-82zM164.5 621q-40.5 38 -42.5 94h82q2 -25 18.5 -41.5t43.5 -16.5t43.5 16.5t19.5 41.5h82
q-2 -56 -42.5 -94t-102.5 -38q-61 0 -101.5 38z" />
    <glyph glyph-name="uni1EB0" unicode="&#x1eb0;" horiz-adv-x="696" 
d="M285 716h125l271 -716h-121l-66 184h-292l-66 -184h-121zM458 286l-80 219l-27 82h-6l-27 -82l-80 -219h220zM235 1000h114l40 -92h-77zM243.5 789q-42.5 37 -44.5 91h80q2 -23 21 -39.5t49 -16.5t49.5 16.5t21.5 39.5h80q-2 -54 -44.5 -91t-106.5 -37q-63 0 -105.5 37z
" />
    <glyph glyph-name="uni1EB1" unicode="&#x1eb1;" horiz-adv-x="546" 
d="M125 5.5q-43 21.5 -67 60.5t-24 89q0 53 28 91.5t76 59t107 20.5q45 0 81.5 -8.5t58.5 -19.5v27q0 49 -36 79.5t-93 30.5q-39 0 -74 -17.5t-56 -47.5l-74 57q33 47 87.5 73t119.5 26q110 0 170.5 -54.5t60.5 -152.5v-319h-105v63h-6q-22 -34 -63 -56.5t-93 -22.5
q-55 0 -98 21.5zM315 91.5q33 19.5 51.5 52.5t18.5 71q-24 14 -55 22t-65 8q-63 0 -92.5 -25t-29.5 -66q0 -36 27 -59t72 -23q40 0 73 19.5zM147 857h115l44 -107h-82zM162.5 621q-40.5 38 -42.5 94h82q2 -25 18.5 -41.5t43.5 -16.5t43.5 16.5t19.5 41.5h82
q-2 -56 -42.5 -94t-102.5 -38q-61 0 -101.5 38z" />
    <glyph glyph-name="uni1EB2" unicode="&#x1eb2;" horiz-adv-x="696" 
d="M285 716h125l271 -716h-121l-66 184h-292l-66 -184h-121zM458 286l-80 219l-27 82h-6l-27 -82l-80 -219h220zM313 879q17 11 17 31q0 12 -8.5 18.5t-23.5 6.5q-17 0 -39 -10v66q27 9 52 9q94 0 94 -82q0 -30 -14.5 -49.5t-39.5 -24.5zM241.5 789q-42.5 37 -44.5 91h80
q2 -23 21 -39.5t49 -16.5t49.5 16.5t21.5 39.5h80q-2 -54 -44.5 -91t-106.5 -37q-63 0 -105.5 37z" />
    <glyph glyph-name="uni1EB3" unicode="&#x1eb3;" horiz-adv-x="546" 
d="M125 5.5q-43 21.5 -67 60.5t-24 89q0 53 28 91.5t76 59t107 20.5q45 0 81.5 -8.5t58.5 -19.5v27q0 49 -36 79.5t-93 30.5q-39 0 -74 -17.5t-56 -47.5l-74 57q33 47 87.5 73t119.5 26q110 0 170.5 -54.5t60.5 -152.5v-319h-105v63h-6q-22 -34 -63 -56.5t-93 -22.5
q-55 0 -98 21.5zM315 91.5q33 19.5 51.5 52.5t18.5 71q-24 14 -55 22t-65 8q-63 0 -92.5 -25t-29.5 -66q0 -36 27 -59t72 -23q40 0 73 19.5zM227 731q8 5 13.5 15t5.5 20q0 12 -8.5 18.5t-23.5 6.5q-20 0 -36 -9l-21 60q17 6 37 10t33 4q94 0 94 -82q0 -30 -16 -51t-40 -26z
M157.5 634q-42.5 37 -44.5 91h80q2 -22 21 -38.5t49 -16.5t49.5 16.5t21.5 38.5h80q-2 -54 -44.5 -91t-106.5 -37q-63 0 -105.5 37z" />
    <glyph glyph-name="uni1EB4" unicode="&#x1eb4;" horiz-adv-x="696" 
d="M285 716h125l271 -716h-121l-66 184h-292l-66 -184h-121zM458 286l-80 219l-27 82h-6l-27 -82l-80 -219h220zM223 975.5q26 24.5 66 24.5q19 0 32.5 -4t31.5 -12q10 -5 20 -8.5t20 -3.5q26 0 31 28h73q0 -42 -26 -66.5t-66 -24.5q-20 0 -34.5 4.5t-30.5 12.5
q-24 11 -38 11q-26 0 -32 -28h-73q0 42 26 66.5zM241.5 789q-42.5 37 -44.5 91h80q2 -23 21 -39.5t49 -16.5t49.5 16.5t21.5 39.5h80q-2 -54 -44.5 -91t-106.5 -37q-63 0 -105.5 37z" />
    <glyph glyph-name="uni1EB5" unicode="&#x1eb5;" horiz-adv-x="546" 
d="M125 5.5q-43 21.5 -67 60.5t-24 89q0 53 28 91.5t76 59t107 20.5q45 0 81.5 -8.5t58.5 -19.5v27q0 49 -36 79.5t-93 30.5q-39 0 -74 -17.5t-56 -47.5l-74 57q33 47 87.5 73t119.5 26q110 0 170.5 -54.5t60.5 -152.5v-319h-105v63h-6q-22 -34 -63 -56.5t-93 -22.5
q-55 0 -98 21.5zM315 91.5q33 19.5 51.5 52.5t18.5 71q-24 14 -55 22t-65 8q-63 0 -92.5 -25t-29.5 -66q0 -36 27 -59t72 -23q40 0 73 19.5zM141 827q27 30 65 30q32 0 64 -18q2 -1 14 -6.5t24 -5.5q26 0 33 30h73q0 -49 -26 -76t-66 -27q-20 0 -34 4.5t-33 13.5
q-9 5 -18 8.5t-18 3.5q-13 0 -21.5 -8t-10.5 -22h-73q0 43 27 73zM162 621q-41 38 -43 94h82q2 -25 19 -41.5t44 -16.5t43.5 16.5t18.5 41.5h82q-2 -56 -42.5 -94t-101.5 -38t-102 38z" />
    <glyph glyph-name="uni1EB6" unicode="&#x1eb6;" horiz-adv-x="696" 
d="M285 716h125l271 -716h-121l-66 184h-292l-66 -184h-121zM458 286l-80 219l-27 82h-6l-27 -82l-80 -219h220zM302 -187.5q-19 19.5 -19 45.5q0 27 19 45.5t45 18.5q28 0 46 -18.5t18 -45.5t-18.5 -46t-45.5 -19q-26 0 -45 19.5zM284.5 785q-30.5 17 -49 46.5t-18.5 65.5
h80q0 -22 14 -37.5t38 -15.5q22 0 36 15.5t14 37.5h80q0 -36 -18 -65.5t-48 -46.5t-64 -17t-64.5 17z" />
    <glyph glyph-name="uni1EB7" unicode="&#x1eb7;" horiz-adv-x="546" 
d="M125 5.5q-43 21.5 -67 60.5t-24 89q0 53 28 91.5t76 59t107 20.5q45 0 81.5 -8.5t58.5 -19.5v27q0 49 -36 79.5t-93 30.5q-39 0 -74 -17.5t-56 -47.5l-74 57q33 47 87.5 73t119.5 26q110 0 170.5 -54.5t60.5 -152.5v-319h-105v63h-6q-22 -34 -63 -56.5t-93 -22.5
q-55 0 -98 21.5zM315 91.5q33 19.5 51.5 52.5t18.5 71q-24 14 -55 22t-65 8q-63 0 -92.5 -25t-29.5 -66q0 -36 27 -59t72 -23q40 0 73 19.5zM218 -187.5q-19 19.5 -19 45.5q0 27 19 45.5t45 18.5q28 0 46 -18.5t18 -45.5t-18.5 -46t-45.5 -19q-26 0 -45 19.5zM200.5 620
q-30.5 17 -49 47t-18.5 66h80q0 -22 14 -37.5t38 -15.5q22 0 36 15.5t14 37.5h80q0 -36 -18 -66t-48 -47t-64 -17t-64.5 17z" />
    <glyph glyph-name="uni1EB8" unicode="&#x1eb8;" horiz-adv-x="572" 
d="M81 716h434v-104h-324v-202h292v-104h-292v-202h324v-104h-434v716zM252 -187.5q-19 19.5 -19 45.5q0 27 19 45.5t45 18.5q28 0 46 -18.5t18 -45.5t-18.5 -46t-45.5 -19q-26 0 -45 19.5z" />
    <glyph glyph-name="uni1EB9" unicode="&#x1eb9;" horiz-adv-x="575" 
d="M162.5 19q-59.5 35 -93 96.5t-33.5 138.5q0 73 32.5 135.5t90.5 99.5t131 37q77 0 133 -33.5t85.5 -92.5t29.5 -134q0 -20 -2 -34h-394q7 -73 52 -112.5t105 -39.5q49 0 84 22.5t56 59.5l89 -43q-35 -63 -93 -99t-139 -36q-74 0 -133.5 35zM431 313q-2 28 -18 56
t-46.5 46.5t-75.5 18.5q-54 0 -91.5 -33t-51.5 -88h283zM242 -187.5q-19 19.5 -19 45.5q0 27 19 45.5t45 18.5q28 0 46 -18.5t18 -45.5t-18.5 -46t-45.5 -19q-26 0 -45 19.5z" />
    <glyph glyph-name="uni1EBA" unicode="&#x1eba;" horiz-adv-x="572" 
d="M81 716h434v-104h-324v-202h292v-104h-292v-202h324v-104h-434v716zM256 818q50 17 50 50q0 16 -10.5 24.5t-29.5 8.5q-29 0 -53 -11l-25 59q36 17 88 17q51 0 78.5 -23.5t27.5 -67.5q0 -48 -29.5 -77t-81.5 -41z" />
    <glyph glyph-name="uni1EBB" unicode="&#x1ebb;" horiz-adv-x="575" 
d="M162.5 19q-59.5 35 -93 96.5t-33.5 138.5q0 73 32.5 135.5t90.5 99.5t131 37q77 0 133 -33.5t85.5 -92.5t29.5 -134q0 -20 -2 -34h-394q7 -73 52 -112.5t105 -39.5q49 0 84 22.5t56 59.5l89 -43q-35 -63 -93 -99t-139 -36q-74 0 -133.5 35zM431 313q-2 28 -18 56
t-46.5 46.5t-75.5 18.5q-54 0 -91.5 -33t-51.5 -88h283zM245 629q28 8 41 19.5t13 29.5q0 15 -11 23t-30 8q-28 0 -52 -11l-20 60q44 16 83 16q51 0 78.5 -23.5t27.5 -67.5q0 -48 -29 -75t-82 -36z" />
    <glyph glyph-name="uni1EBC" unicode="&#x1ebc;" horiz-adv-x="572" 
d="M81 716h434v-104h-324v-202h292v-104h-292v-202h324v-104h-434v716zM319 783.5q-18 7.5 -43 21.5q-27 16 -38 16q-28 0 -31 -33h-80q0 58 33.5 89t77.5 31q21 0 39 -7.5t44 -22.5q2 -1 15 -8t21 -7q29 0 32 33h81q0 -58 -34 -89t-79 -31q-20 0 -38 7.5z" />
    <glyph glyph-name="uni1EBD" unicode="&#x1ebd;" horiz-adv-x="575" 
d="M162.5 19q-59.5 35 -93 96.5t-33.5 138.5q0 73 32.5 135.5t90.5 99.5t131 37q77 0 133 -33.5t85.5 -92.5t29.5 -134q0 -20 -2 -34h-394q7 -73 52 -112.5t105 -39.5q49 0 84 22.5t56 59.5l89 -43q-35 -63 -93 -99t-139 -36q-74 0 -133.5 35zM431 313q-2 28 -18 56
t-46.5 46.5t-75.5 18.5q-54 0 -91.5 -33t-51.5 -88h283zM312 619.5q-18 7.5 -43 21.5q-27 16 -38 16q-28 0 -31 -33h-80q0 58 33.5 88.5t77.5 30.5q21 0 39 -7.5t44 -22.5q2 -1 15 -8t21 -7q29 0 32 33h81q0 -57 -34 -88t-79 -31q-20 0 -38 7.5z" />
    <glyph glyph-name="uni1EBE" unicode="&#x1ebe;" horiz-adv-x="572" 
d="M81 716h434v-104h-324v-202h292v-104h-292v-202h324v-104h-434v716zM439 1000h121l-83 -124h-82zM143 762l108 120h94l109 -120v-7h-104l-47 58h-10l-47 -58h-103v7z" />
    <glyph glyph-name="uni1EBF" unicode="&#x1ebf;" horiz-adv-x="575" 
d="M162.5 19q-59.5 35 -93 96.5t-33.5 138.5q0 73 32.5 135.5t90.5 99.5t131 37q77 0 133 -33.5t85.5 -92.5t29.5 -134q0 -20 -2 -34h-394q7 -73 52 -112.5t105 -39.5q49 0 84 22.5t56 59.5l89 -43q-35 -63 -93 -99t-139 -36q-74 0 -133.5 35zM431 313q-2 28 -18 56
t-46.5 46.5t-75.5 18.5q-54 0 -91.5 -33t-51.5 -88h283zM432 857h121l-83 -124h-82zM136 615l108 121h94l109 -121v-7h-104l-47 58h-10l-47 -58h-103v7z" />
    <glyph glyph-name="uni1EC0" unicode="&#x1ec0;" horiz-adv-x="572" 
d="M81 716h434v-104h-324v-202h292v-104h-292v-202h324v-104h-434v716zM323 1000h122l44 -124h-82zM142 762l108 120h94l109 -120v-7h-104l-47 58h-10l-47 -58h-103v7z" />
    <glyph glyph-name="uni1EC1" unicode="&#x1ec1;" horiz-adv-x="575" 
d="M162.5 19q-59.5 35 -93 96.5t-33.5 138.5q0 73 32.5 135.5t90.5 99.5t131 37q77 0 133 -33.5t85.5 -92.5t29.5 -134q0 -20 -2 -34h-394q7 -73 52 -112.5t105 -39.5q49 0 84 22.5t56 59.5l89 -43q-35 -63 -93 -99t-139 -36q-74 0 -133.5 35zM431 313q-2 28 -18 56
t-46.5 46.5t-75.5 18.5q-54 0 -91.5 -33t-51.5 -88h283zM316 855h122l44 -124h-82zM135 615l108 120h94l109 -120v-7h-104l-47 58h-10l-47 -58h-103v7z" />
    <glyph glyph-name="uni1EC2" unicode="&#x1ec2;" horiz-adv-x="572" 
d="M81 716h434v-104h-324v-202h292v-104h-292v-202h324v-104h-434v716zM417 857q32 21 32 46q0 16 -10 24t-27 8q-20 0 -40 -8v67q28 6 52 6q49 0 75 -22.5t26 -63.5q0 -37 -17.5 -64t-47.5 -42zM143 762l108 120h94l109 -120v-7h-104l-47 58h-10l-47 -58h-103v7z" />
    <glyph glyph-name="uni1EC3" unicode="&#x1ec3;" horiz-adv-x="575" 
d="M162.5 19q-59.5 35 -93 96.5t-33.5 138.5q0 73 32.5 135.5t90.5 99.5t131 37q77 0 133 -33.5t85.5 -92.5t29.5 -134q0 -20 -2 -34h-394q7 -73 52 -112.5t105 -39.5q49 0 84 22.5t56 59.5l89 -43q-35 -63 -93 -99t-139 -36q-74 0 -133.5 35zM431 313q-2 28 -18 56
t-46.5 46.5t-75.5 18.5q-54 0 -91.5 -33t-51.5 -88h283zM414 703q33 30 33 53q0 16 -10 24t-27 8q-20 0 -40 -8v67q28 6 52 6q49 0 75 -22.5t26 -63.5q0 -66 -67 -111zM136 615l108 120h94l109 -120v-7h-104l-47 58h-10l-47 -58h-103v7z" />
    <glyph glyph-name="uni1EC4" unicode="&#x1ec4;" horiz-adv-x="572" 
d="M81 716h434v-104h-324v-202h292v-104h-292v-202h324v-104h-434v716zM174 975.5q26 24.5 66 24.5q18 0 31.5 -4t31.5 -12q10 -5 20 -8.5t20 -3.5q26 0 32 28h73q0 -42 -26 -66.5t-66 -24.5q-21 0 -35.5 4.5t-30.5 12.5q-24 11 -38 11q-26 0 -31 -28h-73q0 42 26 66.5z
M143 762l107 120h95l108 -120v-7h-103l-48 58h-10l-46 -58h-103v7z" />
    <glyph glyph-name="uni1EC5" unicode="&#x1ec5;" horiz-adv-x="575" 
d="M162.5 19q-59.5 35 -93 96.5t-33.5 138.5q0 73 32.5 135.5t90.5 99.5t131 37q77 0 133 -33.5t85.5 -92.5t29.5 -134q0 -20 -2 -34h-394q7 -73 52 -112.5t105 -39.5q49 0 84 22.5t56 59.5l89 -43q-35 -63 -93 -99t-139 -36q-74 0 -133.5 35zM431 313q-2 28 -18 56
t-46.5 46.5t-75.5 18.5q-54 0 -91.5 -33t-51.5 -88h283zM166 830.5q26 24.5 66 24.5q18 0 31.5 -4t31.5 -12q10 -5 20 -8.5t20 -3.5q26 0 32 28h73q0 -42 -26 -66.5t-66 -24.5q-21 0 -35.5 4.5t-30.5 12.5q-24 11 -38 11q-26 0 -31 -28h-73q0 42 26 66.5zM135 615l107 120
h95l108 -120v-7h-103l-48 58h-10l-46 -58h-103v7z" />
    <glyph glyph-name="uni1EC6" unicode="&#x1ec6;" horiz-adv-x="572" 
d="M81 716h434v-104h-324v-202h292v-104h-292v-202h324v-104h-434v716zM252 -187.5q-19 19.5 -19 45.5q0 27 19 45.5t45 18.5q28 0 46 -18.5t18 -45.5t-18.5 -46t-45.5 -19q-26 0 -45 19.5zM144 785l107 121h95l108 -121v-6h-104l-47 61h-10l-46 -61h-103v6z" />
    <glyph glyph-name="uni1EC7" unicode="&#x1ec7;" horiz-adv-x="575" 
d="M162.5 19q-59.5 35 -93 96.5t-33.5 138.5q0 73 32.5 135.5t90.5 99.5t131 37q77 0 133 -33.5t85.5 -92.5t29.5 -134q0 -20 -2 -34h-394q7 -73 52 -112.5t105 -39.5q49 0 84 22.5t56 59.5l89 -43q-35 -63 -93 -99t-139 -36q-74 0 -133.5 35zM431 313q-2 28 -18 56
t-46.5 46.5t-75.5 18.5q-54 0 -91.5 -33t-51.5 -88h283zM242 -187.5q-19 19.5 -19 45.5q0 27 19 45.5t45 18.5q28 0 46 -18.5t18 -45.5t-18.5 -46t-45.5 -19q-26 0 -45 19.5zM136 615l107 121h95l108 -121v-7h-104l-47 61h-10l-46 -61h-103v7z" />
    <glyph glyph-name="uni1EC8" unicode="&#x1ec8;" horiz-adv-x="271" 
d="M81 716h110v-716h-110v716zM94 818q50 17 50 50q0 16 -10.5 24.5t-29.5 8.5q-29 0 -53 -11l-25 59q36 17 88 17q51 0 78.5 -23.5t27.5 -67.5q0 -48 -29.5 -77t-81.5 -41z" />
    <glyph glyph-name="uni1EC9" unicode="&#x1ec9;" horiz-adv-x="251" 
d="M71 510h108v-510h-108v510zM80 629q28 8 41 19.5t13 29.5q0 15 -11 23t-30 8q-28 0 -52 -11l-20 60q44 16 83 16q51 0 78.5 -23.5t27.5 -67.5q0 -48 -29 -75t-82 -36z" />
    <glyph glyph-name="uni1ECA" unicode="&#x1eca;" horiz-adv-x="271" 
d="M81 716h110v-716h-110v716zM90 -187.5q-19 19.5 -19 45.5q0 27 19 45.5t45 18.5q28 0 46 -18.5t18 -45.5t-18.5 -46t-45.5 -19q-26 0 -45 19.5z" />
    <glyph glyph-name="uni1ECB" unicode="&#x1ecb;" horiz-adv-x="250" 
d="M73.5 606.5q-21.5 21.5 -21.5 51.5t21.5 51t51.5 21t51.5 -21t21.5 -51t-21.5 -51.5t-51.5 -21.5t-51.5 21.5zM71 510h108v-510h-108v510zM80 -187.5q-19 19.5 -19 45.5q0 27 19 45.5t45 18.5q28 0 46 -18.5t18 -45.5t-18.5 -46t-45.5 -19q-26 0 -45 19.5z" />
    <glyph glyph-name="uni1ECC" unicode="&#x1ecc;" horiz-adv-x="832" 
d="M227 34q-85 50 -133.5 135.5t-48.5 188.5t48.5 188.5t133.5 135.5t189 50t188.5 -50t133 -135.5t48.5 -188.5t-48.5 -188.5t-133 -135.5t-188.5 -50t-189 50zM547.5 122.5q59.5 34.5 94 96t34.5 139.5t-34.5 139.5t-94 96t-131.5 34.5t-131.5 -34.5t-94 -96t-34.5 -139.5
t34.5 -139.5t94 -96t131.5 -34.5t131.5 34.5zM370 -187.5q-19 19.5 -19 45.5q0 27 19 45.5t45 18.5q28 0 46 -18.5t18 -45.5t-18.5 -46t-45.5 -19q-26 0 -45 19.5z" />
    <glyph glyph-name="uni1ECD" unicode="&#x1ecd;" horiz-adv-x="605" 
d="M165 19.5q-61 35.5 -95 97.5t-34 138t34 138t95 97.5t138 35.5q76 0 137 -36t95 -98t34 -137q0 -76 -34 -138t-94.5 -97.5t-137.5 -35.5t-138 35.5zM382 104q36 21 58 60t22 91t-22 91t-58 60t-79 21t-79.5 -21t-58.5 -60t-22 -91t22 -91t58.5 -60t79.5 -21t79 21z
M257 -187.5q-19 19.5 -19 45.5q0 27 19 45.5t45 18.5q28 0 46 -18.5t18 -45.5t-18.5 -46t-45.5 -19q-26 0 -45 19.5z" />
    <glyph glyph-name="uni1ECE" unicode="&#x1ece;" horiz-adv-x="832" 
d="M227 34q-85 50 -133.5 135.5t-48.5 188.5t48.5 188.5t133.5 135.5t189 50t188.5 -50t133 -135.5t48.5 -188.5t-48.5 -188.5t-133 -135.5t-188.5 -50t-189 50zM547.5 122.5q59.5 34.5 94 96t34.5 139.5t-34.5 139.5t-94 96t-131.5 34.5t-131.5 -34.5t-94 -96t-34.5 -139.5
t34.5 -139.5t94 -96t131.5 -34.5t131.5 34.5zM374 818q50 17 50 50q0 16 -10.5 24.5t-29.5 8.5q-29 0 -53 -11l-25 59q36 17 88 17q51 0 78.5 -23.5t27.5 -67.5q0 -48 -29.5 -77t-81.5 -41z" />
    <glyph glyph-name="uni1ECF" unicode="&#x1ecf;" horiz-adv-x="605" 
d="M165 19.5q-61 35.5 -95 97.5t-34 138t34 138t95 97.5t138 35.5q76 0 137 -36t95 -98t34 -137q0 -76 -34 -138t-94.5 -97.5t-137.5 -35.5t-138 35.5zM382 104q36 21 58 60t22 91t-22 91t-58 60t-79 21t-79.5 -21t-58.5 -60t-22 -91t22 -91t58.5 -60t79.5 -21t79 21z
M257 629q28 8 41 19.5t13 29.5q0 15 -11 23t-30 8q-28 0 -52 -11l-20 60q44 16 83 16q51 0 78.5 -23.5t27.5 -67.5q0 -48 -29 -75t-82 -36z" />
    <glyph glyph-name="uni1ED0" unicode="&#x1ed0;" horiz-adv-x="832" 
d="M227 34q-85 50 -133.5 135.5t-48.5 188.5t48.5 188.5t133.5 135.5t189 50t188.5 -50t133 -135.5t48.5 -188.5t-48.5 -188.5t-133 -135.5t-188.5 -50t-189 50zM547.5 122.5q59.5 34.5 94 96t34.5 139.5t-34.5 139.5t-94 96t-131.5 34.5t-131.5 -34.5t-94 -96t-34.5 -139.5
t34.5 -139.5t94 -96t131.5 -34.5t131.5 34.5zM557 1000h121l-83 -124h-82zM261 762l108 120h94l109 -120v-7h-104l-47 58h-10l-47 -58h-103v7z" />
    <glyph glyph-name="uni1ED1" unicode="&#x1ed1;" horiz-adv-x="605" 
d="M165 19.5q-61 35.5 -95 97.5t-34 138t34 138t95 97.5t138 35.5q76 0 137 -36t95 -98t34 -137q0 -76 -34 -138t-94.5 -97.5t-137.5 -35.5t-138 35.5zM382 104q36 21 58 60t22 91t-22 91t-58 60t-79 21t-79.5 -21t-58.5 -60t-22 -91t22 -91t58.5 -60t79.5 -21t79 21z
M444 857h121l-83 -124h-82zM148 615l108 121h94l109 -121v-7h-104l-47 58h-10l-47 -58h-103v7z" />
    <glyph glyph-name="uni1ED2" unicode="&#x1ed2;" horiz-adv-x="832" 
d="M227 34q-85 50 -133.5 135.5t-48.5 188.5t48.5 188.5t133.5 135.5t189 50t188.5 -50t133 -135.5t48.5 -188.5t-48.5 -188.5t-133 -135.5t-188.5 -50t-189 50zM547.5 122.5q59.5 34.5 94 96t34.5 139.5t-34.5 139.5t-94 96t-131.5 34.5t-131.5 -34.5t-94 -96t-34.5 -139.5
t34.5 -139.5t94 -96t131.5 -34.5t131.5 34.5zM441 1000h122l44 -124h-82zM260 762l108 120h94l109 -120v-7h-104l-47 58h-10l-47 -58h-103v7z" />
    <glyph glyph-name="uni1ED3" unicode="&#x1ed3;" horiz-adv-x="605" 
d="M165 19.5q-61 35.5 -95 97.5t-34 138t34 138t95 97.5t138 35.5q76 0 137 -36t95 -98t34 -137q0 -76 -34 -138t-94.5 -97.5t-137.5 -35.5t-138 35.5zM382 104q36 21 58 60t22 91t-22 91t-58 60t-79 21t-79.5 -21t-58.5 -60t-22 -91t22 -91t58.5 -60t79.5 -21t79 21z
M328 855h122l44 -124h-82zM147 615l108 120h94l109 -120v-7h-104l-47 58h-10l-47 -58h-103v7z" />
    <glyph glyph-name="uni1ED4" unicode="&#x1ed4;" horiz-adv-x="832" 
d="M227 34q-85 50 -133.5 135.5t-48.5 188.5t48.5 188.5t133.5 135.5t189 50t188.5 -50t133 -135.5t48.5 -188.5t-48.5 -188.5t-133 -135.5t-188.5 -50t-189 50zM547.5 122.5q59.5 34.5 94 96t34.5 139.5t-34.5 139.5t-94 96t-131.5 34.5t-131.5 -34.5t-94 -96t-34.5 -139.5
t34.5 -139.5t94 -96t131.5 -34.5t131.5 34.5zM535 857q32 21 32 46q0 16 -10 24t-27 8q-20 0 -40 -8v67q28 6 52 6q49 0 75 -22.5t26 -63.5q0 -37 -17.5 -64t-47.5 -42zM261 762l108 120h94l109 -120v-7h-104l-47 58h-10l-47 -58h-103v7z" />
    <glyph glyph-name="uni1ED5" unicode="&#x1ed5;" horiz-adv-x="605" 
d="M165 19.5q-61 35.5 -95 97.5t-34 138t34 138t95 97.5t138 35.5q76 0 137 -36t95 -98t34 -137q0 -76 -34 -138t-94.5 -97.5t-137.5 -35.5t-138 35.5zM382 104q36 21 58 60t22 91t-22 91t-58 60t-79 21t-79.5 -21t-58.5 -60t-22 -91t22 -91t58.5 -60t79.5 -21t79 21z
M426 703q33 30 33 53q0 16 -10 24t-27 8q-20 0 -40 -8v67q28 6 52 6q49 0 75 -22.5t26 -63.5q0 -66 -67 -111zM148 615l108 120h94l109 -120v-7h-104l-47 58h-10l-47 -58h-103v7z" />
    <glyph glyph-name="uni1ED6" unicode="&#x1ed6;" horiz-adv-x="832" 
d="M227 34q-85 50 -133.5 135.5t-48.5 188.5t48.5 188.5t133.5 135.5t189 50t188.5 -50t133 -135.5t48.5 -188.5t-48.5 -188.5t-133 -135.5t-188.5 -50t-189 50zM547.5 122.5q59.5 34.5 94 96t34.5 139.5t-34.5 139.5t-94 96t-131.5 34.5t-131.5 -34.5t-94 -96t-34.5 -139.5
t34.5 -139.5t94 -96t131.5 -34.5t131.5 34.5zM292 975.5q26 24.5 66 24.5q18 0 31.5 -4t31.5 -12q10 -5 20 -8.5t20 -3.5q26 0 32 28h73q0 -42 -26 -66.5t-66 -24.5q-21 0 -35.5 4.5t-30.5 12.5q-24 11 -38 11q-26 0 -31 -28h-73q0 42 26 66.5zM261 762l107 120h95l108 -120
v-7h-103l-48 58h-10l-46 -58h-103v7z" />
    <glyph glyph-name="uni1ED7" unicode="&#x1ed7;" horiz-adv-x="605" 
d="M165 19.5q-61 35.5 -95 97.5t-34 138t34 138t95 97.5t138 35.5q76 0 137 -36t95 -98t34 -137q0 -76 -34 -138t-94.5 -97.5t-137.5 -35.5t-138 35.5zM382 104q36 21 58 60t22 91t-22 91t-58 60t-79 21t-79.5 -21t-58.5 -60t-22 -91t22 -91t58.5 -60t79.5 -21t79 21z
M179 830.5q26 24.5 66 24.5q18 0 31.5 -4t31.5 -12q10 -5 20 -8.5t20 -3.5q26 0 32 28h73q0 -42 -26 -66.5t-66 -24.5q-21 0 -35.5 4.5t-30.5 12.5q-24 11 -38 11q-26 0 -31 -28h-73q0 42 26 66.5zM148 615l107 120h95l108 -120v-7h-103l-48 58h-10l-46 -58h-103v7z" />
    <glyph glyph-name="uni1ED8" unicode="&#x1ed8;" horiz-adv-x="832" 
d="M227 34q-85 50 -133.5 135.5t-48.5 188.5t48.5 188.5t133.5 135.5t189 50t188.5 -50t133 -135.5t48.5 -188.5t-48.5 -188.5t-133 -135.5t-188.5 -50t-189 50zM547.5 122.5q59.5 34.5 94 96t34.5 139.5t-34.5 139.5t-94 96t-131.5 34.5t-131.5 -34.5t-94 -96t-34.5 -139.5
t34.5 -139.5t94 -96t131.5 -34.5t131.5 34.5zM370 -187.5q-19 19.5 -19 45.5q0 27 19 45.5t45 18.5q28 0 46 -18.5t18 -45.5t-18.5 -46t-45.5 -19q-26 0 -45 19.5zM262 785l107 121h95l108 -121v-6h-104l-47 61h-10l-46 -61h-103v6z" />
    <glyph glyph-name="uni1ED9" unicode="&#x1ed9;" horiz-adv-x="605" 
d="M165 19.5q-61 35.5 -95 97.5t-34 138t34 138t95 97.5t138 35.5q76 0 137 -36t95 -98t34 -137q0 -76 -34 -138t-94.5 -97.5t-137.5 -35.5t-138 35.5zM382 104q36 21 58 60t22 91t-22 91t-58 60t-79 21t-79.5 -21t-58.5 -60t-22 -91t22 -91t58.5 -60t79.5 -21t79 21z
M257 -187.5q-19 19.5 -19 45.5q0 27 19 45.5t45 18.5q28 0 46 -18.5t18 -45.5t-18.5 -46t-45.5 -19q-26 0 -45 19.5zM149 615l107 121h95l108 -121v-7h-104l-47 61h-10l-46 -61h-103v7z" />
    <glyph glyph-name="uni1EDA" unicode="&#x1eda;" horiz-adv-x="832" 
d="M227 34q-85 50 -133.5 135.5t-48.5 188.5t48.5 188.5t133.5 135.5t189 50q45 0 115 -8q78 -8 133 -8q28 0 39.5 9.5t11.5 29.5v74h82v-83q0 -109 -101 -109q-23 0 -47 6v-4q66 -47 101.5 -120.5t35.5 -160.5q0 -103 -48.5 -188.5t-133 -135.5t-188.5 -50t-189 50z
M547.5 122.5q59.5 34.5 94 96t34.5 139.5t-34.5 139.5t-94 96t-131.5 34.5t-131.5 -34.5t-94 -96t-34.5 -139.5t34.5 -139.5t94 -96t131.5 -34.5t131.5 34.5zM418 904h122l-80 -131h-89z" />
    <glyph glyph-name="uni1EDB" unicode="&#x1edb;" horiz-adv-x="605" 
d="M165 19.5q-61 35.5 -95 97.5t-34 138t34 138t95 97.5t138 35.5q41 0 81 -9q6 -1 25 -4t38 -3q30 0 42 9.5t12 30.5v73h82v-94q0 -40 -18 -63t-50 -23q-11 0 -22 3v-4q76 -72 76 -187q0 -76 -34 -138t-94.5 -97.5t-137.5 -35.5t-138 35.5zM382 104q36 21 58 60t22 91
t-22 91t-58 60t-79 21t-79.5 -21t-58.5 -60t-22 -91t22 -91t58.5 -60t79.5 -21t79 21zM305 740h122l-80 -131h-89z" />
    <glyph glyph-name="uni1EDC" unicode="&#x1edc;" horiz-adv-x="832" 
d="M227 34q-85 50 -133.5 135.5t-48.5 188.5t48.5 188.5t133.5 135.5t189 50q45 0 115 -8q78 -8 133 -8q28 0 39.5 9.5t11.5 29.5v74h82v-83q0 -109 -101 -109q-23 0 -47 6v-4q66 -47 101.5 -120.5t35.5 -160.5q0 -103 -48.5 -188.5t-133 -135.5t-188.5 -50t-189 50z
M547.5 122.5q59.5 34.5 94 96t34.5 139.5t-34.5 139.5t-94 96t-131.5 34.5t-131.5 -34.5t-94 -96t-34.5 -139.5t34.5 -139.5t94 -96t131.5 -34.5t131.5 34.5zM291 904h123l47 -131h-91z" />
    <glyph glyph-name="uni1EDD" unicode="&#x1edd;" horiz-adv-x="605" 
d="M165 19.5q-61 35.5 -95 97.5t-34 138t34 138t95 97.5t138 35.5q41 0 81 -9q6 -1 25 -4t38 -3q30 0 42 9.5t12 30.5v73h82v-94q0 -40 -18 -63t-50 -23q-11 0 -22 3v-4q76 -72 76 -187q0 -76 -34 -138t-94.5 -97.5t-137.5 -35.5t-138 35.5zM382 104q36 21 58 60t22 91
t-22 91t-58 60t-79 21t-79.5 -21t-58.5 -60t-22 -91t22 -91t58.5 -60t79.5 -21t79 21zM178 740h123l47 -131h-91z" />
    <glyph glyph-name="uni1EDE" unicode="&#x1ede;" horiz-adv-x="832" 
d="M227 34q-85 50 -133.5 135.5t-48.5 188.5t48.5 188.5t133.5 135.5t189 50q45 0 115 -8q78 -8 133 -8q28 0 39.5 9.5t11.5 29.5v74h82v-83q0 -109 -101 -109q-23 0 -47 6v-4q66 -47 101.5 -120.5t35.5 -160.5q0 -103 -48.5 -188.5t-133 -135.5t-188.5 -50t-189 50z
M547.5 122.5q59.5 34.5 94 96t34.5 139.5t-34.5 139.5t-94 96t-131.5 34.5t-131.5 -34.5t-94 -96t-34.5 -139.5t34.5 -139.5t94 -96t131.5 -34.5t131.5 34.5zM374 818q50 17 50 50q0 16 -10.5 24.5t-29.5 8.5q-29 0 -53 -11l-25 59q36 17 88 17q51 0 78.5 -23.5t27.5 -67.5
q0 -48 -29.5 -77t-81.5 -41z" />
    <glyph glyph-name="uni1EDF" unicode="&#x1edf;" horiz-adv-x="605" 
d="M165 19.5q-61 35.5 -95 97.5t-34 138t34 138t95 97.5t138 35.5q41 0 81 -9q6 -1 25 -4t38 -3q30 0 42 9.5t12 30.5v73h82v-94q0 -40 -18 -63t-50 -23q-11 0 -22 3v-4q76 -72 76 -187q0 -76 -34 -138t-94.5 -97.5t-137.5 -35.5t-138 35.5zM382 104q36 21 58 60t22 91
t-22 91t-58 60t-79 21t-79.5 -21t-58.5 -60t-22 -91t22 -91t58.5 -60t79.5 -21t79 21zM257 629q28 8 41 19.5t13 29.5q0 15 -11 23t-30 8q-28 0 -52 -11l-20 60q44 16 83 16q51 0 78.5 -23.5t27.5 -67.5q0 -48 -29 -75t-82 -36z" />
    <glyph glyph-name="uni1EE0" unicode="&#x1ee0;" horiz-adv-x="832" 
d="M227 34q-85 50 -133.5 135.5t-48.5 188.5t48.5 188.5t133.5 135.5t189 50q45 0 115 -8q78 -8 133 -8q28 0 39.5 9.5t11.5 29.5v74h82v-83q0 -109 -101 -109q-23 0 -47 6v-4q66 -47 101.5 -120.5t35.5 -160.5q0 -103 -48.5 -188.5t-133 -135.5t-188.5 -50t-189 50z
M547.5 122.5q59.5 34.5 94 96t34.5 139.5t-34.5 139.5t-94 96t-131.5 34.5t-131.5 -34.5t-94 -96t-34.5 -139.5t34.5 -139.5t94 -96t131.5 -34.5t131.5 34.5zM437 783.5q-18 7.5 -43 21.5q-27 16 -38 16q-28 0 -31 -33h-80q0 58 33.5 89t77.5 31q21 0 39 -7.5t44 -22.5
q2 -1 15 -8t21 -7q29 0 32 33h81q0 -58 -34 -89t-79 -31q-20 0 -38 7.5z" />
    <glyph glyph-name="uni1EE1" unicode="&#x1ee1;" horiz-adv-x="605" 
d="M165 19.5q-61 35.5 -95 97.5t-34 138t34 138t95 97.5t138 35.5q41 0 81 -9q6 -1 25 -4t38 -3q30 0 42 9.5t12 30.5v73h82v-94q0 -40 -18 -63t-50 -23q-11 0 -22 3v-4q76 -72 76 -187q0 -76 -34 -138t-94.5 -97.5t-137.5 -35.5t-138 35.5zM382 104q36 21 58 60t22 91
t-22 91t-58 60t-79 21t-79.5 -21t-58.5 -60t-22 -91t22 -91t58.5 -60t79.5 -21t79 21zM324 619.5q-18 7.5 -43 21.5q-27 16 -38 16q-28 0 -31 -33h-80q0 58 33.5 88.5t77.5 30.5q21 0 39 -7.5t44 -22.5q2 -1 15 -8t21 -7q29 0 32 33h81q0 -57 -34 -88t-79 -31q-20 0 -38 7.5
z" />
    <glyph glyph-name="uni1EE2" unicode="&#x1ee2;" horiz-adv-x="832" 
d="M227 34q-85 50 -133.5 135.5t-48.5 188.5t48.5 188.5t133.5 135.5t189 50q45 0 115 -8q78 -8 133 -8q28 0 39.5 9.5t11.5 29.5v74h82v-83q0 -109 -101 -109q-23 0 -47 6v-4q66 -47 101.5 -120.5t35.5 -160.5q0 -103 -48.5 -188.5t-133 -135.5t-188.5 -50t-189 50z
M547.5 122.5q59.5 34.5 94 96t34.5 139.5t-34.5 139.5t-94 96t-131.5 34.5t-131.5 -34.5t-94 -96t-34.5 -139.5t34.5 -139.5t94 -96t131.5 -34.5t131.5 34.5zM370 -187.5q-19 19.5 -19 45.5q0 27 19 45.5t45 18.5q28 0 46 -18.5t18 -45.5t-18.5 -46t-45.5 -19
q-26 0 -45 19.5z" />
    </font>
</defs>
</svg>
