<?xml version="1.0" standalone="no"?>
<!DOCTYPE svg PUBLIC "-//W3C//DTD SVG 1.1//EN" "http://www.w3.org/Graphics/SVG/1.1/DTD/svg11.dtd" >
<svg xmlns="http://www.w3.org/2000/svg" xmlns:xlink="http://www.w3.org/1999/xlink" version="1.1">
<metadata>
Created by FontForge 20170812 at Fri Sep 13 17:48:58 2019
 By www-data
Copyright 2015 Google LLC. All Rights Reserved.
</metadata>
<defs>
<font id="GoogleSans-Italic" horiz-adv-x="0" >
  <font-face 
    font-family="Google Sans"
    font-weight="400"
    font-style="italic"
    font-stretch="normal"
    units-per-em="1000"
    panose-1="2 11 5 3 3 5 2 4 2 4"
    ascent="800"
    descent="-200"
    x-height="510"
    cap-height="716"
    bbox="-432 -271 3284 1056"
    underline-thickness="84"
    underline-position="-244"
    slope="-10"
    unicode-range="U+0002-FFFD"
  />
<missing-glyph horiz-adv-x="569" 
d="M514 716v-716h-422v716h422zM454 57v602h-302v-602h302z" />
    <glyph glyph-name="G_l_o_g_o_l_i_g_a_t_u_r_e.liga" unicode="Glogoligature" horiz-adv-x="861" 
d="M253 39.5q-96 55.5 -152.5 149.5t-56.5 205t56.5 205t152.5 149.5t207 55.5q163 0 281 -113l-79 -79q-85 80 -202 80q-81 0 -148.5 -40t-106.5 -108.5t-39 -149.5t39 -149.5t106.5 -108.5t148.5 -40q72 0 121.5 23t85.5 59q49 49 61 141h-268v112h377q6 -30 6 -70
q0 -71 -23 -141t-74 -121q-110 -115 -286 -115q-111 0 -207 55.5z" />
    <glyph glyph-name="e_l_o_g_o_l_i_g_a_t_u_r_e.liga" unicode="elogoligature" horiz-adv-x="514" 
d="M155 19q-60 35 -94 95.5t-34 133.5q0 77 33.5 137t90.5 93.5t125 33.5q91 0 147 -53t79 -115l12 -30l-353 -146q41 -80 128 -80q80 0 130 73l90 -60q-30 -45 -85 -81t-135 -36q-74 0 -134 35zM341 394.5q-27 15.5 -61 15.5q-31 0 -64 -18t-54 -53t-20 -83l236 98
q-10 25 -37 40.5z" />
    <glyph glyph-name="g_l_o_g_o_l_i_g_a_t_u_r_e.liga" unicode="glogoligature" horiz-adv-x="566" 
d="M129 -206q-60 47 -86 109l101 42q16 -38 50 -66t83 -28q66 0 103.5 40t37.5 115v38h-4q-21 -26 -57.5 -43t-81.5 -17q-66 0 -124 35t-93.5 95.5t-35.5 132.5q0 73 35.5 133.5t94 96t123.5 35.5q45 0 81.5 -17t57.5 -42h4v43h110v-474q0 -138 -70.5 -206.5t-180.5 -68.5
q-88 0 -148 47zM356.5 108.5q32.5 20.5 51 57t18.5 81.5q0 46 -18.5 82.5t-51 57.5t-71.5 21q-40 0 -73.5 -21t-53.5 -58t-20 -82t20 -81.5t53.5 -57t73.5 -20.5q39 0 71.5 20.5z" />
    <glyph glyph-name="l_l_o_g_o_l_i_g_a_t_u_r_e.liga" unicode="llogoligature" horiz-adv-x="187" 
d="M42 0v776h116v-776h-116z" />
    <glyph glyph-name="o_l_o_g_o_l_i_g_a_t_u_r_e.liga" unicode="ologoligature" horiz-adv-x="578" 
d="M154 18.5q-61 34.5 -96.5 95t-35.5 134.5q0 75 35.5 135.5t96.5 94.5t133 34t133 -34t96.5 -94.5t35.5 -135.5q0 -74 -35.5 -134.5t-96.5 -95t-133 -34.5t-133 34.5zM361 108.5q34 20.5 54.5 57t20.5 82.5t-20.5 82.5t-54.5 57t-74 20.5t-74 -20.5t-54.5 -57t-20.5 -82.5
t20.5 -82.5t54.5 -57t74 -20.5t74 20.5z" />
    <glyph glyph-name="f_b.liga" unicode="fb" horiz-adv-x="969" 
d="M552.5 10.5q-44.5 26.5 -66.5 65.5h-4l-14 -76h-79l113 643h-141q-41 0 -67 -22t-33 -65l-9 -46h130l-14 -77h-129l-76 -433h-85l76 433h-95l14 77h95l10 55q13 72 62 113.5t134 41.5h226l-38 -215l-17 -71h4q24 39 69.5 65.5t106.5 26.5t109.5 -30.5t76 -84.5t27.5 -123
q0 -81 -36.5 -151t-101.5 -111.5t-147 -41.5q-56 0 -100.5 26.5zM753 89.5q46 28.5 72.5 79t26.5 113.5q0 73 -42 120t-108 47q-53 0 -97.5 -32t-70 -84.5t-25.5 -111.5q0 -49 19 -85t51.5 -55.5t71.5 -19.5q56 0 102 28.5z" />
    <glyph glyph-name="f_f.liga" unicode="ff" horiz-adv-x="690" 
d="M154 433h-95l14 77h95l9 55q13 74 65.5 116.5t125.5 42.5q43 0 74 -12l-15 -83q-30 16 -69 16q-34 0 -62 -23t-35 -66l-8 -46h225l10 55q12 74 64.5 116.5t125.5 42.5q45 0 74 -12l-15 -83q-30 16 -69 16q-33 0 -61 -23t-36 -66l-8 -46h131l-14 -77h-131l-76 -433h-85
l77 433h-226l-77 -433h-84z" />
    <glyph glyph-name="f_f_b.liga" unicode="ffb" horiz-adv-x="1279" 
d="M862.5 10.5q-44.5 26.5 -66.5 65.5h-4l-14 -76h-79l113 643h-141q-41 0 -67 -22t-33 -65l-9 -46h130l-14 -77h-129l-76 -433h-85l76 433h-225l-77 -433h-84l76 433h-95l14 77h95l9 55q13 74 65.5 116.5t125.5 42.5q43 0 74 -12l-15 -83q-30 16 -69 16q-34 0 -62 -23
t-35 -66l-8 -46h225l10 55q13 72 62 113.5t134 41.5h226l-38 -215l-17 -71h4q24 39 69.5 65.5t106.5 26.5t109.5 -30.5t76 -84.5t27.5 -123q0 -81 -36.5 -151t-101.5 -111.5t-147 -41.5q-56 0 -100.5 26.5zM1063 89.5q46 28.5 72.5 79t26.5 113.5q0 73 -42 120t-108 47
q-53 0 -97.5 -32t-70 -84.5t-25.5 -111.5q0 -49 19 -85t51.5 -55.5t71.5 -19.5q56 0 102 28.5z" />
    <glyph glyph-name="f_f_h.liga" unicode="ffh" horiz-adv-x="1241" 
d="M154 433h-95l14 77h95l9 55q13 74 65.5 116.5t125.5 42.5q43 0 74 -12l-15 -83q-30 16 -69 16q-34 0 -62 -23t-35 -66l-8 -46h225l10 55q13 72 62.5 113.5t134.5 41.5h225l-38 -215l-17 -70h4q29 41 74 66t102 25q78 0 120.5 -41.5t42.5 -109.5q0 -29 -6 -68l-55 -307
h-85l55 307q5 30 5 49q0 43 -29.5 68t-77.5 25q-62 0 -110 -48t-62 -124l-50 -277h-84l113 643h-141q-41 0 -67 -22t-33 -65l-8 -46h129l-14 -77h-129l-76 -433h-84l75 433h-225l-77 -433h-84z" />
    <glyph glyph-name="f_f_i.liga" unicode="ffi" horiz-adv-x="895" 
d="M813 621q-18 18 -18 43q0 26 18 43.5t43 17.5t42.5 -18t17.5 -43t-17.5 -43t-42.5 -18t-43 18zM154 433h-95l14 77h95l9 55q13 74 65.5 116.5t125.5 42.5q43 0 74 -12l-15 -83q-30 16 -69 16q-34 0 -62 -23t-35 -66l-8 -46h225l9 55q13 74 65.5 116.5t125.5 42.5
q44 0 73 -12l-14 -83q-30 16 -70 16q-33 0 -61 -23.5t-35 -65.5l-8 -46h310l-90 -510h-84l75 433h-225l-77 -433h-84l76 433h-225l-77 -433h-84z" />
    <glyph glyph-name="f_f_j.liga" unicode="ffj" horiz-adv-x="895" 
d="M813 621q-18 18 -18 43q0 26 18 43.5t43 17.5t42.5 -18t17.5 -43t-17.5 -43t-42.5 -18t-43 18zM558 -218l14 79q7 -4 19.5 -7t22.5 -3q58 0 70 71l90 511h-225l-77 -433h-84l76 433h-225l-77 -433h-84l76 433h-95l14 77h95l9 55q13 74 65.5 116.5t125.5 42.5q43 0 74 -12
l-15 -83q-30 16 -69 16q-34 0 -62 -23t-35 -66l-8 -46h225l9 55q13 74 65.5 116.5t125.5 42.5q44 0 73 -12l-14 -83q-30 16 -70 16q-33 0 -61 -23.5t-35 -65.5l-8 -46h310l-105 -592q-14 -79 -54.5 -111.5t-105.5 -32.5q-24 0 -50 8z" />
    <glyph glyph-name="f_f_k.liga" unicode="ffk" horiz-adv-x="1185" 
d="M154 433h-95l14 77h95l9 55q13 74 65.5 116.5t125.5 42.5q43 0 74 -12l-15 -83q-30 16 -69 16q-34 0 -62 -23t-35 -66l-8 -46h225l10 55q13 72 62.5 113.5t134.5 41.5h225l-79 -449l276 239h114l-1 -4l-238 -202l152 -300l-1 -4h-98l-121 246l-103 -88l-28 -158h-84
l113 643h-141q-41 0 -67 -22t-33 -65l-8 -46h129l-14 -77h-129l-76 -433h-84l75 433h-225l-77 -433h-84z" />
    <glyph glyph-name="f_f_l.liga" unicode="ffl" horiz-adv-x="892" 
d="M154 433h-95l14 77h95l9 55q13 74 65.5 116.5t125.5 42.5q43 0 74 -12l-15 -83q-30 16 -69 16q-34 0 -62 -23t-35 -66l-8 -46h225l10 55q13 72 62.5 113.5t134.5 41.5h225l-127 -720h-84l113 643h-141q-41 0 -67 -22t-33 -65l-8 -46h129l-14 -77h-129l-76 -433h-84
l75 433h-225l-77 -433h-84z" />
    <glyph glyph-name="f_f_t.liga" unicode="fft" horiz-adv-x="991" 
d="M753 22.5q-33 30.5 -33 80.5q0 23 5 49l49 281h-225l-77 -433h-84l76 433h-225l-77 -433h-84l76 433h-95l14 77h95l9 55q13 74 65.5 116.5t125.5 42.5q43 0 74 -12l-15 -83q-30 16 -69 16q-34 0 -62 -23t-35 -66l-8 -46h225l9 55q13 74 65.5 116.5t125.5 42.5
q44 0 73 -12l-14 -83q-30 16 -70 16q-33 0 -61 -23.5t-35 -65.5l-8 -46h225l25 144h85l-25 -144h124l-13 -77h-125l-48 -271q-5 -28 -5 -39q0 -24 15.5 -38t41.5 -14q33 0 62 17l-15 -83q-32 -13 -71 -13q-53 0 -86 30.5z" />
    <glyph glyph-name="f_h.liga" unicode="fh" horiz-adv-x="930" 
d="M154 433h-95l14 77h95l10 55q13 72 62 113.5t134 41.5h226l-38 -215l-17 -70h4q28 41 73.5 66t102.5 25q78 0 120.5 -41.5t42.5 -109.5q0 -32 -7 -68l-54 -307h-85l55 307q5 30 5 49q0 42 -29.5 67.5t-77.5 25.5q-62 0 -110 -48t-62 -124l-50 -277h-84l113 643h-141
q-41 0 -67 -22t-33 -65l-9 -46h130l-14 -77h-129l-76 -433h-85z" />
    <glyph glyph-name="f_i.liga" unicode="fi" horiz-adv-x="585" 
d="M502.5 621q-17.5 18 -17.5 43t17.5 43t42.5 18q26 0 43.5 -17.5t17.5 -43.5q0 -25 -17.5 -43t-43.5 -18q-25 0 -42.5 18zM154 433h-95l14 77h95l9 55q13 74 65.5 116.5t125.5 42.5q43 0 74 -12l-15 -83q-30 16 -69 16q-34 0 -62 -23t-35 -66l-8 -46h310l-90 -510h-84
l75 433h-225l-77 -433h-84z" />
    <glyph glyph-name="f_j.liga" unicode="fj" horiz-adv-x="588" 
d="M248 -218l14 79q7 -4 19 -7t23 -3q58 0 70 71l90 511h-225l-77 -433h-84l76 433h-95l14 77h95l9 55q13 74 65.5 116.5t125.5 42.5q43 0 74 -12l-15 -83q-30 16 -69 16q-34 0 -62 -23t-35 -66l-8 -46h310l-105 -592q-14 -79 -54.5 -111.5t-105.5 -32.5q-24 0 -50 8z
M504 616q-18 18 -18 43q0 26 18 43.5t43 17.5t43 -18t18 -43t-18 -43t-43 -18t-43 18z" />
    <glyph glyph-name="f_k.liga" unicode="fk" horiz-adv-x="875" 
d="M154 433h-95l14 77h95l10 55q13 72 62 113.5t134 41.5h226l-79 -449l277 239h113l-1 -4l-238 -202l152 -300l-1 -4h-99l-120 246l-103 -88l-28 -158h-84l113 643h-141q-41 0 -67 -22t-33 -65l-9 -46h130l-14 -77h-129l-76 -433h-85z" />
    <glyph glyph-name="f_l.liga" unicode="fl" horiz-adv-x="582" 
d="M502 643h-141q-41 0 -67 -22t-33 -65l-9 -46h130l-14 -77h-129l-76 -433h-85l76 433h-95l14 77h95l10 55q13 72 62 113.5t134 41.5h226l-127 -720h-84z" />
    <glyph glyph-name="f_t.liga" unicode="ft" horiz-adv-x="681" 
d="M442.5 22.5q-32.5 30.5 -32.5 80.5q0 23 5 49l49 281h-225l-77 -433h-84l76 433h-95l14 77h95l9 55q13 74 65.5 116.5t125.5 42.5q43 0 74 -12l-15 -83q-30 16 -69 16q-34 0 -62 -23t-35 -66l-8 -46h225l25 144h85l-25 -144h124l-13 -77h-125l-48 -271q-5 -28 -5 -39
q0 -24 15.5 -38t41.5 -14q33 0 62 17l-15 -83q-32 -13 -72 -13q-53 0 -85.5 30.5z" />
    <glyph glyph-name="r_f.liga" unicode="rf" horiz-adv-x="749" 
d="M109 510h80l-14 -81h4q24 45 70.5 70t103.5 25q21 0 35 -3l-15 -87q-20 4 -43 4q-41 0 -78.5 -20t-63.5 -55.5t-34 -81.5l-50 -281h-85zM523 433h-95l14 77h95l9 55q13 74 65.5 116.5t125.5 42.5q43 0 74 -12l-15 -83q-30 16 -69 16q-34 0 -62 -23t-35 -66l-8 -46h130
l-13 -77h-131l-77 -433h-84z" />
    <glyph glyph-name="r_f_f.liga" unicode="rff" horiz-adv-x="1059" 
d="M109 510h80l-14 -81h4q24 45 70.5 70t103.5 25q21 0 35 -3l-15 -87q-20 4 -43 4q-41 0 -78.5 -20t-63.5 -55.5t-34 -81.5l-50 -281h-85zM523 433h-95l14 77h95l9 55q13 74 65.5 116.5t125.5 42.5q43 0 74 -12l-15 -83q-30 16 -69 16q-34 0 -62 -23t-35 -66l-8 -46h225
l10 55q12 74 64.5 116.5t125.5 42.5q45 0 74 -12l-15 -83q-30 16 -69 16q-33 0 -61 -23t-36 -66l-8 -46h131l-14 -77h-131l-76 -433h-85l77 433h-226l-77 -433h-84z" />
    <glyph glyph-name="r_t.liga" unicode="rt" horiz-adv-x="745" 
d="M506 22.5q-33 30.5 -33 80.5q0 23 5 49l50 281h-90l14 77h89l26 144h84l-25 -144h125l-14 -77h-125l-48 -271q-4 -23 -4 -39q0 -25 15.5 -38.5t41.5 -13.5q32 0 61 17l-14 -83q-32 -13 -72 -13q-53 0 -86 30.5zM109 510h80l-14 -81h4q24 45 70.5 70t103.5 25q21 0 35 -3
l-15 -87q-20 4 -43 4q-41 0 -78.5 -20t-63.5 -55.5t-34 -81.5l-50 -281h-85z" />
    <glyph glyph-name="t_f.liga" unicode="tf" horiz-adv-x="686" 
d="M127 22.5q-33 30.5 -33 80.5q0 23 5 49l50 281h-90l14 77h89l26 144h84l-25 -144h228l9 55q12 74 64.5 116.5t125.5 42.5q45 0 74 -12l-15 -83q-28 16 -69 16q-33 0 -61 -23t-36 -66l-8 -46h131l-14 -77h-131l-76 -433h-85l77 433h-228l-48 -271q-4 -23 -4 -39
q0 -25 15.5 -38.5t41.5 -13.5q32 0 61 17l-14 -83q-32 -13 -72 -13q-53 0 -86 30.5z" />
    <glyph glyph-name="t_t.liga" unicode="tt" horiz-adv-x="677" 
d="M127 22.5q-33 30.5 -33 80.5q0 23 5 49l50 281h-90l14 77h89l26 144h84l-25 -144h227l25 144h85l-26 -144h125l-14 -77h-124l-48 -271q-5 -28 -5 -39q0 -25 15.5 -38.5t41.5 -13.5q33 0 62 17l-15 -83q-32 -13 -72 -13q-53 0 -85.5 30.5t-32.5 80.5q0 23 5 49l49 281
h-227l-48 -271q-4 -23 -4 -39q0 -25 15.5 -38.5t41.5 -13.5q32 0 61 17l-14 -83q-32 -13 -72 -13q-53 0 -86 30.5z" />
    <glyph glyph-name="G_o_o_g_l_e_l_o_g_o_l_i_g_a_t_u_r_e.liga" unicode="Googlelogoligature" horiz-adv-x="3284" 
d="M253 39.5q-96 55.5 -152.5 149.5t-56.5 205t56.5 205t152.5 149.5t207 55.5q163 0 281 -113l-79 -79q-85 80 -202 80q-81 0 -148.5 -40t-106.5 -108.5t-39 -149.5t39 -149.5t106.5 -108.5t148.5 -40q72 0 121.5 23t85.5 59q49 49 61 141h-268v112h377q6 -30 6 -70
q0 -71 -23 -141t-74 -121q-110 -115 -286 -115q-111 0 -207 55.5zM2625 0v776h116v-776h-116zM1015 18.5q-61 34.5 -96.5 95t-35.5 134.5q0 75 35.5 135.5t96.5 94.5t133 34t133 -34t96.5 -94.5t35.5 -135.5q0 -74 -35.5 -134.5t-96.5 -95t-133 -34.5t-133 34.5zM1593 18.5
q-61 34.5 -96.5 95t-35.5 134.5q0 75 35.5 135.5t96.5 94.5t133 34t133 -34t96.5 -94.5t35.5 -135.5q0 -74 -35.5 -134.5t-96.5 -95t-133 -34.5t-133 34.5zM2146 -206q-60 47 -86 109l101 42q16 -38 50 -66t83 -28q66 0 103.5 40t37.5 115v38h-4q-21 -26 -57.5 -43
t-81.5 -17q-66 0 -124 35t-93.5 95.5t-35.5 132.5q0 73 35.5 133.5t94 96t123.5 35.5q45 0 81.5 -17t57.5 -42h4v43h110v-474q0 -138 -70.5 -206.5t-180.5 -68.5q-88 0 -148 47zM2925 19q-60 35 -94 95.5t-34 133.5q0 77 33.5 137t90.5 93.5t125 33.5q91 0 147 -53t79 -115
l12 -30l-353 -146q41 -80 128 -80q80 0 130 73l90 -60q-30 -45 -85 -81t-135 -36q-74 0 -134 35zM3111 394.5q-27 15.5 -61 15.5q-31 0 -64 -18t-54 -53t-20 -83l236 98q-10 25 -37 40.5zM1222 108.5q34 20.5 54.5 57t20.5 82.5t-20.5 82.5t-54.5 57t-74 20.5t-74 -20.5
t-54.5 -57t-20.5 -82.5t20.5 -82.5t54.5 -57t74 -20.5t74 20.5zM1800 108.5q34 20.5 54.5 57t20.5 82.5t-20.5 82.5t-54.5 57t-74 20.5t-74 -20.5t-54.5 -57t-20.5 -82.5t20.5 -82.5t54.5 -57t74 -20.5t74 20.5zM2373.5 108.5q32.5 20.5 51 57t18.5 81.5q0 46 -18.5 82.5
t-51 57.5t-71.5 21q-40 0 -73.5 -21t-53.5 -58t-20 -82t20 -81.5t53.5 -57t73.5 -20.5q39 0 71.5 20.5z" />
    <glyph glyph-name=".notdef" horiz-adv-x="569" 
d="M514 716v-716h-422v716h422zM454 57v602h-302v-602h302z" />
    <glyph glyph-name=".null" 
 />
    <glyph glyph-name="uni000D" unicode="&#xd;" 
 />
    <glyph glyph-name="uni0002" 
 />
    <glyph glyph-name="uni0009" unicode="&#x9;" 
 />
    <glyph glyph-name="space" unicode=" " horiz-adv-x="224" 
 />
    <glyph glyph-name="exclam" unicode="!" horiz-adv-x="238" 
d="M114 473l43 243h84l-43 -243l-55 -262h-66zM38.5 12.5q-18.5 18.5 -18.5 45.5q0 26 18.5 44.5t45.5 18.5t45.5 -18.5t18.5 -44.5q0 -27 -18.5 -45.5t-45.5 -18.5t-45.5 18.5z" />
    <glyph glyph-name="quotedbl" unicode="&#x22;" horiz-adv-x="323" 
d="M133 716h77l-39 -221h-77zM276 716h77l-39 -221h-77z" />
    <glyph glyph-name="numbersign" unicode="#" horiz-adv-x="626" 
d="M159 206h-124l14 70h122l25 141h-125l13 70h124l34 197h75l-35 -197h142l34 197h75l-35 -197h124l-13 -70h-123l-25 -141h126l-13 -70h-125l-35 -206h-75l36 206h-142l-35 -206h-75zM387 276l25 141h-142l-25 -141h142z" />
    <glyph glyph-name="dollar" unicode="$" horiz-adv-x="535" 
d="M182 -12q-66 11 -116.5 58t-60.5 122l80 30q5 -49 34 -84t78 -45l44 251q-72 32 -112.5 77t-40.5 113q0 50 27 91t76.5 67t115.5 31l15 85h71l-16 -88q57 -11 94.5 -47.5t52.5 -86.5l-81 -32q-21 67 -80 83l-42 -237q76 -36 114.5 -78.5t38.5 -107.5q0 -88 -62 -142
t-160 -62l-14 -86h-71zM293 617q-53 -5 -85.5 -32.5t-32.5 -76.5q0 -62 81 -103zM353.5 102q34.5 29 34.5 81q0 37 -20.5 62t-61.5 45l-40 -223q53 6 87.5 35z" />
    <glyph glyph-name="percent" unicode="%" horiz-adv-x="827" 
d="M126 400q-42 42 -42 107q0 53 26 97.5t71 70t101 25.5q65 0 106 -42t41 -107q0 -53 -25.5 -97.5t-71 -70t-100.5 -25.5q-64 0 -106 42zM123 32l562 659l47 -40l-561 -658zM326 456q34 36 34 89q0 41 -24.5 67t-61.5 26q-52 0 -86 -35.5t-34 -89.5q0 -41 24.5 -67
t61.5 -26q52 0 86 36zM469 26q-42 42 -42 107q0 53 26 97.5t71 70t101 25.5q65 0 106 -42t41 -107q0 -53 -25.5 -97.5t-71 -70t-100.5 -25.5q-64 0 -106 42zM669 82q34 36 34 89q0 41 -24.5 67t-61.5 26q-52 0 -86 -35.5t-34 -89.5q0 -41 24.5 -67t61.5 -26q52 0 86 36z" />
    <glyph glyph-name="ampersand" unicode="&#x26;" horiz-adv-x="628" 
d="M148 11q-50 27 -79 76t-29 114q0 80 42 143t125 104l-1 2q-33 57 -33 110q0 44 22 83.5t63.5 64t97.5 24.5q66 0 105.5 -33.5t55.5 -92.5l-83 -34q-20 79 -87 79q-37 0 -62 -25.5t-25 -65.5q0 -35 24 -78l176 -299l80 116l56 -41l-98 -140l55 -93l-74 -41l-40 68
q-78 -68 -180 -68q-61 0 -111 27zM402 115l-158 270q-56 -26 -90.5 -72t-34.5 -108q0 -39 19 -72t53 -52.5t77 -19.5q80 0 134 54z" />
    <glyph glyph-name="quotesingle" unicode="'" horiz-adv-x="180" 
d="M133 716h77l-39 -221h-77z" />
    <glyph glyph-name="parenleft" unicode="(" horiz-adv-x="323" 
d="M95.5 34q-33.5 99 -33.5 216q0 153 73 293.5t195 236.5l48 -45q-112 -104 -171.5 -226t-59.5 -274q0 -177 93 -327l-61 -44q-50 71 -83.5 170z" />
    <glyph glyph-name="parenright" unicode=")" horiz-adv-x="323" 
d="M-37 -91q112 104 171.5 226t59.5 274q0 177 -93 327l61 44q50 -71 83.5 -170t33.5 -216q0 -153 -73 -293.5t-195 -236.5z" />
    <glyph glyph-name="asterisk" unicode="*" horiz-adv-x="429" 
d="M103 421l98 104l-1 8l-102 38l28 64l104 -40l6 2l21 119h70l-21 -119l6 -2l106 37l22 -65l-117 -43l-4 -7l57 -99l-65 -42l-56 101h-7l-92 -101z" />
    <glyph glyph-name="plus" unicode="+" horiz-adv-x="558" 
d="M240 236h-182l12 70h182l32 182h71l-33 -182h183l-12 -70h-183l-32 -182h-70z" />
    <glyph glyph-name="comma" unicode="," horiz-adv-x="224" 
d="M52 0q-13 5 -25 20t-12 38q0 27 18.5 45t43.5 18q27 0 46 -18t19 -45q0 -15 -9 -29t-30 -40l-83 -99l-35 29z" />
    <glyph glyph-name="hyphen" unicode="-" horiz-adv-x="427" 
d="M388 345l-12 -70h-318l12 70h318z" />
    <glyph glyph-name="period" unicode="." horiz-adv-x="221" 
d="M30.5 12.5q-18.5 18.5 -18.5 45.5q0 26 18.5 44.5t45.5 18.5q26 0 44.5 -18.5t18.5 -44.5q0 -27 -18.5 -45.5t-44.5 -18.5q-27 0 -45.5 18.5z" />
    <glyph glyph-name="slash" unicode="/" horiz-adv-x="300" 
d="M301 716h78l-344 -716h-78z" />
    <glyph glyph-name="zero" unicode="0" horiz-adv-x="645" 
d="M163.5 20q-51.5 36 -79.5 103t-28 156q0 110 43.5 207t119.5 155.5t170 58.5q108 0 169 -78.5t61 -215.5q0 -111 -43.5 -208t-120.5 -155.5t-171 -58.5q-69 0 -120.5 36zM409.5 111q55.5 46 88.5 123t33 165q0 103 -38.5 161.5t-113.5 58.5q-60 0 -114.5 -47.5
t-88 -124.5t-33.5 -162q0 -104 39.5 -162t109.5 -58q62 0 117.5 46z" />
    <glyph glyph-name="one" unicode="1" horiz-adv-x="380" 
d="M263 564l-127 -85l-40 65l217 140h56l-121 -684h-84z" />
    <glyph glyph-name="two" unicode="2" horiz-adv-x="525" 
d="M16 85q227 196 295 257q41 36 63.5 59.5t36.5 51t14 60.5q0 48 -30.5 77t-84.5 29q-53 0 -88 -32t-49 -71l-76 34q23 61 79.5 105.5t144.5 44.5q55 0 99 -23t68.5 -62.5t24.5 -88.5q0 -48 -19.5 -88.5t-50 -74t-79.5 -76.5l-239 -206h321l-13 -81h-432z" />
    <glyph glyph-name="three" unicode="3" horiz-adv-x="536" 
d="M134 3q-45 19 -75.5 58t-37.5 94l82 32q7 -57 43 -89.5t92 -32.5q66 0 110.5 37.5t44.5 100.5q0 55 -34.5 85.5t-90.5 30.5h-59l14 79h54q68 0 108 32.5t40 89.5q0 44 -32 71.5t-79 27.5q-50 0 -82.5 -27t-51.5 -68l-75 35q26 62 80.5 101.5t137.5 39.5q54 0 97 -21.5
t67.5 -59.5t24.5 -85q0 -62 -33 -104.5t-88 -65.5v-4q38 -17 64 -56t26 -91q0 -68 -34.5 -120.5t-92.5 -80.5t-126 -28q-49 0 -94 19z" />
    <glyph glyph-name="four" unicode="4" horiz-adv-x="592" 
d="M353 147h-328l11 64l399 473h97l-80 -457h88l-14 -80h-88l-27 -147h-84zM367 227l59 332h-4l-276 -332h221z" />
    <glyph glyph-name="five" unicode="5" horiz-adv-x="563" 
d="M142 5q-46 21 -77 63t-36 101l81 30q5 -60 39.5 -97t91.5 -37q49 0 89.5 21t64 58.5t23.5 85.5q0 60 -34.5 96.5t-93.5 36.5q-36 0 -70 -16.5t-59 -45.5l-80 38l104 345h355l-14 -81h-285l-64 -207l4 -1q60 45 131 45q86 0 139 -54t53 -147q0 -69 -34 -127.5t-95 -93
t-139 -34.5q-48 0 -94 21z" />
    <glyph glyph-name="six" unicode="6" horiz-adv-x="558" 
d="M140 11q-49 27 -77.5 74.5t-28.5 106.5q0 63 27.5 114t90.5 122l238 272l59 -47l-206 -237l2 -2q37 20 76 20q52 0 94.5 -26t67 -73t24.5 -105q0 -73 -35.5 -129t-94.5 -86.5t-128 -30.5q-60 0 -109 27zM340.5 85q37.5 20 59 56t21.5 82q0 60 -38 97.5t-99 37.5
q-47 0 -84 -22t-58 -59t-21 -82q0 -56 40 -93t96 -37q46 0 83.5 20z" />
    <glyph glyph-name="seven" unicode="7" horiz-adv-x="529" 
d="M40 33l413 570h-347l15 81h438l-14 -87l-441 -613z" />
    <glyph glyph-name="eight" unicode="8" horiz-adv-x="552" 
d="M127 8q-47 24 -72.5 65t-25.5 91q0 66 40.5 117.5t106.5 77.5l1 4q-68 54 -68 130q0 55 31 103t85 76t120 28q83 0 133.5 -46t50.5 -122q0 -62 -34.5 -104.5t-84.5 -65.5l-1 -4q38 -19 63 -58.5t25 -86.5q0 -67 -36.5 -119.5t-97 -81t-129.5 -28.5q-60 0 -107 24z
M374 414q32 16 50.5 43t18.5 59q0 48 -30 75.5t-78 27.5q-58 0 -98.5 -34t-40.5 -88q0 -44 30.5 -71.5t77.5 -27.5q38 0 70 16zM322.5 82.5q38.5 17.5 63 50t24.5 75.5q0 49 -36.5 80t-91.5 31q-42 0 -80 -18.5t-61.5 -52t-23.5 -77.5q0 -47 35.5 -76.5t89.5 -29.5
q42 0 80.5 17.5z" />
    <glyph glyph-name="nine" unicode="9" horiz-adv-x="557" 
d="M139 31l206 237l-2 2q-37 -20 -73 -20q-52 0 -95.5 26.5t-68.5 73t-25 104.5q0 73 35.5 129t94.5 86.5t128 30.5q60 0 109 -27t77.5 -74.5t28.5 -106.5q0 -63 -27.5 -114t-90.5 -122l-237 -272zM388 348q37 22 58 59t21 82q0 37 -18.5 66.5t-49.5 46.5t-67 17
q-46 0 -83.5 -20t-59.5 -56t-22 -82q0 -60 38.5 -97.5t98.5 -37.5q47 0 84 22z" />
    <glyph glyph-name="colon" unicode=":" horiz-adv-x="238" 
d="M108.5 406.5q-18.5 18.5 -18.5 45.5t18.5 45.5t45.5 18.5q26 0 44.5 -18.5t18.5 -45.5t-18.5 -45.5t-44.5 -18.5q-27 0 -45.5 18.5zM38.5 12.5q-18.5 18.5 -18.5 45.5q0 26 18.5 44.5t45.5 18.5q26 0 44.5 -18.5t18.5 -44.5q0 -27 -18.5 -45.5t-44.5 -18.5
q-27 0 -45.5 18.5z" />
    <glyph glyph-name="semicolon" unicode=";" horiz-adv-x="246" 
d="M108.5 406.5q-18.5 18.5 -18.5 45.5t18.5 45.5t44.5 18.5q27 0 45.5 -18.5t18.5 -45.5t-18.5 -45.5t-45.5 -18.5q-26 0 -44.5 18.5zM-2 -64l67 80q-13 5 -25 20t-12 38q0 27 18.5 45.5t43.5 18.5q27 0 46 -18t19 -45q0 -15 -9 -29t-30 -40l-83 -99z" />
    <glyph glyph-name="less" unicode="&#x3c;" horiz-adv-x="497" 
d="M53 240l10 62l417 184l-14 -82l-316 -134l-1 -4l268 -137l-13 -73z" />
    <glyph glyph-name="equal" unicode="=" horiz-adv-x="568" 
d="M95 449h446l-12 -70h-446zM62 259h446l-13 -70h-446z" />
    <glyph glyph-name="greater" unicode="&#x3e;" horiz-adv-x="497" 
d="M38 138l316 134l1 4l-269 137l14 73l350 -184l-10 -62l-416 -184z" />
    <glyph glyph-name="question" unicode="?" horiz-adv-x="504" 
d="M202 259q8 52 31.5 84.5t83.5 77.5q45 33 71.5 65t26.5 71q0 42 -29.5 68t-77.5 26q-50 0 -84.5 -28t-48.5 -71l-74 33q23 65 78.5 106t140.5 41q52 0 94 -22t65.5 -59t23.5 -82q0 -59 -33.5 -103t-97.5 -93q-39 -30 -58.5 -57t-26.5 -63l-7 -42h-86zM164.5 12.5
q-18.5 18.5 -18.5 45.5q0 26 18.5 44.5t44.5 18.5q27 0 45.5 -18.5t18.5 -44.5q0 -27 -18.5 -45.5t-45.5 -18.5q-26 0 -44.5 18.5z" />
    <glyph glyph-name="at" unicode="@" horiz-adv-x="884" 
d="M223.5 -35.5q-78.5 46.5 -122.5 126t-44 173.5q0 118 58 215.5t160 154t228 56.5q94 0 173 -41.5t125.5 -116t46.5 -170.5q0 -70 -22 -131t-63.5 -98t-96.5 -37q-39 0 -66.5 20.5t-37.5 55.5q-26 -36 -66 -56t-84 -20q-45 0 -84 22.5t-62.5 63t-23.5 92.5
q0 56 26.5 109.5t77.5 87t120 33.5q43 0 75.5 -18t48.5 -44h4l9 48h67l-46 -261q-2 -14 -2 -22q0 -20 13 -35t38 -15q32 0 56 29.5t37.5 76t13.5 96.5q0 79 -36.5 138.5t-102.5 92.5t-151 33q-102 0 -184.5 -46.5t-129.5 -127.5t-47 -181q0 -81 37 -145.5t100.5 -101
t139.5 -36.5t136 28l22 -62q-73 -33 -165 -33q-97 0 -175.5 46.5zM501.5 186.5q32.5 20.5 51.5 55.5t19 77q0 53 -30 84t-81 31q-42 0 -74.5 -21t-50.5 -57t-18 -79q0 -53 31.5 -82t80.5 -29q39 0 71.5 20.5z" />
    <glyph glyph-name="A" unicode="A" horiz-adv-x="669" 
d="M367 716h96l145 -716h-90l-36 197h-309l-108 -197h-95zM466 277l-50 258l-14 77h-4l-183 -335h251z" />
    <glyph glyph-name="B" unicode="B" horiz-adv-x="605" 
d="M161 716h244q57 0 99.5 -23.5t65 -63t22.5 -86.5q0 -63 -37 -107.5t-91 -63.5l-1 -4q96 -49 96 -150q0 -60 -33.5 -110t-91.5 -79t-129 -29h-271zM363 406q61 0 102 33.5t41 90.5q0 45 -28.5 75t-79.5 30h-167l-41 -229h173zM323 81q37 0 71.5 16t56 46.5t21.5 72.5
q0 50 -32.5 80t-87.5 30h-176l-43 -245h190z" />
    <glyph glyph-name="C" unicode="C" horiz-adv-x="740" 
d="M208.5 24q-71.5 40 -112 113t-40.5 169q0 110 57 208.5t156 158t220 59.5q81 0 146 -33.5t99 -86.5l-68 -56q-33 49 -78.5 72t-108.5 23q-91 0 -168.5 -48t-122.5 -126.5t-45 -166.5q0 -73 31 -128.5t85 -86t121 -30.5q73 0 128.5 27t111.5 81l55 -61q-68 -66 -139 -97
t-165 -31q-91 0 -162.5 40z" />
    <glyph glyph-name="D" unicode="D" horiz-adv-x="703" 
d="M161 716h216q97 0 166 -40t104.5 -109.5t35.5 -158.5q0 -109 -51 -202.5t-147 -149.5t-225 -56h-226zM265 81q93 0 169 42.5t119 116t43 162.5q0 113 -61.5 173t-172.5 60h-131l-98 -554h132z" />
    <glyph glyph-name="E" unicode="E" horiz-adv-x="550" 
d="M161 716h414l-14 -81h-330l-42 -237h298l-14 -80h-298l-42 -237h330l-15 -81h-414z" />
    <glyph glyph-name="F" unicode="F" horiz-adv-x="530" 
d="M161 716h414l-14 -81h-330l-43 -245h298l-14 -80h-298l-56 -310h-84z" />
    <glyph glyph-name="G" unicode="G" horiz-adv-x="814" 
d="M220 24q-73 40 -117.5 115t-44.5 174q0 113 55.5 209t155.5 153t226 57q79 0 145.5 -29.5t100.5 -80.5l-69 -58q-25 40 -77 63.5t-113 23.5q-93 0 -170.5 -44t-122 -120.5t-44.5 -169.5q0 -78 33 -135t89 -87t122 -30q67 0 122.5 23.5t96.5 66.5q57 59 78 147h-259l14 79
h344q0 -20 -5 -52q-19 -135 -110 -229q-111 -116 -292 -116q-85 0 -158 40z" />
    <glyph glyph-name="H" unicode="H" horiz-adv-x="698" 
d="M161 716h84l-55 -310h369l56 310h84l-127 -716h-84l57 326h-369l-58 -326h-84z" />
    <glyph glyph-name="I" unicode="I" horiz-adv-x="244" 
d="M161 716h84l-127 -716h-84z" />
    <glyph glyph-name="J" unicode="J" horiz-adv-x="531" 
d="M75 29q-53 45 -62 121l82 32q6 -61 39 -89t83 -28q60 0 103.5 42t54.5 107l88 502h84l-87 -496q-20 -117 -88 -176.5t-165 -59.5q-79 0 -132 45z" />
    <glyph glyph-name="K" unicode="K" horiz-adv-x="626" 
d="M161 716h84l-65 -374h4l385 374h112l-1 -4l-319 -306l213 -402l-1 -4h-99l-180 341l-138 -131l-38 -210h-84z" />
    <glyph glyph-name="L" unicode="L" horiz-adv-x="508" 
d="M161 716h84l-112 -635h314l-15 -81h-398z" />
    <glyph glyph-name="M" unicode="M" horiz-adv-x="866" 
d="M161 716h119l126 -587h4l331 587h126l-127 -716h-84l80 455l29 136h-4l-335 -591h-71l-132 591h-4l-20 -136l-81 -455h-84z" />
    <glyph glyph-name="N" unicode="N" horiz-adv-x="707" 
d="M161 716h97l265 -570h4l21 138l76 432h85l-127 -716h-81l-277 597h-4l-20 -138l-82 -459h-84z" />
    <glyph glyph-name="O" unicode="O" horiz-adv-x="825" 
d="M217.5 25.5q-74.5 41.5 -117.5 115.5t-43 168q0 110 54 207.5t150.5 156.5t218.5 59q90 0 164 -41.5t117 -115.5t43 -168q0 -110 -53.5 -207.5t-150 -156.5t-217.5 -59q-91 0 -165.5 41.5zM555 112.5q75 47.5 118.5 125t43.5 162.5q0 76 -32.5 133t-89 87.5t-125.5 30.5
q-89 0 -163.5 -47.5t-118 -125t-43.5 -162.5q0 -76 32.5 -133t88.5 -87.5t125 -30.5q89 0 164 47.5z" />
    <glyph glyph-name="P" unicode="P" horiz-adv-x="576" 
d="M161 716h235q56 0 100 -23.5t69 -65.5t25 -96q0 -73 -33.5 -127.5t-93.5 -83t-136 -28.5h-156l-53 -292h-84zM342 373q71 0 116 37.5t45 109.5q0 53 -32.5 84t-81.5 31h-158l-46 -262h157z" />
    <glyph glyph-name="Q" unicode="Q" horiz-adv-x="825" 
d="M553 20q-81 -36 -170 -36q-91 0 -165.5 41.5t-117.5 115.5t-43 168q0 110 54 207.5t150.5 156.5t218.5 59q90 0 164 -41.5t117 -115.5t43 -168q0 -103 -47 -194.5t-130 -150.5l33 -69l-75 -38zM516 92l-65 134l76 40l63 -127q58 48 92.5 117.5t34.5 143.5q0 76 -32.5 133
t-89 87.5t-125.5 30.5q-89 0 -163.5 -47.5t-118 -125t-43.5 -162.5q0 -76 32.5 -133t88.5 -87.5t125 -30.5q63 0 125 27z" />
    <glyph glyph-name="R" unicode="R" horiz-adv-x="586" 
d="M161 716h235q56 0 100 -24t69 -67t25 -99q0 -88 -57.5 -149t-151.5 -79l-3 -3l149 -291l-1 -4h-95l-146 292h-114l-53 -292h-84zM337 371q71 0 118.5 41t47.5 112q0 48 -32.5 79.5t-88.5 31.5h-151l-46 -264h152z" />
    <glyph glyph-name="S" unicode="S" horiz-adv-x="564" 
d="M99 35.5q-62 51.5 -76 142.5l81 33q8 -65 48 -105.5t107 -40.5q41 0 78.5 17.5t61 49.5t23.5 74q0 45 -30.5 74.5t-98.5 54.5l-43 16q-63 24 -103 67t-40 111q0 58 32.5 104t87 72.5t118.5 26.5q65 0 110 -23.5t68.5 -57.5t28.5 -67l-82 -30q-7 38 -38 67.5t-93 29.5
q-61 0 -102.5 -31.5t-41.5 -83.5q0 -41 28 -68t83 -48l43 -16q161 -60 161 -186q0 -70 -34 -123t-93.5 -82t-133.5 -29q-88 0 -150 51.5z" />
    <glyph glyph-name="T" unicode="T" horiz-adv-x="538" 
d="M293 635h-201l15 81h486l-15 -81h-200l-113 -635h-84z" />
    <glyph glyph-name="U" unicode="U" horiz-adv-x="661" 
d="M175 10.5q-50 26.5 -79.5 75t-29.5 113.5q0 44 8 94l75 423h84l-78 -443q-6 -35 -6 -61q0 -68 38 -107.5t112 -39.5q85 0 140.5 54.5t71.5 141.5l80 455h84l-82 -466q-22 -125 -101.5 -195.5t-206.5 -70.5q-60 0 -110 26.5z" />
    <glyph glyph-name="V" unicode="V" horiz-adv-x="631" 
d="M96 716h91l85 -519l12 -71h4l38 71l276 519h96l-389 -716h-87z" />
    <glyph glyph-name="W" unicode="W" horiz-adv-x="944" 
d="M99 716h91l38 -526l4 -49h4l23 49l252 526h88l61 -526l6 -49h4l20 49l223 526h95l-316 -716h-88l-65 518l-7 56h-4l-26 -56l-248 -518h-89z" />
    <glyph glyph-name="X" unicode="X" horiz-adv-x="629" 
d="M278 375l-168 341h99l131 -277h4l228 277h104l-290 -348l183 -368h-100l-146 299h-4l-249 -299h-100z" />
    <glyph glyph-name="Y" unicode="Y" horiz-adv-x="595" 
d="M270 331l-174 385h97l130 -300h4l233 300h102l-307 -385l-59 -331h-84z" />
    <glyph glyph-name="Z" unicode="Z" horiz-adv-x="571" 
d="M9 89l479 546h-367l14 81h468l-16 -89l-480 -546h388l-15 -81h-487z" />
    <glyph glyph-name="bracketleft" unicode="[" horiz-adv-x="318" 
d="M174 792h201l-12 -70h-124l-137 -776h124l-12 -70h-200z" />
    <glyph glyph-name="backslash" unicode="\" horiz-adv-x="298" 
d="M83 716h76l92 -716h-76z" />
    <glyph glyph-name="bracketright" unicode="]" horiz-adv-x="318" 
d="M-16 -54h123l136 776h-123l12 70h201l-161 -916h-200z" />
    <glyph glyph-name="asciicircum" unicode="^" horiz-adv-x="464" 
d="M304 634h-4l-167 -224h-94l241 306h67l133 -306h-85z" />
    <glyph glyph-name="underscore" unicode="_" horiz-adv-x="476" 
d="M405 -146l-12 -70h-476l13 70h475z" />
    <glyph glyph-name="grave" unicode="`" horiz-adv-x="397" 
d="M162 716h91l29 -127h-72z" />
    <glyph glyph-name="a" unicode="a" horiz-adv-x="531" 
d="M104.5 4.5q-38.5 20.5 -61 56t-22.5 79.5q0 85 62.5 135.5t171.5 50.5q40 0 78.5 -9.5t68.5 -25.5l6 30q3 17 3 29q0 45 -35.5 72.5t-89.5 27.5q-83 0 -137 -68l-66 47q36 46 91 71.5t121 25.5q92 0 144.5 -44.5t52.5 -119.5q0 -21 -5 -51l-56 -311h-81l13 72h-4
q-27 -40 -71 -64t-100 -24q-45 0 -83.5 20.5zM327 104.5q51 45.5 63 116.5q-31 18 -62 27t-78 9q-63 0 -102.5 -29.5t-39.5 -81.5q0 -40 28.5 -63.5t70.5 -23.5q69 0 120 45.5z" />
    <glyph glyph-name="b" unicode="b" horiz-adv-x="600" 
d="M182.5 10.5q-44.5 26.5 -66.5 65.5h-4l-13 -76h-80l126 716h85l-38 -211l-16 -71h4q24 39 69 65.5t106 26.5t110 -30.5t76.5 -84.5t27.5 -123q0 -81 -36.5 -151t-102 -111.5t-147.5 -41.5q-56 0 -100.5 26.5zM384 89.5q46 28.5 72.5 79t26.5 113.5q0 73 -42.5 120
t-108.5 47q-53 0 -97.5 -32t-70 -84.5t-25.5 -111.5q0 -73 41 -116.5t102 -43.5q56 0 102 28.5z" />
    <glyph glyph-name="c" unicode="c" horiz-adv-x="551" 
d="M140.5 16q-50.5 32 -78.5 86t-28 117q0 85 38 155t106 111t154 41q82 0 134 -41t69 -100l-79 -31q-14 45 -48.5 70t-85.5 25q-55 0 -101 -29t-73 -80t-27 -115q0 -70 40.5 -117t106.5 -47q52 0 93 25.5t66 71.5l68 -33q-40 -72 -97.5 -106.5t-141.5 -34.5
q-65 0 -115.5 32z" />
    <glyph glyph-name="d" unicode="d" horiz-adv-x="600" 
d="M129.5 12.5q-47.5 28.5 -74.5 81t-27 121.5q0 85 38 156t105.5 113t151.5 42q57 0 99.5 -27t62.5 -66h4l8 71l38 212h84l-127 -716h-80l13 75h-4q-29 -42 -75 -66.5t-110 -24.5q-59 0 -106.5 28.5zM361.5 92q46.5 31 73 83.5t26.5 115.5q0 72 -41 115t-103 43
q-58 0 -104 -29.5t-72 -81.5t-26 -115q0 -74 40.5 -118t103.5 -44q56 0 102.5 31z" />
    <glyph glyph-name="e" unicode="e" horiz-adv-x="564" 
d="M140 15.5q-52 31.5 -79.5 85t-27.5 117.5q0 80 36 151t102 114t151 43q66 0 114 -29t73 -78.5t25 -107.5q0 -43 -9 -72h-404q-2 -20 -2 -32q0 -44 20.5 -77.5t54 -51t71.5 -17.5q59 0 100.5 24.5t69.5 70.5l65 -37q-38 -66 -99 -100.5t-140 -34.5q-69 0 -121 31.5z
M449 309v14q0 33 -16 62t-47 46.5t-74 17.5q-64 0 -111.5 -39.5t-65.5 -100.5h314z" />
    <glyph glyph-name="f" unicode="f" horiz-adv-x="380" 
d="M154 433h-95l14 77h95l9 55q13 74 65.5 116.5t125.5 42.5q43 0 74 -12l-15 -83q-30 16 -69 16q-34 0 -62 -23t-35 -66l-8 -46h130l-13 -77h-131l-77 -433h-84z" />
    <glyph glyph-name="g" unicode="g" horiz-adv-x="597" 
d="M105.5 -211q-43.5 21 -69.5 53.5t-33 68.5l82 33q11 -44 45 -71.5t89 -27.5q79 0 130 47t65 129l10 56h-4q-29 -42 -73 -64.5t-108 -22.5q-57 0 -104 28.5t-74 81t-27 119.5q0 81 36 151.5t101.5 113t150.5 42.5q58 0 101 -25t61 -64h4l13 73h81l-87 -494
q-22 -126 -98 -187t-190 -61q-58 0 -101.5 21zM361.5 98q46.5 31 72.5 82.5t26 110.5q0 72 -39 115t-100 43q-60 0 -106 -30t-71 -81.5t-25 -114.5q0 -73 39 -114.5t99 -41.5q58 0 104.5 31z" />
    <glyph glyph-name="h" unicode="h" horiz-adv-x="561" 
d="M145 716h85l-38 -211l-16 -70h4q28 41 73 66t102 25q78 0 121 -41.5t43 -109.5q0 -32 -7 -68l-55 -307h-84l54 307q6 27 6 49q0 42 -29.5 67.5t-77.5 25.5q-63 0 -111 -48t-62 -124l-49 -277h-85z" />
    <glyph glyph-name="i" unicode="i" horiz-adv-x="226" 
d="M143 622q-18 18 -18 43q0 26 18 43.5t43 17.5q26 0 43.5 -17.5t17.5 -43.5q0 -25 -17.5 -43t-43.5 -18q-25 0 -43 18zM115 510h85l-90 -510h-84z" />
    <glyph glyph-name="j" unicode="j" horiz-adv-x="226" 
d="M143 622q-18 18 -18 43q0 26 18 43.5t43 17.5q26 0 43.5 -17.5t17.5 -43.5q0 -25 -17.5 -43t-43.5 -18q-25 0 -43 18zM-114 -218l14 79q7 -4 19.5 -7t22.5 -3q58 0 70 71l104 588h85l-105 -592q-14 -79 -54.5 -111.5t-105.5 -32.5q-24 0 -50 8z" />
    <glyph glyph-name="k" unicode="k" horiz-adv-x="507" 
d="M147 716h84l-78 -444l275 238h115l-1 -4l-238 -202l152 -300l-1 -4h-99l-120 246l-103 -88l-28 -158h-84z" />
    <glyph glyph-name="l" unicode="l" horiz-adv-x="212" 
d="M145 716h84l-126 -716h-84z" />
    <glyph glyph-name="m" unicode="m" horiz-adv-x="876" 
d="M189 510l-13 -75h4q27 43 69.5 67t99.5 24q56 0 93 -26t50 -73q28 46 77 72.5t110 26.5q74 0 115 -38.5t41 -101.5q0 -27 -9 -77l-54 -309h-84l55 314q5 30 5 49q0 41 -25 63.5t-73 22.5q-60 0 -104.5 -48t-57.5 -121l-50 -280h-85l55 313q5 30 5 48q0 41 -26 64.5
t-71 23.5q-60 0 -105.5 -49.5t-57.5 -121.5l-49 -278h-85l90 510h80z" />
    <glyph glyph-name="n" unicode="n" horiz-adv-x="561" 
d="M180 435q27 41 72 66t103 25q76 0 119.5 -41.5t43.5 -109.5q0 -40 -6 -71l-54 -304h-85l54 306q6 38 6 50q0 44 -29.5 68.5t-78.5 24.5q-62 0 -110 -46t-60 -116l-51 -287h-85l90 510h80l-13 -75h4z" />
    <glyph glyph-name="o" unicode="o" horiz-adv-x="595" 
d="M145.5 16q-52.5 32 -81.5 87.5t-29 123.5q0 83 36.5 151t104 108t154.5 40q68 0 120.5 -32t81 -87.5t28.5 -123.5q0 -83 -36.5 -151.5t-104 -108t-154.5 -39.5q-67 0 -119.5 32zM378.5 90.5q45.5 29.5 70.5 79t25 108.5q0 74 -42.5 122.5t-111.5 48.5q-58 0 -103.5 -29.5
t-70.5 -79t-25 -108.5q0 -75 42.5 -123t111.5 -48q58 0 103.5 29.5z" />
    <glyph glyph-name="p" unicode="p" horiz-adv-x="601" 
d="M109 510h80l-13 -75h4q29 42 75.5 66.5t109.5 24.5q59 0 106.5 -28.5t74.5 -81t27 -122.5q0 -84 -38 -155.5t-105.5 -113t-151.5 -41.5q-56 0 -99 26.5t-62 65.5h-4l-9 -71l-39 -221h-85zM389 90.5q46 29.5 72 81.5t26 115q0 74 -40.5 118t-104.5 44q-56 0 -102 -31
t-72.5 -84t-26.5 -117q0 -72 41 -114t103 -42q58 0 104 29.5z" />
    <glyph glyph-name="q" unicode="q" horiz-adv-x="597" 
d="M403 5l17 70h-4q-23 -41 -67.5 -66t-107.5 -25q-62 0 -111 30t-77 84.5t-28 123.5q0 80 37 150t102.5 112t147.5 42q57 0 101 -26.5t66 -65.5h4l14 76h79l-126 -726h-85zM360.5 93q44.5 32 70 84.5t25.5 111.5q0 73 -41.5 116.5t-103.5 43.5q-55 0 -101 -28.5t-72.5 -79
t-26.5 -113.5q0 -74 42.5 -120.5t109.5 -46.5q53 0 97.5 32z" />
    <glyph glyph-name="r" unicode="r" horiz-adv-x="375" 
d="M109 510h80l-13 -76h4q20 42 66.5 66.5t97.5 24.5q36 0 59 -10l-17 -93q-25 17 -69 17q-36 0 -71.5 -21t-60 -56.5t-31.5 -76.5l-50 -285h-85z" />
    <glyph glyph-name="s" unicode="s" horiz-adv-x="468" 
d="M75 23q-53 39 -70 101l81 32q10 -46 47 -71.5t84 -25.5q49 0 80.5 23t31.5 58q0 31 -21 51.5t-65 31.5l-51 13q-61 16 -96.5 50t-35.5 86q0 43 25.5 78.5t71.5 55.5t103 20q68 0 119.5 -32t68.5 -84l-81 -31q-12 32 -41.5 51.5t-70.5 19.5q-48 0 -77.5 -20t-29.5 -52
q0 -22 19 -41t55 -28l66 -17q60 -15 94.5 -52t34.5 -90q0 -75 -55.5 -120.5t-152.5 -45.5q-81 0 -134 39z" />
    <glyph glyph-name="t" unicode="t" horiz-adv-x="366" 
d="M127 22.5q-33 30.5 -33 80.5q0 23 5 49l50 281h-90l14 77h89l26 144h84l-25 -144h125l-14 -77h-125l-48 -271q-4 -23 -4 -39q0 -25 15.5 -38.5t41.5 -13.5q32 0 61 17l-14 -83q-32 -13 -72 -13q-53 0 -86 30.5z" />
    <glyph glyph-name="u" unicode="u" horiz-adv-x="561" 
d="M382 74q-27 -41 -72 -65.5t-103 -24.5q-76 0 -120 41.5t-44 109.5q0 33 7 71l54 304h84l-54 -306q-5 -25 -5 -50q0 -44 29.5 -68.5t77.5 -24.5q62 0 110 45.5t61 115.5l51 288h84l-89 -510h-81l14 74h-4z" />
    <glyph glyph-name="v" unicode="v" horiz-adv-x="514" 
d="M52 510h90l85 -410h2l231 410h92l-298 -510h-87z" />
    <glyph glyph-name="w" unicode="w" horiz-adv-x="778" 
d="M52 510h86l48 -403h1l200 403h90l59 -402h1l190 402h89l-254 -510h-89l-58 407l-203 -407h-86z" />
    <glyph glyph-name="x" unicode="x" horiz-adv-x="486" 
d="M192 261l-129 249h96l94 -188h1l157 188h103l-222 -254l136 -256h-96l-98 196h-1l-163 -196h-102z" />
    <glyph glyph-name="y" unicode="y" horiz-adv-x="516" 
d="M179 33l-127 477h89l95 -379h2l222 379h94l-444 -726h-90z" />
    <glyph glyph-name="z" unicode="z" horiz-adv-x="481" 
d="M366 433h-290l14 77h397l-13 -73l-362 -360h301l-14 -77h-406l12 73z" />
    <glyph glyph-name="braceleft" unicode="{" horiz-adv-x="314" 
d="M94 -89.5q-38 34.5 -38 89.5q0 21 3 39l31 176q2 14 2 21q0 31 -16 47t-45 16l12 70q33 0 57 21t32 64l31 175q14 81 59.5 122t128.5 41h25l-12 -70h-22q-41 0 -67.5 -25t-34.5 -71l-32 -175q-9 -49 -29.5 -76t-57.5 -39l-1 -4q26 -10 39 -29t13 -50q0 -17 -4 -36
l-32 -176q-3 -18 -3 -26q0 -33 20.5 -51t52.5 -18h21l-12 -70h-22q-61 0 -99 34.5z" />
    <glyph glyph-name="bar" unicode="|" horiz-adv-x="237" 
d="M175 792h77l-161 -912h-77z" />
    <glyph glyph-name="braceright" unicode="}" horiz-adv-x="314" 
d="M-22 -54h22q41 0 67.5 25t34.5 71l32 175q9 49 29.5 76t57.5 39l1 4q-26 10 -39 29t-13 50q0 17 4 36l32 176q3 18 3 26q0 33 -20 51t-53 18h-21l12 70h22q61 0 99 -34.5t38 -89.5q0 -21 -3 -39l-31 -176q-2 -14 -2 -21q0 -31 16 -47t45 -16l-12 -70q-33 0 -57 -21
t-32 -64l-31 -175q-14 -81 -59.5 -122t-127.5 -41h-26z" />
    <glyph glyph-name="asciitilde" unicode="~" horiz-adv-x="536" 
d="M327 245q-26 9 -62 27q-36 17 -56.5 24.5t-41.5 7.5q-25 0 -42 -16.5t-23 -38.5h-66q7 62 42.5 96.5t95.5 34.5q27 0 53 -9t62 -27q36 -17 56.5 -24.5t41.5 -7.5q25 0 42 16.5t22 38.5h67q-8 -62 -43 -96.5t-95 -34.5q-27 0 -53 9z" />
    <glyph glyph-name="uni00A0" unicode="&#xa0;" horiz-adv-x="224" 
 />
    <glyph glyph-name="exclamdown" unicode="&#xa1;" horiz-adv-x="238" 
d="M110.5 416.5q-18.5 18.5 -18.5 45.5t18.5 45.5t45.5 18.5q26 0 44.5 -18.5t18.5 -45.5t-18.5 -45.5t-44.5 -18.5q-27 0 -45.5 18.5zM38 27l59 277h65l-39 -277l-43 -243h-85z" />
    <glyph glyph-name="cent" unicode="&#xa2;" horiz-adv-x="531" 
d="M223 86q-77 13 -124.5 75.5t-47.5 148.5q0 77 34 141t94 103t135 45l15 85h70l-16 -87q62 -11 100.5 -48t53.5 -87l-80 -32q-23 75 -87 90l-63 -359q40 8 68 31t52 63l70 -33q-41 -66 -88 -99t-116 -39l-15 -84h-70zM300 523q-72 -11 -118 -69.5t-46 -137.5
q0 -57 27 -98.5t74 -55.5z" />
    <glyph glyph-name="sterling" unicode="&#xa3;" horiz-adv-x="525" 
d="M10 73q55 26 91.5 71t36.5 96l-1 9h-96l12 71h68q-2 6 -4.5 14t-5.5 17q-14 41 -21.5 70t-7.5 62q0 58 28 108t81 79.5t123 29.5q78 0 122 -39.5t60 -101.5l-82 -32q-11 42 -37 67t-75 25q-58 0 -96 -39.5t-38 -97.5q0 -27 7 -52.5t21 -63.5q4 -10 16 -46h141l-12 -71
h-119v-5q-1 -46 -25 -86.5t-64 -72.5l4 -4h183q37 0 59.5 15t38.5 44l65 -29q-27 -56 -69 -83.5t-109 -27.5h-308z" />
    <glyph glyph-name="currency" unicode="&#xa4;" horiz-adv-x="593" 
d="M72 143l60 58q-38 57 -38 124q0 69 38 124l-60 59l49 50l59 -57q56 43 129 43q72 0 129 -43l59 57l49 -50l-59 -58q37 -55 37 -125q0 -68 -37 -124l59 -58l-49 -50l-59 57q-59 -44 -129 -44q-72 0 -129 44l-59 -57zM378 199.5q32 19.5 50.5 53t18.5 72.5t-18.5 72.5
t-50.5 53t-69 19.5t-69 -19.5t-50.5 -53t-18.5 -72.5t18.5 -72.5t50.5 -53t69 -19.5t69 19.5z" />
    <glyph glyph-name="yen" unicode="&#xa5;" horiz-adv-x="572" 
d="M230 169h-170l12 70h171l15 85h-170l12 70h125l-134 290h93l100 -232l24 -57h4l222 289h98l-233 -290h122l-12 -70h-167l-15 -85h167l-13 -70h-166l-30 -169h-85z" />
    <glyph glyph-name="brokenbar" unicode="&#xa6;" horiz-adv-x="237" 
d="M169 756h77l-67 -380h-77zM87 292h77l-73 -412h-77z" />
    <glyph glyph-name="section" unicode="&#xa7;" horiz-adv-x="545" 
d="M103.5 -209.5q-46.5 22.5 -76.5 65.5t-35 102l80 32q7 -62 42.5 -101.5t98.5 -39.5q60 0 101.5 32t41.5 88q0 47 -31.5 75t-99.5 50l-4 1q-75 24 -117.5 67t-42.5 103q0 50 33.5 92.5t84.5 65.5q-29 23 -46.5 55.5t-17.5 70.5q0 50 27 92t77 66.5t116 24.5q83 0 132 -42
t63 -103l-83 -32q-6 38 -35.5 67t-84.5 29q-49 0 -86.5 -25.5t-37.5 -66.5q0 -37 30 -63t93 -50l4 -1q81 -32 124.5 -75.5t43.5 -108.5q0 -54 -27.5 -94.5t-75.5 -67.5q49 -46 49 -119q0 -58 -30 -106.5t-84.5 -77t-125.5 -28.5q-54 0 -100.5 22.5zM386.5 186.5
q22.5 27.5 22.5 60.5q0 41 -33 73.5t-97 53.5l-19 6q-45 -12 -77.5 -41t-32.5 -68q0 -35 27.5 -58t83.5 -42q43 -15 70 -29q33 17 55.5 44.5z" />
    <glyph glyph-name="dieresis" unicode="&#xa8;" horiz-adv-x="392" 
d="M127.5 621.5q-16.5 16.5 -16.5 37.5q0 23 16 38.5t38 15.5q23 0 38.5 -15.5t15.5 -38.5q0 -22 -15.5 -38t-38.5 -16q-21 0 -37.5 16.5zM292 621.5q-16 16.5 -16 37.5q0 23 16 38.5t37 15.5q23 0 38.5 -15.5t15.5 -38.5q0 -22 -15.5 -38t-38.5 -16q-21 0 -37 16.5z" />
    <glyph glyph-name="copyright" unicode="&#xa9;" horiz-adv-x="530" 
d="M193 303q-53 31 -84 84t-31 115t31 115t84 84t115 31t115 -31t84 -84t31 -115t-31 -115t-84 -84t-115 -31t-115 31zM400.5 343q42.5 25 67 67.5t24.5 91.5q0 50 -24.5 92.5t-67 67t-92.5 24.5q-49 0 -91.5 -24.5t-67.5 -67t-25 -92.5q0 -49 25 -91.5t67.5 -67.5t91.5 -25
q50 0 92.5 25zM227.5 418q-34.5 35 -34.5 84q0 50 34 84.5t85 34.5q28 0 48 -10t39 -29l-31 -28q-11 13 -23.5 19t-32.5 6q-30 0 -52 -22.5t-22 -54.5t22 -54.5t52 -22.5q37 0 61 32l33 -26q-36 -48 -94 -48q-50 0 -84.5 35z" />
    <glyph glyph-name="ordfeminine" unicode="&#xaa;" horiz-adv-x="474" 
d="M110.5 308q-42.5 36 -42.5 96q0 49 29.5 86t77.5 56.5t103 19.5q70 0 128 -30l2 16q1 9 1 19q0 41 -28 65t-70 24q-81 0 -121 -55l-62 36q24 40 72 65.5t117 25.5q73 0 122 -41.5t49 -108.5q0 -18 -3 -36l-46 -260h-78l12 65h-4q-26 -35 -65 -57t-84 -22q-67 0 -109.5 36
zM338.5 379q45.5 37 55.5 93q-26 16 -52 24t-62 8q-50 0 -88.5 -23.5t-38.5 -69.5q0 -33 25.5 -51t57.5 -18q57 0 102.5 37z" />
    <glyph glyph-name="guillemotleft" unicode="&#xab;" horiz-adv-x="548" 
d="M204 54l-162 217l238 217l44 -49l-189 -173l124 -167zM404 54l-162 217l238 217l44 -49l-189 -173l124 -167z" />
    <glyph glyph-name="logicalnot" unicode="&#xac;" horiz-adv-x="573" 
d="M429 312h-363l12 70h430l-48 -277h-68z" />
    <glyph glyph-name="uni00AD" unicode="&#xad;" horiz-adv-x="427" 
d="M388 345l-12 -70h-318l12 70h318z" />
    <glyph glyph-name="registered" unicode="&#xae;" horiz-adv-x="530" 
d="M193 303q-53 31 -84 84t-31 115t31 115t84 84t115 31t115 -31t84 -84t31 -115t-31 -115t-84 -84t-115 -31t-115 31zM400.5 343q42.5 25 67 67.5t24.5 91.5q0 50 -24.5 92.5t-67 67t-92.5 24.5q-49 0 -91.5 -24.5t-67.5 -67t-25 -92.5q0 -49 25 -91.5t67.5 -67.5t91.5 -25
q50 0 92.5 25zM232 615h94q30 0 52 -21t22 -51q0 -23 -14.5 -41t-36.5 -24l-2 -2l60 -85v-2h-49l-56 85h-26v-85h-44v226zM323 514q13 0 23 8t10 21q0 12 -9.5 21t-23.5 9h-47v-59h47z" />
    <glyph glyph-name="macron" unicode="&#xaf;" horiz-adv-x="399" 
d="M120 692h276l-12 -66h-276z" />
    <glyph glyph-name="degree" unicode="&#xb0;" horiz-adv-x="323" 
d="M119.5 474.5q-34.5 32.5 -34.5 81.5q0 63 41 103.5t105 40.5q48 0 83 -32.5t35 -81.5q0 -63 -41 -103.5t-105 -40.5q-49 0 -83.5 32.5zM262.5 524q22.5 23 22.5 55q0 27 -17 44.5t-43 17.5q-31 0 -53.5 -22.5t-22.5 -55.5q0 -27 17 -44.5t43 -17.5q31 0 53.5 23z" />
    <glyph glyph-name="plusminus" unicode="&#xb1;" horiz-adv-x="544" 
d="M245 299h-182l12 70h182l28 157h70l-28 -157h183l-12 -70h-183l-28 -157h-70zM23 70h434l-13 -70h-433z" />
    <glyph glyph-name="uni00B2" unicode="&#xb2;" horiz-adv-x="302" 
d="M53 406l159 136q55 43 55 78q0 21 -14 33t-36 12q-49 0 -72 -61l-55 25q13 45 49.5 70t83.5 25q49 0 80.5 -27.5t31.5 -69.5q0 -37 -19 -63t-58 -59l-113 -96h155l-11 -59h-246z" />
    <glyph glyph-name="uni00B3" unicode="&#xb3;" horiz-adv-x="321" 
d="M100.5 367.5q-34.5 25.5 -42.5 73.5l60 22q16 -62 69 -62q30 0 50.5 17.5t20.5 43.5q0 24 -16.5 37t-46.5 13h-32l10 56h36q27 0 46 15.5t19 39.5q0 20 -13.5 31t-33.5 11q-43 0 -68 -45l-54 23q14 37 48.5 59t80.5 22q48 0 78 -26t30 -65q0 -29 -20 -55t-47 -36
q23 -11 36.5 -31t13.5 -47q0 -52 -41.5 -87t-103.5 -35q-45 0 -79.5 25.5z" />
    <glyph glyph-name="acute" unicode="&#xb4;" horiz-adv-x="397" 
d="M266 716h95l-93 -127h-77z" />
    <glyph glyph-name="mu" unicode="&#xb5;" horiz-adv-x="561" 
d="M104 510h84l-55 -315q-4 -21 -4 -41q0 -45 29 -69t78 -24q63 0 111 46t60 115l51 288h84l-89 -510h-81l14 74h-4q-27 -39 -73 -64.5t-104 -25.5q-30 0 -58 12.5t-42 32.5h-4l-7 -60l-34 -185h-84z" />
    <glyph glyph-name="paragraph" unicode="&#xb6;" horiz-adv-x="614" 
d="M288 296h-44q-60 0 -111.5 25.5t-82 73.5t-30.5 111t30.5 111t82 73.5t111.5 25.5h288v-932h-78v851h-88v-851h-78v512z" />
    <glyph glyph-name="periodcentered" unicode="&#xb7;" horiz-adv-x="166" 
d="M50.5 278.5q-18.5 18.5 -18.5 45.5t18.5 45.5t44.5 18.5q27 0 45.5 -18.5t18.5 -45.5t-18.5 -45.5t-45.5 -18.5q-26 0 -44.5 18.5z" />
    <glyph glyph-name="cedilla" unicode="&#xb8;" horiz-adv-x="403" 
d="M26.5 -217.5q-25.5 19.5 -31.5 47.5l53 22q2 -15 13.5 -25.5t27.5 -10.5q21 0 35.5 13.5t14.5 36.5q0 16 -11 27t-28 11q-19 0 -36 -17l-41 20l51 93h53l-29 -49q15 3 22 3q34 0 55 -24.5t21 -63.5q0 -45 -30.5 -74t-80.5 -29q-33 0 -58.5 19.5z" />
    <glyph glyph-name="uni00B9" unicode="&#xb9;" horiz-adv-x="239" 
d="M184 629l-56 -41l-31 49l112 79h56l-65 -366h-65z" />
    <glyph glyph-name="ordmasculine" unicode="&#xba;" horiz-adv-x="515" 
d="M169 297q-44 25 -68.5 70t-24.5 102q0 66 32.5 127t91.5 98.5t134 37.5q87 0 139.5 -53.5t52.5 -142.5q0 -70 -34.5 -131t-93.5 -97t-129 -36q-56 0 -100 25zM359.5 369.5q38.5 23.5 61 65.5t22.5 96q0 56 -35 91.5t-84 35.5q-46 0 -84 -25t-59.5 -67t-21.5 -92
q0 -57 33.5 -92.5t83.5 -35.5q45 0 83.5 23.5z" />
    <glyph glyph-name="guillemotright" unicode="&#xbb;" horiz-adv-x="548" 
d="M152 488l161 -217l-238 -217l-43 49l188 173l-124 167zM352 488l161 -217l-238 -217l-43 49l188 173l-124 167z" />
    <glyph glyph-name="onequarter" unicode="&#xbc;" horiz-adv-x="704" 
d="M209 629l-56 -41l-31 49l112 79h56l-65 -366h-65zM662 723l49 -40l-589 -691l-52 41zM526 74h-171l7 44l220 248h61l-42 -236h49l-10 -56h-49l-13 -74h-65zM536 130l23 132h-4l-117 -132h98z" />
    <glyph glyph-name="onehalf" unicode="&#xbd;" horiz-adv-x="774" 
d="M209 629l-56 -41l-31 49l112 79h56l-65 -366h-65zM661 723l49 -40l-589 -691l-52 41zM465 56l159 136q55 43 55 78q0 21 -14 33t-36 12q-49 0 -72 -61l-55 25q13 45 49.5 70t83.5 25q49 0 80.5 -27.5t31.5 -69.5q0 -37 -19 -63t-58 -59l-113 -96h155l-11 -59h-246z" />
    <glyph glyph-name="threequarters" unicode="&#xbe;" horiz-adv-x="824" 
d="M143.5 367.5q-34.5 25.5 -42.5 73.5l60 22q16 -62 69 -62q30 0 50.5 17.5t20.5 43.5q0 24 -16.5 37t-46.5 13h-32l10 56h36q27 0 46 15.5t19 39.5q0 20 -13.5 31t-33.5 11q-43 0 -68 -45l-54 23q14 37 48.5 59t80.5 22q48 0 78 -26t30 -65q0 -29 -20 -55t-47 -36
q23 -11 36.5 -31t13.5 -47q0 -52 -41.5 -87t-103.5 -35q-45 0 -79.5 25.5zM748 723l49 -40l-589 -691l-52 41zM639 74h-171l7 44l220 248h61l-42 -236h49l-10 -56h-49l-13 -74h-65zM649 130l23 132h-4l-117 -132h98z" />
    <glyph glyph-name="questiondown" unicode="&#xbf;" horiz-adv-x="505" 
d="M252.5 416.5q-18.5 18.5 -18.5 45.5t18.5 45.5t44.5 18.5q27 0 45.5 -18.5t18.5 -45.5t-18.5 -45.5t-45.5 -18.5q-26 0 -44.5 18.5zM89 -210q-42 22 -65.5 59t-23.5 82q0 59 33.5 103t97.5 93q39 30 58.5 57t25.5 63l11 57h86l-11 -63q-9 -51 -32.5 -84t-83.5 -78
q-46 -34 -72 -66t-26 -70q0 -42 29.5 -68t78.5 -26q50 0 84.5 28t48.5 71l74 -33q-23 -65 -78.5 -106t-140.5 -41q-52 0 -94 22z" />
    <glyph glyph-name="Agrave" unicode="&#xc0;" horiz-adv-x="669" 
d="M367 716h96l145 -716h-90l-36 197h-309l-108 -197h-95zM466 277l-50 258l-14 77h-4l-183 -335h251zM334 900h91l29 -127h-72z" />
    <glyph glyph-name="Aacute" unicode="&#xc1;" horiz-adv-x="669" 
d="M367 716h96l145 -716h-90l-36 197h-309l-108 -197h-95zM466 277l-50 258l-14 77h-4l-183 -335h251zM459 900h95l-93 -127h-77z" />
    <glyph glyph-name="Acircumflex" unicode="&#xc2;" horiz-adv-x="669" 
d="M367 716h96l145 -716h-90l-36 197h-309l-108 -197h-95zM466 277l-50 258l-14 77h-4l-183 -335h251zM280 784l123 116h75l81 -116l-1 -5h-76l-44 63h-8l-63 -63h-88z" />
    <glyph glyph-name="Atilde" unicode="&#xc3;" horiz-adv-x="669" 
d="M367 716h96l145 -716h-90l-36 197h-309l-108 -197h-95zM466 277l-50 258l-14 77h-4l-183 -335h251zM466 786q-15 6 -34 18q-18 11 -31.5 17t-29.5 6q-33 0 -42 -37h-70q8 56 38 85t74 29q17 0 32.5 -6t34.5 -18q18 -11 31.5 -17t28.5 -6q33 0 42 37h70q-7 -56 -37.5 -85
t-74.5 -29q-17 0 -32 6z" />
    <glyph glyph-name="Adieresis" unicode="&#xc4;" horiz-adv-x="669" 
d="M367 716h96l145 -716h-90l-36 197h-309l-108 -197h-95zM466 277l-50 258l-14 77h-4l-183 -335h251zM314.5 805.5q-16.5 16.5 -16.5 37.5q0 23 16 38.5t38 15.5q23 0 38.5 -15.5t15.5 -38.5q0 -22 -15.5 -38t-38.5 -16q-21 0 -37.5 16.5zM479 805.5q-16 16.5 -16 37.5
q0 23 16 38.5t37 15.5q23 0 38.5 -15.5t15.5 -38.5q0 -22 -15.5 -38t-38.5 -16q-21 0 -37 16.5z" />
    <glyph glyph-name="Aring" unicode="&#xc5;" horiz-adv-x="669" 
d="M347 680q-15 15 -24 34.5t-9 41.5q0 43 30 73t73 30t73.5 -30t30.5 -73q0 -26 -13 -49.5t-35 -37.5l135 -669h-90l-36 197h-309l-108 -197h-95zM448 725q13 13 13 31t-13 31t-31 13t-30.5 -13t-12.5 -31t12.5 -31t30.5 -13t31 13zM466 277l-50 258l-14 75h-5l-182 -333
h251z" />
    <glyph glyph-name="AE" unicode="&#xc6;" horiz-adv-x="959" 
d="M487 716h469l-14 -81h-330l-42 -237h298l-14 -80h-298l-42 -237h330l-15 -81h-414l35 197h-262l-152 -197h-102zM464 277l63 358h-4l-38 -50l-237 -308h216z" />
    <glyph glyph-name="Ccedilla" unicode="&#xc7;" horiz-adv-x="740" 
d="M351 -49q15 3 22 3q34 0 55 -24.5t21 -63.5q0 -45 -30.5 -74t-80.5 -29q-33 0 -58.5 19.5t-31.5 47.5l53 22q2 -15 13.5 -25.5t27.5 -10.5q21 0 35.5 13.5t14.5 36.5q0 16 -11 27t-28 11q-19 0 -36 -17l-41 20l44 80q-78 11 -138 53.5t-93 110.5t-33 155q0 110 57 208.5
t156 158t220 59.5q81 0 146 -33.5t99 -86.5l-68 -56q-33 49 -78.5 72t-108.5 23q-91 0 -168.5 -48t-122.5 -126.5t-45 -166.5q0 -73 31 -128.5t85 -86t121 -30.5q73 0 128.5 27t111.5 81l55 -61q-68 -66 -139 -97t-165 -31z" />
    <glyph glyph-name="Egrave" unicode="&#xc8;" horiz-adv-x="550" 
d="M161 716h414l-14 -81h-330l-42 -237h298l-14 -80h-298l-42 -237h330l-15 -81h-414zM296 900h91l29 -127h-72z" />
    <glyph glyph-name="Eacute" unicode="&#xc9;" horiz-adv-x="550" 
d="M161 716h414l-14 -81h-330l-42 -237h298l-14 -80h-298l-42 -237h330l-15 -81h-414zM421 900h95l-93 -127h-77z" />
    <glyph glyph-name="Ecircumflex" unicode="&#xca;" horiz-adv-x="550" 
d="M161 716h414l-14 -81h-330l-42 -237h298l-14 -80h-298l-42 -237h330l-15 -81h-414zM242 784l123 116h75l81 -116l-1 -5h-76l-44 63h-8l-63 -63h-88z" />
    <glyph glyph-name="Edieresis" unicode="&#xcb;" horiz-adv-x="550" 
d="M161 716h414l-14 -81h-330l-42 -237h298l-14 -80h-298l-42 -237h330l-15 -81h-414zM276.5 805.5q-16.5 16.5 -16.5 37.5q0 23 16 38.5t38 15.5q23 0 38.5 -15.5t15.5 -38.5q0 -22 -15.5 -38t-38.5 -16q-21 0 -37.5 16.5zM441 805.5q-16 16.5 -16 37.5q0 23 16 38.5
t37 15.5q23 0 38.5 -15.5t15.5 -38.5q0 -22 -15.5 -38t-38.5 -16q-21 0 -37 16.5z" />
    <glyph glyph-name="Igrave" unicode="&#xcc;" horiz-adv-x="244" 
d="M161 716h84l-127 -716h-84zM125 900h91l29 -127h-72z" />
    <glyph glyph-name="Iacute" unicode="&#xcd;" horiz-adv-x="244" 
d="M161 716h84l-127 -716h-84zM250 900h95l-93 -127h-77z" />
    <glyph glyph-name="Icircumflex" unicode="&#xce;" horiz-adv-x="244" 
d="M161 716h84l-127 -716h-84zM71 784l123 116h75l81 -116l-1 -5h-76l-44 63h-8l-63 -63h-88z" />
    <glyph glyph-name="Idieresis" unicode="&#xcf;" horiz-adv-x="245" 
d="M117 806q-16 16 -16 38q0 23 16 38.5t38 15.5q23 0 38 -15.5t15 -38.5q0 -22 -15 -38t-38 -16q-22 0 -38 16zM250 806q-16 16 -16 38q0 23 16 38.5t37 15.5q23 0 38.5 -15.5t15.5 -38.5q0 -22 -15.5 -38t-38.5 -16q-21 0 -37 16zM161 716h84l-127 -716h-84z" />
    <glyph glyph-name="Eth" unicode="&#xd0;" horiz-adv-x="733" 
d="M121 322h-75l11 70h76l58 324h216q97 0 166 -40t104.5 -109.5t35.5 -158.5q0 -109 -51 -202.5t-147 -149.5t-225 -56h-226zM295 81q93 0 169 42.5t119 116t43 162.5q0 113 -61.5 173t-172.5 60h-131l-43 -243h203l-12 -70h-204l-42 -241h132z" />
    <glyph glyph-name="Ntilde" unicode="&#xd1;" horiz-adv-x="707" 
d="M161 716h97l265 -570h4l21 138l76 432h85l-127 -716h-81l-277 597h-4l-20 -138l-82 -459h-84zM488 786q-15 6 -34 18q-18 11 -31.5 17t-29.5 6q-33 0 -42 -37h-70q8 56 38 85t74 29q17 0 32.5 -6t34.5 -18q18 -11 31.5 -17t28.5 -6q33 0 42 37h70q-7 -56 -37.5 -85
t-74.5 -29q-17 0 -32 6z" />
    <glyph glyph-name="Ograve" unicode="&#xd2;" horiz-adv-x="825" 
d="M217.5 25.5q-74.5 41.5 -117.5 115.5t-43 168q0 110 54 207.5t150.5 156.5t218.5 59q90 0 164 -41.5t117 -115.5t43 -168q0 -110 -53.5 -207.5t-150 -156.5t-217.5 -59q-91 0 -165.5 41.5zM555 112.5q75 47.5 118.5 125t43.5 162.5q0 76 -32.5 133t-89 87.5t-125.5 30.5
q-89 0 -163.5 -47.5t-118 -125t-43.5 -162.5q0 -76 32.5 -133t88.5 -87.5t125 -30.5q89 0 164 47.5zM401 900h91l29 -127h-72z" />
    <glyph glyph-name="Oacute" unicode="&#xd3;" horiz-adv-x="825" 
d="M217.5 25.5q-74.5 41.5 -117.5 115.5t-43 168q0 110 54 207.5t150.5 156.5t218.5 59q90 0 164 -41.5t117 -115.5t43 -168q0 -110 -53.5 -207.5t-150 -156.5t-217.5 -59q-91 0 -165.5 41.5zM555 112.5q75 47.5 118.5 125t43.5 162.5q0 76 -32.5 133t-89 87.5t-125.5 30.5
q-89 0 -163.5 -47.5t-118 -125t-43.5 -162.5q0 -76 32.5 -133t88.5 -87.5t125 -30.5q89 0 164 47.5zM526 900h95l-93 -127h-77z" />
    <glyph glyph-name="Ocircumflex" unicode="&#xd4;" horiz-adv-x="825" 
d="M217.5 25.5q-74.5 41.5 -117.5 115.5t-43 168q0 110 54 207.5t150.5 156.5t218.5 59q90 0 164 -41.5t117 -115.5t43 -168q0 -110 -53.5 -207.5t-150 -156.5t-217.5 -59q-91 0 -165.5 41.5zM555 112.5q75 47.5 118.5 125t43.5 162.5q0 76 -32.5 133t-89 87.5t-125.5 30.5
q-89 0 -163.5 -47.5t-118 -125t-43.5 -162.5q0 -76 32.5 -133t88.5 -87.5t125 -30.5q89 0 164 47.5zM347 784l123 116h75l81 -116l-1 -5h-76l-44 63h-8l-63 -63h-88z" />
    <glyph glyph-name="Otilde" unicode="&#xd5;" horiz-adv-x="825" 
d="M217.5 25.5q-74.5 41.5 -117.5 115.5t-43 168q0 110 54 207.5t150.5 156.5t218.5 59q90 0 164 -41.5t117 -115.5t43 -168q0 -110 -53.5 -207.5t-150 -156.5t-217.5 -59q-91 0 -165.5 41.5zM555 112.5q75 47.5 118.5 125t43.5 162.5q0 76 -32.5 133t-89 87.5t-125.5 30.5
q-89 0 -163.5 -47.5t-118 -125t-43.5 -162.5q0 -76 32.5 -133t88.5 -87.5t125 -30.5q89 0 164 47.5zM533 786q-15 6 -34 18q-18 11 -31.5 17t-29.5 6q-33 0 -42 -37h-70q8 56 38 85t74 29q17 0 32.5 -6t34.5 -18q18 -11 31.5 -17t28.5 -6q33 0 42 37h70q-7 -56 -37.5 -85
t-74.5 -29q-17 0 -32 6z" />
    <glyph glyph-name="Odieresis" unicode="&#xd6;" horiz-adv-x="825" 
d="M217.5 25.5q-74.5 41.5 -117.5 115.5t-43 168q0 110 54 207.5t150.5 156.5t218.5 59q90 0 164 -41.5t117 -115.5t43 -168q0 -110 -53.5 -207.5t-150 -156.5t-217.5 -59q-91 0 -165.5 41.5zM555 112.5q75 47.5 118.5 125t43.5 162.5q0 76 -32.5 133t-89 87.5t-125.5 30.5
q-89 0 -163.5 -47.5t-118 -125t-43.5 -162.5q0 -76 32.5 -133t88.5 -87.5t125 -30.5q89 0 164 47.5zM381.5 805.5q-16.5 16.5 -16.5 37.5q0 23 16 38.5t38 15.5q23 0 38.5 -15.5t15.5 -38.5q0 -22 -15.5 -38t-38.5 -16q-21 0 -37.5 16.5zM546 805.5q-16 16.5 -16 37.5
q0 23 16 38.5t37 15.5q23 0 38.5 -15.5t15.5 -38.5q0 -22 -15.5 -38t-38.5 -16q-21 0 -37 16.5z" />
    <glyph glyph-name="multiply" unicode="&#xd7;" horiz-adv-x="546" 
d="M40 119l187 155l-130 153l53 45l131 -154l187 156l43 -52l-187 -155l131 -152l-53 -45l-131 153l-188 -156z" />
    <glyph glyph-name="Oslash" unicode="&#xd8;" horiz-adv-x="825" 
d="M101 5l53 66q-46 45 -71.5 105.5t-25.5 132.5q0 110 54 207.5t150.5 156.5t218.5 59q91 0 168 -44l54 68l58 -45l-54 -66q47 -44 72.5 -105t25.5 -133q0 -110 -53.5 -207.5t-150 -156.5t-217.5 -59q-93 0 -170 44l-53 -67zM594 620q-57 31 -124 31q-89 0 -163.5 -47.5
t-118 -125t-43.5 -162.5q0 -110 64 -177zM555 112.5q75 47.5 118.5 125t43.5 162.5q0 107 -65 177l-385 -482q58 -30 124 -30q89 0 164 47.5z" />
    <glyph glyph-name="Ugrave" unicode="&#xd9;" horiz-adv-x="661" 
d="M175 10.5q-50 26.5 -79.5 75t-29.5 113.5q0 44 8 94l75 423h84l-78 -443q-6 -35 -6 -61q0 -68 38 -107.5t112 -39.5q85 0 140.5 54.5t71.5 141.5l80 455h84l-82 -466q-22 -125 -101.5 -195.5t-206.5 -70.5q-60 0 -110 26.5zM327 900h91l29 -127h-72z" />
    <glyph glyph-name="Uacute" unicode="&#xda;" horiz-adv-x="661" 
d="M175 10.5q-50 26.5 -79.5 75t-29.5 113.5q0 44 8 94l75 423h84l-78 -443q-6 -35 -6 -61q0 -68 38 -107.5t112 -39.5q85 0 140.5 54.5t71.5 141.5l80 455h84l-82 -466q-22 -125 -101.5 -195.5t-206.5 -70.5q-60 0 -110 26.5zM452 900h95l-93 -127h-77z" />
    <glyph glyph-name="Ucircumflex" unicode="&#xdb;" horiz-adv-x="661" 
d="M175 10.5q-50 26.5 -79.5 75t-29.5 113.5q0 44 8 94l75 423h84l-78 -443q-6 -35 -6 -61q0 -68 38 -107.5t112 -39.5q85 0 140.5 54.5t71.5 141.5l80 455h84l-82 -466q-22 -125 -101.5 -195.5t-206.5 -70.5q-60 0 -110 26.5zM273 784l123 116h75l81 -116l-1 -5h-76l-44 63
h-8l-63 -63h-88z" />
    <glyph glyph-name="Udieresis" unicode="&#xdc;" horiz-adv-x="661" 
d="M175 10.5q-50 26.5 -79.5 75t-29.5 113.5q0 44 8 94l75 423h84l-78 -443q-6 -35 -6 -61q0 -68 38 -107.5t112 -39.5q85 0 140.5 54.5t71.5 141.5l80 455h84l-82 -466q-22 -125 -101.5 -195.5t-206.5 -70.5q-60 0 -110 26.5zM307.5 805.5q-16.5 16.5 -16.5 37.5
q0 23 16 38.5t38 15.5q23 0 38.5 -15.5t15.5 -38.5q0 -22 -15.5 -38t-38.5 -16q-21 0 -37.5 16.5zM472 805.5q-16 16.5 -16 37.5q0 23 16 38.5t37 15.5q23 0 38.5 -15.5t15.5 -38.5q0 -22 -15.5 -38t-38.5 -16q-21 0 -37 16.5z" />
    <glyph glyph-name="Yacute" unicode="&#xdd;" horiz-adv-x="595" 
d="M270 331l-174 385h97l130 -300h4l233 300h102l-307 -385l-59 -331h-84zM413 900h95l-93 -127h-77z" />
    <glyph glyph-name="Thorn" unicode="&#xde;" horiz-adv-x="571" 
d="M155 716h85l-22 -123h151q56 0 100.5 -23.5t69.5 -65.5t25 -96q0 -73 -34 -127.5t-94 -83t-136 -28.5h-157l-30 -169h-85zM316 250q70 0 115 37.5t45 109.5q0 52 -32.5 83.5t-81.5 31.5h-158l-46 -262h158z" />
    <glyph glyph-name="germandbls" unicode="&#xdf;" horiz-adv-x="558" 
d="M494 324.5q26 -40.5 26 -95.5q0 -69 -34.5 -123t-93.5 -84t-132 -30q-39 0 -63 5l14 80q27 -4 56 -4q71 0 118 40t47 108q0 55 -33.5 89t-99.5 34h-33l14 78h27q39 0 74 15.5t56.5 45t21.5 69.5q0 45 -31.5 72t-80.5 27q-56 0 -94 -37t-49 -98l-90 -516h-87l91 516
q17 99 77 157.5t161 58.5q57 0 100 -23t66.5 -62.5t23.5 -87.5q0 -61 -33 -105t-87 -65v-4q42 -20 68 -60.5z" />
    <glyph glyph-name="agrave" unicode="&#xe0;" horiz-adv-x="531" 
d="M104.5 4.5q-38.5 20.5 -61 56t-22.5 79.5q0 85 62.5 135.5t171.5 50.5q40 0 78.5 -9.5t68.5 -25.5l6 30q3 17 3 29q0 45 -35.5 72.5t-89.5 27.5q-83 0 -137 -68l-66 47q36 46 91 71.5t121 25.5q92 0 144.5 -44.5t52.5 -119.5q0 -21 -5 -51l-56 -311h-81l13 72h-4
q-27 -40 -71 -64t-100 -24q-45 0 -83.5 20.5zM327 104.5q51 45.5 63 116.5q-31 18 -62 27t-78 9q-63 0 -102.5 -29.5t-39.5 -81.5q0 -40 28.5 -63.5t70.5 -23.5q69 0 120 45.5zM232 736h91l29 -127h-72z" />
    <glyph glyph-name="aacute" unicode="&#xe1;" horiz-adv-x="531" 
d="M104.5 4.5q-38.5 20.5 -61 56t-22.5 79.5q0 85 62.5 135.5t171.5 50.5q40 0 78.5 -9.5t68.5 -25.5l6 30q3 17 3 29q0 45 -35.5 72.5t-89.5 27.5q-83 0 -137 -68l-66 47q36 46 91 71.5t121 25.5q92 0 144.5 -44.5t52.5 -119.5q0 -21 -5 -51l-56 -311h-81l13 72h-4
q-27 -40 -71 -64t-100 -24q-45 0 -83.5 20.5zM327 104.5q51 45.5 63 116.5q-31 18 -62 27t-78 9q-63 0 -102.5 -29.5t-39.5 -81.5q0 -40 28.5 -63.5t70.5 -23.5q69 0 120 45.5zM349 736h95l-93 -127h-76z" />
    <glyph glyph-name="acircumflex" unicode="&#xe2;" horiz-adv-x="531" 
d="M104.5 4.5q-38.5 20.5 -61 56t-22.5 79.5q0 85 62.5 135.5t171.5 50.5q40 0 78.5 -9.5t68.5 -25.5l6 30q3 17 3 29q0 45 -35.5 72.5t-89.5 27.5q-83 0 -137 -68l-66 47q36 46 91 71.5t121 25.5q92 0 144.5 -44.5t52.5 -119.5q0 -21 -5 -51l-56 -311h-81l13 72h-4
q-27 -40 -71 -64t-100 -24q-45 0 -83.5 20.5zM327 104.5q51 45.5 63 116.5q-31 18 -62 27t-78 9q-63 0 -102.5 -29.5t-39.5 -81.5q0 -40 28.5 -63.5t70.5 -23.5q69 0 120 45.5zM172 619l123 117h74l82 -117l-1 -5h-77l-43 64h-9l-62 -64h-88z" />
    <glyph glyph-name="atilde" unicode="&#xe3;" horiz-adv-x="531" 
d="M104.5 4.5q-38.5 20.5 -61 56t-22.5 79.5q0 85 62.5 135.5t171.5 50.5q40 0 78.5 -9.5t68.5 -25.5l6 30q3 17 3 29q0 45 -35.5 72.5t-89.5 27.5q-83 0 -137 -68l-66 47q36 46 91 71.5t121 25.5q92 0 144.5 -44.5t52.5 -119.5q0 -21 -5 -51l-56 -311h-81l13 72h-4
q-27 -40 -71 -64t-100 -24q-45 0 -83.5 20.5zM327 104.5q51 45.5 63 116.5q-31 18 -62 27t-78 9q-63 0 -102.5 -29.5t-39.5 -81.5q0 -40 28.5 -63.5t70.5 -23.5q69 0 120 45.5zM357 622q-15 6 -34 18q-18 11 -31.5 17t-29.5 6q-33 0 -42 -37h-70q7 56 37 84.5t74 28.5
q17 0 31 -6t36 -18q18 -11 31.5 -17t29.5 -6q32 0 41 37h71q-8 -56 -38 -84.5t-74 -28.5q-17 0 -32 6z" />
    <glyph glyph-name="adieresis" unicode="&#xe4;" horiz-adv-x="531" 
d="M104.5 4.5q-38.5 20.5 -61 56t-22.5 79.5q0 85 62.5 135.5t171.5 50.5q40 0 78.5 -9.5t68.5 -25.5l6 30q3 17 3 29q0 45 -35.5 72.5t-89.5 27.5q-83 0 -137 -68l-66 47q36 46 91 71.5t121 25.5q92 0 144.5 -44.5t52.5 -119.5q0 -21 -5 -51l-56 -311h-81l13 72h-4
q-27 -40 -71 -64t-100 -24q-45 0 -83.5 20.5zM327 104.5q51 45.5 63 116.5q-31 18 -62 27t-78 9q-63 0 -102.5 -29.5t-39.5 -81.5q0 -40 28.5 -63.5t70.5 -23.5q69 0 120 45.5zM206 641q-16 16 -16 38q0 23 15.5 38t37.5 15q24 0 39 -15t15 -38q0 -22 -15.5 -38t-38.5 -16
q-21 0 -37 16zM370 641q-16 16 -16 38q0 23 16 38t38 15q23 0 38 -15t15 -38q0 -22 -15 -38t-38 -16q-22 0 -38 16z" />
    <glyph glyph-name="aring" unicode="&#xe5;" horiz-adv-x="531" 
d="M104.5 4.5q-38.5 20.5 -61 56t-22.5 79.5q0 85 62.5 135.5t171.5 50.5q40 0 78.5 -9.5t68.5 -25.5l6 30q3 17 3 29q0 45 -35.5 72.5t-89.5 27.5q-83 0 -137 -68l-66 47q36 46 91 71.5t121 25.5q92 0 144.5 -44.5t52.5 -119.5q0 -21 -5 -51l-56 -311h-81l13 72h-4
q-27 -40 -71 -64t-100 -24q-45 0 -83.5 20.5zM327 104.5q51 45.5 63 116.5q-31 18 -62 27t-78 9q-63 0 -102.5 -29.5t-39.5 -81.5q0 -40 28.5 -63.5t70.5 -23.5q69 0 120 45.5zM254.5 618.5q-30.5 30.5 -30.5 73.5t30.5 73t73.5 30t73 -30t30 -73t-30 -73.5t-73 -30.5
t-73.5 30.5zM361 658q14 14 14 34q0 19 -14 33t-33 14q-20 0 -33.5 -13.5t-13.5 -33.5t13.5 -34t33.5 -14q19 0 33 14z" />
    <glyph glyph-name="ae" unicode="&#xe6;" horiz-adv-x="921" 
d="M104.5 4.5q-38.5 20.5 -61 56t-22.5 79.5q0 91 67 138.5t174 47.5q45 0 82.5 -10t58.5 -23l6 31q3 21 3 23q0 47 -33.5 75t-88.5 28q-43 0 -79 -17.5t-57 -50.5l-70 41q31 49 85.5 76t126.5 27q64 0 111 -26.5t67 -69.5q36 46 89 71t116 25q66 0 114 -29t73 -78t25 -108
q0 -42 -9 -72h-403q-2 -18 -2 -32q0 -44 20.5 -77.5t53.5 -51t71 -17.5q60 0 100.5 24t69.5 71l65 -37q-38 -66 -99 -100.5t-141 -34.5q-71 0 -123.5 37t-74.5 92q-40 -64 -100 -96.5t-131 -32.5q-45 0 -83.5 20.5zM806 309v14q0 32 -15.5 61t-46.5 47t-75 18
q-63 0 -110.5 -39.5t-66.5 -100.5h314zM327 104.5q51 45.5 63 116.5q-64 36 -140 36q-63 0 -102.5 -29.5t-39.5 -81.5q0 -40 28.5 -63.5t70.5 -23.5q69 0 120 45.5z" />
    <glyph glyph-name="ccedilla" unicode="&#xe7;" horiz-adv-x="551" 
d="M361 86.5q41 25.5 66 71.5l68 -33q-40 -72 -97.5 -106.5t-141.5 -34.5h-4l-20 -33q15 3 22 3q34 0 55 -24.5t21 -63.5q0 -45 -30.5 -74t-80.5 -29q-33 0 -58.5 19.5t-31.5 47.5l53 22q2 -15 13.5 -25.5t27.5 -10.5q21 0 35.5 13.5t14.5 36.5q0 16 -11 27t-28 11
q-19 0 -36 -17l-41 20l46 83q-77 18 -123 82.5t-46 146.5q0 85 38 155t106 111t154 41q82 0 134 -41t69 -100l-79 -31q-14 45 -48.5 70t-85.5 25q-55 0 -101 -29t-73 -80t-27 -115q0 -70 40.5 -117t106.5 -47q52 0 93 25.5z" />
    <glyph glyph-name="egrave" unicode="&#xe8;" horiz-adv-x="564" 
d="M140 15.5q-52 31.5 -79.5 85t-27.5 117.5q0 80 36 151t102 114t151 43q66 0 114 -29t73 -78.5t25 -107.5q0 -43 -9 -72h-404q-2 -20 -2 -32q0 -44 20.5 -77.5t54 -51t71.5 -17.5q59 0 100.5 24.5t69.5 70.5l65 -37q-38 -66 -99 -100.5t-140 -34.5q-69 0 -121 31.5z
M449 309v14q0 33 -16 62t-47 46.5t-74 17.5q-64 0 -111.5 -39.5t-65.5 -100.5h314zM255 736h91l29 -127h-72z" />
    <glyph glyph-name="eacute" unicode="&#xe9;" horiz-adv-x="564" 
d="M140 15.5q-52 31.5 -79.5 85t-27.5 117.5q0 80 36 151t102 114t151 43q66 0 114 -29t73 -78.5t25 -107.5q0 -43 -9 -72h-404q-2 -20 -2 -32q0 -44 20.5 -77.5t54 -51t71.5 -17.5q59 0 100.5 24.5t69.5 70.5l65 -37q-38 -66 -99 -100.5t-140 -34.5q-69 0 -121 31.5z
M449 309v14q0 33 -16 62t-47 46.5t-74 17.5q-64 0 -111.5 -39.5t-65.5 -100.5h314zM372 736h95l-93 -127h-76z" />
    <glyph glyph-name="ecircumflex" unicode="&#xea;" horiz-adv-x="564" 
d="M140 15.5q-52 31.5 -79.5 85t-27.5 117.5q0 80 36 151t102 114t151 43q66 0 114 -29t73 -78.5t25 -107.5q0 -43 -9 -72h-404q-2 -20 -2 -32q0 -44 20.5 -77.5t54 -51t71.5 -17.5q59 0 100.5 24.5t69.5 70.5l65 -37q-38 -66 -99 -100.5t-140 -34.5q-69 0 -121 31.5z
M449 309v14q0 33 -16 62t-47 46.5t-74 17.5q-64 0 -111.5 -39.5t-65.5 -100.5h314zM195 619l123 117h74l82 -117l-1 -5h-77l-43 64h-9l-62 -64h-88z" />
    <glyph glyph-name="edieresis" unicode="&#xeb;" horiz-adv-x="564" 
d="M140 15.5q-52 31.5 -79.5 85t-27.5 117.5q0 80 36 151t102 114t151 43q66 0 114 -29t73 -78.5t25 -107.5q0 -43 -9 -72h-404q-2 -20 -2 -32q0 -44 20.5 -77.5t54 -51t71.5 -17.5q59 0 100.5 24.5t69.5 70.5l65 -37q-38 -66 -99 -100.5t-140 -34.5q-69 0 -121 31.5z
M449 309v14q0 33 -16 62t-47 46.5t-74 17.5q-64 0 -111.5 -39.5t-65.5 -100.5h314zM229 641q-16 16 -16 38q0 23 15.5 38t37.5 15q24 0 39 -15t15 -38q0 -22 -15.5 -38t-38.5 -16q-21 0 -37 16zM393 641q-16 16 -16 38q0 23 16 38t38 15q23 0 38 -15t15 -38q0 -22 -15 -38
t-38 -16q-22 0 -38 16z" />
    <glyph glyph-name="igrave" unicode="&#xec;" horiz-adv-x="227" 
d="M116 510h85l-90 -510h-85zM94 736h91l29 -127h-72z" />
    <glyph glyph-name="iacute" unicode="&#xed;" horiz-adv-x="227" 
d="M116 510h85l-90 -510h-85zM211 736h95l-93 -127h-76z" />
    <glyph glyph-name="icircumflex" unicode="&#xee;" horiz-adv-x="227" 
d="M116 510h85l-90 -510h-85zM34 619l123 117h74l82 -117l-1 -5h-77l-43 64h-9l-62 -64h-88z" />
    <glyph glyph-name="idieresis" unicode="&#xef;" horiz-adv-x="227" 
d="M80.5 641q-16.5 16 -16.5 38q0 23 16 38t38 15q23 0 38.5 -15t15.5 -38q0 -22 -15.5 -38t-38.5 -16q-21 0 -37.5 16zM213 641q-16 16 -16 38q0 23 16 38t38 15q23 0 38.5 -15t15.5 -38q0 -22 -15.5 -38t-38.5 -16q-22 0 -38 16zM116 510h85l-90 -510h-85z" />
    <glyph glyph-name="eth" unicode="&#xf0;" horiz-adv-x="581" 
d="M150 14q-53 30 -83.5 82t-30.5 115q0 76 34.5 140.5t97 102t142.5 37.5q45 0 80.5 -17t58.5 -42l5 3q-9 40 -28.5 70.5t-51.5 63.5l-135 -55l-24 59l102 41q-48 31 -102 44l28 72q91 -25 160 -81l112 47l24 -58l-85 -36q45 -55 70.5 -127t25.5 -151q0 -92 -32 -169.5
t-96 -124t-155 -46.5q-64 0 -117 30zM366.5 91q40.5 26 64 70.5t23.5 96.5q0 67 -39 111t-106 44q-54 0 -96.5 -26.5t-66 -72t-23.5 -99.5q0 -42 20 -76.5t55 -54t78 -19.5q50 0 90.5 26z" />
    <glyph glyph-name="ntilde" unicode="&#xf1;" horiz-adv-x="561" 
d="M180 435q27 41 72 66t103 25q76 0 119.5 -41.5t43.5 -109.5q0 -40 -6 -71l-54 -304h-85l54 306q6 38 6 50q0 44 -29.5 68.5t-78.5 24.5q-62 0 -110 -46t-60 -116l-51 -287h-85l90 510h80l-13 -75h4zM399 622q-15 6 -34 18q-18 11 -31.5 17t-29.5 6q-33 0 -42 -37h-70
q7 56 37 84.5t74 28.5q17 0 31 -6t36 -18q18 -11 31.5 -17t29.5 -6q32 0 41 37h71q-8 -56 -38 -84.5t-74 -28.5q-17 0 -32 6z" />
    <glyph glyph-name="ograve" unicode="&#xf2;" horiz-adv-x="595" 
d="M145.5 16q-52.5 32 -81.5 87.5t-29 123.5q0 83 36.5 151t104 108t154.5 40q68 0 120.5 -32t81 -87.5t28.5 -123.5q0 -83 -36.5 -151.5t-104 -108t-154.5 -39.5q-67 0 -119.5 32zM378.5 90.5q45.5 29.5 70.5 79t25 108.5q0 74 -42.5 122.5t-111.5 48.5q-58 0 -103.5 -29.5
t-70.5 -79t-25 -108.5q0 -75 42.5 -123t111.5 -48q58 0 103.5 29.5zM270 736h91l29 -127h-72z" />
    <glyph glyph-name="oacute" unicode="&#xf3;" horiz-adv-x="595" 
d="M145.5 16q-52.5 32 -81.5 87.5t-29 123.5q0 83 36.5 151t104 108t154.5 40q68 0 120.5 -32t81 -87.5t28.5 -123.5q0 -83 -36.5 -151.5t-104 -108t-154.5 -39.5q-67 0 -119.5 32zM378.5 90.5q45.5 29.5 70.5 79t25 108.5q0 74 -42.5 122.5t-111.5 48.5q-58 0 -103.5 -29.5
t-70.5 -79t-25 -108.5q0 -75 42.5 -123t111.5 -48q58 0 103.5 29.5zM387 736h95l-93 -127h-76z" />
    <glyph glyph-name="ocircumflex" unicode="&#xf4;" horiz-adv-x="595" 
d="M145.5 16q-52.5 32 -81.5 87.5t-29 123.5q0 83 36.5 151t104 108t154.5 40q68 0 120.5 -32t81 -87.5t28.5 -123.5q0 -83 -36.5 -151.5t-104 -108t-154.5 -39.5q-67 0 -119.5 32zM378.5 90.5q45.5 29.5 70.5 79t25 108.5q0 74 -42.5 122.5t-111.5 48.5q-58 0 -103.5 -29.5
t-70.5 -79t-25 -108.5q0 -75 42.5 -123t111.5 -48q58 0 103.5 29.5zM210 619l123 117h74l82 -117l-1 -5h-77l-43 64h-9l-62 -64h-88z" />
    <glyph glyph-name="otilde" unicode="&#xf5;" horiz-adv-x="595" 
d="M145.5 16q-52.5 32 -81.5 87.5t-29 123.5q0 83 36.5 151t104 108t154.5 40q68 0 120.5 -32t81 -87.5t28.5 -123.5q0 -83 -36.5 -151.5t-104 -108t-154.5 -39.5q-67 0 -119.5 32zM378.5 90.5q45.5 29.5 70.5 79t25 108.5q0 74 -42.5 122.5t-111.5 48.5q-58 0 -103.5 -29.5
t-70.5 -79t-25 -108.5q0 -75 42.5 -123t111.5 -48q58 0 103.5 29.5zM395 622q-15 6 -34 18q-18 11 -31.5 17t-29.5 6q-33 0 -42 -37h-70q7 56 37 84.5t74 28.5q17 0 31 -6t36 -18q18 -11 31.5 -17t29.5 -6q32 0 41 37h71q-8 -56 -38 -84.5t-74 -28.5q-17 0 -32 6z" />
    <glyph glyph-name="odieresis" unicode="&#xf6;" horiz-adv-x="595" 
d="M145.5 16q-52.5 32 -81.5 87.5t-29 123.5q0 83 36.5 151t104 108t154.5 40q68 0 120.5 -32t81 -87.5t28.5 -123.5q0 -83 -36.5 -151.5t-104 -108t-154.5 -39.5q-67 0 -119.5 32zM378.5 90.5q45.5 29.5 70.5 79t25 108.5q0 74 -42.5 122.5t-111.5 48.5q-58 0 -103.5 -29.5
t-70.5 -79t-25 -108.5q0 -75 42.5 -123t111.5 -48q58 0 103.5 29.5zM244 641q-16 16 -16 38q0 23 15.5 38t37.5 15q24 0 39 -15t15 -38q0 -22 -15.5 -38t-38.5 -16q-21 0 -37 16zM408 641q-16 16 -16 38q0 23 16 38t38 15q23 0 38 -15t15 -38q0 -22 -15 -38t-38 -16
q-22 0 -38 16z" />
    <glyph glyph-name="divide" unicode="&#xf7;" horiz-adv-x="544" 
d="M262.5 413.5q-18.5 18.5 -18.5 44.5q0 27 18.5 45.5t44.5 18.5q27 0 45.5 -18.5t18.5 -45.5q0 -26 -18.5 -44.5t-45.5 -18.5q-26 0 -44.5 18.5zM64 306h434l-13 -70h-434zM196.5 38.5q-18.5 18.5 -18.5 45.5q0 26 18.5 44.5t45.5 18.5q26 0 44.5 -18.5t18.5 -44.5
q0 -27 -18.5 -45.5t-44.5 -18.5q-27 0 -45.5 18.5z" />
    <glyph glyph-name="oslash" unicode="&#xf8;" horiz-adv-x="583" 
d="M59 8l34 43q-33 33 -50.5 78.5t-17.5 97.5q0 82 37.5 150.5t106 108.5t155.5 40q65 0 117 -30l38 48l53 -41l-39 -49q31 -33 48 -77t17 -94q0 -83 -37.5 -151t-106 -108t-155.5 -40q-61 0 -113 27l-33 -43zM389 429q-32 20 -75 20q-58 0 -104.5 -29.5t-72.5 -79.5
t-26 -108q0 -64 35 -112zM373 90.5q46 29.5 72 79t26 108.5q0 62 -31 107l-242 -308q34 -16 71 -16q58 0 104 29.5z" />
    <glyph glyph-name="ugrave" unicode="&#xf9;" horiz-adv-x="561" 
d="M382 74q-27 -41 -72 -65.5t-103 -24.5q-76 0 -120 41.5t-44 109.5q0 33 7 71l54 304h84l-54 -306q-5 -25 -5 -50q0 -44 29.5 -68.5t77.5 -24.5q62 0 110 45.5t61 115.5l51 288h84l-89 -510h-81l14 74h-4zM259 736h91l29 -127h-72z" />
    <glyph glyph-name="uacute" unicode="&#xfa;" horiz-adv-x="561" 
d="M382 74q-27 -41 -72 -65.5t-103 -24.5q-76 0 -120 41.5t-44 109.5q0 33 7 71l54 304h84l-54 -306q-5 -25 -5 -50q0 -44 29.5 -68.5t77.5 -24.5q62 0 110 45.5t61 115.5l51 288h84l-89 -510h-81l14 74h-4zM376 736h95l-93 -127h-76z" />
    <glyph glyph-name="ucircumflex" unicode="&#xfb;" horiz-adv-x="561" 
d="M382 74q-27 -41 -72 -65.5t-103 -24.5q-76 0 -120 41.5t-44 109.5q0 33 7 71l54 304h84l-54 -306q-5 -25 -5 -50q0 -44 29.5 -68.5t77.5 -24.5q62 0 110 45.5t61 115.5l51 288h84l-89 -510h-81l14 74h-4zM199 619l123 117h74l82 -117l-1 -5h-77l-43 64h-9l-62 -64h-88z
" />
    <glyph glyph-name="udieresis" unicode="&#xfc;" horiz-adv-x="561" 
d="M382 74q-27 -41 -72 -65.5t-103 -24.5q-76 0 -120 41.5t-44 109.5q0 33 7 71l54 304h84l-54 -306q-5 -25 -5 -50q0 -44 29.5 -68.5t77.5 -24.5q62 0 110 45.5t61 115.5l51 288h84l-89 -510h-81l14 74h-4zM233 641q-16 16 -16 38q0 23 15.5 38t37.5 15q24 0 39 -15t15 -38
q0 -22 -15.5 -38t-38.5 -16q-21 0 -37 16zM397 641q-16 16 -16 38q0 23 16 38t38 15q23 0 38 -15t15 -38q0 -22 -15 -38t-38 -16q-22 0 -38 16z" />
    <glyph glyph-name="yacute" unicode="&#xfd;" horiz-adv-x="516" 
d="M179 33l-127 477h89l95 -379h2l222 379h94l-444 -726h-90zM346 736h95l-93 -127h-76z" />
    <glyph glyph-name="thorn" unicode="&#xfe;" horiz-adv-x="601" 
d="M145 716h85l-38 -210l-16 -71h4q29 42 75.5 66.5t109.5 24.5q59 0 106.5 -28.5t74.5 -81t27 -122.5q0 -84 -38 -155.5t-105.5 -113t-151.5 -41.5q-56 0 -99 26.5t-62 65.5h-4l-9 -71l-39 -221h-85zM388 90.5q46 29.5 72 81.5t26 115q0 75 -40 118.5t-104 43.5
q-56 0 -102.5 -31t-73 -84t-26.5 -117q0 -71 41.5 -113.5t103.5 -42.5q57 0 103 29.5z" />
    <glyph glyph-name="ydieresis" unicode="&#xff;" horiz-adv-x="516" 
d="M179 33l-127 477h89l95 -379h2l222 379h94l-444 -726h-90zM203 641q-16 16 -16 38q0 23 15.5 38t37.5 15q24 0 39 -15t15 -38q0 -22 -15.5 -38t-38.5 -16q-21 0 -37 16zM367 641q-16 16 -16 38q0 23 16 38t38 15q23 0 38 -15t15 -38q0 -22 -15 -38t-38 -16q-22 0 -38 16z
" />
    <glyph glyph-name="Amacron" unicode="&#x100;" horiz-adv-x="669" 
d="M367 716h96l145 -716h-90l-36 197h-309l-108 -197h-95zM466 277l-50 258l-14 77h-4l-183 -335h251zM302 876h276l-12 -66h-276z" />
    <glyph glyph-name="amacron" unicode="&#x101;" horiz-adv-x="531" 
d="M104.5 4.5q-38.5 20.5 -61 56t-22.5 79.5q0 85 62.5 135.5t171.5 50.5q40 0 78.5 -9.5t68.5 -25.5l6 30q3 17 3 29q0 45 -35.5 72.5t-89.5 27.5q-83 0 -137 -68l-66 47q36 46 91 71.5t121 25.5q92 0 144.5 -44.5t52.5 -119.5q0 -21 -5 -51l-56 -311h-81l13 72h-4
q-27 -40 -71 -64t-100 -24q-45 0 -83.5 20.5zM327 104.5q51 45.5 63 116.5q-31 18 -62 27t-78 9q-63 0 -102.5 -29.5t-39.5 -81.5q0 -40 28.5 -63.5t70.5 -23.5q69 0 120 45.5zM193 712h277l-12 -67h-277z" />
    <glyph glyph-name="Abreve" unicode="&#x102;" horiz-adv-x="669" 
d="M367 716h96l145 -716h-90l-36 197h-309l-108 -197h-95zM466 277l-50 258l-14 77h-4l-183 -335h251zM346.5 801.5q-32.5 29.5 -32.5 73.5q0 7 2 21h69q-1 -5 -1 -12q0 -21 12.5 -34.5t36.5 -13.5q26 0 44.5 16t23.5 44h68q-9 -61 -47.5 -92.5t-96.5 -31.5
q-46 0 -78.5 29.5z" />
    <glyph glyph-name="abreve" unicode="&#x103;" horiz-adv-x="531" 
d="M104.5 4.5q-38.5 20.5 -61 56t-22.5 79.5q0 85 62.5 135.5t171.5 50.5q40 0 78.5 -9.5t68.5 -25.5l6 30q3 17 3 29q0 45 -35.5 72.5t-89.5 27.5q-83 0 -137 -68l-66 47q36 46 91 71.5t121 25.5q92 0 144.5 -44.5t52.5 -119.5q0 -21 -5 -51l-56 -311h-81l13 72h-4
q-27 -40 -71 -64t-100 -24q-45 0 -83.5 20.5zM327 104.5q51 45.5 63 116.5q-31 18 -62 27t-78 9q-63 0 -102.5 -29.5t-39.5 -81.5q0 -40 28.5 -63.5t70.5 -23.5q69 0 120 45.5zM236.5 636.5q-32.5 29.5 -32.5 74.5q0 7 2 21h69q-1 -5 -1 -12q0 -21 12.5 -35t36.5 -14
q26 0 44.5 16.5t23.5 44.5h68q-10 -62 -48 -93.5t-96 -31.5q-46 0 -78.5 29.5z" />
    <glyph glyph-name="Aogonek" unicode="&#x104;" horiz-adv-x="669" 
d="M467.5 -197.5q-28.5 26.5 -28.5 65.5q0 78 78 134l-35 195h-309l-108 -197h-95l397 716h96l145 -716q-35 -20 -63 -51.5t-28 -62.5q0 -19 11.5 -29.5t28.5 -10.5q21 0 42 9l-12 -72q-11 -4 -20.5 -5.5t-26.5 -1.5q-44 0 -72.5 26.5zM466 277l-50 258l-14 77h-4l-183 -335
h251z" />
    <glyph glyph-name="aogonek" unicode="&#x105;" horiz-adv-x="531" 
d="M290.5 -197.5q-28.5 26.5 -28.5 65.5q0 40 23.5 73.5t65.5 59.5l12 71h-4q-27 -40 -71 -64t-100 -24q-45 0 -83.5 20.5t-61 56t-22.5 79.5q0 85 62.5 135.5t171.5 50.5q40 0 78.5 -9.5t68.5 -25.5l6 30q3 17 3 29q0 45 -35.5 72.5t-89.5 27.5q-83 0 -137 -68l-66 47
q36 46 91 71.5t121 25.5q92 0 144.5 -44.5t52.5 -119.5q0 -21 -5 -51l-56 -311q-35 -20 -63 -51.5t-28 -62.5q0 -19 11.5 -29.5t29.5 -10.5q20 0 42 9l-13 -72q-18 -7 -47 -7q-44 0 -72.5 26.5zM327 104.5q51 45.5 63 116.5q-31 18 -62 27t-78 9q-63 0 -102.5 -29.5
t-39.5 -81.5q0 -40 28.5 -63.5t70.5 -23.5q69 0 120 45.5z" />
    <glyph glyph-name="Cacute" unicode="&#x106;" horiz-adv-x="740" 
d="M208.5 24q-71.5 40 -112 113t-40.5 169q0 110 57 208.5t156 158t220 59.5q81 0 146 -33.5t99 -86.5l-68 -56q-33 49 -78.5 72t-108.5 23q-91 0 -168.5 -48t-122.5 -126.5t-45 -166.5q0 -73 31 -128.5t85 -86t121 -30.5q73 0 128.5 27t111.5 81l55 -61q-68 -66 -139 -97
t-165 -31q-91 0 -162.5 40zM522 900h95l-93 -127h-77z" />
    <glyph glyph-name="cacute" unicode="&#x107;" horiz-adv-x="551" 
d="M140.5 16q-50.5 32 -78.5 86t-28 117q0 85 38 155t106 111t154 41q82 0 134 -41t69 -100l-79 -31q-14 45 -48.5 70t-85.5 25q-55 0 -101 -29t-73 -80t-27 -115q0 -70 40.5 -117t106.5 -47q52 0 93 25.5t66 71.5l68 -33q-40 -72 -97.5 -106.5t-141.5 -34.5
q-65 0 -115.5 32zM376 736h95l-93 -127h-76z" />
    <glyph glyph-name="Ccircumflex" unicode="&#x108;" horiz-adv-x="740" 
d="M208.5 24q-71.5 40 -112 113t-40.5 169q0 110 57 208.5t156 158t220 59.5q81 0 146 -33.5t99 -86.5l-68 -56q-33 49 -78.5 72t-108.5 23q-91 0 -168.5 -48t-122.5 -126.5t-45 -166.5q0 -73 31 -128.5t85 -86t121 -30.5q73 0 128.5 27t111.5 81l55 -61q-68 -66 -139 -97
t-165 -31q-91 0 -162.5 40zM343 784l123 116h75l81 -116l-1 -5h-76l-44 63h-8l-63 -63h-88z" />
    <glyph glyph-name="ccircumflex" unicode="&#x109;" horiz-adv-x="551" 
d="M140.5 16q-50.5 32 -78.5 86t-28 117q0 85 38 155t106 111t154 41q82 0 134 -41t69 -100l-79 -31q-14 45 -48.5 70t-85.5 25q-55 0 -101 -29t-73 -80t-27 -115q0 -70 40.5 -117t106.5 -47q52 0 93 25.5t66 71.5l68 -33q-40 -72 -97.5 -106.5t-141.5 -34.5
q-65 0 -115.5 32zM199 619l123 117h74l82 -117l-1 -5h-77l-43 64h-9l-62 -64h-88z" />
    <glyph glyph-name="Cdotaccent" unicode="&#x10a;" horiz-adv-x="740" 
d="M208.5 24q-71.5 40 -112 113t-40.5 169q0 110 57 208.5t156 158t220 59.5q81 0 146 -33.5t99 -86.5l-68 -56q-33 49 -78.5 72t-108.5 23q-91 0 -168.5 -48t-122.5 -126.5t-45 -166.5q0 -73 31 -128.5t85 -86t121 -30.5q73 0 128.5 27t111.5 81l55 -61q-68 -66 -139 -97
t-165 -31q-91 0 -162.5 40zM465 822q-15 15 -15 34q0 21 15 35t35 14q21 0 35 -14t14 -35q0 -20 -14 -34.5t-35 -14.5q-20 0 -35 15z" />
    <glyph glyph-name="cdotaccent" unicode="&#x10b;" horiz-adv-x="551" 
d="M140.5 16q-50.5 32 -78.5 86t-28 117q0 85 38 155t106 111t154 41q82 0 134 -41t69 -100l-79 -31q-14 45 -48.5 70t-85.5 25q-55 0 -101 -29t-73 -80t-27 -115q0 -70 40.5 -117t106.5 -47q52 0 93 25.5t66 71.5l68 -33q-40 -72 -97.5 -106.5t-141.5 -34.5
q-65 0 -115.5 32zM316 641q-16 16 -16 38q0 23 15.5 38t37.5 15q23 0 38.5 -15t15.5 -38q0 -22 -15.5 -38t-38.5 -16q-21 0 -37 16z" />
    <glyph glyph-name="Ccaron" unicode="&#x10c;" horiz-adv-x="740" 
d="M208.5 24q-71.5 40 -112 113t-40.5 169q0 110 57 208.5t156 158t220 59.5q81 0 146 -33.5t99 -86.5l-68 -56q-33 49 -78.5 72t-108.5 23q-91 0 -168.5 -48t-122.5 -126.5t-45 -166.5q0 -73 31 -128.5t85 -86t121 -30.5q73 0 128.5 27t111.5 81l55 -61q-68 -66 -139 -97
t-165 -31q-91 0 -162.5 40zM371 895l1 5h77l43 -63h8l63 63h88l-1 -5l-123 -116h-75z" />
    <glyph glyph-name="ccaron" unicode="&#x10d;" horiz-adv-x="551" 
d="M140.5 16q-50.5 32 -78.5 86t-28 117q0 85 38 155t106 111t154 41q82 0 134 -41t69 -100l-79 -31q-14 45 -48.5 70t-85.5 25q-55 0 -101 -29t-73 -80t-27 -115q0 -70 40.5 -117t106.5 -47q52 0 93 25.5t66 71.5l68 -33q-40 -72 -97.5 -106.5t-141.5 -34.5
q-65 0 -115.5 32zM226 731l1 5h77l44 -64h8l62 64h89l-1 -5l-124 -117h-74z" />
    <glyph glyph-name="Dcaron" unicode="&#x10e;" horiz-adv-x="703" 
d="M161 716h216q97 0 166 -40t104.5 -109.5t35.5 -158.5q0 -109 -51 -202.5t-147 -149.5t-225 -56h-226zM265 81q93 0 169 42.5t119 116t43 162.5q0 113 -61.5 173t-172.5 60h-131l-98 -554h132zM258 895l1 5h77l43 -63h8l63 63h88l-1 -5l-123 -116h-75z" />
    <glyph glyph-name="dcaron" unicode="&#x10f;" horiz-adv-x="681" 
d="M129.5 12.5q-47.5 28.5 -74.5 81t-27 121.5q0 85 38 156t105.5 113t151.5 42q57 0 99.5 -27t62.5 -66h4l8 71l38 212h84l-127 -716h-80l13 75h-4q-29 -42 -75 -66.5t-110 -24.5q-59 0 -106.5 28.5zM361.5 92q46.5 31 73 83.5t26.5 115.5q0 72 -41 115t-103 43
q-58 0 -104 -29.5t-72 -81.5t-26 -115q0 -74 40.5 -118t103.5 -44q56 0 102.5 31zM687 716h92l-63 -189h-62z" />
    <glyph glyph-name="Dcroat" unicode="&#x110;" horiz-adv-x="706" 
d="M17 339l10 66h81l55 311h217q97 0 166 -40t104.5 -109.5t35.5 -158.5q0 -109 -51 -202.5t-147 -149.5t-226 -56h-226l60 339h-79zM437 123.5q76 42.5 119 116t43 162.5q0 113 -61.5 173t-172.5 60h-132l-41 -230h185l-11 -66h-185l-45 -258h131q94 0 170 42.5z" />
    <glyph glyph-name="dcroat" unicode="&#x111;" horiz-adv-x="600" 
d="M129.5 12.5q-47.5 28.5 -74.5 81t-27 121.5q0 85 38 156t105.5 113t151.5 42q57 0 99.5 -27t62.5 -66h4l8 71l14 79h-155l12 67h155l12 66h84l-12 -66h64l-12 -67h-63l-104 -583h-80l13 75h-4q-29 -42 -75 -66.5t-110 -24.5q-59 0 -106.5 28.5zM361.5 92q46.5 31 73 83.5
t26.5 115.5q0 72 -41 115t-103 43q-58 0 -104 -29.5t-72 -81.5t-26 -115q0 -74 40.5 -118t103.5 -44q56 0 102.5 31z" />
    <glyph glyph-name="Emacron" unicode="&#x112;" horiz-adv-x="550" 
d="M161 716h414l-14 -81h-330l-42 -237h298l-14 -80h-298l-42 -237h330l-15 -81h-414zM264 876h276l-12 -66h-276z" />
    <glyph glyph-name="emacron" unicode="&#x113;" horiz-adv-x="564" 
d="M140 15.5q-52 31.5 -79.5 85t-27.5 117.5q0 80 36 151t102 114t151 43q66 0 114 -29t73 -78.5t25 -107.5q0 -43 -9 -72h-404q-2 -20 -2 -32q0 -44 20.5 -77.5t54 -51t71.5 -17.5q59 0 100.5 24.5t69.5 70.5l65 -37q-38 -66 -99 -100.5t-140 -34.5q-69 0 -121 31.5z
M449 309v14q0 33 -16 62t-47 46.5t-74 17.5q-64 0 -111.5 -39.5t-65.5 -100.5h314zM216 712h277l-12 -67h-277z" />
    <glyph glyph-name="Ebreve" unicode="&#x114;" horiz-adv-x="550" 
d="M161 716h414l-14 -81h-330l-42 -237h298l-14 -80h-298l-42 -237h330l-15 -81h-414zM308.5 801.5q-32.5 29.5 -32.5 73.5q0 7 2 21h69q-1 -5 -1 -12q0 -21 12.5 -34.5t36.5 -13.5q26 0 44.5 16t23.5 44h68q-9 -61 -47.5 -92.5t-96.5 -31.5q-46 0 -78.5 29.5z" />
    <glyph glyph-name="ebreve" unicode="&#x115;" horiz-adv-x="564" 
d="M140 15.5q-52 31.5 -79.5 85t-27.5 117.5q0 80 36 151t102 114t151 43q66 0 114 -29t73 -78.5t25 -107.5q0 -43 -9 -72h-404q-2 -20 -2 -32q0 -44 20.5 -77.5t54 -51t71.5 -17.5q59 0 100.5 24.5t69.5 70.5l65 -37q-38 -66 -99 -100.5t-140 -34.5q-69 0 -121 31.5z
M449 309v14q0 33 -16 62t-47 46.5t-74 17.5q-64 0 -111.5 -39.5t-65.5 -100.5h314zM259.5 636.5q-32.5 29.5 -32.5 74.5q0 7 2 21h69q-1 -5 -1 -12q0 -21 12.5 -35t36.5 -14q26 0 44.5 16.5t23.5 44.5h68q-10 -62 -48 -93.5t-96 -31.5q-46 0 -78.5 29.5z" />
    <glyph glyph-name="Edotaccent" unicode="&#x116;" horiz-adv-x="550" 
d="M161 716h414l-14 -81h-330l-42 -237h298l-14 -80h-298l-42 -237h330l-15 -81h-414zM364 822q-15 15 -15 34q0 21 15 35t35 14q21 0 35 -14t14 -35q0 -20 -14 -34.5t-35 -14.5q-20 0 -35 15z" />
    <glyph glyph-name="edotaccent" unicode="&#x117;" horiz-adv-x="564" 
d="M140 15.5q-52 31.5 -79.5 85t-27.5 117.5q0 80 36 151t102 114t151 43q66 0 114 -29t73 -78.5t25 -107.5q0 -43 -9 -72h-404q-2 -20 -2 -32q0 -44 20.5 -77.5t54 -51t71.5 -17.5q59 0 100.5 24.5t69.5 70.5l65 -37q-38 -66 -99 -100.5t-140 -34.5q-69 0 -121 31.5z
M449 309v14q0 33 -16 62t-47 46.5t-74 17.5q-64 0 -111.5 -39.5t-65.5 -100.5h314zM312 641q-16 16 -16 38q0 23 15.5 38t37.5 15q23 0 38.5 -15t15.5 -38q0 -22 -15.5 -38t-38.5 -16q-21 0 -37 16z" />
    <glyph glyph-name="Eogonek" unicode="&#x118;" horiz-adv-x="550" 
d="M231 635l-42 -237h298l-14 -80h-298l-42 -237h330l-15 -81q-35 -20 -63 -51.5t-28 -62.5q0 -19 11 -29.5t29 -10.5q12 0 20.5 2t21.5 7l-12 -72q-11 -4 -20.5 -5.5t-26.5 -1.5q-44 0 -73 26.5t-29 65.5q0 78 85 132h-329l127 716h414l-14 -81h-330z" />
    <glyph glyph-name="eogonek" unicode="&#x119;" horiz-adv-x="564" 
d="M218.5 -197.5q-28.5 26.5 -28.5 65.5q0 69 63 116h-4q-66 3 -115 35t-75 84.5t-26 114.5q0 80 36 151t102 114t151 43q66 0 114 -29t73 -78.5t25 -107.5q0 -43 -9 -72h-404q-2 -20 -2 -32q0 -44 20.5 -77.5t54 -51t71.5 -17.5q59 0 100.5 24.5t69.5 70.5l65 -37
q-23 -42 -56.5 -71t-69.5 -43q-43 -18 -74.5 -52t-31.5 -67q0 -19 11.5 -29.5t29.5 -10.5q20 0 42 9l-13 -72q-18 -7 -47 -7q-44 0 -72.5 26.5zM449 309v14q0 33 -16 62t-47 46.5t-74 17.5q-64 0 -111.5 -39.5t-65.5 -100.5h314z" />
    <glyph glyph-name="Ecaron" unicode="&#x11a;" horiz-adv-x="550" 
d="M161 716h414l-14 -81h-330l-42 -237h298l-14 -80h-298l-42 -237h330l-15 -81h-414zM270 895l1 5h77l43 -63h8l63 63h88l-1 -5l-123 -116h-75z" />
    <glyph glyph-name="ecaron" unicode="&#x11b;" horiz-adv-x="564" 
d="M140 15.5q-52 31.5 -79.5 85t-27.5 117.5q0 80 36 151t102 114t151 43q66 0 114 -29t73 -78.5t25 -107.5q0 -43 -9 -72h-404q-2 -20 -2 -32q0 -44 20.5 -77.5t54 -51t71.5 -17.5q59 0 100.5 24.5t69.5 70.5l65 -37q-38 -66 -99 -100.5t-140 -34.5q-69 0 -121 31.5z
M449 309v14q0 33 -16 62t-47 46.5t-74 17.5q-64 0 -111.5 -39.5t-65.5 -100.5h314zM222 731l1 5h77l44 -64h8l62 64h89l-1 -5l-124 -117h-74z" />
    <glyph glyph-name="Gcircumflex" unicode="&#x11c;" horiz-adv-x="814" 
d="M220 24q-73 40 -117.5 115t-44.5 174q0 113 55.5 209t155.5 153t226 57q79 0 145.5 -29.5t100.5 -80.5l-69 -58q-25 40 -77 63.5t-113 23.5q-93 0 -170.5 -44t-122 -120.5t-44.5 -169.5q0 -78 33 -135t89 -87t122 -30q67 0 122.5 23.5t96.5 66.5q57 59 78 147h-259l14 79
h344q0 -20 -5 -52q-19 -135 -110 -229q-111 -116 -292 -116q-85 0 -158 40zM351 784l123 116h75l81 -116l-1 -5h-76l-44 63h-8l-63 -63h-88z" />
    <glyph glyph-name="gcircumflex" unicode="&#x11d;" horiz-adv-x="597" 
d="M105.5 -211q-43.5 21 -69.5 53.5t-33 68.5l82 33q11 -44 45 -71.5t89 -27.5q79 0 130 47t65 129l10 56h-4q-29 -42 -73 -64.5t-108 -22.5q-57 0 -104 28.5t-74 81t-27 119.5q0 81 36 151.5t101.5 113t150.5 42.5q58 0 101 -25t61 -64h4l13 73h81l-87 -494
q-22 -126 -98 -187t-190 -61q-58 0 -101.5 21zM361.5 98q46.5 31 72.5 82.5t26 110.5q0 72 -39 115t-100 43q-60 0 -106 -30t-71 -81.5t-25 -114.5q0 -73 39 -114.5t99 -41.5q58 0 104.5 31zM200 619l123 117h74l82 -117l-1 -5h-77l-43 64h-9l-62 -64h-88z" />
    <glyph glyph-name="Gbreve" unicode="&#x11e;" horiz-adv-x="814" 
d="M220 24q-73 40 -117.5 115t-44.5 174q0 113 55.5 209t155.5 153t226 57q79 0 145.5 -29.5t100.5 -80.5l-69 -58q-25 40 -77 63.5t-113 23.5q-93 0 -170.5 -44t-122 -120.5t-44.5 -169.5q0 -78 33 -135t89 -87t122 -30q67 0 122.5 23.5t96.5 66.5q57 59 78 147h-259l14 79
h344q0 -20 -5 -52q-19 -135 -110 -229q-111 -116 -292 -116q-85 0 -158 40zM417.5 801.5q-32.5 29.5 -32.5 73.5q0 7 2 21h69q-1 -5 -1 -12q0 -21 12.5 -34.5t36.5 -13.5q26 0 44.5 16t23.5 44h68q-9 -61 -47.5 -92.5t-96.5 -31.5q-46 0 -78.5 29.5z" />
    <glyph glyph-name="gbreve" unicode="&#x11f;" horiz-adv-x="597" 
d="M105.5 -211q-43.5 21 -69.5 53.5t-33 68.5l82 33q11 -44 45 -71.5t89 -27.5q79 0 130 47t65 129l10 56h-4q-29 -42 -73 -64.5t-108 -22.5q-57 0 -104 28.5t-74 81t-27 119.5q0 81 36 151.5t101.5 113t150.5 42.5q58 0 101 -25t61 -64h4l13 73h81l-87 -494
q-22 -126 -98 -187t-190 -61q-58 0 -101.5 21zM361.5 98q46.5 31 72.5 82.5t26 110.5q0 72 -39 115t-100 43q-60 0 -106 -30t-71 -81.5t-25 -114.5q0 -73 39 -114.5t99 -41.5q58 0 104.5 31zM264.5 636.5q-32.5 29.5 -32.5 74.5q0 7 2 21h69q-1 -5 -1 -12q0 -21 12.5 -35
t36.5 -14q26 0 44.5 16.5t23.5 44.5h68q-10 -62 -48 -93.5t-96 -31.5q-46 0 -78.5 29.5z" />
    <glyph glyph-name="Gdotaccent" unicode="&#x120;" horiz-adv-x="814" 
d="M220 24q-73 40 -117.5 115t-44.5 174q0 113 55.5 209t155.5 153t226 57q79 0 145.5 -29.5t100.5 -80.5l-69 -58q-25 40 -77 63.5t-113 23.5q-93 0 -170.5 -44t-122 -120.5t-44.5 -169.5q0 -78 33 -135t89 -87t122 -30q67 0 122.5 23.5t96.5 66.5q57 59 78 147h-259l14 79
h344q0 -20 -5 -52q-19 -135 -110 -229q-111 -116 -292 -116q-85 0 -158 40zM473 822q-15 15 -15 34q0 21 15 35t35 14q21 0 35 -14t14 -35q0 -20 -14 -34.5t-35 -14.5q-20 0 -35 15z" />
    <glyph glyph-name="gdotaccent" unicode="&#x121;" horiz-adv-x="597" 
d="M105.5 -211q-43.5 21 -69.5 53.5t-33 68.5l82 33q11 -44 45 -71.5t89 -27.5q79 0 130 47t65 129l10 56h-4q-29 -42 -73 -64.5t-108 -22.5q-57 0 -104 28.5t-74 81t-27 119.5q0 81 36 151.5t101.5 113t150.5 42.5q58 0 101 -25t61 -64h4l13 73h81l-87 -494
q-22 -126 -98 -187t-190 -61q-58 0 -101.5 21zM361.5 98q46.5 31 72.5 82.5t26 110.5q0 72 -39 115t-100 43q-60 0 -106 -30t-71 -81.5t-25 -114.5q0 -73 39 -114.5t99 -41.5q58 0 104.5 31zM317 641q-16 16 -16 38q0 23 15.5 38t37.5 15q23 0 38.5 -15t15.5 -38
q0 -22 -15.5 -38t-38.5 -16q-21 0 -37 16z" />
    <glyph glyph-name="uni0122" unicode="&#x122;" horiz-adv-x="814" 
d="M220 24q-73 40 -117.5 115t-44.5 174q0 113 55.5 209t155.5 153t226 57q79 0 145.5 -29.5t100.5 -80.5l-69 -58q-25 40 -77 63.5t-113 23.5q-93 0 -170.5 -44t-122 -120.5t-44.5 -169.5q0 -78 33 -135t89 -87t122 -30q67 0 122.5 23.5t96.5 66.5q57 59 78 147h-259l14 79
h344q0 -20 -5 -52q-19 -135 -110 -229q-111 -116 -292 -116q-85 0 -158 40zM351 -155q-18 4 -29 18.5t-11 33.5q0 21 16 38t40 17q25 0 40.5 -16.5t15.5 -40.5q0 -30 -18 -51l-71 -86l-34 29z" />
    <glyph glyph-name="uni0123" unicode="&#x123;" horiz-adv-x="597" 
d="M105.5 -211q-43.5 21 -69.5 53.5t-33 68.5l82 33q11 -44 45 -71.5t89 -27.5q79 0 130 47t65 129l10 56h-4q-29 -42 -73 -64.5t-108 -22.5q-57 0 -104 28.5t-74 81t-27 119.5q0 81 36 151.5t101.5 113t150.5 42.5q58 0 101 -25t61 -64h4l13 73h81l-87 -494
q-22 -126 -98 -187t-190 -61q-58 0 -101.5 21zM361.5 98q46.5 31 72.5 82.5t26 110.5q0 72 -39 115t-100 43q-60 0 -106 -30t-71 -81.5t-25 -114.5q0 -73 39 -114.5t99 -41.5q58 0 104.5 31zM367 699q18 -4 29 -18.5t11 -33.5q0 -21 -16 -38t-40 -17q-25 0 -40.5 16.5
t-15.5 40.5q0 30 18 51l71 86l34 -29z" />
    <glyph glyph-name="Hcircumflex" unicode="&#x124;" horiz-adv-x="698" 
d="M161 716h84l-55 -310h369l56 310h84l-127 -716h-84l57 326h-369l-58 -326h-84zM297 784l123 116h75l81 -116l-1 -5h-76l-44 63h-8l-63 -63h-88z" />
    <glyph glyph-name="hcircumflex" unicode="&#x125;" horiz-adv-x="561" 
d="M145 716h85l-38 -211l-16 -70h4q28 41 73 66t102 25q78 0 121 -41.5t43 -109.5q0 -32 -7 -68l-55 -307h-84l54 307q6 27 6 49q0 42 -29.5 67.5t-77.5 25.5q-63 0 -111 -48t-62 -124l-49 -277h-85zM56 783l123 117h74l82 -117l-1 -5h-77l-43 64h-9l-62 -64h-88z" />
    <glyph glyph-name="Hbar" unicode="&#x126;" horiz-adv-x="698" 
d="M60 509l12 66h64l25 141h84l-25 -141h369l26 141h84l-25 -141h64l-11 -66h-64l-91 -509h-84l57 326h-369l-58 -326h-84l90 509h-64zM577 509h-369l-18 -103h369z" />
    <glyph glyph-name="hbar" unicode="&#x127;" horiz-adv-x="561" 
d="M122 583h-65l13 67h63l12 66h85l-12 -66h148l-12 -67h-148l-14 -78l-16 -70h4q28 41 73 66t102 25q78 0 121 -41.5t43 -109.5q0 -32 -7 -68l-55 -307h-84l54 307q6 27 6 49q0 42 -29.5 67.5t-77.5 25.5q-63 0 -111 -48t-62 -124l-50 -277h-84z" />
    <glyph glyph-name="Itilde" unicode="&#x128;" horiz-adv-x="244" 
d="M161 716h84l-127 -716h-84zM257 786q-15 6 -34 18q-18 11 -31.5 17t-29.5 6q-33 0 -42 -37h-70q8 56 38 85t74 29q17 0 32.5 -6t34.5 -18q18 -11 31.5 -17t28.5 -6q33 0 42 37h70q-7 -56 -37.5 -85t-74.5 -29q-17 0 -32 6z" />
    <glyph glyph-name="itilde" unicode="&#x129;" horiz-adv-x="227" 
d="M116 510h85l-90 -510h-85zM219 622q-15 6 -34 18q-18 11 -31.5 17t-29.5 6q-33 0 -42 -37h-70q7 56 37 84.5t74 28.5q17 0 31 -6t36 -18q18 -11 31.5 -17t29.5 -6q32 0 41 37h71q-8 -56 -38 -84.5t-74 -28.5q-17 0 -32 6z" />
    <glyph glyph-name="Imacron" unicode="&#x12a;" horiz-adv-x="244" 
d="M109 876h245l-11 -66h-246zM161 716h84l-127 -716h-84z" />
    <glyph glyph-name="imacron" unicode="&#x12b;" horiz-adv-x="227" 
d="M116 510h85l-90 -510h-85zM55 712h277l-12 -67h-277z" />
    <glyph glyph-name="Ibreve" unicode="&#x12c;" horiz-adv-x="244" 
d="M161 716h84l-127 -716h-84zM137.5 801.5q-32.5 29.5 -32.5 73.5q0 7 2 21h69q-1 -5 -1 -12q0 -21 12.5 -34.5t36.5 -13.5q26 0 44.5 16t23.5 44h68q-9 -61 -47.5 -92.5t-96.5 -31.5q-46 0 -78.5 29.5z" />
    <glyph glyph-name="ibreve" unicode="&#x12d;" horiz-adv-x="227" 
d="M116 510h85l-90 -510h-85zM98.5 636.5q-32.5 29.5 -32.5 74.5q0 7 2 21h69q-1 -5 -1 -12q0 -21 12.5 -35t36.5 -14q26 0 44.5 16.5t23.5 44.5h68q-10 -62 -48 -93.5t-96 -31.5q-46 0 -78.5 29.5z" />
    <glyph glyph-name="Iogonek" unicode="&#x12e;" horiz-adv-x="244" 
d="M-22.5 -197.5q-28.5 26.5 -28.5 65.5q0 80 85 133l127 715h84l-127 -716q-35 -20 -63 -51.5t-28 -62.5q0 -19 11.5 -29.5t29.5 -10.5q20 0 42 9l-13 -72q-18 -7 -47 -7q-44 0 -72.5 26.5z" />
    <glyph glyph-name="iogonek" unicode="&#x12f;" horiz-adv-x="223" 
d="M143 622q-18 18 -18 43q0 26 18 43.5t43 17.5q26 0 43.5 -17.5t17.5 -43.5q0 -25 -17.5 -43t-43.5 -18q-25 0 -43 18zM-30.5 -197.5q-28.5 26.5 -28.5 65.5q0 79 85 133l89 509h85l-90 -510q-35 -20 -63 -51.5t-28 -62.5q0 -19 11.5 -29.5t28.5 -10.5q21 0 42 9l-12 -72
q-11 -4 -20.5 -5.5t-26.5 -1.5q-44 0 -72.5 26.5z" />
    <glyph glyph-name="Idotaccent" unicode="&#x130;" horiz-adv-x="244" 
d="M161 716h84l-127 -716h-84zM193 822q-15 15 -15 34q0 21 15 35t35 14q21 0 35 -14t14 -35q0 -20 -14 -34.5t-35 -14.5q-20 0 -35 15z" />
    <glyph glyph-name="dotlessi" unicode="&#x131;" horiz-adv-x="227" 
d="M116 510h85l-90 -510h-85z" />
    <glyph glyph-name="Jcircumflex" unicode="&#x134;" horiz-adv-x="531" 
d="M75 29q-53 45 -62 121l82 32q6 -61 39 -89t83 -28q60 0 103.5 42t54.5 107l88 502h84l-87 -496q-20 -117 -88 -176.5t-165 -59.5q-79 0 -132 45zM373 784l123 116h75l81 -116l-1 -5h-76l-44 63h-8l-63 -63h-88z" />
    <glyph glyph-name="jcircumflex" unicode="&#x135;" horiz-adv-x="230" 
d="M-114 -218l14 79q7 -4 19.5 -7t22.5 -3q58 0 70 71l104 588h85l-105 -592q-14 -79 -54.5 -111.5t-105.5 -32.5q-24 0 -50 8zM34 619l123 117h74l82 -117l-1 -5h-77l-43 64h-9l-62 -64h-88z" />
    <glyph glyph-name="uni0136" unicode="&#x136;" horiz-adv-x="626" 
d="M161 716h84l-65 -374h4l385 374h112l-1 -4l-319 -306l213 -402l-1 -4h-99l-180 341l-138 -131l-38 -210h-84zM260 -155q-18 4 -29 18.5t-11 33.5q0 21 16 38t40 17q25 0 40.5 -16.5t15.5 -40.5q0 -30 -18 -51l-71 -86l-34 29z" />
    <glyph glyph-name="uni0137" unicode="&#x137;" horiz-adv-x="507" 
d="M147 716h84l-78 -444l275 238h115l-1 -4l-238 -202l152 -300l-1 -4h-99l-120 246l-103 -88l-28 -158h-84zM198 -155q-18 4 -29 18.5t-11 33.5q0 21 16 38t40 17q25 0 40.5 -16.5t15.5 -40.5q0 -30 -18 -51l-71 -86l-34 29z" />
    <glyph glyph-name="kgreenlandic" unicode="&#x138;" horiz-adv-x="494" 
d="M111 510h85l-41 -231h4l252 231h111l-1 -4l-271 -241l193 -261l-1 -4h-101l-186 257h-4l-46 -257h-83z" />
    <glyph glyph-name="Lacute" unicode="&#x139;" horiz-adv-x="508" 
d="M161 716h84l-112 -635h314l-15 -81h-398zM250 900h95l-93 -127h-77z" />
    <glyph glyph-name="lacute" unicode="&#x13a;" horiz-adv-x="212" 
d="M145 716h84l-126 -716h-84zM233 900h95l-93 -127h-76z" />
    <glyph glyph-name="uni013B" unicode="&#x13b;" horiz-adv-x="508" 
d="M161 716h84l-112 -635h314l-15 -81h-398zM222 -155q-18 4 -29 18.5t-11 33.5q0 21 16 38t40 17q25 0 40.5 -16.5t15.5 -40.5q0 -30 -18 -51l-71 -86l-34 29z" />
    <glyph glyph-name="uni013C" unicode="&#x13c;" horiz-adv-x="212" 
d="M145 716h84l-126 -716h-84zM27 -155q-18 4 -29 18.5t-11 33.5q0 21 16 38t40 17q25 0 40.5 -16.5t15.5 -40.5q0 -30 -18 -51l-71 -86l-34 29z" />
    <glyph glyph-name="Lcaron" unicode="&#x13d;" horiz-adv-x="508" 
d="M161 716h84l-112 -635h314l-15 -81h-398zM398 716h92l-63 -189h-62z" />
    <glyph glyph-name="lcaron" unicode="&#x13e;" horiz-adv-x="309" 
d="M145 716h84l-126 -716h-84zM298 716h92l-63 -189h-62z" />
    <glyph glyph-name="Ldot" unicode="&#x13f;" horiz-adv-x="508" 
d="M161 716h84l-112 -635h314l-15 -81h-398zM311.5 298.5q-18.5 18.5 -18.5 45.5t18.5 45.5t44.5 18.5q27 0 45.5 -18.5t18.5 -45.5t-18.5 -45.5t-45.5 -18.5q-26 0 -44.5 18.5z" />
    <glyph glyph-name="Lslash" unicode="&#x141;" horiz-adv-x="575" 
d="M80 242l-34 62l120 67l62 345h84l-50 -286l140 79l34 -63l-191 -107l-45 -258h314l-15 -81h-398l50 281z" />
    <glyph glyph-name="lslash" unicode="&#x142;" horiz-adv-x="357" 
d="M143 310l-65 -41l-37 61l120 78l54 308h85l-45 -251l80 53l38 -63l-135 -87l-65 -368h-84z" />
    <glyph glyph-name="Nacute" unicode="&#x143;" horiz-adv-x="707" 
d="M161 716h97l265 -570h4l21 138l76 432h85l-127 -716h-81l-277 597h-4l-20 -138l-82 -459h-84zM481 900h95l-93 -127h-77z" />
    <glyph glyph-name="nacute" unicode="&#x144;" horiz-adv-x="561" 
d="M180 435q27 41 72 66t103 25q76 0 119.5 -41.5t43.5 -109.5q0 -40 -6 -71l-54 -304h-85l54 306q6 38 6 50q0 44 -29.5 68.5t-78.5 24.5q-62 0 -110 -46t-60 -116l-51 -287h-85l90 510h80l-13 -75h4zM391 736h95l-93 -127h-76z" />
    <glyph glyph-name="uni0145" unicode="&#x145;" horiz-adv-x="707" 
d="M161 716h97l265 -570h4l21 138l76 432h85l-127 -716h-81l-277 597h-4l-20 -138l-82 -459h-84zM276 -155q-18 4 -29 18.5t-11 33.5q0 21 16 38t40 17q25 0 40.5 -16.5t15.5 -40.5q0 -30 -18 -51l-71 -86l-34 29z" />
    <glyph glyph-name="uni0146" unicode="&#x146;" horiz-adv-x="561" 
d="M180 435q27 41 72 66t103 25q76 0 119.5 -41.5t43.5 -109.5q0 -40 -6 -71l-54 -304h-85l54 306q6 38 6 50q0 44 -29.5 68.5t-78.5 24.5q-62 0 -110 -46t-60 -116l-51 -287h-85l90 510h80l-13 -75h4zM212 -155q-18 4 -29 18.5t-11 33.5q0 21 16 38t40 17q25 0 40.5 -16.5
t15.5 -40.5q0 -30 -18 -51l-71 -86l-34 29z" />
    <glyph glyph-name="Ncaron" unicode="&#x147;" horiz-adv-x="707" 
d="M161 716h97l265 -570h4l21 138l76 432h85l-127 -716h-81l-277 597h-4l-20 -138l-82 -459h-84zM330 895l1 5h77l43 -63h8l63 63h88l-1 -5l-123 -116h-75z" />
    <glyph glyph-name="ncaron" unicode="&#x148;" horiz-adv-x="561" 
d="M180 435q27 41 72 66t103 25q76 0 119.5 -41.5t43.5 -109.5q0 -40 -6 -71l-54 -304h-85l54 306q6 38 6 50q0 44 -29.5 68.5t-78.5 24.5q-62 0 -110 -46t-60 -116l-51 -287h-85l90 510h80l-13 -75h4zM241 731l1 5h77l44 -64h8l62 64h89l-1 -5l-124 -117h-74z" />
    <glyph glyph-name="Eng" unicode="&#x14a;" horiz-adv-x="707" 
d="M360 -220l15 81q15 -10 37 -10q31 0 48 19.5t24 57.5l14 76l-274 593h-4l-20 -138l-82 -459h-84l127 716h97l265 -570h4l21 138l76 432h85l-140 -789q-14 -77 -57.5 -115t-108.5 -38q-25 0 -43 6z" />
    <glyph glyph-name="eng" unicode="&#x14b;" horiz-adv-x="561" 
d="M234 -218l14 79q6 -4 18.5 -7t22.5 -3q31 0 47.5 18t22.5 53l68 382q6 38 6 52q0 44 -29.5 68.5t-78.5 24.5q-62 0 -110 -46t-60 -116l-51 -287h-85l90 510h80l-13 -75h4q27 41 72 66t103 25q76 0 119.5 -41.5t43.5 -109.5q0 -40 -6 -71l-68 -386q-14 -79 -55 -111.5
t-106 -32.5q-25 0 -49 8z" />
    <glyph glyph-name="Omacron" unicode="&#x14c;" horiz-adv-x="825" 
d="M217.5 25.5q-74.5 41.5 -117.5 115.5t-43 168q0 110 54 207.5t150.5 156.5t218.5 59q90 0 164 -41.5t117 -115.5t43 -168q0 -110 -53.5 -207.5t-150 -156.5t-217.5 -59q-91 0 -165.5 41.5zM555 112.5q75 47.5 118.5 125t43.5 162.5q0 76 -32.5 133t-89 87.5t-125.5 30.5
q-89 0 -163.5 -47.5t-118 -125t-43.5 -162.5q0 -76 32.5 -133t88.5 -87.5t125 -30.5q89 0 164 47.5zM369 876h276l-12 -66h-276z" />
    <glyph glyph-name="omacron" unicode="&#x14d;" horiz-adv-x="595" 
d="M145.5 16q-52.5 32 -81.5 87.5t-29 123.5q0 83 36.5 151t104 108t154.5 40q68 0 120.5 -32t81 -87.5t28.5 -123.5q0 -83 -36.5 -151.5t-104 -108t-154.5 -39.5q-67 0 -119.5 32zM378.5 90.5q45.5 29.5 70.5 79t25 108.5q0 74 -42.5 122.5t-111.5 48.5q-58 0 -103.5 -29.5
t-70.5 -79t-25 -108.5q0 -75 42.5 -123t111.5 -48q58 0 103.5 29.5zM231 712h277l-12 -67h-277z" />
    <glyph glyph-name="Obreve" unicode="&#x14e;" horiz-adv-x="825" 
d="M217.5 25.5q-74.5 41.5 -117.5 115.5t-43 168q0 110 54 207.5t150.5 156.5t218.5 59q90 0 164 -41.5t117 -115.5t43 -168q0 -110 -53.5 -207.5t-150 -156.5t-217.5 -59q-91 0 -165.5 41.5zM555 112.5q75 47.5 118.5 125t43.5 162.5q0 76 -32.5 133t-89 87.5t-125.5 30.5
q-89 0 -163.5 -47.5t-118 -125t-43.5 -162.5q0 -76 32.5 -133t88.5 -87.5t125 -30.5q89 0 164 47.5zM413.5 801.5q-32.5 29.5 -32.5 73.5q0 7 2 21h69q-1 -5 -1 -12q0 -21 12.5 -34.5t36.5 -13.5q26 0 44.5 16t23.5 44h68q-9 -61 -47.5 -92.5t-96.5 -31.5q-46 0 -78.5 29.5z
" />
    <glyph glyph-name="obreve" unicode="&#x14f;" horiz-adv-x="595" 
d="M145.5 16q-52.5 32 -81.5 87.5t-29 123.5q0 83 36.5 151t104 108t154.5 40q68 0 120.5 -32t81 -87.5t28.5 -123.5q0 -83 -36.5 -151.5t-104 -108t-154.5 -39.5q-67 0 -119.5 32zM378.5 90.5q45.5 29.5 70.5 79t25 108.5q0 74 -42.5 122.5t-111.5 48.5q-58 0 -103.5 -29.5
t-70.5 -79t-25 -108.5q0 -75 42.5 -123t111.5 -48q58 0 103.5 29.5zM274.5 636.5q-32.5 29.5 -32.5 74.5q0 7 2 21h69q-1 -5 -1 -12q0 -21 12.5 -35t36.5 -14q26 0 44.5 16.5t23.5 44.5h68q-10 -62 -48 -93.5t-96 -31.5q-46 0 -78.5 29.5z" />
    <glyph glyph-name="Ohungarumlaut" unicode="&#x150;" horiz-adv-x="825" 
d="M217.5 25.5q-74.5 41.5 -117.5 115.5t-43 168q0 110 54 207.5t150.5 156.5t218.5 59q90 0 164 -41.5t117 -115.5t43 -168q0 -110 -53.5 -207.5t-150 -156.5t-217.5 -59q-91 0 -165.5 41.5zM555 112.5q75 47.5 118.5 125t43.5 162.5q0 76 -32.5 133t-89 87.5t-125.5 30.5
q-89 0 -163.5 -47.5t-118 -125t-43.5 -162.5q0 -76 32.5 -133t88.5 -87.5t125 -30.5q89 0 164 47.5zM462 900h95l-93 -127h-77zM589 900h95l-93 -127h-77z" />
    <glyph glyph-name="ohungarumlaut" unicode="&#x151;" horiz-adv-x="595" 
d="M145.5 16q-52.5 32 -81.5 87.5t-29 123.5q0 83 36.5 151t104 108t154.5 40q68 0 120.5 -32t81 -87.5t28.5 -123.5q0 -83 -36.5 -151.5t-104 -108t-154.5 -39.5q-67 0 -119.5 32zM378.5 90.5q45.5 29.5 70.5 79t25 108.5q0 74 -42.5 122.5t-111.5 48.5q-58 0 -103.5 -29.5
t-70.5 -79t-25 -108.5q0 -75 42.5 -123t111.5 -48q58 0 103.5 29.5zM307 736h95l-93 -127h-77zM466 736h95l-93 -127h-77z" />
    <glyph glyph-name="OE" unicode="&#x152;" horiz-adv-x="1166" 
d="M217.5 25.5q-74.5 41.5 -117.5 115.5t-43 168q0 110 54 207.5t151 156.5t219 59q88 0 159.5 -39.5t112.5 -109.5l24 133h414l-14 -81h-330l-42 -237h298l-14 -80h-298l-42 -237h330l-15 -81h-414l18 99q-57 -55 -129 -85t-156 -30q-91 0 -165.5 41.5zM554.5 112.5
q74.5 47.5 118 125t43.5 162.5q0 76 -32.5 133t-88.5 87.5t-125 30.5q-89 0 -164 -47.5t-118 -125t-43 -162.5q0 -76 32.5 -133t88.5 -87.5t125 -30.5q89 0 163.5 47.5z" />
    <glyph glyph-name="oe" unicode="&#x153;" horiz-adv-x="1008" 
d="M147.5 16q-53.5 32 -83 87.5t-29.5 123.5q0 82 37.5 150.5t105.5 108.5t156 40q68 0 121 -32.5t81 -88.5q39 56 98 88.5t132 32.5q65 0 113 -29t73.5 -78t25.5 -108q0 -42 -9 -72h-404q-2 -18 -2 -32q0 -44 20.5 -77.5t54 -51t71.5 -17.5q60 0 100.5 24t68.5 71l65 -37
q-37 -66 -98 -100.5t-141 -34.5q-67 0 -118 31t-79 84q-40 -54 -101.5 -84.5t-136.5 -30.5q-68 0 -121.5 32zM383 90.5q46 29.5 72 79t26 108.5q0 49 -20 88t-55.5 61t-81.5 22q-58 0 -104.5 -29.5t-72.5 -79.5t-26 -108q0 -49 20 -88t55.5 -61t81.5 -22q59 0 105 29.5z
M892 309v14q0 51 -35.5 88.5t-100.5 37.5q-64 0 -111 -39.5t-66 -100.5h313z" />
    <glyph glyph-name="Racute" unicode="&#x154;" horiz-adv-x="586" 
d="M161 716h235q56 0 100 -24t69 -67t25 -99q0 -88 -57.5 -149t-151.5 -79l-3 -3l149 -291l-1 -4h-95l-146 292h-114l-53 -292h-84zM337 371q71 0 118.5 41t47.5 112q0 48 -32.5 79.5t-88.5 31.5h-151l-46 -264h152zM399 900h95l-93 -127h-77z" />
    <glyph glyph-name="racute" unicode="&#x155;" horiz-adv-x="375" 
d="M109 510h80l-13 -76h4q20 42 66.5 66.5t97.5 24.5q36 0 59 -10l-17 -93q-25 17 -69 17q-36 0 -71.5 -21t-60 -56.5t-31.5 -76.5l-50 -285h-85zM307 736h95l-93 -127h-76z" />
    <glyph glyph-name="uni0156" unicode="&#x156;" horiz-adv-x="586" 
d="M161 716h235q56 0 100 -24t69 -67t25 -99q0 -88 -57.5 -149t-151.5 -79l-3 -3l149 -291l-1 -4h-95l-146 292h-114l-53 -292h-84zM337 371q71 0 118.5 41t47.5 112q0 48 -32.5 79.5t-88.5 31.5h-151l-46 -264h152zM239 -155q-18 4 -29 18.5t-11 33.5q0 21 16 38t40 17
q25 0 40.5 -16.5t15.5 -40.5q0 -30 -18 -51l-71 -86l-34 29z" />
    <glyph glyph-name="uni0157" unicode="&#x157;" horiz-adv-x="375" 
d="M109 510h80l-13 -76h4q20 42 66.5 66.5t97.5 24.5q36 0 59 -10l-17 -93q-25 17 -69 17q-36 0 -71.5 -21t-60 -56.5t-31.5 -76.5l-50 -285h-85zM27 -155q-18 4 -29 18.5t-11 33.5q0 21 16 38t40 17q25 0 40.5 -16.5t15.5 -40.5q0 -30 -18 -51l-71 -86l-34 29z" />
    <glyph glyph-name="Rcaron" unicode="&#x158;" horiz-adv-x="586" 
d="M161 716h235q56 0 100 -24t69 -67t25 -99q0 -88 -57.5 -149t-151.5 -79l-3 -3l149 -291l-1 -4h-95l-146 292h-114l-53 -292h-84zM337 371q71 0 118.5 41t47.5 112q0 48 -32.5 79.5t-88.5 31.5h-151l-46 -264h152zM248 895l1 5h77l43 -63h8l63 63h88l-1 -5l-123 -116h-75z
" />
    <glyph glyph-name="rcaron" unicode="&#x159;" horiz-adv-x="375" 
d="M109 510h80l-13 -76h4q20 42 66.5 66.5t97.5 24.5q36 0 59 -10l-17 -93q-25 17 -69 17q-36 0 -71.5 -21t-60 -56.5t-31.5 -76.5l-50 -285h-85zM157 731l1 5h77l44 -64h8l62 64h89l-1 -5l-124 -117h-74z" />
    <glyph glyph-name="Sacute" unicode="&#x15a;" horiz-adv-x="564" 
d="M99 35.5q-62 51.5 -76 142.5l81 33q8 -65 48 -105.5t107 -40.5q41 0 78.5 17.5t61 49.5t23.5 74q0 45 -30.5 74.5t-98.5 54.5l-43 16q-63 24 -103 67t-40 111q0 58 32.5 104t87 72.5t118.5 26.5q65 0 110 -23.5t68.5 -57.5t28.5 -67l-82 -30q-7 38 -38 67.5t-93 29.5
q-61 0 -102.5 -31.5t-41.5 -83.5q0 -41 28 -68t83 -48l43 -16q161 -60 161 -186q0 -70 -34 -123t-93.5 -82t-133.5 -29q-88 0 -150 51.5zM392 900h95l-93 -127h-77z" />
    <glyph glyph-name="sacute" unicode="&#x15b;" horiz-adv-x="468" 
d="M75 23q-53 39 -70 101l81 32q10 -46 47 -71.5t84 -25.5q49 0 80.5 23t31.5 58q0 31 -21 51.5t-65 31.5l-51 13q-61 16 -96.5 50t-35.5 86q0 43 25.5 78.5t71.5 55.5t103 20q68 0 119.5 -32t68.5 -84l-81 -31q-12 32 -41.5 51.5t-70.5 19.5q-48 0 -77.5 -20t-29.5 -52
q0 -22 19 -41t55 -28l66 -17q60 -15 94.5 -52t34.5 -90q0 -75 -55.5 -120.5t-152.5 -45.5q-81 0 -134 39zM316 736h95l-93 -127h-76z" />
    <glyph glyph-name="Scircumflex" unicode="&#x15c;" horiz-adv-x="564" 
d="M99 35.5q-62 51.5 -76 142.5l81 33q8 -65 48 -105.5t107 -40.5q41 0 78.5 17.5t61 49.5t23.5 74q0 45 -30.5 74.5t-98.5 54.5l-43 16q-63 24 -103 67t-40 111q0 58 32.5 104t87 72.5t118.5 26.5q65 0 110 -23.5t68.5 -57.5t28.5 -67l-82 -30q-7 38 -38 67.5t-93 29.5
q-61 0 -102.5 -31.5t-41.5 -83.5q0 -41 28 -68t83 -48l43 -16q161 -60 161 -186q0 -70 -34 -123t-93.5 -82t-133.5 -29q-88 0 -150 51.5zM213 784l123 116h75l81 -116l-1 -5h-76l-44 63h-8l-63 -63h-88z" />
    <glyph glyph-name="scircumflex" unicode="&#x15d;" horiz-adv-x="468" 
d="M75 23q-53 39 -70 101l81 32q10 -46 47 -71.5t84 -25.5q49 0 80.5 23t31.5 58q0 31 -21 51.5t-65 31.5l-51 13q-61 16 -96.5 50t-35.5 86q0 43 25.5 78.5t71.5 55.5t103 20q68 0 119.5 -32t68.5 -84l-81 -31q-12 32 -41.5 51.5t-70.5 19.5q-48 0 -77.5 -20t-29.5 -52
q0 -22 19 -41t55 -28l66 -17q60 -15 94.5 -52t34.5 -90q0 -75 -55.5 -120.5t-152.5 -45.5q-81 0 -134 39zM139 619l123 117h74l82 -117l-1 -5h-77l-43 64h-9l-62 -64h-88z" />
    <glyph glyph-name="Scedilla" unicode="&#x15e;" horiz-adv-x="564" 
d="M510 218q0 -70 -34 -123t-93.5 -82t-133.5 -29h-6l-20 -33q15 3 22 3q34 0 55 -24.5t21 -63.5q0 -45 -30.5 -74t-80.5 -29q-33 0 -58.5 19.5t-31.5 47.5l53 22q2 -15 13.5 -25.5t27.5 -10.5q21 0 35.5 13.5t14.5 36.5q0 16 -11 27t-28 11q-19 0 -36 -17l-41 20l45 83
q-67 15 -112.5 64t-57.5 124l81 33q8 -65 48 -105.5t107 -40.5q41 0 78.5 17.5t61 49.5t23.5 74q0 45 -30.5 74.5t-98.5 54.5l-43 16q-63 24 -103 67t-40 111q0 58 32.5 104t87 72.5t118.5 26.5q65 0 110 -23.5t68.5 -57.5t28.5 -67l-82 -30q-7 38 -38 67.5t-93 29.5
q-61 0 -102.5 -31.5t-41.5 -83.5q0 -41 28 -68t83 -48l43 -16q161 -60 161 -186z" />
    <glyph glyph-name="scedilla" unicode="&#x15f;" horiz-adv-x="468" 
d="M382.5 240q34.5 -37 34.5 -90q0 -75 -55.5 -120.5t-152.5 -45.5h-3l-20 -33q15 3 22 3q34 0 55 -24.5t21 -63.5q0 -45 -30.5 -74t-80.5 -29q-33 0 -58.5 19.5t-31.5 47.5l53 22q2 -15 13.5 -25.5t27.5 -10.5q21 0 35.5 13.5t14.5 36.5q0 16 -11 27t-28 11q-19 0 -36 -17
l-41 20l45 82q-59 12 -98 48t-53 87l81 32q10 -46 47 -71.5t84 -25.5q49 0 80.5 23t31.5 58q0 31 -21 51.5t-65 31.5l-51 13q-61 16 -96.5 50t-35.5 86q0 43 25.5 78.5t71.5 55.5t103 20q68 0 119.5 -32t68.5 -84l-81 -31q-12 32 -41.5 51.5t-70.5 19.5q-48 0 -77.5 -20
t-29.5 -52q0 -22 19 -41t55 -28l66 -17q60 -15 94.5 -52z" />
    <glyph glyph-name="Scaron" unicode="&#x160;" horiz-adv-x="564" 
d="M99 35.5q-62 51.5 -76 142.5l81 33q8 -65 48 -105.5t107 -40.5q41 0 78.5 17.5t61 49.5t23.5 74q0 45 -30.5 74.5t-98.5 54.5l-43 16q-63 24 -103 67t-40 111q0 58 32.5 104t87 72.5t118.5 26.5q65 0 110 -23.5t68.5 -57.5t28.5 -67l-82 -30q-7 38 -38 67.5t-93 29.5
q-61 0 -102.5 -31.5t-41.5 -83.5q0 -41 28 -68t83 -48l43 -16q161 -60 161 -186q0 -70 -34 -123t-93.5 -82t-133.5 -29q-88 0 -150 51.5zM241 895l1 5h77l43 -63h8l63 63h88l-1 -5l-123 -116h-75z" />
    <glyph glyph-name="scaron" unicode="&#x161;" horiz-adv-x="468" 
d="M75 23q-53 39 -70 101l81 32q10 -46 47 -71.5t84 -25.5q49 0 80.5 23t31.5 58q0 31 -21 51.5t-65 31.5l-51 13q-61 16 -96.5 50t-35.5 86q0 43 25.5 78.5t71.5 55.5t103 20q68 0 119.5 -32t68.5 -84l-81 -31q-12 32 -41.5 51.5t-70.5 19.5q-48 0 -77.5 -20t-29.5 -52
q0 -22 19 -41t55 -28l66 -17q60 -15 94.5 -52t34.5 -90q0 -75 -55.5 -120.5t-152.5 -45.5q-81 0 -134 39zM166 731l1 5h77l44 -64h8l62 64h89l-1 -5l-124 -117h-74z" />
    <glyph glyph-name="uni0162" unicode="&#x162;" horiz-adv-x="538" 
d="M150.5 -217.5q-25.5 19.5 -31.5 47.5l53 22q2 -15 13.5 -25.5t27.5 -10.5q20 0 34.5 13.5t14.5 36.5q0 16 -10.5 27t-27.5 11q-19 0 -36 -17l-41 20l51 93h-17l112 635h-201l15 81h486l-15 -81h-200l-113 -635h-14l-30 -49q18 3 23 3q34 0 55 -24.5t21 -63.5
q0 -45 -30.5 -74t-80.5 -29q-33 0 -58.5 19.5z" />
    <glyph glyph-name="uni0163" unicode="&#x163;" horiz-adv-x="366" 
d="M91.5 -217.5q-25.5 19.5 -32.5 47.5l53 22q3 -15 14.5 -25.5t27.5 -10.5q20 0 34.5 13.5t14.5 36.5q0 16 -10.5 27t-27.5 11q-20 0 -37 -17l-40 20l55 103q-23 14 -36 38t-13 55q0 22 5 49l50 281h-90l14 77h89l26 144h85l-26 -144h125l-14 -77h-125l-48 -272
q-4 -20 -4 -38q0 -22 14.5 -37t38.5 -15q17 0 28.5 3.5t22.5 10.5l15 -75q-20 -9 -40 -13.5t-47 -4.5q-9 0 -25 2l-26 -43q18 3 23 3q34 0 55 -24.5t21 -63.5q0 -45 -30.5 -74t-80.5 -29q-33 0 -58.5 19.5z" />
    <glyph glyph-name="Tcaron" unicode="&#x164;" horiz-adv-x="538" 
d="M293 635h-201l15 81h486l-15 -81h-200l-113 -635h-84zM236 895l1 5h77l43 -63h8l63 63h88l-1 -5l-123 -116h-75z" />
    <glyph glyph-name="tcaron" unicode="&#x165;" horiz-adv-x="349" 
d="M355 716h85l-49 -142h-62zM127 22.5q-33 30.5 -33 80.5q0 23 5 49l50 281h-90l14 77h89l26 144h84l-25 -144h125l-14 -77h-125l-48 -271q-4 -23 -4 -39q0 -25 15.5 -38.5t41.5 -13.5q32 0 61 17l-14 -83q-32 -13 -72 -13q-53 0 -86 30.5z" />
    <glyph glyph-name="Tbar" unicode="&#x166;" horiz-adv-x="538" 
d="M240 341h-129l12 66h129l41 228h-201l15 81h486l-15 -81h-200l-41 -228h131l-12 -66h-131l-60 -341h-84z" />
    <glyph glyph-name="tbar" unicode="&#x167;" horiz-adv-x="366" 
d="M128 22.5q-33 30.5 -33 80.5q0 23 5 49l15 82h-87l14 77h86l22 122h-90l14 77h89l26 144h84l-25 -144h124l-13 -77h-125l-21 -122h121l-14 -77h-121l-13 -72q-5 -28 -5 -39q0 -24 15.5 -38t41.5 -14q33 0 62 17l-15 -83q-31 -13 -71 -13q-53 0 -86 30.5z" />
    <glyph glyph-name="Utilde" unicode="&#x168;" horiz-adv-x="661" 
d="M175 10.5q-50 26.5 -79.5 75t-29.5 113.5q0 44 8 94l75 423h84l-78 -443q-6 -35 -6 -61q0 -68 38 -107.5t112 -39.5q85 0 140.5 54.5t71.5 141.5l80 455h84l-82 -466q-22 -125 -101.5 -195.5t-206.5 -70.5q-60 0 -110 26.5zM459 786q-15 6 -34 18q-18 11 -31.5 17
t-29.5 6q-33 0 -42 -37h-70q8 56 38 85t74 29q17 0 32.5 -6t34.5 -18q18 -11 31.5 -17t28.5 -6q33 0 42 37h70q-7 -56 -37.5 -85t-74.5 -29q-17 0 -32 6z" />
    <glyph glyph-name="utilde" unicode="&#x169;" horiz-adv-x="561" 
d="M382 74q-27 -41 -72 -65.5t-103 -24.5q-76 0 -120 41.5t-44 109.5q0 33 7 71l54 304h84l-54 -306q-5 -25 -5 -50q0 -44 29.5 -68.5t77.5 -24.5q62 0 110 45.5t61 115.5l51 288h84l-89 -510h-81l14 74h-4zM384 622q-15 6 -34 18q-18 11 -31.5 17t-29.5 6q-33 0 -42 -37
h-70q7 56 37 84.5t74 28.5q17 0 31 -6t36 -18q18 -11 31.5 -17t29.5 -6q32 0 41 37h71q-8 -56 -38 -84.5t-74 -28.5q-17 0 -32 6z" />
    <glyph glyph-name="Umacron" unicode="&#x16a;" horiz-adv-x="661" 
d="M175 10.5q-50 26.5 -79.5 75t-29.5 113.5q0 44 8 94l75 423h84l-78 -443q-6 -35 -6 -61q0 -68 38 -107.5t112 -39.5q85 0 140.5 54.5t71.5 141.5l80 455h84l-82 -466q-22 -125 -101.5 -195.5t-206.5 -70.5q-60 0 -110 26.5zM295 876h276l-12 -66h-276z" />
    <glyph glyph-name="umacron" unicode="&#x16b;" horiz-adv-x="561" 
d="M382 74q-27 -41 -72 -65.5t-103 -24.5q-76 0 -120 41.5t-44 109.5q0 33 7 71l54 304h84l-54 -306q-5 -25 -5 -50q0 -44 29.5 -68.5t77.5 -24.5q62 0 110 45.5t61 115.5l51 288h84l-89 -510h-81l14 74h-4zM220 712h277l-12 -67h-277z" />
    <glyph glyph-name="Ubreve" unicode="&#x16c;" horiz-adv-x="661" 
d="M175 10.5q-50 26.5 -79.5 75t-29.5 113.5q0 44 8 94l75 423h84l-78 -443q-6 -35 -6 -61q0 -68 38 -107.5t112 -39.5q85 0 140.5 54.5t71.5 141.5l80 455h84l-82 -466q-22 -125 -101.5 -195.5t-206.5 -70.5q-60 0 -110 26.5zM339.5 801.5q-32.5 29.5 -32.5 73.5q0 7 2 21
h69q-1 -5 -1 -12q0 -21 12.5 -34.5t36.5 -13.5q26 0 44.5 16t23.5 44h68q-9 -61 -47.5 -92.5t-96.5 -31.5q-46 0 -78.5 29.5z" />
    <glyph glyph-name="ubreve" unicode="&#x16d;" horiz-adv-x="561" 
d="M382 74q-27 -41 -72 -65.5t-103 -24.5q-76 0 -120 41.5t-44 109.5q0 33 7 71l54 304h84l-54 -306q-5 -25 -5 -50q0 -44 29.5 -68.5t77.5 -24.5q62 0 110 45.5t61 115.5l51 288h84l-89 -510h-81l14 74h-4zM263.5 636.5q-32.5 29.5 -32.5 74.5q0 7 2 21h69q-1 -5 -1 -12
q0 -21 12.5 -35t36.5 -14q26 0 44.5 16.5t23.5 44.5h68q-10 -62 -48 -93.5t-96 -31.5q-46 0 -78.5 29.5z" />
    <glyph glyph-name="Uring" unicode="&#x16e;" horiz-adv-x="661" 
d="M175 10.5q-50 26.5 -79.5 75t-29.5 113.5q0 44 8 94l75 423h84l-78 -443q-6 -35 -6 -61q0 -68 38 -107.5t112 -39.5q85 0 140.5 54.5t71.5 141.5l80 455h84l-82 -466q-22 -125 -101.5 -195.5t-206.5 -70.5q-60 0 -110 26.5zM357 783q-30 30 -30 73q0 44 30 73.5t73 29.5
t73.5 -30t30.5 -73t-30.5 -73t-73.5 -30t-73 30zM463 822q14 14 14 34t-13.5 33.5t-33.5 13.5q-19 0 -33 -14t-14 -33t14 -33.5t33 -14.5t33 14z" />
    <glyph glyph-name="uring" unicode="&#x16f;" horiz-adv-x="561" 
d="M382 74q-27 -41 -72 -65.5t-103 -24.5q-76 0 -120 41.5t-44 109.5q0 33 7 71l54 304h84l-54 -306q-5 -25 -5 -50q0 -44 29.5 -68.5t77.5 -24.5q62 0 110 45.5t61 115.5l51 288h84l-89 -510h-81l14 74h-4zM281.5 618.5q-30.5 30.5 -30.5 73.5t30.5 73t73.5 30t73 -30
t30 -73t-30 -73.5t-73 -30.5t-73.5 30.5zM388 658q14 14 14 34q0 19 -14 33t-33 14q-20 0 -33.5 -13.5t-13.5 -33.5t13.5 -34t33.5 -14q19 0 33 14z" />
    <glyph glyph-name="Uhungarumlaut" unicode="&#x170;" horiz-adv-x="661" 
d="M175 10.5q-50 26.5 -79.5 75t-29.5 113.5q0 44 8 94l75 423h84l-78 -443q-6 -35 -6 -61q0 -68 38 -107.5t112 -39.5q85 0 140.5 54.5t71.5 141.5l80 455h84l-82 -466q-22 -125 -101.5 -195.5t-206.5 -70.5q-60 0 -110 26.5zM388 900h95l-93 -127h-77zM515 900h95
l-93 -127h-77z" />
    <glyph glyph-name="uhungarumlaut" unicode="&#x171;" horiz-adv-x="561" 
d="M382 74q-27 -41 -72 -65.5t-103 -24.5q-76 0 -120 41.5t-44 109.5q0 33 7 71l54 304h84l-54 -306q-5 -25 -5 -50q0 -44 29.5 -68.5t77.5 -24.5q62 0 110 45.5t61 115.5l51 288h84l-89 -510h-81l14 74h-4zM296 736h95l-93 -127h-77zM455 736h95l-93 -127h-77z" />
    <glyph glyph-name="Uogonek" unicode="&#x172;" horiz-adv-x="661" 
d="M253 -197.5q-29 26.5 -29 65.5q0 34 16.5 63.5t46.5 52.5h-6q-59 1 -108 27.5t-78 75t-29 112.5q0 44 8 94l75 423h84l-78 -443q-6 -35 -6 -61q0 -68 38 -107.5t112 -39.5q85 0 140.5 54.5t71.5 141.5l80 455h84l-82 -466q-17 -93 -64 -154.5t-114 -86.5
q-51 -20 -81.5 -53t-30.5 -70q0 -19 11 -29.5t29 -10.5q12 0 20.5 2t21.5 7l-12 -72q-11 -4 -20.5 -5.5t-26.5 -1.5q-44 0 -73 26.5z" />
    <glyph glyph-name="uogonek" unicode="&#x173;" horiz-adv-x="561" 
d="M312 -197.5q-29 26.5 -29 65.5q0 81 90 133l13 73h-4q-27 -41 -72 -65.5t-103 -24.5q-76 0 -120 41.5t-44 109.5q0 33 7 71l54 304h84l-54 -306q-5 -25 -5 -50q0 -44 29.5 -68.5t77.5 -24.5q63 0 111 46t60 115l51 288h84l-89 -510q-35 -20 -63 -51.5t-28 -62.5
q0 -19 11 -29.5t29 -10.5q12 0 20.5 2t21.5 7l-12 -72q-11 -4 -20.5 -5.5t-26.5 -1.5q-44 0 -73 26.5z" />
    <glyph glyph-name="Wcircumflex" unicode="&#x174;" horiz-adv-x="944" 
d="M99 716h91l38 -526l4 -49h4l23 49l252 526h88l61 -526l6 -49h4l20 49l223 526h95l-316 -716h-88l-65 518l-7 56h-4l-26 -56l-248 -518h-89zM420 784l123 116h75l81 -116l-1 -5h-76l-44 63h-8l-63 -63h-88z" />
    <glyph glyph-name="wcircumflex" unicode="&#x175;" horiz-adv-x="778" 
d="M52 510h86l48 -403h1l200 403h90l59 -402h1l190 402h89l-254 -510h-89l-58 407l-203 -407h-86zM303 619l123 117h74l82 -117l-1 -5h-77l-43 64h-9l-62 -64h-88z" />
    <glyph glyph-name="Ycircumflex" unicode="&#x176;" horiz-adv-x="595" 
d="M270 331l-174 385h97l130 -300h4l233 300h102l-307 -385l-59 -331h-84zM234 784l123 116h75l81 -116l-1 -5h-76l-44 63h-8l-63 -63h-88z" />
    <glyph glyph-name="ycircumflex" unicode="&#x177;" horiz-adv-x="516" 
d="M179 33l-127 477h89l95 -379h2l222 379h94l-444 -726h-90zM169 619l123 117h74l82 -117l-1 -5h-77l-43 64h-9l-62 -64h-88z" />
    <glyph glyph-name="Ydieresis" unicode="&#x178;" horiz-adv-x="595" 
d="M270 331l-174 385h97l130 -300h4l233 300h102l-307 -385l-59 -331h-84zM268.5 805.5q-16.5 16.5 -16.5 37.5q0 23 16 38.5t38 15.5q23 0 38.5 -15.5t15.5 -38.5q0 -22 -15.5 -38t-38.5 -16q-21 0 -37.5 16.5zM433 805.5q-16 16.5 -16 37.5q0 23 16 38.5t37 15.5
q23 0 38.5 -15.5t15.5 -38.5q0 -22 -15.5 -38t-38.5 -16q-21 0 -37 16.5z" />
    <glyph glyph-name="Zacute" unicode="&#x179;" horiz-adv-x="571" 
d="M9 89l479 546h-367l14 81h468l-16 -89l-480 -546h388l-15 -81h-487zM403 900h95l-93 -127h-77z" />
    <glyph glyph-name="zacute" unicode="&#x17a;" horiz-adv-x="481" 
d="M366 433h-290l14 77h397l-13 -73l-362 -360h301l-14 -77h-406l12 73zM330 736h95l-93 -127h-76z" />
    <glyph glyph-name="Zdotaccent" unicode="&#x17b;" horiz-adv-x="571" 
d="M9 89l479 546h-367l14 81h468l-16 -89l-480 -546h388l-15 -81h-487zM346 822q-15 15 -15 34q0 21 15 35t35 14q21 0 35 -14t14 -35q0 -20 -14 -34.5t-35 -14.5q-20 0 -35 15z" />
    <glyph glyph-name="zdotaccent" unicode="&#x17c;" horiz-adv-x="481" 
d="M366 433h-290l14 77h397l-13 -73l-362 -360h301l-14 -77h-406l12 73zM270 641q-16 16 -16 38q0 23 15.5 38t37.5 15q23 0 38.5 -15t15.5 -38q0 -22 -15.5 -38t-38.5 -16q-21 0 -37 16z" />
    <glyph glyph-name="Zcaron" unicode="&#x17d;" horiz-adv-x="571" 
d="M9 89l479 546h-367l14 81h468l-16 -89l-480 -546h388l-15 -81h-487zM252 895l1 5h77l43 -63h8l63 63h88l-1 -5l-123 -116h-75z" />
    <glyph glyph-name="zcaron" unicode="&#x17e;" horiz-adv-x="481" 
d="M366 433h-290l14 77h397l-13 -73l-362 -360h301l-14 -77h-406l12 73zM180 731l1 5h77l44 -64h8l62 64h89l-1 -5l-124 -117h-74z" />
    <glyph glyph-name="florin" unicode="&#x192;" horiz-adv-x="556" 
d="M426 626q-22 -17 -29 -49l-35 -174h130v-78h-145l-82 -412q-12 -59 -53 -96t-101 -37q-31 0 -60 10v82q33 -15 61 -15t47.5 18.5t26.5 50.5l79 399h-106v78h121l37 185q11 59 55.5 95.5t107.5 36.5q21 0 32.5 -2t26.5 -7v-83q-26 15 -59 15q-32 0 -54 -17z" />
    <glyph glyph-name="Ohorn" unicode="&#x1a0;" horiz-adv-x="825" 
d="M217.5 25.5q-74.5 41.5 -117.5 115.5t-43 168q0 110 54 207.5t150.5 156.5t218.5 59q48 0 108 -7q31 -3 68.5 -6t81.5 -3q39 0 53 8.5t18 31.5l12 68h68l-12 -68q-11 -59 -37 -81.5t-86 -22.5q-29 0 -51 5l-1 -4q49 -47 75.5 -110.5t26.5 -135.5q0 -110 -53.5 -207.5
t-150 -156.5t-217.5 -59q-91 0 -165.5 41.5zM555 112.5q75 47.5 118.5 125t43.5 162.5q0 76 -32.5 133t-89 87.5t-125.5 30.5q-89 0 -163.5 -47.5t-118 -125t-43.5 -162.5q0 -76 32.5 -133t88.5 -87.5t125 -30.5q89 0 164 47.5z" />
    <glyph glyph-name="ohorn" unicode="&#x1a1;" horiz-adv-x="595" 
d="M145.5 16q-52.5 32 -81.5 87.5t-29 123.5q0 83 36.5 151t104 108t154.5 40q24 0 66 -7q67 -9 106 -9q26 0 39.5 9.5t17.5 30.5l12 68h68l-15 -85q-7 -39 -29.5 -60t-53.5 -21q-26 0 -44 4l-1 -5q64 -73 64 -168q0 -83 -36.5 -151.5t-104 -108t-154.5 -39.5
q-67 0 -119.5 32zM378.5 90.5q45.5 29.5 70.5 79t25 108.5q0 74 -42.5 122.5t-111.5 48.5q-58 0 -103.5 -29.5t-70.5 -79t-25 -108.5q0 -75 42.5 -123t111.5 -48q58 0 103.5 29.5z" />
    <glyph glyph-name="Uhorn" unicode="&#x1af;" horiz-adv-x="681" 
d="M175 10.5q-50 26.5 -79.5 75t-29.5 113.5q0 44 8 94l75 423h84l-78 -443q-6 -35 -6 -61q0 -68 38 -107.5t112 -39.5q85 0 140.5 54.5t71.5 141.5l80 455h95q20 0 30 9t14 31l12 68h68l-12 -68q-11 -59 -37 -81.5t-86 -22.5h-11l-71 -402q-22 -125 -101.5 -195.5
t-206.5 -70.5q-60 0 -110 26.5z" />
    <glyph glyph-name="uhorn" unicode="&#x1b0;" horiz-adv-x="601" 
d="M87 25.5q-44 41.5 -44 109.5q0 33 7 71l54 304h84l-54 -306q-5 -25 -5 -50q0 -44 29.5 -68.5t77.5 -24.5q62 0 110 45.5t61 115.5l51 288h95q19 0 29.5 9.5t14.5 30.5l12 68h68l-12 -68q-10 -56 -37.5 -80t-85.5 -24h-11l-78 -446h-81l14 74h-4q-27 -41 -72 -65.5
t-103 -24.5q-76 0 -120 41.5z" />
    <glyph glyph-name="uni01CD" unicode="&#x1cd;" horiz-adv-x="669" 
d="M367 716h96l145 -716h-90l-36 197h-309l-108 -197h-95zM466 277l-50 258l-14 77h-4l-183 -335h251zM308 895l1 5h77l43 -63h8l63 63h88l-1 -5l-123 -116h-75z" />
    <glyph glyph-name="Aringacute" unicode="&#x1fa;" horiz-adv-x="669" 
d="M347 680q-15 15 -24 34.5t-9 41.5q0 40 26 69t66 34l2 -1l44 74h86l-63 -90q21 -14 33.5 -37t12.5 -49t-13 -49.5t-35 -37.5l135 -669h-90l-36 197h-309l-108 -197h-95zM448 725q13 13 13 31t-13 31t-31 13t-30.5 -13t-12.5 -31t12.5 -31t30.5 -13t31 13zM466 277
l-50 258l-14 75h-5l-182 -333h251z" />
    <glyph glyph-name="aringacute" unicode="&#x1fb;" horiz-adv-x="528" 
d="M358 920h95l-78 -106h-75zM249 619q-30 30 -30 73q0 44 30 73.5t73 29.5t73.5 -30t30.5 -73t-30.5 -73t-73.5 -30t-73 30zM355 658q14 14 14 34t-13.5 33.5t-33.5 13.5q-19 0 -33 -14t-14 -33t14 -33.5t33 -14.5t33 14zM104.5 4.5q-38.5 20.5 -61 56t-22.5 79.5
q0 85 62.5 135.5t171.5 50.5q40 0 78.5 -9.5t68.5 -25.5l6 30q3 17 3 29q0 45 -35.5 72.5t-89.5 27.5q-83 0 -137 -68l-66 47q36 46 91 71.5t121 25.5q92 0 144.5 -44.5t52.5 -119.5q0 -21 -5 -51l-56 -311h-81l13 72h-4q-27 -40 -71 -64t-100 -24q-45 0 -83.5 20.5z
M327 104.5q51 45.5 63 116.5q-31 18 -62 27t-78 9q-63 0 -102.5 -29.5t-39.5 -81.5q0 -40 28.5 -63.5t70.5 -23.5q69 0 120 45.5z" />
    <glyph glyph-name="AEacute" unicode="&#x1fc;" horiz-adv-x="959" 
d="M487 716h469l-14 -81h-330l-42 -237h298l-14 -80h-298l-42 -237h330l-15 -81h-414l35 197h-262l-152 -197h-102zM464 277l63 358h-4l-38 -50l-237 -308h216zM768 900h95l-93 -127h-77z" />
    <glyph glyph-name="aeacute" unicode="&#x1fd;" horiz-adv-x="921" 
d="M104.5 4.5q-38.5 20.5 -61 56t-22.5 79.5q0 91 67 138.5t174 47.5q45 0 82.5 -10t58.5 -23l6 31q3 21 3 23q0 47 -33.5 75t-88.5 28q-43 0 -79 -17.5t-57 -50.5l-70 41q31 49 85.5 76t126.5 27q64 0 111 -26.5t67 -69.5q36 46 89 71t116 25q66 0 114 -29t73 -78t25 -108
q0 -42 -9 -72h-403q-2 -18 -2 -32q0 -44 20.5 -77.5t53.5 -51t71 -17.5q60 0 100.5 24t69.5 71l65 -37q-38 -66 -99 -100.5t-141 -34.5q-71 0 -123.5 37t-74.5 92q-40 -64 -100 -96.5t-131 -32.5q-45 0 -83.5 20.5zM806 309v14q0 32 -15.5 61t-46.5 47t-75 18
q-63 0 -110.5 -39.5t-66.5 -100.5h314zM327 104.5q51 45.5 63 116.5q-64 36 -140 36q-63 0 -102.5 -29.5t-39.5 -81.5q0 -40 28.5 -63.5t70.5 -23.5q69 0 120 45.5zM535 736h95l-93 -127h-76z" />
    <glyph glyph-name="Oslashacute" unicode="&#x1fe;" horiz-adv-x="825" 
d="M101 5l53 66q-46 45 -71.5 105.5t-25.5 132.5q0 110 54 207.5t150.5 156.5t218.5 59q91 0 168 -44l54 68l58 -45l-54 -66q47 -44 72.5 -105t25.5 -133q0 -110 -53.5 -207.5t-150 -156.5t-217.5 -59q-93 0 -170 44l-53 -67zM594 620q-57 31 -124 31q-89 0 -163.5 -47.5
t-118 -125t-43.5 -162.5q0 -110 64 -177zM555 112.5q75 47.5 118.5 125t43.5 162.5q0 107 -65 177l-385 -482q58 -30 124 -30q89 0 164 47.5zM526 900h95l-93 -127h-77z" />
    <glyph glyph-name="oslashacute" unicode="&#x1ff;" horiz-adv-x="583" 
d="M59 8l34 43q-33 33 -50.5 78.5t-17.5 97.5q0 82 37.5 150.5t106 108.5t155.5 40q65 0 117 -30l38 48l53 -41l-39 -49q31 -33 48 -77t17 -94q0 -83 -37.5 -151t-106 -108t-155.5 -40q-61 0 -113 27l-33 -43zM389 429q-32 20 -75 20q-58 0 -104.5 -29.5t-72.5 -79.5
t-26 -108q0 -64 35 -112zM373 90.5q46 29.5 72 79t26 108.5q0 62 -31 107l-242 -308q34 -16 71 -16q58 0 104 29.5zM379 736h95l-93 -127h-76z" />
    <glyph glyph-name="uni0218" unicode="&#x218;" horiz-adv-x="564" 
d="M99 35.5q-62 51.5 -76 142.5l81 33q8 -65 48 -105.5t107 -40.5q41 0 78.5 17.5t61 49.5t23.5 74q0 45 -30.5 74.5t-98.5 54.5l-43 16q-63 24 -103 67t-40 111q0 58 32.5 104t87 72.5t118.5 26.5q65 0 110 -23.5t68.5 -57.5t28.5 -67l-82 -30q-7 38 -38 67.5t-93 29.5
q-61 0 -102.5 -31.5t-41.5 -83.5q0 -41 28 -68t83 -48l43 -16q161 -60 161 -186q0 -70 -34 -123t-93.5 -82t-133.5 -29q-88 0 -150 51.5zM192 -155q-18 4 -29 18.5t-11 33.5q0 21 16 38t40 17q25 0 40.5 -16.5t15.5 -40.5q0 -30 -18 -51l-71 -86l-34 29z" />
    <glyph glyph-name="uni0219" unicode="&#x219;" horiz-adv-x="468" 
d="M75 23q-53 39 -70 101l81 32q10 -46 47 -71.5t84 -25.5q49 0 80.5 23t31.5 58q0 31 -21 51.5t-65 31.5l-51 13q-61 16 -96.5 50t-35.5 86q0 43 25.5 78.5t71.5 55.5t103 20q68 0 119.5 -32t68.5 -84l-81 -31q-12 32 -41.5 51.5t-70.5 19.5q-48 0 -77.5 -20t-29.5 -52
q0 -22 19 -41t55 -28l66 -17q60 -15 94.5 -52t34.5 -90q0 -75 -55.5 -120.5t-152.5 -45.5q-81 0 -134 39zM155 -155q-18 4 -29 18.5t-11 33.5q0 21 16 38t40 17q25 0 40.5 -16.5t15.5 -40.5q0 -30 -18 -51l-71 -86l-34 29z" />
    <glyph glyph-name="uni021A" unicode="&#x21a;" horiz-adv-x="538" 
d="M293 635h-201l15 81h486l-15 -81h-200l-113 -635h-84zM187 -155q-18 4 -29 18.5t-11 33.5q0 21 16 38t40 17q25 0 40.5 -16.5t15.5 -40.5q0 -30 -18 -51l-71 -86l-34 29z" />
    <glyph glyph-name="uni021B" unicode="&#x21b;" horiz-adv-x="366" 
d="M127 22.5q-33 30.5 -33 80.5q0 23 5 49l50 281h-90l14 77h89l26 144h84l-25 -144h125l-14 -77h-125l-48 -271q-4 -23 -4 -39q0 -25 15.5 -38.5t41.5 -13.5q32 0 61 17l-14 -83q-32 -13 -72 -13q-53 0 -86 30.5zM157 -155q-18 4 -29 18.5t-11 33.5q0 21 16 38t40 17
q25 0 40.5 -16.5t15.5 -40.5q0 -30 -18 -51l-71 -86l-34 29z" />
    <glyph glyph-name="uni0237" unicode="&#x237;" horiz-adv-x="230" 
d="M-114 -218l14 79q7 -4 19.5 -7t22.5 -3q58 0 70 71l104 588h85l-105 -592q-14 -79 -54.5 -111.5t-105.5 -32.5q-24 0 -50 8z" />
    <glyph glyph-name="uni0259" unicode="&#x259;" horiz-adv-x="565" 
d="M128 13q-48 29 -73 78t-25 108q0 42 9 72h404q2 16 2 32q0 44 -20.5 77.5t-53.5 51t-71 17.5q-59 0 -100.5 -24.5t-69.5 -71.5l-65 37q37 67 98 101.5t141 34.5q69 0 120.5 -31.5t79.5 -85t28 -117.5q0 -80 -36.5 -151t-102.5 -114t-151 -43q-66 0 -114 29zM363.5 101
q47.5 40 66.5 100h-314v-14q0 -51 35.5 -88.5t100.5 -37.5q64 0 111.5 40z" />
    <glyph glyph-name="circumflex" unicode="&#x2c6;" horiz-adv-x="395" 
d="M99 600l123 116h75l81 -116l-1 -5h-76l-44 63h-8l-63 -63h-88z" />
    <glyph glyph-name="caron" unicode="&#x2c7;" horiz-adv-x="395" 
d="M120 711l1 5h77l43 -63h8l63 63h88l-1 -5l-123 -116h-75z" />
    <glyph glyph-name="breve" unicode="&#x2d8;" horiz-adv-x="399" 
d="M165.5 617.5q-32.5 29.5 -32.5 73.5q0 7 2 21h69q-1 -5 -1 -12q0 -21 12.5 -34.5t36.5 -13.5q26 0 44.5 16t23.5 44h68q-9 -61 -47.5 -92.5t-96.5 -31.5q-46 0 -78.5 29.5z" />
    <glyph glyph-name="dotaccent" unicode="&#x2d9;" horiz-adv-x="227" 
d="M129 621.5q-16 16.5 -16 37.5q0 23 16 38.5t38 15.5q23 0 38 -15.5t15 -38.5q0 -22 -15 -38t-38 -16q-22 0 -38 16.5z" />
    <glyph glyph-name="ring" unicode="&#x2da;" horiz-adv-x="402" 
d="M178 599q-30 30 -30 73q0 44 30 73.5t73 29.5t73.5 -30t30.5 -73t-30.5 -73t-73.5 -30t-73 30zM284 638q14 14 14 34t-13.5 33.5t-33.5 13.5q-19 0 -33 -14t-14 -33t14 -33.5t33 -14.5t33 14z" />
    <glyph glyph-name="ogonek" unicode="&#x2db;" horiz-adv-x="401" 
d="M53 -197.5q-29 26.5 -29 65.5q0 78 85 132h85q-35 -20 -63 -51.5t-28 -62.5q0 -19 11 -29.5t29 -10.5q12 0 20.5 2t21.5 7l-12 -72q-11 -4 -20.5 -5.5t-26.5 -1.5q-44 0 -73 26.5z" />
    <glyph glyph-name="tilde" unicode="&#x2dc;" horiz-adv-x="398" 
d="M282 602q-15 6 -34 18q-18 11 -31.5 17t-29.5 6q-33 0 -42 -37h-70q8 56 38 85t74 29q17 0 32.5 -6t34.5 -18q18 -11 31.5 -17t28.5 -6q33 0 42 37h70q-7 -56 -37.5 -85t-74.5 -29q-17 0 -32 6z" />
    <glyph glyph-name="hungarumlaut" unicode="&#x2dd;" horiz-adv-x="389" 
d="M185 716h95l-93 -127h-77zM344 716h95l-93 -127h-77z" />
    <glyph glyph-name="gravecomb" unicode="&#x300;" 
d="M-232 736h91l29 -127h-72z" />
    <glyph glyph-name="acutecomb" unicode="&#x301;" 
d="M-128 736h95l-93 -127h-76z" />
    <glyph glyph-name="uni0302" unicode="&#x302;" 
d="M-292 619l123 117h74l82 -117l-1 -5h-77l-43 64h-9l-62 -64h-88z" />
    <glyph glyph-name="tildecomb" unicode="&#x303;" 
d="M-112 622q-15 6 -34 18q-18 11 -31.5 17t-29.5 6q-33 0 -42 -37h-70q7 56 37 84.5t74 28.5q17 0 31 -6t36 -18q18 -11 31.5 -17t29.5 -6q32 0 41 37h71q-8 -56 -38 -84.5t-74 -28.5q-17 0 -32 6z" />
    <glyph glyph-name="uni0304" unicode="&#x304;" 
d="M-276 712h277l-12 -67h-277z" />
    <glyph glyph-name="uni0306" unicode="&#x306;" 
d="M-229.5 636.5q-32.5 29.5 -32.5 74.5q0 7 2 21h69q-1 -5 -1 -12q0 -21 12.5 -35t36.5 -14q26 0 44.5 16.5t23.5 44.5h68q-10 -62 -48 -93.5t-96 -31.5q-46 0 -78.5 29.5z" />
    <glyph glyph-name="uni0307" unicode="&#x307;" 
d="M-94 641q-16 16 -16 38q0 23 15.5 38t37.5 15q23 0 38.5 -15t15.5 -38q0 -22 -15.5 -38t-38.5 -16q-21 0 -37 16z" />
    <glyph glyph-name="uni0308" unicode="&#x308;" 
d="M-261 641q-16 16 -16 38q0 23 15.5 38t37.5 15q24 0 39 -15t15 -38q0 -22 -15.5 -38t-38.5 -16q-21 0 -37 16zM-97 641q-16 16 -16 38q0 23 16 38t38 15q23 0 38 -15t15 -38q0 -22 -15 -38t-38 -16q-22 0 -38 16z" />
    <glyph glyph-name="hookabovecomb" unicode="&#x309;" 
d="M-61 627q31 5 49.5 20.5t18.5 38.5q0 14 -10 22t-30 8q-27 0 -57 -12l-7 54q38 16 75 16q44 0 70.5 -21.5t26.5 -61.5q0 -51 -34.5 -80.5t-96.5 -36.5z" />
    <glyph glyph-name="uni030A" unicode="&#x30a;" 
d="M-220.5 618.5q-30.5 30.5 -30.5 73.5t30.5 73t73.5 30t73 -30t30 -73t-30 -73.5t-73 -30.5t-73.5 30.5zM-114 658q14 14 14 34q0 19 -14 33t-33 14q-20 0 -33.5 -13.5t-13.5 -33.5t13.5 -34t33.5 -14q19 0 33 14z" />
    <glyph glyph-name="uni030B" unicode="&#x30b;" 
d="M-201 736h95l-93 -127h-77zM-42 736h95l-93 -127h-77z" />
    <glyph glyph-name="uni030C" unicode="&#x30c;" 
d="M-272 731l1 5h77l44 -64h8l62 64h89l-1 -5l-124 -117h-74z" />
    <glyph glyph-name="uni0312" unicode="&#x312;" 
d="M-122 699q18 -4 29 -18.5t11 -33.5q0 -21 -16 -38t-40 -17q-25 0 -40.5 16.5t-15.5 40.5q0 30 18 51l71 86l34 -29z" />
    <glyph glyph-name="uni031B" unicode="&#x31b;" 
d="M-81 510h21q19 0 29.5 9.5t14.5 30.5l12 68h68l-12 -68q-10 -56 -37.5 -80t-85.5 -24h-21z" />
    <glyph glyph-name="dotbelowcomb" unicode="&#x323;" 
d="M-238 -176q-16 16 -16 38q0 23 16 38t38 15q23 0 38 -15t15 -38q0 -22 -15 -38t-38 -16q-22 0 -38 16z" />
    <glyph glyph-name="uni0324" unicode="&#x324;" 
d="M-327 -179q-16 16 -16 38q0 23 16 38t38 15q23 0 38 -15t15 -38q0 -22 -15 -38t-38 -16q-22 0 -38 16zM-162.5 -179q-16.5 16 -16.5 38q0 23 16 38t38 15q23 0 38.5 -15t15.5 -38q0 -22 -15.5 -38t-38.5 -16q-21 0 -37.5 16z" />
    <glyph glyph-name="uni0326" unicode="&#x326;" 
d="M-277 -155q-18 4 -29 18.5t-11 33.5q0 21 16 38t40 17q25 0 40.5 -16.5t15.5 -40.5q0 -30 -18 -51l-71 -86l-34 29z" />
    <glyph glyph-name="uni0327" unicode="&#x327;" 
d="M-376.5 -217.5q-25.5 19.5 -31.5 47.5l53 22q2 -15 13.5 -25.5t27.5 -10.5q21 0 35.5 13.5t14.5 36.5q0 16 -11 27t-28 11q-19 0 -36 -17l-41 20l51 93h53l-29 -49q15 3 22 3q34 0 55 -24.5t21 -63.5q0 -45 -30.5 -74t-80.5 -29q-33 0 -58.5 19.5z" />
    <glyph glyph-name="uni0328" unicode="&#x328;" 
d="M-348 -197.5q-29 26.5 -29 65.5q0 78 85 132h85q-35 -20 -63 -51.5t-28 -62.5q0 -19 11 -29.5t29 -10.5q12 0 20.5 2t21.5 7l-12 -72q-11 -4 -20.5 -5.5t-26.5 -1.5q-44 0 -73 26.5z" />
    <glyph glyph-name="uni032E" unicode="&#x32e;" 
d="M-377.5 -202.5q-32.5 29.5 -32.5 73.5q0 7 2 21h69q-1 -5 -1 -12q0 -21 12.5 -34.5t36.5 -13.5q26 0 44.5 16t23.5 44h68q-9 -61 -47.5 -92.5t-96.5 -31.5q-46 0 -78.5 29.5z" />
    <glyph glyph-name="uni0331" unicode="&#x331;" 
d="M-420 -108h276l-12 -66h-276z" />
    <glyph glyph-name="uni0374" unicode="&#x374;" horiz-adv-x="270" 
d="M309 716l-151 -209h-75l117 209h109z" />
    <glyph glyph-name="uni0375" unicode="&#x375;" horiz-adv-x="270" 
d="M-2 -87l115 209h74l-82 -209h-107z" />
    <glyph glyph-name="uni037E" unicode="&#x37e;" horiz-adv-x="246" 
d="M108.5 406.5q-18.5 18.5 -18.5 45.5t18.5 45.5t44.5 18.5q27 0 45.5 -18.5t18.5 -45.5t-18.5 -45.5t-45.5 -18.5q-26 0 -44.5 18.5zM-2 -64l67 80q-13 5 -25 20t-12 38q0 27 18.5 45.5t43.5 18.5q27 0 46 -18t19 -45q0 -15 -9 -29t-30 -40l-83 -99z" />
    <glyph glyph-name="tonos" unicode="&#x384;" horiz-adv-x="397" 
d="M248 736h95l-93 -127h-76z" />
    <glyph glyph-name="dieresistonos" unicode="&#x385;" horiz-adv-x="393" 
d="M230 732h60l-25 -144h-60zM99 625q-15 15 -15 34q0 21 14.5 35t34.5 14q21 0 35 -14t14 -35q0 -20 -14 -34.5t-35 -14.5q-19 0 -34 15zM327 625q-15 15 -15 34q0 21 15 35t35 14q21 0 35 -14t14 -35q0 -20 -14 -34.5t-35 -14.5q-20 0 -35 15z" />
    <glyph glyph-name="Alphatonos" unicode="&#x386;" horiz-adv-x="669" 
d="M367 716h96l145 -716h-90l-36 197h-309l-108 -197h-95zM466 277l-50 258l-14 77h-4l-183 -335h251zM161 716h95l-93 -127h-77z" />
    <glyph glyph-name="anoteleia" unicode="&#x387;" horiz-adv-x="166" 
d="M50.5 278.5q-18.5 18.5 -18.5 45.5t18.5 45.5t44.5 18.5q27 0 45.5 -18.5t18.5 -45.5t-18.5 -45.5t-45.5 -18.5q-26 0 -44.5 18.5z" />
    <glyph glyph-name="Epsilontonos" unicode="&#x388;" horiz-adv-x="585" 
d="M196 716h414l-14 -81h-330l-42 -237h298l-14 -80h-298l-42 -237h330l-15 -81h-414zM38 716h95l-93 -127h-77z" />
    <glyph glyph-name="Etatonos" unicode="&#x389;" horiz-adv-x="731" 
d="M194 716h84l-55 -310h369l56 310h84l-127 -716h-84l57 326h-369l-58 -326h-84zM30 716h95l-93 -127h-77z" />
    <glyph glyph-name="Iotatonos" unicode="&#x38a;" horiz-adv-x="277" 
d="M194 716h84l-127 -716h-84zM30 716h95l-93 -127h-77z" />
    <glyph glyph-name="Omicrontonos" unicode="&#x38c;" horiz-adv-x="825" 
d="M217.5 25.5q-74.5 41.5 -117.5 115.5t-43 168q0 110 54 207.5t150.5 156.5t218.5 59q90 0 164 -41.5t117 -115.5t43 -168q0 -110 -53.5 -207.5t-150 -156.5t-217.5 -59q-91 0 -165.5 41.5zM555 112.5q75 47.5 118.5 125t43.5 162.5q0 76 -32.5 133t-89 87.5t-125.5 30.5
q-89 0 -163.5 -47.5t-118 -125t-43.5 -162.5q0 -76 32.5 -133t88.5 -87.5t125 -30.5q89 0 164 47.5zM38 716h95l-93 -127h-77z" />
    <glyph glyph-name="Upsilontonos" unicode="&#x38e;" horiz-adv-x="658" 
d="M333 331l-174 385h97l130 -300h4l233 300h102l-307 -385l-59 -331h-84zM31 716h95l-93 -127h-77z" />
    <glyph glyph-name="Omegatonos" unicode="&#x38f;" horiz-adv-x="745" 
d="M31 716h95l-93 -127h-77zM-8 81h171l1 4q-60 41 -99.5 106.5t-39.5 151.5q0 104 52.5 193t145 142.5t206.5 53.5q94 0 163.5 -41.5t106 -111t36.5 -150.5q0 -111 -64 -199t-175 -145l-1 -4h166l-14 -81h-275l21 119q69 17 128 62.5t93.5 108.5t34.5 131t-29 120t-82 81
t-122 29q-83 0 -153 -40.5t-110.5 -109t-40.5 -149.5q0 -90 46 -149t117 -84l-21 -119h-275z" />
    <glyph glyph-name="iotadieresistonos" unicode="&#x390;" horiz-adv-x="227" 
d="M116 510h85l-90 -510h-85zM167 732h60l-25 -144h-60zM36 625q-15 15 -15 34q0 21 14.5 35t34.5 14q21 0 35 -14t14 -35q0 -20 -14 -34.5t-35 -14.5q-19 0 -34 15zM264 625q-15 15 -15 34q0 21 15 35t35 14q21 0 35 -14t14 -35q0 -20 -14 -34.5t-35 -14.5q-20 0 -35 15z
" />
    <glyph glyph-name="Alpha" unicode="&#x391;" horiz-adv-x="669" 
d="M367 716h96l145 -716h-90l-36 197h-309l-108 -197h-95zM466 277l-50 258l-14 77h-4l-183 -335h251z" />
    <glyph glyph-name="Beta" unicode="&#x392;" horiz-adv-x="605" 
d="M161 716h244q57 0 99.5 -23.5t65 -63t22.5 -86.5q0 -63 -37 -107.5t-91 -63.5l-1 -4q96 -49 96 -150q0 -60 -33.5 -110t-91.5 -79t-129 -29h-271zM363 406q61 0 102 33.5t41 90.5q0 45 -28.5 75t-79.5 30h-167l-41 -229h173zM323 81q37 0 71.5 16t56 46.5t21.5 72.5
q0 50 -32.5 80t-87.5 30h-176l-43 -245h190z" />
    <glyph glyph-name="Gamma" unicode="&#x393;" horiz-adv-x="504" 
d="M161 716h398l-14 -81h-314l-113 -635h-84z" />
    <glyph glyph-name="uni0394" unicode="&#x394;" horiz-adv-x="659" 
d="M362 716h96l140 -716h-628zM492 81l-95 531h-4l-284 -531h383z" />
    <glyph glyph-name="Epsilon" unicode="&#x395;" horiz-adv-x="550" 
d="M161 716h414l-14 -81h-330l-42 -237h298l-14 -80h-298l-42 -237h330l-15 -81h-414z" />
    <glyph glyph-name="Zeta" unicode="&#x396;" horiz-adv-x="571" 
d="M9 89l479 546h-367l14 81h468l-16 -89l-480 -546h388l-15 -81h-487z" />
    <glyph glyph-name="Eta" unicode="&#x397;" horiz-adv-x="698" 
d="M161 716h84l-55 -310h369l56 310h84l-127 -716h-84l57 326h-369l-58 -326h-84z" />
    <glyph glyph-name="Theta" unicode="&#x398;" horiz-adv-x="825" 
d="M217.5 25.5q-74.5 41.5 -117.5 115.5t-43 168q0 110 54 207.5t150.5 156.5t218.5 59q90 0 164 -41.5t117 -115.5t43 -168q0 -110 -53.5 -207.5t-150 -156.5t-217.5 -59q-91 0 -165.5 41.5zM555 112.5q75 47.5 118.5 125t43.5 162.5q0 76 -32.5 133t-89 87.5t-125.5 30.5
q-89 0 -163.5 -47.5t-118 -125t-43.5 -162.5q0 -76 32.5 -133t88.5 -87.5t125 -30.5q89 0 164 47.5zM278 398h319l-14 -80h-319z" />
    <glyph glyph-name="Iota" unicode="&#x399;" horiz-adv-x="244" 
d="M161 716h84l-127 -716h-84z" />
    <glyph glyph-name="Kappa" unicode="&#x39a;" horiz-adv-x="615" 
d="M161 716h84l-63 -357h4l375 357h114l-1 -4l-390 -367l275 -341l-1 -4h-108l-267 337h-4l-61 -337h-84z" />
    <glyph glyph-name="Lambda" unicode="&#x39b;" horiz-adv-x="650" 
d="M358 716h96l135 -716h-90l-94 543l-12 69h-4l-36 -69l-287 -543h-96z" />
    <glyph glyph-name="Mu" unicode="&#x39c;" horiz-adv-x="866" 
d="M161 716h119l126 -587h4l331 587h126l-127 -716h-84l80 455l29 136h-4l-335 -591h-71l-132 591h-4l-20 -136l-81 -455h-84z" />
    <glyph glyph-name="Nu" unicode="&#x39d;" horiz-adv-x="707" 
d="M161 716h97l265 -570h4l21 138l76 432h85l-127 -716h-81l-277 597h-4l-20 -138l-82 -459h-84z" />
    <glyph glyph-name="Xi" unicode="&#x39e;" horiz-adv-x="495" 
d="M114 716h430l-15 -81h-430zM89 398h366l-13 -80h-367zM2 81h430l-15 -81h-429z" />
    <glyph glyph-name="Omicron" unicode="&#x39f;" horiz-adv-x="825" 
d="M217.5 25.5q-74.5 41.5 -117.5 115.5t-43 168q0 110 54 207.5t150.5 156.5t218.5 59q90 0 164 -41.5t117 -115.5t43 -168q0 -110 -53.5 -207.5t-150 -156.5t-217.5 -59q-91 0 -165.5 41.5zM555 112.5q75 47.5 118.5 125t43.5 162.5q0 76 -32.5 133t-89 87.5t-125.5 30.5
q-89 0 -163.5 -47.5t-118 -125t-43.5 -162.5q0 -76 32.5 -133t88.5 -87.5t125 -30.5q89 0 164 47.5z" />
    <glyph glyph-name="Pi" unicode="&#x3a0;" horiz-adv-x="674" 
d="M161 716h514l-127 -716h-84l112 635h-345l-113 -635h-84z" />
    <glyph glyph-name="Rho" unicode="&#x3a1;" horiz-adv-x="576" 
d="M161 716h235q56 0 100 -23.5t69 -65.5t25 -96q0 -73 -33.5 -127.5t-93.5 -83t-136 -28.5h-156l-53 -292h-84zM342 373q71 0 116 37.5t45 109.5q0 53 -32.5 84t-81.5 31h-158l-46 -262h157z" />
    <glyph glyph-name="Sigma" unicode="&#x3a3;" horiz-adv-x="512" 
d="M388 366l-269 -285h330l-14 -81h-430l15 88l265 283l-170 257l16 88h431l-15 -81h-338z" />
    <glyph glyph-name="Tau" unicode="&#x3a4;" horiz-adv-x="538" 
d="M293 635h-201l15 81h486l-15 -81h-200l-113 -635h-84z" />
    <glyph glyph-name="Upsilon" unicode="&#x3a5;" horiz-adv-x="595" 
d="M270 331l-174 385h97l130 -300h4l233 300h102l-307 -385l-59 -331h-84z" />
    <glyph glyph-name="Phi" unicode="&#x3a6;" horiz-adv-x="799" 
d="M322 58q-121 11 -192 83t-71 185q0 92 48 165t132 117t190 50l10 58h85l-11 -59q122 -13 193 -85.5t71 -186.5q0 -91 -47.5 -163t-131.5 -115t-191 -50l-10 -57h-85zM414 578q-73 -7 -134 -39t-97.5 -84.5t-36.5 -119.5q0 -86 49.5 -137t140.5 -61zM556.5 175
q61.5 31 97.5 84t36 120q0 86 -49.5 138t-141.5 61l-79 -441q75 7 136.5 38z" />
    <glyph glyph-name="Chi" unicode="&#x3a7;" horiz-adv-x="629" 
d="M278 375l-168 341h99l131 -277h4l228 277h104l-290 -348l183 -368h-100l-146 299h-4l-249 -299h-100z" />
    <glyph glyph-name="Psi" unicode="&#x3a8;" horiz-adv-x="748" 
d="M200.5 183q-49.5 27 -78 79.5t-28.5 124.5q0 27 7 71l45 258h85l-48 -270q-6 -31 -6 -60q0 -72 39.5 -110.5t111.5 -38.5l85 479h85l-85 -479q87 0 144.5 55.5t73.5 147.5l49 276h85l-52 -290q-15 -84 -59.5 -145t-110.5 -93t-145 -32l-27 -156h-85l27 156
q-63 0 -112.5 27z" />
    <glyph glyph-name="uni03A9" unicode="&#x3a9;" horiz-adv-x="803" 
d="M37 81h171l1 4q-60 41 -99.5 106.5t-39.5 151.5q0 104 52.5 193t145 142.5t206.5 53.5q94 0 163.5 -41.5t106 -111t36.5 -150.5q0 -111 -64 -199t-175 -145l-1 -4h166l-14 -81h-275l21 119q69 17 128 62.5t93.5 108.5t34.5 131t-29 120t-82 81t-122 29q-83 0 -153 -40.5
t-110.5 -109t-40.5 -149.5q0 -90 46 -149t117 -84l-21 -119h-275z" />
    <glyph glyph-name="Iotadieresis" unicode="&#x3aa;" horiz-adv-x="244" 
d="M112 820q-15 15 -15 34q0 21 15 35.5t35 14.5q21 0 35 -14t14 -36q0 -20 -14 -34.5t-35 -14.5q-20 0 -35 15zM260 820q-15 15 -15 34q0 21 15 35.5t34 14.5q22 0 36 -14t14 -36q0 -20 -14.5 -34.5t-35.5 -14.5q-19 0 -34 15zM161 716h84l-127 -716h-84z" />
    <glyph glyph-name="Upsilondieresis" unicode="&#x3ab;" horiz-adv-x="595" 
d="M270 331l-174 385h97l130 -300h4l233 300h102l-307 -385l-59 -331h-84zM268.5 805.5q-16.5 16.5 -16.5 37.5q0 23 16 38.5t38 15.5q23 0 38.5 -15.5t15.5 -38.5q0 -22 -15.5 -38t-38.5 -16q-21 0 -37.5 16.5zM433 805.5q-16 16.5 -16 37.5q0 23 16 38.5t37 15.5
q23 0 38.5 -15.5t15.5 -38.5q0 -22 -15.5 -38t-38.5 -16q-21 0 -37 16.5z" />
    <glyph glyph-name="alphatonos" unicode="&#x3ac;" horiz-adv-x="605" 
d="M134 12.5q-47 28.5 -74 81t-27 121.5q0 85 38 156t105 113t151 42q57 0 100 -27t62 -66h4l14 77h80l-90 -510h-81l14 75h-4q-29 -42 -75.5 -66.5t-110.5 -24.5q-59 0 -106 28.5zM365.5 92q46.5 31 73 83.5t26.5 115.5q0 72 -41 115t-103 43q-57 0 -103 -29.5t-72.5 -81.5
t-26.5 -115q0 -74 40.5 -118t103.5 -44q56 0 102.5 31zM358 736h95l-93 -127h-76z" />
    <glyph glyph-name="epsilontonos" unicode="&#x3ad;" horiz-adv-x="498" 
d="M108 3q-42 19 -64.5 51.5t-22.5 72.5q0 52 30 86t81 49v4q-23 16 -38 43t-15 62q0 45 27 80.5t74.5 55t107.5 19.5q108 0 173 -86l-65 -50q-43 59 -114 59q-47 0 -82.5 -21.5t-35.5 -61.5q0 -30 23.5 -51.5t60.5 -21.5h68l-12 -68h-86q-43 0 -76 -24t-33 -62
q0 -33 28.5 -55.5t76.5 -22.5q45 0 80 16t74 52l55 -54q-47 -47 -98.5 -69t-118.5 -22q-56 0 -98 19zM343 736h95l-93 -127h-76z" />
    <glyph glyph-name="etatonos" unicode="&#x3ae;" horiz-adv-x="561" 
d="M427 306q6 38 6 50q0 44 -29.5 68.5t-78.5 24.5q-62 0 -110 -46t-60 -116l-51 -287h-85l90 510h80l-13 -75h4q27 41 72 66t103 25q76 0 119.5 -41.5t43.5 -109.5q0 -40 -6 -71l-92 -520h-84zM391 736h95l-93 -127h-76z" />
    <glyph glyph-name="iotatonos" unicode="&#x3af;" horiz-adv-x="227" 
d="M116 510h85l-90 -510h-85zM211 736h95l-93 -127h-76z" />
    <glyph glyph-name="upsilondieresistonos" unicode="&#x3b0;" horiz-adv-x="562" 
d="M104.5 35q-52.5 51 -52.5 138q0 33 5 60l48 277h85l-50 -280q-4 -23 -4 -48q0 -58 32.5 -89.5t84.5 -31.5q63 0 106 31t64.5 82.5t21.5 114.5q0 107 -53 221h90q48 -111 48 -217q0 -93 -36 -163t-100.5 -108t-148.5 -38q-88 0 -140.5 51zM300 732h60l-25 -144h-60z
M169 625q-15 15 -15 34q0 21 14.5 35t34.5 14q21 0 35 -14t14 -35q0 -20 -14 -34.5t-35 -14.5q-19 0 -34 15zM397 625q-15 15 -15 34q0 21 15 35t35 14q21 0 35 -14t14 -35q0 -20 -14 -34.5t-35 -14.5q-20 0 -35 15z" />
    <glyph glyph-name="alpha" unicode="&#x3b1;" horiz-adv-x="605" 
d="M134 12.5q-47 28.5 -74 81t-27 121.5q0 85 38 156t105 113t151 42q57 0 100 -27t62 -66h4l14 77h80l-90 -510h-81l14 75h-4q-29 -42 -75.5 -66.5t-110.5 -24.5q-59 0 -106 28.5zM365.5 92q46.5 31 73 83.5t26.5 115.5q0 72 -41 115t-103 43q-57 0 -103 -29.5t-72.5 -81.5
t-26.5 -115q0 -74 40.5 -118t103.5 -44q56 0 102.5 31z" />
    <glyph glyph-name="beta" unicode="&#x3b2;" horiz-adv-x="571" 
d="M122 516q18 99 77 157.5t161 58.5q55 0 98.5 -22.5t67.5 -61.5t24 -86q0 -64 -33 -108.5t-86 -65.5v-4q42 -22 67.5 -62t25.5 -97q0 -69 -33.5 -124t-91.5 -86t-127 -31q-45 0 -85 20t-59 53h-4l-9 -71l-35 -202h-86zM354.5 84q36.5 19 59.5 54t23 80q0 57 -38 91.5
t-99 34.5h-33l13 78h31q39 0 74 15.5t56.5 44t21.5 64.5q0 48 -31.5 76.5t-81.5 28.5q-54 0 -92.5 -37t-49.5 -98l-52 -297q-3 -19 -3 -36q0 -55 34.5 -86.5t92.5 -31.5q38 0 74.5 19z" />
    <glyph glyph-name="gamma" unicode="&#x3b3;" horiz-adv-x="550" 
d="M188 7l-135 503h90l101 -413h2l248 413h93l-315 -501l-39 -225h-85z" />
    <glyph glyph-name="delta" unicode="&#x3b4;" horiz-adv-x="597" 
d="M146.5 15.5q-51.5 31.5 -82 86.5t-30.5 121q0 71 29.5 136.5t91 110t150.5 52.5q3 0 5 -1l-159 130l12 65h413l-13 -77h-285l170 -135q113 -89 113 -219q0 -83 -37 -152t-105 -109t-159 -40q-62 0 -113.5 31.5zM372.5 88q47.5 27 75.5 76.5t28 114.5q0 46 -20 85.5
t-56 62.5t-81 23q-55 0 -101 -29t-72.5 -80.5t-26.5 -114.5q0 -47 21 -85t55.5 -59t74.5 -21q55 0 102.5 27z" />
    <glyph glyph-name="epsilon" unicode="&#x3b5;" horiz-adv-x="498" 
d="M108 3q-42 19 -64.5 51.5t-22.5 72.5q0 52 30 86t81 49v4q-23 16 -38 43t-15 62q0 45 27 80.5t74.5 55t107.5 19.5q108 0 173 -86l-65 -50q-43 59 -114 59q-47 0 -82.5 -21.5t-35.5 -61.5q0 -30 23.5 -51.5t60.5 -21.5h68l-12 -68h-86q-43 0 -76 -24t-33 -62
q0 -33 28.5 -55.5t76.5 -22.5q45 0 80 16t74 52l55 -54q-47 -47 -98.5 -69t-118.5 -22q-56 0 -98 19z" />
    <glyph glyph-name="zeta" unicode="&#x3b6;" horiz-adv-x="494" 
d="M264 -91q28 0 46.5 13t18.5 36q0 42 -54 42h-128q-65 0 -101.5 35t-36.5 89q0 46 24 80t69 63q44 28 250 166h-272l14 77h395l-14 -75l-337 -229q-45 -32 -45 -70q0 -27 19 -43t50 -16h117q64 0 98 -29t34 -82q0 -61 -43 -97.5t-117 -36.5z" />
    <glyph glyph-name="eta" unicode="&#x3b7;" horiz-adv-x="561" 
d="M427 306q6 38 6 50q0 44 -29.5 68.5t-78.5 24.5q-62 0 -110 -46t-60 -116l-51 -287h-85l90 510h80l-13 -75h4q27 41 72 66t103 25q76 0 119.5 -41.5t43.5 -109.5q0 -40 -6 -71l-92 -520h-84z" />
    <glyph glyph-name="theta" unicode="&#x3b8;" horiz-adv-x="665" 
d="M167 19.5q-51 35.5 -78.5 101.5t-27.5 155q0 110 43.5 208t120.5 157t173 59q69 0 120 -35.5t78.5 -101.5t27.5 -155q0 -111 -43.5 -208.5t-120.5 -156.5t-173 -59q-69 0 -120 35.5zM537 393v6q-2 103 -41.5 161.5t-108.5 58.5q-50 0 -96 -29.5t-80.5 -81t-50.5 -115.5
h377zM402 100q49 35 83.5 94.5t46.5 132.5h-382q-1 -15 -1 -35q0 -106 39.5 -166.5t109.5 -60.5q55 0 104 35z" />
    <glyph glyph-name="iota" unicode="&#x3b9;" horiz-adv-x="227" 
d="M116 510h85l-90 -510h-85z" />
    <glyph glyph-name="kappa" unicode="&#x3ba;" horiz-adv-x="494" 
d="M111 510h85l-41 -231h4l252 231h111l-1 -4l-271 -241l193 -261l-1 -4h-101l-186 257h-4l-46 -257h-83z" />
    <glyph glyph-name="lambda" unicode="&#x3bb;" horiz-adv-x="500" 
d="M245 459l-69 247h89l181 -706h-88l-85 356h-2l-213 -356h-95z" />
    <glyph glyph-name="uni03BC" unicode="&#x3bc;" horiz-adv-x="561" 
d="M104 510h84l-55 -315q-4 -21 -4 -41q0 -45 29 -69t78 -24q63 0 111 46t60 115l51 288h84l-89 -510h-81l14 74h-4q-27 -39 -73 -64.5t-104 -25.5q-30 0 -58 12.5t-42 32.5h-4l-7 -60l-34 -185h-84z" />
    <glyph glyph-name="nu" unicode="&#x3bd;" horiz-adv-x="514" 
d="M52 510h90l85 -410h2l231 410h92l-298 -510h-87z" />
    <glyph glyph-name="xi" unicode="&#x3be;" horiz-adv-x="528" 
d="M300 -91q25 0 44.5 14t19.5 37q0 40 -48 40h-83q-64 0 -112 23.5t-74 64t-26 91.5q0 142 156 204l1 4q-76 51 -76 138q0 55 31 102.5t88 76t131 28.5q63 0 112 -28t78 -78l-73 -48q-22 38 -52 55.5t-75 17.5q-64 0 -108.5 -34.5t-44.5 -93.5q0 -49 35.5 -78.5t90.5 -29.5
h88l-14 -79h-108q-77 0 -124.5 -39.5t-47.5 -100.5q0 -55 37.5 -85t96.5 -30h67q68 0 102.5 -28.5t34.5 -80.5q0 -62 -45 -100t-115 -40z" />
    <glyph glyph-name="omicron" unicode="&#x3bf;" horiz-adv-x="595" 
d="M145.5 16q-52.5 32 -81.5 87.5t-29 123.5q0 83 36.5 151t104 108t154.5 40q68 0 120.5 -32t81 -87.5t28.5 -123.5q0 -83 -36.5 -151.5t-104 -108t-154.5 -39.5q-67 0 -119.5 32zM378.5 90.5q45.5 29.5 70.5 79t25 108.5q0 74 -42.5 122.5t-111.5 48.5q-58 0 -103.5 -29.5
t-70.5 -79t-25 -108.5q0 -75 42.5 -123t111.5 -48q58 0 103.5 29.5z" />
    <glyph glyph-name="pi" unicode="&#x3c0;" horiz-adv-x="705" 
d="M474 21q-34 29 -34 81q0 21 5 49l49 282h-234l-76 -433h-85l76 433h-120l14 77h644l-14 -77h-120l-48 -273q-4 -26 -4 -35q0 -24 12.5 -40t36.5 -16q17 0 29.5 3.5t28.5 10.5l-15 -83q-27 -8 -59 -8q-52 0 -86 29z" />
    <glyph glyph-name="rho" unicode="&#x3c1;" horiz-adv-x="604" 
d="M57 268q13 75 51 133t98.5 91.5t137.5 33.5q66 0 116 -28.5t77.5 -81t27.5 -122.5q0 -85 -38 -156t-105 -112.5t-151 -41.5q-57 0 -100.5 27t-61.5 65h-4l-9 -71l-39 -221h-84zM381 90.5q46 29.5 72 81.5t26 115q0 74 -40 117.5t-104 43.5q-56 0 -102.5 -31t-73 -83.5
t-26.5 -116.5q0 -72 41 -114t103 -42q58 0 104 29.5z" />
    <glyph glyph-name="sigma1" unicode="&#x3c2;" horiz-adv-x="542" 
d="M153 14.5q-56 30.5 -87 85.5t-31 125q0 82 37.5 151t104 109t150.5 40t137 -40t69 -101l-81 -31q-13 46 -46.5 70.5t-86.5 24.5q-56 0 -101 -29.5t-70.5 -79.5t-25.5 -108q0 -77 41.5 -123.5t123.5 -46.5h32q65 0 100.5 -28t35.5 -80q0 -62 -44 -99t-115 -38l14 77
q28 0 46 13.5t18 37.5q0 18 -13 29t-40 11h-39q-73 0 -129 30.5z" />
    <glyph glyph-name="sigma" unicode="&#x3c3;" horiz-adv-x="615" 
d="M142.5 14.5q-51.5 30.5 -80 84t-28.5 119.5q0 80 36 146.5t102.5 106t153.5 39.5h316l-14 -77h-60l-75 4l-1 -4q27 -28 42 -69t15 -89q0 -81 -36.5 -147.5t-102 -105t-150.5 -38.5q-66 0 -117.5 30.5zM369 89q44 28 69 75.5t25 103.5q0 73 -41 119t-107 46
q-56 0 -100.5 -28t-69.5 -76.5t-25 -105.5q0 -72 41.5 -117t108.5 -45q55 0 99 28z" />
    <glyph glyph-name="tau" unicode="&#x3c4;" horiz-adv-x="473" 
d="M226 433h-167l14 77h417l-14 -77h-166l-77 -433h-84z" />
    <glyph glyph-name="upsilon" unicode="&#x3c5;" horiz-adv-x="562" 
d="M104.5 35q-52.5 51 -52.5 138q0 33 5 60l48 277h85l-50 -280q-4 -23 -4 -48q0 -58 32.5 -89.5t84.5 -31.5q63 0 106 31t64.5 82.5t21.5 114.5q0 107 -53 221h90q48 -111 48 -217q0 -93 -36 -163t-100.5 -108t-148.5 -38q-88 0 -140.5 51z" />
    <glyph glyph-name="phi" unicode="&#x3c6;" horiz-adv-x="738" 
d="M277 -13q-67 8 -119 39.5t-81.5 82t-29.5 114.5q0 103 61 179.5t169 123.5l22 -75q-77 -35 -121 -90t-44 -130q0 -69 44 -113t112 -54l56 314q12 71 58.5 109.5t111.5 38.5q52 0 92.5 -28t63 -78t22.5 -113q0 -88 -41.5 -158t-117 -112.5t-174.5 -50.5l-35 -202h-84z
M494.5 103.5q52.5 31.5 82.5 83t30 116.5q0 64 -26.5 103t-70.5 39q-32 0 -53 -18.5t-27 -51.5l-55 -311q67 8 119.5 39.5z" />
    <glyph glyph-name="chi" unicode="&#x3c7;" horiz-adv-x="486" 
d="M192 261l-129 249h96l94 -188h1l157 188h103l-222 -254l136 -256h-96l-98 196h-1l-163 -196h-102z" />
    <glyph glyph-name="psi" unicode="&#x3c8;" horiz-adv-x="706" 
d="M265 -16h-2q-62 0 -111.5 24.5t-78 69.5t-28.5 103q0 22 5 52l49 277h84l-49 -278q-4 -22 -4 -41q0 -63 43 -96.5t104 -33.5h2l79 449h85l-80 -449h2q72 0 122 35t74.5 92t24.5 121q0 56 -9 103.5t-30 97.5h87q38 -93 38 -202q0 -94 -40.5 -168t-113.5 -115t-166 -41h-2
l-36 -200h-84z" />
    <glyph glyph-name="omega" unicode="&#x3c9;" horiz-adv-x="802" 
d="M115.5 8.5q-40.5 24.5 -64.5 71t-24 107.5q0 85 36 163t97 160h96q-67 -84 -105 -161.5t-38 -152.5q0 -63 28.5 -99t75.5 -36q48 0 86 44.5t53 125.5l28 154h81l-28 -154q-5 -31 -5 -62q0 -51 25.5 -79.5t68.5 -28.5q51 0 87 33.5t54 86t18 108.5q0 55 -11 105.5
t-37 115.5h92q21 -62 31 -112t10 -110q0 -72 -28.5 -142t-86 -116t-139.5 -46q-50 0 -88 25t-55 71q-61 -96 -169 -96q-48 0 -88.5 24.5z" />
    <glyph glyph-name="iotadieresis" unicode="&#x3ca;" horiz-adv-x="227" 
d="M80.5 641q-16.5 16 -16.5 38q0 23 16 38t38 15q23 0 38.5 -15t15.5 -38q0 -22 -15.5 -38t-38.5 -16q-21 0 -37.5 16zM213 641q-16 16 -16 38q0 23 16 38t38 15q23 0 38.5 -15t15.5 -38q0 -22 -15.5 -38t-38.5 -16q-22 0 -38 16zM116 510h85l-90 -510h-85z" />
    <glyph glyph-name="upsilondieresis" unicode="&#x3cb;" horiz-adv-x="562" 
d="M104.5 35q-52.5 51 -52.5 138q0 33 5 60l48 277h85l-50 -280q-4 -23 -4 -48q0 -58 32.5 -89.5t84.5 -31.5q63 0 106 31t64.5 82.5t21.5 114.5q0 107 -53 221h90q48 -111 48 -217q0 -93 -36 -163t-100.5 -108t-148.5 -38q-88 0 -140.5 51zM201 641q-16 16 -16 38
q0 23 15.5 38t37.5 15q24 0 39 -15t15 -38q0 -22 -15.5 -38t-38.5 -16q-21 0 -37 16zM365 641q-16 16 -16 38q0 23 16 38t38 15q23 0 38 -15t15 -38q0 -22 -15 -38t-38 -16q-22 0 -38 16z" />
    <glyph glyph-name="omicrontonos" unicode="&#x3cc;" horiz-adv-x="595" 
d="M145.5 16q-52.5 32 -81.5 87.5t-29 123.5q0 83 36.5 151t104 108t154.5 40q68 0 120.5 -32t81 -87.5t28.5 -123.5q0 -83 -36.5 -151.5t-104 -108t-154.5 -39.5q-67 0 -119.5 32zM378.5 90.5q45.5 29.5 70.5 79t25 108.5q0 74 -42.5 122.5t-111.5 48.5q-58 0 -103.5 -29.5
t-70.5 -79t-25 -108.5q0 -75 42.5 -123t111.5 -48q58 0 103.5 29.5zM387 736h95l-93 -127h-76z" />
    <glyph glyph-name="upsilontonos" unicode="&#x3cd;" horiz-adv-x="562" 
d="M104.5 35q-52.5 51 -52.5 138q0 33 5 60l48 277h85l-50 -280q-4 -23 -4 -48q0 -58 32.5 -89.5t84.5 -31.5q63 0 106 31t64.5 82.5t21.5 114.5q0 107 -53 221h90q48 -111 48 -217q0 -93 -36 -163t-100.5 -108t-148.5 -38q-88 0 -140.5 51zM344 736h95l-93 -127h-76z" />
    <glyph glyph-name="omegatonos" unicode="&#x3ce;" horiz-adv-x="802" 
d="M115.5 8.5q-40.5 24.5 -64.5 71t-24 107.5q0 85 36 163t97 160h96q-67 -84 -105 -161.5t-38 -152.5q0 -63 28.5 -99t75.5 -36q48 0 86 44.5t53 125.5l28 154h81l-28 -154q-5 -31 -5 -62q0 -51 25.5 -79.5t68.5 -28.5q51 0 87 33.5t54 86t18 108.5q0 55 -11 105.5
t-37 115.5h92q21 -62 31 -112t10 -110q0 -72 -28.5 -142t-86 -116t-139.5 -46q-50 0 -88 25t-55 71q-61 -96 -169 -96q-48 0 -88.5 24.5zM499 736h95l-93 -127h-76z" />
    <glyph glyph-name="theta1" unicode="&#x3d1;" horiz-adv-x="639" 
d="M102 34.5q-53 50.5 -53 136.5q0 26 5 56l50 283h85l-49 -276q-5 -30 -5 -51q0 -60 31.5 -91t85.5 -31q70 0 114 43.5t58 124.5l9 53q-52 11 -92.5 44t-64 83.5t-23.5 112.5q0 58 22.5 106t64.5 76t99 28q66 0 98.5 -36t32.5 -97q0 -25 -5 -51l-34 -190h91l-14 -77h-90
l-12 -69q-11 -66 -47.5 -118t-93 -81t-126.5 -29q-84 0 -137 50.5zM483 567q2 16 2 26q0 26 -15 43t-44 17q-41 0 -65.5 -37.5t-24.5 -87.5q0 -60 30.5 -106t81.5 -61z" />
    <glyph glyph-name="Upsilon1" unicode="&#x3d2;" horiz-adv-x="604" 
d="M275 315l-84 264q-11 35 -23 49t-31 14q-18 0 -32 -9l-25 74q14 6 35 11.5t41 5.5q77 0 105 -94l68 -230h4l144 225q37 59 67.5 79t71.5 20q38 0 67 -19l-38 -72q-13 9 -30 9q-20 0 -37.5 -14t-41.5 -49l-176 -264l-56 -315h-85z" />
    <glyph glyph-name="uni03D3" unicode="&#x3d3;" horiz-adv-x="680" 
d="M351 315l-84 264q-11 35 -23 49t-31 14q-18 0 -32 -9l-25 74q14 6 35 11.5t41 5.5q77 0 105 -94l68 -230h4l144 225q37 59 67.5 79t71.5 20q38 0 67 -19l-38 -72q-13 9 -30 9q-20 0 -37.5 -14t-41.5 -49l-176 -264l-56 -315h-85zM11 716h95l-93 -127h-77z" />
    <glyph glyph-name="uni03D4" unicode="&#x3d4;" horiz-adv-x="604" 
d="M275 315l-84 264q-11 35 -23 49t-31 14q-18 0 -32 -9l-25 74q14 6 35 11.5t41 5.5q77 0 105 -94l68 -230h4l144 225q37 59 67.5 79t71.5 20q38 0 67 -19l-38 -72q-13 9 -30 9q-20 0 -37.5 -14t-41.5 -49l-176 -264l-56 -315h-85zM272.5 805.5q-16.5 16.5 -16.5 37.5
q0 23 16 38.5t38 15.5q23 0 38.5 -15.5t15.5 -38.5q0 -22 -15.5 -38t-38.5 -16q-21 0 -37.5 16.5zM437 805.5q-16 16.5 -16 37.5q0 23 16 38.5t37 15.5q23 0 38.5 -15.5t15.5 -38.5q0 -22 -15.5 -38t-38.5 -16q-21 0 -37 16.5z" />
    <glyph glyph-name="omega1" unicode="&#x3d6;" horiz-adv-x="886" 
d="M157.5 7q-39.5 23 -63 67.5t-23.5 105.5q0 67 22.5 128t62.5 125h-84l14 77h804l-14 -77h-88q20 -72 20 -153q0 -76 -29.5 -144t-86 -110t-134.5 -42q-50 0 -87.5 25t-54.5 72q-29 -46 -74 -71.5t-97 -25.5q-48 0 -87.5 23zM343.5 105.5q40.5 44.5 54.5 124.5l18 99h81
l-18 -99q-5 -30 -5 -56q0 -54 25 -83.5t64 -29.5q53 0 89 31.5t53.5 81.5t17.5 107q0 70 -26 152h-446q-41 -60 -67.5 -124.5t-26.5 -124.5q0 -58 26 -90.5t71 -32.5q49 0 89.5 44.5z" />
    <glyph glyph-name="uni0400" unicode="&#x400;" horiz-adv-x="550" 
d="M161 716h414l-14 -81h-330l-42 -237h298l-14 -80h-298l-42 -237h330l-15 -81h-414zM296 900h91l29 -127h-72z" />
    <glyph glyph-name="uni0401" unicode="&#x401;" horiz-adv-x="550" 
d="M161 716h414l-14 -81h-330l-42 -237h298l-14 -80h-298l-42 -237h330l-15 -81h-414zM276.5 805.5q-16.5 16.5 -16.5 37.5q0 23 16 38.5t38 15.5q23 0 38.5 -15.5t15.5 -38.5q0 -22 -15.5 -38t-38.5 -16q-21 0 -37.5 16.5zM441 805.5q-16 16.5 -16 37.5q0 23 16 38.5
t37 15.5q23 0 38.5 -15.5t15.5 -38.5q0 -22 -15.5 -38t-38.5 -16q-21 0 -37 16.5z" />
    <glyph glyph-name="uni0402" unicode="&#x402;" horiz-adv-x="752" 
d="M284 635h-192l15 81h470l-14 -81h-195l-35 -200l-16 -70h4q35 34 82.5 53.5t105.5 19.5q56 0 102.5 -23.5t73.5 -68.5t27 -108t-31.5 -117.5t-88 -87.5t-127.5 -33h-31l14 81h22q67 0 110.5 43t43.5 110q0 56 -36 90t-99 34q-52 0 -100.5 -22t-83.5 -61l-49 -275h-85z
" />
    <glyph glyph-name="uni0403" unicode="&#x403;" horiz-adv-x="504" 
d="M161 716h398l-14 -81h-314l-113 -635h-84zM407 900h95l-93 -127h-77z" />
    <glyph glyph-name="uni0404" unicode="&#x404;" horiz-adv-x="737" 
d="M211.5 25.5q-70.5 41.5 -111.5 118.5t-41 178q0 107 55 201.5t153.5 151.5t221.5 57q82 0 141.5 -28t108.5 -89l-67 -59q-69 95 -196 95q-76 0 -144.5 -32t-116.5 -89.5t-65 -131.5h343l-14 -80h-337v-3q0 -74 31.5 -131t86 -88t122.5 -31q72 0 128 26t111 80l53 -59
q-66 -65 -138.5 -96.5t-167.5 -31.5q-86 0 -156.5 41.5z" />
    <glyph glyph-name="uni0405" unicode="&#x405;" horiz-adv-x="564" 
d="M99 35.5q-62 51.5 -76 142.5l81 33q8 -65 48 -105.5t107 -40.5q41 0 78.5 17.5t61 49.5t23.5 74q0 45 -30.5 74.5t-98.5 54.5l-43 16q-63 24 -103 67t-40 111q0 58 32.5 104t87 72.5t118.5 26.5q65 0 110 -23.5t68.5 -57.5t28.5 -67l-82 -30q-7 38 -38 67.5t-93 29.5
q-61 0 -102.5 -31.5t-41.5 -83.5q0 -41 28 -68t83 -48l43 -16q161 -60 161 -186q0 -70 -34 -123t-93.5 -82t-133.5 -29q-88 0 -150 51.5z" />
    <glyph glyph-name="uni0406" unicode="&#x406;" horiz-adv-x="244" 
d="M161 716h84l-127 -716h-84z" />
    <glyph glyph-name="uni0407" unicode="&#x407;" horiz-adv-x="244" 
d="M114 822q-15 15 -15 34q0 21 15 35t35 14q21 0 35 -14t14 -35q0 -20 -14 -34.5t-35 -14.5q-20 0 -35 15zM265 822q-15 15 -15 34q0 21 14.5 35t34.5 14q21 0 35 -14t14 -35q0 -20 -14 -34.5t-35 -14.5q-19 0 -34 15zM161 716h84l-127 -716h-84z" />
    <glyph glyph-name="uni0408" unicode="&#x408;" horiz-adv-x="531" 
d="M75 29q-53 45 -62 121l82 32q6 -61 39 -89t83 -28q60 0 103.5 42t54.5 107l88 502h84l-87 -496q-20 -117 -88 -176.5t-165 -59.5q-79 0 -132 45z" />
    <glyph glyph-name="uni0409" unicode="&#x409;" horiz-adv-x="1070" 
d="M-19 -5l15 83q11 -5 31 -5q19 0 37 6.5t31 18.5q24 21 39.5 65t29.5 124l75 429h474l-53 -306h174q86 0 138.5 -48.5t52.5 -135.5q0 -67 -32.5 -118t-91 -79.5t-132.5 -28.5h-266l112 635h-305l-64 -362q-17 -97 -42.5 -153.5t-62.5 -87.5q-27 -22 -56.5 -31t-70.5 -9
q-18 0 -33 3zM787 81q66 0 108.5 39t42.5 99q0 51 -31.5 81t-84.5 30h-177l-44 -249h186z" />
    <glyph glyph-name="uni040A" unicode="&#x40a;" horiz-adv-x="1016" 
d="M161 716h84l-54 -306h329l55 306h84l-54 -306h175q85 0 138 -48.5t53 -135.5q0 -67 -32.5 -118t-91 -79.5t-132.5 -28.5h-267l58 330h-329l-59 -330h-84zM733 81q65 0 107.5 39t42.5 99q0 51 -31.5 81t-83.5 30h-177l-44 -249h186z" />
    <glyph glyph-name="uni040B" unicode="&#x40b;" horiz-adv-x="748" 
d="M285 635h-191l15 81h470l-14 -81h-195l-35 -200l-16 -70h4q78 73 184 73q83 0 133 -47.5t50 -127.5q0 -20 -5 -50l-38 -213h-87l38 210q3 14 3 38q0 49 -31.5 79.5t-90.5 30.5q-50 0 -94 -22t-78 -61l-49 -275h-85z" />
    <glyph glyph-name="uni040C" unicode="&#x40c;" horiz-adv-x="615" 
d="M161 716h84l-63 -357h4l375 357h114l-1 -4l-390 -367l275 -341l-1 -4h-108l-267 337h-4l-61 -337h-84zM436 900h95l-93 -127h-77z" />
    <glyph glyph-name="uni040D" unicode="&#x40d;" horiz-adv-x="680" 
d="M151 716h85l-77 -432l-28 -138h4l449 570h107l-127 -716h-84l81 459l28 138h-4l-470 -597h-91zM343 900h91l29 -127h-72z" />
    <glyph glyph-name="uni040E" unicode="&#x40e;" horiz-adv-x="601" 
d="M36 0l35 78q20 -13 48 -13t47 13.5t39 44.5l38 60l-147 533h93l110 -435h4l263 435h102l-396 -629q-65 -103 -157 -103q-45 0 -79 16zM303.5 801.5q-32.5 29.5 -32.5 73.5q0 7 2 21h69q-1 -5 -1 -12q0 -21 12.5 -34.5t36.5 -13.5q26 0 44.5 16t23.5 44h68
q-9 -61 -47.5 -92.5t-96.5 -31.5q-46 0 -78.5 29.5z" />
    <glyph glyph-name="uni040F" unicode="&#x40f;" horiz-adv-x="674" 
d="M251 0h-216l126 716h85l-113 -635h346l112 635h84l-126 -716h-217l-26 -152h-81z" />
    <glyph glyph-name="uni0410" unicode="&#x410;" horiz-adv-x="669" 
d="M367 716h96l145 -716h-90l-36 197h-309l-108 -197h-95zM466 277l-50 258l-14 77h-4l-183 -335h251z" />
    <glyph glyph-name="uni0411" unicode="&#x411;" horiz-adv-x="597" 
d="M157 716h412l-14 -81h-329l-39 -224h179q85 0 137.5 -49.5t52.5 -135.5q0 -66 -33 -117.5t-91 -80t-131 -28.5h-271zM320 81q64 0 106 39.5t42 99.5q0 50 -31 80t-83 30h-181l-44 -249h191z" />
    <glyph glyph-name="uni0412" unicode="&#x412;" horiz-adv-x="605" 
d="M161 716h244q57 0 99.5 -23.5t65 -63t22.5 -86.5q0 -63 -37 -107.5t-91 -63.5l-1 -4q96 -49 96 -150q0 -60 -33.5 -110t-91.5 -79t-129 -29h-271zM363 406q61 0 102 33.5t41 90.5q0 45 -28.5 75t-79.5 30h-167l-41 -229h173zM323 81q37 0 71.5 16t56 46.5t21.5 72.5
q0 50 -32.5 80t-87.5 30h-176l-43 -245h190z" />
    <glyph glyph-name="uni0413" unicode="&#x413;" horiz-adv-x="504" 
d="M161 716h398l-14 -81h-314l-113 -635h-84z" />
    <glyph glyph-name="uni0414" unicode="&#x414;" horiz-adv-x="780" 
d="M16 81h63q58 49 102 158.5t67 239.5l41 237h451l-113 -635h76l-41 -233h-80l26 152h-526l-26 -152h-80zM543 81l98 554h-283l-35 -194q-21 -122 -56 -210.5t-87 -149.5h363z" />
    <glyph glyph-name="uni0415" unicode="&#x415;" horiz-adv-x="550" 
d="M161 716h414l-14 -81h-330l-42 -237h298l-14 -80h-298l-42 -237h330l-15 -81h-414z" />
    <glyph glyph-name="uni0416" unicode="&#x416;" horiz-adv-x="889" 
d="M-38 4l362 355l-225 353l1 4h98l219 -350h4l63 350h84l-62 -350h4l339 350h108l-1 -4l-359 -366l239 -342l-1 -4h-104l-227 330h-4l-59 -330h-84l58 330h-4l-337 -330h-113z" />
    <glyph glyph-name="uni0417" unicode="&#x417;" horiz-adv-x="543" 
d="M146 4q-47 20 -81.5 60.5t-42.5 99.5l85 32q7 -60 44 -95.5t97 -35.5q44 0 81.5 19.5t59.5 54t22 78.5q0 50 -37.5 84t-93.5 34h-61l14 80h54q40 0 77 16.5t60 47.5t23 72q0 43 -34 71.5t-83 28.5q-55 0 -92.5 -29.5t-51.5 -71.5l-74 33q26 61 84.5 105t142.5 44
q56 0 100.5 -22.5t69.5 -61t25 -85.5q0 -62 -34 -108t-94 -75l-1 -4q39 -20 66 -60.5t27 -94.5q0 -68 -34.5 -122t-93.5 -84.5t-131 -30.5q-46 0 -93 20z" />
    <glyph glyph-name="uni0418" unicode="&#x418;" horiz-adv-x="680" 
d="M151 716h85l-77 -432l-28 -138h4l449 570h107l-127 -716h-84l81 459l28 138h-4l-470 -597h-91z" />
    <glyph glyph-name="uni0419" unicode="&#x419;" horiz-adv-x="680" 
d="M151 716h85l-77 -432l-28 -138h4l449 570h107l-127 -716h-84l81 459l28 138h-4l-470 -597h-91zM355.5 801.5q-32.5 29.5 -32.5 73.5q0 7 2 21h69q-1 -5 -1 -12q0 -21 12.5 -34.5t36.5 -13.5q26 0 44.5 16t23.5 44h68q-9 -61 -47.5 -92.5t-96.5 -31.5q-46 0 -78.5 29.5z
" />
    <glyph glyph-name="uni041A" unicode="&#x41a;" horiz-adv-x="615" 
d="M161 716h84l-63 -357h4l375 357h114l-1 -4l-390 -367l275 -341l-1 -4h-108l-267 337h-4l-61 -337h-84z" />
    <glyph glyph-name="uni041B" unicode="&#x41b;" horiz-adv-x="700" 
d="M-22 -5l15 83q11 -5 31 -5q39 0 69 25q23 21 39 66t29 123l75 429h475l-126 -716h-85l112 635h-305l-64 -362q-18 -98 -43 -154t-62 -87q-27 -22 -56.5 -31t-70.5 -9q-18 0 -33 3z" />
    <glyph glyph-name="uni041C" unicode="&#x41c;" horiz-adv-x="866" 
d="M161 716h119l126 -587h4l331 587h126l-127 -716h-84l80 455l29 136h-4l-335 -591h-71l-132 591h-4l-20 -136l-81 -455h-84z" />
    <glyph glyph-name="uni041D" unicode="&#x41d;" horiz-adv-x="698" 
d="M161 716h84l-55 -310h369l56 310h84l-127 -716h-84l57 326h-369l-58 -326h-84z" />
    <glyph glyph-name="uni041E" unicode="&#x41e;" horiz-adv-x="825" 
d="M217.5 25.5q-74.5 41.5 -117.5 115.5t-43 168q0 110 54 207.5t150.5 156.5t218.5 59q90 0 164 -41.5t117 -115.5t43 -168q0 -110 -53.5 -207.5t-150 -156.5t-217.5 -59q-91 0 -165.5 41.5zM555 112.5q75 47.5 118.5 125t43.5 162.5q0 76 -32.5 133t-89 87.5t-125.5 30.5
q-89 0 -163.5 -47.5t-118 -125t-43.5 -162.5q0 -76 32.5 -133t88.5 -87.5t125 -30.5q89 0 164 47.5z" />
    <glyph glyph-name="uni041F" unicode="&#x41f;" horiz-adv-x="674" 
d="M161 716h514l-127 -716h-84l112 635h-345l-113 -635h-84z" />
    <glyph glyph-name="uni0420" unicode="&#x420;" horiz-adv-x="576" 
d="M161 716h235q56 0 100 -23.5t69 -65.5t25 -96q0 -73 -33.5 -127.5t-93.5 -83t-136 -28.5h-156l-53 -292h-84zM342 373q71 0 116 37.5t45 109.5q0 53 -32.5 84t-81.5 31h-158l-46 -262h157z" />
    <glyph glyph-name="uni0421" unicode="&#x421;" horiz-adv-x="740" 
d="M208.5 24q-71.5 40 -112 113t-40.5 169q0 110 57 208.5t156 158t220 59.5q81 0 146 -33.5t99 -86.5l-68 -56q-33 49 -78.5 72t-108.5 23q-91 0 -168.5 -48t-122.5 -126.5t-45 -166.5q0 -73 31 -128.5t85 -86t121 -30.5q73 0 128.5 27t111.5 81l55 -61q-68 -66 -139 -97
t-165 -31q-91 0 -162.5 40z" />
    <glyph glyph-name="uni0422" unicode="&#x422;" horiz-adv-x="538" 
d="M293 635h-201l15 81h486l-15 -81h-200l-113 -635h-84z" />
    <glyph glyph-name="uni0423" unicode="&#x423;" horiz-adv-x="601" 
d="M36 0l35 78q20 -13 48 -13t47 13.5t39 44.5l38 60l-147 533h93l110 -435h4l263 435h102l-396 -629q-65 -103 -157 -103q-45 0 -79 16z" />
    <glyph glyph-name="uni0424" unicode="&#x424;" horiz-adv-x="796" 
d="M321 58q-82 8 -143 44t-94.5 94.5t-33.5 133.5q0 97 51 169.5t137 113t189 45.5l19 106h84l-19 -107q84 -8 145 -43.5t94 -94t33 -133.5q0 -98 -51 -170t-137 -112.5t-190 -46.5l-18 -105h-84zM413 579q-75 -6 -137.5 -36.5t-100.5 -83.5t-38 -123q0 -85 52 -137t146 -62
zM558 174q63 30 100.5 82t37.5 121q0 86 -52 138t-147 63l-77 -441q75 7 138 37z" />
    <glyph glyph-name="uni0425" unicode="&#x425;" horiz-adv-x="629" 
d="M278 375l-168 341h99l131 -277h4l228 277h104l-290 -348l183 -368h-100l-146 299h-4l-249 -299h-100z" />
    <glyph glyph-name="uni0426" unicode="&#x426;" horiz-adv-x="696" 
d="M520 0h-485l126 716h84l-111 -635h321l111 635h85l-112 -635h80l-44 -249h-84z" />
    <glyph glyph-name="uni0427" unicode="&#x427;" horiz-adv-x="600" 
d="M461 328q-39 -33 -83 -50.5t-107 -17.5q-82 0 -136.5 47t-54.5 133q0 24 5 54l39 222h86l-40 -227q-3 -21 -3 -35q0 -55 34.5 -84.5t98.5 -29.5q52 0 98 22.5t80 61.5l52 292h84l-127 -716h-84z" />
    <glyph glyph-name="uni0428" unicode="&#x428;" horiz-adv-x="908" 
d="M161 716h84l-112 -635h247l113 635h84l-112 -635h247l113 635h84l-127 -716h-748z" />
    <glyph glyph-name="uni0429" unicode="&#x429;" horiz-adv-x="953" 
d="M777 0h-743l127 716h84l-112 -635h247l113 635h84l-112 -635h247l113 635h84l-113 -635h80l-43 -249h-85z" />
    <glyph glyph-name="uni042A" unicode="&#x42a;" horiz-adv-x="747" 
d="M281 635h-188l14 81h273l-48 -265h156q99 0 158 -54.5t59 -147.5q0 -71 -35 -128t-98.5 -89t-146.5 -32h-257zM441 81q50 0 90 20t63 56.5t23 82.5q0 58 -36 94t-96 36h-167l-51 -289h174z" />
    <glyph glyph-name="uni042B" unicode="&#x42b;" horiz-adv-x="819" 
d="M161 716h84l-47 -265h155q99 0 158.5 -54.5t59.5 -147.5q0 -71 -35 -128t-98.5 -89t-146.5 -32h-257zM736 716h84l-127 -716h-84zM307 81q50 0 90 20t63 56.5t23 82.5q0 58 -36.5 94t-96.5 36h-166l-52 -289h175z" />
    <glyph glyph-name="uni042C" unicode="&#x42c;" horiz-adv-x="613" 
d="M161 716h84l-47 -265h155q99 0 158.5 -54.5t59.5 -147.5q0 -71 -35 -128t-98.5 -89t-146.5 -32h-257zM307 81q50 0 90 20t63 56.5t23 82.5q0 58 -36.5 94t-96.5 36h-166l-52 -289h175z" />
    <glyph glyph-name="uni042D" unicode="&#x42d;" horiz-adv-x="738" 
d="M133.5 23q-68.5 39 -112.5 98l67 56q81 -112 215 -112q78 0 145 34.5t112 92t61 126.5h-340l13 80h337l0.5 0.5l0.5 0.5q-1 80 -32.5 136.5t-85 86t-121.5 29.5q-62 0 -116.5 -25t-97.5 -71l-59 60q59 58 128 87.5t155 29.5q93 0 163.5 -40.5t109.5 -116t39 -176.5
q0 -109 -53.5 -204.5t-149.5 -153t-218 -57.5q-92 0 -160.5 39z" />
    <glyph glyph-name="uni042E" unicode="&#x42e;" horiz-adv-x="1085" 
d="M477.5 25.5q-74.5 41.5 -117 115.5t-42.5 168v17h-142l-58 -326h-84l127 716h84l-55 -310h139q20 90 77.5 164.5t144 118t189.5 43.5q91 0 165 -41.5t116.5 -115.5t42.5 -168q0 -110 -53.5 -207.5t-149.5 -156.5t-217 -59q-92 0 -166.5 41.5zM815.5 112.5
q74.5 47.5 118 125t43.5 162.5q0 76 -32.5 133t-88.5 87.5t-126 30.5q-89 0 -163.5 -47.5t-118 -125t-43.5 -162.5q0 -76 32.5 -133t89 -87.5t125.5 -30.5q89 0 163.5 47.5z" />
    <glyph glyph-name="uni042F" unicode="&#x42f;" horiz-adv-x="581" 
d="M-34 4l252 293l-1 3q-58 16 -98.5 65.5t-40.5 121.5q0 61 34.5 114t94.5 84t132 31h244l-127 -716h-85l53 292h-107l-248 -292h-104zM438 371l46 264h-157q-47 0 -84 -20t-57.5 -52.5t-20.5 -69.5q0 -57 35 -89.5t92 -32.5h146z" />
    <glyph glyph-name="uni0430" unicode="&#x430;" horiz-adv-x="531" 
d="M104.5 4.5q-38.5 20.5 -61 56t-22.5 79.5q0 85 62.5 135.5t171.5 50.5q40 0 78.5 -9.5t68.5 -25.5l6 30q3 17 3 29q0 45 -35.5 72.5t-89.5 27.5q-83 0 -137 -68l-66 47q36 46 91 71.5t121 25.5q92 0 144.5 -44.5t52.5 -119.5q0 -21 -5 -51l-56 -311h-81l13 72h-4
q-27 -40 -71 -64t-100 -24q-45 0 -83.5 20.5zM327 104.5q51 45.5 63 116.5q-31 18 -62 27t-78 9q-63 0 -102.5 -29.5t-39.5 -81.5q0 -40 28.5 -63.5t70.5 -23.5q69 0 120 45.5z" />
    <glyph glyph-name="uni0431" unicode="&#x431;" horiz-adv-x="610" 
d="M148.5 16.5q-51.5 32.5 -81.5 94t-30 144.5q0 112 38 206.5t114 158.5q44 36 101.5 57t121.5 21q39 0 59 3.5t29.5 10.5t16.5 21h85q-22 -65 -66.5 -88.5t-130.5 -23.5q-58 0 -95 -14t-67 -39q-77 -60 -101 -143h4q31 45 83 73t122 28q63 0 111.5 -31t75 -85t26.5 -119
q0 -83 -37.5 -153.5t-106.5 -112t-157 -41.5q-63 0 -114.5 32.5zM380.5 93q46.5 32 72.5 83.5t26 108.5q0 75 -42 119.5t-106 44.5q-62 0 -109.5 -30.5t-73 -81.5t-25.5 -109q0 -51 21 -89t56 -58t75 -20q59 0 105.5 32z" />
    <glyph glyph-name="uni0432" unicode="&#x432;" horiz-adv-x="507" 
d="M109 510h226q66 0 106 -35t40 -89q0 -45 -24 -77t-60 -46l-1 -4q29 -13 47 -38t18 -61q0 -48 -24.5 -84.5t-66 -56t-90.5 -19.5h-262zM314 295q34 0 57.5 21t23.5 53q0 29 -18 46.5t-51 17.5h-146l-25 -138h159zM283 77q39 0 65 24t26 62q0 27 -18 45t-50 18h-163
l-26 -149h166z" />
    <glyph glyph-name="uni0433" unicode="&#x433;" horiz-adv-x="421" 
d="M102 510h340l-13 -77h-256l-77 -433h-84z" />
    <glyph glyph-name="uni0434" unicode="&#x434;" horiz-adv-x="653" 
d="M1 77h54q28 23 56 90.5t41 145.5l35 197h402l-75 -433h75l-40 -229h-81l27 152h-427l-27 -152h-80zM429 77l62 356h-235l-24 -136q-13 -71 -32.5 -123.5t-48.5 -96.5h278z" />
    <glyph glyph-name="uni0435" unicode="&#x435;" horiz-adv-x="564" 
d="M140 15.5q-52 31.5 -79.5 85t-27.5 117.5q0 80 36 151t102 114t151 43q66 0 114 -29t73 -78.5t25 -107.5q0 -43 -9 -72h-404q-2 -20 -2 -32q0 -44 20.5 -77.5t54 -51t71.5 -17.5q59 0 100.5 24.5t69.5 70.5l65 -37q-38 -66 -99 -100.5t-140 -34.5q-69 0 -121 31.5z
M449 309v14q0 33 -16 62t-47 46.5t-74 17.5q-64 0 -111.5 -39.5t-65.5 -100.5h314z" />
    <glyph glyph-name="uni0436" unicode="&#x436;" horiz-adv-x="738" 
d="M-37 4l277 270l-172 232l1 4h99l162 -226h4l40 226h84l-40 -226h4l240 226h109l-1 -4l-261 -242l178 -260l-1 -4h-101l-169 252h-4l-44 -252h-84l44 252h-4l-255 -252h-107z" />
    <glyph glyph-name="uni0437" unicode="&#x437;" horiz-adv-x="496" 
d="M95 8.5q-49 24.5 -82 67.5l70 52q21 -30 56 -48.5t78 -18.5q56 0 93.5 22t37.5 66q0 34 -26 55t-77 21h-66l12 68h64q54 0 85 22t31 56q0 33 -26.5 55.5t-71.5 22.5q-37 0 -66.5 -13t-57.5 -43l-59 51q42 41 88 61.5t103 20.5q50 0 90.5 -20t63 -53.5t22.5 -74.5
q0 -43 -27 -74t-64 -42v-4q69 -31 69 -113q0 -75 -63.5 -118t-162.5 -43q-65 0 -114 24.5z" />
    <glyph glyph-name="uni0438" unicode="&#x438;" horiz-adv-x="570" 
d="M108 510h84l-50 -287l-21 -96h4l338 383h89l-91 -510h-84l50 287l21 96h-4l-339 -383h-88z" />
    <glyph glyph-name="uni0439" unicode="&#x439;" horiz-adv-x="570" 
d="M108 510h84l-50 -287l-21 -96h4l338 383h89l-91 -510h-84l50 287l21 96h-4l-339 -383h-88zM269.5 636.5q-32.5 29.5 -32.5 74.5q0 7 2 21h69q-1 -5 -1 -12q0 -21 12.5 -35t36.5 -14q26 0 44.5 16.5t23.5 44.5h68q-10 -62 -48 -93.5t-96 -31.5q-46 0 -78.5 29.5z" />
    <glyph glyph-name="uni043A" unicode="&#x43a;" horiz-adv-x="494" 
d="M111 510h85l-41 -231h4l252 231h111l-1 -4l-271 -241l193 -261l-1 -4h-101l-186 257h-4l-46 -257h-83z" />
    <glyph glyph-name="uni043B" unicode="&#x43b;" horiz-adv-x="625" 
d="M5 0l15 76q15 -5 32 -5q33 0 51 34.5t33 123.5l49 281h421l-89 -510h-85l77 433h-254l-40 -226q-21 -118 -63 -166.5t-99 -48.5q-29 0 -48 8z" />
    <glyph glyph-name="uni043C" unicode="&#x43c;" horiz-adv-x="671" 
d="M97 510h100l119 -343h3l240 343h104l-90 -510h-85l50 281l21 96h-4l-222 -313h-61l-114 313h-4l-13 -96l-50 -281h-84z" />
    <glyph glyph-name="uni043D" unicode="&#x43d;" horiz-adv-x="561" 
d="M102 510h85l-38 -214h278l38 214h84l-90 -510h-85l38 217h-278l-38 -217h-84z" />
    <glyph glyph-name="uni043E" unicode="&#x43e;" horiz-adv-x="595" 
d="M145.5 16q-52.5 32 -81.5 87.5t-29 123.5q0 83 36.5 151t104 108t154.5 40q68 0 120.5 -32t81 -87.5t28.5 -123.5q0 -83 -36.5 -151.5t-104 -108t-154.5 -39.5q-67 0 -119.5 32zM378.5 90.5q45.5 29.5 70.5 79t25 108.5q0 74 -42.5 122.5t-111.5 48.5q-58 0 -103.5 -29.5
t-70.5 -79t-25 -108.5q0 -75 42.5 -123t111.5 -48q58 0 103.5 29.5z" />
    <glyph glyph-name="uni043F" unicode="&#x43f;" horiz-adv-x="544" 
d="M102 510h430l-91 -510h-84l77 433h-261l-77 -433h-84z" />
    <glyph glyph-name="uni0440" unicode="&#x440;" horiz-adv-x="601" 
d="M109 510h80l-13 -75h4q29 42 75.5 66.5t109.5 24.5q59 0 106.5 -28.5t74.5 -81t27 -122.5q0 -84 -38 -155.5t-105.5 -113t-151.5 -41.5q-56 0 -99 26.5t-62 65.5h-4l-9 -71l-39 -221h-85zM389 90.5q46 29.5 72 81.5t26 115q0 74 -40.5 118t-104.5 44q-56 0 -102 -31
t-72.5 -84t-26.5 -117q0 -72 41 -114t103 -42q58 0 104 29.5z" />
    <glyph glyph-name="uni0441" unicode="&#x441;" horiz-adv-x="551" 
d="M140.5 16q-50.5 32 -78.5 86t-28 117q0 85 38 155t106 111t154 41q82 0 134 -41t69 -100l-79 -31q-14 45 -48.5 70t-85.5 25q-55 0 -101 -29t-73 -80t-27 -115q0 -70 40.5 -117t106.5 -47q52 0 93 25.5t66 71.5l68 -33q-40 -72 -97.5 -106.5t-141.5 -34.5
q-65 0 -115.5 32z" />
    <glyph glyph-name="uni0442" unicode="&#x442;" horiz-adv-x="473" 
d="M226 433h-167l14 77h417l-14 -77h-166l-77 -433h-84z" />
    <glyph glyph-name="uni0443" unicode="&#x443;" horiz-adv-x="516" 
d="M179 33l-127 477h89l95 -379h2l222 379h94l-444 -726h-90z" />
    <glyph glyph-name="uni0444" unicode="&#x444;" horiz-adv-x="756" 
d="M288 -13q-77 6 -134.5 39t-89 85.5t-31.5 115.5q0 90 46.5 156t126 102t177.5 40l34 191h85l-35 -192q75 -7 132.5 -40t89 -87t31.5 -122q0 -87 -47.5 -152t-127 -100t-173.5 -38l-35 -201h-85zM566 122.5q72 52.5 72 144.5q0 75 -49.5 123t-135.5 56l-67 -381
q108 5 180 57.5zM369 445q-70 -4 -128 -30t-92 -72.5t-34 -108.5q0 -71 52 -116.5t135 -52.5z" />
    <glyph glyph-name="uni0445" unicode="&#x445;" horiz-adv-x="486" 
d="M192 261l-129 249h96l94 -188h1l157 188h103l-222 -254l136 -256h-96l-98 196h-1l-163 -196h-102z" />
    <glyph glyph-name="uni0446" unicode="&#x446;" horiz-adv-x="602" 
d="M444 0h-425l90 510h84l-76 -433h261l76 433h84l-76 -433h76l-40 -229h-81z" />
    <glyph glyph-name="uni0447" unicode="&#x447;" horiz-adv-x="518" 
d="M359 195q-56 -37 -143 -37q-74 0 -119 43.5t-45 113.5q0 23 6 55l25 140h86l-27 -155q-4 -21 -4 -34q0 -41 27.5 -63.5t73.5 -22.5q89 0 136 46l40 229h85l-91 -510h-84z" />
    <glyph glyph-name="uni0448" unicode="&#x448;" horiz-adv-x="788" 
d="M109 510h84l-76 -433h194l77 433h84l-76 -433h194l77 433h84l-90 -510h-643z" />
    <glyph glyph-name="uni0449" unicode="&#x449;" horiz-adv-x="837" 
d="M656 0h-637l90 510h84l-76 -433h195l76 433h84l-76 -433h195l76 433h84l-76 -433h76l-40 -229h-81z" />
    <glyph glyph-name="uni044A" unicode="&#x44a;" horiz-adv-x="592" 
d="M179 433h-119l14 77h204l-32 -179h139q75 0 121 -40.5t46 -110.5q0 -80 -54.5 -130t-151.5 -50h-243zM358 77q47 0 76.5 26t29.5 72q0 35 -24.5 57t-62.5 22h-145l-31 -177h157z" />
    <glyph glyph-name="uni044B" unicode="&#x44b;" horiz-adv-x="708" 
d="M109 510h84l-31 -179h139q75 0 121 -40.5t46 -110.5q0 -80 -54.5 -130t-151.5 -50h-244zM606 510h85l-91 -510h-84zM273 77q48 0 77.5 26t29.5 72q0 35 -24.5 57t-62.5 22h-145l-31 -177h156z" />
    <glyph glyph-name="uni044C" unicode="&#x44c;" horiz-adv-x="507" 
d="M109 510h84l-31 -179h139q75 0 121 -40.5t46 -110.5q0 -80 -54.5 -130t-151.5 -50h-244zM273 77q48 0 77.5 26t29.5 72q0 35 -24.5 57t-62.5 22h-145l-31 -177h156z" />
    <glyph glyph-name="uni044D" unicode="&#x44d;" horiz-adv-x="547" 
d="M83.5 25q-54.5 41 -70.5 100l75 30q18 -46 51.5 -70t89.5 -24q71 0 124.5 46.5t70.5 112.5h-223l12 69h218v2q-2 51 -22.5 87t-53 53.5t-68.5 17.5q-54 0 -94.5 -25.5t-65.5 -70.5l-71 35q33 63 93 100.5t142 37.5q64 0 114.5 -29t79 -83.5t28.5 -127.5q0 -81 -38 -150.5
t-105 -110.5t-149 -41q-83 0 -137.5 41z" />
    <glyph glyph-name="uni044E" unicode="&#x44e;" horiz-adv-x="799" 
d="M348 14q-52 30 -82.5 82t-33.5 117v2h-90l-38 -215h-85l91 510h84l-39 -216h83q14 66 54 119t101.5 83t136.5 30q68 0 121.5 -32t83 -87.5t29.5 -123.5q0 -83 -37.5 -151.5t-105.5 -108t-156 -39.5q-65 0 -117 30zM580 90.5q46 29.5 72 79t26 108.5q0 48 -20 87
t-55.5 61.5t-81.5 22.5q-58 0 -104.5 -29.5t-72.5 -79.5t-26 -108q0 -49 20 -88t55.5 -61t81.5 -22q59 0 105 29.5z" />
    <glyph glyph-name="uni044F" unicode="&#x44f;" horiz-adv-x="493" 
d="M-41 5l173 183l-2 3q-40 13 -68.5 50t-28.5 90q0 46 24.5 87t69.5 66.5t105 25.5h243l-91 -510h-84l33 184h-105l-168 -184h-102zM346 257l30 176h-147q-49 0 -78.5 -29t-29.5 -69q0 -36 24 -57t61 -21h140z" />
    <glyph glyph-name="uni0450" unicode="&#x450;" horiz-adv-x="564" 
d="M140 15.5q-52 31.5 -79.5 85t-27.5 117.5q0 80 36 151t102 114t151 43q66 0 114 -29t73 -78.5t25 -107.5q0 -43 -9 -72h-404q-2 -20 -2 -32q0 -44 20.5 -77.5t54 -51t71.5 -17.5q59 0 100.5 24.5t69.5 70.5l65 -37q-38 -66 -99 -100.5t-140 -34.5q-69 0 -121 31.5z
M449 309v14q0 33 -16 62t-47 46.5t-74 17.5q-64 0 -111.5 -39.5t-65.5 -100.5h314zM255 736h91l29 -127h-72z" />
    <glyph glyph-name="uni0451" unicode="&#x451;" horiz-adv-x="564" 
d="M140 15.5q-52 31.5 -79.5 85t-27.5 117.5q0 80 36 151t102 114t151 43q66 0 114 -29t73 -78.5t25 -107.5q0 -43 -9 -72h-404q-2 -20 -2 -32q0 -44 20.5 -77.5t54 -51t71.5 -17.5q59 0 100.5 24.5t69.5 70.5l65 -37q-38 -66 -99 -100.5t-140 -34.5q-69 0 -121 31.5z
M449 309v14q0 33 -16 62t-47 46.5t-74 17.5q-64 0 -111.5 -39.5t-65.5 -100.5h314zM229 641q-16 16 -16 38q0 23 15.5 38t37.5 15q24 0 39 -15t15 -38q0 -22 -15.5 -38t-38.5 -16q-21 0 -37 16zM393 641q-16 16 -16 38q0 23 16 38t38 15q23 0 38 -15t15 -38q0 -22 -15 -38
t-38 -16q-22 0 -38 16z" />
    <glyph glyph-name="uni0452" unicode="&#x452;" horiz-adv-x="561" 
d="M225 -216l32 74q11 -7 31 -7q58 0 70 68l69 388q6 27 6 49q0 42 -29.5 67.5t-77.5 25.5q-63 0 -111 -48t-62 -124l-50 -277h-84l103 583h-65l13 67h63l12 66h85l-12 -66h148l-12 -67h-148l-14 -78l-16 -70h4q28 41 73 66t102 25q78 0 121 -41.5t43 -109.5q0 -32 -7 -68
l-69 -390q-25 -143 -163 -143q-33 0 -55 10z" />
    <glyph glyph-name="uni0453" unicode="&#x453;" horiz-adv-x="421" 
d="M102 510h340l-13 -77h-256l-77 -433h-84zM325 736h95l-93 -127h-76z" />
    <glyph glyph-name="uni0454" unicode="&#x454;" horiz-adv-x="543" 
d="M140.5 16q-50.5 32 -78.5 86t-28 119q0 83 37 152.5t104.5 111t153.5 41.5q82 0 133 -41t65 -100l-78 -30q-13 44 -45.5 69t-84.5 25q-69 0 -122 -44t-71 -116h230l-12 -69h-225v-3q3 -68 43.5 -112t103.5 -44q103 0 153 97l68 -33q-38 -72 -94 -106.5t-138 -34.5
q-64 0 -114.5 32z" />
    <glyph glyph-name="uni0455" unicode="&#x455;" horiz-adv-x="468" 
d="M75 23q-53 39 -70 101l81 32q10 -46 47 -71.5t84 -25.5q49 0 80.5 23t31.5 58q0 31 -21 51.5t-65 31.5l-51 13q-61 16 -96.5 50t-35.5 86q0 43 25.5 78.5t71.5 55.5t103 20q68 0 119.5 -32t68.5 -84l-81 -31q-12 32 -41.5 51.5t-70.5 19.5q-48 0 -77.5 -20t-29.5 -52
q0 -22 19 -41t55 -28l66 -17q60 -15 94.5 -52t34.5 -90q0 -75 -55.5 -120.5t-152.5 -45.5q-81 0 -134 39z" />
    <glyph glyph-name="uni0456" unicode="&#x456;" horiz-adv-x="226" 
d="M143 622q-18 18 -18 43q0 26 18 43.5t43 17.5q26 0 43.5 -17.5t17.5 -43.5q0 -25 -17.5 -43t-43.5 -18q-25 0 -43 18zM115 510h85l-90 -510h-84z" />
    <glyph glyph-name="uni0457" unicode="&#x457;" horiz-adv-x="227" 
d="M80.5 641q-16.5 16 -16.5 38q0 23 16 38t38 15q23 0 38.5 -15t15.5 -38q0 -22 -15.5 -38t-38.5 -16q-21 0 -37.5 16zM213 641q-16 16 -16 38q0 23 16 38t38 15q23 0 38.5 -15t15.5 -38q0 -22 -15.5 -38t-38.5 -16q-22 0 -38 16zM116 510h85l-90 -510h-85z" />
    <glyph glyph-name="uni0458" unicode="&#x458;" horiz-adv-x="226" 
d="M143 622q-18 18 -18 43q0 26 18 43.5t43 17.5q26 0 43.5 -17.5t17.5 -43.5q0 -25 -17.5 -43t-43.5 -18q-25 0 -43 18zM-114 -218l14 79q7 -4 19.5 -7t22.5 -3q58 0 70 71l104 588h85l-105 -592q-14 -79 -54.5 -111.5t-105.5 -32.5q-24 0 -50 8z" />
    <glyph glyph-name="uni0459" unicode="&#x459;" horiz-adv-x="920" 
d="M6 0l15 76q15 -5 31 -5q33 0 51 31t30 102l53 306h422l-34 -189h143q74 0 118 -40.5t44 -105.5q0 -81 -54.5 -128t-144.5 -47h-246l76 433h-254l-41 -231q-37 -210 -160 -210q-30 0 -49 8zM692 77q44 0 71.5 24.5t27.5 65.5q0 34 -22.5 55.5t-58.5 21.5h-150l-29 -167
h161z" />
    <glyph glyph-name="uni045A" unicode="&#x45a;" horiz-adv-x="831" 
d="M109 510h84l-33 -189h241l34 189h84l-34 -189h140q75 0 119.5 -41t44.5 -110q0 -50 -25.5 -88.5t-71 -60t-102.5 -21.5h-246l43 244h-241l-43 -244h-85zM602 77q44 0 71.5 24.5t27.5 66.5q0 33 -23 54.5t-60 21.5h-146l-29 -167h159z" />
    <glyph glyph-name="uni045B" unicode="&#x45b;" horiz-adv-x="561" 
d="M122 583h-65l13 67h63l12 66h85l-12 -66h148l-12 -67h-148l-14 -78l-16 -70h4q28 41 73 66t102 25q78 0 121 -41.5t43 -109.5q0 -32 -7 -68l-55 -307h-84l54 307q6 36 6 49q0 42 -29.5 67.5t-77.5 25.5q-63 0 -111 -48t-62 -124l-50 -277h-84z" />
    <glyph glyph-name="uni045C" unicode="&#x45c;" horiz-adv-x="494" 
d="M111 510h85l-41 -231h4l252 231h111l-1 -4l-271 -241l193 -261l-1 -4h-101l-186 257h-4l-46 -257h-83zM331 736h95l-93 -127h-76z" />
    <glyph glyph-name="uni045D" unicode="&#x45d;" horiz-adv-x="570" 
d="M108 510h84l-50 -287l-21 -96h4l338 383h89l-91 -510h-84l50 287l21 96h-4l-339 -383h-88zM265 736h91l29 -127h-72z" />
    <glyph glyph-name="uni045E" unicode="&#x45e;" horiz-adv-x="516" 
d="M179 33l-127 477h89l95 -379h2l222 379h94l-444 -726h-90zM233.5 636.5q-32.5 29.5 -32.5 74.5q0 7 2 21h69q-1 -5 -1 -12q0 -21 12.5 -35t36.5 -14q26 0 44.5 16.5t23.5 44.5h68q-10 -62 -48 -93.5t-96 -31.5q-46 0 -78.5 29.5z" />
    <glyph glyph-name="uni045F" unicode="&#x45f;" horiz-adv-x="576" 
d="M203 0h-184l89 510h85l-76 -433h281l76 433h84l-89 -510h-185l-27 -152h-81z" />
    <glyph glyph-name="uni0490" unicode="&#x490;" horiz-adv-x="512" 
d="M160 716h329l19 110h81l-33 -191h-326l-112 -635h-83z" />
    <glyph glyph-name="uni0491" unicode="&#x491;" horiz-adv-x="417" 
d="M102 510h255l17 96h81l-31 -173h-251l-76 -433h-84z" />
    <glyph glyph-name="uni04AE" unicode="&#x4ae;" horiz-adv-x="595" 
d="M270 331l-174 385h97l130 -300h4l233 300h102l-307 -385l-59 -331h-84z" />
    <glyph glyph-name="uni04AF" unicode="&#x4af;" horiz-adv-x="515" 
d="M169 0l-117 510h87l88 -417l235 417h91l-299 -510l-38 -216h-85z" />
    <glyph glyph-name="uni04B0" unicode="&#x4b0;" horiz-adv-x="595" 
d="M261 279h-178l12 66h168l-167 371h97l129 -300h4l234 300h102l-295 -371h168l-12 -66h-178l-49 -279h-84z" />
    <glyph glyph-name="uni04B1" unicode="&#x4b1;" horiz-adv-x="514" 
d="M168 0h-147l13 65h121l-8 33l-95 412h87l88 -417l234 417h91l-241 -412l-21 -33h122l-12 -65h-147l-38 -216h-85z" />
    <glyph glyph-name="uni0E3F" unicode="&#xe3f;" horiz-adv-x="579" 
d="M201 0h-180l121 684h179l18 100h70l-18 -100h3q74 -1 122.5 -46t48.5 -117q0 -59 -34 -103t-90 -63l-1 -3q40 -18 66 -54t26 -85q0 -59 -31.5 -108t-87.5 -77t-127 -28h-15l-17 -100h-70zM269 389l38 214h-95l-38 -214h95zM342 389q58 0 97 32t39 84q0 46 -24.5 72
t-72.5 26h-4l-37 -214h2zM215 81l40 229h-95l-40 -229h95zM305 81q60 0 99.5 35.5t39.5 92.5q0 43 -27 72t-76 29h-15l-40 -229h19z" />
    <glyph glyph-name="Wgrave" unicode="&#x1e80;" horiz-adv-x="944" 
d="M99 716h91l38 -526l4 -49h4l23 49l252 526h88l61 -526l6 -49h4l20 49l223 526h95l-316 -716h-88l-65 518l-7 56h-4l-26 -56l-248 -518h-89zM474 900h91l29 -127h-72z" />
    <glyph glyph-name="wgrave" unicode="&#x1e81;" horiz-adv-x="778" 
d="M52 510h86l48 -403h1l200 403h90l59 -402h1l190 402h89l-254 -510h-89l-58 407l-203 -407h-86zM363 736h91l29 -127h-72z" />
    <glyph glyph-name="Wacute" unicode="&#x1e82;" horiz-adv-x="944" 
d="M99 716h91l38 -526l4 -49h4l23 49l252 526h88l61 -526l6 -49h4l20 49l223 526h95l-316 -716h-88l-65 518l-7 56h-4l-26 -56l-248 -518h-89zM599 900h95l-93 -127h-77z" />
    <glyph glyph-name="wacute" unicode="&#x1e83;" horiz-adv-x="778" 
d="M52 510h86l48 -403h1l200 403h90l59 -402h1l190 402h89l-254 -510h-89l-58 407l-203 -407h-86zM480 736h95l-93 -127h-76z" />
    <glyph glyph-name="Wdieresis" unicode="&#x1e84;" horiz-adv-x="944" 
d="M99 716h91l38 -526l4 -49h4l23 49l252 526h88l61 -526l6 -49h4l20 49l223 526h95l-316 -716h-88l-65 518l-7 56h-4l-26 -56l-248 -518h-89zM454.5 805.5q-16.5 16.5 -16.5 37.5q0 23 16 38.5t38 15.5q23 0 38.5 -15.5t15.5 -38.5q0 -22 -15.5 -38t-38.5 -16
q-21 0 -37.5 16.5zM619 805.5q-16 16.5 -16 37.5q0 23 16 38.5t37 15.5q23 0 38.5 -15.5t15.5 -38.5q0 -22 -15.5 -38t-38.5 -16q-21 0 -37 16.5z" />
    <glyph glyph-name="wdieresis" unicode="&#x1e85;" horiz-adv-x="778" 
d="M52 510h86l48 -403h1l200 403h90l59 -402h1l190 402h89l-254 -510h-89l-58 407l-203 -407h-86zM337 641q-16 16 -16 38q0 23 15.5 38t37.5 15q24 0 39 -15t15 -38q0 -22 -15.5 -38t-38.5 -16q-21 0 -37 16zM501 641q-16 16 -16 38q0 23 16 38t38 15q23 0 38 -15t15 -38
q0 -22 -15 -38t-38 -16q-22 0 -38 16z" />
    <glyph glyph-name="uni1EA0" unicode="&#x1ea0;" horiz-adv-x="669" 
d="M367 716h96l145 -716h-90l-36 197h-309l-108 -197h-95zM466 277l-50 258l-14 77h-4l-183 -335h251zM231 -176q-16 16 -16 38q0 23 16 38t38 15q23 0 38 -15t15 -38q0 -22 -15 -38t-38 -16q-22 0 -38 16z" />
    <glyph glyph-name="uni1EA1" unicode="&#x1ea1;" horiz-adv-x="531" 
d="M104.5 4.5q-38.5 20.5 -61 56t-22.5 79.5q0 85 62.5 135.5t171.5 50.5q40 0 78.5 -9.5t68.5 -25.5l6 30q3 17 3 29q0 45 -35.5 72.5t-89.5 27.5q-83 0 -137 -68l-66 47q36 46 91 71.5t121 25.5q92 0 144.5 -44.5t52.5 -119.5q0 -21 -5 -51l-56 -311h-81l13 72h-4
q-27 -40 -71 -64t-100 -24q-45 0 -83.5 20.5zM327 104.5q51 45.5 63 116.5q-31 18 -62 27t-78 9q-63 0 -102.5 -29.5t-39.5 -81.5q0 -40 28.5 -63.5t70.5 -23.5q69 0 120 45.5zM156 -176q-16 16 -16 38q0 23 16 38t38 15q23 0 38 -15t15 -38q0 -22 -15 -38t-38 -16
q-22 0 -38 16z" />
    <glyph glyph-name="uni1EA2" unicode="&#x1ea2;" horiz-adv-x="669" 
d="M367 716h96l145 -716h-90l-36 197h-309l-108 -197h-95zM466 277l-50 258l-14 77h-4l-183 -335h251zM388 813q30 8 49.5 23.5t19.5 36.5q0 17 -10.5 26t-28.5 9q-27 0 -57 -12l-17 52q19 9 42.5 13.5t42.5 4.5q47 0 71.5 -21t24.5 -61q0 -51 -36.5 -82.5t-94.5 -41.5z" />
    <glyph glyph-name="uni1EA3" unicode="&#x1ea3;" horiz-adv-x="531" 
d="M104.5 4.5q-38.5 20.5 -61 56t-22.5 79.5q0 85 62.5 135.5t171.5 50.5q40 0 78.5 -9.5t68.5 -25.5l6 30q3 17 3 29q0 45 -35.5 72.5t-89.5 27.5q-83 0 -137 -68l-66 47q36 46 91 71.5t121 25.5q92 0 144.5 -44.5t52.5 -119.5q0 -21 -5 -51l-56 -311h-81l13 72h-4
q-27 -40 -71 -64t-100 -24q-45 0 -83.5 20.5zM327 104.5q51 45.5 63 116.5q-31 18 -62 27t-78 9q-63 0 -102.5 -29.5t-39.5 -81.5q0 -40 28.5 -63.5t70.5 -23.5q69 0 120 45.5zM276 627q31 5 49.5 20.5t18.5 38.5q0 14 -10 22t-30 8q-27 0 -57 -12l-7 54q38 16 75 16
q44 0 70.5 -21.5t26.5 -61.5q0 -51 -34.5 -80.5t-96.5 -36.5z" />
    <glyph glyph-name="uni1EA4" unicode="&#x1ea4;" horiz-adv-x="669" 
d="M367 716h96l145 -716h-90l-36 197h-309l-108 -197h-95zM466 277l-50 258l-14 77h-4l-183 -335h251zM586 1000h97l-90 -122h-69zM281 763l122 116h75l83 -116l-1 -5h-77l-47 57h-8l-60 -57h-88z" />
    <glyph glyph-name="uni1EA5" unicode="&#x1ea5;" horiz-adv-x="531" 
d="M104.5 4.5q-38.5 20.5 -61 56t-22.5 79.5q0 85 62.5 135.5t171.5 50.5q40 0 78.5 -9.5t68.5 -25.5l6 30q3 17 3 29q0 45 -35.5 72.5t-89.5 27.5q-83 0 -137 -68l-66 47q36 46 91 71.5t121 25.5q92 0 144.5 -44.5t52.5 -119.5q0 -21 -5 -51l-56 -311h-81l13 72h-4
q-27 -40 -71 -64t-100 -24q-45 0 -83.5 20.5zM327 104.5q51 45.5 63 116.5q-31 18 -62 27t-78 9q-63 0 -102.5 -29.5t-39.5 -81.5q0 -40 28.5 -63.5t70.5 -23.5q69 0 120 45.5zM486 856h93l-87 -122h-72zM177 619l122 117h75l83 -117l-1 -5h-79l-45 58h-8l-62 -58h-86z" />
    <glyph glyph-name="uni1EA6" unicode="&#x1ea6;" horiz-adv-x="669" 
d="M367 716h96l145 -716h-90l-36 197h-309l-108 -197h-95zM466 277l-50 258l-14 77h-4l-183 -335h251zM496 1000h93l24 -122h-66zM281 763l122 116h75l83 -116l-1 -5h-77l-47 57h-8l-60 -57h-88z" />
    <glyph glyph-name="uni1EA7" unicode="&#x1ea7;" horiz-adv-x="531" 
d="M104.5 4.5q-38.5 20.5 -61 56t-22.5 79.5q0 85 62.5 135.5t171.5 50.5q40 0 78.5 -9.5t68.5 -25.5l6 30q3 17 3 29q0 45 -35.5 72.5t-89.5 27.5q-83 0 -137 -68l-66 47q36 46 91 71.5t121 25.5q92 0 144.5 -44.5t52.5 -119.5q0 -21 -5 -51l-56 -311h-81l13 72h-4
q-27 -40 -71 -64t-100 -24q-45 0 -83.5 20.5zM327 104.5q51 45.5 63 116.5q-31 18 -62 27t-78 9q-63 0 -102.5 -29.5t-39.5 -81.5q0 -40 28.5 -63.5t70.5 -23.5q69 0 120 45.5zM391 856h93l24 -122h-69zM176 619l122 117h75l83 -117l-1 -5h-79l-45 58h-8l-62 -58h-86z" />
    <glyph glyph-name="uni1EA8" unicode="&#x1ea8;" horiz-adv-x="669" 
d="M367 716h96l145 -716h-90l-36 197h-309l-108 -197h-95zM466 277l-50 258l-14 77h-4l-183 -335h251zM540 866q36 17 36 46q0 14 -8.5 22t-24.5 8q-17 0 -35 -7l11 61q24 4 42 4q41 0 62.5 -20t21.5 -57q0 -67 -77 -99zM282 763l122 116h75l83 -116l-1 -5h-77l-47 57h-8
l-60 -57h-88z" />
    <glyph glyph-name="uni1EA9" unicode="&#x1ea9;" horiz-adv-x="531" 
d="M104.5 4.5q-38.5 20.5 -61 56t-22.5 79.5q0 85 62.5 135.5t171.5 50.5q40 0 78.5 -9.5t68.5 -25.5l6 30q3 17 3 29q0 45 -35.5 72.5t-89.5 27.5q-83 0 -137 -68l-66 47q36 46 91 71.5t121 25.5q92 0 144.5 -44.5t52.5 -119.5q0 -21 -5 -51l-56 -311h-81l13 72h-4
q-27 -40 -71 -64t-100 -24q-45 0 -83.5 20.5zM327 104.5q51 45.5 63 116.5q-31 18 -62 27t-78 9q-63 0 -102.5 -29.5t-39.5 -81.5q0 -40 28.5 -63.5t70.5 -23.5q69 0 120 45.5zM440 707q41 31 41 64q0 27 -33 27q-17 0 -35 -7l11 61q24 4 42 4q40 0 62 -19t22 -50
q0 -40 -19.5 -66.5t-63.5 -50.5zM177 619l122 117h75l83 -117l-1 -5h-79l-45 58h-8l-62 -58h-86z" />
    <glyph glyph-name="uni1EAA" unicode="&#x1eaa;" horiz-adv-x="669" 
d="M367 716h96l145 -716h-90l-36 197h-309l-108 -197h-95zM466 277l-50 258l-14 77h-4l-183 -335h251zM336.5 977.5q25.5 22.5 64.5 22.5q18 0 32 -5t33 -14q10 -5 20.5 -9t19.5 -4q27 0 38 32h61q-7 -43 -32.5 -65.5t-64.5 -22.5q-19 0 -33.5 5t-33.5 14q-24 13 -38 13
q-27 0 -38 -32h-61q7 43 32.5 65.5zM281 763l122 116h75l83 -116l-1 -5h-77l-47 57h-8l-60 -57h-88z" />
    <glyph glyph-name="uni1EAB" unicode="&#x1eab;" horiz-adv-x="531" 
d="M104.5 4.5q-38.5 20.5 -61 56t-22.5 79.5q0 85 62.5 135.5t171.5 50.5q40 0 78.5 -9.5t68.5 -25.5l6 30q3 17 3 29q0 45 -35.5 72.5t-89.5 27.5q-83 0 -137 -68l-66 47q36 46 91 71.5t121 25.5q92 0 144.5 -44.5t52.5 -119.5q0 -21 -5 -51l-56 -311h-81l13 72h-4
q-27 -40 -71 -64t-100 -24q-45 0 -83.5 20.5zM327 104.5q51 45.5 63 116.5q-31 18 -62 27t-78 9q-63 0 -102.5 -29.5t-39.5 -81.5q0 -40 28.5 -63.5t70.5 -23.5q69 0 120 45.5zM303 856q18 0 31.5 -5t29.5 -14q22 -13 37 -13q33 0 39 32h61q-17 -88 -104 -88q-19 0 -33 5
t-29 14q-22 13 -36 13q-31 0 -39 -32h-61q15 88 104 88zM173 619l122 117h75l83 -117l-1 -5h-79l-45 58h-8l-62 -58h-86z" />
    <glyph glyph-name="uni1EAC" unicode="&#x1eac;" horiz-adv-x="669" 
d="M367 716h96l145 -716h-90l-36 197h-309l-108 -197h-95zM466 277l-50 258l-14 77h-4l-183 -335h251zM231 -176q-16 16 -16 38q0 23 16 38t38 15q23 0 38 -15t15 -38q0 -22 -15 -38t-38 -16q-22 0 -38 16zM280 784l123 116h75l81 -116l-1 -5h-76l-44 63h-8l-63 -63h-88z
" />
    <glyph glyph-name="uni1EAD" unicode="&#x1ead;" horiz-adv-x="531" 
d="M104.5 4.5q-38.5 20.5 -61 56t-22.5 79.5q0 85 62.5 135.5t171.5 50.5q40 0 78.5 -9.5t68.5 -25.5l6 30q3 17 3 29q0 45 -35.5 72.5t-89.5 27.5q-83 0 -137 -68l-66 47q36 46 91 71.5t121 25.5q92 0 144.5 -44.5t52.5 -119.5q0 -21 -5 -51l-56 -311h-81l13 72h-4
q-27 -40 -71 -64t-100 -24q-45 0 -83.5 20.5zM327 104.5q51 45.5 63 116.5q-31 18 -62 27t-78 9q-63 0 -102.5 -29.5t-39.5 -81.5q0 -40 28.5 -63.5t70.5 -23.5q69 0 120 45.5zM156 -176q-16 16 -16 38q0 23 16 38t38 15q23 0 38 -15t15 -38q0 -22 -15 -38t-38 -16
q-22 0 -38 16zM172 619l123 117h74l82 -117l-1 -5h-77l-43 64h-9l-62 -64h-88z" />
    <glyph glyph-name="uni1EAE" unicode="&#x1eae;" horiz-adv-x="669" 
d="M367 716h96l145 -716h-90l-36 197h-309l-108 -197h-95zM466 277l-50 258l-14 77h-4l-183 -335h251zM469 1000h97l-87 -94h-63zM362.5 772q-27.5 14 -44 38.5t-16.5 54.5q0 11 1 17h65q-1 -3 -1 -10q0 -22 17 -38t46 -16q32 0 57 20t30 44h64q-11 -58 -52.5 -91
t-108.5 -33q-30 0 -57.5 14z" />
    <glyph glyph-name="uni1EAF" unicode="&#x1eaf;" horiz-adv-x="531" 
d="M104.5 4.5q-38.5 20.5 -61 56t-22.5 79.5q0 85 62.5 135.5t171.5 50.5q40 0 78.5 -9.5t68.5 -25.5l6 30q3 17 3 29q0 45 -35.5 72.5t-89.5 27.5q-83 0 -137 -68l-66 47q36 46 91 71.5t121 25.5q92 0 144.5 -44.5t52.5 -119.5q0 -21 -5 -51l-56 -311h-81l13 72h-4
q-27 -40 -71 -64t-100 -24q-45 0 -83.5 20.5zM327 104.5q51 45.5 63 116.5q-31 18 -62 27t-78 9q-63 0 -102.5 -29.5t-39.5 -81.5q0 -40 28.5 -63.5t70.5 -23.5q69 0 120 45.5zM367 856h98l-86 -103h-76zM235.5 618.5q-32.5 29.5 -32.5 74.5q0 7 2 21h68q-1 -4 -1 -11
q0 -22 14 -36t39 -14q30 0 49.5 17.5t24.5 43.5h68q-22 -125 -150 -125q-49 0 -81.5 29.5z" />
    <glyph glyph-name="uni1EB0" unicode="&#x1eb0;" horiz-adv-x="669" 
d="M367 716h96l145 -716h-90l-36 197h-309l-108 -197h-95zM466 277l-50 258l-14 77h-4l-183 -335h251zM361 1000h93l25 -94h-59zM362.5 772q-27.5 14 -44 38.5t-16.5 54.5q0 11 1 17h65q-1 -3 -1 -10q0 -22 17 -38t46 -16q32 0 57 20t30 44h64q-11 -58 -52.5 -91t-108.5 -33
q-30 0 -57.5 14z" />
    <glyph glyph-name="uni1EB1" unicode="&#x1eb1;" horiz-adv-x="531" 
d="M104.5 4.5q-38.5 20.5 -61 56t-22.5 79.5q0 85 62.5 135.5t171.5 50.5q40 0 78.5 -9.5t68.5 -25.5l6 30q3 17 3 29q0 45 -35.5 72.5t-89.5 27.5q-83 0 -137 -68l-66 47q36 46 91 71.5t121 25.5q92 0 144.5 -44.5t52.5 -119.5q0 -21 -5 -51l-56 -311h-81l13 72h-4
q-27 -40 -71 -64t-100 -24q-45 0 -83.5 20.5zM327 104.5q51 45.5 63 116.5q-31 18 -62 27t-78 9q-63 0 -102.5 -29.5t-39.5 -81.5q0 -40 28.5 -63.5t70.5 -23.5q69 0 120 45.5zM252 856h90l34 -103h-72zM231.5 618.5q-32.5 29.5 -32.5 74.5q0 7 2 21h68q-1 -4 -1 -11
q0 -22 14 -36t39 -14q30 0 49.5 17.5t24.5 43.5h68q-22 -125 -150 -125q-49 0 -81.5 29.5z" />
    <glyph glyph-name="uni1EB2" unicode="&#x1eb2;" horiz-adv-x="669" 
d="M367 716h96l145 -716h-90l-36 197h-309l-108 -197h-95zM466 277l-50 258l-14 77h-4l-183 -335h251zM413 876q29 18 29 41q0 11 -9 18t-24 7q-18 0 -40 -12l11 61q25 9 50 9q40 0 59 -19.5t19 -52.5t-18.5 -55.5t-48.5 -31.5zM362.5 772q-27.5 14 -44 38.5t-16.5 54.5
q0 11 1 17h65q-1 -3 -1 -10q0 -22 17 -38t46 -16q32 0 57 20t30 44h64q-11 -58 -52.5 -91t-108.5 -33q-30 0 -57.5 14z" />
    <glyph glyph-name="uni1EB3" unicode="&#x1eb3;" horiz-adv-x="531" 
d="M104.5 4.5q-38.5 20.5 -61 56t-22.5 79.5q0 85 62.5 135.5t171.5 50.5q40 0 78.5 -9.5t68.5 -25.5l6 30q3 17 3 29q0 45 -35.5 72.5t-89.5 27.5q-83 0 -137 -68l-66 47q36 46 91 71.5t121 25.5q92 0 144.5 -44.5t52.5 -119.5q0 -21 -5 -51l-56 -311h-81l13 72h-4
q-27 -40 -71 -64t-100 -24q-45 0 -83.5 20.5zM327 104.5q51 45.5 63 116.5q-31 18 -62 27t-78 9q-63 0 -102.5 -29.5t-39.5 -81.5q0 -40 28.5 -63.5t70.5 -23.5q69 0 120 45.5zM308 732q13 9 20.5 20.5t7.5 21.5t-8 17t-22 7q-19 0 -36 -10l-11 54q13 6 30.5 10t31.5 4
q39 0 60.5 -19t21.5 -50q0 -33 -17.5 -56.5t-49.5 -33.5zM227 628.5q-35 29.5 -35 74.5q0 6 2 20h65l-1 -8q0 -22 17.5 -39t46.5 -17q36 0 59 19.5t27 44.5h64q-11 -59 -52 -91.5t-109 -32.5q-49 0 -84 29.5z" />
    <glyph glyph-name="uni1EB4" unicode="&#x1eb4;" horiz-adv-x="669" 
d="M367 716h96l145 -716h-90l-36 197h-309l-108 -197h-95zM466 277l-50 258l-14 77h-4l-183 -335h251zM337.5 977.5q26.5 22.5 65.5 22.5q18 0 32.5 -5t31.5 -14q24 -13 39 -13q27 0 38 32h61q-7 -43 -33.5 -65.5t-65.5 -22.5q-19 0 -33.5 5t-31.5 14q-24 13 -38 13
q-27 0 -38 -32h-61q7 43 33.5 65.5zM362.5 772q-27.5 14 -44 38.5t-16.5 54.5q0 11 1 17h65q-1 -3 -1 -10q0 -22 17 -38t46 -16q32 0 57 20t30 44h64q-11 -58 -52.5 -91t-108.5 -33q-30 0 -57.5 14z" />
    <glyph glyph-name="uni1EB5" unicode="&#x1eb5;" horiz-adv-x="531" 
d="M104.5 4.5q-38.5 20.5 -61 56t-22.5 79.5q0 85 62.5 135.5t171.5 50.5q40 0 78.5 -9.5t68.5 -25.5l6 30q3 17 3 29q0 45 -35.5 72.5t-89.5 27.5q-83 0 -137 -68l-66 47q36 46 91 71.5t121 25.5q92 0 144.5 -44.5t52.5 -119.5q0 -21 -5 -51l-56 -311h-81l13 72h-4
q-27 -40 -71 -64t-100 -24q-45 0 -83.5 20.5zM327 104.5q51 45.5 63 116.5q-31 18 -62 27t-78 9q-63 0 -102.5 -29.5t-39.5 -81.5q0 -40 28.5 -63.5t70.5 -23.5q69 0 120 45.5zM229 830q25 26 68 26q18 0 32.5 -5t31.5 -14q24 -13 39 -13q26 0 39 32h61q-9 -51 -32.5 -74.5
t-68.5 -23.5q-19 0 -33.5 5t-31.5 14q-24 13 -38 13q-26 0 -39 -32h-61q8 46 33 72zM234 620.5q-35 31.5 -35 75.5q0 6 2 18h68q-1 -4 -1 -11q0 -22 14 -36t39 -14q30 0 49.5 17.5t24.5 43.5h68q-10 -57 -47.5 -91t-100.5 -34q-46 0 -81 31.5z" />
    <glyph glyph-name="uni1EB6" unicode="&#x1eb6;" horiz-adv-x="669" 
d="M367 716h96l145 -716h-90l-36 197h-309l-108 -197h-95zM466 277l-50 258l-14 77h-4l-183 -335h251zM231 -176q-16 16 -16 38q0 23 16 38t38 15q23 0 38 -15t15 -38q0 -22 -15 -38t-38 -16q-22 0 -38 16zM346.5 801.5q-32.5 29.5 -32.5 73.5q0 7 2 21h69q-1 -5 -1 -12
q0 -21 12.5 -34.5t36.5 -13.5q26 0 44.5 16t23.5 44h68q-9 -61 -47.5 -92.5t-96.5 -31.5q-46 0 -78.5 29.5z" />
    <glyph glyph-name="uni1EB7" unicode="&#x1eb7;" horiz-adv-x="531" 
d="M104.5 4.5q-38.5 20.5 -61 56t-22.5 79.5q0 85 62.5 135.5t171.5 50.5q40 0 78.5 -9.5t68.5 -25.5l6 30q3 17 3 29q0 45 -35.5 72.5t-89.5 27.5q-83 0 -137 -68l-66 47q36 46 91 71.5t121 25.5q92 0 144.5 -44.5t52.5 -119.5q0 -21 -5 -51l-56 -311h-81l13 72h-4
q-27 -40 -71 -64t-100 -24q-45 0 -83.5 20.5zM327 104.5q51 45.5 63 116.5q-31 18 -62 27t-78 9q-63 0 -102.5 -29.5t-39.5 -81.5q0 -40 28.5 -63.5t70.5 -23.5q69 0 120 45.5zM156 -176q-16 16 -16 38q0 23 16 38t38 15q23 0 38 -15t15 -38q0 -22 -15 -38t-38 -16
q-22 0 -38 16zM236.5 636.5q-32.5 29.5 -32.5 74.5q0 7 2 21h69q-1 -5 -1 -12q0 -21 12.5 -35t36.5 -14q26 0 44.5 16.5t23.5 44.5h68q-10 -62 -48 -93.5t-96 -31.5q-46 0 -78.5 29.5z" />
    <glyph glyph-name="uni1EB8" unicode="&#x1eb8;" horiz-adv-x="550" 
d="M161 716h414l-14 -81h-330l-42 -237h298l-14 -80h-298l-42 -237h330l-15 -81h-414zM185 -176q-16 16 -16 38q0 23 16 38t38 15q23 0 38 -15t15 -38q0 -22 -15 -38t-38 -16q-22 0 -38 16z" />
    <glyph glyph-name="uni1EB9" unicode="&#x1eb9;" horiz-adv-x="564" 
d="M140 15.5q-52 31.5 -79.5 85t-27.5 117.5q0 80 36 151t102 114t151 43q66 0 114 -29t73 -78.5t25 -107.5q0 -43 -9 -72h-404q-2 -20 -2 -32q0 -44 20.5 -77.5t54 -51t71.5 -17.5q59 0 100.5 24.5t69.5 70.5l65 -37q-38 -66 -99 -100.5t-140 -34.5q-69 0 -121 31.5z
M449 309v14q0 33 -16 62t-47 46.5t-74 17.5q-64 0 -111.5 -39.5t-65.5 -100.5h314zM194 -176q-16 16 -16 38q0 23 16 38t38 15q23 0 38 -15t15 -38q0 -22 -15 -38t-38 -16q-22 0 -38 16z" />
    <glyph glyph-name="uni1EBA" unicode="&#x1eba;" horiz-adv-x="550" 
d="M161 716h414l-14 -81h-330l-42 -237h298l-14 -80h-298l-42 -237h330l-15 -81h-414zM350 813q30 8 49.5 23.5t19.5 36.5q0 17 -10.5 26t-28.5 9q-27 0 -57 -12l-17 52q19 9 42.5 13.5t42.5 4.5q47 0 71.5 -21t24.5 -61q0 -51 -36.5 -82.5t-94.5 -41.5z" />
    <glyph glyph-name="uni1EBB" unicode="&#x1ebb;" horiz-adv-x="564" 
d="M140 15.5q-52 31.5 -79.5 85t-27.5 117.5q0 80 36 151t102 114t151 43q66 0 114 -29t73 -78.5t25 -107.5q0 -43 -9 -72h-404q-2 -20 -2 -32q0 -44 20.5 -77.5t54 -51t71.5 -17.5q59 0 100.5 24.5t69.5 70.5l65 -37q-38 -66 -99 -100.5t-140 -34.5q-69 0 -121 31.5z
M449 309v14q0 33 -16 62t-47 46.5t-74 17.5q-64 0 -111.5 -39.5t-65.5 -100.5h314zM299 627q31 5 49.5 20.5t18.5 38.5q0 14 -10 22t-30 8q-27 0 -57 -12l-7 54q38 16 75 16q44 0 70.5 -21.5t26.5 -61.5q0 -51 -34.5 -80.5t-96.5 -36.5z" />
    <glyph glyph-name="uni1EBC" unicode="&#x1ebc;" horiz-adv-x="550" 
d="M161 716h414l-14 -81h-330l-42 -237h298l-14 -80h-298l-42 -237h330l-15 -81h-414zM428 786q-15 6 -34 18q-18 11 -31.5 17t-29.5 6q-33 0 -42 -37h-70q8 56 38 85t74 29q17 0 32.5 -6t34.5 -18q18 -11 31.5 -17t28.5 -6q33 0 42 37h70q-7 -56 -37.5 -85t-74.5 -29
q-17 0 -32 6z" />
    <glyph glyph-name="uni1EBD" unicode="&#x1ebd;" horiz-adv-x="564" 
d="M140 15.5q-52 31.5 -79.5 85t-27.5 117.5q0 80 36 151t102 114t151 43q66 0 114 -29t73 -78.5t25 -107.5q0 -43 -9 -72h-404q-2 -20 -2 -32q0 -44 20.5 -77.5t54 -51t71.5 -17.5q59 0 100.5 24.5t69.5 70.5l65 -37q-38 -66 -99 -100.5t-140 -34.5q-69 0 -121 31.5z
M449 309v14q0 33 -16 62t-47 46.5t-74 17.5q-64 0 -111.5 -39.5t-65.5 -100.5h314zM380 622q-15 6 -34 18q-18 11 -31.5 17t-29.5 6q-33 0 -42 -37h-70q7 56 37 84.5t74 28.5q17 0 31 -6t36 -18q18 -11 31.5 -17t29.5 -6q32 0 41 37h71q-8 -56 -38 -84.5t-74 -28.5
q-17 0 -32 6z" />
    <glyph glyph-name="uni1EBE" unicode="&#x1ebe;" horiz-adv-x="550" 
d="M161 716h414l-14 -81h-330l-42 -237h298l-14 -80h-298l-42 -237h330l-15 -81h-414zM548 1000h97l-90 -122h-69zM243 763l122 116h75l83 -116l-1 -5h-77l-47 57h-8l-60 -57h-88z" />
    <glyph glyph-name="uni1EBF" unicode="&#x1ebf;" horiz-adv-x="564" 
d="M140 15.5q-52 31.5 -79.5 85t-27.5 117.5q0 80 36 151t102 114t151 43q66 0 114 -29t73 -78.5t25 -107.5q0 -43 -9 -72h-404q-2 -20 -2 -32q0 -44 20.5 -77.5t54 -51t71.5 -17.5q59 0 100.5 24.5t69.5 70.5l65 -37q-38 -66 -99 -100.5t-140 -34.5q-69 0 -121 31.5z
M449 309v14q0 33 -16 62t-47 46.5t-74 17.5q-64 0 -111.5 -39.5t-65.5 -100.5h314zM509 856h93l-87 -122h-72zM200 619l122 117h75l83 -117l-1 -5h-79l-45 58h-8l-62 -58h-86z" />
    <glyph glyph-name="uni1EC0" unicode="&#x1ec0;" horiz-adv-x="550" 
d="M161 716h414l-14 -81h-330l-42 -237h298l-14 -80h-298l-42 -237h330l-15 -81h-414zM458 1000h93l24 -122h-66zM243 763l122 116h75l83 -116l-1 -5h-77l-47 57h-8l-60 -57h-88z" />
    <glyph glyph-name="uni1EC1" unicode="&#x1ec1;" horiz-adv-x="564" 
d="M140 15.5q-52 31.5 -79.5 85t-27.5 117.5q0 80 36 151t102 114t151 43q66 0 114 -29t73 -78.5t25 -107.5q0 -43 -9 -72h-404q-2 -20 -2 -32q0 -44 20.5 -77.5t54 -51t71.5 -17.5q59 0 100.5 24.5t69.5 70.5l65 -37q-38 -66 -99 -100.5t-140 -34.5q-69 0 -121 31.5z
M449 309v14q0 33 -16 62t-47 46.5t-74 17.5q-64 0 -111.5 -39.5t-65.5 -100.5h314zM414 856h93l24 -122h-69zM199 619l122 117h75l83 -117l-1 -5h-79l-45 58h-8l-62 -58h-86z" />
    <glyph glyph-name="uni1EC2" unicode="&#x1ec2;" horiz-adv-x="550" 
d="M161 716h414l-14 -81h-330l-42 -237h298l-14 -80h-298l-42 -237h330l-15 -81h-414zM502 866q36 17 36 46q0 14 -8.5 22t-24.5 8q-17 0 -35 -7l11 61q24 4 42 4q41 0 62.5 -20t21.5 -57q0 -67 -77 -99zM244 763l122 116h75l83 -116l-1 -5h-77l-47 57h-8l-60 -57h-88z" />
    <glyph glyph-name="uni1EC3" unicode="&#x1ec3;" horiz-adv-x="564" 
d="M140 15.5q-52 31.5 -79.5 85t-27.5 117.5q0 80 36 151t102 114t151 43q66 0 114 -29t73 -78.5t25 -107.5q0 -43 -9 -72h-404q-2 -20 -2 -32q0 -44 20.5 -77.5t54 -51t71.5 -17.5q59 0 100.5 24.5t69.5 70.5l65 -37q-38 -66 -99 -100.5t-140 -34.5q-69 0 -121 31.5z
M449 309v14q0 33 -16 62t-47 46.5t-74 17.5q-64 0 -111.5 -39.5t-65.5 -100.5h314zM463 707q41 31 41 64q0 27 -33 27q-17 0 -35 -7l11 61q24 4 42 4q40 0 62 -19t22 -50q0 -40 -19.5 -66.5t-63.5 -50.5zM200 619l122 117h75l83 -117l-1 -5h-79l-45 58h-8l-62 -58h-86z" />
    <glyph glyph-name="uni1EC4" unicode="&#x1ec4;" horiz-adv-x="550" 
d="M161 716h414l-14 -81h-330l-42 -237h298l-14 -80h-298l-42 -237h330l-15 -81h-414zM298.5 977.5q25.5 22.5 64.5 22.5q18 0 32 -5t33 -14q10 -5 20.5 -9t19.5 -4q27 0 38 32h61q-7 -43 -32.5 -65.5t-64.5 -22.5q-19 0 -33.5 5t-33.5 14q-24 13 -38 13q-27 0 -38 -32h-61
q7 43 32.5 65.5zM243 763l122 116h75l83 -116l-1 -5h-77l-47 57h-8l-60 -57h-88z" />
    <glyph glyph-name="uni1EC5" unicode="&#x1ec5;" horiz-adv-x="564" 
d="M140 15.5q-52 31.5 -79.5 85t-27.5 117.5q0 80 36 151t102 114t151 43q66 0 114 -29t73 -78.5t25 -107.5q0 -43 -9 -72h-404q-2 -20 -2 -32q0 -44 20.5 -77.5t54 -51t71.5 -17.5q59 0 100.5 24.5t69.5 70.5l65 -37q-38 -66 -99 -100.5t-140 -34.5q-69 0 -121 31.5z
M449 309v14q0 33 -16 62t-47 46.5t-74 17.5q-64 0 -111.5 -39.5t-65.5 -100.5h314zM326 856q18 0 31.5 -5t29.5 -14q22 -13 37 -13q33 0 39 32h61q-17 -88 -104 -88q-19 0 -33 5t-29 14q-22 13 -36 13q-31 0 -39 -32h-61q15 88 104 88zM196 619l122 117h75l83 -117l-1 -5
h-79l-45 58h-8l-62 -58h-86z" />
    <glyph glyph-name="uni1EC6" unicode="&#x1ec6;" horiz-adv-x="550" 
d="M161 716h414l-14 -81h-330l-42 -237h298l-14 -80h-298l-42 -237h330l-15 -81h-414zM185 -176q-16 16 -16 38q0 23 16 38t38 15q23 0 38 -15t15 -38q0 -22 -15 -38t-38 -16q-22 0 -38 16zM242 784l123 116h75l81 -116l-1 -5h-76l-44 63h-8l-63 -63h-88z" />
    <glyph glyph-name="uni1EC7" unicode="&#x1ec7;" horiz-adv-x="564" 
d="M140 15.5q-52 31.5 -79.5 85t-27.5 117.5q0 80 36 151t102 114t151 43q66 0 114 -29t73 -78.5t25 -107.5q0 -43 -9 -72h-404q-2 -20 -2 -32q0 -44 20.5 -77.5t54 -51t71.5 -17.5q59 0 100.5 24.5t69.5 70.5l65 -37q-38 -66 -99 -100.5t-140 -34.5q-69 0 -121 31.5z
M449 309v14q0 33 -16 62t-47 46.5t-74 17.5q-64 0 -111.5 -39.5t-65.5 -100.5h314zM194 -176q-16 16 -16 38q0 23 16 38t38 15q23 0 38 -15t15 -38q0 -22 -15 -38t-38 -16q-22 0 -38 16zM195 619l123 117h74l82 -117l-1 -5h-77l-43 64h-9l-62 -64h-88z" />
    <glyph glyph-name="uni1EC8" unicode="&#x1ec8;" horiz-adv-x="244" 
d="M161 716h84l-127 -716h-84zM179 813q30 8 49.5 23.5t19.5 36.5q0 17 -10.5 26t-28.5 9q-27 0 -57 -12l-17 52q19 9 42.5 13.5t42.5 4.5q47 0 71.5 -21t24.5 -61q0 -51 -36.5 -82.5t-94.5 -41.5z" />
    <glyph glyph-name="uni1EC9" unicode="&#x1ec9;" horiz-adv-x="227" 
d="M116 510h85l-90 -510h-85zM138 627q31 5 49.5 20.5t18.5 38.5q0 14 -10 22t-30 8q-27 0 -57 -12l-7 54q38 16 75 16q44 0 70.5 -21.5t26.5 -61.5q0 -51 -34.5 -80.5t-96.5 -36.5z" />
    <glyph glyph-name="uni1ECA" unicode="&#x1eca;" horiz-adv-x="244" 
d="M161 716h84l-127 -716h-84zM14 -176q-16 16 -16 38q0 23 16 38t38 15q23 0 38 -15t15 -38q0 -22 -15 -38t-38 -16q-22 0 -38 16z" />
    <glyph glyph-name="uni1ECB" unicode="&#x1ecb;" horiz-adv-x="226" 
d="M143 622q-18 18 -18 43q0 26 18 43.5t43 17.5q26 0 43.5 -17.5t17.5 -43.5q0 -25 -17.5 -43t-43.5 -18q-25 0 -43 18zM115 510h85l-90 -510h-84zM6 -176q-16 16 -16 38q0 23 16 38t38 15q23 0 38 -15t15 -38q0 -22 -15 -38t-38 -16q-22 0 -38 16z" />
    <glyph glyph-name="uni1ECC" unicode="&#x1ecc;" horiz-adv-x="825" 
d="M217.5 25.5q-74.5 41.5 -117.5 115.5t-43 168q0 110 54 207.5t150.5 156.5t218.5 59q90 0 164 -41.5t117 -115.5t43 -168q0 -110 -53.5 -207.5t-150 -156.5t-217.5 -59q-91 0 -165.5 41.5zM555 112.5q75 47.5 118.5 125t43.5 162.5q0 76 -32.5 133t-89 87.5t-125.5 30.5
q-89 0 -163.5 -47.5t-118 -125t-43.5 -162.5q0 -76 32.5 -133t88.5 -87.5t125 -30.5q89 0 164 47.5zM324 -176q-16 16 -16 38q0 23 16 38t38 15q23 0 38 -15t15 -38q0 -22 -15 -38t-38 -16q-22 0 -38 16z" />
    <glyph glyph-name="uni1ECD" unicode="&#x1ecd;" horiz-adv-x="595" 
d="M145.5 16q-52.5 32 -81.5 87.5t-29 123.5q0 83 36.5 151t104 108t154.5 40q68 0 120.5 -32t81 -87.5t28.5 -123.5q0 -83 -36.5 -151.5t-104 -108t-154.5 -39.5q-67 0 -119.5 32zM378.5 90.5q45.5 29.5 70.5 79t25 108.5q0 74 -42.5 122.5t-111.5 48.5q-58 0 -103.5 -29.5
t-70.5 -79t-25 -108.5q0 -75 42.5 -123t111.5 -48q58 0 103.5 29.5zM208 -176q-16 16 -16 38q0 23 16 38t38 15q23 0 38 -15t15 -38q0 -22 -15 -38t-38 -16q-22 0 -38 16z" />
    <glyph glyph-name="uni1ECE" unicode="&#x1ece;" horiz-adv-x="825" 
d="M217.5 25.5q-74.5 41.5 -117.5 115.5t-43 168q0 110 54 207.5t150.5 156.5t218.5 59q90 0 164 -41.5t117 -115.5t43 -168q0 -110 -53.5 -207.5t-150 -156.5t-217.5 -59q-91 0 -165.5 41.5zM555 112.5q75 47.5 118.5 125t43.5 162.5q0 76 -32.5 133t-89 87.5t-125.5 30.5
q-89 0 -163.5 -47.5t-118 -125t-43.5 -162.5q0 -76 32.5 -133t88.5 -87.5t125 -30.5q89 0 164 47.5zM455 813q30 8 49.5 23.5t19.5 36.5q0 17 -10.5 26t-28.5 9q-27 0 -57 -12l-17 52q19 9 42.5 13.5t42.5 4.5q47 0 71.5 -21t24.5 -61q0 -51 -36.5 -82.5t-94.5 -41.5z" />
    <glyph glyph-name="uni1ECF" unicode="&#x1ecf;" horiz-adv-x="595" 
d="M145.5 16q-52.5 32 -81.5 87.5t-29 123.5q0 83 36.5 151t104 108t154.5 40q68 0 120.5 -32t81 -87.5t28.5 -123.5q0 -83 -36.5 -151.5t-104 -108t-154.5 -39.5q-67 0 -119.5 32zM378.5 90.5q45.5 29.5 70.5 79t25 108.5q0 74 -42.5 122.5t-111.5 48.5q-58 0 -103.5 -29.5
t-70.5 -79t-25 -108.5q0 -75 42.5 -123t111.5 -48q58 0 103.5 29.5zM314 627q31 5 49.5 20.5t18.5 38.5q0 14 -10 22t-30 8q-27 0 -57 -12l-7 54q38 16 75 16q44 0 70.5 -21.5t26.5 -61.5q0 -51 -34.5 -80.5t-96.5 -36.5z" />
    </font>
</defs>
</svg>
